<svg width="458" height="458" viewBox="0 0 458 458" fill="none" xmlns="http://www.w3.org/2000/svg">
  <rect width="458" height="458" rx="110" fill="black"/>
  <path fill-rule="evenodd" clip-rule="evenodd" d="M204.754 306.26C260.26 306.26 305.258 261.263 305.258 205.756C305.258 150.249 260.26 105.252 204.754 105.252C149.247 105.252 104.25 150.249 104.25 205.756C104.25 261.263 149.247 306.26 204.754 306.26ZM204.754 253.329C231.029 253.329 252.33 232.028 252.33 205.753C252.33 179.478 231.029 158.177 204.754 158.177C178.478 158.177 157.178 179.478 157.178 205.753C157.178 232.028 178.478 253.329 204.754 253.329Z" fill="#5BCC5A"/>
  <path d="M205.788 214.324C204.157 209.646 208.65 205.153 213.328 206.784L347.162 253.442C352.32 255.24 352.5 262.468 347.438 264.52L290.055 287.79C288.572 288.391 287.395 289.568 286.793 291.051L263.524 348.434C261.471 353.496 254.244 353.316 252.446 348.159L205.788 214.324Z" fill="#75DC66"/>
  <path fill-rule="evenodd" clip-rule="evenodd" d="M300.275 237.085L250.264 219.65C245.659 234.74 233.754 246.646 218.665 251.253L236.101 301.266C266.396 291.329 290.341 267.382 300.275 237.085Z" fill="#0DA84C"/>
</svg>
