<svg width="800" height="800" viewBox="0 0 800 800" fill="none" xmlns="http://www.w3.org/2000/svg">
  <rect width="800" height="800" rx="160" fill="black"/>
  <g clip-path="url(#clip0_511_16494)">
  <path d="M306.7 266.637C306.7 243.835 325.184 225.351 347.986 225.351H507.875C530.677 225.351 549.161 243.835 549.161 266.637V475.652C549.161 498.454 530.677 516.938 507.875 516.938H347.986C325.184 516.938 306.7 498.454 306.7 475.652V266.637Z" fill="#75DC66"/>
  <path d="M249.65 323.686C249.65 300.885 268.134 282.4 290.936 282.4H450.825C473.627 282.4 492.111 300.885 492.111 323.686V532.702C492.111 555.504 473.627 573.988 450.825 573.988H290.936C268.134 573.988 249.65 555.504 249.65 532.702V323.686Z" fill="#5BCC5A"/>
  <path d="M492.111 516.938L347.986 516.938C325.184 516.938 306.7 498.454 306.7 475.652V282.4H450.825C473.627 282.4 492.111 300.885 492.111 323.686V516.938Z" fill="#0DA84C"/>
  </g>
  <defs>
  <clipPath id="clip0_511_16494">
  <rect width="348.3" height="348.3" fill="white" transform="translate(225.35 225.35)"/>
  </clipPath>
  </defs>
</svg>
