<svg xmlns="http://www.w3.org/2000/svg" width="349" height="349" fill="none" viewBox="0 0 349 349"><g clip-path="url(#clip0_511_16522)"><path fill="#75DC66" d="M106.397 260.786C106.397 287.599 84.2219 309.303 57.4654 309.303C30.709 309.303 9.01855 287.567 9.01855 260.753C9.01855 245.048 16.46 231.085 28.0023 222.211C40.7316 215.65 46.8653 212.236 57.9497 212.236C84.7062 212.236 106.397 233.973 106.397 260.786Z"/><path fill="#75DC66" fill-rule="evenodd" d="M175.279 22.4182C99.2667 22.4182 37.6463 84.1695 37.6463 160.344C37.6463 195.186 50.5239 226.987 71.7855 251.269L63.5092 258.547L48.3881 212.727C37.3168 217.484 41.1286 215.445 28.0023 222.211C20.0312 203.176 15.6249 182.272 15.6249 160.344C15.6249 71.9817 87.1047 0.350098 175.279 0.350098C211.208 0.350098 244.394 12.2567 271.079 32.3427L257.853 49.9876C234.851 32.6735 206.276 22.4182 175.279 22.4182Z" clip-rule="evenodd"/><path fill="#5BCC5A" d="M339.305 196.736C339.305 280.822 271.284 348.988 187.376 348.988C103.468 348.988 35.9318 280.855 35.9318 196.769C35.9318 112.683 103.468 44.485 187.376 44.485C271.284 44.485 339.305 112.65 339.305 196.736Z"/><path fill="#0DA84C" d="M38.4102 169.232C39.3877 184.705 42.909 199.48 48.5614 213.148C51.5989 212.55 54.7374 212.236 57.9497 212.236C84.7062 212.236 106.397 233.973 106.397 260.786C106.397 279.633 95.6814 295.971 80.0223 304.016C52.7685 276.497 35.9318 238.604 35.9318 196.769C35.9318 187.367 36.782 178.163 38.4102 169.232Z"/></g><defs><clipPath id="clip0_511_16522"><rect width="348.3" height="348.3" fill="#fff" transform="translate(0.349609 0.350098)"/></clipPath></defs></svg>