<svg width="349" height="349" viewBox="0 0 349 349" fill="none" xmlns="http://www.w3.org/2000/svg">
  <g clip-path="url(#clip0_511_16460)">
  <path d="M0.337402 18.6517C0.337402 8.53726 8.53678 0.337891 18.6512 0.337891H116.325V329.987C116.325 340.101 108.126 348.3 98.0111 348.3H14.2559C6.56894 348.3 0.337402 342.069 0.337402 334.382V18.6517Z" fill="#5BCC5A"/>
  <path d="M232.312 213.999C232.312 224.114 224.113 232.313 213.999 232.313H134.639C124.524 232.313 116.325 224.114 116.325 213.999L116.325 0.337891H232.312V213.999Z" fill="#5BCC5A"/>
  <path d="M232.312 116.325H130.243C122.556 116.325 116.325 122.557 116.325 130.244V232.313H213.999C224.113 232.313 232.312 224.114 232.312 213.999V116.325Z" fill="#0DA84C"/>
  <path d="M232.312 0.337891H329.986C340.101 0.337891 348.3 8.53727 348.3 18.6517V156.005C348.3 166.12 340.101 174.319 329.986 174.319H232.312V0.337891Z" fill="#75DC66"/>
  </g>
  <defs>
  <clipPath id="clip0_511_16460">
  <rect width="348.3" height="348.3" fill="white"/>
  </clipPath>
  </defs>
</svg>
