<svg width="140" height="140" viewBox="0 0 140 140" fill="none" xmlns="http://www.w3.org/2000/svg">
<path d="M140 70C140 31.3401 108.66 0 70 0H0V140H140V70Z" fill="url(#paint0_linear_5021_2850)"/>
<path d="M96.2518 73.6645C96.2518 72.9471 96.654 72.2903 97.293 71.9643L110.224 65.3673C111.494 64.7194 113 65.6418 113 67.0675V100.982C113 102.395 111.519 103.318 110.25 102.696L97.3198 96.3526C96.6661 96.0319 96.2518 95.3672 96.2518 94.639V73.6645Z" fill="white"/>
<path d="M68.9449 81.4604C68.9449 86.7007 64.6968 90.9489 59.4564 90.9489C54.2161 90.9489 49.9679 86.7007 49.9679 81.4604C49.9679 76.2201 54.2161 71.9719 59.4564 71.9719C64.6968 71.9719 68.9449 76.2201 68.9449 81.4604Z" fill="white"/>
<path fill-rule="evenodd" clip-rule="evenodd" d="M59.4566 45.6807C78.096 45.6807 93.2062 60.7909 93.2062 79.4303V113.18H25.707V45.6807H59.4566ZM78.4881 81.4604C78.4881 91.9713 69.9673 100.492 59.4564 100.492C48.9455 100.492 40.4247 91.9713 40.4247 81.4604C40.4247 70.9495 48.9455 62.4287 59.4564 62.4287C69.9673 62.4287 78.4881 70.9495 78.4881 81.4604Z" fill="white"/>
<defs>
<linearGradient id="paint0_linear_5021_2850" x1="216.5" y1="256" x2="-80" y2="-86.5" gradientUnits="userSpaceOnUse">
<stop offset="0.252913" stop-color="#5268FF"/>
<stop offset="0.675904" stop-color="#2896FF"/>
</linearGradient>
</defs>
</svg>
