<svg xmlns="http://www.w3.org/2000/svg" width="40" height="40" fill="none" viewBox="0 0 40 40"><path fill="url(#paint0_linear_3193_167)" d="M40 20C40 8.95431 31.0457 0 20 0H0V40H40V20Z"/><g filter="url(#filter0_d_3193_167)"><path fill="#fff" fill-rule="evenodd" d="M15.6308 11.2547C11.9516 11.2547 8.96899 14.2373 8.96899 17.9165C8.96899 21.5957 11.9516 24.5783 15.6308 24.5783V25.5473C11.4164 25.5473 8 22.1309 8 17.9165C8 13.7021 11.4164 10.2857 15.6308 10.2857C19.8452 10.2857 23.2616 13.7021 23.2616 17.9165H22.2926C22.2926 14.2373 19.31 11.2547 15.6308 11.2547Z" clip-rule="evenodd"/><path fill="#fff" fill-rule="evenodd" d="M15.6308 14.4039C13.6909 14.4039 12.1182 15.9765 12.1182 17.9165C12.1182 19.8564 13.6909 21.429 15.6308 21.429V22.398C13.1557 22.398 11.1492 20.3916 11.1492 17.9165C11.1492 15.4413 13.1557 13.4349 15.6308 13.4349C18.1059 13.4349 20.1124 15.4413 20.1124 17.9165H19.1434C19.1434 15.9765 17.5708 14.4039 15.6308 14.4039Z" clip-rule="evenodd"/><path fill="#fff" d="M15.4971 18.4121C15.4094 18.1709 15.6432 17.9371 15.8843 18.0248L31.644 23.7562C31.9101 23.853 31.9089 24.2298 31.6421 24.3248L24.4399 26.8893C24.3536 26.92 24.2859 26.9882 24.2558 27.0748L21.7944 34.1581C21.7011 34.4267 21.3222 34.4294 21.225 34.1621L15.4971 18.4121Z"/></g><defs><filter id="filter0_d_3193_167" width="25.557" height="26.075" x="8" y="10.286" color-interpolation-filters="sRGB" filterUnits="userSpaceOnUse"><feFlood flood-opacity="0" result="BackgroundImageFix"/><feColorMatrix in="SourceAlpha" result="hardAlpha" type="matrix" values="0 0 0 0 0 0 0 0 0 0 0 0 0 0 0 0 0 0 127 0"/><feOffset dx=".857" dy="1.143"/><feGaussianBlur stdDeviation=".429"/><feComposite in2="hardAlpha" operator="out"/><feColorMatrix type="matrix" values="0 0 0 0 0 0 0 0 0 0 0 0 0 0 0 0 0 0 0.05 0"/><feBlend in2="BackgroundImageFix" mode="normal" result="effect1_dropShadow_3193_167"/><feBlend in="SourceGraphic" in2="effect1_dropShadow_3193_167" mode="normal" result="shape"/></filter><linearGradient id="paint0_linear_3193_167" x1="43.143" x2="-13" y1="51.857" y2="-21.429" gradientUnits="userSpaceOnUse"><stop stop-color="#28CCF0"/><stop offset=".699" stop-color="#799DFA"/></linearGradient></defs></svg>