<svg xmlns="http://www.w3.org/2000/svg" width="349" height="349" fill="none" viewBox="0 0 349 349"><g clip-path="url(#clip0_511_16504)"><path fill="#5BCC5A" d="M93.8149 301.146V48.97C93.8149 26.4826 118.761 12.9637 137.601 25.2414L338.363 156.075C352.079 165.014 352.079 185.102 338.363 194.041L137.601 324.874C118.761 337.152 93.8149 323.633 93.8149 301.146Z"/><path fill="#75DC66" d="M0.350098 255.95V93.0327C0.350098 70.2279 25.9261 56.7741 44.7182 69.6937L169.993 155.82C183.089 164.824 183.089 184.16 169.993 193.163L44.7182 279.289C25.9261 292.209 0.350098 278.755 0.350098 255.95Z"/><path fill="#0DA84C" d="M93.8157 245.533L169.993 193.163C183.089 184.16 183.089 164.824 169.993 155.82L93.8157 103.445V245.533Z"/></g><defs><clipPath id="clip0_511_16504"><rect width="348.3" height="348.3" fill="#fff" transform="translate(0.350098 0.349609)"/></clipPath></defs></svg>