<svg width="547" height="153" viewBox="0 0 547 153" fill="none" xmlns="http://www.w3.org/2000/svg">
  <path fill-rule="evenodd" clip-rule="evenodd" d="M104.926 39.5751C103.089 37.7386 101.044 36.0311 98.8253 34.4974L99.7916 20.9609C99.9451 18.8118 98.5453 16.8585 96.461 16.313L79.8231 11.9588C77.776 11.4231 75.6334 12.3944 74.6873 14.2872L68.5426 26.5805C63.1572 27.0818 57.8759 28.5113 53.0612 30.7747L41.8507 23.3413C40.0764 22.1648 37.7189 22.4012 36.2135 23.9066L23.9065 36.2135C22.4013 37.7188 22.1648 40.0762 23.3411 41.8505L30.77 53.0561C28.4718 57.9154 27.0721 63.1073 26.5708 68.5424L14.2862 74.6867C12.394 75.633 11.4232 77.7752 11.9588 79.8219L16.3132 96.4608C16.8587 98.5451 18.812 99.9448 20.9611 99.7914L34.4976 98.8251C36.0313 101.044 37.7387 103.089 39.5753 104.925C41.4118 106.762 43.4568 108.469 45.6755 110.003L44.7092 123.54C44.5557 125.689 45.9555 127.642 48.0398 128.187L64.6777 132.542C66.7249 133.077 68.8674 132.106 69.8135 130.213L75.9582 117.92C81.3436 117.419 86.6249 115.989 91.4396 113.726L102.65 121.159C104.424 122.336 106.782 122.099 108.287 120.594L120.594 108.287C122.099 106.782 122.336 104.424 121.16 102.65L113.731 91.4443C116.024 86.59 117.429 81.3931 117.93 75.958L130.218 69.8181C132.111 68.8721 133.082 66.7294 132.547 64.6821L128.192 48.0446C127.647 45.9603 125.694 44.5606 123.545 44.714L110.008 45.6803C108.469 43.4566 106.762 41.4116 104.926 39.5751ZM89.6228 89.6227C80.0431 99.2024 64.4575 99.2024 54.8779 89.6227C45.2982 80.0431 45.2982 64.4575 54.8779 54.8778C64.4576 45.2981 80.0431 45.2982 89.6228 54.8778C99.2024 64.4575 99.2025 80.043 89.6228 89.6227Z" fill="#5BCC5A"/>
  <path d="M98.8224 34.4974C101.041 36.0311 103.086 37.7386 104.923 39.5751C106.759 41.4116 108.467 43.4566 110.005 45.6803L123.542 44.714C125.691 44.5606 127.644 45.9603 128.19 48.0446L132.544 64.6821C133.08 66.7294 132.108 68.8721 130.215 69.8181L117.927 75.958C117.426 81.3931 116.021 86.59 113.728 91.4443L121.157 102.65C122.333 104.424 122.097 106.782 120.591 108.287L108.284 120.594C106.779 122.099 104.422 122.336 102.647 121.159L91.6986 113.899L77.9922 96.1318C82.2563 95.1133 86.299 92.9437 89.62 89.6227C99.1997 80.043 99.1996 64.4575 89.62 54.8778C80.0403 45.2982 64.4548 45.2981 54.8751 54.8778C53.1131 56.6397 51.6753 58.6048 50.5615 60.6983L50.5312 60.6592L68.1741 26.616C68.296 26.6037 68.4179 26.5918 68.5398 26.5805L74.6845 14.2872C75.6306 12.3944 77.7731 11.4231 79.8202 11.9588L96.4582 16.313C98.5425 16.8585 99.9422 18.8118 99.7888 20.9609L98.8224 34.4974Z" fill="#75DC66"/>
  <path d="M77.918 96.1156L102.146 127.216C103.799 129.339 106.938 129.533 108.84 127.63L127.624 108.847C129.526 106.944 129.332 103.806 127.209 102.152L96.1077 77.9238C95.0955 82.2006 92.9214 86.2583 89.5856 89.5942C86.2504 92.9293 82.1937 95.1031 77.918 96.1156Z" fill="#0DA84C"/>
  <g clip-path="url(#clip0_318_36024)">
  <path d="M227.544 55.0731V68.1034H206.096V135.561H189.952V68.1034H168.504V55.0731H227.544Z" fill="black"/>
  <path d="M296.403 102.236C296.403 104.542 296.249 106.618 295.941 108.463H249.24C249.624 113.075 251.239 116.688 254.083 119.302C256.927 121.916 260.425 123.223 264.576 123.223C270.573 123.223 274.839 120.647 277.376 115.497H294.788C292.943 121.647 289.407 126.721 284.179 130.718C278.952 134.639 272.533 136.599 264.922 136.599C258.772 136.599 253.237 135.254 248.317 132.563C243.474 129.796 239.669 125.913 236.901 120.917C234.211 115.92 232.865 110.154 232.865 103.62C232.865 97.0084 234.211 91.2044 236.901 86.2075C239.592 81.2106 243.359 77.3669 248.202 74.6763C253.045 71.9856 258.619 70.6403 264.922 70.6403C270.995 70.6403 276.415 71.9472 281.181 74.5609C286.024 77.1747 289.753 80.9031 292.367 85.7463C295.057 90.5125 296.403 96.0091 296.403 102.236ZM279.682 97.6234C279.605 93.4722 278.106 90.1666 275.185 87.7066C272.264 85.1697 268.689 83.9013 264.461 83.9013C260.464 83.9013 257.081 85.1313 254.314 87.5913C251.623 89.9744 249.97 93.3184 249.355 97.6234H279.682Z" fill="black"/>
  <path d="M330.326 136.599C325.099 136.599 320.409 135.677 316.258 133.832C312.107 131.91 308.801 129.334 306.341 126.106C303.958 122.877 302.651 119.302 302.42 115.382H318.68C318.987 117.842 320.179 119.879 322.254 121.493C324.407 123.108 327.059 123.915 330.211 123.915C333.286 123.915 335.669 123.3 337.36 122.07C339.128 120.84 340.012 119.264 340.012 117.342C340.012 115.266 338.936 113.729 336.784 112.729C334.708 111.653 331.364 110.5 326.751 109.27C321.985 108.117 318.065 106.925 314.99 105.695C311.991 104.465 309.378 102.582 307.148 100.045C304.996 97.5081 303.92 94.0872 303.92 89.7822C303.92 86.2459 304.919 83.0172 306.918 80.0959C308.993 77.1747 311.915 74.8684 315.681 73.1772C319.525 71.4859 324.022 70.6403 329.173 70.6403C336.784 70.6403 342.857 72.5622 347.392 76.4059C351.928 80.1728 354.426 85.285 354.888 91.7425H339.436C339.205 89.2056 338.129 87.2069 336.207 85.7463C334.362 84.2088 331.864 83.44 328.712 83.44C325.79 83.44 323.523 83.9781 321.908 85.0544C320.371 86.1306 319.602 87.6297 319.602 89.5516C319.602 91.7041 320.678 93.3569 322.831 94.51C324.983 95.5863 328.327 96.7009 332.863 97.8541C337.475 99.0072 341.281 100.199 344.279 101.429C347.277 102.659 349.852 104.581 352.005 107.194C354.234 109.731 355.387 113.114 355.464 117.342C355.464 121.032 354.426 124.338 352.351 127.259C350.352 130.18 347.431 132.486 343.587 134.178C339.82 135.792 335.4 136.599 330.326 136.599Z" fill="black"/>
  <path d="M385.206 84.9391V115.843C385.206 117.995 385.706 119.571 386.705 120.571C387.781 121.493 389.549 121.954 392.009 121.954H399.505V135.561H389.357C375.75 135.561 368.947 128.95 368.947 115.728V84.9391H361.336V71.6781H368.947V55.8803H385.206V71.6781H399.505V84.9391H385.206Z" fill="black"/>
  <path d="M416.997 64.0675C414.153 64.0675 411.769 63.1834 409.848 61.4153C408.003 59.5703 407.08 57.3025 407.08 54.6119C407.08 51.9212 408.003 49.6919 409.848 47.9237C411.769 46.0787 414.153 45.1562 416.997 45.1562C419.841 45.1562 422.186 46.0787 424.031 47.9237C425.953 49.6919 426.914 51.9212 426.914 54.6119C426.914 57.3025 425.953 59.5703 424.031 61.4153C422.186 63.1834 419.841 64.0675 416.997 64.0675ZM424.953 71.6781V135.561H408.81V71.6781H424.953Z" fill="black"/>
  <path d="M467.887 84.9391H456.701V135.561H440.327V84.9391H433.062V71.6781H440.327V68.4494C440.327 60.6081 442.556 54.8425 447.015 51.1525C451.474 47.4625 458.2 45.7328 467.195 45.9634V59.5703C463.274 59.4934 460.545 60.1469 459.008 61.5306C457.47 62.9144 456.701 65.4128 456.701 69.0259V71.6781H467.887V84.9391Z" fill="black"/>
  <path d="M537.158 71.6781L497.606 165.773H480.424L494.262 133.947L468.662 71.6781H486.766L503.256 116.304L519.976 71.6781H537.158Z" fill="black"/>
  <path d="M229.747 25.3847C229.747 26.2481 229.689 27.0252 229.574 27.716H212.103C212.247 29.4429 212.851 30.7956 213.915 31.7742C214.979 32.7527 216.288 33.242 217.841 33.242C220.084 33.242 221.68 32.2778 222.629 30.3495H229.143C228.452 32.652 227.13 34.5516 225.174 36.0482C223.219 37.5161 220.817 38.25 217.97 38.25C215.669 38.25 213.599 37.7463 211.758 36.739C209.947 35.7028 208.523 34.2494 207.488 32.3786C206.481 30.5078 205.978 28.3492 205.978 25.9028C205.978 23.4275 206.481 21.2545 207.488 19.3837C208.494 17.513 209.903 16.0739 211.715 15.0665C213.527 14.0592 215.612 13.5555 217.97 13.5555C220.242 13.5555 222.269 14.0448 224.052 15.0234C225.864 16.0019 227.259 17.3978 228.237 19.2111C229.243 20.9955 229.747 23.0534 229.747 25.3847ZM223.492 23.6578C223.463 22.1036 222.902 20.866 221.809 19.945C220.717 18.9952 219.379 18.5203 217.798 18.5203C216.302 18.5203 215.037 18.9808 214.002 19.9018C212.995 20.794 212.377 22.046 212.147 23.6578H223.492Z" fill="black"/>
  <path d="M256.37 25.3847C256.37 26.2481 256.313 27.0252 256.198 27.716H238.727C238.871 29.4429 239.475 30.7956 240.539 31.7742C241.603 32.7527 242.912 33.242 244.465 33.242C246.708 33.242 248.304 32.2778 249.253 30.3495H255.766C255.076 32.652 253.753 34.5516 251.798 36.0482C249.842 37.5161 247.441 38.25 244.594 38.25C242.293 38.25 240.223 37.7463 238.382 36.739C236.57 35.7028 235.147 34.2494 234.112 32.3786C233.105 30.5078 232.602 28.3492 232.602 25.9028C232.602 23.4275 233.105 21.2545 234.112 19.3837C235.118 17.513 236.527 16.0739 238.339 15.0665C240.151 14.0592 242.236 13.5555 244.594 13.5555C246.866 13.5555 248.893 14.0448 250.676 15.0234C252.488 16.0019 253.883 17.3978 254.861 19.2111C255.867 20.9955 256.37 23.0534 256.37 25.3847ZM250.115 23.6578C250.087 22.1036 249.526 20.866 248.433 19.945C247.34 18.9952 246.003 18.5203 244.421 18.5203C242.926 18.5203 241.661 18.9808 240.625 19.9018C239.619 20.794 239 22.046 238.77 23.6578H250.115Z" fill="black"/>
  <path d="M267.91 18.8624V30.5365C267.91 31.3424 268.122 31.8749 268.496 32.249C268.899 32.5944 269.56 32.7671 270.481 32.7671H273.285V37.8614H269.489C264.398 37.8614 261.963 35.258 261.963 30.3076V18.8624H258.761V13.8265H261.963V7.875H267.91V13.8265H273.285V18.8624H267.91Z" fill="black"/>
  <path d="M288.114 38.25C285.814 38.25 283.743 37.7463 281.903 36.739C280.062 35.7028 278.61 34.2494 277.546 32.3786C276.51 30.5078 275.993 28.3492 275.993 25.9028C275.993 23.4563 276.525 21.2977 277.589 19.4269C278.682 17.5561 280.163 16.1171 282.032 15.1097C283.901 14.0736 285.986 13.5555 288.287 13.5555C290.588 13.5555 292.673 14.0736 294.542 15.1097C296.411 16.1171 297.878 17.5561 298.942 19.4269C300.035 21.2977 300.581 23.4563 300.581 25.9028C300.581 28.3492 300.02 30.5078 298.899 32.3786C297.806 34.2494 296.31 35.7028 294.412 36.739C292.543 37.7463 290.444 38.25 288.114 38.25ZM288.114 32.983C289.207 32.983 290.228 32.724 291.177 32.2059C292.155 31.659 292.931 30.8532 293.507 29.7882C294.082 28.7233 294.369 27.4282 294.369 25.9028C294.369 23.629 293.765 21.8877 292.557 20.6789C291.378 19.4413 289.926 18.8225 288.201 18.8225C286.475 18.8225 285.023 19.4413 283.844 20.6789C282.693 21.8877 282.118 23.629 282.118 25.9028C282.118 28.1765 282.679 29.9322 283.801 31.1698C284.951 32.3786 286.389 32.983 288.114 32.983Z" fill="black"/>
  <path d="M200.877 7.875H189.284L200.877 25.2653V7.875Z" fill="black"/>
  <path d="M172.125 38.25L172.125 7.875H180.497L200.877 38.25H192.261L178.849 18.541V38.25H172.125Z" fill="black"/>
  </g>
  <defs>
  <clipPath id="clip0_318_36024">
  <rect width="374.625" height="153" fill="white" transform="translate(163.688)"/>
  </clipPath>
  </defs>
</svg>
