<svg xmlns="http://www.w3.org/2000/svg" width="40" height="40" fill="none" viewBox="0 0 40 40"><g clip-path="url(#clip0_3083_352)"><path fill="url(#paint0_linear_3083_352)" d="M40 20C40 8.95431 31.0457 0 20 0H0V40H40V20Z"/><path fill="#fff" fill-rule="evenodd" d="M29.2656 30.0567V13.2959C29.2656 13.024 29.0452 12.8036 28.7733 12.8036H11.467C11.1952 12.8036 10.9748 13.024 10.9748 13.2958V30.0567C10.9748 30.1995 11.0367 30.3352 11.1446 30.4287L13.7008 32.6441C13.8859 32.8044 14.1606 32.8044 14.3456 32.6441L16.7493 30.5609C16.9343 30.4005 17.2091 30.4005 17.3941 30.5609L19.7978 32.6441C19.9828 32.8044 20.2575 32.8044 20.4426 32.6441L22.8462 30.5609C23.0313 30.4005 23.306 30.4005 23.491 30.5609L25.8947 32.6441C26.0797 32.8044 26.3545 32.8044 26.5395 32.6441L29.0957 30.4287C29.2036 30.3352 29.2656 30.1994 29.2656 30.0567ZM12.8039 17.0714C12.8039 16.398 13.3498 15.8521 14.0233 15.8521H21.9493C22.6228 15.8521 23.1687 16.398 23.1687 17.0714C23.1687 17.7449 22.6228 18.2908 21.9493 18.2908H14.0233C13.3499 18.2908 12.8039 17.7449 12.8039 17.0714ZM14.0233 20.1199C13.3498 20.1199 12.8039 20.6658 12.8039 21.3393C12.8039 22.0127 13.3499 22.5587 14.0233 22.5587H26.2172C26.8906 22.5587 27.4366 22.0127 27.4366 21.3393C27.4366 20.6658 26.8906 20.1199 26.2172 20.1199H14.0233Z" clip-rule="evenodd"/></g><defs><linearGradient id="paint0_linear_3083_352" x1="20.245" x2="20.245" y1="68.286" y2="-7.926" gradientUnits="userSpaceOnUse"><stop stop-color="#46A0D3"/><stop offset="1" stop-color="#72DAE0"/></linearGradient><clipPath id="clip0_3083_352"><rect width="40" height="40" fill="#fff"/></clipPath></defs></svg>