<svg xmlns="http://www.w3.org/2000/svg" width="349" height="349" fill="none" viewBox="0 0 349 349"><g clip-path="url(#clip0_511_16447)"><path fill="#5BCC5A" d="M318.15 348.651L30.0501 348.651L30.0501 277.701C30.0501 198.144 94.5435 133.651 174.1 133.651C253.657 133.651 318.15 198.144 318.15 277.701V348.651Z"/><path fill="#75DC66" d="M30.0498 0.350586H318.15V71.3005C318.15 150.857 253.656 215.351 174.1 215.351C94.5432 215.351 30.0498 150.857 30.0498 71.3005V0.350586Z"/><path fill="#0DA84C" d="M274.599 174.5C248.646 199.779 213.191 215.351 174.1 215.351C135.008 215.351 99.5535 199.779 73.6 174.501C99.5536 149.222 135.008 133.651 174.1 133.651C213.192 133.651 248.646 149.222 274.599 174.5Z"/></g><defs><clipPath id="clip0_511_16447"><rect width="348.3" height="348.3" fill="#fff" transform="translate(0.350098 0.349609)"/></clipPath></defs></svg>