<svg xmlns="http://www.w3.org/2000/svg" width="396" height="396" fill="none" viewBox="0 0 396 396"><g clip-path="url(#clip0_511_16450)"><path fill="#5BCC5A" d="M71.3115 18.4881C71.3115 8.79139 79.1722 0.930664 88.8689 0.930664H307.213C316.909 0.930664 324.77 8.79138 324.77 18.4881V273.923C324.77 283.62 316.909 291.481 307.213 291.481H71.3115V18.4881Z"/><path fill="#5BCC5A" fill-rule="evenodd" d="M122.313 291.48C109.51 291.48 99.1305 301.859 99.1305 314.662C99.1305 327.465 109.51 337.844 122.313 337.844H312.407C319.235 337.844 324.77 343.379 324.77 350.208C324.77 357.036 319.235 362.572 312.407 362.572H122.313C95.8528 362.572 74.4028 341.122 74.4028 314.662C74.4028 288.202 95.8528 266.752 122.313 266.752H252.163V291.48H122.313Z" clip-rule="evenodd"/><path fill="#5BCC5A" d="M71.3115 291.481H87.3729L96.0392 330.118L133.131 362.573L121.971 362.568C93.989 362.556 71.3115 339.868 71.3115 311.885V291.481Z"/><path fill="#75DC66" d="M136.221 251.988C136.221 249.402 138.317 247.306 140.903 247.306H205.722C208.308 247.306 210.404 249.402 210.404 251.988V395.672L173.313 376.891L136.221 395.672V251.988Z"/><path fill="#0DA84C" fill-rule="evenodd" d="M210.403 291.479H136.22V249.797C136.22 247.211 138.316 245.115 140.902 245.115H205.721C208.307 245.115 210.403 247.211 210.403 249.797V291.479Z" clip-rule="evenodd"/></g><defs><clipPath id="clip0_511_16450"><rect width="394.74" height="394.74" fill="#fff" transform="translate(0.930176 0.929688)"/></clipPath></defs></svg>