<svg width="458" height="458" viewBox="0 0 458 458" fill="none" xmlns="http://www.w3.org/2000/svg">
  <rect width="458" height="458" rx="110" fill="black"/>
  <path d="M100 308.747V149.003C100 122.05 129.901 105.846 152.482 120.562L292.362 211.72C304.757 219.798 304.757 237.952 292.362 246.03L152.482 337.188C129.901 351.904 100 335.7 100 308.747Z" fill="#5BCC5A"/>
  <path d="M358 283.209V174.539C358 151.761 332.454 138.323 313.684 151.227L225.286 212.001C213.451 220.137 213.451 237.611 225.286 245.747L313.684 306.521C332.454 319.425 358 305.987 358 283.209Z" fill="#75DC66"/>
  <path d="M258.137 189.417L292.363 211.721C304.758 219.799 304.758 237.953 292.363 246.031L258.139 268.334L225.287 245.749C213.452 237.612 213.452 220.138 225.287 212.002L258.137 189.417Z" fill="#0DA84C"/>
</svg>
