<svg width="458" height="458" viewBox="0 0 458 458" fill="none" xmlns="http://www.w3.org/2000/svg">
  <rect width="458" height="458" rx="110" fill="black"/>
  <g clip-path="url(#clip0_318_35356)">
  <path d="M330.602 298.701C330.602 331.451 306.451 358 276.66 358H153.942C124.151 358 100 331.451 100 298.701V257.192C100 224.442 124.151 197.893 153.942 197.893H276.66C306.451 197.893 330.602 224.442 330.602 257.192V298.701Z" fill="#75DC66"/>
  <path d="M197.095 153.418L127.645 205.305L197.095 199.375V153.418Z" fill="#75DC66"/>
  <path d="M126.257 158.64C126.257 126.254 150.527 100 180.466 100H303.792C333.73 100 358.001 126.254 358.001 158.64V199.688C358.001 232.074 333.73 258.328 303.792 258.328H180.466C150.527 258.328 126.257 232.074 126.257 199.688V158.64Z" fill="#5BCC5A"/>
  <path d="M260.424 302.308L330.218 250.998L260.424 256.862V302.308Z" fill="#5BCC5A"/>
  <path d="M330.297 250.853C330.208 250.907 330.119 250.961 330.029 251.014L330.218 250.998L260.424 302.308L260.424 258.328L180.466 258.328C152.524 258.328 129.519 235.459 126.575 206.08C126.991 205.81 127.41 205.547 127.833 205.289L127.645 205.305L197.095 153.418L197.095 197.893L276.66 197.893C304.503 197.893 327.419 221.083 330.297 250.853Z" fill="#0DA84C"/>
  </g>
  <defs>
  <clipPath id="clip0_318_35356">
  <rect width="258" height="258" fill="white" transform="translate(100 100)"/>
  </clipPath>
  </defs>
</svg>
