<svg width="573" height="153" viewBox="0 0 573 153" fill="none" xmlns="http://www.w3.org/2000/svg">
  <path d="M42.6618 118.033V25.6928C42.6618 17.4585 51.7965 12.5083 58.6951 17.004L132.209 64.9118C137.231 68.1849 137.231 75.5407 132.209 78.8138L58.6951 126.722C51.7965 131.217 42.6618 126.267 42.6618 118.033Z" fill="#5BCC5A"/>
  <path d="M8.4375 101.484V41.8274C8.4375 33.4769 17.8028 28.5505 24.6839 33.2813L70.5563 64.8186C75.3515 68.1153 75.3516 75.1956 70.5563 78.4923L24.6839 110.03C17.8028 114.76 8.4375 109.834 8.4375 101.484Z" fill="#75DC66"/>
  <path d="M42.6621 97.6689L70.5563 78.4923C75.3516 75.1956 75.3515 68.1153 70.5563 64.8186L42.6621 45.6402V97.6689Z" fill="#0DA84C"/>
  <g clip-path="url(#clip0_318_35998)">
  <path d="M214.282 135.437L196.523 104.072H188.913V135.437H172.769V54.9486H202.981C209.208 54.9486 214.512 56.0633 218.894 58.2927C223.276 60.4452 226.543 63.4048 228.696 67.1717C230.925 70.8617 232.04 75.013 232.04 79.6255C232.04 84.9298 230.502 89.7345 227.427 94.0395C224.352 98.2677 219.778 101.189 213.705 102.803L232.962 135.437H214.282ZM188.913 91.9639H202.404C206.786 91.9639 210.053 90.9261 212.206 88.8505C214.358 86.698 215.435 83.7383 215.435 79.9714C215.435 76.2814 214.358 73.437 212.206 71.4383C210.053 69.3627 206.786 68.3248 202.404 68.3248H188.913V91.9639Z" fill="black"/>
  <path d="M303.721 102.111C303.721 104.418 303.567 106.493 303.26 108.338H256.558C256.942 112.951 258.557 116.564 261.401 119.178C264.245 121.791 267.743 123.098 271.895 123.098C277.891 123.098 282.157 120.523 284.694 115.372H302.106C300.261 121.522 296.725 126.596 291.498 130.594C286.27 134.514 279.851 136.475 272.24 136.475C266.09 136.475 260.555 135.129 255.635 132.439C250.792 129.671 246.987 125.789 244.22 120.792C241.529 115.795 240.184 110.03 240.184 103.495C240.184 96.8839 241.529 91.0798 244.22 86.083C246.91 81.0861 250.677 77.2423 255.52 74.5517C260.363 71.8611 265.937 70.5158 272.24 70.5158C278.314 70.5158 283.733 71.8227 288.5 74.4364C293.343 77.0502 297.071 80.7786 299.685 85.6217C302.375 90.388 303.721 95.8845 303.721 102.111ZM287 97.4989C286.924 93.3477 285.425 90.042 282.503 87.582C279.582 85.0452 276.007 83.7767 271.779 83.7767C267.782 83.7767 264.399 85.0067 261.632 87.4667C258.941 89.8498 257.288 93.1939 256.673 97.4989H287Z" fill="black"/>
  <path d="M329.342 80.7786C331.417 77.8573 334.262 75.4358 337.875 73.5139C341.565 71.5152 345.755 70.5158 350.444 70.5158C355.902 70.5158 360.822 71.8611 365.204 74.5517C369.663 77.2423 373.161 81.0861 375.697 86.083C378.311 91.003 379.618 96.7302 379.618 103.265C379.618 109.799 378.311 115.603 375.697 120.677C373.161 125.674 369.663 129.556 365.204 132.323C360.822 135.091 355.902 136.475 350.444 136.475C345.755 136.475 341.603 135.514 337.99 133.592C334.454 131.67 331.571 129.248 329.342 126.327V165.879H313.198V71.5536H329.342V80.7786ZM363.128 103.265C363.128 99.4208 362.321 96.1152 360.707 93.3477C359.169 90.5033 357.094 88.3508 354.48 86.8902C351.943 85.4295 349.176 84.6992 346.177 84.6992C343.256 84.6992 340.489 85.468 337.875 87.0055C335.338 88.4661 333.262 90.6186 331.648 93.463C330.111 96.3073 329.342 99.6514 329.342 103.495C329.342 107.339 330.111 110.683 331.648 113.527C333.262 116.372 335.338 118.563 337.875 120.1C340.489 121.561 343.256 122.291 346.177 122.291C349.176 122.291 351.943 121.522 354.48 119.985C357.094 118.447 359.169 116.256 360.707 113.412C362.321 110.568 363.128 107.185 363.128 103.265Z" fill="black"/>
  <path d="M405.187 50.1055V135.437H389.043V50.1055H405.187Z" fill="black"/>
  <path d="M414.679 103.265C414.679 96.807 415.948 91.0798 418.485 86.083C421.098 81.0861 424.596 77.2423 428.978 74.5517C433.437 71.8611 438.395 70.5158 443.853 70.5158C448.62 70.5158 452.771 71.4767 456.307 73.3986C459.92 75.3205 462.803 77.742 464.956 80.6633V71.5536H481.215V135.437H464.956V126.096C462.88 129.095 459.997 131.593 456.307 133.592C452.694 135.514 448.504 136.475 443.738 136.475C438.357 136.475 433.437 135.091 428.978 132.323C424.596 129.556 421.098 125.674 418.485 120.677C415.948 115.603 414.679 109.799 414.679 103.265ZM464.956 103.495C464.956 99.5745 464.187 96.2305 462.649 93.463C461.112 90.6186 459.036 88.4661 456.422 87.0055C453.809 85.468 451.003 84.6992 448.005 84.6992C445.007 84.6992 442.239 85.4295 439.702 86.8902C437.165 88.3508 435.09 90.5033 433.475 93.3477C431.938 96.1152 431.169 99.4208 431.169 103.265C431.169 107.108 431.938 110.491 433.475 113.412C435.09 116.256 437.165 118.447 439.702 119.985C442.316 121.522 445.083 122.291 448.005 122.291C451.003 122.291 453.809 121.561 456.422 120.1C459.036 118.563 461.112 116.41 462.649 113.643C464.187 110.798 464.956 107.416 464.956 103.495Z" fill="black"/>
  <path d="M555.791 71.5536L516.239 165.649H499.057L512.895 133.822L487.296 71.5536H505.4L521.889 116.18L538.61 71.5536H555.791Z" fill="black"/>
  <path d="M229.622 25.5097C229.622 26.3731 229.564 27.1502 229.449 27.841H211.978C212.122 29.5679 212.726 30.9206 213.79 31.8992C214.854 32.8777 216.163 33.367 217.716 33.367C219.959 33.367 221.555 32.4028 222.504 30.4745H229.018C228.327 32.777 227.005 34.6766 225.049 36.1732C223.094 37.6411 220.692 38.375 217.845 38.375C215.544 38.375 213.474 37.8713 211.633 36.864C209.822 35.8278 208.398 34.3744 207.363 32.5036C206.356 30.6328 205.853 28.4742 205.853 26.0278C205.853 23.5525 206.356 21.3795 207.363 19.5087C208.369 17.638 209.778 16.1989 211.59 15.1915C213.402 14.1842 215.487 13.6805 217.845 13.6805C220.117 13.6805 222.144 14.1698 223.927 15.1484C225.739 16.1269 227.134 17.5228 228.112 19.3361C229.118 21.1205 229.622 23.1784 229.622 25.5097ZM223.367 23.7828C223.338 22.2286 222.777 20.991 221.684 20.07C220.592 19.1202 219.254 18.6453 217.673 18.6453C216.177 18.6453 214.912 19.1058 213.877 20.0268C212.87 20.919 212.252 22.171 212.022 23.7828H223.367Z" fill="black"/>
  <path d="M256.245 25.5097C256.245 26.3731 256.188 27.1502 256.073 27.841H238.602C238.746 29.5679 239.35 30.9206 240.414 31.8992C241.478 32.8777 242.787 33.367 244.34 33.367C246.583 33.367 248.179 32.4028 249.128 30.4745H255.641C254.951 32.777 253.628 34.6766 251.673 36.1732C249.717 37.6411 247.316 38.375 244.469 38.375C242.168 38.375 240.098 37.8713 238.257 36.864C236.445 35.8278 235.022 34.3744 233.987 32.5036C232.98 30.6328 232.477 28.4742 232.477 26.0278C232.477 23.5525 232.98 21.3795 233.987 19.5087C234.993 17.638 236.402 16.1989 238.214 15.1915C240.026 14.1842 242.111 13.6805 244.469 13.6805C246.741 13.6805 248.768 14.1698 250.551 15.1484C252.363 16.1269 253.758 17.5228 254.736 19.3361C255.742 21.1205 256.245 23.1784 256.245 25.5097ZM249.99 23.7828C249.962 22.2286 249.401 20.991 248.308 20.07C247.215 19.1202 245.878 18.6453 244.296 18.6453C242.801 18.6453 241.536 19.1058 240.5 20.0268C239.494 20.919 238.875 22.171 238.645 23.7828H249.99Z" fill="black"/>
  <path d="M267.785 18.9874V30.6615C267.785 31.4674 267.997 31.9999 268.371 32.374C268.774 32.7194 269.435 32.8921 270.356 32.8921H273.16V37.9864H269.364C264.273 37.9864 261.838 35.383 261.838 30.4326V18.9874H258.636V13.9515H261.838V8H267.785V13.9515H273.16V18.9874H267.785Z" fill="black"/>
  <path d="M287.989 38.375C285.689 38.375 283.618 37.8713 281.778 36.864C279.937 35.8278 278.485 34.3744 277.421 32.5036C276.385 30.6328 275.868 28.4742 275.868 26.0278C275.868 23.5813 276.4 21.4227 277.464 19.5519C278.557 17.6811 280.038 16.2421 281.907 15.2347C283.776 14.1986 285.861 13.6805 288.162 13.6805C290.463 13.6805 292.548 14.1986 294.417 15.2347C296.286 16.2421 297.753 17.6811 298.817 19.5519C299.91 21.4227 300.456 23.5813 300.456 26.0278C300.456 28.4742 299.895 30.6328 298.774 32.5036C297.681 34.3744 296.185 35.8278 294.287 36.864C292.418 37.8713 290.319 38.375 287.989 38.375ZM287.989 33.108C289.082 33.108 290.103 32.849 291.052 32.3309C292.03 31.784 292.806 30.9782 293.382 29.9132C293.957 28.8483 294.244 27.5532 294.244 26.0278C294.244 23.754 293.64 22.0127 292.432 20.8039C291.253 19.5663 289.801 18.9475 288.076 18.9475C286.35 18.9475 284.898 19.5663 283.719 20.8039C282.568 22.0127 281.993 23.754 281.993 26.0278C281.993 28.3015 282.554 30.0572 283.676 31.2948C284.826 32.5036 286.264 33.108 287.989 33.108Z" fill="black"/>
  <path d="M200.752 8H189.159L200.752 25.3903V8Z" fill="black"/>
  <path d="M172 38.375L172 8H180.372L200.752 38.375H192.136L178.724 18.666V38.375H172Z" fill="black"/>
  </g>
  <defs>
  <clipPath id="clip0_318_35998">
  <rect width="408.375" height="153" fill="white" transform="translate(163.688)"/>
  </clipPath>
  </defs>
</svg>
