<svg width="40" height="40" viewBox="0 0 40 40" fill="none" xmlns="http://www.w3.org/2000/svg">
  <g clip-path="url(#clip0_3083_348)">
    <path d="M40 20C40 8.95431 31.0457 0 20 0H0V40H40V20Z" fill="url(#paint0_linear_3083_348)" />
    <path
      d="M14.2071 12.0503C13.7152 12.1532 13.1296 12.5765 12.7269 13.1164C12.5485 13.3543 12.338 13.7913 12.2556 14.0841L12.1939 14.3106V21.5515V28.7923L12.2579 28.9937C12.5302 29.8653 13.3515 30.6775 14.2941 31.0069L14.5045 31.0801L17.4604 31.087L20.4162 31.0916L21.5097 29.9545C22.1137 29.3277 22.9831 28.424 23.4429 27.9458C23.9028 27.4677 24.2757 27.0742 24.2734 27.0696C24.2688 27.065 24.2253 27.0833 24.1773 27.1062C24.1293 27.1314 24.0286 27.1703 23.9531 27.1954C23.8227 27.2343 23.6374 27.2366 19.8122 27.2366C15.4425 27.2366 15.7033 27.2435 15.4082 27.1016C15.1977 27.001 14.9598 26.7608 14.8523 26.5389C14.6784 26.1842 14.683 25.7633 14.8637 25.395C15.0078 25.0975 15.3693 24.8047 15.6827 24.7338C15.7514 24.7178 17.124 24.7086 19.7893 24.7086C24.1933 24.7086 23.9028 24.6995 24.2002 24.8482C24.3855 24.942 24.644 25.2005 24.7378 25.3858C24.8499 25.6077 24.8865 25.7839 24.8728 26.0355C24.8636 26.2414 24.8499 26.2963 24.7309 26.596C24.7195 26.6258 24.7195 26.6349 24.7355 26.6189C24.747 26.6052 25.0558 26.2872 25.4196 25.9097C25.7833 25.5322 26.3873 24.9054 26.7625 24.5187L27.442 23.8141V20.4533V17.0926L25.7902 17.0834C24.2048 17.0766 24.1293 17.0743 23.9737 17.0285C23.1775 16.7997 22.6353 16.1386 22.4043 15.1182C22.3585 14.9169 22.3539 14.8277 22.3471 13.4573L22.3379 12.0114L18.3526 12.0137C14.9163 12.016 14.3444 12.0205 14.2071 12.0503ZM23.9302 19.664C24.2642 19.751 24.596 20.0255 24.7492 20.3389C24.9803 20.8102 24.9094 21.3547 24.5662 21.7322C24.4107 21.9038 24.2459 22.0136 24.0194 22.0937L23.8387 22.1577H19.7893H15.7399L15.5775 22.0983C14.9072 21.8535 14.5777 21.1786 14.7928 20.4899C14.9095 20.1125 15.287 19.7533 15.6667 19.6618C15.7605 19.6389 16.6665 19.6343 19.7893 19.632C23.3171 19.6297 23.8113 19.6343 23.9302 19.664Z"
      fill="white" />
    <path
      d="M23.6259 13.3658C23.6351 14.6767 23.6351 14.7293 23.6854 14.9009C23.8066 15.3333 24.0675 15.6947 24.31 15.7634C24.3557 15.7771 24.994 15.7863 25.9183 15.7863H27.4465L27.4374 15.4911C27.4282 15.2074 27.4259 15.1914 27.3459 15.029C27.1491 14.6332 26.5223 13.9858 25.4035 13.0272C24.4587 12.2173 24.1224 12.0114 23.7403 12.0114H23.619L23.6259 13.3658Z"
      fill="white" />
    <path
      d="M28.8715 24.3563C28.7662 24.3929 28.5718 24.5416 28.2858 24.8047L28.0936 24.9809L28.9401 25.8297C29.4045 26.2941 29.798 26.6761 29.8117 26.6761C29.8277 26.6761 29.9513 26.564 30.0863 26.4245C30.3677 26.1431 30.4843 25.9578 30.4843 25.7999C30.4821 25.4179 30.2647 24.9992 29.8987 24.6675C29.7088 24.4959 29.5761 24.4227 29.3496 24.3655C29.146 24.3129 29.0019 24.3106 28.8715 24.3563Z"
      fill="white" />
    <path
      d="M26.4784 26.5778C25.9728 27.0788 25.0028 28.0534 24.321 28.7466C22.8888 30.2017 22.9895 30.0667 22.7516 30.8171C22.5548 31.4371 22.477 31.7574 22.461 31.9838C22.4496 32.1714 22.4519 32.1829 22.5068 32.2469C22.5594 32.311 22.5777 32.3156 22.7104 32.3133C22.898 32.311 23.4196 32.1829 23.9481 32.0044C24.456 31.8374 24.6825 31.7299 24.8907 31.5698C24.9799 31.5011 25.9659 30.5265 27.0869 29.4032L29.1231 27.3625L28.2766 26.516C27.8122 26.0493 27.4232 25.6695 27.4141 25.6695C27.4049 25.6695 26.984 26.0791 26.4784 26.5778Z"
      fill="white" />
  </g>
  <defs>
    <linearGradient id="paint0_linear_3083_348" x1="20.2449" y1="68.2857" x2="20.2449" y2="-7.92601"
      gradientUnits="userSpaceOnUse">
      <stop stop-color="#18C0D3" />
      <stop offset="1" stop-color="#65CDA1" />
    </linearGradient>
    <clipPath id="clip0_3083_348">
      <rect width="40" height="40" fill="white" />
    </clipPath>
  </defs>
</svg>
