<svg width="458" height="458" viewBox="0 0 458 458" fill="none" xmlns="http://www.w3.org/2000/svg">
  <rect width="458" height="458" rx="110" fill="black"/>
  <g clip-path="url(#clip0_318_35553)">
  <path d="M216.808 281.577C227.227 291.995 227.227 308.887 216.808 319.306C206.39 329.724 189.498 329.724 179.079 319.306L107.051 247.278C96.6329 236.859 96.6329 219.968 107.051 209.549C117.47 199.13 134.362 199.13 144.78 209.549L216.808 281.577Z" fill="#5BCC5A"/>
  <path d="M216.808 175.734C227.227 165.316 227.227 148.424 216.808 138.005C206.39 127.587 189.498 127.587 179.079 138.005L107.051 210.033C96.6329 220.452 96.6329 237.344 107.051 247.762C117.47 258.181 134.362 258.181 144.78 247.762L216.808 175.734Z" fill="#5BCC5A"/>
  <path d="M240.433 281.577C230.014 291.995 230.014 308.887 240.433 319.306C250.851 329.724 267.743 329.724 278.161 319.306L350.189 247.278C360.608 236.859 360.608 219.968 350.189 209.549C339.771 199.13 322.879 199.13 312.46 209.549L240.433 281.577Z" fill="#75DC66"/>
  <path d="M240.433 175.734C230.014 165.316 230.014 148.424 240.433 138.005C250.851 127.587 267.743 127.587 278.161 138.005L350.189 210.033C360.608 220.452 360.608 237.344 350.189 247.762C339.771 258.181 322.879 258.181 312.46 247.762L240.433 175.734Z" fill="#0DA84C"/>
  <path d="M293.357 228.66L312.463 209.553C321.851 200.166 336.492 199.237 346.92 206.765L350.192 210.038C355.34 215.185 357.944 221.913 358.005 228.66C357.944 235.407 355.34 242.135 350.192 247.282L346.92 250.555C336.492 258.083 321.851 257.154 312.463 247.767L293.357 228.66Z" fill="#0DA84C"/>
  </g>
  <defs>
  <clipPath id="clip0_318_35553">
  <rect width="258" height="258" fill="white" transform="translate(100 100)"/>
  </clipPath>
  </defs>
</svg>
