<svg xmlns="http://www.w3.org/2000/svg" width="377" height="377" fill="none" viewBox="0 0 377 377"><g clip-path="url(#clip0_511_16534)"><path fill="#5BCC5A" fill-rule="evenodd" d="M290.234 88.0367C284.552 82.3543 278.224 77.0712 271.359 72.3256L274.349 30.4419C274.824 23.7925 270.493 17.7488 264.044 16.061L212.564 2.58842C206.23 0.930777 199.601 3.93633 196.674 9.79281L177.661 47.8298C160.998 49.3809 144.657 53.804 129.76 60.8072L95.0729 37.8073C89.583 34.1671 82.2884 34.8986 77.6306 39.5564L39.5514 77.6356C34.8938 82.2932 34.1621 89.5872 37.8017 95.0771L60.7877 129.749C53.6769 144.784 49.3461 160.848 47.7949 177.665L9.78477 196.676C3.93024 199.605 0.926237 206.233 2.58353 212.565L16.0567 264.048C17.7445 270.497 23.7882 274.828 30.4377 274.354L72.3213 271.364C77.0668 278.229 82.35 284.556 88.0323 290.239C93.7147 295.921 100.042 301.204 106.907 305.95L103.917 347.833C103.443 354.483 107.774 360.527 114.223 362.214L165.703 375.687C172.037 377.345 178.666 374.339 181.593 368.483L200.606 330.446C217.269 328.894 233.61 324.471 248.507 317.468L283.194 340.468C288.684 344.108 295.978 343.377 300.636 338.719L338.715 300.64C343.373 295.982 344.104 288.688 340.465 283.199L317.479 248.527C324.574 233.507 328.921 217.427 330.472 200.61L368.491 181.612C374.349 178.686 377.355 172.056 375.697 165.721L362.225 114.242C360.538 107.793 354.494 103.462 347.844 103.937L305.961 106.927C301.2 100.047 295.917 93.7191 290.234 88.0367ZM242.886 242.89C213.245 272.531 165.021 272.531 135.381 242.89C105.74 213.25 105.74 165.026 135.381 135.385C165.021 105.744 213.245 105.745 242.886 135.385C272.526 165.026 272.527 213.25 242.886 242.89Z" clip-rule="evenodd"/><path fill="#75DC66" d="M271.351 72.3256C278.216 77.0712 284.543 82.3543 290.226 88.0367C295.908 93.7191 301.191 100.047 305.952 106.927L347.836 103.937C354.485 103.462 360.529 107.793 362.217 114.242L375.689 165.721C377.347 172.056 374.34 178.686 368.483 181.612L330.463 200.61C328.912 217.427 324.566 233.507 317.47 248.527L340.456 283.199C344.096 288.688 343.364 295.982 338.706 300.64L300.627 338.719C295.969 343.377 288.675 344.108 283.185 340.468L249.309 318.005L206.899 263.03C220.093 259.879 232.602 253.166 242.877 242.89C272.518 213.25 272.518 165.026 242.877 135.385C213.236 105.745 165.013 105.744 135.372 135.385C129.92 140.837 125.471 146.917 122.025 153.395L121.932 153.274L176.521 47.9396C176.898 47.9015 177.275 47.8649 177.652 47.8298L196.665 9.79281C199.592 3.93633 206.221 0.930777 212.555 2.58842L264.035 16.061C270.484 17.7488 274.815 23.7925 274.341 30.4419L271.351 72.3256Z"/><path fill="#0DA84C" d="M206.67 262.98L281.633 359.21C286.748 365.776 296.46 366.377 302.346 360.491L360.465 302.372C366.351 296.486 365.751 286.774 359.184 281.659L262.951 206.693C259.819 219.925 253.092 232.481 242.771 242.802C232.451 253.122 219.899 259.848 206.67 262.98Z"/></g><defs><clipPath id="clip0_511_16534"><rect width="375.3" height="375.3" fill="#fff" transform="translate(0.849609 0.849609)"/></clipPath></defs></svg>