<svg xmlns="http://www.w3.org/2000/svg" width="356" height="384" fill="none" viewBox="0 0 356 384"><rect width="354.915" height="354.915" x=".365" y="28.126" fill="#75DC66" rx="66.251"/><path fill="#5BCC5A" d="M0.365234 94.3768C0.365234 57.7875 30.0267 28.126 66.616 28.126H289.029C325.619 28.126 355.28 57.7875 355.28 94.3768V146.431H0.365234V94.3768Z"/><rect width="118.305" height="118.305" x=".365" y="146.427" fill="#75DC66"/><path fill="#75DC66" d="M0.364746 264.731H118.67V383.036H66.6156C30.0263 383.036 0.364746 353.375 0.364746 316.786V264.731Z"/><rect width="118.305" height="118.305" x="118.67" y="264.731" fill="#0DA84C"/><rect width="118.305" height="118.305" x="236.975" y="146.427" fill="#0DA84C"/><rect width="118.305" height="118.305" x="118.67" y="146.427" fill="#75DC66"/><path fill="#0DA84C" d="M236.975 264.731H355.28V316.786C355.28 353.375 325.618 383.036 289.029 383.036H236.975V264.731Z"/><rect width="42.59" height="69.8" x="226.329" y=".914" fill="#0DA84C" rx="21.295"/><rect width="42.59" height="69.8" x="86.731" y=".914" fill="#0DA84C" rx="21.295"/></svg>