<svg xmlns="http://www.w3.org/2000/svg" width="40" height="40" fill="none" viewBox="0 0 40 40"><path fill="url(#paint0_linear_3193_175)" d="M40 20C40 8.95431 31.0457 0 20 0H0V40H40V20Z"/><g filter="url(#filter0_d_3193_175)"><path fill="#fff" d="M31.092 15.7031C31.0848 13.4948 29.2932 11.7143 27.0849 11.7143H13.1499C12.0849 11.7143 11.0638 12.1325 10.3122 12.887C9.56001 13.6411 9.13943 14.6608 9.1428 15.7257L9.17696 26.3909C9.1837 28.5987 10.9757 30.3782 13.184 30.3782H17.1339L19.0135 33.0735C19.2661 33.4359 19.6795 33.6515 20.1208 33.6524C20.562 33.6539 20.9764 33.4397 21.2309 33.0779L23.1313 30.3792H27.1186C28.1835 30.3792 29.2047 29.961 29.9558 29.2065C30.708 28.4519 31.1291 27.4346 31.1257 26.3697L31.092 15.7031ZM20.1338 14.0915C22.1982 14.0915 23.8718 15.7652 23.8718 17.8286C23.8718 19.8935 22.1977 21.5662 20.1338 21.5662C18.0698 21.5662 16.3966 19.8935 16.3966 17.8286C16.3971 15.7652 18.0703 14.0915 20.1338 14.0915ZM26.0864 27.1546C26.0864 27.6156 25.713 27.989 25.252 27.989H15.0141C14.5526 27.989 14.1787 27.6156 14.1787 27.1541C14.1787 25.0613 15.8663 23.3607 17.9591 23.3607H22.3098C23.3151 23.3607 24.2727 23.7625 24.9834 24.4732C25.6942 25.184 26.0864 26.1503 26.0864 27.1546Z"/></g><defs><filter id="filter0_d_3193_175" width="23.697" height="23.938" x="9.143" y="11.714" color-interpolation-filters="sRGB" filterUnits="userSpaceOnUse"><feFlood flood-opacity="0" result="BackgroundImageFix"/><feColorMatrix in="SourceAlpha" result="hardAlpha" type="matrix" values="0 0 0 0 0 0 0 0 0 0 0 0 0 0 0 0 0 0 127 0"/><feOffset dx=".857" dy="1.143"/><feGaussianBlur stdDeviation=".429"/><feComposite in2="hardAlpha" operator="out"/><feColorMatrix type="matrix" values="0 0 0 0 0 0 0 0 0 0 0 0 0 0 0 0 0 0 0.05 0"/><feBlend in2="BackgroundImageFix" mode="normal" result="effect1_dropShadow_3193_175"/><feBlend in="SourceGraphic" in2="effect1_dropShadow_3193_175" mode="normal" result="shape"/></filter><linearGradient id="paint0_linear_3193_175" x1="48.143" x2="-6.857" y1="59.857" y2="-9.714" gradientUnits="userSpaceOnUse"><stop stop-color="#81D2F4"/><stop offset="1" stop-color="#4A9CE9"/></linearGradient></defs></svg>