<svg xmlns="http://www.w3.org/2000/svg" width="40" height="40" fill="none" viewBox="0 0 40 40"><path fill="url(#paint0_linear_3193_172)" d="M40 20C40 8.95431 31.0457 0 20 0H0V40H40V20Z"/><g filter="url(#filter0_d_3193_172)"><path fill="#fff" fill-rule="evenodd" d="M28.4466 11.1727L28.4753 11.1429H9.46249C8.81259 11.1429 8.28573 11.6697 8.28573 12.3196V13.6272H24.4988V13.8887H8.28573V27.879C8.28573 28.5289 8.81258 29.0557 9.46249 29.0557H30.2518C30.9017 29.0557 31.4286 28.5289 31.4286 27.879V14.0444L28.4466 11.1727ZM27.808 11.8358L22.0602 17.8042L25.155 20.7846L30.9028 14.8161L27.808 11.8358ZM21.4375 18.4827L20.4144 22.6102L24.5005 21.4324L21.4375 18.4827ZM10.247 12.4504C10.247 12.667 10.0714 12.8426 9.85479 12.8426C9.63816 12.8426 9.46254 12.667 9.46254 12.4504C9.46254 12.2338 9.63816 12.0581 9.85479 12.0581C10.0714 12.0581 10.247 12.2338 10.247 12.4504ZM11.0316 12.8426C11.2482 12.8426 11.4238 12.667 11.4238 12.4504C11.4238 12.2338 11.2482 12.0581 11.0316 12.0581C10.8149 12.0581 10.6393 12.2338 10.6393 12.4504C10.6393 12.667 10.8149 12.8426 11.0316 12.8426ZM12.6006 12.4504C12.6006 12.667 12.4249 12.8426 12.2083 12.8426C11.9917 12.8426 11.8161 12.667 11.8161 12.4504C11.8161 12.2338 11.9917 12.0581 12.2083 12.0581C12.4249 12.0581 12.6006 12.2338 12.6006 12.4504Z" clip-rule="evenodd"/></g><defs><filter id="filter0_d_3193_172" width="24.857" height="19.913" x="8.286" y="11.143" color-interpolation-filters="sRGB" filterUnits="userSpaceOnUse"><feFlood flood-opacity="0" result="BackgroundImageFix"/><feColorMatrix in="SourceAlpha" result="hardAlpha" type="matrix" values="0 0 0 0 0 0 0 0 0 0 0 0 0 0 0 0 0 0 127 0"/><feOffset dx=".857" dy="1.143"/><feGaussianBlur stdDeviation=".429"/><feComposite in2="hardAlpha" operator="out"/><feColorMatrix type="matrix" values="0 0 0 0 0 0 0 0 0 0 0 0 0 0 0 0 0 0 0.05 0"/><feBlend in2="BackgroundImageFix" mode="normal" result="effect1_dropShadow_3193_172"/><feBlend in="SourceGraphic" in2="effect1_dropShadow_3193_172" mode="normal" result="shape"/></filter><linearGradient id="paint0_linear_3193_172" x1="-4.286" x2="57.857" y1="-11" y2="70.857" gradientUnits="userSpaceOnUse"><stop offset=".374" stop-color="#8176FF"/><stop offset="1" stop-color="#41BBFF"/></linearGradient></defs></svg>