<svg width="40" height="40" viewBox="0 0 40 40" fill="none" xmlns="http://www.w3.org/2000/svg">
  <path d="M40 20C40 8.95431 31.0457 0 20 0H0V40H40V20Z" fill="url(#paint0_linear_3193_168)" />
  <g filter="url(#filter0_d_3193_168)">
    <path fill-rule="evenodd" clip-rule="evenodd"
      d="M20 10.2857C25.365 10.2857 29.7143 14.6349 29.7143 20V29.7143H10.2857V10.2857H20ZM15.8552 15.0781C15.8552 14.6489 15.5073 14.3009 15.0781 14.3009C14.6489 14.3009 14.3009 14.6489 14.3009 15.0781C14.3009 18.2256 16.8525 20.7771 20 20.7771C23.1475 20.7771 25.699 18.2256 25.699 15.0781C25.699 14.6489 25.3511 14.3009 24.9219 14.3009C24.4927 14.3009 24.1447 14.6489 24.1447 15.0781C24.1447 17.3672 22.2891 19.2228 20 19.2228C17.7109 19.2228 15.8552 17.3672 15.8552 15.0781Z"
      fill="white" />
  </g>
  <defs>
    <filter id="filter0_d_3193_168" x="10.2857" y="10.2857" width="21.1428" height="21.4286"
      filterUnits="userSpaceOnUse" color-interpolation-filters="sRGB">
      <feFlood flood-opacity="0" result="BackgroundImageFix" />
      <feColorMatrix in="SourceAlpha" type="matrix"
        values="0 0 0 0 0 0 0 0 0 0 0 0 0 0 0 0 0 0 127 0" result="hardAlpha" />
      <feOffset dx="0.857143" dy="1.14286" />
      <feGaussianBlur stdDeviation="0.428571" />
      <feComposite in2="hardAlpha" operator="out" />
      <feColorMatrix type="matrix" values="0 0 0 0 0 0 0 0 0 0 0 0 0 0 0 0 0 0 0.05 0" />
      <feBlend mode="normal" in2="BackgroundImageFix" result="effect1_dropShadow_3193_168" />
      <feBlend mode="normal" in="SourceGraphic" in2="effect1_dropShadow_3193_168" result="shape" />
    </filter>
    <linearGradient id="paint0_linear_3193_168" x1="43.1429" y1="51.8571" x2="6.28572" y2="-3.57143"
      gradientUnits="userSpaceOnUse">
      <stop stop-color="#3C5BFF" />
      <stop offset="0.6986" stop-color="#55ABE9" />
    </linearGradient>
  </defs>
</svg>
