<svg width="458" height="458" viewBox="0 0 458 458" fill="none" xmlns="http://www.w3.org/2000/svg">
  <rect width="458" height="458" rx="110" fill="black"/>
  <path d="M169.233 322.811V136.014C169.233 119.357 187.712 109.343 201.667 118.438L350.38 215.351C360.54 221.973 360.54 236.853 350.38 243.474L201.667 340.388C187.712 349.482 169.233 339.468 169.233 322.811Z" fill="#5BCC5A"/>
  <path d="M100 289.333V168.653C100 151.761 118.945 141.795 132.865 151.365L225.662 215.163C235.362 221.832 235.362 236.155 225.662 242.824L132.865 306.621C118.945 316.191 100 306.226 100 289.333Z" fill="#75DC66"/>
  <path d="M169.234 281.617L225.662 242.824C235.362 236.155 235.362 221.832 225.662 215.163L169.234 176.366V281.617Z" fill="#0DA84C"/>
</svg>
