<svg width="348" height="348" viewBox="0 0 348 348" fill="none" xmlns="http://www.w3.org/2000/svg">
  <g clip-path="url(#clip0_511_16528)">
  <path fill-rule="evenodd" clip-rule="evenodd" d="M169.983 263.913C222.703 263.913 265.441 221.175 265.441 168.455C265.441 115.735 222.703 72.9973 169.983 72.9973C117.263 72.9973 74.5247 115.735 74.5247 168.455C74.5247 221.175 117.263 263.913 169.983 263.913ZM169.983 336.91C263.018 336.91 338.438 261.49 338.438 168.455C338.438 75.42 263.018 0 169.983 0C76.9474 0 1.52734 75.42 1.52734 168.455C1.52734 261.49 76.9474 336.91 169.983 336.91Z" fill="#5BCC5A"/>
  <path d="M183.958 182.431C201.47 164.919 229.862 164.919 247.373 182.431L334.57 269.627C352.081 287.139 352.081 315.531 334.57 333.042C317.058 350.554 288.666 350.554 271.154 333.042L183.958 245.846C166.446 228.335 166.446 199.942 183.958 182.431Z" fill="#75DC66"/>
  <path d="M197.883 259.772L253.115 315.003C279.541 299.98 301.507 278.014 316.53 251.588L261.299 196.356C252.058 226.639 228.166 250.531 197.883 259.772Z" fill="#0DA84C"/>
  </g>
  <defs>
  <clipPath id="clip0_511_16528">
  <rect width="347.962" height="347.962" fill="white"/>
  </clipPath>
  </defs>
</svg>
