<svg width="40" height="40" viewBox="0 0 40 40" fill="none" xmlns="http://www.w3.org/2000/svg">
  <path d="M40 20C40 8.95431 31.0457 0 20 0H0V40H40V20Z" fill="url(#paint0_linear_3193_176)" />
  <g filter="url(#filter0_d_3193_176)">
    <path
      d="M29.4628 12H10.5371C10.082 12 9.71426 12.3677 9.71426 12.8229V31.7486C9.71426 32.2037 10.082 32.5714 10.5371 32.5714H29.4628C29.918 32.5714 30.2857 32.2037 30.2857 31.7486V12.8229C30.2857 12.3677 29.918 12 29.4628 12ZM20.0283 22.4426L15.0911 26.5826C14.9574 26.6957 14.7543 26.6006 14.7543 26.4257V24.8134C14.7543 24.7543 14.7825 24.6951 14.8288 24.6566L17.6523 22.2857L14.8288 19.9149C14.8052 19.8962 14.7862 19.8723 14.7732 19.8451C14.7603 19.8179 14.7538 19.7881 14.7543 19.758V18.1457C14.7543 17.9709 14.9574 17.8757 15.0911 17.9889L20.0283 22.1263C20.1285 22.2086 20.1285 22.3603 20.0283 22.4426V22.4426ZM25.2457 26.4257C25.2457 26.5389 25.1583 26.6314 25.0528 26.6314H20.2957C20.1903 26.6314 20.1028 26.5389 20.1028 26.4257V25.1914C20.1028 25.0783 20.1903 24.9857 20.2957 24.9857H25.0528C25.1583 24.9857 25.2457 25.0783 25.2457 25.1914V26.4257Z"
      fill="white" />
  </g>
  <defs>
    <filter id="filter0_d_3193_176" x="9.71426" y="12" width="22.2857" height="22.5714"
      filterUnits="userSpaceOnUse" color-interpolation-filters="sRGB">
      <feFlood flood-opacity="0" result="BackgroundImageFix" />
      <feColorMatrix in="SourceAlpha" type="matrix"
        values="0 0 0 0 0 0 0 0 0 0 0 0 0 0 0 0 0 0 127 0" result="hardAlpha" />
      <feOffset dx="0.857143" dy="1.14286" />
      <feGaussianBlur stdDeviation="0.428571" />
      <feComposite in2="hardAlpha" operator="out" />
      <feColorMatrix type="matrix" values="0 0 0 0 0 0 0 0 0 0 0 0 0 0 0 0 0 0 0.05 0" />
      <feBlend mode="normal" in2="BackgroundImageFix" result="effect1_dropShadow_3193_176" />
      <feBlend mode="normal" in="SourceGraphic" in2="effect1_dropShadow_3193_176" result="shape" />
    </filter>
    <linearGradient id="paint0_linear_3193_176" x1="40" y1="48.1429" x2="-22.8571" y2="-24.7143"
      gradientUnits="userSpaceOnUse">
      <stop stop-color="#FF85B8" />
      <stop offset="1" stop-color="#EF8F59" />
    </linearGradient>
  </defs>
</svg>
