<svg width="458" height="458" viewBox="0 0 458 458" fill="none" xmlns="http://www.w3.org/2000/svg">
  <rect width="458" height="458" rx="110" fill="black"/>
  <g clip-path="url(#clip0_318_35472)">
  <path fill-rule="evenodd" clip-rule="evenodd" d="M298.937 159.935C295.031 156.029 290.681 152.397 285.962 149.135L288.017 120.342C288.343 115.771 285.366 111.616 280.933 110.456L245.543 101.194C241.188 100.054 236.631 102.121 234.619 106.147L221.549 132.295C210.093 133.362 198.86 136.402 188.619 141.216L164.773 125.405C160.999 122.903 155.985 123.406 152.783 126.608L126.605 152.785C123.403 155.987 122.9 161.001 125.402 164.775L141.204 188.61C136.316 198.946 133.338 209.99 132.272 221.551L106.142 234.62C102.117 236.633 100.052 241.189 101.192 245.543L110.454 280.935C111.614 285.368 115.769 288.345 120.34 288.019L149.133 285.964C152.395 290.683 156.027 295.033 159.933 298.939C163.84 302.846 168.19 306.477 172.909 309.74L170.853 338.533C170.527 343.104 173.504 347.259 177.938 348.419L213.328 357.681C217.682 358.82 222.239 356.754 224.252 352.728L237.322 326.579C248.777 325.513 260.011 322.473 270.252 317.658L294.097 333.469C297.871 335.972 302.886 335.469 306.088 332.267L332.265 306.09C335.467 302.888 335.97 297.874 333.468 294.099L317.666 270.264C322.544 259.939 325.532 248.885 326.598 237.324L352.735 224.264C356.762 222.252 358.828 217.694 357.689 213.339L348.427 177.951C347.267 173.517 343.112 170.54 338.541 170.866L309.748 172.922C306.475 168.192 302.844 163.842 298.937 159.935ZM266.387 266.39C246.011 286.766 212.859 286.766 192.483 266.39C172.106 246.013 172.106 212.862 192.483 192.485C212.859 172.109 246.011 172.109 266.387 192.485C286.764 212.862 286.764 246.013 266.387 266.39Z" fill="#5BCC5A"/>
  <path d="M285.956 149.135C290.675 152.397 295.025 156.029 298.931 159.935C302.837 163.842 306.469 168.192 309.742 172.922L338.535 170.866C343.106 170.54 347.261 173.517 348.421 177.951L357.683 213.339C358.822 217.694 356.756 222.252 352.729 224.264L326.592 237.324C325.526 248.885 322.538 259.939 317.66 270.264L333.462 294.099C335.964 297.874 335.461 302.888 332.259 306.09L306.082 332.267C302.88 335.469 297.865 335.972 294.091 333.469L270.803 318.028L241.648 280.235C250.718 278.069 259.318 273.453 266.381 266.39C286.758 246.013 286.758 212.862 266.381 192.485C246.005 172.109 212.853 172.109 192.477 192.485C188.729 196.233 185.671 200.413 183.302 204.866L183.237 204.783L220.765 132.371C221.024 132.345 221.283 132.319 221.543 132.295L234.613 106.147C236.625 102.121 241.182 100.054 245.537 101.194L280.927 110.456C285.36 111.616 288.337 115.771 288.011 120.342L285.956 149.135Z" fill="#75DC66"/>
  <path d="M241.491 280.2L293.024 346.353C296.541 350.868 303.217 351.281 307.264 347.234L347.217 307.28C351.264 303.234 350.851 296.558 346.336 293.041L280.181 241.505C278.028 250.602 273.404 259.233 266.308 266.329C259.214 273.423 250.585 278.047 241.491 280.2Z" fill="#0DA84C"/>
  </g>
  <defs>
  <clipPath id="clip0_318_35472">
  <rect width="258" height="258" fill="white" transform="translate(100 100)"/>
  </clipPath>
  </defs>
</svg>
