<svg width="350" height="350" viewBox="0 0 350 350" fill="none" xmlns="http://www.w3.org/2000/svg">
  <path d="M347.797 188.294V317.485C347.797 334.227 334.225 347.8 317.482 347.8H32.5153C15.7725 347.8 2.19971 334.227 2.19971 317.485L2.19971 188.294H347.797Z" fill="#5BCC5A"/>
  <path d="M161.706 2.2002L161.706 161.707L2.19975 161.707L2.19975 32.5158C2.19975 15.773 15.7725 2.2002 32.5153 2.2002L161.706 2.2002Z" fill="#5BCC5A"/>
  <path d="M317.482 2.2002C334.225 2.2002 347.797 15.7729 347.797 32.5158V317.485C347.797 334.227 334.225 347.8 317.482 347.8L188.291 347.798V2.2002L317.482 2.2002Z" fill="#75DC66"/>
  <path d="M188.291 347.798L188.291 188.291L347.797 188.294V317.485C347.797 334.125 334.39 347.633 317.788 347.798L188.291 347.798Z" fill="#0DA84C"/>
</svg>
