<svg xmlns="http://www.w3.org/2000/svg" width="349" height="349" fill="none" viewBox="0 0 349 349"><g clip-path="url(#clip0_511_16495)"><path fill="#75DC66" d="M81.6997 41.6366C81.6997 18.835 100.184 0.350586 122.986 0.350586H282.875C305.677 0.350586 324.161 18.835 324.161 41.6366V250.652C324.161 273.454 305.677 291.938 282.875 291.938H122.986C100.184 291.938 81.6997 273.454 81.6997 250.652V41.6366Z"/><path fill="#5BCC5A" d="M24.6499 98.6864C24.6499 75.8847 43.1343 57.4004 65.9359 57.4004H225.825C248.627 57.4004 267.111 75.8847 267.111 98.6864V307.702C267.111 330.504 248.627 348.988 225.825 348.988H65.9359C43.1342 348.988 24.6499 330.504 24.6499 307.702V98.6864Z"/><path fill="#0DA84C" d="M267.111 291.938L122.986 291.938C100.184 291.938 81.6997 273.454 81.6997 250.652V57.4004H225.825C248.627 57.4004 267.111 75.8847 267.111 98.6864V291.938Z"/></g><defs><clipPath id="clip0_511_16495"><rect width="348.3" height="348.3" fill="#fff" transform="translate(0.350098 0.349609)"/></clipPath></defs></svg>