<svg width="390" height="390" viewBox="0 0 390 390" fill="none" xmlns="http://www.w3.org/2000/svg">
  <path d="M208.164 10.6614L359.556 361.189C365.623 375.235 351.503 389.523 337.386 383.622L176.084 316.2C169.295 313.363 165.102 306.481 165.691 299.147L188.627 13.8894C189.479 3.29039 203.948 0.899802 208.164 10.6614Z" fill="#75DC66"/>
  <path d="M181.452 10.6614L30.0597 361.189C23.9932 375.235 38.1131 389.523 52.2298 383.622L213.532 316.2C220.321 313.363 224.514 306.481 223.925 299.147L200.989 13.8894C200.137 3.29039 185.668 0.899802 181.452 10.6614Z" fill="#5BCC5A"/>
  <path d="M194.804 5.30016C191.563 6.63194 188.969 9.58326 188.623 13.8896L165.688 299.147C165.098 306.481 169.292 313.363 176.08 316.2L194.804 324.027L213.528 316.2C220.317 313.363 224.511 306.481 223.921 299.147L200.986 13.8896C200.64 9.58326 198.045 6.63194 194.804 5.30016Z" fill="#0DA84C"/>
</svg>
