<svg width="40" height="40" viewBox="0 0 40 40" fill="none" xmlns="http://www.w3.org/2000/svg">
  <path d="M40 20C40 8.95431 31.0457 0 20 0H0V40H40V20Z" fill="url(#paint0_linear_3193_165)" />
  <g filter="url(#filter0_d_3193_165)">
    <path fill-rule="evenodd" clip-rule="evenodd"
      d="M19.1208 9.42874L17.6689 10.8837L10.9025 17.6641L8.57143 20L10.9025 22.336L17.6689 29.1164L19.1208 30.5713V25.8994L13.2336 20L19.1208 14.1006V9.42874ZM20.879 25.8996L26.7664 20L20.879 14.1005V9.42859L22.3311 10.8837L29.0975 17.6641L31.4286 20L29.0975 22.336L22.3311 29.1164L20.879 30.5714V25.8996Z"
      fill="white" />
  </g>
  <defs>
    <filter id="filter0_d_3193_165" x="8.57143" y="9.42859" width="25.1429" height="23.1429"
      filterUnits="userSpaceOnUse" color-interpolation-filters="sRGB">
      <feFlood flood-opacity="0" result="BackgroundImageFix" />
      <feColorMatrix in="SourceAlpha" type="matrix"
        values="0 0 0 0 0 0 0 0 0 0 0 0 0 0 0 0 0 0 127 0" result="hardAlpha" />
      <feOffset dx="1.42857" dy="1.14286" />
      <feGaussianBlur stdDeviation="0.428571" />
      <feComposite in2="hardAlpha" operator="out" />
      <feColorMatrix type="matrix" values="0 0 0 0 0 0 0 0 0 0 0 0 0 0 0 0 0 0 0.05 0" />
      <feBlend mode="normal" in2="BackgroundImageFix" result="effect1_dropShadow_3193_165" />
      <feBlend mode="normal" in="SourceGraphic" in2="effect1_dropShadow_3193_165" result="shape" />
    </filter>
    <linearGradient id="paint0_linear_3193_165" x1="43.1429" y1="51.8571" x2="6.28572" y2="-3.57143"
      gradientUnits="userSpaceOnUse">
      <stop stop-color="#4B47FF" />
      <stop offset="0.6986" stop-color="#79B3F6" />
    </linearGradient>
  </defs>
</svg>
