<svg width="396" height="396" viewBox="0 0 396 396" fill="none" xmlns="http://www.w3.org/2000/svg">
  <path fill-rule="evenodd" clip-rule="evenodd" d="M155.082 308.858C240.007 308.858 308.853 240.012 308.853 155.087C308.853 70.1612 240.007 1.31543 155.082 1.31543C70.1563 1.31543 1.31055 70.1612 1.31055 155.087C1.31055 240.012 70.1563 308.858 155.082 308.858ZM155.082 227.873C195.284 227.873 227.873 195.283 227.873 155.082C227.873 114.88 195.284 82.2906 155.082 82.2906C114.881 82.2906 82.291 114.88 82.291 155.082C82.291 195.283 114.881 227.873 155.082 227.873Z" fill="#5BCC5A"/>
  <path d="M156.666 168.196C154.17 161.038 161.045 154.164 168.202 156.659L372.968 228.046C380.859 230.797 381.134 241.855 373.391 244.995L285.595 280.598C283.325 281.518 281.524 283.318 280.604 285.588L245.001 373.384C241.861 381.128 230.803 380.853 228.052 372.962L156.666 168.196Z" fill="#75DC66"/>
  <path fill-rule="evenodd" clip-rule="evenodd" d="M301.229 203.02L224.713 176.345C217.667 199.433 199.453 217.649 176.366 224.698L203.043 301.217C249.395 286.014 286.031 249.374 301.229 203.02Z" fill="#0DA84C"/>
</svg>
