<svg xmlns="http://www.w3.org/2000/svg" width="349" height="349" fill="none" viewBox="0 0 349 349"><g clip-path="url(#clip0_511_16501)"><path fill="#5BCC5A" d="M0.84375 91.0235C0.84375 73.4185 15.1154 59.1468 32.7205 59.1468H316.423C334.028 59.1468 348.3 73.4185 348.3 91.0235V119.713H0.84375V91.0235Z"/><path fill="#5BCC5A" d="M0.84375 124.494H348.3V299.816C348.3 317.421 334.028 331.693 316.423 331.693H32.7205C15.1154 331.693 0.84375 317.421 0.84375 299.816V124.494Z"/><path fill="#0DA84C" d="M228.762 33.6454C228.762 24.8429 235.898 17.707 244.701 17.707H276.577C285.38 17.707 292.516 24.8429 292.516 33.6454V227.695L260.639 264.752L228.762 227.695V33.6454Z"/><path fill="#75DC66" d="M228.762 33.6454C228.762 24.8429 235.898 17.707 244.701 17.707H276.577C285.38 17.707 292.516 24.8429 292.516 33.6454V124.494H228.762V33.6454Z"/></g><defs><clipPath id="clip0_511_16501"><rect width="348.3" height="348.3" fill="#fff"/></clipPath></defs></svg>