<svg width="40" height="40" viewBox="0 0 40 40" fill="none" xmlns="http://www.w3.org/2000/svg">
  <path d="M40 20C40 8.95431 31.0457 0 20 0H0V40H40V20Z" fill="url(#paint0_linear_3193_166)" />
  <g filter="url(#filter0_d_3193_166)">
    <rect x="25.2081" y="13.4286" width="2.43007" height="15.7488" rx="1.21504" fill="white" />
    <path fill-rule="evenodd" clip-rule="evenodd"
      d="M29.0869 23.329C29.2554 23.3937 29.4383 23.4292 29.6295 23.4292C30.4654 23.4292 31.1431 22.7515 31.1431 21.9156V20.7836C31.1431 19.9477 30.4654 19.27 29.6295 19.27C29.4383 19.27 29.2554 19.3055 29.0869 19.3702V23.329Z"
      fill="white" />
    <path
      d="M12.2189 23.2482C12.1869 22.9698 12.2361 22.6881 12.3607 22.437V22.437C13.0428 21.0619 15.114 21.5474 15.114 23.0824V29.8908C15.114 30.4774 14.6384 30.9531 14.0517 30.9531V30.9531C13.5119 30.9531 13.058 30.5483 12.9963 30.0121L12.2189 23.2482Z"
      fill="white" />
    <path fill-rule="evenodd" clip-rule="evenodd"
      d="M9.31224 18.0615C8.88039 18.1531 8.5715 18.5343 8.5715 18.9758V23.9881C8.5715 24.4367 8.89018 24.822 9.33079 24.9061L15.0907 26.0063L15.0907 16.836L9.31224 18.0615ZM16.4693 16.5436L16.4693 26.2697L25.2082 27.9389V14.6903L16.4693 16.5436Z"
      fill="white" />
  </g>
  <defs>
    <filter id="filter0_d_3193_166" x="8.5715" y="13.4286" width="24.2859" height="19.5245"
      filterUnits="userSpaceOnUse" color-interpolation-filters="sRGB">
      <feFlood flood-opacity="0" result="BackgroundImageFix" />
      <feColorMatrix in="SourceAlpha" type="matrix"
        values="0 0 0 0 0 0 0 0 0 0 0 0 0 0 0 0 0 0 127 0" result="hardAlpha" />
      <feOffset dx="0.857143" dy="1.14286" />
      <feGaussianBlur stdDeviation="0.428571" />
      <feComposite in2="hardAlpha" operator="out" />
      <feColorMatrix type="matrix" values="0 0 0 0 0 0 0 0 0 0 0 0 0 0 0 0 0 0 0.05 0" />
      <feBlend mode="normal" in2="BackgroundImageFix" result="effect1_dropShadow_3193_166" />
      <feBlend mode="normal" in="SourceGraphic" in2="effect1_dropShadow_3193_166" result="shape" />
    </filter>
    <linearGradient id="paint0_linear_3193_166" x1="43.1429" y1="51.8571" x2="6.28572" y2="-3.57143"
      gradientUnits="userSpaceOnUse">
      <stop stop-color="#FFA768" />
      <stop offset="0.6986" stop-color="#FF8787" />
    </linearGradient>
  </defs>
</svg>
