<svg width="349" height="349" viewBox="0 0 349 349" fill="none" xmlns="http://www.w3.org/2000/svg">
  <g clip-path="url(#clip0_511_16531)">
  <path d="M0.350586 282.158V66.5053C0.350586 30.1184 40.7163 8.24334 71.2012 28.1099L260.039 151.173C276.773 162.078 276.773 186.586 260.039 197.491L71.2012 320.554C40.7164 340.42 0.350586 318.545 0.350586 282.158Z" fill="#5BCC5A"/>
  <path d="M348.651 247.683V100.978C348.651 70.2276 314.163 52.0863 288.824 69.5073L169.486 151.552C153.51 162.535 153.51 186.126 169.486 197.109L288.824 279.154C314.163 296.575 348.651 278.433 348.651 247.683Z" fill="#75DC66"/>
  <path d="M213.836 121.064L260.04 151.174C276.774 162.08 276.774 186.588 260.04 197.493L213.838 227.602L169.488 197.111C153.511 186.127 153.511 162.537 169.488 151.553L213.836 121.064Z" fill="#0DA84C"/>
  </g>
  <defs>
  <clipPath id="clip0_511_16531">
  <rect width="348.3" height="348.3" fill="white" transform="translate(0.349609 0.349609)"/>
  </clipPath>
  </defs>
</svg>
