<svg xmlns="http://www.w3.org/2000/svg" width="40" height="40" fill="none" viewBox="0 0 40 40"><path fill="url(#paint0_linear_3204_328)" d="M40 20C40 8.95431 31.0457 0 20 0H0V40H40V20Z"/><g filter="url(#filter0_d_3204_328)"><rect width="2.399" height="2.399" x="14.123" y="22.222" fill="#fff" rx=".24"/><rect width="2.399" height="2.399" x="14.123" y="25.34" fill="#fff" rx=".24"/><rect width="2.399" height="2.399" x="17.242" y="19.104" fill="#fff" rx=".24"/><rect width="2.399" height="2.399" x="17.242" y="22.222" fill="#fff" rx=".24"/><rect width="2.399" height="2.399" x="17.242" y="25.34" fill="#fff" rx=".24"/><rect width="2.399" height="2.399" x="20.36" y="19.104" fill="#fff" rx=".24"/><rect width="2.399" height="2.399" x="23.478" y="19.104" fill="#fff" rx=".24"/><rect width="2.399" height="2.399" x="20.36" y="22.222" fill="#fff" rx=".24"/><rect width="2.399" height="2.399" x="20.36" y="25.34" fill="#fff" rx=".24"/><rect width="2.399" height="2.399" x="23.478" y="22.222" fill="#fff" rx=".24"/><rect width="1.799" height="3.358" x="14.963" y="11.428" fill="#fff" rx=".899"/><rect width="1.799" height="3.358" x="23.238" y="11.428" fill="#fff" rx=".899"/><path fill="#fff" fill-rule="evenodd" d="M22.8783 12.868H17.1217V13.8872C17.1217 14.5827 16.5579 15.1465 15.8624 15.1465C15.167 15.1465 14.6032 14.5827 14.6032 13.8872V12.868H13.4039C11.6818 12.868 10.2857 14.264 10.2857 15.9861V28.4588C10.2857 30.1809 11.6818 31.577 13.4039 31.577H26.5961C28.3182 31.577 29.7143 30.1809 29.7143 28.4588V15.9861C29.7143 14.264 28.3182 12.868 26.5961 12.868H25.3968V13.8872C25.3968 14.5827 24.833 15.1465 24.1375 15.1465C23.4421 15.1465 22.8783 14.5827 22.8783 13.8872V12.868ZM13.164 17.6652C12.8991 17.6652 12.6843 17.8799 12.6843 18.1449V28.6987C12.6843 28.9636 12.8991 29.1784 13.164 29.1784H26.836C27.1009 29.1784 27.3157 28.9636 27.3157 28.6987V18.1449C27.3157 17.8799 27.1009 17.6652 26.836 17.6652H13.164Z" clip-rule="evenodd"/></g><defs><filter id="filter0_d_3204_328" width="21.143" height="22.148" x="10.286" y="11.428" color-interpolation-filters="sRGB" filterUnits="userSpaceOnUse"><feFlood flood-opacity="0" result="BackgroundImageFix"/><feColorMatrix in="SourceAlpha" result="hardAlpha" type="matrix" values="0 0 0 0 0 0 0 0 0 0 0 0 0 0 0 0 0 0 127 0"/><feOffset dx=".857" dy="1.143"/><feGaussianBlur stdDeviation=".429"/><feComposite in2="hardAlpha" operator="out"/><feColorMatrix type="matrix" values="0 0 0 0 0 0 0 0 0 0 0 0 0 0 0 0 0 0 0.05 0"/><feBlend in2="BackgroundImageFix" mode="normal" result="effect1_dropShadow_3204_328"/><feBlend in="SourceGraphic" in2="effect1_dropShadow_3204_328" mode="normal" result="shape"/></filter><linearGradient id="paint0_linear_3204_328" x1="40" x2="21.122" y1="48.143" y2="4.673" gradientUnits="userSpaceOnUse"><stop stop-color="#EE4D5F"/><stop offset="1" stop-color="#FFCDA5"/></linearGradient></defs></svg>