<svg width="140" height="140" viewBox="0 0 140 140" fill="none" xmlns="http://www.w3.org/2000/svg">
<path d="M140 70C140 31.3401 108.66 0 70 0H0V140H140V70Z" fill="url(#paint0_linear_4833_4533)"/>
<path d="M95.6066 73.2316C95.6066 72.5848 95.9693 71.9926 96.5454 71.6986L108.204 65.7504C109.349 65.1663 110.707 65.998 110.707 67.2834V97.8626C110.707 99.1363 109.372 99.9686 108.228 99.4077L96.5696 93.6883C95.9802 93.3991 95.6066 92.7998 95.6066 92.1432V73.2316Z" fill="white"/>
<path d="M70.9854 80.2608C70.9854 84.9857 67.1551 88.8161 62.4301 88.8161C57.7051 88.8161 53.8748 84.9857 53.8748 80.2608C53.8748 75.5358 57.7051 71.7055 62.4301 71.7055C67.1551 71.7055 70.9854 75.5358 70.9854 80.2608Z" fill="white"/>
<path fill-rule="evenodd" clip-rule="evenodd" d="M62.4303 48C79.2365 48 92.8606 61.6241 92.8606 78.4303V108.861H32V48H62.4303ZM79.59 80.2608C79.59 89.7379 71.9073 97.4207 62.4301 97.4207C52.9529 97.4207 45.2702 89.7379 45.2702 80.2608C45.2702 70.7836 52.9529 63.1008 62.4301 63.1008C71.9073 63.1008 79.59 70.7836 79.59 80.2608Z" fill="white"/>
<defs>
<linearGradient id="paint0_linear_4833_4533" x1="216.5" y1="256" x2="-80" y2="-86.5" gradientUnits="userSpaceOnUse">
<stop stop-color="#00FFE0"/>
<stop offset="0.5" stop-color="#8B97FF"/>
</linearGradient>
</defs>
</svg>
