<svg xmlns="http://www.w3.org/2000/svg" width="40" height="40" fill="none" viewBox="0 0 40 40"><path fill="url(#paint0_linear_3193_165)" d="M40 20C40 8.95431 31.0457 0 20 0H0V40H40V20Z"/><g filter="url(#filter0_d_3193_165)"><path fill="#fff" fill-rule="evenodd" d="M19.1208 9.42874L17.6689 10.8837L10.9025 17.6641L8.57143 20L10.9025 22.336L17.6689 29.1164L19.1208 30.5713V25.8994L13.2336 20L19.1208 14.1006V9.42874ZM20.879 25.8996L26.7664 20L20.879 14.1005V9.42859L22.3311 10.8837L29.0975 17.6641L31.4286 20L29.0975 22.336L22.3311 29.1164L20.879 30.5714V25.8996Z" clip-rule="evenodd"/></g><defs><filter id="filter0_d_3193_165" width="25.143" height="23.143" x="8.571" y="9.429" color-interpolation-filters="sRGB" filterUnits="userSpaceOnUse"><feFlood flood-opacity="0" result="BackgroundImageFix"/><feColorMatrix in="SourceAlpha" result="hardAlpha" type="matrix" values="0 0 0 0 0 0 0 0 0 0 0 0 0 0 0 0 0 0 127 0"/><feOffset dx="1.429" dy="1.143"/><feGaussianBlur stdDeviation=".429"/><feComposite in2="hardAlpha" operator="out"/><feColorMatrix type="matrix" values="0 0 0 0 0 0 0 0 0 0 0 0 0 0 0 0 0 0 0.05 0"/><feBlend in2="BackgroundImageFix" mode="normal" result="effect1_dropShadow_3193_165"/><feBlend in="SourceGraphic" in2="effect1_dropShadow_3193_165" mode="normal" result="shape"/></filter><linearGradient id="paint0_linear_3193_165" x1="43.143" x2="6.286" y1="51.857" y2="-3.571" gradientUnits="userSpaceOnUse"><stop stop-color="#4B47FF"/><stop offset=".699" stop-color="#79B3F6"/></linearGradient></defs></svg>