<svg width="40" height="40" viewBox="0 0 40 40" fill="none" xmlns="http://www.w3.org/2000/svg">
  <path d="M40 20C40 8.95431 31.0457 0 20 0H0V40H40V20Z" fill="url(#paint0_linear_3204_320)" />
  <g filter="url(#filter0_d_3204_320)">
    <rect x="8.57143" y="18.9873" width="2.70498" height="4.73372" fill="white" />
    <rect x="12.3585" y="15.606" width="2.70498" height="8.11495" fill="white" />
    <path d="M16.1455 11.1428H18.8505V23.721H16.1455V11.1428Z" fill="white" />
    <path fill-rule="evenodd" clip-rule="evenodd"
      d="M24.2511 26.1584C24.8783 25.6457 25.8024 25.7386 26.3151 26.3659L31.0973 32.2171C31.61 32.8444 31.5171 33.7684 30.8898 34.2811C30.2626 34.7938 29.3385 34.7009 28.8258 34.0736L24.0436 28.2224C23.5309 27.5951 23.6238 26.6711 24.2511 26.1584Z"
      fill="white" />
    <path fill-rule="evenodd" clip-rule="evenodd"
      d="M26.8626 20.599C26.8626 17.0217 23.9826 14.117 20.4147 14.0771V11.1433C25.6029 11.1833 29.7963 15.4014 29.7963 20.599C29.7963 23.7294 28.2736 26.5045 25.9348 28.2231C24.3681 29.3744 22.4315 30.055 20.3403 30.055C17.2697 30.055 14.5408 28.5899 12.8158 26.3267C12.5725 26.0074 12.3489 25.672 12.147 25.3224H15.8423C17.0137 26.4385 18.5971 27.1213 20.3403 27.1213C21.7857 27.1213 23.1174 26.6529 24.1977 25.8591C25.8166 24.6694 26.8626 22.7565 26.8626 20.599Z"
      fill="white" />
  </g>
  <defs>
    <filter id="filter0_d_3204_320" x="8.57143" y="11.1428" width="23.6584" height="24.4043"
      filterUnits="userSpaceOnUse" color-interpolation-filters="sRGB">
      <feFlood flood-opacity="0" result="BackgroundImageFix" />
      <feColorMatrix in="SourceAlpha" type="matrix"
        values="0 0 0 0 0 0 0 0 0 0 0 0 0 0 0 0 0 0 127 0" result="hardAlpha" />
      <feOffset dx="0.400674" dy="0.534232" />
      <feGaussianBlur stdDeviation="0.200337" />
      <feComposite in2="hardAlpha" operator="out" />
      <feColorMatrix type="matrix" values="0 0 0 0 0 0 0 0 0 0 0 0 0 0 0 0 0 0 0.05 0" />
      <feBlend mode="normal" in2="BackgroundImageFix" result="effect1_dropShadow_3204_320" />
      <feBlend mode="normal" in="SourceGraphic" in2="effect1_dropShadow_3204_320" result="shape" />
    </filter>
    <linearGradient id="paint0_linear_3204_320" x1="40" y1="59" x2="5" y2="-3.14286"
      gradientUnits="userSpaceOnUse">
      <stop stop-color="#8588FF" />
      <stop offset="1" stop-color="#63D9FE" />
    </linearGradient>
  </defs>
</svg>
