<svg xmlns="http://www.w3.org/2000/svg" width="40" height="40" fill="none" viewBox="0 0 40 40"><path fill="url(#paint0_linear_3204_322)" d="M40 20C40 8.95431 31.0457 0 20 0H0V40H40V20Z"/><rect width="5.174" height="5.174" x="6" y="8" fill="#fff" rx="1.293"/><rect width="5.174" height="5.174" x="11.82" y="8" fill="#fff" rx="1.293"/><rect width="5.174" height="5.174" x="17.641" y="8" fill="#fff" rx="1.293"/><rect width="5.174" height="5.174" x="23.462" y="8" fill="#fff" rx="1.293"/><rect width="5.174" height="5.174" x="6" y="13.82" fill="#fff" rx="1.293"/><rect width="5.174" height="5.174" x="11.82" y="13.82" fill="#fff" rx="1.293"/><rect width="5.174" height="5.174" x="17.641" y="13.82" fill="#fff" rx="1.293"/><rect width="5.174" height="5.174" x="6" y="19.641" fill="#fff" rx="1.293"/><rect width="5.174" height="5.174" x="11.82" y="19.641" fill="#fff" rx="1.293"/><rect width="5.174" height="5.174" x="6" y="25.462" fill="#fff" rx="1.293"/><defs><linearGradient id="paint0_linear_3204_322" x1="20" x2="20" y1="0" y2="40" gradientUnits="userSpaceOnUse"><stop stop-color="#4DC8C3"/><stop offset="1" stop-color="#52A9C6"/></linearGradient></defs></svg>