<svg xmlns="http://www.w3.org/2000/svg" width="500" height="500" fill="none" viewBox="0 0 500 500"><path fill="url(#paint0_linear_3457_4148)" d="M500 250C500 111.929 388.07 0 250 0H0V500H500V250Z"/><path fill="url(#paint1_linear_3457_4148)" d="M375.001 33.5C450.552 76.5087 499.938 156.762 499.938 249.915V456.915C495.688 424.415 470.188 397.415 383.188 302.665C313.588 226.865 349.251 91.9717 375.001 33.5Z"/><path fill="url(#paint2_linear_3457_4148)" d="M375.001 33.5C450.552 76.5087 499.938 156.762 499.938 249.915V456.915C495.688 424.415 470.188 397.415 383.188 302.665C313.588 226.865 349.251 91.9717 375.001 33.5Z"/><path fill="url(#paint3_linear_3457_4148)" d="M0 0H250C294.713 0 338.501 12 375.001 33.5C391.667 61.5663 407.2 139.5 344 231.5C265 346.5 256.25 368 220.25 500H0V0Z"/><path fill="url(#paint4_linear_3457_4148)" d="M0 0H250C294.713 0 335.001 11.25 375.001 33.5C391.667 61.5663 407.2 139.5 344 231.5C265 346.5 256.25 368 220.25 500H0V0Z"/><path fill="url(#paint5_linear_3457_4148)" fill-opacity=".4" d="M249 500C207.75 347 74.9167 311.704 0 278.5V500H249Z"/><defs><linearGradient id="paint0_linear_3457_4148" x1="0" x2="459.75" y1="21.75" y2="533.75" gradientUnits="userSpaceOnUse"><stop stop-color="#8BBEFF"/><stop offset=".613" stop-color="#8C9CF5"/><stop offset=".779" stop-color="#8FA1F2"/><stop offset="1" stop-color="#98ACF4"/></linearGradient><linearGradient id="paint1_linear_3457_4148" x1="78.241" x2="73.743" y1="-1.181" y2="644.658" gradientUnits="userSpaceOnUse"><stop stop-color="#6565E3"/><stop offset=".49" stop-color="#8A99EE"/></linearGradient><linearGradient id="paint2_linear_3457_4148" x1="278.722" x2="321.826" y1="262.734" y2="535.18" gradientUnits="userSpaceOnUse"><stop stop-color="#6C6CDE" stop-opacity="0"/><stop offset="1" stop-color="#8C96EB"/></linearGradient><linearGradient id="paint3_linear_3457_4148" x1="454.149" x2="324.11" y1="43.25" y2="520.395" gradientUnits="userSpaceOnUse"><stop stop-color="#8684ED"/><stop offset=".511" stop-color="#8C9DF6"/><stop offset=".767" stop-color="#8B94F2" stop-opacity="0"/></linearGradient><linearGradient id="paint4_linear_3457_4148" x1="-39.77" x2="92.972" y1="-70.5" y2="214.905" gradientUnits="userSpaceOnUse"><stop offset=".198" stop-color="#AF84FF"/><stop offset=".938" stop-color="#8B94F2" stop-opacity="0"/></linearGradient><linearGradient id="paint5_linear_3457_4148" x1="110" x2="110.5" y1="294" y2="441.75" gradientUnits="userSpaceOnUse"><stop stop-color="#8CA7F8"/><stop offset=".288" stop-color="#8CA4F8"/><stop offset=".615" stop-color="#8BBFFE"/><stop offset="1" stop-color="#84CAFF"/></linearGradient></defs></svg>