<svg width="458" height="458" viewBox="0 0 458 458" fill="none" xmlns="http://www.w3.org/2000/svg">
  <rect width="458" height="458" rx="110" fill="black"/>
  <g clip-path="url(#clip0_318_35448)">
  <path d="M158.034 219.083C158.034 214.881 160.281 210.999 163.924 208.906L220.812 176.23C224.377 174.182 228.754 174.149 232.35 176.143L292.824 209.681C296.554 211.75 298.868 215.679 298.868 219.945V285.528C298.868 289.794 296.554 293.723 292.824 295.792L232.35 329.33C228.754 331.324 224.377 331.291 220.812 329.243L163.924 296.567C160.281 294.474 158.034 290.592 158.034 286.39V219.083Z" fill="#75DC66"/>
  <path d="M220.816 129.288L105.338 195.618C97.484 200.129 97.4839 211.46 105.338 215.971L220.816 282.301C224.381 284.349 228.758 284.382 232.354 282.388L351.956 216.058C360.015 211.588 360.015 200 351.956 195.531L232.354 129.201C228.758 127.207 224.381 127.24 220.816 129.288Z" fill="#5BCC5A"/>
  <path d="M161.525 210.284L216.101 178.936C220.746 176.268 226.537 179.631 226.522 184.988L226.11 328.652C226.105 330.254 224.373 331.253 222.984 330.456L163.929 296.566C160.282 294.474 158.034 290.591 158.034 286.387V216.316C158.034 213.825 159.365 211.525 161.525 210.284Z" fill="#0DA84C"/>
  </g>
  <defs>
  <clipPath id="clip0_318_35448">
  <rect width="258" height="258" fill="white" transform="translate(100 100)"/>
  </clipPath>
  </defs>
</svg>
