<svg width="396" height="396" viewBox="0 0 396 396" fill="none" xmlns="http://www.w3.org/2000/svg">
  <path d="M288.319 250.567C288.319 328.742 224.945 392.116 146.77 392.116C68.5947 392.116 5.22119 328.742 5.22119 250.567C5.22119 172.392 68.5947 109.018 146.77 109.018C224.945 109.018 288.319 172.392 288.319 250.567Z" fill="#5BCC5A"/>
  <path d="M392.12 146.767C392.12 224.943 328.746 288.316 250.571 288.316C172.396 288.316 109.022 224.943 109.022 146.767C109.022 68.5923 172.396 5.21875 250.571 5.21875C328.746 5.21875 392.12 68.5923 392.12 146.767Z" fill="#75DC66"/>
  <path d="M113.063 113.063C123.866 110.424 135.155 109.024 146.771 109.024C224.946 109.024 288.32 172.398 288.32 250.573C288.32 262.19 286.92 273.48 284.281 284.284C273.478 286.923 262.189 288.322 250.572 288.322C172.397 288.322 109.024 224.949 109.024 146.774C109.024 135.157 110.423 123.867 113.063 113.063Z" fill="#0DA84C"/>
</svg>
