<svg xmlns="http://www.w3.org/2000/svg" width="440" height="347" fill="none" viewBox="0 0 440 347"><path fill="#75DC66" d="M99.3594 156.138C99.3594 148.994 103.179 142.396 109.374 138.838L206.083 83.2884C212.144 79.8072 219.584 79.7513 225.697 83.1411L328.502 140.156C334.843 143.672 338.777 150.353 338.777 157.604V269.095C338.777 276.346 334.843 283.027 328.502 286.543L225.697 343.558C219.584 346.948 212.144 346.892 206.083 343.411L109.374 287.861C103.179 284.303 99.3594 277.705 99.3594 270.561V156.138Z"/><path fill="#5BCC5A" d="M206.089 3.48682L9.77686 116.247C-3.57534 123.917 -3.57537 143.179 9.77684 150.848L206.089 263.609C212.15 267.09 219.591 267.146 225.703 263.756L429.027 150.996C442.727 143.398 442.727 123.698 429.027 116.1L225.703 3.33951C219.591 -0.0503274 212.15 0.00555456 206.089 3.48682Z"/><path fill="#0DA84C" d="M105.295 141.18L198.074 87.8885C205.971 83.3528 215.815 89.07 215.789 98.1765L215.089 342.407C215.081 345.129 212.136 346.828 209.775 345.473L109.38 287.86C103.182 284.303 99.3594 277.702 99.3594 270.556V151.434C99.3594 147.2 101.623 143.289 105.295 141.18Z"/></svg>