<svg width="458" height="458" viewBox="0 0 458 458" fill="none" xmlns="http://www.w3.org/2000/svg">
  <rect width="458" height="458" rx="110" fill="black"/>
  <path d="M237.333 113.704L332.096 333.115C335.893 341.907 327.055 350.85 318.218 347.157L217.252 304.954C213.003 303.178 210.378 298.871 210.747 294.28L225.103 115.724C225.637 109.09 234.694 107.594 237.333 113.704Z" fill="#75DC66"/>
  <path d="M220.612 113.704L125.849 333.115C122.052 341.907 130.89 350.85 139.726 347.157L240.693 304.954C244.942 303.178 247.567 298.871 247.198 294.28L232.842 115.724C232.308 109.09 223.251 107.594 220.612 113.704Z" fill="#5BCC5A"/>
  <path d="M228.97 110.348C226.941 111.182 225.318 113.029 225.101 115.725L210.745 294.28C210.376 298.871 213.001 303.178 217.25 304.954L228.97 309.853L240.69 304.954C244.94 303.178 247.565 298.871 247.196 294.28L232.839 115.725C232.623 113.029 230.999 111.182 228.97 110.348Z" fill="#0DA84C"/>
</svg>
