<svg xmlns="http://www.w3.org/2000/svg" width="349" height="349" fill="none" viewBox="0 0 349 349"><g clip-path="url(#clip0_511_16537)"><path fill="#75DC66" d="M210.43 268.486C210.43 312.76 174.54 348.651 130.266 348.651C85.9927 348.651 50.102 312.76 50.102 268.486C50.102 224.213 85.9927 188.322 130.266 188.322C174.54 188.322 210.43 224.213 210.43 268.486Z"/><path fill="#5BCC5A" d="M3.05078 168.284C3.05078 118.717 43.2328 78.5348 92.7998 78.5348H142.467V258.033H92.7999C43.2328 258.033 3.05078 217.851 3.05078 168.284Z"/><path fill="#5BCC5A" d="M142.466 78.5322L322.086 1.77127C333.584 -3.14218 346.361 5.2929 346.361 17.7963V318.766C346.361 331.269 333.584 339.705 322.086 334.791L142.466 258.03V78.5322Z"/><path fill="#0DA84C" d="M142.466 189.243L142.466 258.03L92.7999 258.033C78.3491 258.033 64.6954 254.616 52.6031 248.549C61.4658 213.92 92.8777 188.321 130.269 188.321C134.416 188.321 138.489 188.636 142.466 189.243Z"/><path fill="#0DA84C" d="M208.461 286.231L142.466 258.03L142.466 189.243C180.95 195.119 210.43 228.361 210.43 268.486C210.43 274.585 209.751 280.522 208.461 286.231Z"/></g><defs><clipPath id="clip0_511_16537"><rect width="348.3" height="348.3" fill="#fff" transform="translate(0.349609 0.349609)"/></clipPath></defs></svg>