<svg xmlns="http://www.w3.org/2000/svg" width="40" height="40" fill="none" viewBox="0 0 40 40"><path fill="url(#paint0_linear_3193_177)" d="M40 20C40 8.95431 31.0457 0 20 0H0V40H40V20Z"/><g filter="url(#filter0_d_3193_177)"><path fill="#fff" d="M22.314 26.5465L22.565 26.5447C23.6989 26.5447 24.2946 27.0148 25.0296 28.1284L25.3955 28.6937C25.6808 29.1161 25.8588 29.293 26.0831 29.3854C26.4852 29.5512 26.8185 29.4697 28.0424 28.8804L28.4171 28.698C29.1826 28.3222 29.7049 28.107 30.2951 27.9595C30.6685 27.8661 31.0469 28.0932 31.1403 28.4666C31.2336 28.8401 31.0066 29.2185 30.6331 29.3118C30.2663 29.4036 29.9148 29.5351 29.455 29.747L28.3783 30.265C26.9212 30.9531 26.4271 31.0349 25.552 30.6742C24.9711 30.4348 24.6407 30.0885 24.1574 29.3494L23.9765 29.067C23.4171 28.1856 23.1356 27.9387 22.565 27.9387L22.4175 27.9422C22.015 27.9666 21.7543 28.151 20.018 29.4396C18.3989 30.6411 17.1641 31.215 15.5939 31.215C13.6796 31.215 11.8758 30.8633 10.1879 30.1602L12.8665 29.541C13.7437 29.7277 14.6525 29.821 15.5939 29.821C16.7933 29.821 17.7875 29.3589 19.1873 28.3202L20.2653 27.5247C21.4468 26.666 21.7096 26.5596 22.314 26.5465ZM28.166 10.0235C29.7213 11.5789 29.7214 14.1005 28.1661 15.6558L27.2038 16.6183C28.2743 17.9207 28.2358 19.3011 27.2404 20.2994L24.4515 23.0882C24.1792 23.3603 23.7379 23.3601 23.4658 23.0878C23.1938 22.8154 23.194 22.3741 23.4663 22.1021L26.2533 19.3151C26.7041 18.863 26.7562 18.3018 26.2162 17.6065L16.3707 27.4518C16.0936 27.729 15.7442 27.9226 15.3623 28.0107L9.71135 29.3148C9.20948 29.4306 8.75968 28.9808 8.8755 28.479L10.1796 22.828C10.2677 22.4461 10.4613 22.0968 10.7384 21.8197L22.5338 10.0236C24.0891 8.46831 26.6107 8.46827 28.166 10.0235Z"/></g><defs><filter id="filter0_d_3193_177" width="24.018" height="24.358" x="8.857" y="8.857" color-interpolation-filters="sRGB" filterUnits="userSpaceOnUse"><feFlood flood-opacity="0" result="BackgroundImageFix"/><feColorMatrix in="SourceAlpha" result="hardAlpha" type="matrix" values="0 0 0 0 0 0 0 0 0 0 0 0 0 0 0 0 0 0 127 0"/><feOffset dx=".857" dy="1.143"/><feGaussianBlur stdDeviation=".429"/><feComposite in2="hardAlpha" operator="out"/><feColorMatrix type="matrix" values="0 0 0 0 0 0 0 0 0 0 0 0 0 0 0 0 0 0 0.05 0"/><feBlend in2="BackgroundImageFix" mode="normal" result="effect1_dropShadow_3193_177"/><feBlend in="SourceGraphic" in2="effect1_dropShadow_3193_177" mode="normal" result="shape"/></filter><linearGradient id="paint0_linear_3193_177" x1="40" x2="-6.857" y1="48.143" y2="-9.714" gradientUnits="userSpaceOnUse"><stop stop-color="#698EEF"/><stop offset="1" stop-color="#59CBEF"/></linearGradient></defs></svg>