<svg width="140" height="140" viewBox="0 0 140 140" fill="none" xmlns="http://www.w3.org/2000/svg">
<path d="M140 70C140 31.3401 108.66 0 70 0H0V140H140V70Z" fill="url(#paint0_linear_5484_803)"/>
<path d="M88.1333 68.7936C88.1333 58.077 80.4609 49.1524 70.3093 47.2133V37.5586C85.7497 39.5887 97.6683 52.7994 97.6683 68.7939C97.6683 86.194 83.5627 100.3 66.1625 100.3C49.8825 100.3 36.4864 87.9516 34.8292 72.1103H44.4398C46.0389 82.6709 55.1553 90.7647 66.1622 90.7647C78.2965 90.7647 88.1333 80.9279 88.1333 68.7936Z" fill="white"/>
<path d="M44.2064 67.9648L34.6675 67.9646L44.2064 67.9648Z" fill="white"/>
<path d="M66.1638 37.2881V37.3068C65.9788 37.3006 65.7943 37.296 65.6103 37.2929C65.794 37.2897 65.9794 37.2881 66.1638 37.2881Z" fill="white"/>
<path d="M83.9808 83.8379C85.8059 81.9401 88.8238 81.8812 90.7215 83.7063L106.558 98.9361C108.455 100.761 108.514 103.779 106.689 105.677C104.864 107.575 101.846 107.633 99.9485 105.808L84.1123 90.5786C82.2146 88.7535 82.1557 85.7356 83.9808 83.8379Z" fill="white"/>
<path d="M66.1762 31.0704C45.7997 31.0704 29.2812 47.5888 29.2812 67.9653H66.1762V31.0704Z" fill="white"/>
<defs>
<linearGradient id="paint0_linear_5484_803" x1="140" y1="140" x2="17.5" y2="-11" gradientUnits="userSpaceOnUse">
<stop stop-color="#35CABA"/>
<stop offset="1" stop-color="#83D6AE"/>
</linearGradient>
</defs>
</svg>
