<svg width="641" height="153" viewBox="0 0 641 153" fill="none" xmlns="http://www.w3.org/2000/svg">
  <g clip-path="url(#clip0_318_36052)">
  <path fill-rule="evenodd" clip-rule="evenodd" d="M61.8205 110.141C89.4392 110.141 111.829 87.7517 111.829 60.133C111.829 32.5144 89.4392 10.125 61.8205 10.125C34.2018 10.125 11.8125 32.5144 11.8125 60.133C11.8125 87.7517 34.2018 110.141 61.8205 110.141ZM61.8206 83.8034C74.8946 83.8034 85.4931 73.2049 85.4931 60.1309C85.4931 47.057 74.8946 36.4585 61.8206 36.4585C48.7467 36.4585 38.1482 47.057 38.1482 60.1309C38.1482 73.2049 48.7467 83.8034 61.8206 83.8034Z" fill="#5BCC5A"/>
  <path d="M62.3352 64.3965C61.5237 62.0689 63.7593 59.8333 66.0869 60.6448L132.679 83.8605C135.245 84.7551 135.335 88.3512 132.816 89.3725L104.264 100.951C103.526 101.25 102.941 101.836 102.641 102.574L91.0629 131.126C90.0416 133.644 86.4455 133.555 85.5509 130.989L62.3352 64.3965Z" fill="#75DC66"/>
  <path fill-rule="evenodd" clip-rule="evenodd" d="M109.349 75.7221L84.465 67.0469C82.1736 74.5552 76.2503 80.4791 68.7424 82.7715L77.418 107.657C92.4921 102.713 104.407 90.7969 109.349 75.7221Z" fill="#0DA84C"/>
  </g>
  <path d="M188.913 55.0751V135.563H172.769V55.0751H188.913Z" fill="black"/>
  <path d="M237.958 70.7576C245.568 70.7576 251.718 73.1791 256.408 78.0223C261.097 82.7885 263.442 89.4766 263.442 98.0866V135.563H247.298V100.278C247.298 95.2038 246.03 91.3216 243.493 88.631C240.956 85.8635 237.496 84.4798 233.115 84.4798C228.656 84.4798 225.12 85.8635 222.506 88.631C219.969 91.3216 218.7 95.2038 218.7 100.278V135.563H202.557V71.6801H218.7V79.6366C220.853 76.8691 223.582 74.7166 226.888 73.1791C230.27 71.5648 233.96 70.7576 237.958 70.7576Z" fill="black"/>
  <path d="M303.125 120.688L319.268 71.6801H336.45L312.811 135.563H293.208L269.684 71.6801H286.981L303.125 120.688Z" fill="black"/>
  <path d="M351.398 64.0695C348.554 64.0695 346.171 63.1854 344.249 61.4173C342.404 59.5723 341.481 57.3045 341.481 54.6138C341.481 51.9232 342.404 49.6938 344.249 47.9257C346.171 46.0807 348.554 45.1582 351.398 45.1582C354.243 45.1582 356.587 46.0807 358.432 47.9257C360.354 49.6938 361.315 51.9232 361.315 54.6138C361.315 57.3045 360.354 59.5723 358.432 61.4173C356.587 63.1854 354.243 64.0695 351.398 64.0695ZM359.355 71.6801V135.563H343.211V71.6801H359.355Z" fill="black"/>
  <path d="M397.445 136.601C392.217 136.601 387.528 135.679 383.377 133.834C379.225 131.912 375.92 129.336 373.46 126.108C371.077 122.879 369.77 119.304 369.539 115.384H385.798C386.106 117.844 387.297 119.881 389.373 121.495C391.525 123.109 394.178 123.917 397.329 123.917C400.404 123.917 402.788 123.302 404.479 122.072C406.247 120.842 407.131 119.266 407.131 117.344C407.131 115.268 406.055 113.731 403.902 112.731C401.827 111.655 398.483 110.502 393.87 109.272C389.104 108.119 385.183 106.927 382.108 105.697C379.11 104.467 376.496 102.584 374.267 100.047C372.114 97.5101 371.038 94.0891 371.038 89.7841C371.038 86.2479 372.038 83.0191 374.036 80.0979C376.112 77.1766 379.033 74.8704 382.8 73.1791C386.644 71.4879 391.141 70.6423 396.292 70.6423C403.902 70.6423 409.975 72.5641 414.511 76.4079C419.047 80.1748 421.545 85.287 422.006 91.7445H406.554C406.324 89.2076 405.248 87.2088 403.326 85.7482C401.481 84.2107 398.982 83.442 395.83 83.442C392.909 83.442 390.641 83.9801 389.027 85.0563C387.489 86.1326 386.721 87.6316 386.721 89.5535C386.721 91.706 387.797 93.3588 389.949 94.512C392.102 95.5882 395.446 96.7029 399.982 97.856C404.594 99.0091 408.399 100.201 411.398 101.431C414.396 102.661 416.971 104.583 419.124 107.196C421.353 109.733 422.506 113.116 422.583 117.344C422.583 121.034 421.545 124.339 419.469 127.261C417.471 130.182 414.549 132.488 410.706 134.179C406.939 135.794 402.519 136.601 397.445 136.601Z" fill="black"/>
  <path d="M441.716 64.0695C438.871 64.0695 436.488 63.1854 434.566 61.4173C432.721 59.5723 431.799 57.3045 431.799 54.6138C431.799 51.9232 432.721 49.6938 434.566 47.9257C436.488 46.0807 438.871 45.1582 441.716 45.1582C444.56 45.1582 446.905 46.0807 448.75 47.9257C450.672 49.6938 451.633 51.9232 451.633 54.6138C451.633 57.3045 450.672 59.5723 448.75 61.4173C446.905 63.1854 444.56 64.0695 441.716 64.0695ZM449.672 71.6801V135.563H433.529V71.6801H449.672Z" fill="black"/>
  <path d="M479.46 81.0204C481.536 77.9454 484.38 75.447 487.993 73.5251C491.683 71.6032 495.873 70.6423 500.562 70.6423C506.02 70.6423 510.94 71.9876 515.322 74.6782C519.781 77.3688 523.279 81.2126 525.815 86.2095C528.429 91.1295 529.736 96.8566 529.736 103.391C529.736 109.925 528.429 115.729 525.815 120.803C523.279 125.8 519.781 129.682 515.322 132.45C510.94 135.217 506.02 136.601 500.562 136.601C495.796 136.601 491.606 135.679 487.993 133.834C484.457 131.912 481.612 129.452 479.46 126.454V135.563H463.316V50.232H479.46V81.0204ZM513.246 103.391C513.246 99.5473 512.439 96.2416 510.825 93.4741C509.287 90.6298 507.212 88.4773 504.598 87.0166C502.061 85.556 499.294 84.8257 496.296 84.8257C493.374 84.8257 490.607 85.5945 487.993 87.132C485.456 88.5926 483.38 90.7451 481.766 93.5895C480.229 96.4338 479.46 99.7779 479.46 103.622C479.46 107.465 480.229 110.809 481.766 113.654C483.38 116.498 485.456 118.689 487.993 120.227C490.607 121.687 493.374 122.418 496.296 122.418C499.294 122.418 502.061 121.649 504.598 120.111C507.212 118.574 509.287 116.383 510.825 113.539C512.439 110.694 513.246 107.312 513.246 103.391Z" fill="black"/>
  <path d="M555.305 50.232V135.563H539.161V50.232H555.305Z" fill="black"/>
  <path d="M628.335 102.238C628.335 104.544 628.181 106.62 627.873 108.465H581.172C581.556 113.077 583.171 116.69 586.015 119.304C588.859 121.918 592.357 123.225 596.508 123.225C602.505 123.225 606.771 120.649 609.308 115.499H626.72C624.875 121.649 621.339 126.723 616.112 130.72C610.884 134.641 604.465 136.601 596.854 136.601C590.704 136.601 585.169 135.256 580.249 132.565C575.406 129.798 571.601 125.915 568.833 120.919C566.143 115.922 564.797 110.156 564.797 103.622C564.797 97.0104 566.143 91.2063 568.833 86.2095C571.524 81.2126 575.291 77.3688 580.134 74.6782C584.977 71.9876 590.551 70.6423 596.854 70.6423C602.927 70.6423 608.347 71.9491 613.113 74.5629C617.957 77.1766 621.685 80.9051 624.299 85.7482C626.989 90.5145 628.335 96.011 628.335 102.238ZM611.614 97.6254C611.537 93.4741 610.038 90.1685 607.117 87.7085C604.196 85.1716 600.621 83.9032 596.393 83.9032C592.396 83.9032 589.013 85.1332 586.246 87.5932C583.555 89.9763 581.902 93.3204 581.287 97.6254H611.614Z" fill="black"/>
  <path d="M229.622 25.5097C229.622 26.3731 229.564 27.1502 229.449 27.841H211.978C212.122 29.5679 212.726 30.9206 213.79 31.8992C214.854 32.8777 216.163 33.367 217.716 33.367C219.959 33.367 221.555 32.4028 222.504 30.4745H229.018C228.327 32.777 227.005 34.6766 225.049 36.1732C223.094 37.6411 220.692 38.375 217.845 38.375C215.544 38.375 213.474 37.8713 211.633 36.864C209.822 35.8278 208.398 34.3744 207.363 32.5036C206.356 30.6328 205.853 28.4742 205.853 26.0278C205.853 23.5525 206.356 21.3795 207.363 19.5087C208.369 17.638 209.778 16.1989 211.59 15.1915C213.402 14.1842 215.487 13.6805 217.845 13.6805C220.117 13.6805 222.144 14.1698 223.927 15.1484C225.739 16.1269 227.134 17.5228 228.112 19.3361C229.118 21.1205 229.622 23.1784 229.622 25.5097ZM223.367 23.7828C223.338 22.2286 222.777 20.991 221.684 20.07C220.592 19.1202 219.254 18.6453 217.673 18.6453C216.177 18.6453 214.912 19.1058 213.877 20.0268C212.87 20.919 212.252 22.171 212.022 23.7828H223.367Z" fill="black"/>
  <path d="M256.245 25.5097C256.245 26.3731 256.188 27.1502 256.073 27.841H238.602C238.746 29.5679 239.35 30.9206 240.414 31.8992C241.478 32.8777 242.787 33.367 244.34 33.367C246.583 33.367 248.179 32.4028 249.128 30.4745H255.641C254.951 32.777 253.628 34.6766 251.673 36.1732C249.717 37.6411 247.316 38.375 244.469 38.375C242.168 38.375 240.098 37.8713 238.257 36.864C236.445 35.8278 235.022 34.3744 233.987 32.5036C232.98 30.6328 232.477 28.4742 232.477 26.0278C232.477 23.5525 232.98 21.3795 233.987 19.5087C234.993 17.638 236.402 16.1989 238.214 15.1915C240.026 14.1842 242.111 13.6805 244.469 13.6805C246.741 13.6805 248.768 14.1698 250.551 15.1484C252.363 16.1269 253.758 17.5228 254.736 19.3361C255.742 21.1205 256.245 23.1784 256.245 25.5097ZM249.99 23.7828C249.962 22.2286 249.401 20.991 248.308 20.07C247.215 19.1202 245.878 18.6453 244.296 18.6453C242.801 18.6453 241.536 19.1058 240.5 20.0268C239.494 20.919 238.875 22.171 238.645 23.7828H249.99Z" fill="black"/>
  <path d="M267.785 18.9874V30.6615C267.785 31.4674 267.997 31.9999 268.371 32.374C268.774 32.7194 269.435 32.8921 270.356 32.8921H273.16V37.9864H269.364C264.273 37.9864 261.838 35.383 261.838 30.4326V18.9874H258.636V13.9515H261.838V8H267.785V13.9515H273.16V18.9874H267.785Z" fill="black"/>
  <path d="M287.989 38.375C285.689 38.375 283.618 37.8713 281.778 36.864C279.937 35.8278 278.485 34.3744 277.421 32.5036C276.385 30.6328 275.868 28.4742 275.868 26.0278C275.868 23.5813 276.4 21.4227 277.464 19.5519C278.557 17.6811 280.038 16.2421 281.907 15.2347C283.776 14.1986 285.861 13.6805 288.162 13.6805C290.463 13.6805 292.548 14.1986 294.417 15.2347C296.286 16.2421 297.753 17.6811 298.817 19.5519C299.91 21.4227 300.456 23.5813 300.456 26.0278C300.456 28.4742 299.895 30.6328 298.774 32.5036C297.681 34.3744 296.185 35.8278 294.287 36.864C292.418 37.8713 290.319 38.375 287.989 38.375ZM287.989 33.108C289.082 33.108 290.103 32.849 291.052 32.3309C292.03 31.784 292.806 30.9782 293.382 29.9132C293.957 28.8483 294.244 27.5532 294.244 26.0278C294.244 23.754 293.64 22.0127 292.432 20.8039C291.253 19.5663 289.801 18.9475 288.076 18.9475C286.35 18.9475 284.898 19.5663 283.719 20.8039C282.568 22.0127 281.993 23.754 281.993 26.0278C281.993 28.3015 282.554 30.0572 283.676 31.2948C284.826 32.5036 286.264 33.108 287.989 33.108Z" fill="black"/>
  <path d="M200.752 8H189.159L200.752 25.3903V8Z" fill="black"/>
  <path d="M172 38.375L172 8H180.372L200.752 38.375H192.136L178.724 18.666V38.375H172Z" fill="black"/>
  <defs>
  <clipPath id="clip0_318_36052">
  <rect width="128.25" height="128.25" fill="white" transform="translate(7.875 7.875)"/>
  </clipPath>
  </defs>
</svg>
