<svg width="458" height="458" viewBox="0 0 458 458" fill="none" xmlns="http://www.w3.org/2000/svg">
  <rect width="458" height="458" rx="110" fill="black"/>
  <path fill-rule="evenodd" clip-rule="evenodd" d="M270.483 199.559C260.811 199.559 252.971 207.399 252.971 217.07V240.522C252.971 269.536 229.45 293.057 200.436 293.057H169.842C160.17 293.057 152.33 285.216 152.33 275.545C152.33 265.874 160.17 258.033 169.842 258.033H200.436C210.107 258.033 217.947 250.193 217.947 240.522V217.07C217.947 188.056 241.468 164.535 270.483 164.535H320.791C330.462 164.535 338.302 172.375 338.302 182.047C338.302 191.718 330.462 199.559 320.791 199.559H270.483Z" fill="#75DC66"/>
  <path fill-rule="evenodd" clip-rule="evenodd" d="M145.571 275.547C145.571 265.875 153.412 258.035 163.083 258.035H320.791C330.462 258.035 338.302 265.875 338.302 275.547C338.302 285.218 330.462 293.059 320.791 293.059H163.083C153.412 293.059 145.571 285.218 145.571 275.547Z" fill="#5BCC5A"/>
  <path fill-rule="evenodd" clip-rule="evenodd" d="M169.83 293.059C160.164 293.052 152.33 285.214 152.33 275.547C152.33 265.877 160.168 258.037 169.837 258.035H249.981C242.771 278.434 223.321 293.05 200.456 293.059C200.449 293.059 200.442 293.059 200.435 293.059H169.841C169.837 293.059 169.833 293.059 169.83 293.059Z" fill="#0DA84C"/>
  <circle cx="136.191" cy="275.691" r="36.1908" fill="#5BCC5A"/>
  <circle cx="320.934" cy="182.191" r="36.1908" fill="#75DC66"/>
  <circle cx="320.934" cy="275.691" r="36.1908" fill="#5BCC5A"/>
</svg>
