<svg width="356" height="384" viewBox="0 0 356 384" fill="none" xmlns="http://www.w3.org/2000/svg">
  <rect x="0.365234" y="28.126" width="354.915" height="354.915" rx="66.2508" fill="#75DC66"/>
  <path d="M0.365234 94.3768C0.365234 57.7875 30.0267 28.126 66.616 28.126H289.029C325.619 28.126 355.28 57.7875 355.28 94.3768V146.431H0.365234V94.3768Z" fill="#5BCC5A"/>
  <rect x="0.364746" y="146.427" width="118.305" height="118.305" fill="#75DC66"/>
  <path d="M0.364746 264.731H118.67V383.036H66.6156C30.0263 383.036 0.364746 353.375 0.364746 316.786V264.731Z" fill="#75DC66"/>
  <rect x="118.67" y="264.731" width="118.305" height="118.305" fill="#0DA84C"/>
  <rect x="236.975" y="146.427" width="118.305" height="118.305" fill="#0DA84C"/>
  <rect x="118.67" y="146.427" width="118.305" height="118.305" fill="#75DC66"/>
  <path d="M236.975 264.731H355.28V316.786C355.28 353.375 325.618 383.036 289.029 383.036H236.975V264.731Z" fill="#0DA84C"/>
  <rect x="226.329" y="0.913574" width="42.5898" height="69.8" rx="21.2949" fill="#0DA84C"/>
  <rect x="86.7305" y="0.913574" width="42.5898" height="69.8" rx="21.2949" fill="#0DA84C"/>
</svg>
