<svg xmlns="http://www.w3.org/2000/svg" width="414" height="414" fill="none" viewBox="0 0 414 414"><path fill="#5BCC5A" d="M192.904 286.959C179.608 273.663 179.608 252.106 192.904 238.81C206.2 225.514 227.757 225.514 241.053 238.81L350.628 348.385C363.924 361.681 363.924 383.238 350.628 396.534C337.332 409.83 315.775 409.83 302.479 396.534L192.904 286.959Z"/><path fill="#75DC66" d="M337.771 207.917C337.771 212.003 334.459 215.315 330.373 215.315L259.202 215.315L259.201 14.6914C259.201 10.6054 262.514 7.29298 266.6 7.29297L330.373 7.29297C334.459 7.29297 337.771 10.6053 337.771 14.6914L337.771 207.917Z"/><path fill="#75DC66" d="M259.197 215.315L188.026 215.315C183.94 215.315 180.628 212.003 180.628 207.917L180.628 73.8056C180.628 69.7195 183.94 66.4072 188.026 66.4072L259.197 66.4072V215.315Z"/><path fill="#5BCC5A" d="M308.589 215.316C308.589 285.984 251.301 343.272 180.633 343.272C109.965 343.272 52.6768 285.984 52.6768 215.316C52.6768 144.648 109.965 87.3597 180.633 87.3597C251.301 87.3597 308.589 144.648 308.589 215.316Z"/><path fill="#0DA84C" d="M180.631 87.342C180.631 87.342 180.631 87.342 180.631 87.342C210.248 87.342 237.516 97.4044 259.2 114.297C289.255 137.71 308.586 174.244 308.588 215.294H188.114C183.981 215.294 180.631 211.943 180.631 207.811L180.631 87.342Z"/></svg>