<svg width="40" height="40" viewBox="0 0 40 40" fill="none" xmlns="http://www.w3.org/2000/svg">
  <path d="M40 20C40 8.95431 31.0457 0 20 0H0V40H40V20Z" fill="url(#paint0_linear_3193_173)" />
  <g filter="url(#filter0_d_3193_173)">
    <path
      d="M9.11071 22.9446C10.8845 20.3914 11.9278 18.7464 12.6885 17.5308C9.76511 17.7894 6.96296 21.427 6.96296 21.427L8.89257 23.3566C8.94856 23.2139 9.02005 23.0753 9.11071 22.9446Z"
      fill="white" />
    <path
      d="M16.6451 31.1089L18.5735 33.0372C18.5735 33.0372 22.211 30.2352 22.4696 27.3119C21.2543 28.0723 19.6099 29.1153 17.0559 30.8895C16.9267 30.9792 16.7889 31.0524 16.6451 31.1089Z"
      fill="white" />
    <path
      d="M13.7125 30.1119C13.3815 30.2457 13.0561 30.3878 12.7169 30.5011C11.811 30.8039 10.878 31.0085 9.93201 31.1391C9.53549 31.1938 9.1353 31.2402 8.73443 31.2706C8.73825 31.2211 8.74192 31.1716 8.74611 31.1222C8.82883 30.1583 8.97548 29.1994 9.2124 28.2609C9.32656 27.8079 9.47223 27.3676 9.62861 26.9279C9.72585 26.6545 9.8472 26.3929 9.96959 26.1312L9.75744 25.9193C9.28561 26.2362 8.87524 26.6367 8.527 27.0898C8.01146 27.7608 7.62504 28.5209 7.35488 29.3218C7.06465 30.1819 6.89158 31.0928 6.86463 32.0008C6.86082 32.1283 6.85206 32.2587 6.87182 32.3852C6.89727 32.5487 6.96906 32.7035 7.07693 32.8289C7.18368 32.9529 7.32419 33.0465 7.47989 33.0968C7.61059 33.1389 7.74204 33.1397 7.87761 33.1386C8.70195 33.1317 9.53908 32.9885 10.3282 32.7541C11.7713 32.3253 13.2283 31.5186 14.0823 30.2439L13.8758 30.0376C13.8217 30.0631 13.7674 30.088 13.7125 30.1119Z"
      fill="white" />
    <path
      d="M29.766 10.2349C29.766 10.2349 29.7659 10.2349 29.7657 10.2347C29.6156 10.0846 29.412 10.0005 29.2002 10.0005C29.1949 10.0005 29.1896 10.0006 29.1844 10.0007C26.6085 10.0512 20.2533 10.533 16.8783 13.9082C15.3462 15.4403 14.8482 16.2379 13.7568 17.9856C12.9708 19.244 11.8947 20.9676 9.92802 23.7983C9.70711 24.1164 9.74552 24.5471 10.0194 24.8208L15.1792 29.9807C15.334 30.1356 15.5391 30.2152 15.7454 30.2152C15.9041 30.2152 16.0634 30.1682 16.2018 30.0722C19.0335 28.1051 20.7564 27.0292 22.0143 26.2435C23.762 25.1522 24.5597 24.654 26.0921 23.1218C29.4731 19.7406 29.9515 13.3896 30 10.8159C30.0043 10.5986 29.9197 10.3888 29.766 10.2349ZM23.7911 19.9707C22.7523 21.0094 21.0683 21.0094 20.0295 19.9707C18.9905 18.9319 18.9907 17.248 20.0296 16.2093C21.0683 15.1705 22.7523 15.1703 23.7911 16.209C24.8296 17.2478 24.8297 18.9321 23.7911 19.9707Z"
      fill="white" />
  </g>
  <defs>
    <filter id="filter0_d_3193_173" x="6.85938" y="9.71484" width="25.998" height="25.9954"
      filterUnits="userSpaceOnUse" color-interpolation-filters="sRGB">
      <feFlood flood-opacity="0" result="BackgroundImageFix" />
      <feColorMatrix in="SourceAlpha" type="matrix"
        values="0 0 0 0 0 0 0 0 0 0 0 0 0 0 0 0 0 0 127 0" result="hardAlpha" />
      <feOffset dx="1.42857" dy="1.14286" />
      <feGaussianBlur stdDeviation="0.714286" />
      <feComposite in2="hardAlpha" operator="out" />
      <feColorMatrix type="matrix" values="0 0 0 0 0 0 0 0 0 0 0 0 0 0 0 0 0 0 0.05 0" />
      <feBlend mode="normal" in2="BackgroundImageFix" result="effect1_dropShadow_3193_173" />
      <feBlend mode="normal" in="SourceGraphic" in2="effect1_dropShadow_3193_173" result="shape" />
    </filter>
    <linearGradient id="paint0_linear_3193_173" x1="48.1429" y1="59.8571" x2="-6.85714"
      y2="-9.71429" gradientUnits="userSpaceOnUse">
      <stop stop-color="#67BDE2" />
      <stop offset="1" stop-color="#14D1A4" />
    </linearGradient>
  </defs>
</svg>
