<svg width="40" height="40" viewBox="0 0 40 40" fill="none" xmlns="http://www.w3.org/2000/svg">
  <g clip-path="url(#clip0_3083_351)">
    <path d="M40 20C40 8.95431 31.0457 0 20 0H0V40H40V20Z" fill="url(#paint0_linear_3083_351)" />
    <g filter="url(#filter0_d_3083_351)">
      <path
        d="M18.3301 13.1646H22.1782C24.2194 13.1646 26.1769 13.9524 27.6203 15.3548C29.0636 16.7572 29.8744 18.6593 29.8744 20.6426C29.8744 22.626 29.0636 24.528 27.6203 25.9305C26.1769 27.3329 24.2194 28.1207 22.1782 28.1207V31.3924C17.3681 29.5229 10.6339 26.7186 10.6339 20.6426C10.6339 19.6606 10.833 18.6882 11.2197 17.7809C11.6065 16.8736 12.1734 16.0492 12.8881 15.3548C13.6027 14.6604 14.4512 14.1096 15.3849 13.7338C16.3187 13.358 17.3194 13.1646 18.3301 13.1646V13.1646Z"
        fill="white" />
    </g>
  </g>
  <defs>
    <filter id="filter0_d_3083_351" x="8.55116" y="11.9149" width="23.406" height="22.3934"
      filterUnits="userSpaceOnUse" color-interpolation-filters="sRGB">
      <feFlood flood-opacity="0" result="BackgroundImageFix" />
      <feColorMatrix in="SourceAlpha" type="matrix"
        values="0 0 0 0 0 0 0 0 0 0 0 0 0 0 0 0 0 0 127 0" result="hardAlpha" />
      <feOffset dy="0.833102" />
      <feGaussianBlur stdDeviation="1.04138" />
      <feComposite in2="hardAlpha" operator="out" />
      <feColorMatrix type="matrix" values="0 0 0 0 0 0 0 0 0 0 0 0 0 0 0 0 0 0 0.1 0" />
      <feBlend mode="normal" in2="BackgroundImageFix" result="effect1_dropShadow_3083_351" />
      <feBlend mode="normal" in="SourceGraphic" in2="effect1_dropShadow_3083_351" result="shape" />
    </filter>
    <linearGradient id="paint0_linear_3083_351" x1="21.3084" y1="56.0748" x2="21.1215" y2="4.67289"
      gradientUnits="userSpaceOnUse">
      <stop stop-color="#A368DC" />
      <stop offset="1" stop-color="#8886FF" />
    </linearGradient>
    <clipPath id="clip0_3083_351">
      <rect width="40" height="40" fill="white" />
    </clipPath>
  </defs>
</svg>
