<svg xmlns="http://www.w3.org/2000/svg" width="80" height="26" fill="none" viewBox="0 0 80 26"><path stroke="#101828" stroke-linecap="round" stroke-linejoin="round" stroke-width="1.5" d="M39.9995 10.3323V14.3323" data-dark-mode-color="true"/><path stroke="#101828" stroke-linecap="round" stroke-linejoin="round" stroke-width="1.5" d="M38.3625 4.92322L30.2565 18.4572C30.0894 18.7466 30.001 19.0747 30 19.4089C29.9991 19.743 30.0856 20.0716 30.251 20.362C30.4165 20.6523 30.6551 20.8943 30.943 21.0638C31.231 21.2333 31.5584 21.3245 31.8925 21.3282H48.1065C48.4405 21.3244 48.7677 21.2332 49.0555 21.0637C49.3433 20.8942 49.5818 20.6524 49.7472 20.3622C49.9126 20.072 49.9992 19.7436 49.9984 19.4096C49.9976 19.0756 49.9094 18.7476 49.7425 18.4582L41.6365 4.92222C41.466 4.64072 41.2257 4.40796 40.9389 4.24642C40.6522 4.08487 40.3286 4 39.9995 4C39.6704 4 39.3468 4.08487 39.06 4.24642C38.7733 4.40796 38.533 4.64072 38.3625 4.92222V4.92322Z" data-dark-mode-color="true"/><path stroke="#101828" stroke-linecap="round" stroke-linejoin="round" stroke-width="1.5" d="M39.9995 17.3323H40.0095" data-dark-mode-color="true"/></svg>