<svg xmlns="http://www.w3.org/2000/svg" width="80" height="26" fill="none" viewBox="0 0 80 26"><path fill="#101828" d="M23.5938 1.6C23.5938 1.38998 23.5938 1.28497 23.6346 1.20475C23.6706 1.13419 23.7279 1.07683 23.7985 1.04087C23.8787 1 23.9837 1 24.1938 1H56.7438C56.9538 1 57.0588 1 57.139 1.04087C57.2096 1.07683 57.2669 1.13419 57.3029 1.20475C57.3438 1.28497 57.3438 1.38998 57.3438 1.6V2.3125H23.5938V1.6Z" data-dark-mode-color="true"/><circle cx="24.297" cy="1.656" r=".141" fill="#ED6B5D" data-dark-mode-color="true"/><circle cx="24.766" cy="1.656" r=".141" fill="#F4BE50" data-dark-mode-color="true"/><circle cx="25.234" cy="1.656" r=".141" fill="#61C554" data-dark-mode-color="true"/><path fill="#B5B5B5" d="M26.2047 1.65622C26.2047 1.66162 26.2066 1.66637 26.2107 1.67048L26.3801 1.83789C26.3837 1.84178 26.3884 1.84372 26.3939 1.84372C26.4051 1.84372 26.4136 1.83529 26.4136 1.82406C26.4136 1.81845 26.4113 1.81369 26.4078 1.81002L26.2523 1.65622L26.4078 1.50242C26.4113 1.49875 26.4136 1.49378 26.4136 1.48838C26.4136 1.47714 26.4051 1.46872 26.3939 1.46872C26.3884 1.46872 26.3837 1.47066 26.3801 1.47434L26.2107 1.64196C26.2066 1.64585 26.2047 1.65082 26.2047 1.65622Z" data-dark-mode-color="true"/><path fill="#4D4D4D" d="M27.4449 1.65622C27.4449 1.65082 27.4427 1.64585 27.4387 1.64196L27.2695 1.47434C27.2656 1.47066 27.2609 1.46872 27.2554 1.46872C27.2445 1.46872 27.2359 1.47714 27.2359 1.48838C27.2359 1.49378 27.2381 1.49875 27.2415 1.50242L27.397 1.65622L27.2415 1.81002C27.2381 1.81369 27.2359 1.81845 27.2359 1.82406C27.2359 1.83529 27.2445 1.84372 27.2554 1.84372C27.2609 1.84372 27.2656 1.84178 27.2695 1.83789L27.4387 1.67048C27.4427 1.66637 27.4449 1.66162 27.4449 1.65622Z" data-dark-mode-color="true"/><path stroke="#4D4D4D" stroke-width=".023" d="M33.7773 1.62813C33.7773 1.57543 33.7774 1.53661 33.7799 1.50593C33.7824 1.47539 33.7873 1.45395 33.7965 1.43582C33.8134 1.40275 33.8402 1.37586 33.8733 1.359C33.8914 1.34977 33.9129 1.34485 33.9434 1.34236C33.9741 1.33985 34.0129 1.33984 34.0656 1.33984H48.4656C48.5183 1.33984 48.5571 1.33985 48.5878 1.34236C48.6184 1.34485 48.6398 1.34977 48.6579 1.359C48.691 1.37586 48.7179 1.40275 48.7347 1.43582C48.744 1.45395 48.7489 1.47539 48.7514 1.50593C48.7539 1.53661 48.7539 1.57543 48.7539 1.62813V1.68437C48.7539 1.73707 48.7539 1.77589 48.7514 1.80657C48.7489 1.83711 48.744 1.85855 48.7347 1.87668C48.7179 1.90975 48.691 1.93664 48.6579 1.9535C48.6398 1.96273 48.6184 1.96765 48.5878 1.97014C48.5571 1.97265 48.5183 1.97266 48.4656 1.97266H34.0656C34.0129 1.97266 33.9741 1.97265 33.9434 1.97014C33.9129 1.96765 33.8914 1.96273 33.8733 1.9535C33.8402 1.93664 33.8134 1.90975 33.7965 1.87668C33.7873 1.85855 33.7824 1.83711 33.7799 1.80657C33.7774 1.77589 33.7773 1.73707 33.7773 1.68437V1.62813Z" data-dark-mode-color="true"/><path fill="#B5B5B5" d="M37.86 1.79688H37.9897C38.0105 1.79688 38.0216 1.78541 38.0216 1.76276V1.66399C38.0216 1.64134 38.0105 1.63002 37.9897 1.63002H37.86C37.8391 1.63002 37.8281 1.64134 37.8281 1.66399V1.76276C37.8281 1.78541 37.8391 1.79688 37.86 1.79688ZM37.8529 1.64105H37.8754V1.5926C37.8754 1.55648 37.8982 1.53727 37.9247 1.53727C37.9513 1.53727 37.9744 1.55648 37.9744 1.5926V1.64105H37.9968V1.59576C37.9968 1.54186 37.9619 1.51562 37.9247 1.51562C37.8877 1.51562 37.8529 1.54186 37.8529 1.59576V1.64105Z" data-dark-mode-color="true"/><path fill="#F6F7F8" d="M38.4232 1.53958V1.31553H38.449V1.40331H38.4514C38.4555 1.39478 38.4613 1.38818 38.469 1.38352C38.4766 1.37876 38.4863 1.37638 38.4981 1.37638C38.5101 1.37638 38.5203 1.37871 38.5286 1.38337C38.537 1.38793 38.5433 1.39463 38.5477 1.40345C38.552 1.41228 38.5542 1.42304 38.5542 1.43574V1.53958H38.5283V1.44199C38.5283 1.42751 38.5253 1.41679 38.5191 1.40985C38.5131 1.40281 38.5036 1.39929 38.4908 1.39929C38.4823 1.39929 38.4749 1.40112 38.4687 1.40479C38.4624 1.40846 38.4576 1.41367 38.4541 1.42041C38.4507 1.42716 38.449 1.43524 38.449 1.44466V1.53958H38.4232ZM38.6581 1.54077C38.6416 1.54077 38.6297 1.53745 38.6222 1.5308C38.6149 1.52416 38.6112 1.5132 38.6112 1.49792V1.40063H38.5859V1.3792H38.6112V1.3377H38.638V1.3792H38.6731V1.40063H38.638V1.49138C38.638 1.5008 38.6398 1.5076 38.6433 1.51176C38.6469 1.51583 38.6529 1.51786 38.6612 1.51786C38.6635 1.51786 38.6654 1.51781 38.667 1.51771C38.6687 1.51761 38.6707 1.51746 38.6731 1.51727V1.53928C38.6706 1.53968 38.6681 1.54003 38.6657 1.54033C38.6632 1.54062 38.6606 1.54077 38.6581 1.54077ZM38.7688 1.54077C38.7523 1.54077 38.7403 1.53745 38.7329 1.5308C38.7256 1.52416 38.7219 1.5132 38.7219 1.49792V1.40063H38.6966V1.3792H38.7219V1.3377H38.7487V1.3792H38.7838V1.40063H38.7487V1.49138C38.7487 1.5008 38.7505 1.5076 38.754 1.51176C38.7576 1.51583 38.7635 1.51786 38.7719 1.51786C38.7742 1.51786 38.7761 1.51781 38.7777 1.51771C38.7794 1.51761 38.7814 1.51746 38.7838 1.51727V1.53928C38.7813 1.53968 38.7788 1.54003 38.7763 1.54033C38.7739 1.54062 38.7713 1.54077 38.7688 1.54077ZM38.8225 1.59314V1.3792H38.8483V1.40479H38.8507C38.854 1.39884 38.8581 1.39378 38.8631 1.38962C38.868 1.38535 38.8737 1.38208 38.88 1.3798C38.8864 1.37752 38.8933 1.37638 38.9007 1.37638C38.9143 1.37638 38.9261 1.37985 38.9361 1.38679C38.9462 1.39363 38.9541 1.40326 38.9596 1.41565C38.9652 1.42805 38.968 1.44258 38.968 1.45924V1.45954C38.968 1.4763 38.9652 1.49088 38.9596 1.50328C38.9541 1.51568 38.9462 1.5253 38.9361 1.53214C38.9261 1.53899 38.9143 1.54241 38.9007 1.54241C38.8934 1.54241 38.8864 1.54127 38.8799 1.53899C38.8734 1.53661 38.8677 1.53333 38.8626 1.52917C38.8577 1.525 38.8537 1.52004 38.8507 1.51429H38.8483V1.59314H38.8225ZM38.8948 1.5195C38.9046 1.5195 38.913 1.51712 38.9199 1.51236C38.9269 1.5075 38.9322 1.5006 38.9358 1.49168C38.9396 1.48265 38.9415 1.47194 38.9415 1.45954V1.45924C38.9415 1.44675 38.9396 1.43604 38.9358 1.42711C38.9322 1.41818 38.9269 1.41134 38.9199 1.40658C38.913 1.40172 38.9046 1.39929 38.8948 1.39929C38.885 1.39929 38.8767 1.40172 38.8696 1.40658C38.8626 1.41144 38.8572 1.41833 38.8534 1.42726C38.8496 1.43618 38.8478 1.44685 38.8478 1.45924V1.45954C38.8478 1.47184 38.8496 1.4825 38.8534 1.49153C38.8572 1.50045 38.8626 1.50735 38.8696 1.51221C38.8767 1.51707 38.885 1.5195 38.8948 1.5195ZM39.0635 1.54241C39.0516 1.54241 39.0411 1.54062 39.0319 1.53705C39.0228 1.53338 39.0155 1.52827 39.0099 1.52173C39.0045 1.51518 39.0012 1.5075 39.0002 1.49867H39.0267C39.0289 1.50531 39.0332 1.51067 39.0395 1.51474C39.0459 1.5188 39.0542 1.52084 39.0644 1.52084C39.0716 1.52084 39.078 1.51979 39.0834 1.51771C39.089 1.51553 39.0933 1.5126 39.0965 1.50893C39.0997 1.50517 39.1013 1.50085 39.1013 1.49599V1.49569C39.1013 1.49024 39.0991 1.48563 39.0947 1.48186C39.0904 1.47799 39.0832 1.47486 39.0733 1.47248L39.0484 1.46653C39.0384 1.46415 39.0302 1.46108 39.0238 1.45731C39.0173 1.45344 39.0125 1.44873 39.0095 1.44318C39.0064 1.43752 39.0049 1.43088 39.0049 1.42324V1.42309C39.0049 1.41417 39.0074 1.40618 39.0126 1.39914C39.0178 1.3921 39.025 1.38654 39.034 1.38248C39.043 1.37841 39.0532 1.37638 39.0645 1.37638C39.0757 1.37638 39.0856 1.37816 39.0943 1.38173C39.103 1.3852 39.11 1.39016 39.1152 1.39661C39.1206 1.40306 39.1239 1.41064 39.1251 1.41937H39.0996C39.0979 1.41302 39.0941 1.40787 39.088 1.4039C39.082 1.39993 39.0741 1.39795 39.0644 1.39795C39.058 1.39795 39.0524 1.39899 39.0474 1.40107C39.0424 1.40306 39.0385 1.40583 39.0357 1.4094C39.0328 1.41298 39.0313 1.41714 39.0313 1.4219V1.4222C39.0313 1.42577 39.0323 1.42894 39.0342 1.43172C39.036 1.4345 39.039 1.43693 39.0429 1.43901C39.0469 1.44109 39.052 1.44293 39.0583 1.44452L39.083 1.45047C39.098 1.45414 39.1092 1.45939 39.1166 1.46624C39.124 1.47308 39.1277 1.48225 39.1277 1.49376V1.49406C39.1277 1.50358 39.1249 1.51201 39.1193 1.51935C39.1136 1.52659 39.1059 1.53224 39.0962 1.53631C39.0866 1.54037 39.0757 1.54241 39.0635 1.54241ZM39.189 1.54107C39.1838 1.54107 39.1792 1.53918 39.1754 1.53542C39.1716 1.53155 39.1697 1.52699 39.1697 1.52173C39.1697 1.51637 39.1716 1.51181 39.1754 1.50804C39.1792 1.50427 39.1838 1.50239 39.189 1.50239C39.1944 1.50239 39.199 1.50427 39.2027 1.50804C39.2065 1.51181 39.2084 1.51637 39.2084 1.52173C39.2084 1.52699 39.2065 1.53155 39.2027 1.53542C39.199 1.53918 39.1944 1.54107 39.189 1.54107ZM39.189 1.42592C39.1838 1.42592 39.1792 1.42403 39.1754 1.42027C39.1716 1.4164 39.1697 1.41183 39.1697 1.40658C39.1697 1.40122 39.1716 1.39666 39.1754 1.39289C39.1792 1.38912 39.1838 1.38724 39.189 1.38724C39.1944 1.38724 39.199 1.38912 39.2027 1.39289C39.2065 1.39666 39.2084 1.40122 39.2084 1.40658C39.2084 1.41183 39.2065 1.4164 39.2027 1.42027C39.199 1.42403 39.1944 1.42592 39.189 1.42592ZM39.327 1.31553L39.2591 1.59314H39.2343L39.3021 1.31553H39.327ZM39.4198 1.31553L39.3519 1.59314H39.3271L39.3949 1.31553H39.4198ZM39.475 1.53958L39.4301 1.3792H39.4559L39.4875 1.50745H39.4899L39.5257 1.3792H39.5503L39.5861 1.50745H39.5885L39.62 1.3792H39.6458L39.6008 1.53958H39.5748L39.539 1.4155H39.5366L39.5009 1.53958H39.475ZM39.7109 1.53958L39.666 1.3792H39.6919L39.7234 1.50745H39.7258L39.7617 1.3792H39.7862L39.8221 1.50745H39.8244L39.856 1.3792H39.8817L39.8368 1.53958H39.8108L39.7749 1.4155H39.7725L39.7368 1.53958H39.7109ZM39.9469 1.53958L39.902 1.3792H39.9278L39.9594 1.50745H39.9618L39.9976 1.3792H40.0222L40.058 1.50745H40.0604L40.0919 1.3792H40.1177L40.0728 1.53958H40.0467L40.0109 1.4155H40.0085L39.9728 1.53958H39.9469ZM40.1507 1.54107C40.1455 1.54107 40.1409 1.53918 40.137 1.53542C40.1333 1.53155 40.1314 1.52699 40.1314 1.52173C40.1314 1.51637 40.1333 1.51181 40.137 1.50804C40.1409 1.50427 40.1455 1.50239 40.1507 1.50239C40.1561 1.50239 40.1606 1.50427 40.1644 1.50804C40.1682 1.51181 40.17 1.51637 40.17 1.52173C40.17 1.52699 40.1682 1.53155 40.1644 1.53542C40.1606 1.53918 40.1561 1.54107 40.1507 1.54107ZM40.22 1.53958V1.3792H40.2459V1.40331H40.2483C40.2524 1.39478 40.2582 1.38818 40.2659 1.38352C40.2735 1.37876 40.2832 1.37638 40.295 1.37638C40.3131 1.37638 40.3269 1.38153 40.3365 1.39185C40.3462 1.40207 40.3511 1.41669 40.3511 1.43574V1.53958H40.3252V1.44199C40.3252 1.42751 40.3221 1.41679 40.316 1.40985C40.3099 1.40281 40.3005 1.39929 40.2877 1.39929C40.2792 1.39929 40.2718 1.40112 40.2656 1.40479C40.2593 1.40846 40.2545 1.41367 40.251 1.42041C40.2476 1.42716 40.2459 1.43524 40.2459 1.44466V1.53958H40.22ZM40.4634 1.54241C40.4482 1.54241 40.435 1.53904 40.424 1.53229C40.4131 1.52555 40.4047 1.51603 40.3987 1.50373C40.3929 1.49133 40.3899 1.47675 40.3899 1.45999V1.45984C40.3899 1.44328 40.3929 1.42875 40.3987 1.41625C40.4047 1.40375 40.413 1.39398 40.4239 1.38694C40.4347 1.3799 40.4473 1.37638 40.4618 1.37638C40.4764 1.37638 40.4889 1.37975 40.4993 1.38649C40.5098 1.39324 40.5178 1.40266 40.5234 1.41476C40.529 1.42676 40.5319 1.44075 40.5319 1.45671V1.46683H40.4033V1.44615H40.5186L40.5058 1.46505V1.45478C40.5058 1.44218 40.5039 1.43182 40.5002 1.42369C40.4964 1.41555 40.4912 1.4095 40.4846 1.40554C40.4779 1.40147 40.4703 1.39944 40.4616 1.39944C40.453 1.39944 40.4453 1.40157 40.4384 1.40583C40.4317 1.41 40.4263 1.4162 40.4224 1.42443C40.4184 1.43266 40.4164 1.44278 40.4164 1.45478V1.46505C40.4164 1.47645 40.4184 1.48622 40.4222 1.49435C40.4261 1.50239 40.4316 1.50859 40.4387 1.51295C40.4459 1.51722 40.4543 1.51935 40.464 1.51935C40.4713 1.51935 40.4776 1.51836 40.4829 1.51637C40.4883 1.51439 40.4927 1.51186 40.4962 1.50879C40.4996 1.50571 40.5021 1.50259 40.5034 1.49941L40.504 1.49807H40.5299L40.5296 1.49926C40.5282 1.50472 40.5258 1.51003 40.5222 1.51518C40.5187 1.52024 40.5142 1.52485 40.5087 1.52902C40.5031 1.53308 40.4965 1.53636 40.4889 1.53884C40.4813 1.54122 40.4729 1.54241 40.4634 1.54241ZM40.6375 1.54241C40.6222 1.54241 40.6091 1.53904 40.5981 1.53229C40.5872 1.52555 40.5787 1.51603 40.5728 1.50373C40.5669 1.49133 40.564 1.47675 40.564 1.45999V1.45984C40.564 1.44328 40.5669 1.42875 40.5728 1.41625C40.5787 1.40375 40.5871 1.39398 40.5979 1.38694C40.6087 1.3799 40.6214 1.37638 40.6359 1.37638C40.6504 1.37638 40.6629 1.37975 40.6733 1.38649C40.6839 1.39324 40.6919 1.40266 40.6974 1.41476C40.7031 1.42676 40.7059 1.44075 40.7059 1.45671V1.46683H40.5774V1.44615H40.6927L40.6799 1.46505V1.45478C40.6799 1.44218 40.678 1.43182 40.6742 1.42369C40.6705 1.41555 40.6653 1.4095 40.6586 1.40554C40.652 1.40147 40.6443 1.39944 40.6357 1.39944C40.6271 1.39944 40.6193 1.40157 40.6125 1.40583C40.6058 1.41 40.6004 1.4162 40.5964 1.42443C40.5925 1.43266 40.5905 1.44278 40.5905 1.45478V1.46505C40.5905 1.47645 40.5924 1.48622 40.5963 1.49435C40.6002 1.50239 40.6057 1.50859 40.6128 1.51295C40.6199 1.51722 40.6284 1.51935 40.6381 1.51935C40.6453 1.51935 40.6516 1.51836 40.657 1.51637C40.6623 1.51439 40.6668 1.51186 40.6702 1.50879C40.6737 1.50571 40.6761 1.50259 40.6775 1.49941L40.6781 1.49807H40.704L40.7037 1.49926C40.7023 1.50472 40.6998 1.51003 40.6963 1.51518C40.6928 1.52024 40.6883 1.52485 40.6827 1.52902C40.6772 1.53308 40.6706 1.53636 40.6629 1.53884C40.6554 1.54122 40.6469 1.54241 40.6375 1.54241ZM40.8031 1.54077C40.7866 1.54077 40.7747 1.53745 40.7672 1.5308C40.7599 1.52416 40.7562 1.5132 40.7562 1.49792V1.40063H40.7309V1.3792H40.7562V1.3377H40.783V1.3792H40.8181V1.40063H40.783V1.49138C40.783 1.5008 40.7848 1.5076 40.7884 1.51176C40.7919 1.51583 40.7979 1.51786 40.8062 1.51786C40.8085 1.51786 40.8104 1.51781 40.812 1.51771C40.8137 1.51761 40.8157 1.51746 40.8181 1.51727V1.53928C40.8156 1.53968 40.8131 1.54003 40.8107 1.54033C40.8082 1.54062 40.8057 1.54077 40.8031 1.54077ZM40.9206 1.54241C40.9054 1.54241 40.8923 1.53909 40.8812 1.53244C40.8702 1.5257 40.8616 1.51612 40.8556 1.50373C40.8496 1.49133 40.8467 1.4766 40.8467 1.45954V1.45924C40.8467 1.44209 40.8496 1.42731 40.8556 1.41491C40.8616 1.40251 40.8702 1.39299 40.8812 1.38634C40.8923 1.3797 40.9054 1.37638 40.9206 1.37638C40.9359 1.37638 40.949 1.3797 40.96 1.38634C40.971 1.39299 40.9795 1.40251 40.9855 1.41491C40.9915 1.42731 40.9945 1.44209 40.9945 1.45924V1.45954C40.9945 1.4766 40.9915 1.49133 40.9855 1.50373C40.9795 1.51612 40.971 1.5257 40.96 1.53244C40.949 1.53909 40.9359 1.54241 40.9206 1.54241ZM40.9206 1.5195C40.9307 1.5195 40.9393 1.51712 40.9463 1.51236C40.9534 1.5076 40.9587 1.50075 40.9624 1.49183C40.9662 1.4829 40.9681 1.47214 40.9681 1.45954V1.45924C40.9681 1.44655 40.9662 1.43574 40.9624 1.42681C40.9587 1.41788 40.9534 1.41109 40.9463 1.40643C40.9393 1.40167 40.9307 1.39929 40.9206 1.39929C40.9105 1.39929 40.9019 1.40167 40.8949 1.40643C40.8878 1.41109 40.8824 1.41788 40.8787 1.42681C40.875 1.43574 40.8732 1.44655 40.8732 1.45924V1.45954C40.8732 1.47214 40.875 1.4829 40.8787 1.49183C40.8824 1.50075 40.8878 1.5076 40.8949 1.51236C40.9019 1.51712 40.9105 1.5195 40.9206 1.5195ZM41.0529 1.54107C41.0476 1.54107 41.043 1.53918 41.0392 1.53542C41.0354 1.53155 41.0335 1.52699 41.0335 1.52173C41.0335 1.51637 41.0354 1.51181 41.0392 1.50804C41.043 1.50427 41.0476 1.50239 41.0529 1.50239C41.0582 1.50239 41.0628 1.50427 41.0666 1.50804C41.0703 1.51181 41.0722 1.51637 41.0722 1.52173C41.0722 1.52699 41.0703 1.53155 41.0666 1.53542C41.0628 1.53918 41.0582 1.54107 41.0529 1.54107ZM41.1819 1.54241C41.1669 1.54241 41.1539 1.53899 41.1429 1.53214C41.1319 1.5253 41.1233 1.51563 41.1173 1.50313C41.1112 1.49063 41.1082 1.47591 41.1082 1.45895V1.45865C41.1082 1.44199 41.1112 1.42751 41.1171 1.41521C41.1232 1.40291 41.1317 1.39339 41.1427 1.38664C41.1537 1.3798 41.1667 1.37638 41.1817 1.37638C41.1947 1.37638 41.2059 1.37866 41.2153 1.38322C41.2248 1.38778 41.2323 1.39393 41.2379 1.40167C41.2436 1.40931 41.2472 1.41788 41.2488 1.42741L41.249 1.4283H41.2232L41.2231 1.42785C41.2211 1.41992 41.2166 1.41317 41.2095 1.40762C41.2025 1.40207 41.1932 1.39929 41.1817 1.39929C41.1721 1.39929 41.1638 1.40172 41.1567 1.40658C41.1497 1.41144 41.1442 1.41833 41.1403 1.42726C41.1366 1.43608 41.1347 1.44655 41.1347 1.45865V1.45895C41.1347 1.47124 41.1366 1.48196 41.1405 1.49108C41.1444 1.50011 41.1498 1.5071 41.1569 1.51206C41.1639 1.51702 41.1722 1.5195 41.1817 1.5195C41.1925 1.5195 41.2013 1.51717 41.2082 1.5125C41.215 1.50784 41.2199 1.50105 41.2229 1.49212L41.2232 1.49123L41.2488 1.49108L41.2485 1.49272C41.2463 1.50234 41.2425 1.51092 41.2369 1.51846C41.2313 1.52589 41.224 1.53175 41.2149 1.53601C41.2058 1.54028 41.1947 1.54241 41.1819 1.54241ZM41.3526 1.54241C41.3375 1.54241 41.3243 1.53909 41.3132 1.53244C41.3022 1.5257 41.2937 1.51612 41.2876 1.50373C41.2817 1.49133 41.2787 1.4766 41.2787 1.45954V1.45924C41.2787 1.44209 41.2817 1.42731 41.2876 1.41491C41.2937 1.40251 41.3022 1.39299 41.3132 1.38634C41.3243 1.3797 41.3375 1.37638 41.3526 1.37638C41.3679 1.37638 41.3811 1.3797 41.3921 1.38634C41.4031 1.39299 41.4116 1.40251 41.4175 1.41491C41.4236 1.42731 41.4266 1.44209 41.4266 1.45924V1.45954C41.4266 1.4766 41.4236 1.49133 41.4175 1.50373C41.4116 1.51612 41.4031 1.5257 41.3921 1.53244C41.3811 1.53909 41.3679 1.54241 41.3526 1.54241ZM41.3526 1.5195C41.3628 1.5195 41.3713 1.51712 41.3784 1.51236C41.3854 1.5076 41.3908 1.50075 41.3945 1.49183C41.3982 1.4829 41.4001 1.47214 41.4001 1.45954V1.45924C41.4001 1.44655 41.3982 1.43574 41.3945 1.42681C41.3908 1.41788 41.3854 1.41109 41.3784 1.40643C41.3713 1.40167 41.3628 1.39929 41.3526 1.39929C41.3425 1.39929 41.334 1.40167 41.3269 1.40643C41.3199 1.41109 41.3145 1.41788 41.3107 1.42681C41.307 1.43574 41.3052 1.44655 41.3052 1.45924V1.45954C41.3052 1.47214 41.307 1.4829 41.3107 1.49183C41.3145 1.50075 41.3199 1.5076 41.3269 1.51236C41.334 1.51712 41.3425 1.5195 41.3526 1.5195ZM41.4668 1.53958V1.3792H41.4926V1.4036H41.495C41.4986 1.39497 41.504 1.38828 41.5114 1.38352C41.5188 1.37876 41.5278 1.37638 41.5383 1.37638C41.5456 1.37638 41.5521 1.37757 41.5578 1.37995C41.5636 1.38233 41.5685 1.38565 41.5727 1.38992C41.5768 1.39408 41.5802 1.39894 41.5827 1.4045H41.585C41.5879 1.39884 41.5918 1.39393 41.5966 1.38977C41.6015 1.3855 41.6071 1.38223 41.6134 1.37995C41.6199 1.37757 41.6268 1.37638 41.6341 1.37638C41.645 1.37638 41.6543 1.37841 41.6618 1.38248C41.6694 1.38654 41.6752 1.39249 41.6792 1.40033C41.6832 1.40807 41.6852 1.41754 41.6852 1.42875V1.53958H41.6593V1.4347C41.6593 1.42676 41.658 1.42022 41.6555 1.41506C41.6532 1.4098 41.6495 1.40588 41.6445 1.40331C41.6396 1.40063 41.6333 1.39929 41.6258 1.39929C41.6184 1.39929 41.6119 1.40097 41.6063 1.40435C41.6008 1.40772 41.5964 1.41223 41.5934 1.41788C41.5903 1.42344 41.5887 1.42964 41.5887 1.43648V1.53958H41.5629V1.43068C41.5629 1.42433 41.5615 1.41883 41.5587 1.41417C41.556 1.4094 41.5522 1.40574 41.5471 1.40316C41.5421 1.40058 41.5363 1.39929 41.5295 1.39929C41.5226 1.39929 41.5163 1.40112 41.5106 1.40479C41.5051 1.40846 41.5007 1.41342 41.4974 1.41967C41.4942 1.42582 41.4926 1.43266 41.4926 1.4402V1.53958H41.4668ZM41.8005 1.31553L41.7326 1.59314H41.7078L41.7756 1.31553H41.8005ZM41.8247 1.53958V1.3792H41.8506V1.40331H41.853C41.857 1.39478 41.8629 1.38818 41.8705 1.38352C41.8782 1.37876 41.8879 1.37638 41.8997 1.37638C41.9177 1.37638 41.9316 1.38153 41.9412 1.39185C41.9509 1.40207 41.9558 1.41669 41.9558 1.43574V1.53958H41.9299V1.44199C41.9299 1.42751 41.9268 1.41679 41.9207 1.40985C41.9146 1.40281 41.9052 1.39929 41.8924 1.39929C41.8839 1.39929 41.8765 1.40112 41.8702 1.40479C41.864 1.40846 41.8591 1.41367 41.8556 1.42041C41.8523 1.42716 41.8506 1.43524 41.8506 1.44466V1.53958H41.8247ZM42.0681 1.54241C42.0528 1.54241 42.0397 1.53904 42.0287 1.53229C42.0178 1.52555 42.0093 1.51603 42.0034 1.50373C41.9975 1.49133 41.9946 1.47675 41.9946 1.45999V1.45984C41.9946 1.44328 41.9975 1.42875 42.0034 1.41625C42.0093 1.40375 42.0177 1.39398 42.0285 1.38694C42.0393 1.3799 42.052 1.37638 42.0665 1.37638C42.081 1.37638 42.0935 1.37975 42.104 1.38649C42.1145 1.39324 42.1225 1.40266 42.1281 1.41476C42.1337 1.42676 42.1365 1.44075 42.1365 1.45671V1.46683H42.008V1.44615H42.1233L42.1105 1.46505V1.45478C42.1105 1.44218 42.1086 1.43182 42.1048 1.42369C42.1011 1.41555 42.0959 1.4095 42.0892 1.40554C42.0826 1.40147 42.0749 1.39944 42.0663 1.39944C42.0577 1.39944 42.0499 1.40157 42.0431 1.40583C42.0364 1.41 42.031 1.4162 42.027 1.42443C42.0231 1.43266 42.0211 1.44278 42.0211 1.45478V1.46505C42.0211 1.47645 42.023 1.48622 42.0269 1.49435C42.0308 1.50239 42.0363 1.50859 42.0434 1.51295C42.0505 1.51722 42.059 1.51935 42.0687 1.51935C42.0759 1.51935 42.0822 1.51836 42.0876 1.51637C42.0929 1.51439 42.0974 1.51186 42.1008 1.50879C42.1043 1.50571 42.1067 1.50259 42.1081 1.49941L42.1087 1.49807H42.1346L42.1343 1.49926C42.1329 1.50472 42.1304 1.51003 42.1269 1.51518C42.1234 1.52024 42.1189 1.52485 42.1133 1.52902C42.1078 1.53308 42.1012 1.53636 42.0935 1.53884C42.086 1.54122 42.0775 1.54241 42.0681 1.54241ZM42.2422 1.54241C42.2269 1.54241 42.2137 1.53904 42.2027 1.53229C42.1918 1.52555 42.1834 1.51603 42.1774 1.50373C42.1716 1.49133 42.1687 1.47675 42.1687 1.45999V1.45984C42.1687 1.44328 42.1716 1.42875 42.1774 1.41625C42.1834 1.40375 42.1918 1.39398 42.2026 1.38694C42.2134 1.3799 42.226 1.37638 42.2405 1.37638C42.2551 1.37638 42.2676 1.37975 42.278 1.38649C42.2885 1.39324 42.2966 1.40266 42.3021 1.41476C42.3078 1.42676 42.3106 1.44075 42.3106 1.45671V1.46683H42.1821V1.44615H42.2974L42.2846 1.46505V1.45478C42.2846 1.44218 42.2827 1.43182 42.2789 1.42369C42.2751 1.41555 42.2699 1.4095 42.2633 1.40554C42.2566 1.40147 42.249 1.39944 42.2404 1.39944C42.2317 1.39944 42.224 1.40157 42.2172 1.40583C42.2104 1.41 42.2051 1.4162 42.2011 1.42443C42.1971 1.43266 42.1951 1.44278 42.1951 1.45478V1.46505C42.1951 1.47645 42.1971 1.48622 42.201 1.49435C42.2048 1.50239 42.2103 1.50859 42.2175 1.51295C42.2246 1.51722 42.233 1.51935 42.2428 1.51935C42.25 1.51935 42.2563 1.51836 42.2617 1.51637C42.267 1.51439 42.2714 1.51186 42.2749 1.50879C42.2784 1.50571 42.2808 1.50259 42.2822 1.49941L42.2828 1.49807H42.3087L42.3084 1.49926C42.307 1.50472 42.3045 1.51003 42.3009 1.51518C42.2975 1.52024 42.2929 1.52485 42.2874 1.52902C42.2818 1.53308 42.2752 1.53636 42.2676 1.53884C42.2601 1.54122 42.2516 1.54241 42.2422 1.54241ZM42.4077 1.54077C42.3913 1.54077 42.3793 1.53745 42.3719 1.5308C42.3646 1.52416 42.3609 1.5132 42.3609 1.49792V1.40063H42.3356V1.3792H42.3609V1.3377H42.3877V1.3792H42.4228V1.40063H42.3877V1.49138C42.3877 1.5008 42.3894 1.5076 42.393 1.51176C42.3966 1.51583 42.4025 1.51786 42.4109 1.51786C42.4132 1.51786 42.4151 1.51781 42.4167 1.51771C42.4184 1.51761 42.4204 1.51746 42.4228 1.51727V1.53928C42.4203 1.53968 42.4178 1.54003 42.4153 1.54033C42.4129 1.54062 42.4103 1.54077 42.4077 1.54077ZM42.5253 1.54241C42.5101 1.54241 42.497 1.53909 42.4859 1.53244C42.4748 1.5257 42.4663 1.51612 42.4603 1.50373C42.4543 1.49133 42.4513 1.4766 42.4513 1.45954V1.45924C42.4513 1.44209 42.4543 1.42731 42.4603 1.41491C42.4663 1.40251 42.4748 1.39299 42.4859 1.38634C42.497 1.3797 42.5101 1.37638 42.5253 1.37638C42.5406 1.37638 42.5537 1.3797 42.5647 1.38634C42.5757 1.39299 42.5842 1.40251 42.5901 1.41491C42.5962 1.42731 42.5992 1.44209 42.5992 1.45924V1.45954C42.5992 1.4766 42.5962 1.49133 42.5901 1.50373C42.5842 1.51612 42.5757 1.5257 42.5647 1.53244C42.5537 1.53909 42.5406 1.54241 42.5253 1.54241ZM42.5253 1.5195C42.5354 1.5195 42.544 1.51712 42.551 1.51236C42.5581 1.5076 42.5634 1.50075 42.5671 1.49183C42.5709 1.4829 42.5727 1.47214 42.5727 1.45954V1.45924C42.5727 1.44655 42.5709 1.43574 42.5671 1.42681C42.5634 1.41788 42.5581 1.41109 42.551 1.40643C42.544 1.40167 42.5354 1.39929 42.5253 1.39929C42.5152 1.39929 42.5066 1.40167 42.4995 1.40643C42.4925 1.41109 42.4871 1.41788 42.4833 1.42681C42.4797 1.43574 42.4778 1.44655 42.4778 1.45924V1.45954C42.4778 1.47214 42.4797 1.4829 42.4833 1.49183C42.4871 1.50075 42.4925 1.5076 42.4995 1.51236C42.5066 1.51712 42.5152 1.5195 42.5253 1.5195ZM42.6644 1.53958L42.6195 1.3792H42.6453L42.6769 1.50745H42.6793L42.7151 1.3792H42.7397L42.7755 1.50745H42.7779L42.8094 1.3792H42.8352L42.7902 1.53958H42.7642L42.7284 1.4155H42.726L42.6903 1.53958H42.6644ZM42.87 1.53958V1.3792H42.8959V1.53958H42.87ZM42.8831 1.34826C42.8782 1.34826 42.874 1.34652 42.8704 1.34305C42.867 1.33948 42.8652 1.33527 42.8652 1.33041C42.8652 1.32545 42.867 1.32123 42.8704 1.31776C42.874 1.31429 42.8782 1.31255 42.8831 1.31255C42.888 1.31255 42.8923 1.31429 42.8957 1.31776C42.8992 1.32123 42.9009 1.32545 42.9009 1.33041C42.9009 1.33527 42.8992 1.33948 42.8957 1.34305C42.8923 1.34652 42.888 1.34826 42.8831 1.34826ZM42.9447 1.53958V1.3792H42.9706V1.40301H42.9729C42.976 1.39458 42.9812 1.38803 42.9886 1.38337C42.9959 1.37871 43.005 1.37638 43.0158 1.37638C43.0183 1.37638 43.0207 1.37653 43.0231 1.37682C43.0256 1.37702 43.0274 1.37722 43.0287 1.37742V1.40256C43.026 1.40207 43.0234 1.40172 43.0208 1.40152C43.0184 1.40122 43.0157 1.40107 43.0128 1.40107C43.0046 1.40107 42.9973 1.40271 42.9909 1.40598C42.9846 1.40926 42.9796 1.41382 42.9759 1.41967C42.9723 1.42552 42.9706 1.43237 42.9706 1.4402V1.53958H42.9447ZM43.1217 1.54241C43.1064 1.54241 43.0933 1.53904 43.0823 1.53229C43.0714 1.52555 43.0629 1.51603 43.057 1.50373C43.0511 1.49133 43.0482 1.47675 43.0482 1.45999V1.45984C43.0482 1.44328 43.0511 1.42875 43.057 1.41625C43.0629 1.40375 43.0713 1.39398 43.0821 1.38694C43.0929 1.3799 43.1056 1.37638 43.1201 1.37638C43.1347 1.37638 43.1471 1.37975 43.1576 1.38649C43.1681 1.39324 43.1761 1.40266 43.1817 1.41476C43.1873 1.42676 43.1901 1.44075 43.1901 1.45671V1.46683H43.0616V1.44615H43.1769L43.1641 1.46505V1.45478C43.1641 1.44218 43.1622 1.43182 43.1585 1.42369C43.1547 1.41555 43.1495 1.4095 43.1428 1.40554C43.1362 1.40147 43.1286 1.39944 43.1199 1.39944C43.1113 1.39944 43.1036 1.40157 43.0967 1.40583C43.09 1.41 43.0846 1.4162 43.0806 1.42443C43.0767 1.43266 43.0747 1.44278 43.0747 1.45478V1.46505C43.0747 1.47645 43.0766 1.48622 43.0805 1.49435C43.0844 1.50239 43.0899 1.50859 43.097 1.51295C43.1042 1.51722 43.1126 1.51935 43.1223 1.51935C43.1295 1.51935 43.1358 1.51836 43.1412 1.51637C43.1466 1.51439 43.151 1.51186 43.1544 1.50879C43.1579 1.50571 43.1603 1.50259 43.1617 1.49941L43.1623 1.49807H43.1882L43.1879 1.49926C43.1865 1.50472 43.184 1.51003 43.1805 1.51518C43.177 1.52024 43.1725 1.52485 43.1669 1.52902C43.1614 1.53308 43.1548 1.53636 43.1471 1.53884C43.1396 1.54122 43.1311 1.54241 43.1217 1.54241ZM43.241 1.53958V1.40063H43.2144V1.3792H43.241V1.36135C43.241 1.35064 43.2428 1.34181 43.2462 1.33487C43.2498 1.32783 43.2551 1.32262 43.262 1.31925C43.2689 1.31578 43.2775 1.31404 43.2876 1.31404C43.2908 1.31404 43.2937 1.31419 43.2965 1.31449C43.2994 1.31469 43.3022 1.31503 43.3048 1.31553V1.33621C43.3033 1.33591 43.3014 1.33571 43.2993 1.33561C43.2973 1.33551 43.2951 1.33546 43.2928 1.33546C43.2836 1.33546 43.2769 1.3377 43.2729 1.34216C43.2689 1.34662 43.2669 1.35327 43.2669 1.36209V1.3792H43.3034V1.40063H43.2669V1.53958H43.241ZM43.3407 1.53958V1.3792H43.3666V1.40301H43.369C43.372 1.39458 43.3773 1.38803 43.3846 1.38337C43.3919 1.37871 43.401 1.37638 43.4118 1.37638C43.4143 1.37638 43.4167 1.37653 43.4191 1.37682C43.4216 1.37702 43.4235 1.37722 43.4248 1.37742V1.40256C43.4221 1.40207 43.4195 1.40172 43.4169 1.40152C43.4144 1.40122 43.4117 1.40107 43.4088 1.40107C43.4006 1.40107 43.3933 1.40271 43.387 1.40598C43.3806 1.40926 43.3756 1.41382 43.3719 1.41967C43.3684 1.42552 43.3666 1.43237 43.3666 1.4402V1.53958H43.3407ZM43.5008 1.54241C43.4907 1.54241 43.4815 1.54047 43.4734 1.53661C43.4654 1.53274 43.459 1.52723 43.4542 1.52009C43.4496 1.51295 43.4472 1.50452 43.4472 1.4948V1.4945C43.4472 1.48498 43.4495 1.47685 43.4541 1.4701C43.4586 1.46326 43.4653 1.4579 43.474 1.45404C43.4827 1.45017 43.4933 1.44789 43.5057 1.44719L43.5646 1.44362V1.4643L43.5088 1.46787C43.4966 1.46857 43.4877 1.4711 43.482 1.47546C43.4765 1.47982 43.4737 1.48597 43.4737 1.49391V1.49421C43.4737 1.50234 43.4768 1.50869 43.4829 1.51325C43.4891 1.51771 43.4968 1.51994 43.5061 1.51994C43.515 1.51994 43.5228 1.51821 43.5296 1.51474C43.5365 1.51117 43.5418 1.50636 43.5457 1.50031C43.5497 1.49426 43.5517 1.48741 43.5517 1.47977V1.42979C43.5517 1.41987 43.5486 1.41233 43.5426 1.40717C43.5366 1.40192 43.5277 1.39929 43.5157 1.39929C43.506 1.39929 43.4982 1.40102 43.492 1.4045C43.4859 1.40787 43.4817 1.41268 43.4797 1.41893L43.4795 1.41937H43.4536L43.4538 1.41848C43.4552 1.41005 43.4586 1.40271 43.4642 1.39646C43.4698 1.39011 43.4771 1.3852 43.4861 1.38173C43.495 1.37816 43.5051 1.37638 43.5166 1.37638C43.5296 1.37638 43.5407 1.37851 43.5497 1.38277C43.5589 1.38704 43.5657 1.39319 43.5704 1.40122C43.5752 1.40916 43.5775 1.41868 43.5775 1.42979V1.53958H43.5517V1.51593H43.5493C43.5459 1.52158 43.5418 1.52639 43.5369 1.53036C43.5322 1.53432 43.5268 1.53735 43.5207 1.53943C43.5147 1.54142 43.508 1.54241 43.5008 1.54241ZM43.6249 1.53958V1.3792H43.6507V1.4036H43.6531C43.6567 1.39497 43.6622 1.38828 43.6695 1.38352C43.6769 1.37876 43.6859 1.37638 43.6964 1.37638C43.7037 1.37638 43.7102 1.37757 43.7159 1.37995C43.7217 1.38233 43.7266 1.38565 43.7308 1.38992C43.735 1.39408 43.7383 1.39894 43.7408 1.4045H43.7431C43.746 1.39884 43.7499 1.39393 43.7547 1.38977C43.7596 1.3855 43.7652 1.38223 43.7716 1.37995C43.778 1.37757 43.7849 1.37638 43.7922 1.37638C43.8031 1.37638 43.8124 1.37841 43.8199 1.38248C43.8275 1.38654 43.8333 1.39249 43.8373 1.40033C43.8413 1.40807 43.8433 1.41754 43.8433 1.42875V1.53958H43.8174V1.4347C43.8174 1.42676 43.8161 1.42022 43.8137 1.41506C43.8113 1.4098 43.8076 1.40588 43.8026 1.40331C43.7977 1.40063 43.7914 1.39929 43.7839 1.39929C43.7765 1.39929 43.77 1.40097 43.7644 1.40435C43.7589 1.40772 43.7545 1.41223 43.7515 1.41788C43.7484 1.42344 43.7469 1.42964 43.7469 1.43648V1.53958H43.721V1.43068C43.721 1.42433 43.7196 1.41883 43.7168 1.41417C43.7141 1.4094 43.7103 1.40574 43.7052 1.40316C43.7002 1.40058 43.6944 1.39929 43.6876 1.39929C43.6807 1.39929 43.6744 1.40112 43.6687 1.40479C43.6632 1.40846 43.6588 1.41342 43.6555 1.41967C43.6523 1.42582 43.6507 1.43266 43.6507 1.4402V1.53958H43.6249ZM43.9554 1.54241C43.9402 1.54241 43.927 1.53904 43.916 1.53229C43.9051 1.52555 43.8967 1.51603 43.8907 1.50373C43.8849 1.49133 43.8819 1.47675 43.8819 1.45999V1.45984C43.8819 1.44328 43.8849 1.42875 43.8907 1.41625C43.8967 1.40375 43.905 1.39398 43.9159 1.38694C43.9267 1.3799 43.9393 1.37638 43.9538 1.37638C43.9684 1.37638 43.9809 1.37975 43.9913 1.38649C44.0018 1.39324 44.0098 1.40266 44.0154 1.41476C44.021 1.42676 44.0239 1.44075 44.0239 1.45671V1.46683H43.8953V1.44615H44.0106L43.9978 1.46505V1.45478C43.9978 1.44218 43.9959 1.43182 43.9922 1.42369C43.9884 1.41555 43.9832 1.4095 43.9766 1.40554C43.9699 1.40147 43.9623 1.39944 43.9536 1.39944C43.945 1.39944 43.9373 1.40157 43.9304 1.40583C43.9237 1.41 43.9183 1.4162 43.9144 1.42443C43.9104 1.43266 43.9084 1.44278 43.9084 1.45478V1.46505C43.9084 1.47645 43.9104 1.48622 43.9142 1.49435C43.9181 1.50239 43.9236 1.50859 43.9307 1.51295C43.9379 1.51722 43.9463 1.51935 43.956 1.51935C43.9633 1.51935 43.9696 1.51836 43.9749 1.51637C43.9803 1.51439 43.9847 1.51186 43.9882 1.50879C43.9916 1.50571 43.9941 1.50259 43.9955 1.49941L43.996 1.49807H44.0219L44.0216 1.49926C44.0202 1.50472 44.0178 1.51003 44.0142 1.51518C44.0107 1.52024 44.0062 1.52485 44.0007 1.52902C43.9951 1.53308 43.9885 1.53636 43.9809 1.53884C43.9733 1.54122 43.9649 1.54241 43.9554 1.54241Z" data-dark-mode-color="true"/><path fill="#B5B5B5" d="M48.1809 1.68127C48.1809 1.74541 48.2318 1.79688 48.2951 1.79688C48.3584 1.79688 48.4091 1.74541 48.4091 1.68127C48.4091 1.675 48.4047 1.67042 48.3984 1.67042C48.3923 1.67042 48.3883 1.675 48.3883 1.68127C48.3883 1.73378 48.3469 1.77584 48.2951 1.77584C48.2433 1.77584 48.2017 1.73378 48.2017 1.68127C48.2017 1.62888 48.2433 1.58695 48.2951 1.58695C48.3049 1.58695 48.314 1.58773 48.3217 1.58956L48.283 1.62823C48.2811 1.63032 48.2801 1.63293 48.2801 1.63568C48.2801 1.64168 48.2845 1.64613 48.2903 1.64613C48.2935 1.64613 48.296 1.64508 48.2978 1.64312L48.351 1.58904C48.3533 1.58682 48.3542 1.58421 48.3542 1.5812C48.3542 1.57833 48.3531 1.57545 48.351 1.57336L48.2978 1.51876C48.296 1.51667 48.2934 1.51562 48.2903 1.51562C48.2845 1.51562 48.2801 1.52033 48.2801 1.52634C48.2801 1.52908 48.2811 1.53169 48.2829 1.53378L48.3173 1.56814C48.3106 1.56683 48.3029 1.56592 48.2951 1.56592C48.2318 1.56592 48.1809 1.61726 48.1809 1.68127Z" data-dark-mode-color="true"/><path fill="#B5B5B5" d="M55.1896 1.71365C55.1967 1.71365 55.2029 1.70767 55.2029 1.7007V1.53006L55.2019 1.50514L55.213 1.51693L55.2382 1.54385C55.2406 1.54651 55.2439 1.54784 55.2472 1.54784C55.254 1.54784 55.2593 1.54285 55.2593 1.53604C55.2593 1.53255 55.2579 1.52989 55.2554 1.5274L55.1992 1.47324C55.1959 1.46991 55.1931 1.46875 55.1896 1.46875C55.1862 1.46875 55.1834 1.46991 55.1799 1.47324L55.1238 1.5274C55.1213 1.52989 55.1199 1.53255 55.1199 1.53604C55.1199 1.54285 55.1249 1.54784 55.1319 1.54784C55.1351 1.54784 55.1387 1.54651 55.141 1.54385L55.1661 1.51693L55.1774 1.50514L55.1764 1.53006V1.7007C55.1764 1.70767 55.1824 1.71365 55.1896 1.71365ZM55.0944 1.84375H55.2849C55.3197 1.84375 55.3371 1.82647 55.3371 1.79224V1.62643C55.3371 1.5922 55.3197 1.57492 55.2849 1.57492H55.2386V1.60167H55.2844C55.3009 1.60167 55.3104 1.61064 55.3104 1.62792V1.79075C55.3104 1.80803 55.3009 1.817 55.2844 1.817H55.0947C55.0781 1.817 55.0689 1.80803 55.0689 1.79075V1.62792C55.0689 1.61064 55.0781 1.60167 55.0947 1.60167H55.1407V1.57492H55.0944C55.0596 1.57492 55.0422 1.5922 55.0422 1.62643V1.79224C55.0422 1.82647 55.0596 1.84375 55.0944 1.84375Z" data-dark-mode-color="true"/><path fill="#B5B5B5" d="M56.2188 1.65625C56.2188 1.66739 56.2281 1.67648 56.239 1.67648H56.386V1.82352C56.386 1.83443 56.3951 1.84375 56.4063 1.84375C56.4174 1.84375 56.4267 1.83443 56.4267 1.82352V1.67648H56.5735C56.5844 1.67648 56.5938 1.66739 56.5938 1.65625C56.5938 1.64511 56.5844 1.6358 56.5735 1.6358H56.4267V1.48898C56.4267 1.47807 56.4174 1.46875 56.4063 1.46875C56.3951 1.46875 56.386 1.47807 56.386 1.48898V1.6358H56.239C56.2281 1.6358 56.2188 1.64511 56.2188 1.65625Z" data-dark-mode-color="true"/><path stroke="#101828" stroke-width=".3" d="M23.7438 2.4625H57.1938V24.4C57.1938 24.5075 57.1936 24.5791 57.1891 24.6341C57.1848 24.6873 57.1771 24.7117 57.1692 24.7272C57.1477 24.7695 57.1132 24.8039 57.0709 24.8255C57.0555 24.8333 57.0311 24.841 56.9778 24.8454C56.9228 24.8499 56.8512 24.85 56.7438 24.85H24.1937C24.0863 24.85 24.0147 24.8499 23.9597 24.8454C23.9064 24.841 23.882 24.8333 23.8666 24.8255C23.8243 24.8039 23.7898 24.7695 23.7683 24.7271C23.7604 24.7117 23.7527 24.6873 23.7484 24.6341C23.7439 24.5791 23.7438 24.5075 23.7438 24.4V2.4625Z" data-dark-mode-color="true"/></svg>