<svg width="80" height="26" viewBox="0 0 80 26" fill="none" xmlns="http://www.w3.org/2000/svg">
<rect x="20" y="4" width="41" height="18" rx="3" fill="#101828"/>
<path d="M28.8694 16V10.1818H30.9035C31.3088 10.1818 31.6431 10.2519 31.9063 10.392C32.1696 10.5303 32.3656 10.7169 32.4944 10.9517C32.6232 11.1847 32.6876 11.4432 32.6876 11.7273C32.6876 11.9773 32.6431 12.1837 32.554 12.3466C32.4669 12.5095 32.3514 12.6383 32.2075 12.733C32.0654 12.8277 31.9111 12.8977 31.7444 12.9432V13C31.9224 13.0114 32.1014 13.0739 32.2813 13.1875C32.4612 13.3011 32.6118 13.464 32.733 13.6761C32.8542 13.8883 32.9148 14.1477 32.9148 14.4545C32.9148 14.7462 32.8486 15.0085 32.716 15.2415C32.5834 15.4744 32.3741 15.6591 32.0881 15.7955C31.8022 15.9318 31.43 16 30.9717 16H28.8694ZM29.5739 15.375H30.9717C31.4319 15.375 31.7586 15.286 31.9518 15.108C32.1469 14.928 32.2444 14.7102 32.2444 14.4545C32.2444 14.2576 32.1942 14.0758 32.0938 13.9091C31.9934 13.7405 31.8504 13.6061 31.6648 13.5057C31.4792 13.4034 31.2595 13.3523 31.0058 13.3523H29.5739V15.375ZM29.5739 12.7386H30.8808C31.0929 12.7386 31.2842 12.697 31.4546 12.6136C31.627 12.5303 31.7633 12.4129 31.8637 12.2614C31.966 12.1098 32.0171 11.9318 32.0171 11.7273C32.0171 11.4716 31.9281 11.2547 31.7501 11.0767C31.572 10.8968 31.2898 10.8068 30.9035 10.8068H29.5739V12.7386ZM36.6516 14.2159V11.6364H37.3221V16H36.6516V15.2614H36.6062C36.5039 15.483 36.3448 15.6714 36.1289 15.8267C35.913 15.9801 35.6402 16.0568 35.3107 16.0568C35.038 16.0568 34.7955 15.9972 34.5834 15.8778C34.3713 15.7566 34.2046 15.5748 34.0834 15.3324C33.9622 15.0881 33.9016 14.7803 33.9016 14.4091V11.6364H34.5721V14.3636C34.5721 14.6818 34.6611 14.9356 34.8391 15.125C35.019 15.3144 35.2482 15.4091 35.5266 15.4091C35.6933 15.4091 35.8628 15.3665 36.0351 15.2812C36.2094 15.196 36.3552 15.0653 36.4726 14.8892C36.5919 14.7131 36.6516 14.4886 36.6516 14.2159ZM40.3678 11.6364V12.2045H38.1064V11.6364H40.3678ZM38.7655 10.5909H39.436V14.75C39.436 14.9394 39.4634 15.0814 39.5183 15.1761C39.5752 15.2689 39.6471 15.3314 39.7342 15.3636C39.8233 15.3939 39.917 15.4091 40.0155 15.4091C40.0894 15.4091 40.15 15.4053 40.1973 15.3977C40.2447 15.3883 40.2825 15.3807 40.311 15.375L40.4473 15.9773C40.4019 15.9943 40.3384 16.0114 40.257 16.0284C40.1755 16.0473 40.0723 16.0568 39.9473 16.0568C39.7579 16.0568 39.5723 16.0161 39.3905 15.9347C39.2106 15.8532 39.061 15.7292 38.9416 15.5625C38.8242 15.3958 38.7655 15.1856 38.7655 14.9318V10.5909ZM43.194 11.6364V12.2045H40.9327V11.6364H43.194ZM41.5917 10.5909H42.2622V14.75C42.2622 14.9394 42.2897 15.0814 42.3446 15.1761C42.4014 15.2689 42.4734 15.3314 42.5605 15.3636C42.6495 15.3939 42.7433 15.4091 42.8417 15.4091C42.9156 15.4091 42.9762 15.4053 43.0236 15.3977C43.0709 15.3883 43.1088 15.3807 43.1372 15.375L43.2736 15.9773C43.2281 15.9943 43.1647 16.0114 43.0832 16.0284C43.0018 16.0473 42.8986 16.0568 42.7736 16.0568C42.5842 16.0568 42.3986 16.0161 42.2167 15.9347C42.0368 15.8532 41.8872 15.7292 41.7679 15.5625C41.6505 15.3958 41.5917 15.1856 41.5917 14.9318V10.5909ZM45.8484 16.0909C45.4545 16.0909 45.1088 15.9972 44.8115 15.8097C44.516 15.6222 44.2849 15.3598 44.1183 15.0227C43.9535 14.6856 43.8711 14.2917 43.8711 13.8409C43.8711 13.3864 43.9535 12.9896 44.1183 12.6506C44.2849 12.3116 44.516 12.0483 44.8115 11.8608C45.1088 11.6733 45.4545 11.5795 45.8484 11.5795C46.2423 11.5795 46.587 11.6733 46.8825 11.8608C47.1798 12.0483 47.4109 12.3116 47.5757 12.6506C47.7423 12.9896 47.8257 13.3864 47.8257 13.8409C47.8257 14.2917 47.7423 14.6856 47.5757 15.0227C47.4109 15.3598 47.1798 15.6222 46.8825 15.8097C46.587 15.9972 46.2423 16.0909 45.8484 16.0909ZM45.8484 15.4886C46.1476 15.4886 46.3938 15.4119 46.587 15.2585C46.7802 15.1051 46.9232 14.9034 47.016 14.6534C47.1088 14.4034 47.1552 14.1326 47.1552 13.8409C47.1552 13.5492 47.1088 13.2775 47.016 13.0256C46.9232 12.7737 46.7802 12.5701 46.587 12.4148C46.3938 12.2595 46.1476 12.1818 45.8484 12.1818C45.5492 12.1818 45.3029 12.2595 45.1098 12.4148C44.9166 12.5701 44.7736 12.7737 44.6808 13.0256C44.588 13.2775 44.5416 13.5492 44.5416 13.8409C44.5416 14.1326 44.588 14.4034 44.6808 14.6534C44.7736 14.9034 44.9166 15.1051 45.1098 15.2585C45.3029 15.4119 45.5492 15.4886 45.8484 15.4886ZM49.4396 13.375V16H48.7691V11.6364H49.4168V12.3182H49.4736C49.5759 12.0966 49.7312 11.9186 49.9396 11.7841C50.1479 11.6477 50.4168 11.5795 50.7464 11.5795C51.0418 11.5795 51.3004 11.6402 51.5219 11.7614C51.7435 11.8807 51.9159 12.0625 52.039 12.3068C52.1621 12.5492 52.2236 12.8561 52.2236 13.2273V16H51.5532V13.2727C51.5532 12.9299 51.4642 12.6629 51.2861 12.4716C51.1081 12.2784 50.8638 12.1818 50.5532 12.1818C50.3392 12.1818 50.1479 12.2282 49.9793 12.321C49.8127 12.4138 49.681 12.5492 49.5844 12.7273C49.4879 12.9053 49.4396 13.1212 49.4396 13.375Z" fill="#F6F7F8"/>
</svg>
