<svg width="80" height="26" viewBox="0 0 80 26" fill="none" xmlns="http://www.w3.org/2000/svg">
<path fill-rule="evenodd" clip-rule="evenodd" d="M48.7826 5.97585V19.8068C48.7826 20.8935 47.8935 21.7826 46.8068 21.7826H32.9758C31.8891 21.7826 31 20.8935 31 19.8068V5.97585C31 4.88913 31.8891 4 32.9758 4H46.8068C47.8935 4 48.7826 4.88913 48.7826 5.97585ZM38.9034 17.3468L36.4336 14.3732L32.9758 18.8188H46.8068L42.3611 12.8913L38.9034 17.3468ZM36.3515 11.8388C37.3019 11.8388 38.0724 11.0683 38.0724 10.1179C38.0724 9.1675 37.3019 8.39703 36.3515 8.39703C35.4011 8.39703 34.6306 9.1675 34.6306 10.1179C34.6306 11.0683 35.4011 11.8388 36.3515 11.8388Z" fill="#101828"/>
</svg>
