<svg xmlns="http://www.w3.org/2000/svg" width="80" height="26" fill="none" viewBox="0 0 80 26"><mask id="path-1-inside-1_519_67" fill="#fff"><path d="M34.0229 5.66918C34.0229 5.65017 34.0383 5.63477 34.0573 5.63477H34.1262C34.1452 5.63477 34.1606 5.65017 34.1606 5.66918V6.51813C34.1606 6.53714 34.1452 6.55255 34.1262 6.55255H34.0573C34.0383 6.55255 34.0229 6.53714 34.0229 6.51813V5.66918Z"/></mask><path fill="#fff" d="M34.0229 5.66918C34.0229 5.65017 34.0383 5.63477 34.0573 5.63477H34.1262C34.1452 5.63477 34.1606 5.65017 34.1606 5.66918V6.51813C34.1606 6.53714 34.1452 6.55255 34.1262 6.55255H34.0573C34.0383 6.55255 34.0229 6.53714 34.0229 6.51813V5.66918Z"/><path fill="#3E4040" d="M34.0115 5.66918C34.0115 5.64384 34.032 5.62329 34.0573 5.62329H34.1147C34.14 5.62329 34.1606 5.64384 34.1606 5.66918V5.66918C34.1606 5.65651 34.1452 5.64624 34.1262 5.64624H34.0573C34.0447 5.64624 34.0344 5.65651 34.0344 5.66918L34.0115 5.66918ZM34.1606 6.51813C34.1606 6.54347 34.14 6.56402 34.1147 6.56402H34.0573C34.032 6.56402 34.0115 6.54347 34.0115 6.51813L34.0344 6.51813C34.0344 6.5308 34.0447 6.54108 34.0573 6.54108H34.1262C34.1452 6.54108 34.1606 6.5308 34.1606 6.51813V6.51813ZM34.0573 6.56402C34.032 6.56402 34.0115 6.54347 34.0115 6.51813V5.66918C34.0115 5.64384 34.032 5.62329 34.0573 5.62329L34.0573 5.64624C34.0447 5.64624 34.0344 5.65651 34.0344 5.66918V6.51813C34.0344 6.5308 34.0447 6.54108 34.0573 6.54108L34.0573 6.56402ZM34.1606 5.63477V6.55255V5.63477Z" mask="url(#path-1-inside-1_519_67)"/><mask id="path-3-inside-2_519_67" fill="#fff"><path d="M34.0229 7.41296C34.0229 7.39395 34.0383 7.37854 34.0573 7.37854H34.1262C34.1452 7.37854 34.1606 7.39395 34.1606 7.41296V9.16821C34.1606 9.18722 34.1452 9.20263 34.1262 9.20263H34.0573C34.0383 9.20263 34.0229 9.18722 34.0229 9.16821V7.41296Z"/></mask><path fill="#fff" d="M34.0229 7.41296C34.0229 7.39395 34.0383 7.37854 34.0573 7.37854H34.1262C34.1452 7.37854 34.1606 7.39395 34.1606 7.41296V9.16821C34.1606 9.18722 34.1452 9.20263 34.1262 9.20263H34.0573C34.0383 9.20263 34.0229 9.18722 34.0229 9.16821V7.41296Z"/><path fill="#3E4040" d="M34.0115 7.41296C34.0115 7.38761 34.032 7.36707 34.0573 7.36707H34.1147C34.14 7.36707 34.1606 7.38761 34.1606 7.41296V7.41296C34.1606 7.40028 34.1452 7.39001 34.1262 7.39001H34.0573C34.0447 7.39001 34.0344 7.40028 34.0344 7.41296L34.0115 7.41296ZM34.1606 9.16821C34.1606 9.19356 34.14 9.2141 34.1147 9.2141H34.0573C34.032 9.2141 34.0115 9.19356 34.0115 9.16821L34.0344 9.16821C34.0344 9.18089 34.0447 9.19116 34.0573 9.19116H34.1262C34.1452 9.19116 34.1606 9.18089 34.1606 9.16821V9.16821ZM34.0573 9.2141C34.032 9.2141 34.0115 9.19356 34.0115 9.16821V7.41296C34.0115 7.38761 34.032 7.36707 34.0573 7.36707L34.0573 7.39001C34.0447 7.39001 34.0344 7.40028 34.0344 7.41296V9.16821C34.0344 9.18089 34.0447 9.19116 34.0573 9.19116L34.0573 9.2141ZM34.1606 7.37854V9.20263V7.37854Z" mask="url(#path-3-inside-2_519_67)"/><mask id="path-5-inside-3_519_67" fill="#fff"><path d="M45.7476 11.474C45.7476 11.493 45.7322 11.5084 45.7132 11.5084L45.6444 11.5084C45.6254 11.5084 45.61 11.493 45.61 11.474L45.61 8.65183C45.61 8.63282 45.6254 8.61741 45.6444 8.61741L45.7132 8.61741C45.7322 8.61741 45.7476 8.63282 45.7476 8.65183L45.7476 11.474Z"/></mask><path fill="#fff" d="M45.7476 11.474C45.7476 11.493 45.7322 11.5084 45.7132 11.5084L45.6444 11.5084C45.6254 11.5084 45.61 11.493 45.61 11.474L45.61 8.65183C45.61 8.63282 45.6254 8.61741 45.6444 8.61741L45.7132 8.61741C45.7322 8.61741 45.7476 8.63282 45.7476 8.65183L45.7476 11.474Z"/><path fill="#3E4040" d="M45.7591 11.474C45.7591 11.4993 45.7385 11.5199 45.7132 11.5199L45.6558 11.5199C45.6305 11.5199 45.61 11.4993 45.61 11.474V11.474C45.61 11.4867 45.6254 11.497 45.6444 11.497L45.7132 11.497C45.7259 11.497 45.7361 11.4867 45.7361 11.474L45.7591 11.474ZM45.61 8.65183C45.61 8.62648 45.6305 8.60594 45.6558 8.60594L45.7132 8.60594C45.7385 8.60594 45.7591 8.62648 45.7591 8.65183L45.7361 8.65183C45.7361 8.63915 45.7259 8.62888 45.7132 8.62888L45.6444 8.62888C45.6254 8.62888 45.61 8.63915 45.61 8.65183V8.65183ZM45.7132 8.60594C45.7385 8.60594 45.7591 8.62648 45.7591 8.65183L45.7591 11.474C45.7591 11.4993 45.7385 11.5199 45.7132 11.5199L45.7132 11.497C45.7259 11.497 45.7361 11.4867 45.7361 11.474L45.7361 8.65183C45.7361 8.63915 45.7259 8.62888 45.7132 8.62888L45.7132 8.60594ZM45.61 11.5084L45.61 8.61741L45.61 11.5084Z" mask="url(#path-5-inside-3_519_67)"/><mask id="path-7-inside-4_519_67" fill="#fff"><path d="M34 9.71887C34 9.69986 34.0154 9.68445 34.0344 9.68445H34.1032C34.1222 9.68445 34.1377 9.69986 34.1377 9.71887V11.4741C34.1377 11.4931 34.1222 11.5085 34.1032 11.5085H34.0344C34.0154 11.5085 34 11.4931 34 11.4741V9.71887Z"/></mask><path fill="#fff" d="M34 9.71887C34 9.69986 34.0154 9.68445 34.0344 9.68445H34.1032C34.1222 9.68445 34.1377 9.69986 34.1377 9.71887V11.4741C34.1377 11.4931 34.1222 11.5085 34.1032 11.5085H34.0344C34.0154 11.5085 34 11.4931 34 11.4741V9.71887Z"/><path fill="#3E4040" d="M33.9885 9.71887C33.9885 9.69352 34.0091 9.67298 34.0344 9.67298H34.0918C34.1171 9.67298 34.1377 9.69352 34.1377 9.71887V9.71887C34.1377 9.70619 34.1222 9.69592 34.1032 9.69592H34.0344C34.0217 9.69592 34.0115 9.70619 34.0115 9.71887L33.9885 9.71887ZM34.1377 11.4741C34.1377 11.4995 34.1171 11.52 34.0918 11.52H34.0344C34.0091 11.52 33.9885 11.4995 33.9885 11.4741L34.0115 11.4741C34.0115 11.4868 34.0217 11.4971 34.0344 11.4971H34.1032C34.1222 11.4971 34.1377 11.4868 34.1377 11.4741V11.4741ZM34.0344 11.52C34.0091 11.52 33.9885 11.4995 33.9885 11.4741V9.71887C33.9885 9.69352 34.0091 9.67298 34.0344 9.67298L34.0344 9.69592C34.0217 9.69592 34.0115 9.70619 34.0115 9.71887V11.4741C34.0115 11.4868 34.0217 11.4971 34.0344 11.4971L34.0344 11.52ZM34.1377 9.68445V11.5085V9.68445Z" mask="url(#path-7-inside-4_519_67)"/><rect width="11.564" height="23.977" x="34.092" y="1.011" fill="url(#paint0_linear_519_67)" stroke="#3E4040" stroke-width=".023" rx="1.95"/><rect width="11.403" height="23.816" x="34.172" y="1.092" fill="#1A1A1A" stroke="#3E4040" stroke-width=".023" rx="1.916"/><rect width="10.669" height="23.082" x="34.539" y="1.459" fill="#fff" stroke="#3E4040" stroke-width=".023" rx="1.537"/><rect width="3.396" height=".987" x="38.176" y="1.826" fill="#000" rx=".493"/><circle cx="41.113" cy="2.319" r=".184" fill="#131526"/><circle cx="41.113" cy="2.319" r=".08" fill="#1F1F64"/><circle cx="41.113" cy="2.285" r=".046" fill="#5158A9" opacity=".13"/><defs><linearGradient id="paint0_linear_519_67" x1="39.874" x2="25.665" y1="1" y2="27.392" gradientUnits="userSpaceOnUse"><stop stop-color="#F7F7F7"/><stop offset="1" stop-color="#D2D2D2"/></linearGradient></defs></svg>