<svg width="80" height="26" viewBox="0 0 80 26" fill="none" xmlns="http://www.w3.org/2000/svg">
<path d="M47 6C47.7956 6 48.5587 6.31607 49.1213 6.87868C49.6839 7.44129 50 8.20435 50 9V17C50 17.7956 49.6839 18.5587 49.1213 19.1213C48.5587 19.6839 47.7956 20 47 20H31C30.2044 20 29.4413 19.6839 28.8787 19.1213C28.3161 18.5587 28 17.7956 28 17V9C28 8.20435 28.3161 7.44129 28.8787 6.87868C29.4413 6.31607 30.2044 6 31 6H47ZM33 14C32.7348 14 32.4804 14.1054 32.2929 14.2929C32.1054 14.4804 32 14.7348 32 15V15.01C32 15.2752 32.1054 15.5296 32.2929 15.7171C32.4804 15.9046 32.7348 16.01 33 16.01C33.2652 16.01 33.5196 15.9046 33.7071 15.7171C33.8946 15.5296 34 15.2752 34 15.01V15C34 14.7348 33.8946 14.4804 33.7071 14.2929C33.5196 14.1054 33.2652 14 33 14ZM45 14C44.7348 14 44.4804 14.1054 44.2929 14.2929C44.1054 14.4804 44 14.7348 44 15V15.01C44 15.2752 44.1054 15.5296 44.2929 15.7171C44.4804 15.9046 44.7348 16.01 45 16.01C45.2652 16.01 45.5196 15.9046 45.7071 15.7171C45.8946 15.5296 46 15.2752 46 15.01V15C46 14.7348 45.8946 14.4804 45.7071 14.2929C45.5196 14.1054 45.2652 14 45 14ZM37.002 14C36.8707 13.9997 36.7406 14.0253 36.6192 14.0754C36.4977 14.1254 36.3874 14.1988 36.2943 14.2915C36.1064 14.4786 36.0005 14.7328 36 14.998C35.9997 15.1293 36.0253 15.2594 36.0754 15.3808C36.1254 15.5023 36.1988 15.6126 36.2915 15.7057C36.3842 15.7987 36.4942 15.8726 36.6155 15.9231C36.7367 15.9736 36.8667 15.9997 36.998 16L40.998 16.01C41.1293 16.0103 41.2594 15.9848 41.3809 15.9348C41.5023 15.8849 41.6127 15.8115 41.7058 15.7189C41.7989 15.6262 41.8729 15.5162 41.9234 15.395C41.974 15.2738 42.0002 15.1438 42.0005 15.0125C42.0008 14.8812 41.9753 14.7511 41.9253 14.6296C41.8754 14.5082 41.802 14.3978 41.7094 14.3047C41.6167 14.2116 41.5067 14.1376 41.3855 14.0871C41.2643 14.0365 41.1343 14.0103 41.003 14.01L37.002 14ZM33 10C32.7348 10 32.4804 10.1054 32.2929 10.2929C32.1054 10.4804 32 10.7348 32 11V11.01C32 11.2752 32.1054 11.5296 32.2929 11.7171C32.4804 11.9046 32.7348 12.01 33 12.01C33.2652 12.01 33.5196 11.9046 33.7071 11.7171C33.8946 11.5296 34 11.2752 34 11.01V11C34 10.7348 33.8946 10.4804 33.7071 10.2929C33.5196 10.1054 33.2652 10 33 10ZM37 10C36.7348 10 36.4804 10.1054 36.2929 10.2929C36.1054 10.4804 36 10.7348 36 11V11.01C36 11.2752 36.1054 11.5296 36.2929 11.7171C36.4804 11.9046 36.7348 12.01 37 12.01C37.2652 12.01 37.5196 11.9046 37.7071 11.7171C37.8946 11.5296 38 11.2752 38 11.01V11C38 10.7348 37.8946 10.4804 37.7071 10.2929C37.5196 10.1054 37.2652 10 37 10ZM41 10C40.7348 10 40.4804 10.1054 40.2929 10.2929C40.1054 10.4804 40 10.7348 40 11V11.01C40 11.2752 40.1054 11.5296 40.2929 11.7171C40.4804 11.9046 40.7348 12.01 41 12.01C41.2652 12.01 41.5196 11.9046 41.7071 11.7171C41.8946 11.5296 42 11.2752 42 11.01V11C42 10.7348 41.8946 10.4804 41.7071 10.2929C41.5196 10.1054 41.2652 10 41 10ZM45 10C44.7348 10 44.4804 10.1054 44.2929 10.2929C44.1054 10.4804 44 10.7348 44 11V11.01C44 11.2752 44.1054 11.5296 44.2929 11.7171C44.4804 11.9046 44.7348 12.01 45 12.01C45.2652 12.01 45.5196 11.9046 45.7071 11.7171C45.8946 11.5296 46 11.2752 46 11.01V11C46 10.7348 45.8946 10.4804 45.7071 10.2929C45.5196 10.1054 45.2652 10 45 10Z" fill="#101828" data-dark-mode-color="true"/>
</svg>
