<svg width="80" height="26" viewBox="0 0 80 26" fill="none" xmlns="http://www.w3.org/2000/svg">
<path d="M46.8136 5.0235L47 8.97504H46.5278C46.4367 8.27917 46.3124 7.78212 46.155 7.48389C45.8982 7.00341 45.5544 6.65133 45.1236 6.42766C44.7011 6.19571 44.142 6.07973 43.4461 6.07973H41.0727V18.9533C41.0727 19.9888 41.1845 20.635 41.4082 20.8918C41.723 21.2397 42.2076 21.4137 42.8621 21.4137H43.4461V21.8735H36.301V21.4137H36.8975C37.6099 21.4137 38.1152 21.1983 38.4135 20.7675C38.5957 20.5024 38.6869 19.8977 38.6869 18.9533V6.07973H36.6614C35.8744 6.07973 35.3152 6.13772 34.9838 6.2537C34.5531 6.41109 34.1844 6.71347 33.8779 7.16081C33.5714 7.60815 33.3891 8.2129 33.3311 8.97504H32.859L33.0578 5.0235H46.8136Z" fill="#101828"/>
</svg>
