<svg xmlns="http://www.w3.org/2000/svg" width="80" height="26" fill="none" viewBox="0 0 80 26"><path stroke="#101828" stroke-linecap="round" stroke-linejoin="round" stroke-width="1.575" d="M37.7688 15.2312C38.0668 15.5354 38.4225 15.777 38.8151 15.942C39.2077 16.107 39.6293 16.1919 40.0551 16.1919C40.4809 16.1919 40.9025 16.107 41.2951 15.942C41.6877 15.777 42.0434 15.5354 42.3414 15.2312L45.9995 11.5731C46.6059 10.9667 46.9466 10.1443 46.9466 9.28679C46.9466 8.42925 46.6059 7.60683 45.9995 7.00046C45.3932 6.39409 44.5707 6.05344 43.7132 6.05344C42.8557 6.05344 42.0333 6.39409 41.4269 7.00046L40.9696 7.45773M41.4269 11.5731C41.1289 11.2689 40.7731 11.0273 40.3805 10.8623C39.988 10.6974 39.5664 10.6124 39.1406 10.6124C38.7147 10.6124 38.2932 10.6974 37.9006 10.8623C37.508 11.0273 37.1523 11.2689 36.8542 11.5731L33.1961 15.2312C32.5898 15.8376 32.2491 16.66 32.2491 17.5176C32.2491 18.3751 32.5898 19.1975 33.1961 19.8039C33.8025 20.4102 34.6249 20.7509 35.4824 20.7509C36.34 20.7509 37.1624 20.4102 37.7688 19.8039L38.226 19.3466" data-dark-mode-color="true"/></svg>