<svg width="80" height="26" viewBox="0 0 80 26" fill="none" xmlns="http://www.w3.org/2000/svg">
<rect x="37" y="2" width="6" height="21" rx="1" fill="#C2C8CC"/>
<rect x="38" y="7" width="4" height="9" rx="0.5" fill="#E9EBED"/>
<path d="M39.792 3.31202C39.8909 3.16359 40.1091 3.16359 40.208 3.31202L41.7409 5.61133C41.8516 5.77746 41.7325 6 41.5329 6L38.4671 6C38.2675 6 38.1484 5.77746 38.2591 5.61132L39.792 3.31202Z" fill="#101828"/>
<path d="M40.208 21.688C40.1091 21.8364 39.8909 21.8364 39.792 21.688L38.2591 19.3887C38.1484 19.2225 38.2675 19 38.4671 19L41.5329 19C41.7325 19 41.8516 19.2225 41.7409 19.3887L40.208 21.688Z" fill="#101828"/>
</svg>
