<svg xmlns="http://www.w3.org/2000/svg" width="80" height="26" fill="none" viewBox="0 0 80 26"><rect width="72.5" height="13.7" x="3.75" y="5.65" stroke="#101828" stroke-width=".5" data-dark-mode-color="true" rx="2.65"/><path stroke="#101828" stroke-linecap="round" stroke-linejoin="round" stroke-width=".5" d="M11.7167 13.6867L13.1967 15.1667M11.731 10.8607C12.5083 11.6379 12.5083 12.8981 11.731 13.6754C10.9538 14.4527 9.69355 14.4527 8.91628 13.6754C8.139 12.8981 8.139 11.6379 8.91628 10.8607C9.69355 10.0834 10.9538 10.0834 11.731 10.8607Z" data-dark-mode-color="true"/><path fill="#101828" d="M20.0856 10.95C20.054 10.6828 19.9257 10.4754 19.7007 10.3277C19.4757 10.1801 19.1997 10.1062 18.8727 10.1062C18.6337 10.1062 18.4245 10.1449 18.2452 10.2223C18.0677 10.2996 17.9288 10.406 17.8286 10.5413C17.7302 10.6767 17.681 10.8305 17.681 11.0027C17.681 11.1469 17.7152 11.2708 17.7838 11.3745C17.8541 11.4765 17.9437 11.5617 18.0527 11.6303C18.1617 11.6971 18.276 11.7524 18.3955 11.7964C18.515 11.8386 18.6249 11.8729 18.7251 11.8992L19.2735 12.0469C19.4142 12.0838 19.5706 12.1348 19.7429 12.1998C19.9169 12.2648 20.083 12.3536 20.2412 12.4661C20.4012 12.5769 20.533 12.7192 20.6367 12.8933C20.7404 13.0673 20.7923 13.2809 20.7923 13.534C20.7923 13.8258 20.7158 14.0895 20.5629 14.325C20.4117 14.5605 20.1902 14.7478 19.8984 14.8866C19.6084 15.0255 19.256 15.0949 18.8411 15.0949C18.4544 15.0949 18.1195 15.0325 17.8365 14.9077C17.5553 14.7829 17.3338 14.6089 17.1721 14.3856C17.0121 14.1624 16.9216 13.9031 16.9005 13.6078H17.5755C17.5931 13.8117 17.6616 13.9805 17.7811 14.1141C17.9024 14.2459 18.0554 14.3443 18.2399 14.4094C18.4263 14.4727 18.6267 14.5043 18.8411 14.5043C19.0907 14.5043 19.3148 14.4639 19.5135 14.383C19.7121 14.3004 19.8694 14.1861 19.9854 14.0402C20.1015 13.8926 20.1595 13.7203 20.1595 13.5234C20.1595 13.3441 20.1094 13.1982 20.0092 13.0857C19.909 12.9732 19.7771 12.8818 19.6137 12.8115C19.4502 12.7412 19.2735 12.6797 19.0837 12.627L18.4192 12.4371C17.9974 12.3158 17.6634 12.1427 17.4173 11.9177C17.1712 11.6927 17.0481 11.3982 17.0481 11.0344C17.0481 10.732 17.1299 10.4684 17.2934 10.2434C17.4586 10.0166 17.6801 9.84082 17.9578 9.71602C18.2373 9.58945 18.5493 9.52617 18.8938 9.52617C19.2419 9.52617 19.5513 9.58857 19.822 9.71338C20.0927 9.83643 20.3071 10.0052 20.4653 10.2196C20.6253 10.4341 20.7097 10.6775 20.7185 10.95H20.0856ZM23.4068 15.0844C23.0166 15.0844 22.68 14.9982 22.397 14.826C22.1157 14.652 21.8986 14.4094 21.7457 14.0982C21.5945 13.7854 21.5189 13.4215 21.5189 13.0066C21.5189 12.5918 21.5945 12.2262 21.7457 11.9098C21.8986 11.5916 22.1113 11.3437 22.3838 11.1662C22.658 10.9869 22.9779 10.8973 23.3435 10.8973C23.5545 10.8973 23.7628 10.9324 23.9684 11.0027C24.1741 11.073 24.3613 11.1873 24.5301 11.3455C24.6988 11.502 24.8333 11.7094 24.9335 11.9678C25.0337 12.2262 25.0838 12.5443 25.0838 12.9223V13.1859H21.9619V12.648H24.451C24.451 12.4195 24.4053 12.2156 24.3139 12.0363C24.2242 11.857 24.0959 11.7155 23.9289 11.6118C23.7637 11.5081 23.5685 11.4562 23.3435 11.4562C23.0957 11.4562 22.8812 11.5178 22.7002 11.6408C22.5209 11.7621 22.3829 11.9203 22.2862 12.1154C22.1895 12.3105 22.1412 12.5197 22.1412 12.743V13.1016C22.1412 13.4074 22.1939 13.6667 22.2994 13.8794C22.4066 14.0903 22.5552 14.2512 22.745 14.3619C22.9348 14.4709 23.1555 14.5254 23.4068 14.5254C23.5703 14.5254 23.718 14.5025 23.8498 14.4568C23.9834 14.4094 24.0985 14.3391 24.1952 14.2459C24.2919 14.151 24.3666 14.0332 24.4193 13.8926L25.0205 14.0613C24.9572 14.2652 24.8509 14.4445 24.7015 14.5992C24.552 14.7521 24.3675 14.8717 24.1477 14.9578C23.928 15.0422 23.681 15.0844 23.4068 15.0844ZM27.1479 15.0949C26.8913 15.0949 26.6584 15.0466 26.4492 14.9499C26.24 14.8515 26.0739 14.71 25.9508 14.5254C25.8278 14.3391 25.7663 14.1141 25.7663 13.8504C25.7663 13.6184 25.812 13.4303 25.9034 13.2861C25.9948 13.1402 26.1169 13.026 26.2699 12.9434C26.4228 12.8607 26.5916 12.7992 26.7761 12.7588C26.9625 12.7166 27.1497 12.6832 27.3377 12.6586C27.5838 12.627 27.7834 12.6032 27.9363 12.5874C28.091 12.5698 28.2035 12.5408 28.2738 12.5004C28.3459 12.46 28.3819 12.3896 28.3819 12.2895V12.2684C28.3819 12.0082 28.3107 11.8061 28.1683 11.6619C28.0277 11.5178 27.8141 11.4457 27.5276 11.4457C27.2305 11.4457 26.9976 11.5107 26.8289 11.6408C26.6601 11.7709 26.5415 11.9098 26.4729 12.0574L25.8823 11.8465C25.9877 11.6004 26.1284 11.4088 26.3042 11.2717C26.4817 11.1328 26.6751 11.0361 26.8842 10.9816C27.0952 10.9254 27.3026 10.8973 27.5065 10.8973C27.6366 10.8973 27.786 10.9131 27.9547 10.9447C28.1252 10.9746 28.2896 11.037 28.4478 11.1319C28.6078 11.2269 28.7405 11.3701 28.846 11.5617C28.9514 11.7533 29.0042 12.01 29.0042 12.3316V15H28.3819V14.4516H28.3502C28.3081 14.5395 28.2377 14.6335 28.1393 14.7337C28.0409 14.8339 27.9099 14.9191 27.7464 14.9895C27.583 15.0598 27.3835 15.0949 27.1479 15.0949ZM27.2428 14.5359C27.4889 14.5359 27.6963 14.4876 27.8651 14.3909C28.0356 14.2942 28.1639 14.1694 28.2501 14.0165C28.3379 13.8636 28.3819 13.7027 28.3819 13.534V12.9645C28.3555 12.9961 28.2975 13.0251 28.2079 13.0515C28.12 13.0761 28.018 13.098 27.902 13.1174C27.7877 13.135 27.6761 13.1508 27.5671 13.1648C27.4599 13.1771 27.3729 13.1877 27.3061 13.1965C27.1444 13.2176 26.9932 13.2519 26.8526 13.2993C26.7137 13.345 26.6012 13.4145 26.5151 13.5076C26.4307 13.599 26.3885 13.7238 26.3885 13.882C26.3885 14.0982 26.4685 14.2617 26.6285 14.3725C26.7902 14.4814 26.995 14.5359 27.2428 14.5359ZM30.0657 15V10.95H30.6668V11.5617H30.709C30.7829 11.3613 30.9165 11.1987 31.1098 11.0739C31.3032 10.9491 31.5211 10.8867 31.7637 10.8867C31.8094 10.8867 31.8665 10.8876 31.9351 10.8894C32.0037 10.8911 32.0555 10.8937 32.0907 10.8973V11.5301C32.0696 11.5248 32.0212 11.5169 31.9457 11.5063C31.8718 11.494 31.7936 11.4879 31.711 11.4879C31.5141 11.4879 31.3383 11.5292 31.1836 11.6118C31.0307 11.6927 30.9094 11.8052 30.8198 11.9493C30.7319 12.0917 30.6879 12.2543 30.6879 12.4371V15H30.0657ZM34.2761 15.0844C33.8964 15.0844 33.5694 14.9947 33.2952 14.8154C33.021 14.6361 32.8101 14.3892 32.6624 14.0745C32.5148 13.7599 32.4409 13.4004 32.4409 12.9961C32.4409 12.5848 32.5165 12.2218 32.6677 11.9071C32.8206 11.5907 33.0333 11.3437 33.3058 11.1662C33.58 10.9869 33.8999 10.8973 34.2655 10.8973C34.5503 10.8973 34.8069 10.95 35.0355 11.0555C35.264 11.1609 35.4512 11.3086 35.5971 11.4984C35.743 11.6883 35.8335 11.9098 35.8687 12.1629H35.2464C35.1989 11.9783 35.0935 11.8148 34.93 11.6725C34.7683 11.5283 34.5503 11.4562 34.2761 11.4562C34.0335 11.4562 33.8208 11.5195 33.638 11.6461C33.4569 11.7709 33.3154 11.9476 33.2135 12.1761C33.1133 12.4028 33.0632 12.6691 33.0632 12.975C33.0632 13.2879 33.1124 13.5604 33.2109 13.7924C33.311 14.0244 33.4517 14.2046 33.6327 14.3329C33.8155 14.4612 34.03 14.5254 34.2761 14.5254C34.4378 14.5254 34.5846 14.4973 34.7164 14.441C34.8483 14.3848 34.9599 14.3039 35.0513 14.1984C35.1427 14.093 35.2077 13.9664 35.2464 13.8187H35.8687C35.8335 14.0578 35.7465 14.2731 35.6076 14.4647C35.4705 14.6546 35.2886 14.8058 35.0618 14.9183C34.8368 15.029 34.5749 15.0844 34.2761 15.0844ZM37.3263 12.5637V15H36.7041V9.6H37.3263V11.5828H37.3791C37.474 11.3736 37.6164 11.2075 37.8062 11.0845C37.9978 10.9597 38.2527 10.8973 38.5709 10.8973C38.8469 10.8973 39.0886 10.9526 39.296 11.0634C39.5034 11.1724 39.6642 11.3402 39.7785 11.567C39.8945 11.792 39.9525 12.0785 39.9525 12.4266V15H39.3303V12.4687C39.3303 12.1471 39.2468 11.8983 39.0798 11.7226C38.9145 11.545 38.6851 11.4562 38.3916 11.4562C38.1877 11.4562 38.0049 11.4993 37.8431 11.5854C37.6832 11.6716 37.5566 11.7973 37.4635 11.9625C37.3721 12.1277 37.3263 12.3281 37.3263 12.5637Z" data-dark-mode-color="true"/></svg>