<svg width="80" height="26" viewBox="0 0 80 26" fill="none" xmlns="http://www.w3.org/2000/svg">
<path d="M30 19.3852V7.16705H31.4795V12.608H37.9943V7.16705H39.4739V19.3852H37.9943V13.9205H31.4795V19.3852H30Z" fill="#101828" data-dark-mode-color="true"/>
<path d="M42.0532 19.3852V18.3114L46.0861 13.8966C46.5594 13.3795 46.9492 12.9301 47.2554 12.5483C47.5617 12.1625 47.7884 11.8006 47.9356 11.4625C48.0867 11.1205 48.1623 10.7625 48.1623 10.3886C48.1623 9.95909 48.0588 9.58722 47.852 9.27301C47.6492 8.95881 47.3708 8.71619 47.0168 8.54517C46.6628 8.37415 46.2651 8.28864 45.8236 8.28864C45.3543 8.28864 44.9446 8.38608 44.5946 8.58097C44.2486 8.77187 43.9802 9.04034 43.7892 9.38636C43.6023 9.73239 43.5088 10.1381 43.5088 10.6034H42.1009C42.1009 9.8875 42.2659 9.25909 42.5961 8.71818C42.9262 8.17727 43.3756 7.75568 43.9444 7.45341C44.5171 7.15114 45.1594 7 45.8713 7C46.5873 7 47.2216 7.15114 47.7745 7.45341C48.3273 7.75568 48.7608 8.16335 49.075 8.67642C49.3892 9.18949 49.5463 9.76023 49.5463 10.3886C49.5463 10.8381 49.4648 11.2776 49.3017 11.7071C49.1427 12.1327 48.8642 12.608 48.4665 13.133C48.0728 13.654 47.5259 14.2903 46.8259 15.042L44.0816 17.9773V18.0727H49.7611V19.3852H42.0532Z" fill="#101828" data-dark-mode-color="true"/>
</svg>
