<svg xmlns="http://www.w3.org/2000/svg" width="80" height="26" fill="none" viewBox="0 0 80 26"><path stroke="#101828" stroke-linecap="round" stroke-linejoin="round" d="M30 10.5H50M37.5 3V23M30 5.5C30 4.83696 30.2634 4.20107 30.7322 3.73223C31.2011 3.26339 31.837 3 32.5 3H47.5C48.163 3 48.7989 3.26339 49.2678 3.73223C49.7366 4.20107 50 4.83696 50 5.5V20.5C50 21.163 49.7366 21.7989 49.2678 22.2678C48.7989 22.7366 48.163 23 47.5 23H32.5C31.837 23 31.2011 22.7366 30.7322 22.2678C30.2634 21.7989 30 21.163 30 20.5V5.5Z" data-dark-mode-color="true"/></svg>