<svg width="80" height="26" viewBox="0 0 80 26" fill="none" xmlns="http://www.w3.org/2000/svg">
<path d="M37 7H59" stroke="#101828" stroke-linecap="round" data-dark-mode-color="true"/>
<path d="M37 13H59" stroke="#101828" stroke-linecap="round" data-dark-mode-color="true"/>
<path d="M37 19H52.4386" stroke="#101828" stroke-linecap="round" data-dark-mode-color="true"/>
<path d="M30.8136 5.0235L31 8.97504H30.5278C30.4367 8.27917 30.3124 7.78212 30.155 7.48389C29.8982 7.00341 29.5544 6.65133 29.1236 6.42766C28.7011 6.19571 28.142 6.07973 27.4461 6.07973H25.0727V18.9533C25.0727 19.9888 25.1845 20.635 25.4082 20.8918C25.723 21.2397 26.2076 21.4137 26.8621 21.4137H27.4461V21.8735H20.301V21.4137H20.8975C21.6099 21.4137 22.1152 21.1983 22.4135 20.7675C22.5957 20.5024 22.6868 19.8977 22.6868 18.9533V6.07973H20.6614C19.8744 6.07973 19.3152 6.13772 18.9838 6.2537C18.5531 6.41109 18.1844 6.71347 17.8779 7.16081C17.5714 7.60815 17.3891 8.2129 17.3311 8.97504H16.8589L17.0578 5.0235H30.8136Z" fill="#101828" data-dark-mode-color="true"/>
</svg>
