<svg xmlns="http://www.w3.org/2000/svg" width="80" height="26" fill="none" viewBox="0 0 80 26"><rect width="18" height="18" x="31" y="4" stroke="#101828" stroke-width=".75" data-dark-mode-color="true"/><path fill="#101828" d="M45.1102 7.01758L45.25 9.98123H44.8959C44.8275 9.45933 44.7343 9.08654 44.6163 8.86287C44.4237 8.50251 44.1658 8.23846 43.8427 8.0707C43.5259 7.89673 43.1065 7.80975 42.5846 7.80975H40.8045V17.4649C40.8045 18.2416 40.8884 18.7262 41.0561 18.9188C41.2922 19.1797 41.6557 19.3102 42.1465 19.3102H42.5846V19.6551H37.2258V19.3102H37.6731C38.2074 19.3102 38.5864 19.1487 38.8101 18.8256C38.9468 18.6268 39.0151 18.1732 39.0151 17.4649V7.80975H37.496C36.9058 7.80975 36.4864 7.85324 36.2379 7.94023C35.9148 8.05827 35.6383 8.28505 35.4084 8.62056C35.1785 8.95607 35.0419 9.40963 34.9984 9.98123H34.6442L34.7933 7.01758H45.1102Z" data-dark-mode-color="true"/><rect width="2" height="2" x="48" y="3" fill="#101828" data-dark-mode-color="true"/><rect width="2" height="2" x="30" y="3" fill="#101828" data-dark-mode-color="true"/><rect width="2" height="2" x="48" y="21" fill="#101828" data-dark-mode-color="true"/><rect width="2" height="2" x="30" y="21" fill="#101828" data-dark-mode-color="true"/></svg>