<svg width="80" height="26" viewBox="0 0 80 26" fill="none" xmlns="http://www.w3.org/2000/svg">
<rect x="16" y="5" width="48" height="13.3333" rx="2.66667" fill="#101828"/>
<path d="M36 17H45.3333L40.6667 21L36 17Z" fill="#101828"/>
<path d="M29.6782 9.33897V8.81814H33.3146V9.33897H31.79V13.6666H31.2028V9.33897H29.6782ZM35.0282 13.7424C34.6999 13.7424 34.4119 13.6643 34.1641 13.508C33.9179 13.3518 33.7253 13.1332 33.5865 12.8522C33.4491 12.5713 33.3805 12.243 33.3805 11.8674C33.3805 11.4886 33.4491 11.1579 33.5865 10.8754C33.7253 10.5929 33.9179 10.3735 34.1641 10.2173C34.4119 10.061 34.6999 9.98291 35.0282 9.98291C35.3565 9.98291 35.6437 10.061 35.89 10.2173C36.1378 10.3735 36.3303 10.5929 36.4676 10.8754C36.6065 11.1579 36.6759 11.4886 36.6759 11.8674C36.6759 12.243 36.6065 12.5713 36.4676 12.8522C36.3303 13.1332 36.1378 13.3518 35.89 13.508C35.6437 13.6643 35.3565 13.7424 35.0282 13.7424ZM35.0282 13.2405C35.2776 13.2405 35.4828 13.1766 35.6437 13.0487C35.8047 12.9209 35.9239 12.7528 36.0012 12.5445C36.0786 12.3361 36.1172 12.1104 36.1172 11.8674C36.1172 11.6243 36.0786 11.3978 36.0012 11.1879C35.9239 10.978 35.8047 10.8084 35.6437 10.6789C35.4828 10.5495 35.2776 10.4848 35.0282 10.4848C34.7788 10.4848 34.5737 10.5495 34.4127 10.6789C34.2517 10.8084 34.1325 10.978 34.0552 11.1879C33.9779 11.3978 33.9392 11.6243 33.9392 11.8674C33.9392 12.1104 33.9779 12.3361 34.0552 12.5445C34.1325 12.7528 34.2517 12.9209 34.4127 13.0487C34.5737 13.1766 34.7788 13.2405 35.0282 13.2405ZM38.9394 13.7424C38.6111 13.7424 38.3231 13.6643 38.0753 13.508C37.8291 13.3518 37.6365 13.1332 37.4977 12.8522C37.3603 12.5713 37.2917 12.243 37.2917 11.8674C37.2917 11.4886 37.3603 11.1579 37.4977 10.8754C37.6365 10.5929 37.8291 10.3735 38.0753 10.2173C38.3231 10.061 38.6111 9.98291 38.9394 9.98291C39.2677 9.98291 39.5549 10.061 39.8012 10.2173C40.0489 10.3735 40.2415 10.5929 40.3788 10.8754C40.5177 11.1579 40.5871 11.4886 40.5871 11.8674C40.5871 12.243 40.5177 12.5713 40.3788 12.8522C40.2415 13.1332 40.0489 13.3518 39.8012 13.508C39.5549 13.6643 39.2677 13.7424 38.9394 13.7424ZM38.9394 13.2405C39.1888 13.2405 39.394 13.1766 39.5549 13.0487C39.7159 12.9209 39.8351 12.7528 39.9124 12.5445C39.9898 12.3361 40.0284 12.1104 40.0284 11.8674C40.0284 11.6243 39.9898 11.3978 39.9124 11.1879C39.8351 10.978 39.7159 10.8084 39.5549 10.6789C39.394 10.5495 39.1888 10.4848 38.9394 10.4848C38.69 10.4848 38.4849 10.5495 38.3239 10.6789C38.1629 10.8084 38.0437 10.978 37.9664 11.1879C37.8891 11.3978 37.8504 11.6243 37.8504 11.8674C37.8504 12.1104 37.8891 12.3361 37.9664 12.5445C38.0437 12.7528 38.1629 12.9209 38.3239 13.0487C38.4849 13.1766 38.69 13.2405 38.9394 13.2405ZM41.9321 8.81814V13.6666H41.3733V8.81814H41.9321ZM44.4701 10.0303V10.5037H42.5857V10.0303H44.4701ZM43.1349 9.15905H43.6936V12.625C43.6936 12.7828 43.7165 12.9012 43.7623 12.9801C43.8096 13.0574 43.8696 13.1095 43.9422 13.1363C44.0164 13.1616 44.0945 13.1742 44.1766 13.1742C44.2381 13.1742 44.2886 13.171 44.3281 13.1647C44.3676 13.1568 44.3991 13.1505 44.4228 13.1458L44.5364 13.6477C44.4986 13.6619 44.4457 13.6761 44.3778 13.6903C44.3099 13.7061 44.2239 13.714 44.1198 13.714C43.9619 13.714 43.8073 13.68 43.6558 13.6122C43.5058 13.5443 43.3811 13.4409 43.2817 13.302C43.1838 13.1632 43.1349 12.988 43.1349 12.7765V9.15905ZM45.2439 13.6666V10.0303H45.8026V13.6666H45.2439ZM45.528 9.4242C45.4191 9.4242 45.3252 9.38711 45.2463 9.31293C45.1689 9.23875 45.1303 9.14958 45.1303 9.04541C45.1303 8.94125 45.1689 8.85207 45.2463 8.77789C45.3252 8.70372 45.4191 8.66663 45.528 8.66663C45.6369 8.66663 45.73 8.70372 45.8074 8.77789C45.8863 8.85207 45.9257 8.94125 45.9257 9.04541C45.9257 9.14958 45.8863 9.23875 45.8074 9.31293C45.73 9.38711 45.6369 9.4242 45.528 9.4242ZM46.7593 15.0303V10.0303H47.2991V10.6079H47.3653C47.4064 10.5448 47.4632 10.4643 47.5358 10.3664C47.61 10.267 47.7157 10.1786 47.853 10.1013C47.9919 10.0224 48.1797 9.98291 48.4165 9.98291C48.7227 9.98291 48.9926 10.0595 49.2261 10.2126C49.4597 10.3656 49.642 10.5827 49.773 10.8636C49.904 11.1445 49.9695 11.476 49.9695 11.8579C49.9695 12.243 49.904 12.5768 49.773 12.8593C49.642 13.1403 49.4605 13.3581 49.2285 13.5127C48.9965 13.6658 48.729 13.7424 48.4259 13.7424C48.1924 13.7424 48.0053 13.7037 47.8649 13.6264C47.7244 13.5475 47.6163 13.4583 47.5405 13.3589C47.4648 13.2579 47.4064 13.1742 47.3653 13.1079H47.318V15.0303H46.7593ZM47.3085 11.8484C47.3085 12.1231 47.3488 12.3653 47.4293 12.5752C47.5098 12.7836 47.6273 12.9469 47.782 13.0653C47.9367 13.1821 48.1261 13.2405 48.3502 13.2405C48.5838 13.2405 48.7787 13.1789 48.9349 13.0558C49.0928 12.9311 49.2111 12.7638 49.2901 12.5539C49.3706 12.3424 49.4108 12.1073 49.4108 11.8484C49.4108 11.5928 49.3713 11.3623 49.2924 11.1572C49.2151 10.9504 49.0975 10.787 48.9397 10.6671C48.7834 10.5456 48.5869 10.4848 48.3502 10.4848C48.1229 10.4848 47.9319 10.5424 47.7773 10.6576C47.6226 10.7713 47.5058 10.9307 47.4269 11.1358C47.348 11.3394 47.3085 11.577 47.3085 11.8484Z" fill="#F6F7F8"/>
</svg>
