<svg width="80" height="26" viewBox="0 0 80 26" fill="none" xmlns="http://www.w3.org/2000/svg">
<rect x="10" y="6" width="60" height="16" rx="2" stroke="#101828" fill="#101828" data-theme-inverted="true"/>
<path d="M40 6H68C69.1046 6 70 6.89543 70 8V20C70 21.1046 69.1046 22 68 22H40V6Z" fill="white"/>
<path d="M18.515 11.1818H19.3218L20.9355 13.8977H21.0037L22.6173 11.1818H23.4241L21.3218 14.6023V17H20.6173V14.6023L18.515 11.1818ZM25.3768 17.0909C24.9563 17.0909 24.5936 16.9981 24.2887 16.8125C23.9857 16.625 23.7518 16.3636 23.587 16.0284C23.4241 15.6913 23.3427 15.2992 23.3427 14.8523C23.3427 14.4053 23.4241 14.0114 23.587 13.6705C23.7518 13.3277 23.9809 13.0606 24.2745 12.8693C24.57 12.6761 24.9147 12.5795 25.3086 12.5795C25.5359 12.5795 25.7603 12.6174 25.9819 12.6932C26.2035 12.7689 26.4052 12.892 26.587 13.0625C26.7688 13.2311 26.9137 13.4545 27.0217 13.733C27.1296 14.0114 27.1836 14.3542 27.1836 14.7614V15.0455H23.82V14.4659H26.5018C26.5018 14.2197 26.4525 14 26.354 13.8068C26.2575 13.6136 26.1192 13.4612 25.9393 13.3494C25.7612 13.2377 25.551 13.1818 25.3086 13.1818C25.0415 13.1818 24.8105 13.2481 24.6154 13.3807C24.4222 13.5114 24.2736 13.6818 24.1694 13.892C24.0652 14.1023 24.0131 14.3277 24.0131 14.5682V14.9545C24.0131 15.2841 24.07 15.5634 24.1836 15.7926C24.2991 16.0199 24.4592 16.1932 24.6637 16.3125C24.8683 16.4299 25.1059 16.4886 25.3768 16.4886C25.5529 16.4886 25.712 16.464 25.854 16.4148C25.998 16.3636 26.122 16.2879 26.2262 16.1875C26.3304 16.0852 26.4109 15.9583 26.4677 15.8068L27.1154 15.9886C27.0472 16.2083 26.9326 16.4015 26.7717 16.5682C26.6107 16.733 26.4118 16.8617 26.1751 16.9545C25.9383 17.0455 25.6722 17.0909 25.3768 17.0909ZM31.2144 13.6136L30.6121 13.7841C30.5742 13.6837 30.5184 13.5862 30.4445 13.4915C30.3725 13.3949 30.274 13.3153 30.149 13.2528C30.024 13.1903 29.864 13.1591 29.6689 13.1591C29.4019 13.1591 29.1794 13.2206 29.0013 13.3438C28.8252 13.465 28.7371 13.6193 28.7371 13.8068C28.7371 13.9735 28.7977 14.1051 28.9189 14.2017C29.0401 14.2983 29.2295 14.3788 29.4871 14.4432L30.1348 14.6023C30.525 14.697 30.8157 14.8419 31.007 15.0369C31.1983 15.2301 31.2939 15.4792 31.2939 15.7841C31.2939 16.0341 31.222 16.2576 31.078 16.4545C30.936 16.6515 30.7371 16.8068 30.4814 16.9205C30.2258 17.0341 29.9284 17.0909 29.5894 17.0909C29.1443 17.0909 28.7759 16.9943 28.4843 16.8011C28.1926 16.608 28.0079 16.3258 27.9303 15.9545L28.5667 15.7955C28.6273 16.0303 28.7419 16.2064 28.9104 16.3239C29.0809 16.4413 29.3034 16.5 29.578 16.5C29.8905 16.5 30.1386 16.4337 30.3223 16.3011C30.5079 16.1667 30.6008 16.0057 30.6008 15.8182C30.6008 15.6667 30.5477 15.5398 30.4417 15.4375C30.3356 15.3333 30.1727 15.2557 29.953 15.2045L29.2258 15.0341C28.8261 14.9394 28.5326 14.7926 28.3451 14.5938C28.1595 14.393 28.0667 14.142 28.0667 13.8409C28.0667 13.5947 28.1358 13.3769 28.274 13.1875C28.4142 12.9981 28.6045 12.8494 28.8451 12.7415C29.0875 12.6335 29.3621 12.5795 29.6689 12.5795C30.1008 12.5795 30.4398 12.6742 30.686 12.8636C30.9341 13.053 31.1102 13.303 31.2144 13.6136Z" fill="#F6F7F8"/>
<path d="M55.4597 11.1818V17H54.7779L51.6075 12.4318H51.5507V17H50.8461V11.1818H51.5279L54.7097 15.7614H54.7666V11.1818H55.4597ZM58.4714 17.0909C58.0774 17.0909 57.7318 16.9972 57.4344 16.8097C57.139 16.6222 56.9079 16.3598 56.7413 16.0227C56.5765 15.6856 56.4941 15.2917 56.4941 14.8409C56.4941 14.3864 56.5765 13.9896 56.7413 13.6506C56.9079 13.3116 57.139 13.0483 57.4344 12.8608C57.7318 12.6733 58.0774 12.5795 58.4714 12.5795C58.8653 12.5795 59.21 12.6733 59.5055 12.8608C59.8028 13.0483 60.0339 13.3116 60.1986 13.6506C60.3653 13.9896 60.4486 14.3864 60.4486 14.8409C60.4486 15.2917 60.3653 15.6856 60.1986 16.0227C60.0339 16.3598 59.8028 16.6222 59.5055 16.8097C59.21 16.9972 58.8653 17.0909 58.4714 17.0909ZM58.4714 16.4886C58.7706 16.4886 59.0168 16.4119 59.21 16.2585C59.4032 16.1051 59.5462 15.9034 59.639 15.6534C59.7318 15.4034 59.7782 15.1326 59.7782 14.8409C59.7782 14.5492 59.7318 14.2775 59.639 14.0256C59.5462 13.7737 59.4032 13.5701 59.21 13.4148C59.0168 13.2595 58.7706 13.1818 58.4714 13.1818C58.1721 13.1818 57.9259 13.2595 57.7327 13.4148C57.5395 13.5701 57.3966 13.7737 57.3038 14.0256C57.2109 14.2775 57.1645 14.5492 57.1645 14.8409C57.1645 15.1326 57.2109 15.4034 57.3038 15.6534C57.3966 15.9034 57.5395 16.1051 57.7327 16.2585C57.9259 16.4119 58.1721 16.4886 58.4714 16.4886Z" fill="#101828"/>
</svg>
