<svg xmlns="http://www.w3.org/2000/svg" width="100" height="100" fill="none" viewBox="0 0 100 100"><path fill="#0071CE" d="M90.8055 74.8567L86.4573 70.0068L81.942 74.8567H73.0785H54.0137V52.2799H45.1502L56.1877 27.0273H66.8908L70.7372 35.7235V27.0273H84.116L86.4573 33.5495L88.7986 27.0273H99V23.1809C99 20.8396 97.1604 19 94.8191 19H5.18089C2.83959 19 1 20.8396 1 23.1809V77.5324C1 79.8737 2.83959 81.7133 5.18089 81.7133H94.8191C97.1604 81.7133 99 79.8737 99 77.5324V74.8567H90.8055Z"/><path fill="#0071CE" d="M91.9761 72.1813H99L89.802 62.3144L99 52.6147H92.1433L86.2901 58.9697L80.6041 52.6147H73.5802L82.9454 62.4816L73.5802 72.1813H80.4368L86.2901 65.8263L91.9761 72.1813Z"/><path fill="#0071CE" d="M62.3753 67.6659V64.6557H73.4129V60.1403H62.3753V57.1301H73.5801V52.6147H57.0238V72.1813H73.5801V67.6659H62.3753Z"/><path fill="#0071CE" d="M93.8157 49.7716H98.8327V30.0378L90.8054 30.2051L86.4573 42.4133L81.942 30.2051H73.5802V49.7716H78.9317V36.0583L83.9488 49.7716H88.6314L93.8157 36.0583V49.7716Z"/><path fill="#0071CE" d="M65.0513 30.2053H58.1946L49.4984 49.7719H55.3516L57.024 45.9255H66.0547L67.7271 49.7719H73.7475L65.0513 30.2053ZM58.8636 41.4101L61.5394 35.0552L64.2151 41.4101H58.8636Z"/><path fill="#0071CE" d="M94.1502 61.8122L99 67.1638V56.4607L94.1502 61.8122Z"/></svg>