<svg width="100" height="100" viewBox="0 0 100 100" fill="none" xmlns="http://www.w3.org/2000/svg">
<path fill-rule="evenodd" clip-rule="evenodd" d="M63.012 20.0488C66.22 16.3308 68.3823 11.1524 67.7906 6C63.1678 6.176 57.575 8.95307 54.2602 12.6667C51.2837 15.9622 48.6853 21.2281 49.3838 26.2793C54.5406 26.662 59.8041 23.7711 63.012 20.0488ZM74.5758 52.7504C74.7048 66.0692 86.7669 70.4996 86.9003 70.5568C86.8024 70.8692 84.9738 76.8698 80.5467 83.0738C76.7159 88.433 72.7426 93.7704 66.4825 93.8848C60.3335 93.9948 58.3536 90.3914 51.3193 90.3914C44.2894 90.3914 42.0914 93.77 36.2717 93.9944C30.2296 94.21 25.6245 88.1962 21.767 82.8546C13.8739 71.9294 7.84511 51.9808 15.9428 38.5169C19.965 31.8333 27.1506 27.5945 34.9547 27.4889C40.8856 27.3789 46.4873 31.3131 50.1135 31.3131C53.7397 31.3131 60.5471 26.5831 67.7016 27.2783C70.696 27.3971 79.1051 28.4352 84.5021 36.0075C84.0661 36.2671 74.469 41.6185 74.5758 52.7504Z" fill="black"/>
</svg>
