<svg width="81" height="96" viewBox="0 0 81 96" fill="none" xmlns="http://www.w3.org/2000/svg"><path fill-rule="evenodd" clip-rule="evenodd" d="M55.132 15.566c3.474-4.026 5.815-9.634 5.175-15.213-5.007.19-11.063 3.198-14.652 7.22-3.224 3.568-6.037 9.27-5.28 14.74 5.583.415 11.283-2.716 14.757-6.747Zm12.522 35.412C67.794 65.401 80.856 70.198 81 70.26c-.106.338-2.086 6.836-6.88 13.554-4.148 5.804-8.451 11.584-15.23 11.708-6.659.119-8.803-3.783-16.42-3.783-7.612 0-9.993 3.658-16.295 3.901-6.543.234-11.53-6.278-15.707-12.063-8.547-11.83-15.075-33.432-6.306-48.012 4.355-7.238 12.136-11.828 20.587-11.942 6.423-.12 12.489 4.141 16.415 4.141 3.927 0 11.299-5.122 19.046-4.37 3.243.13 12.349 1.254 18.193 9.453-.472.282-10.865 6.076-10.749 18.131Z" fill="#000"/></svg>
