<svg width="24" height="24" viewBox="0 0 24 24" fill="none" xmlns="http://www.w3.org/2000/svg">
<path d="M10.9886 20.4716C10.9886 19.8094 10.5963 19.21 9.98892 18.9441C9.09077 18.5518 8.31609 18.0181 7.66588 17.345C7.01467 16.6718 6.50386 15.8753 6.13444 14.9542C5.76403 14.0341 5.57882 13.0354 5.57882 11.958C5.57882 10.9703 5.74113 10.0283 6.06673 9.13017C6.39134 8.23302 6.85834 7.44639 7.46374 6.77327C8.07014 6.10016 8.79902 5.56744 9.65236 5.17413C9.74696 5.13031 9.84354 5.08949 9.94013 5.05065C10.5734 4.79973 10.9876 4.18536 10.9876 3.50428V0.497172C10.9876 0.22235 10.7417 0.00926203 10.4699 0.05407C9.54184 0.206418 8.65165 0.453359 7.8003 0.797882C6.27384 1.41524 4.94355 2.26858 3.8104 3.35691C2.67626 4.44625 1.79006 5.73074 1.1508 7.21239C0.511544 8.69404 0.190918 10.2872 0.190918 11.9929C0.190918 13.6986 0.504573 15.2589 1.13387 16.7405C1.76218 18.2222 2.62648 19.5067 3.72676 20.596C4.82605 21.6854 6.11751 22.5437 7.59817 23.172C8.51424 23.5603 9.47413 23.8282 10.4758 23.9765C10.7457 24.0164 10.9876 23.8043 10.9876 23.5314V20.4736L10.9886 20.4716Z" fill="#ED3349"/>
<path d="M11.9058 1.1791V1.18707C11.9058 1.69589 12.2941 2.11907 12.8009 2.16488C17.8403 2.61794 21.7894 6.85279 21.7894 12.0097C21.7894 17.1666 17.8403 21.4014 12.8009 21.8545C12.2941 21.9003 11.9058 22.3235 11.9058 22.8323V22.8403C11.9058 23.4168 12.4006 23.8708 12.9752 23.8201C19.0223 23.2794 23.7629 18.1982 23.7629 12.0107C23.7629 5.8232 19.0223 0.741976 12.9752 0.201294C12.4006 0.149515 11.9058 0.603569 11.9058 1.1811V1.1791Z" fill="#231F20"/>
<path d="M19.8099 12.0086C19.8099 8.01974 16.8556 4.72088 13.015 4.18119C12.4275 4.09854 11.9048 4.56256 11.9048 5.15601C11.9048 5.64093 12.2583 6.05914 12.7392 6.12685C15.6248 6.53211 17.8453 9.01149 17.8453 12.0086C17.8453 15.0058 15.6248 17.4852 12.7392 17.8904C12.2583 17.9581 11.9048 18.3754 11.9048 18.8613C11.9048 19.4547 12.4275 19.9177 13.015 19.8361C16.8546 19.2964 19.8099 15.9975 19.8099 12.0086Z" fill="#231F20"/>
<path d="M15.8578 12.0089C15.8578 9.97465 14.3204 8.29883 12.3449 8.08077C12.1099 8.05488 11.9058 8.24207 11.9058 8.47806V15.5398C11.9058 15.7758 12.1099 15.963 12.3449 15.9371C14.3214 15.719 15.8578 14.0432 15.8578 12.0089Z" fill="#231F20"/>
</svg>
