<svg width="131" height="24" viewBox="0 0 131 24" fill="none" xmlns="http://www.w3.org/2000/svg">
<path d="M8.66669 12.0001C8.66669 12.8841 9.01788 13.732 9.643 14.3571C10.2681 14.9822 11.116 15.3334 12 15.3334C12.8841 15.3334 13.7319 14.9822 14.357 14.3571C14.9822 13.732 15.3334 12.8841 15.3334 12.0001C15.3334 11.116 14.9822 10.2682 14.357 9.64306C13.7319 9.01794 12.8841 8.66675 12 8.66675C11.116 8.66675 10.2681 9.01794 9.643 9.64306C9.01788 10.2682 8.66669 11.116 8.66669 12.0001Z" stroke="#107154" stroke-width="2.22222" stroke-linecap="round" stroke-linejoin="round"/>
<path d="M2 7.55547C2 6.9661 2.23413 6.40087 2.65087 5.98413C3.06762 5.56738 3.63285 5.33325 4.22222 5.33325H19.7778C20.3671 5.33325 20.9324 5.56738 21.3491 5.98413C21.7659 6.40087 22 6.9661 22 7.55547V16.4444C22 17.0337 21.7659 17.599 21.3491 18.0157C20.9324 18.4325 20.3671 18.6666 19.7778 18.6666H4.22222C3.63285 18.6666 3.06762 18.4325 2.65087 18.0157C2.23413 17.599 2 17.0337 2 16.4444V7.55547Z" stroke="#107154" stroke-width="2.22222" stroke-linecap="round" stroke-linejoin="round"/>
<path d="M18.6667 12H18.6778" stroke="#107154" stroke-width="2.22222" stroke-linecap="round" stroke-linejoin="round"/>
<path d="M5.33331 12H5.34442" stroke="#107154" stroke-width="2.22222" stroke-linecap="round" stroke-linejoin="round"/>
<path d="M34.2187 17.8119C33.1421 17.8119 32.2125 17.5776 31.4299 17.1091C30.6523 16.6406 30.0517 15.9851 29.628 15.1427C29.2093 14.3004 29 13.3209 29 12.2044C29 11.0879 29.2093 10.1085 29.628 9.26609C30.0517 8.42372 30.6523 7.76827 31.4299 7.29973C32.2125 6.83119 33.1421 6.59692 34.2187 6.59692C35.4549 6.59692 36.4916 6.90347 37.329 7.51655C38.1714 8.12964 38.7645 8.95955 39.1084 10.0063L37.0598 10.5745C36.8605 9.92155 36.524 9.41563 36.0505 9.05675C35.577 8.69288 34.9664 8.51095 34.2187 8.51095C33.5358 8.51095 32.9651 8.66297 32.5066 8.96703C32.053 9.27108 31.7115 9.69974 31.4823 10.253C31.253 10.8063 31.1383 11.4568 31.1383 12.2044C31.1383 12.9521 31.253 13.6026 31.4823 14.1558C31.7115 14.7091 32.053 15.1378 32.5066 15.4418C32.9651 15.7459 33.5358 15.8979 34.2187 15.8979C34.9664 15.8979 35.577 15.716 36.0505 15.3521C36.524 14.9882 36.8605 14.4823 37.0598 13.8343L39.1084 14.4026C38.7645 15.4493 38.1714 16.2792 37.329 16.8923C36.4916 17.5054 35.4549 17.8119 34.2187 17.8119Z" fill="black"/>
<path d="M42.6986 17.8119C42.1205 17.8119 41.6295 17.7023 41.2257 17.4829C40.827 17.2586 40.5229 16.9621 40.3136 16.5932C40.1092 16.2194 40.007 15.8082 40.007 15.3596C40.007 14.9857 40.0644 14.6443 40.179 14.3353C40.2937 14.0262 40.4781 13.7546 40.7323 13.5203C40.9915 13.2811 41.3379 13.0817 41.7715 12.9222C42.0706 12.8125 42.427 12.7153 42.8407 12.6306C43.2544 12.5459 43.7229 12.4661 44.2463 12.3913C44.7697 12.3116 45.3454 12.2244 45.9734 12.1297L45.2407 12.5334C45.2407 12.0549 45.1261 11.7035 44.8968 11.4792C44.6675 11.2549 44.2837 11.1427 43.7454 11.1427C43.4463 11.1427 43.1348 11.215 42.8108 11.3596C42.4868 11.5041 42.26 11.7608 42.1304 12.1297L40.2912 11.5465C40.4955 10.8786 40.8793 10.3353 41.4426 9.91656C42.0058 9.49787 42.7734 9.28852 43.7454 9.28852C44.4582 9.28852 45.0912 9.39818 45.6444 9.61749C46.1977 9.83681 46.6164 10.2156 46.9005 10.7539C47.06 11.053 47.1547 11.3521 47.1846 11.6511C47.2146 11.9502 47.2295 12.2842 47.2295 12.653V17.5876H45.4501V15.9278L45.7043 16.2717C45.3105 16.815 44.8843 17.2088 44.4258 17.453C43.9722 17.6923 43.3965 17.8119 42.6986 17.8119ZM43.1323 16.2119C43.5061 16.2119 43.8201 16.1471 44.0744 16.0175C44.3335 15.8829 44.5379 15.7309 44.6874 15.5614C44.842 15.392 44.9466 15.2499 45.0015 15.1353C45.1061 14.916 45.1659 14.6617 45.1809 14.3727C45.2008 14.0786 45.2108 13.8343 45.2108 13.6399L45.8089 13.7895C45.2058 13.8892 44.7173 13.9739 44.3435 14.0437C43.9697 14.1085 43.6681 14.1683 43.4388 14.2231C43.2096 14.2779 43.0077 14.3378 42.8332 14.4026C42.6338 14.4823 42.4719 14.5695 42.3472 14.6642C42.2276 14.754 42.1379 14.8537 42.0781 14.9633C42.0233 15.073 41.9958 15.1951 41.9958 15.3297C41.9958 15.5141 42.0407 15.6736 42.1304 15.8082C42.2251 15.9378 42.3572 16.0375 42.5267 16.1072C42.6962 16.177 42.898 16.2119 43.1323 16.2119Z" fill="black"/>
<path d="M52.0296 17.8119C51.0128 17.8119 50.1904 17.5826 49.5623 17.1241C48.9393 16.6605 48.5605 16.0075 48.4259 15.1652L50.5044 14.8512C50.5891 15.23 50.776 15.5265 51.0651 15.7409C51.3592 15.9552 51.7306 16.0624 52.1792 16.0624C52.548 16.0624 52.8321 15.9926 53.0315 15.853C53.2309 15.7085 53.3306 15.5091 53.3306 15.2549C53.3306 15.0954 53.2907 14.9683 53.2109 14.8736C53.1312 14.7739 52.9518 14.6767 52.6726 14.582C52.3985 14.4873 51.9698 14.3627 51.3866 14.2082C50.7287 14.0387 50.2028 13.8493 49.8091 13.6399C49.4153 13.4306 49.1312 13.1814 48.9567 12.8923C48.7823 12.5982 48.695 12.2443 48.695 11.8306C48.695 11.3122 48.8271 10.8636 49.0913 10.4848C49.3555 10.101 49.7268 9.8069 50.2053 9.60254C50.6888 9.3932 51.257 9.28852 51.91 9.28852C52.543 9.28852 53.1038 9.38572 53.5923 9.58011C54.0807 9.7745 54.4745 10.0511 54.7736 10.41C55.0776 10.7689 55.2645 11.1926 55.3343 11.6811L53.2558 12.0549C53.2209 11.7558 53.0913 11.5191 52.867 11.3446C52.6427 11.1701 52.3387 11.068 51.9549 11.0381C51.581 11.0131 51.2795 11.063 51.0502 11.1876C50.8259 11.3122 50.7137 11.4916 50.7137 11.7259C50.7137 11.8655 50.7611 11.9826 50.8558 12.0773C50.9555 12.172 51.1574 12.2692 51.4614 12.3689C51.7704 12.4686 52.239 12.5982 52.867 12.7577C53.4801 12.9172 53.9711 13.1041 54.3399 13.3184C54.7138 13.5278 54.9854 13.782 55.1549 14.0811C55.3244 14.3751 55.4091 14.7315 55.4091 15.1502C55.4091 15.9776 55.11 16.6281 54.5119 17.1016C53.9138 17.5752 53.0863 17.8119 52.0296 17.8119Z" fill="black"/>
<path d="M62.2558 17.5876V13.7745C62.2558 13.5901 62.2459 13.3558 62.2259 13.0717C62.206 12.7826 62.1437 12.4935 62.039 12.2044C61.9343 11.9153 61.7624 11.6736 61.5231 11.4792C61.2889 11.2848 60.9549 11.1876 60.5213 11.1876C60.3468 11.1876 60.1599 11.215 59.9605 11.2698C59.7611 11.3247 59.5742 11.4318 59.3998 11.5913C59.2253 11.7459 59.0808 11.9751 58.9661 12.2792C58.8565 12.5832 58.8016 12.987 58.8016 13.4904L57.6353 12.9371C57.6353 12.2991 57.7649 11.701 58.024 11.1427C58.2832 10.5845 58.672 10.1334 59.1904 9.78946C59.7138 9.44553 60.3717 9.27357 61.1642 9.27357C61.7973 9.27357 62.3132 9.38073 62.7119 9.59507C63.1107 9.8094 63.4197 10.081 63.639 10.41C63.8633 10.739 64.0228 11.0829 64.1175 11.4418C64.2122 11.7957 64.2696 12.1197 64.2895 12.4138C64.3094 12.7078 64.3194 12.9222 64.3194 13.0568V17.5876H62.2558ZM56.7381 17.5876V6.82122H58.5474V12.354H58.8016V17.5876H56.7381Z" fill="black"/>
<path d="M68.6549 17.5876V6.82122H73.2007C73.3054 6.82122 73.445 6.82621 73.6194 6.83618C73.7989 6.84116 73.9584 6.85611 74.0979 6.88104C74.7409 6.98073 75.2668 7.19256 75.6755 7.51655C76.0892 7.84054 76.3933 8.24927 76.5877 8.74273C76.7821 9.2312 76.8793 9.777 76.8793 10.3801C76.8793 10.9832 76.7796 11.5315 76.5802 12.025C76.3858 12.5135 76.0817 12.9197 75.668 13.2437C75.2593 13.5677 74.7359 13.7795 74.0979 13.8792C73.9584 13.8991 73.7989 13.9141 73.6194 13.9241C73.44 13.934 73.3004 13.939 73.2007 13.939H70.6886V17.5876H68.6549ZM70.6886 12.0399H73.111C73.2157 12.0399 73.3303 12.0349 73.4549 12.025C73.5796 12.015 73.6942 11.9951 73.7989 11.9652C74.073 11.8904 74.2849 11.7658 74.4344 11.5913C74.5839 11.4119 74.6861 11.215 74.7409 11.0007C74.8007 10.7814 74.8307 10.5745 74.8307 10.3801C74.8307 10.1857 74.8007 9.98136 74.7409 9.76703C74.6861 9.54771 74.5839 9.35083 74.4344 9.17637C74.2849 8.99693 74.073 8.86983 73.7989 8.79506C73.6942 8.76516 73.5796 8.74522 73.4549 8.73525C73.3303 8.72528 73.2157 8.72029 73.111 8.72029H70.6886V12.0399Z" fill="black"/>
<path d="M80.1637 17.8119C79.5855 17.8119 79.0946 17.7023 78.6908 17.4829C78.2921 17.2586 77.988 16.9621 77.7787 16.5932C77.5743 16.2194 77.4721 15.8082 77.4721 15.3596C77.4721 14.9857 77.5294 14.6443 77.6441 14.3353C77.7587 14.0262 77.9432 13.7546 78.1974 13.5203C78.4566 13.2811 78.803 13.0817 79.2366 12.9222C79.5357 12.8125 79.8921 12.7153 80.3058 12.6306C80.7195 12.5459 81.188 12.4661 81.7114 12.3913C82.2348 12.3116 82.8105 12.2244 83.4385 12.1297L82.7058 12.5334C82.7058 12.0549 82.5911 11.7035 82.3619 11.4792C82.1326 11.2549 81.7488 11.1427 81.2105 11.1427C80.9114 11.1427 80.5999 11.215 80.2759 11.3596C79.9519 11.5041 79.7251 11.7608 79.5955 12.1297L77.7562 11.5465C77.9606 10.8786 78.3444 10.3353 78.9076 9.91656C79.4709 9.49787 80.2385 9.28852 81.2105 9.28852C81.9232 9.28852 82.5563 9.39818 83.1095 9.61749C83.6628 9.83681 84.0815 10.2156 84.3656 10.7539C84.5251 11.053 84.6198 11.3521 84.6497 11.6511C84.6796 11.9502 84.6946 12.2842 84.6946 12.653V17.5876H82.9151V15.9278L83.1693 16.2717C82.7756 16.815 82.3494 17.2088 81.8908 17.453C81.4373 17.6923 80.8615 17.8119 80.1637 17.8119ZM80.5974 16.2119C80.9712 16.2119 81.2852 16.1471 81.5394 16.0175C81.7986 15.8829 82.003 15.7309 82.1525 15.5614C82.307 15.392 82.4117 15.2499 82.4665 15.1353C82.5712 14.916 82.631 14.6617 82.646 14.3727C82.6659 14.0786 82.6759 13.8343 82.6759 13.6399L83.274 13.7895C82.6709 13.8892 82.1824 13.9739 81.8086 14.0437C81.4348 14.1085 81.1332 14.1683 80.9039 14.2231C80.6746 14.2779 80.4728 14.3378 80.2983 14.4026C80.0989 14.4823 79.9369 14.5695 79.8123 14.6642C79.6927 14.754 79.603 14.8537 79.5432 14.9633C79.4883 15.073 79.4609 15.1951 79.4609 15.3297C79.4609 15.5141 79.5058 15.6736 79.5955 15.8082C79.6902 15.9378 79.8223 16.0375 79.9918 16.1072C80.1612 16.177 80.3631 16.2119 80.5974 16.2119Z" fill="black"/>
<path d="M86.9187 21.1764L88.4738 16.8998L88.5037 18.1558L84.9897 9.51282H87.0981L89.4607 15.6287H88.9822L91.3299 9.51282H93.3635L88.8028 21.1764H86.9187Z" fill="black"/>
<path d="M103.836 17.5876V12.8175C103.836 12.2842 103.708 11.8705 103.454 11.5764C103.205 11.2773 102.859 11.1278 102.415 11.1278C102.131 11.1278 101.884 11.1951 101.675 11.3297C101.465 11.4592 101.301 11.6437 101.181 11.8829C101.067 12.1172 101.009 12.3888 101.009 12.6979L100.157 12.1297C100.157 11.5764 100.287 11.0879 100.546 10.6642C100.81 10.2405 101.161 9.91158 101.6 9.67731C102.044 9.43805 102.535 9.31843 103.073 9.31843C103.995 9.31843 104.69 9.59257 105.159 10.1409C105.632 10.6842 105.869 11.3969 105.869 12.2792V17.5876H103.836ZM94.1009 17.5876V9.51282H95.8953V12.1895H96.1495V17.5876H94.1009ZM98.9757 17.5876V12.8175C98.9757 12.2842 98.8486 11.8705 98.5944 11.5764C98.3452 11.2773 97.9988 11.1278 97.5551 11.1278C97.1315 11.1278 96.79 11.2748 96.5308 11.5689C96.2766 11.858 96.1495 12.2343 96.1495 12.6979L95.2972 12.0997C95.2972 11.5714 95.4293 11.0979 95.6935 10.6792C95.9576 10.2605 96.3115 9.92902 96.7551 9.68478C97.2037 9.44055 97.7047 9.31843 98.2579 9.31843C98.891 9.31843 99.4094 9.45301 99.8131 9.72217C100.222 9.99133 100.523 10.3502 100.718 10.7988C100.912 11.2474 101.009 11.7409 101.009 12.2792V17.5876H98.9757Z" fill="black"/>
<path d="M111.122 17.8119C110.294 17.8119 109.564 17.635 108.931 17.2811C108.303 16.9222 107.809 16.4312 107.451 15.8082C107.097 15.1801 106.92 14.4624 106.92 13.6549C106.92 12.7726 107.094 12.005 107.443 11.3521C107.792 10.6991 108.273 10.1932 108.886 9.83432C109.499 9.47045 110.204 9.28852 111.002 9.28852C111.849 9.28852 112.57 9.4879 113.163 9.88665C113.756 10.2854 114.194 10.8462 114.479 11.5689C114.763 12.2916 114.862 13.1415 114.778 14.1184H112.766V13.3708C112.766 12.5483 112.634 11.9577 112.37 11.5988C112.111 11.2349 111.685 11.053 111.092 11.053C110.399 11.053 109.888 11.2649 109.559 11.6885C109.235 12.1072 109.073 12.7278 109.073 13.5502C109.073 14.3029 109.235 14.886 109.559 15.2998C109.888 15.7085 110.369 15.9128 111.002 15.9128C111.401 15.9128 111.742 15.8256 112.026 15.6512C112.31 15.4767 112.527 15.225 112.677 14.896L114.71 15.4792C114.406 16.2169 113.925 16.7901 113.267 17.1988C112.614 17.6076 111.899 17.8119 111.122 17.8119ZM108.445 14.1184V12.6082H113.798V14.1184H108.445Z" fill="black"/>
<path d="M121.451 17.5876V13.7745C121.451 13.5901 121.441 13.3558 121.421 13.0717C121.401 12.7826 121.338 12.4935 121.234 12.2044C121.129 11.9153 120.957 11.6736 120.718 11.4792C120.484 11.2848 120.15 11.1876 119.716 11.1876C119.542 11.1876 119.355 11.215 119.155 11.2698C118.956 11.3247 118.769 11.4318 118.594 11.5913C118.42 11.7459 118.275 11.9751 118.161 12.2792C118.051 12.5832 117.996 12.987 117.996 13.4904L116.83 12.9371C116.83 12.2991 116.96 11.701 117.219 11.1427C117.478 10.5845 117.867 10.1334 118.385 9.78946C118.908 9.44553 119.566 9.27357 120.359 9.27357C120.992 9.27357 121.508 9.38073 121.907 9.59507C122.305 9.8094 122.614 10.081 122.834 10.41C123.058 10.739 123.218 11.0829 123.312 11.4418C123.407 11.7957 123.464 12.1197 123.484 12.4138C123.504 12.7078 123.514 12.9222 123.514 13.0568V17.5876H121.451ZM115.933 17.5876V9.51282H117.742V12.1895H117.996V17.5876H115.933Z" fill="black"/>
<path d="M130 17.5876C129.442 17.6923 128.893 17.7371 128.355 17.7222C127.822 17.7122 127.343 17.62 126.92 17.4456C126.501 17.2661 126.182 16.9795 125.963 16.5857C125.763 16.2169 125.659 15.8431 125.649 15.4642C125.639 15.0804 125.634 14.6468 125.634 14.1633V7.26982H127.667V14.0437C127.667 14.3577 127.67 14.6418 127.675 14.896C127.685 15.1452 127.737 15.3446 127.832 15.4942C128.011 15.7783 128.298 15.9328 128.692 15.9577C129.085 15.9826 129.521 15.9627 130 15.8979V17.5876ZM124.258 11.0829V9.51282H130V11.0829H124.258Z" fill="black"/>
</svg>
