<svg width="100" height="100" viewBox="0 0 100 100" fill="none" xmlns="http://www.w3.org/2000/svg">
<path d="M87.1391 73.9453C76.9925 89.571 60.555 93.8326 54.0612 93.4267C15.3013 91.6003 21.1863 40.2586 44.5234 40.4615C27.883 51.014 50.6114 85.9183 84.0951 72.3218C87.545 69.8866 88.1538 72.9306 87.1391 73.9453Z" fill="url(#paint0_radial_7853_246)"/>
<path d="M61.1638 49.796C64.8166 33.1556 54.8729 22.4002 34.9856 22.4002C15.0983 22.4002 5.76346 41.07 5.76346 50.6077C5.76346 75.7713 31.1299 101.949 64.0049 91.8029C36.812 99.7172 20.5775 68.2628 34.3768 49.1872C43.7117 35.7937 59.3374 35.3879 61.1638 49.796ZM81.457 18.1387H81.6599H81.457Z" fill="url(#paint1_radial_7853_246)"/>
<path d="M5.96638 49.3903C8.40157 -4.99546 83.0805 -8.03943 93.8358 39.0407C96.6769 60.7544 76.3837 69.2776 60.1492 62.3779C51.626 57.1017 65.4254 58.3193 59.5404 42.2876C49.7996 19.5593 8.6045 21.3857 5.96638 49.3903Z" fill="url(#paint2_linear_7853_246)"/>
<defs>
<radialGradient id="paint0_radial_7853_246" cx="0" cy="0" r="1" gradientUnits="userSpaceOnUse" gradientTransform="translate(62.944 66.9568) scale(30.7986 26.4959)">
<stop offset="0.8" stop-color="#114488"/>
<stop offset="1" stop-color="#113377"/>
</radialGradient>
<radialGradient id="paint1_radial_7853_246" cx="0" cy="0" r="1" gradientUnits="userSpaceOnUse" gradientTransform="translate(43.7117 63.6814) scale(37.9482 37.9522)">
<stop offset="0.8" stop-color="#3388CC"/>
<stop offset="1" stop-color="#226699"/>
</radialGradient>
<linearGradient id="paint2_linear_7853_246" x1="5.96639" y1="35.3593" x2="76.442" y2="88.252" gradientUnits="userSpaceOnUse">
<stop offset="0.1" stop-color="#55AADD"/>
<stop offset="0.6" stop-color="#55CC88"/>
<stop offset="0.8" stop-color="#77DD55"/>
</linearGradient>
</defs>
</svg>
