<svg width="100" height="100" viewBox="0 0 100 100" fill="none" xmlns="http://www.w3.org/2000/svg"><path d="M85.742 73.047c-9.765 15.039-25.586 19.14-31.836 18.75-37.304-1.758-31.64-51.172-9.18-50.977-16.015 10.157 5.86 43.75 38.087 30.664 3.32-2.343 3.906.586 2.93 1.563Z" fill="url(#a)"/><path d="M60.742 49.805c3.516-16.016-6.054-26.367-25.195-26.367-19.14 0-28.125 17.968-28.125 27.148 0 24.219 24.414 49.414 56.055 39.648C37.305 97.852 21.68 67.578 34.96 49.22c8.984-12.89 24.023-13.282 25.781.586Zm19.531-30.47h.196-.196Z" fill="url(#b)"/><path d="M7.617 49.414C9.961-2.93 81.836-5.859 92.187 39.453c2.735 20.898-16.796 29.102-32.421 22.461-8.203-5.078 5.078-3.906-.586-19.336-9.375-21.875-49.024-20.117-51.563 6.836Z" fill="url(#c)"/><defs><radialGradient id="a" cx="0" cy="0" r="1" gradientUnits="userSpaceOnUse" gradientTransform="matrix(29.6422 0 0 25.5011 62.456 66.32)"><stop offset=".8" stop-color="#148"/><stop offset="1" stop-color="#137"/></radialGradient><radialGradient id="b" cx="0" cy="0" r="1" gradientUnits="userSpaceOnUse" gradientTransform="matrix(36.5234 0 0 36.5273 43.945 63.169)"><stop offset=".8" stop-color="#38C"/><stop offset="1" stop-color="#269"/></radialGradient><linearGradient id="c" x1="7.617" y1="35.91" x2="75.447" y2="86.817" gradientUnits="userSpaceOnUse"><stop offset=".1" stop-color="#5AD"/><stop offset=".6" stop-color="#5C8"/><stop offset=".8" stop-color="#7D5"/></linearGradient></defs></svg>
