<svg xmlns="http://www.w3.org/2000/svg" width="40" height="40" preserveAspectRatio="xMidYMid meet" version="1.0" viewBox="0 0 256 258"><g fill="#3d5a99" stroke="none"><path d="M1195 2532 c-22 -10 -245 -137 -495 -281 -474 -273 -519 -305 -539 -377 -15 -55 -15 -1134 0 -1189 6 -22 27 -55 48 -75 20 -20 252 -160 516 -312 514 -296 530 -303 611 -276 35 13 840 472 970 554 36 22 58 45 73 76 21 44 21 52 21 629 0 549 -2 586 -19 625 -10 23 -34 53 -52 66 -19 14 -247 148 -508 299 -446 256 -478 273 -530 276 -40 3 -68 -2 -96 -15z m285 -627 c30 -10 57 -19 59 -21 4 -4 -379 -1135 -388 -1146 -9 -10 -141 34 -141 47 0 12 377 1123 386 1137 3 5 11 7 18 5 6 -2 36 -12 66 -22z m-670 -365 c0 -3 -74 -66 -165 -140 -90 -74 -164 -138 -165 -141 0 -3 74 -68 165 -143 102 -85 163 -142 158 -149 -3 -7 -22 -31 -41 -54 l-34 -42 -229 191 c-126 105 -227 194 -223 197 3 3 105 90 227 193 l222 187 42 -47 c24 -26 43 -49 43 -52z m1238 -95 c122 -102 222 -189 222 -194 0 -7 -443 -381 -452 -381 -7 0 -81 101 -77 104 2 2 76 63 164 136 88 72 161 135 162 138 1 6 -137 123 -303 259 l-27 21 37 51 c21 28 41 51 45 51 4 0 107 -83 229 -185z" transform="translate(0,256) scale(0.1,-0.1)"/></g></svg>