<svg width="100" height="100" viewBox="0 0 100 100" fill="none" xmlns="http://www.w3.org/2000/svg"><path d="M78.746 8.959c-2.344 2.728-3.435 8.869-1.06 15.094 2.377 6.225 6.018 4.873 8.289 11.22 2.996 8.376 1.601 19.628 1.601 19.628s3.601 10.43 6.113-.649C99.247 33.44 78.746 14.087 78.746 8.96Z" fill="url(#a)"/><path d="M50.154 95.366c23.996 0 43.434-19.544 43.434-43.64S74.15 8.086 50.178 8.086c-23.973 0-43.412 19.538-43.412 43.636-.046 24.122 19.415 43.643 43.388 43.643v.001Z" fill="url(#b)"/><path d="M82.698 78.634a24.152 24.152 0 0 1-2.947 1.779 68.871 68.871 0 0 0 3.747-6.164c.926-1.025 1.774-2.021 2.466-3.097.336-.529.714-1.182 1.117-1.94 2.439-4.393 5.127-11.503 5.204-18.806v-.554a25.203 25.203 0 0 0-.559-5.455l.055.421-.063-.323c.036.196.065.392.098.587.5 4.23.144 8.353-1.632 11.395l-.085.129c.92-4.622 1.229-9.726.205-14.834 0 0-.41-2.483-3.462-10.023-1.76-4.34-4.875-7.899-7.632-10.49-2.416-2.989-4.608-4.99-5.819-6.268-2.526-2.661-3.585-4.654-4.021-5.956-.377-.189-5.2-4.873-5.582-5.052-2.104 3.264-8.724 13.471-5.578 23.01 1.427 4.321 5.037 8.805 8.813 11.324.167.19 2.251 2.446 3.24 7.55 1.022 5.269.488 9.38-1.62 15.46-2.475 5.332-8.812 10.606-14.747 11.145-12.688 1.152-17.333-6.37-17.333-6.37 4.534 1.812 9.547 1.433 12.594-.446 3.073-1.902 4.932-3.31 6.439-2.755 1.484.546 2.672-1.061 1.606-2.725a7.681 7.681 0 0 0-7.77-3.382c-3.075.499-5.893 2.935-9.921.577a8.373 8.373 0 0 1-.757-.495c-.264-.176.864.266.6.068-.783-.425-2.172-1.354-2.532-1.685-.059-.054.608.214.548.159-3.767-3.102-3.298-5.199-3.18-6.514.098-1.052.783-2.4 1.932-2.945.558.303.904.536.904.536l-.366-.741c.046-.02.089-.015.134-.034.456.22 1.467.793 1.996 1.142.691.49.913.924.913.924s.181-.098.046-.526c-.048-.174-.259-.729-.944-1.288h.043c.41.233.8.503 1.162.806.196-.703.54-1.436.465-2.75-.047-.922-.026-1.161-.188-1.516-.147-.306.08-.426.334-.108a3.21 3.21 0 0 0-.216-.724v-.023c.316-1.1 6.678-3.96 7.143-4.294a6.59 6.59 0 0 0 1.872-2.035c.354-.564.62-1.355.685-2.554.035-.865-.368-1.441-6.8-2.116-1.762-.173-2.792-1.448-3.38-2.624a15.332 15.332 0 0 0-.325-.712 5.683 5.683 0 0 1-.25-.825c1.051-3.02 2.817-5.577 5.417-7.505.142-.129-.565.034-.425-.098.167-.15 1.243-.587 1.449-.685.248-.117-1.065-.675-2.224-.538-1.181.133-1.432.274-2.062.541.261-.26 1.093-.601.898-.6-1.272.196-2.855.936-4.207 1.774a1.05 1.05 0 0 1 .08-.426c-.63.267-2.177 1.35-2.628 2.264.02-.175.028-.352.026-.528-.48.4-.913.854-1.29 1.352l-.024.022c-3.655-1.468-6.872-1.566-9.594-.909-.597-.596-.886-.16-2.24-3.138-.093-.178.07.177 0 0-.224-.577.136.77 0 0-2.279 1.798-5.276 3.836-6.716 5.274-.017.06 1.68-.479 0 0-.587.169-.548.517-.636 3.67-.021.239 0 .507-.021.722-1.15 1.468-1.933 2.704-2.23 3.346-1.487 2.562-3.124 6.556-4.71 12.872.7-1.71 1.544-3.357 2.523-4.924-1.321 3.354-2.596 8.619-2.85 16.726a47.188 47.188 0 0 1 1.226-4.957 46.281 46.281 0 0 0 3.398 19.675c.913 2.232 2.422 5.622 4.99 9.334 8.077 8.497 19.467 13.781 32.08 13.781 13.168 0 24.992-5.76 33.117-14.908Z" fill="url(#c)"/><path d="M72.955 84.804c15.936-1.845 22.994-18.268 13.931-18.59-8.182-.265-21.475 19.461-13.931 18.59Z" fill="url(#d)"/><path d="M88.033 62.86c10.965-6.382 8.102-20.165 8.102-20.165s-4.232 4.916-7.106 12.751c-2.835 7.764-7.587 11.266-.996 7.413Z" fill="url(#e)"/><path d="M53.226 92.96c15.287 4.878 28.428-7.164 20.326-11.185-7.358-3.626-27.583 8.88-20.327 11.186h.001Z" fill="url(#f)"/><path d="M89.173 68.711c.372-.524.875-2.204 1.32-2.955 2.698-4.356 2.717-7.827 2.717-7.91 1.63-8.142 1.483-11.467.48-17.612-.807-4.951-4.337-12.045-7.394-15.46-3.151-3.523-.93-2.373-3.983-4.943-2.674-2.965-5.266-5.9-6.678-7.08-10.203-8.534-9.973-10.346-9.774-10.657l-.144.16a22.79 22.79 0 0 1-.208-.884s-5.578 5.577-6.752 14.873c-.766 6.066 1.505 12.395 4.795 16.438a37.312 37.312 0 0 0 5.773 5.675c2.485 3.57 3.853 7.975 3.853 12.71 0 11.864-9.622 21.481-21.492 21.481-1.618 0-3.23-.18-4.807-.54-5.601-1.069-8.836-3.895-10.448-5.812-.925-1.1-1.317-1.9-1.317-1.9 5.017 1.797 10.567 1.421 13.94-.443 3.4-1.884 5.457-3.282 7.127-2.732 1.646.548 2.955-1.044 1.78-2.694-1.15-1.65-4.148-4.012-8.598-3.357-3.405.497-6.523 2.912-10.982.572a9.435 9.435 0 0 1-.837-.49c-.293-.173.956.265.665.067-.867-.423-2.404-1.343-2.802-1.67-.066-.055.673.211.607.157-4.17-3.078-3.65-5.157-3.523-6.458.105-1.044.861-2.38 2.14-2.922.34.164.673.341 1 .531l-.405-.734c.049-.02.098-.014.147-.033.754.342 1.492.72 2.211 1.132.766.485 1.01.916 1.01.916s.201-.098.053-.522c-.055-.173-.287-.724-1.045-1.278h.047c.45.23.88.496 1.285.799.215-.697.598-1.425.513-2.726-.052-.915-.027-1.153-.207-1.507-.162-.303.09-.42.37-.108a2.935 2.935 0 0 0-.24-.718v-.023c.35-1.09 7.391-3.926 7.904-4.257a6.88 6.88 0 0 0 2.071-2.018c.392-.56.685-1.344.759-2.534.024-.537-.141-.961-2.006-1.37-1.12-.245-2.851-.48-5.522-.731-1.947-.172-3.09-1.437-3.737-2.603-.118-.251-.24-.48-.36-.706a5.184 5.184 0 0 1-.277-.818 15.505 15.505 0 0 1 5.996-7.443c.156-.127-.627.033-.47-.098.183-.148 1.376-.58 1.602-.677.274-.117-1.174-.669-2.462-.535-1.307.132-1.585.272-2.282.538.294-.258 1.21-.596.994-.595-1.409.196-3.16.928-4.657 1.762a.948.948 0 0 1 .09-.422c-.698.264-2.411 1.337-2.91 2.25.022-.173.032-.348.03-.523a8.68 8.68 0 0 0-1.43 1.34l-.026.022c-4.041-1.458-7.6-1.556-10.61-.9-.659-.593-1.719-1.49-3.219-4.442-.098-.178-.156.367-.235.195-.587-1.35-.934-3.565-.88-5.088 0 0-1.206.548-2.202 2.844a14.91 14.91 0 0 1-.422.868c-.055.066.124-.754.098-.709-.174.294-.623.705-.82 1.235-.135.391-.324.614-.446 1.106l-.03.045c-.009-.145.037-.595 0-.503a23.114 23.114 0 0 0-1.207 2.913c-.538 1.76-1.162 4.168-1.262 7.296-.023.237 0 .503-.024.716-1.272 1.451-2.14 2.681-2.466 3.317-1.644 2.544-3.457 6.501-5.215 12.765a31.225 31.225 0 0 1 2.792-4.892c-1.459 3.327-2.87 8.55-3.153 16.59a42.909 42.909 0 0 1 1.357-4.916c-.252 5.362.373 12.01 3.762 19.515 2.013 4.403 6.646 13.366 17.967 20.357 0 0 3.851 2.867 10.47 5.016l1.49.521a9.093 9.093 0 0 1-.46-.2 47.444 47.444 0 0 0 13.581 1.997c17.141.014 22.197-6.87 22.197-6.87l-.05.038c.242-.228.475-.465.7-.71-2.707 2.552-8.881 2.724-11.185 2.539 3.935-1.155 6.526-2.133 11.562-4.063.587-.219 1.19-.468 1.808-.747l.568-.262a34.17 34.17 0 0 0 6.875-4.306c5.058-4.04 6.16-7.98 6.734-10.577-.08.248-.33.829-.505 1.205-1.302 2.787-4.192 4.501-7.33 5.964a67.437 67.437 0 0 0 4.148-6.11c1.025-1.014 1.34-2.602 2.11-3.672h-.002Z" fill="url(#g)"/><path d="M83.016 78.376c2.062-2.274 3.914-4.875 5.318-7.828 3.61-7.591 9.197-20.213 4.794-33.395-3.473-10.42-8.245-16.116-14.302-21.681C68.988 6.434 66.24 2.399 66.24 0c0 0-11.36 12.661-6.433 25.869 4.928 13.207 15.016 12.72 21.691 26.504 7.854 16.217-6.355 33.914-18.102 38.869.72-.16 26.125-5.908 27.456-20.439-.034.267-.606 4.286-7.837 7.574v-.001Z" fill="url(#h)"/><path d="M50.108 31.25c.039-.859-.407-1.435-7.503-2.1-2.92-.27-4.037-2.968-4.379-4.104-1.037 2.697-1.468 5.528-1.237 8.951.157 2.243 1.664 4.65 2.385 6.066 0 0 .16-.208.235-.283 1.356-1.412 7.039-3.564 7.573-3.87.589-.375 2.828-2.01 2.928-4.66h-.002Z" fill="url(#i)"/><path d="M18.865 15.31c-.098-.178-.157.367-.235.196-.587-1.35-.937-3.542-.853-5.088 0 0-1.206.548-2.202 2.843-.186.411-.303.64-.422.867-.055.067.124-.753.098-.708-.174.293-.623.704-.817 1.211-.162.415-.328.638-.45 1.152-.04.14.039-.619.004-.527-2.323 4.478-2.765 11.26-2.52 10.967 4.94-5.27 10.597-6.52 10.597-6.52-.602-.444-1.911-1.726-3.2-4.394v.001Z" fill="url(#j)"/><path d="M37.607 70.46c-6.822-2.913-14.58-7.02-14.286-16.354.4-12.29 11.464-9.861 11.464-9.861-.418.097-1.534.896-1.93 1.743-.418 1.06-1.18 3.452 1.13 5.96 3.63 3.933-7.456 9.33 9.654 19.527.43.234-4.012-.14-6.031-1.014l-.001-.001Z" fill="url(#k)"/><path d="M35.183 64.335c4.837 1.683 10.47 1.389 13.847-.476 2.26-1.257 5.157-3.271 6.94-2.774-1.544-.61-2.714-.895-4.12-.965a7.96 7.96 0 0 1-.782-.031 13.31 13.31 0 0 0-1.543.084c-.87.08-1.836.63-2.714.541-.047 0 .851-.369.783-.352-.465.098-.97.117-1.504.184-.34.039-.631.08-.969.098-10.078.854-18.59-5.46-18.59-5.46-.725 2.446 3.245 7.27 8.66 9.155l-.008-.004Z" fill="url(#l)"/><path d="M82.998 78.44C93.19 68.431 98.346 56.268 96.166 42.626c0 0 .871 6.996-2.431 14.152 1.585-6.987 1.77-15.666-2.446-24.658-5.624-12-14.875-18.315-18.407-20.947-5.353-3.992-7.569-8.055-7.611-8.894-1.599 3.276-6.435 14.5-.519 24.168 5.543 9.057 14.273 11.742 20.385 20.054 11.26 15.305-2.138 31.937-2.138 31.937h-.001Z" fill="url(#m)"/><path d="M81.536 52.402c-3.561-7.358-8.004-10.567-12.211-14.046.49.685.61.927.88 1.37 3.702 3.945 9.159 13.568 5.196 25.646-7.458 22.738-37.29 12.031-40.42 9.023 1.265 13.16 23.287 19.456 37.631 10.923 8.161-7.725 14.763-20.856 8.924-32.916Z" fill="url(#n)"/><defs><radialGradient id="a" cx="0" cy="0" r="1" gradientUnits="userSpaceOnUse" gradientTransform="matrix(33.5292 1.32323 -1.95042 49.42163 94.979 29.806)"><stop offset=".1" stop-color="#FFEA00"/><stop offset=".17" stop-color="#FFDE00"/><stop offset=".28" stop-color="#FFBF00"/><stop offset=".43" stop-color="#FF8E00"/><stop offset=".77" stop-color="#FF272D"/><stop offset=".87" stop-color="#E0255A"/><stop offset=".95" stop-color="#CC2477"/><stop offset="1" stop-color="#C42482"/></radialGradient><radialGradient id="b" cx="0" cy="0" r="1" gradientUnits="userSpaceOnUse" gradientTransform="translate(64.552 15.007) scale(95.2263)"><stop stop-color="#00CCDA"/><stop offset=".22" stop-color="#0083FF"/><stop offset=".26" stop-color="#007AF9"/><stop offset=".33" stop-color="#005FE7"/><stop offset=".44" stop-color="#2639AD"/><stop offset=".52" stop-color="#401E84"/><stop offset=".57" stop-color="#4A1475"/></radialGradient><radialGradient id="d" cx="0" cy="0" r="1" gradientUnits="userSpaceOnUse" gradientTransform="rotate(5.618 -603.047 1028.903) scale(32.0134)"><stop stop-color="#FFEA00"/><stop offset=".5" stop-color="#FF272D"/><stop offset="1" stop-color="#C42482"/></radialGradient><radialGradient id="e" cx="0" cy="0" r="1" gradientUnits="userSpaceOnUse" gradientTransform="rotate(5.618 -288.776 1014.668) scale(53.4592)"><stop stop-color="#FFE900"/><stop offset=".16" stop-color="#FFAF0E"/><stop offset=".32" stop-color="#FF7A1B"/><stop offset=".47" stop-color="#FF4E26"/><stop offset=".62" stop-color="#FF2C2E"/><stop offset=".76" stop-color="#FF1434"/><stop offset=".89" stop-color="#FF0538"/><stop offset="1" stop-color="#FF0039"/></radialGradient><radialGradient id="f" cx="0" cy="0" r="1" gradientUnits="userSpaceOnUse" gradientTransform="rotate(5.618 -797.668 1067.021) scale(49.0547)"><stop stop-color="#FF272D"/><stop offset=".5" stop-color="#C42482"/><stop offset=".99" stop-color="#620700"/></radialGradient><radialGradient id="g" cx="0" cy="0" r="1" gradientUnits="userSpaceOnUse" gradientTransform="translate(73.355 38.556) scale(76.5342)"><stop offset=".16" stop-color="#FFEA00"/><stop offset=".23" stop-color="#FFDE00"/><stop offset=".37" stop-color="#FFBF00"/><stop offset=".54" stop-color="#FF8E00"/><stop offset=".76" stop-color="#FF272D"/><stop offset=".8" stop-color="#F92433"/><stop offset=".84" stop-color="#E91C45"/><stop offset=".89" stop-color="#CF0E62"/><stop offset=".94" stop-color="#B5007F"/></radialGradient><radialGradient id="h" cx="0" cy="0" r="1" gradientUnits="userSpaceOnUse" gradientTransform="translate(68.967 3.062) scale(87.226)"><stop offset=".28" stop-color="#FFEA00"/><stop offset=".4" stop-color="#FD0"/><stop offset=".63" stop-color="#FFBA00"/><stop offset=".86" stop-color="#FF9100"/><stop offset=".93" stop-color="#FF6711"/><stop offset=".99" stop-color="#FF4A1D"/></radialGradient><linearGradient id="c" x1="56.279" y1="71.349" x2="37.547" y2="10.074" gradientUnits="userSpaceOnUse"><stop stop-color="#000F43" stop-opacity=".4"/><stop offset=".48" stop-color="#001962" stop-opacity=".17"/><stop offset="1" stop-color="#002079" stop-opacity="0"/></linearGradient><linearGradient id="i" x1="18.097" y1="36.713" x2="55.664" y2="30.971" gradientUnits="userSpaceOnUse"><stop stop-color="#C42482" stop-opacity=".5"/><stop offset=".47" stop-color="#FF272D" stop-opacity=".5"/><stop offset=".49" stop-color="#FF2C2C" stop-opacity=".5"/><stop offset=".68" stop-color="#FF7A1A" stop-opacity=".72"/><stop offset=".83" stop-color="#FFB20D" stop-opacity=".87"/><stop offset=".94" stop-color="#FFD605" stop-opacity=".96"/><stop offset="1" stop-color="#FFE302"/></linearGradient><linearGradient id="j" x1="17.327" y1="25.956" x2="13.409" y2="11.871" gradientUnits="userSpaceOnUse"><stop stop-color="#891551" stop-opacity=".6"/><stop offset="1" stop-color="#C42482" stop-opacity="0"/></linearGradient><linearGradient id="k" x1="24.956" y1="45.537" x2="33.026" y2="56.811" gradientUnits="userSpaceOnUse"><stop offset=".01" stop-color="#891551" stop-opacity=".5"/><stop offset=".48" stop-color="#FF272D" stop-opacity=".5"/><stop offset="1" stop-color="#FF272D" stop-opacity="0"/></linearGradient><linearGradient id="l" x1="40.386" y1="65.276" x2="41.124" y2="58.033" gradientUnits="userSpaceOnUse"><stop stop-color="#C42482"/><stop offset=".08" stop-color="#C42482" stop-opacity=".8"/><stop offset=".21" stop-color="#C42482" stop-opacity=".57"/><stop offset=".33" stop-color="#C42482" stop-opacity=".36"/><stop offset=".45" stop-color="#C42482" stop-opacity=".2"/><stop offset=".56" stop-color="#C42482" stop-opacity=".1"/><stop offset=".67" stop-color="#C42482" stop-opacity=".02"/><stop offset=".77" stop-color="#C42482" stop-opacity="0"/></linearGradient><linearGradient id="m" x1="64.093" y1="3.534" x2="94.001" y2="70.412" gradientUnits="userSpaceOnUse"><stop stop-color="#FFF14F"/><stop offset=".27" stop-color="#FFEE4C"/><stop offset=".45" stop-color="#FFE643"/><stop offset=".61" stop-color="#FFD834"/><stop offset=".76" stop-color="#FFC41E"/><stop offset=".89" stop-color="#FFAB02"/><stop offset=".9" stop-color="#FFA900"/><stop offset=".95" stop-color="#FFA000"/><stop offset="1" stop-color="#FF9100"/></linearGradient><linearGradient id="n" x1="69.998" y1="41.997" x2="55.832" y2="80.035" gradientUnits="userSpaceOnUse"><stop stop-color="#FF8E00"/><stop offset=".04" stop-color="#FF8E00" stop-opacity=".86"/><stop offset=".08" stop-color="#FF8E00" stop-opacity=".73"/><stop offset=".13" stop-color="#FF8E00" stop-opacity=".63"/><stop offset=".18" stop-color="#FF8E00" stop-opacity=".56"/><stop offset=".23" stop-color="#FF8E00" stop-opacity=".5"/><stop offset=".28" stop-color="#FF8E00" stop-opacity=".5"/><stop offset=".39" stop-color="#FF8E00" stop-opacity=".48"/><stop offset=".52" stop-color="#FF8E00" stop-opacity=".42"/><stop offset=".68" stop-color="#FF8E00" stop-opacity=".3"/><stop offset=".84" stop-color="#FF8E00" stop-opacity=".17"/><stop offset="1" stop-color="#FF8E00" stop-opacity="0"/></linearGradient></defs></svg>
