<svg width="100" height="100" viewBox="0 0 100 100" fill="none" xmlns="http://www.w3.org/2000/svg">
<path d="M75.887 14.1885C73.7451 16.6818 72.748 22.2945 74.9193 27.9841C77.0907 33.6737 80.4194 32.4378 82.4942 38.2392C85.2325 45.8945 83.9581 56.1791 83.9581 56.1791C83.9581 56.1791 87.2492 65.7124 89.5449 55.5861C94.6246 36.5641 75.887 18.8747 75.887 14.1885Z" fill="url(#paint0_radial_7853_258)"/>
<path d="M49.7543 93.1632C71.6864 93.1632 89.4528 75.3002 89.4528 53.2769C89.4528 31.2536 71.6864 13.3906 49.7758 13.3906C27.8652 13.3906 10.0988 31.2482 10.0988 53.2733C10.0567 75.3208 27.8437 93.1623 49.7543 93.1623V93.1632Z" fill="url(#paint1_radial_7853_258)"/>
<path d="M79.4991 77.8708C78.641 78.4761 77.7409 79.0194 76.8055 79.4966C78.0448 77.6797 79.1881 75.7991 80.2307 73.8625C81.0767 72.9261 81.852 72.0157 82.4843 71.032C82.792 70.549 83.1372 69.9516 83.5056 69.2595C85.7342 65.244 88.1918 58.7459 88.2616 52.0708V51.5646C88.2732 49.8891 88.102 48.2172 87.7509 46.5788L87.801 46.9634L87.7438 46.6683C87.7769 46.8471 87.8028 47.026 87.8332 47.2049C88.2893 51.0701 87.9647 54.8396 86.3415 57.6191L86.2637 57.7372C87.1043 53.5133 87.3869 48.8477 86.4515 44.1794C86.4515 44.1794 86.0759 41.9096 83.2874 35.0181C81.6777 31.0518 78.8311 27.7992 76.3118 25.4311C74.1028 22.6989 72.0996 20.8701 70.9933 19.7021C68.6842 17.2696 67.7166 15.4479 67.3177 14.2584C66.9734 14.0858 62.5653 9.80477 62.2157 9.64111C60.2929 12.6236 54.242 21.9531 57.1181 30.6708C58.422 34.621 61.7211 38.7196 65.1731 41.0216C65.3252 41.1951 67.2301 43.2574 68.1333 47.9221C69.0679 52.738 68.5805 56.495 66.6541 62.0522C64.3915 66.9262 58.5991 71.7465 53.1751 72.2384C41.5785 73.2919 37.3324 66.4164 37.3324 66.4164C41.4766 68.0727 46.0581 67.7266 48.8439 66.0086C51.6521 64.271 53.3513 62.9832 54.7285 63.4911C56.0852 63.9902 57.1709 62.5208 56.1961 61.0005C55.4461 59.8455 54.3731 58.9366 53.1105 58.3869C51.8479 57.8372 50.4516 57.671 49.0952 57.9089C46.2844 58.365 43.7088 60.5918 40.0269 58.4365C39.7885 58.2982 39.5577 58.1472 39.3356 57.984C39.0941 57.823 40.1253 58.2272 39.8838 58.0466C39.1684 57.6576 37.8985 56.8089 37.5693 56.5066C37.5157 56.4565 38.1256 56.7015 38.0702 56.6515C34.6271 53.8165 35.0563 51.9 35.1637 50.698C35.2531 49.7366 35.8791 48.5052 36.9299 48.0062C37.4397 48.2834 37.7563 48.4962 37.7563 48.4962L37.4218 47.8184C37.4629 47.8005 37.5023 47.8049 37.5434 47.7879C37.9602 47.9892 38.8849 48.5123 39.3678 48.8316C40.0001 49.2788 40.2022 49.6758 40.2022 49.6758C40.2022 49.6758 40.3685 49.5864 40.2451 49.1956C40.2004 49.0364 40.0081 48.5293 39.3821 48.0178H39.4215C39.7965 48.2314 40.1518 48.478 40.483 48.7547C40.6619 48.1126 40.9776 47.4418 40.9078 46.2417C40.8649 45.3983 40.8846 45.1801 40.7361 44.8555C40.602 44.5756 40.8103 44.4665 41.042 44.7571C41.0023 44.5295 40.936 44.3074 40.8443 44.0953V44.0739C41.1332 43.0687 46.948 40.4555 47.3728 40.1496C48.0682 39.6575 48.6513 39.0235 49.0836 38.2895C49.4073 37.7743 49.6506 37.0508 49.7096 35.9553C49.7418 35.1647 49.3734 34.638 43.4942 34.0218C41.8844 33.8635 40.9427 32.6982 40.4061 31.6233C40.3077 31.3908 40.2094 31.1815 40.1083 30.9722C40.013 30.7271 39.9364 30.4751 39.8794 30.2183C40.8407 27.4576 42.455 25.1207 44.8312 23.3589C44.9608 23.2409 44.3142 23.3894 44.443 23.2695C44.5951 23.1318 45.5788 22.7329 45.7666 22.6435C45.9938 22.5362 44.7936 22.0264 43.7338 22.1516C42.6544 22.2733 42.4255 22.402 41.8495 22.6462C42.0883 22.4083 42.8485 22.0962 42.6705 22.098C41.5079 22.2768 40.0609 22.9529 38.825 23.7185C38.8224 23.585 38.8477 23.4525 38.8992 23.3294C38.3233 23.5736 36.9085 24.5636 36.4962 25.3989C36.514 25.2385 36.5221 25.0773 36.5203 24.9159C36.0817 25.282 35.6859 25.6966 35.3407 26.1519L35.3193 26.1716C31.9781 24.8301 29.0385 24.7407 26.5505 25.3416C26.005 24.7961 25.7403 25.195 24.5026 22.4736C24.4185 22.3099 24.567 22.6346 24.5026 22.4736C24.2987 21.9459 24.6278 23.1774 24.5026 22.4736C22.4206 24.1164 19.6804 25.9793 18.3649 27.2939C18.3488 27.3476 19.8996 26.8557 18.3649 27.2939C17.8283 27.4477 17.8641 27.7661 17.7836 30.6476C17.7639 30.8658 17.7836 31.1108 17.7639 31.3076C16.7131 32.6491 15.9977 33.7795 15.7267 34.3661C14.3673 36.7074 12.8712 40.358 11.4206 46.1308C12.061 44.5683 12.8325 43.0629 13.727 41.6306C12.5197 44.6954 11.3544 49.5077 11.1219 56.918C11.4136 55.3887 11.7877 53.8763 12.2425 52.3874C11.9572 58.5359 13.0172 64.6727 15.3484 70.3693C16.1828 72.4101 17.5627 75.508 19.9094 78.901C27.2919 86.6672 37.7017 91.4965 49.2294 91.4965C61.265 91.4965 72.0728 86.2317 79.4982 77.8708H79.4991Z" fill="url(#paint2_linear_7853_258)"/>
<path d="M70.5944 83.5099C85.1601 81.8233 91.6107 66.8132 83.3276 66.518C75.8485 66.2766 63.6993 84.3059 70.5944 83.5099Z" fill="url(#paint3_radial_7853_258)"/>
<path d="M84.3758 63.4524C94.3974 57.6197 91.7807 45.0225 91.7807 45.0225C91.7807 45.0225 87.9128 49.5155 85.2862 56.6771C82.6945 63.7726 78.3517 66.9742 84.3758 63.4524Z" fill="url(#paint4_radial_7853_258)"/>
<path d="M52.5624 90.965C66.5343 95.4223 78.5449 84.4169 71.14 80.7413C64.4148 77.427 45.9293 88.858 52.5616 90.965H52.5624Z" fill="url(#paint5_radial_7853_258)"/>
<path d="M85.4176 68.8011C85.7575 68.3218 86.2172 66.7862 86.6232 66.1003C89.0897 62.1188 89.1076 58.9458 89.1076 58.8707C90.5975 51.4282 90.4625 48.3894 89.5458 42.7731C88.808 38.2479 85.5822 31.7641 82.7875 28.643C79.9078 25.4235 81.9379 26.4743 79.1476 24.1249C76.7035 21.4152 74.3345 18.7322 73.044 17.6537C63.719 9.8544 63.9291 8.19813 64.1107 7.91374L63.9792 8.06041C63.8666 7.6222 63.7887 7.25195 63.7887 7.25195C63.7887 7.25195 58.6912 12.3495 57.618 20.8455C56.9178 26.3902 58.9935 32.1746 62.0001 35.8699C63.5656 37.7851 65.3349 39.5244 67.2766 41.0569C69.5481 44.3193 70.7984 48.3455 70.7984 52.674C70.7984 63.5166 62.0037 72.3068 51.1548 72.3068C49.6764 72.3075 48.2025 72.1419 46.7611 71.8131C41.642 70.8366 38.6854 68.2538 37.2116 66.5009C36.3665 65.4966 36.0079 64.7642 36.0079 64.7642C40.5939 66.407 45.6664 66.0636 48.7491 64.36C51.8568 62.6375 53.7367 61.3596 55.2633 61.863C56.7675 62.3639 57.9641 60.9088 56.8909 59.4001C55.8383 57.8932 53.099 55.7334 49.0317 56.3326C45.9195 56.786 43.0702 58.9941 38.994 56.8549C38.7316 56.7191 38.4764 56.5698 38.2293 56.4077C37.961 56.2495 39.1031 56.6492 38.8375 56.4686C38.0442 56.0822 36.6401 55.2407 36.2762 54.942C36.2153 54.8919 36.8914 55.1351 36.8306 55.0851C33.0191 52.2725 33.4949 50.372 33.6111 49.1826C33.7068 48.2293 34.3981 47.0076 35.5661 46.5122C35.8771 46.6624 36.1823 46.8244 36.481 46.9978L36.1107 46.3271C36.1554 46.3092 36.2001 46.3137 36.2449 46.2967C36.9345 46.6095 37.609 46.9547 38.266 47.3314C38.9662 47.7741 39.1889 48.1685 39.1889 48.1685C39.1889 48.1685 39.3732 48.079 39.2372 47.6918C39.1871 47.5335 38.9752 47.03 38.2821 46.5229H38.325C38.7365 46.7327 39.1293 46.9771 39.4993 47.2536C39.696 46.6168 40.0466 45.9515 39.9688 44.762C39.9214 43.9258 39.9437 43.7085 39.7792 43.3848C39.6316 43.1076 39.8615 43.0002 40.1172 43.2864C40.0731 43.0591 39.9998 42.8385 39.899 42.63V42.6085C40.2183 41.6123 46.6537 39.0206 47.1224 38.7183C47.8771 38.2444 48.5224 37.6155 49.0156 36.8733C49.3733 36.3618 49.6416 35.6454 49.7087 34.5571C49.7311 34.067 49.5799 33.6788 47.8754 33.305C46.8523 33.0814 45.2694 32.8668 42.8288 32.637C41.0491 32.4796 40.0045 31.3241 39.4125 30.2581C39.3052 30.0283 39.1934 29.8199 39.0834 29.6124C38.9784 29.3706 38.8938 29.1206 38.8303 28.8648C39.8953 26.0769 41.8132 23.6964 44.3107 22.0626C44.4537 21.9464 43.7383 22.0921 43.8814 21.9732C44.0486 21.8373 45.1388 21.4429 45.3454 21.3543C45.5958 21.247 44.2722 20.7426 43.0953 20.8652C41.9005 20.9859 41.6465 21.1138 41.0098 21.357C41.278 21.1209 42.116 20.8115 41.9184 20.8133C40.6306 20.9921 39.0297 21.6611 37.6615 22.423C37.6589 22.2899 37.687 22.158 37.7437 22.0376C37.1061 22.2791 35.5401 23.2601 35.0849 24.0945C35.1044 23.9358 35.1131 23.7759 35.1109 23.6161C34.6308 23.9739 34.1928 24.3849 33.8052 24.8413L33.781 24.8609C30.0875 23.5284 26.834 23.439 24.084 24.0382C23.4813 23.4962 22.5127 22.6761 21.1417 19.978C21.0523 19.8152 20.9986 20.3134 20.9271 20.1569C20.3905 18.9227 20.073 16.898 20.1222 15.5064C20.1222 15.5064 19.0204 16.0073 18.11 18.1053C17.9898 18.3738 17.861 18.6384 17.7237 18.8986C17.6736 18.9594 17.8373 18.2099 17.8131 18.2511C17.6548 18.5194 17.2443 18.895 17.0646 19.3797C16.9412 19.7374 16.7677 19.9404 16.6568 20.3903L16.6299 20.4314C16.621 20.2991 16.663 19.8877 16.6299 19.9717C16.2019 20.833 15.8332 21.7225 15.5264 22.6341C15.0345 24.2439 14.4639 26.4439 14.3727 29.303C14.3512 29.5194 14.3727 29.7627 14.3503 29.9576C13.1877 31.2839 12.3954 32.408 12.0967 32.9893C10.5942 35.3145 8.93708 38.9311 7.33 44.6565C8.04433 43.0921 8.8986 41.5955 9.88236 40.185C8.54895 43.2256 7.25935 47.9985 7 55.348C7.32402 53.827 7.73823 52.3267 8.24041 50.855C8.01057 55.7558 8.58114 61.8317 11.679 68.6911C13.5186 72.7155 17.7532 80.9074 28.1004 87.2972C28.1004 87.2972 31.6204 89.9176 37.6695 91.8815L39.0315 92.3582C38.8898 92.3009 38.7496 92.2398 38.6112 92.1748C42.6385 93.3818 46.82 93.9966 51.0242 94.0001C66.6908 94.0135 71.3117 87.722 71.3117 87.722L71.267 87.756C71.4876 87.5474 71.7004 87.3309 71.9055 87.1068C69.4318 89.4391 63.7887 89.5965 61.6826 89.4275C65.2796 88.3722 67.6477 87.4779 72.2507 85.7143C72.7873 85.514 73.3382 85.2862 73.9034 85.0311L74.4221 84.7914C76.6654 83.7339 78.7747 82.4129 80.7055 80.8564C85.3291 77.1629 86.3352 73.5624 86.8611 71.1889C86.7877 71.4161 86.5597 71.9464 86.3987 72.2907C85.2093 74.8377 82.5675 76.4045 79.7003 77.7415C81.0648 75.9508 82.33 74.0867 83.4904 72.1575C84.4277 71.2301 84.7156 69.7786 85.4185 68.8011H85.4176Z" fill="url(#paint6_radial_7853_258)"/>
<path d="M79.7897 77.6343C81.6749 75.5559 83.367 73.1788 84.6503 70.4798C87.9503 63.5418 93.0568 52.0051 89.0324 39.957C85.8576 30.4344 81.4961 25.2277 75.9603 20.1408C66.9689 11.881 64.4577 8.19285 64.4577 6C64.4577 6 54.0747 17.5724 58.5785 29.6438C63.0822 41.7152 72.3026 41.2698 78.4035 53.868C85.5822 68.6903 72.595 84.8648 61.8588 89.3936C62.5161 89.2478 85.7369 83.9938 86.9532 70.7132C86.9219 70.9574 86.3987 74.6303 79.7897 77.6352V77.6343Z" fill="url(#paint7_radial_7853_258)"/>
<path d="M49.7123 34.5615C49.748 33.7772 49.3402 33.2505 42.8547 32.6423C40.1861 32.3955 39.1648 29.9299 38.8527 28.8916C37.9047 31.3563 37.5112 33.9445 37.7222 37.0728C37.8653 39.1225 39.2426 41.3225 39.9017 42.6175C39.9017 42.6175 40.0484 42.427 40.1163 42.3581C41.3558 41.0676 46.55 39.1011 47.0383 38.822C47.5767 38.4786 49.6228 36.9833 49.7141 34.5624L49.7123 34.5615Z" fill="url(#paint8_linear_7853_258)"/>
<path d="M21.1569 19.993C21.0675 19.8303 21.0138 20.3284 20.9423 20.1719C20.4057 18.9378 20.0855 16.9345 20.1625 15.5215C20.1625 15.5215 19.0607 16.0223 18.1503 18.1204C17.9803 18.496 17.873 18.7052 17.7639 18.9127C17.7138 18.9735 17.8775 18.2241 17.8533 18.2652C17.6951 18.5335 17.2846 18.9091 17.1066 19.3724C16.959 19.7516 16.807 19.9555 16.6952 20.425C16.6594 20.5529 16.731 19.8598 16.6997 19.9439C14.5766 24.0362 14.1724 30.2356 14.3959 29.9673C18.9104 25.1505 24.0813 24.0076 24.0813 24.0076C23.5313 23.6025 22.3347 22.4309 21.1569 19.9921V19.993Z" fill="url(#paint9_linear_7853_258)"/>
<path d="M38.2866 70.3994C32.0514 67.737 24.9614 63.9827 25.2296 55.4519C25.5945 44.2184 35.7074 46.439 35.7074 46.439C35.3255 46.5284 34.3051 47.2582 33.9438 48.0327C33.5619 49.0012 32.8644 51.1878 34.9767 53.479C38.2946 57.0742 28.1621 62.0072 43.8 71.3268C44.1935 71.5414 40.1333 71.1989 38.2875 70.4003L38.2866 70.3994Z" fill="url(#paint10_linear_7853_258)"/>
<path d="M36.0713 64.8011C40.4928 66.3393 45.6405 66.071 48.7276 64.3665C50.7935 63.2173 53.4406 61.3768 55.0701 61.8311C53.6589 61.273 52.5902 61.0128 51.305 60.9493C51.0859 60.9493 50.8239 60.9448 50.5896 60.9207C50.1187 60.9191 49.6481 60.9447 49.1801 60.9976C48.3842 61.0709 47.5015 61.5726 46.6993 61.4921C46.6564 61.4921 47.4774 61.155 47.4148 61.1702C46.99 61.2596 46.5276 61.2775 46.0402 61.3383C45.7299 61.3741 45.4634 61.4117 45.1549 61.4278C35.9435 62.2085 28.1629 56.4375 28.1629 56.4375C27.5012 58.6733 31.1294 63.0822 36.0794 64.8056L36.0713 64.8011Z" fill="url(#paint11_linear_7853_258)"/>
<path d="M79.7736 77.6922C89.0888 68.5461 93.8018 57.4289 91.8093 44.9604C91.8093 44.9604 92.6052 51.3547 89.5869 57.8948C91.0357 51.5094 91.2056 43.5769 87.3511 35.3582C82.2115 24.3904 73.7558 18.6185 70.5274 16.2128C65.6355 12.564 63.6099 8.85081 63.5714 8.0835C62.1101 11.0776 57.6895 21.3372 63.0974 30.173C68.1628 38.4507 76.1418 40.9047 81.7286 48.5019C92.0203 62.4907 79.7745 77.6922 79.7745 77.6922H79.7736Z" fill="url(#paint12_linear_7853_258)"/>
<path d="M78.4376 53.895C75.1823 47.1697 71.1221 44.2364 67.2766 41.0571C67.7237 41.6831 67.8337 41.904 68.0814 42.3092C71.4646 45.915 76.4522 54.7097 72.8302 65.7491C66.0138 86.5311 38.748 76.7455 35.8862 73.9964C37.0426 86.0249 57.1708 91.7789 70.2814 83.9796C77.74 76.919 83.7739 64.9173 78.4376 53.895Z" fill="url(#paint13_linear_7853_258)"/>
<defs>
<radialGradient id="paint0_radial_7853_258" cx="0" cy="0" r="1" gradientUnits="userSpaceOnUse" gradientTransform="translate(90.7428 33.2487) rotate(2.2605) scale(30.6691 45.2058)">
<stop offset="0.1" stop-color="#FFEA00"/>
<stop offset="0.17" stop-color="#FFDE00"/>
<stop offset="0.28" stop-color="#FFBF00"/>
<stop offset="0.43" stop-color="#FF8E00"/>
<stop offset="0.77" stop-color="#FF272D"/>
<stop offset="0.87" stop-color="#E0255A"/>
<stop offset="0.95" stop-color="#CC2477"/>
<stop offset="1" stop-color="#C42482"/>
</radialGradient>
<radialGradient id="paint1_radial_7853_258" cx="0" cy="0" r="1" gradientUnits="userSpaceOnUse" gradientTransform="translate(62.914 19.7163) scale(87.0355 87.0355)">
<stop stop-color="#00CCDA"/>
<stop offset="0.22" stop-color="#0083FF"/>
<stop offset="0.26" stop-color="#007AF9"/>
<stop offset="0.33" stop-color="#005FE7"/>
<stop offset="0.44" stop-color="#2639AD"/>
<stop offset="0.52" stop-color="#401E84"/>
<stop offset="0.57" stop-color="#4A1475"/>
</radialGradient>
<linearGradient id="paint2_linear_7853_258" x1="55.3527" y1="71.2126" x2="38.232" y2="15.2082" gradientUnits="userSpaceOnUse">
<stop stop-color="#000F43" stop-opacity="0.4"/>
<stop offset="0.48" stop-color="#001962" stop-opacity="0.17"/>
<stop offset="1" stop-color="#002079" stop-opacity="0"/>
</linearGradient>
<radialGradient id="paint3_radial_7853_258" cx="0" cy="0" r="1" gradientUnits="userSpaceOnUse" gradientTransform="translate(93.3219 64.4701) rotate(5.61758) scale(29.2598 29.2598)">
<stop stop-color="#FFEA00"/>
<stop offset="0.5" stop-color="#FF272D"/>
<stop offset="1" stop-color="#C42482"/>
</radialGradient>
<radialGradient id="paint4_radial_7853_258" cx="0" cy="0" r="1" gradientUnits="userSpaceOnUse" gradientTransform="translate(93.4278 36.2902) rotate(5.61758) scale(48.861 48.861)">
<stop stop-color="#FFE900"/>
<stop offset="0.16" stop-color="#FFAF0E"/>
<stop offset="0.32" stop-color="#FF7A1B"/>
<stop offset="0.47" stop-color="#FF4E26"/>
<stop offset="0.62" stop-color="#FF2C2E"/>
<stop offset="0.76" stop-color="#FF1434"/>
<stop offset="0.89" stop-color="#FF0538"/>
<stop offset="1" stop-color="#FF0039"/>
</radialGradient>
<radialGradient id="paint5_radial_7853_258" cx="0" cy="0" r="1" gradientUnits="userSpaceOnUse" gradientTransform="translate(95.878 82.05) rotate(5.61758) scale(44.8353 44.8353)">
<stop stop-color="#FF272D"/>
<stop offset="0.5" stop-color="#C42482"/>
<stop offset="0.99" stop-color="#620700"/>
</radialGradient>
<radialGradient id="paint6_radial_7853_258" cx="0" cy="0" r="1" gradientUnits="userSpaceOnUse" gradientTransform="translate(70.9602 41.2393) scale(69.9512 69.9512)">
<stop offset="0.16" stop-color="#FFEA00"/>
<stop offset="0.23" stop-color="#FFDE00"/>
<stop offset="0.37" stop-color="#FFBF00"/>
<stop offset="0.54" stop-color="#FF8E00"/>
<stop offset="0.76" stop-color="#FF272D"/>
<stop offset="0.8" stop-color="#F92433"/>
<stop offset="0.84" stop-color="#E91C45"/>
<stop offset="0.89" stop-color="#CF0E62"/>
<stop offset="0.94" stop-color="#B5007F"/>
</radialGradient>
<radialGradient id="paint7_radial_7853_258" cx="0" cy="0" r="1" gradientUnits="userSpaceOnUse" gradientTransform="translate(66.9492 8.7983) scale(79.7234 79.7234)">
<stop offset="0.28" stop-color="#FFEA00"/>
<stop offset="0.4" stop-color="#FFDD00"/>
<stop offset="0.63" stop-color="#FFBA00"/>
<stop offset="0.86" stop-color="#FF9100"/>
<stop offset="0.93" stop-color="#FF6711"/>
<stop offset="0.99" stop-color="#FF4A1D"/>
</radialGradient>
<linearGradient id="paint8_linear_7853_258" x1="20.4549" y1="39.5554" x2="54.7911" y2="34.3075" gradientUnits="userSpaceOnUse">
<stop stop-color="#C42482" stop-opacity="0.5"/>
<stop offset="0.47" stop-color="#FF272D" stop-opacity="0.5"/>
<stop offset="0.49" stop-color="#FF2C2C" stop-opacity="0.5"/>
<stop offset="0.68" stop-color="#FF7A1A" stop-opacity="0.72"/>
<stop offset="0.83" stop-color="#FFB20D" stop-opacity="0.87"/>
<stop offset="0.94" stop-color="#FFD605" stop-opacity="0.96"/>
<stop offset="1" stop-color="#FFE302"/>
</linearGradient>
<linearGradient id="paint9_linear_7853_258" x1="19.7511" y1="29.7231" x2="16.1703" y2="16.8495" gradientUnits="userSpaceOnUse">
<stop stop-color="#891551" stop-opacity="0.6"/>
<stop offset="1" stop-color="#C42482" stop-opacity="0"/>
</linearGradient>
<linearGradient id="paint10_linear_7853_258" x1="26.724" y1="47.6204" x2="34.1003" y2="57.9246" gradientUnits="userSpaceOnUse">
<stop offset="0.01" stop-color="#891551" stop-opacity="0.5"/>
<stop offset="0.48" stop-color="#FF272D" stop-opacity="0.5"/>
<stop offset="1" stop-color="#FF272D" stop-opacity="0"/>
</linearGradient>
<linearGradient id="paint11_linear_7853_258" x1="40.8273" y1="65.6614" x2="41.5016" y2="59.0417" gradientUnits="userSpaceOnUse">
<stop stop-color="#C42482"/>
<stop offset="0.08" stop-color="#C42482" stop-opacity="0.8"/>
<stop offset="0.21" stop-color="#C42482" stop-opacity="0.57"/>
<stop offset="0.33" stop-color="#C42482" stop-opacity="0.36"/>
<stop offset="0.45" stop-color="#C42482" stop-opacity="0.2"/>
<stop offset="0.56" stop-color="#C42482" stop-opacity="0.1"/>
<stop offset="0.67" stop-color="#C42482" stop-opacity="0.02"/>
<stop offset="0.77" stop-color="#C42482" stop-opacity="0"/>
</linearGradient>
<linearGradient id="paint12_linear_7853_258" x1="62.4947" y1="9.23" x2="89.8302" y2="70.3553" gradientUnits="userSpaceOnUse">
<stop stop-color="#FFF14F"/>
<stop offset="0.27" stop-color="#FFEE4C"/>
<stop offset="0.45" stop-color="#FFE643"/>
<stop offset="0.61" stop-color="#FFD834"/>
<stop offset="0.76" stop-color="#FFC41E"/>
<stop offset="0.89" stop-color="#FFAB02"/>
<stop offset="0.9" stop-color="#FFA900"/>
<stop offset="0.95" stop-color="#FFA000"/>
<stop offset="1" stop-color="#FF9100"/>
</linearGradient>
<linearGradient id="paint13_linear_7853_258" x1="67.8918" y1="44.3849" x2="54.944" y2="79.1512" gradientUnits="userSpaceOnUse">
<stop stop-color="#FF8E00"/>
<stop offset="0.04" stop-color="#FF8E00" stop-opacity="0.86"/>
<stop offset="0.08" stop-color="#FF8E00" stop-opacity="0.73"/>
<stop offset="0.13" stop-color="#FF8E00" stop-opacity="0.63"/>
<stop offset="0.18" stop-color="#FF8E00" stop-opacity="0.56"/>
<stop offset="0.23" stop-color="#FF8E00" stop-opacity="0.5"/>
<stop offset="0.28" stop-color="#FF8E00" stop-opacity="0.5"/>
<stop offset="0.39" stop-color="#FF8E00" stop-opacity="0.48"/>
<stop offset="0.52" stop-color="#FF8E00" stop-opacity="0.42"/>
<stop offset="0.68" stop-color="#FF8E00" stop-opacity="0.3"/>
<stop offset="0.84" stop-color="#FF8E00" stop-opacity="0.17"/>
<stop offset="1" stop-color="#FF8E00" stop-opacity="0"/>
</linearGradient>
</defs>
</svg>
