<svg width="88" height="88" viewBox="0 0 88 88" fill="none" xmlns="http://www.w3.org/2000/svg">
<path fill-rule="evenodd" clip-rule="evenodd" d="M44 0C68.3012 0 88 20.1957 88 45.1129C88 65.0405 75.4072 81.9454 57.9348 87.9162C55.704 88.3606 54.912 86.9518 54.912 85.7506C54.912 84.2634 54.9648 79.4059 54.9648 73.3691C54.9648 69.1627 53.5568 66.4174 51.9772 65.0182C61.776 63.9006 72.072 60.0854 72.072 42.7582C72.072 37.8302 70.3648 33.8088 67.54 30.6496C67.9976 29.51 69.5068 24.9214 67.1088 18.7086C67.1088 18.7086 63.4216 17.4998 55.022 23.3342C51.5064 22.3354 47.74 21.8328 44 21.8152C40.26 21.8328 36.498 22.3354 32.9868 23.3342C24.5784 17.4998 20.8824 18.7086 20.8824 18.7086C18.4932 24.9214 20.0024 29.51 20.4556 30.6496C17.644 33.8088 15.9236 37.8302 15.9236 42.7582C15.9236 60.0414 26.1976 63.9151 35.97 65.0547C34.7116 66.1811 33.572 68.1682 33.176 71.0854C30.668 72.2382 24.2968 74.2333 20.372 67.3385C20.372 67.3385 18.0444 63.0039 13.6268 62.6871C13.6268 62.6871 9.3368 62.6301 13.3276 65.4285C13.3276 65.4285 16.2096 66.8145 18.2116 72.0285C18.2116 72.0285 20.7944 80.0803 33.0352 77.3523C33.0572 81.1231 33.0968 84.677 33.0968 85.7506C33.0968 86.943 32.2872 88.3385 30.0916 87.9205C12.606 81.9585 0 65.0449 0 45.1129C0 20.1957 19.7032 0 44 0Z" fill="black" data-dark-mode-color="true"/>
</svg>
