<svg xmlns="http://www.w3.org/2000/svg" width="40" height="40" fill="none" viewBox="0 0 40 46"><path fill="#13A562" fill-rule="evenodd" d="M2.76325 0H22.9187L34.4594 11.5406V43.2368C34.4594 44.7629 33.2222 46 31.6961 46H2.76325C1.23712 46 0 44.7629 0 43.2368V2.76325C0 1.23712 1.23712 0 2.76325 0Z" clip-rule="evenodd"/><path fill="#F1F1F1" fill-rule="evenodd" d="M8.93994 25.682H25.682V27.6325H8.93994V25.682Z" clip-rule="evenodd"/><path fill="#F1F1F1" fill-rule="evenodd" d="M16.417 22.4311H18.3675V35.9223H16.417V22.4311Z" clip-rule="evenodd"/><path fill="#F1F1F1" fill-rule="evenodd" d="M8.93994 30.5583H25.682V32.5088H8.93994V30.5583Z" clip-rule="evenodd"/><path fill="#F1F1F1" d="M9.75265 23.0813V35.2721H24.8693V23.0813H9.75265ZM7.80212 21.1307H26.8198V37.2226H7.80212V21.1307Z"/><path fill="#049052" fill-rule="evenodd" d="M23.7314 10.7279L34.4594 21.6184V11.5393L23.7314 10.7279Z" clip-rule="evenodd"/><path fill="#8BD1AF" fill-rule="evenodd" d="M22.9187 0L34.4593 11.5406H25.682C24.1558 11.5406 22.9187 10.3035 22.9187 8.77739V0Z" clip-rule="evenodd"/></svg>