<svg width="100" height="100" viewBox="0 0 100 100" fill="none" xmlns="http://www.w3.org/2000/svg">
<g clip-path="url(#clip0_7853_305)">
<mask id="mask0_7853_305" style="mask-type:luminance" maskUnits="userSpaceOnUse" x="8" y="8" width="84" height="84">
<path d="M92 8H8V92H92V8Z" fill="white"/>
</mask>
<g mask="url(#mask0_7853_305)">
<path d="M72.1051 27.895H27.8949V72.1053H72.1051V27.895Z" fill="white"/>
<path d="M72.1051 92.0001L92 72.1053L82.0526 70.4082L72.1051 72.1053L70.2896 81.2042L72.1051 92.0001Z" fill="#EA4335"/>
<path d="M8 72.1053V85.3684C8 89.0326 10.9676 92.0001 14.6314 92.0001H27.8949L29.9375 82.0527L27.8949 72.1053L17.0559 70.4082L8 72.1053Z" fill="#188038"/>
<path d="M92 27.8949V14.6314C92 10.9676 89.0324 8 85.3686 8H72.1051C70.895 12.9337 70.2898 16.5645 70.2896 18.8924C70.2896 21.2202 70.8948 24.221 72.1051 27.8949C76.5053 29.1549 79.8212 29.7849 82.0526 29.7849C84.284 29.7849 87.5998 29.155 92 27.8949Z" fill="#1967D2"/>
<path d="M92 27.895H72.1051V72.1053H92V27.895Z" fill="#FBBC04"/>
<path d="M72.1051 72.105H27.8949V91.9999H72.1051V72.105Z" fill="#34A853"/>
<path d="M72.1051 8H14.6317C10.9676 8 8 10.9676 8 14.6314V72.1051H27.8949V27.8949H72.1051V8Z" fill="#4285F4"/>
<path d="M36.9636 62.1912C35.3111 61.0749 34.167 59.4447 33.5425 57.289L37.378 55.7087C37.7258 57.035 38.3337 58.0628 39.2017 58.7924C40.0637 59.5219 41.1137 59.8811 42.3406 59.8811C43.5948 59.8811 44.6724 59.4997 45.5732 58.737C46.4743 57.9744 46.9274 57.0019 46.9274 55.8249C46.9274 54.62 46.4521 53.6363 45.5017 52.8737C44.5511 52.1111 43.3574 51.7299 41.9317 51.7299H39.7156V47.9335H41.705C42.9317 47.9335 43.9651 47.6017 44.8051 46.9383C45.6451 46.2754 46.0651 45.3688 46.0651 44.2138C46.0651 43.1861 45.6894 42.3681 44.938 41.7549C44.1866 41.1413 43.2357 40.8319 42.0807 40.8319C40.9532 40.8319 40.0581 41.1304 39.395 41.7326C38.732 42.3365 38.2337 43.099 37.947 43.9487L34.1506 42.3681C34.6532 40.9424 35.5763 39.6824 36.9301 38.5937C38.2839 37.505 40.0138 36.958 42.1138 36.958C43.6668 36.958 45.065 37.2566 46.303 37.8587C47.5407 38.4611 48.5132 39.2956 49.2151 40.3567C49.9173 41.4231 50.2651 42.6169 50.2651 43.9431C50.2651 45.297 49.9393 46.4411 49.2873 47.3806C48.6353 48.32 47.8337 49.0383 46.8831 49.5413V49.7677C48.1105 50.2738 49.1767 51.105 49.9668 52.1719C50.7681 53.2494 51.1717 54.537 51.1717 56.0404C51.1717 57.5433 50.7901 58.8863 50.0275 60.0633C49.265 61.2406 48.2097 62.1688 46.872 62.8431C45.5293 63.5174 44.0206 63.8603 42.3461 63.8603C40.4063 63.8656 38.616 63.3074 36.9636 62.1912ZM60.5216 43.1583L56.3108 46.2033L54.2052 43.0093L61.7597 37.5601H64.6554V63.2631H60.5216V43.1583Z" fill="#4285F4"/>
</g>
</g>
<defs>
<clipPath id="clip0_7853_305">
<rect width="84" height="84" fill="white" transform="translate(8 8)"/>
</clipPath>
</defs>
</svg>
