<?xml version="1.0" encoding="UTF-8"?>
<svg xmlns="http://www.w3.org/2000/svg" xmlns:xlink="http://www.w3.org/1999/xlink" width="32px" height="32px" viewBox="0 0 32 32" version="1.1">
<defs>
<radialGradient id="radial0" gradientUnits="userSpaceOnUse" cx="158.429" cy="578.088" fx="158.429" fy="578.088" r="65" gradientTransform="matrix(0,-0.48048,0.447006,0,-249.793455,110.304)">
<stop offset="0" style="stop-color:rgb(100%,86.666667%,33.333333%);stop-opacity:1;"/>
<stop offset="0.1" style="stop-color:rgb(100%,86.666667%,33.333333%);stop-opacity:1;"/>
<stop offset="0.5" style="stop-color:rgb(100%,32.941176%,24.313725%);stop-opacity:1;"/>
<stop offset="1" style="stop-color:rgb(78.431373%,21.568627%,67.058824%);stop-opacity:1;"/>
</radialGradient>
<radialGradient id="radial1" gradientUnits="userSpaceOnUse" cx="147.694" cy="473.455" fx="147.694" fy="473.455" r="65" gradientTransform="matrix(0.0421673,0.210599,-0.868315,0.173862,399.842909,-110.907394)">
<stop offset="0" style="stop-color:rgb(21.568627%,44.313725%,78.431373%);stop-opacity:1;"/>
<stop offset="0.128" style="stop-color:rgb(21.568627%,44.313725%,78.431373%);stop-opacity:1;"/>
<stop offset="1" style="stop-color:rgb(40%,0%,100%);stop-opacity:0;"/>
</radialGradient>
</defs>
<g id="surface1">
<path style=" stroke:none;fill-rule:nonzero;fill:url(#radial0);" d="M 16.007812 0.242188 C 9.429688 0.242188 7.503906 0.25 7.128906 0.28125 C 5.78125 0.390625 4.9375 0.605469 4.023438 1.0625 C 3.320312 1.410156 2.761719 1.816406 2.214844 2.386719 C 1.214844 3.425781 0.605469 4.703125 0.386719 6.21875 C 0.28125 6.957031 0.25 7.105469 0.242188 10.871094 C 0.242188 12.125 0.242188 13.777344 0.242188 15.992188 C 0.242188 22.566406 0.25 24.488281 0.28125 24.863281 C 0.390625 26.175781 0.597656 27.003906 1.035156 27.90625 C 1.867188 29.636719 3.460938 30.9375 5.335938 31.421875 C 5.988281 31.589844 6.703125 31.683594 7.625 31.726562 C 8.015625 31.742188 11.992188 31.753906 15.972656 31.753906 C 19.957031 31.753906 23.9375 31.75 24.316406 31.730469 C 25.382812 31.679688 26.003906 31.597656 26.6875 31.421875 C 28.574219 30.933594 30.140625 29.652344 30.992188 27.898438 C 31.417969 27.015625 31.636719 26.15625 31.734375 24.910156 C 31.753906 24.640625 31.761719 20.3125 31.761719 15.988281 C 31.761719 11.664062 31.753906 7.34375 31.734375 7.070312 C 31.632812 5.804688 31.417969 4.957031 30.972656 4.054688 C 30.613281 3.320312 30.210938 2.769531 29.625 2.207031 C 28.582031 1.210938 27.308594 0.605469 25.789062 0.386719 C 25.050781 0.28125 24.90625 0.25 21.136719 0.242188 Z M 16.007812 0.242188 "/>
<path style=" stroke:none;fill-rule:nonzero;fill:url(#radial1);" d="M 16.007812 0.242188 C 9.429688 0.242188 7.503906 0.25 7.128906 0.28125 C 5.78125 0.390625 4.9375 0.605469 4.023438 1.0625 C 3.320312 1.410156 2.761719 1.816406 2.214844 2.386719 C 1.214844 3.425781 0.605469 4.703125 0.386719 6.21875 C 0.28125 6.957031 0.25 7.105469 0.242188 10.871094 C 0.242188 12.125 0.242188 13.777344 0.242188 15.992188 C 0.242188 22.566406 0.25 24.488281 0.28125 24.863281 C 0.390625 26.175781 0.597656 27.003906 1.035156 27.90625 C 1.867188 29.636719 3.460938 30.9375 5.335938 31.421875 C 5.988281 31.589844 6.703125 31.683594 7.625 31.726562 C 8.015625 31.742188 11.992188 31.753906 15.972656 31.753906 C 19.957031 31.753906 23.9375 31.75 24.316406 31.730469 C 25.382812 31.679688 26.003906 31.597656 26.6875 31.421875 C 28.574219 30.933594 30.140625 29.652344 30.992188 27.898438 C 31.417969 27.015625 31.636719 26.15625 31.734375 24.910156 C 31.753906 24.640625 31.761719 20.3125 31.761719 15.988281 C 31.761719 11.664062 31.753906 7.34375 31.734375 7.070312 C 31.632812 5.804688 31.417969 4.957031 30.972656 4.054688 C 30.613281 3.320312 30.210938 2.769531 29.625 2.207031 C 28.582031 1.210938 27.308594 0.605469 25.789062 0.386719 C 25.050781 0.28125 24.90625 0.25 21.136719 0.242188 Z M 16.007812 0.242188 "/>
<path style=" stroke:none;fill-rule:nonzero;fill:rgb(100%,100%,100%);fill-opacity:1;" d="M 16 4.363281 C 12.839844 4.363281 12.445312 4.378906 11.203125 4.433594 C 9.964844 4.492188 9.117188 4.6875 8.378906 4.972656 C 7.613281 5.273438 6.964844 5.667969 6.316406 6.316406 C 5.671875 6.964844 5.273438 7.613281 4.972656 8.378906 C 4.6875 9.117188 4.488281 9.964844 4.433594 11.203125 C 4.378906 12.441406 4.363281 12.839844 4.363281 16 C 4.363281 19.160156 4.378906 19.554688 4.433594 20.796875 C 4.492188 22.035156 4.6875 22.882812 4.972656 23.621094 C 5.273438 24.386719 5.667969 25.035156 6.316406 25.683594 C 6.964844 26.328125 7.613281 26.726562 8.378906 27.027344 C 9.117188 27.3125 9.964844 27.507812 11.203125 27.566406 C 12.441406 27.621094 12.839844 27.636719 16 27.636719 C 19.160156 27.636719 19.554688 27.621094 20.796875 27.566406 C 22.035156 27.507812 22.882812 27.3125 23.621094 27.027344 C 24.386719 26.726562 25.035156 26.328125 25.683594 25.683594 C 26.328125 25.035156 26.726562 24.386719 27.023438 23.621094 C 27.3125 22.882812 27.507812 22.035156 27.566406 20.796875 C 27.621094 19.554688 27.636719 19.160156 27.636719 16 C 27.636719 12.839844 27.621094 12.441406 27.566406 11.203125 C 27.507812 9.964844 27.3125 9.117188 27.023438 8.378906 C 26.726562 7.613281 26.328125 6.964844 25.683594 6.316406 C 25.035156 5.667969 24.386719 5.273438 23.621094 4.972656 C 22.878906 4.6875 22.035156 4.492188 20.792969 4.433594 C 19.554688 4.378906 19.160156 4.363281 15.996094 4.363281 Z M 14.957031 6.460938 C 15.265625 6.460938 15.613281 6.460938 16 6.460938 C 19.109375 6.460938 19.476562 6.472656 20.703125 6.527344 C 21.835938 6.578125 22.453125 6.769531 22.863281 6.929688 C 23.40625 7.140625 23.792969 7.390625 24.199219 7.796875 C 24.609375 8.207031 24.859375 8.59375 25.070312 9.136719 C 25.230469 9.546875 25.421875 10.164062 25.472656 11.296875 C 25.527344 12.523438 25.539062 12.890625 25.539062 15.996094 C 25.539062 19.101562 25.527344 19.472656 25.472656 20.699219 C 25.421875 21.832031 25.230469 22.449219 25.070312 22.859375 C 24.859375 23.402344 24.609375 23.789062 24.199219 24.195312 C 23.792969 24.601562 23.40625 24.855469 22.863281 25.066406 C 22.453125 25.226562 21.835938 25.414062 20.703125 25.464844 C 19.476562 25.523438 19.109375 25.535156 16 25.535156 C 12.894531 25.535156 12.527344 25.523438 11.300781 25.464844 C 10.164062 25.414062 9.546875 25.222656 9.136719 25.066406 C 8.59375 24.855469 8.207031 24.601562 7.800781 24.195312 C 7.394531 23.789062 7.140625 23.398438 6.929688 22.855469 C 6.769531 22.449219 6.582031 21.832031 6.527344 20.695312 C 6.472656 19.46875 6.460938 19.101562 6.460938 15.996094 C 6.460938 12.886719 6.472656 12.519531 6.527344 11.292969 C 6.582031 10.160156 6.769531 9.542969 6.929688 9.132812 C 7.140625 8.589844 7.394531 8.203125 7.800781 7.796875 C 8.207031 7.386719 8.59375 7.136719 9.136719 6.925781 C 9.546875 6.765625 10.164062 6.574219 11.300781 6.523438 C 12.371094 6.476562 12.789062 6.460938 14.957031 6.457031 Z M 22.210938 8.394531 C 21.441406 8.394531 20.816406 9.015625 20.816406 9.789062 C 20.816406 10.558594 21.441406 11.183594 22.210938 11.183594 C 22.984375 11.183594 23.609375 10.558594 23.609375 9.789062 C 23.609375 9.019531 22.984375 8.390625 22.210938 8.390625 Z M 16 10.023438 C 12.699219 10.023438 10.023438 12.699219 10.023438 16 C 10.023438 19.300781 12.699219 21.972656 16 21.972656 C 19.300781 21.972656 21.976562 19.300781 21.976562 16 C 21.976562 12.699219 19.300781 10.023438 16 10.023438 Z M 16 12.121094 C 18.144531 12.121094 19.878906 13.859375 19.878906 16 C 19.878906 18.140625 18.144531 19.878906 16 19.878906 C 13.859375 19.878906 12.121094 18.140625 12.121094 16 C 12.121094 13.859375 13.859375 12.121094 16 12.121094 Z M 16 12.121094 "/>
</g>
</svg>
