<svg width="100" height="100" viewBox="0 0 100 100" fill="none" xmlns="http://www.w3.org/2000/svg">
<g clip-path="url(#clip0_7187_45)">
<path d="M47.3 37.6827C41.96 38.2227 38.135 39.6927 35.66 42.1677C34.46 43.3827 33.35 45.4677 32.975 47.2227C32.69 48.6027 32.675 51.4377 32.96 52.8327C33.83 57.3027 37.445 60.4977 43.1 61.8027C43.64 61.9227 44.42 62.1027 44.825 62.2077C46.265 62.5377 51.02 62.7027 54.245 62.5227C55.91 62.4327 57.545 62.2977 57.875 62.2227C58.205 62.1477 58.955 61.9977 59.525 61.9077C62.06 61.4727 62.735 61.3227 63.035 61.1727C63.335 61.0077 63.35 60.8877 63.35 58.6827C63.35 57.3777 63.29 56.3427 63.2 56.2827C63.125 56.2377 62.66 56.4027 62.165 56.6577C61.67 56.8977 61.175 57.1077 61.07 57.1077C60.965 57.1077 60.695 57.1977 60.485 57.3177C60.095 57.5127 59.225 57.7977 57.65 58.2177C56.585 58.5027 53.66 58.9077 52.64 58.9077C51.605 58.9077 49.565 58.5327 48.5 58.1427C46.1 57.2577 44.495 55.6227 43.67 53.2377C43.205 51.8427 43.175 48.4977 43.625 47.1327C44.87 43.3677 48.05 41.3577 52.73 41.3577C55.88 41.3577 59.36 42.1827 62.555 43.7127C62.825 43.8327 63.11 43.8927 63.185 43.8327C63.29 43.7727 63.35 42.9027 63.35 41.5077C63.35 39.3477 63.335 39.2577 63.02 39.0477C62.675 38.8227 62.195 38.7177 59.6 38.2977C58.895 38.1777 58.16 38.0427 57.95 37.9977C57.065 37.7877 52.55 37.4577 50.93 37.4727C49.97 37.4877 48.335 37.5777 47.3 37.6827ZM19.655 38.3127C19.595 38.3577 19.55 41.5977 19.55 45.4977C19.55 53.0427 19.475 53.9877 18.8 55.5027C18.395 56.4177 17.18 57.6027 16.16 58.0827C15.245 58.5177 13.535 58.9077 12.545 58.9077C10.685 58.9077 6.74 58.0677 5.045 57.3177C4.79 57.1977 4.505 57.1077 4.4 57.1077C4.31 57.1077 3.815 56.8977 3.32 56.6577C2.81 56.4027 2.3 56.2377 2.195 56.2677C2.045 56.3277 2 56.8827 2 58.6827V61.0077L2.51 61.2177C3.005 61.4277 3.47 61.5177 6.425 61.9977C8.96 62.4027 9.875 62.4927 12.65 62.5827C15.605 62.6877 19.43 62.4927 20.675 62.1927C22.805 61.6827 23.765 61.3827 24.65 60.9777C27.17 59.8077 28.61 58.2327 29.495 55.7277C29.825 54.7977 29.825 54.6777 29.825 46.5327V38.2827L24.785 38.2377C22.025 38.2227 19.715 38.2527 19.655 38.3127ZM67.145 38.3127C66.995 38.3727 66.95 40.8627 66.95 50.0577C66.95 61.6827 66.95 61.7427 67.25 61.9077C67.475 62.0277 71.045 62.0577 79.52 62.0127C92.615 61.9527 92.315 61.9677 94.235 61.0377C95.21 60.5577 96.605 59.2377 97.04 58.3827C98 56.5227 97.775 54.2277 96.47 52.5777C95.555 51.4077 93.875 50.5077 91.625 49.9827C91.22 49.8927 90.89 49.7427 90.92 49.6677C90.935 49.5927 91.265 49.4577 91.64 49.3527C94.7 48.5727 96.485 46.0527 96.065 43.0827C95.705 40.5327 93.785 38.9277 90.425 38.3577C89.63 38.2227 67.46 38.1777 67.145 38.3127ZM84.695 42.0477C85.715 42.5727 86.45 43.7577 86.45 44.8827C86.45 46.1127 85.505 47.4477 84.395 47.7777C83.78 47.9577 76.895 48.0627 76.73 47.8827C76.595 47.7627 76.505 42.6327 76.625 42.1527L76.7 41.8077H80.465C83.63 41.8077 84.29 41.8527 84.695 42.0477ZM85.37 51.8727C86.81 52.5177 87.5 53.9877 87.17 55.6827C87.02 56.4327 86.885 56.6877 86.315 57.2577C85.37 58.2027 84.755 58.3077 80.36 58.3077C77.06 58.3077 76.85 58.2927 76.7 58.0227C76.535 57.7077 76.49 52.4877 76.64 51.8877L76.73 51.5577H80.705C84.41 51.5577 84.71 51.5727 85.37 51.8727Z" fill="#0C2C84"/>
</g>
<defs>
<clipPath id="clip0_7187_45">
<rect width="96" height="44.16" fill="white" transform="translate(2 28)"/>
</clipPath>
</defs>
</svg>
