<svg width="100" height="100" viewBox="0 0 100 100" fill="none" xmlns="http://www.w3.org/2000/svg">
<path d="M72.9253 47.4701C73.5549 47.3953 74.1989 47.3953 74.8256 47.4701C75.1706 46.6909 75.231 45.3282 74.9147 43.8619C74.4662 41.6769 73.851 40.3429 72.563 40.5528C71.2894 40.7627 71.2462 42.3497 71.6947 44.5347C71.965 45.7623 72.4135 46.8261 72.9224 47.4701H72.9253ZM61.9629 49.2066C62.8771 49.6119 63.4291 49.8793 63.6562 49.6407C63.7914 49.4912 63.7597 49.2209 63.5355 48.8616C63.087 48.1284 62.1584 47.3781 61.1694 46.9612C59.1022 46.0929 56.7217 46.3776 54.9105 47.7087C54.2952 48.1572 53.7289 48.7868 53.8036 49.1606C53.8324 49.2813 53.9244 49.3705 54.1342 49.3992C54.6431 49.4596 56.394 48.577 58.4324 48.4418C59.8555 48.3527 61.0515 48.8012 61.9658 49.2066H61.9629ZM60.1229 50.2559C58.924 50.4514 58.28 50.8396 57.8631 51.1989C57.4894 51.5123 57.2795 51.8717 57.2795 52.1132L57.3686 52.3374L57.5641 52.4122C57.8344 52.4122 58.4324 52.1563 58.4324 52.1563C59.66 51.7078 60.9768 51.5583 62.2648 51.7682C62.8628 51.8286 63.1474 51.8717 63.2825 51.6647C63.3113 51.6043 63.3572 51.4836 63.2365 51.2909C62.9662 50.8281 61.753 50.0604 60.1229 50.2559ZM69.228 54.1171C70.0359 54.5052 70.9214 54.3557 71.206 53.7721C71.505 53.1741 71.0852 52.3633 70.2774 51.9752C69.4695 51.5698 68.584 51.7366 68.285 52.3202C68.0004 52.9182 68.4201 53.7117 69.228 54.1171ZM74.4231 49.5659C73.7648 49.5516 73.2099 50.2703 73.2099 51.1817C73.1955 52.0816 73.7044 52.8147 74.3628 52.8291C75.0211 52.8434 75.5616 52.1247 75.576 51.2277C75.5904 50.3278 75.0671 49.5803 74.4231 49.5659ZM30.3235 65.8269C30.1596 65.6314 29.8894 65.6918 29.6335 65.7522C29.4236 65.7982 29.2137 65.8269 29.0182 65.8413C28.5697 65.8413 28.15 65.6314 27.8941 65.2721C27.5951 64.8092 27.6095 64.1192 27.9401 63.3401L28.0896 62.9807C28.6301 61.7991 29.4984 59.8211 28.5094 57.9351C27.7762 56.5119 26.563 55.6293 25.0939 55.4482C23.6851 55.2671 22.2936 55.7616 21.319 56.7966C19.8671 58.3979 19.6429 60.5858 19.9275 61.3649C20.031 61.6496 20.1977 61.7243 20.3156 61.7387C20.5542 61.7674 20.9136 61.5892 21.1551 60.9739L21.2155 60.7784C21.319 60.4478 21.5145 59.8354 21.8135 59.3553C22.6214 58.1277 24.2544 57.7827 25.4676 58.5906C26.4854 59.249 26.8907 60.5082 26.4566 61.6898C26.2324 62.3194 25.8586 63.4867 25.9477 64.4613C26.1116 66.4221 27.3105 67.2012 28.3886 67.2903C29.438 67.3363 30.1711 66.7354 30.3666 66.3013C30.4701 66.0454 30.381 65.8959 30.3206 65.8212L30.3235 65.8269ZM90.9831 62.2476C90.9371 62.0981 90.6841 61.1407 90.3247 60.0022L89.5916 58.0415C91.0291 55.8852 91.0579 53.9532 90.8653 52.8607C90.6554 51.5123 90.1005 50.3594 88.9649 49.1778C87.8407 47.9789 85.5206 46.7513 82.2575 45.84L80.5497 45.3771C80.5497 45.3023 80.4606 41.3348 80.3859 39.6414C80.3399 38.4138 80.2364 36.4818 79.6384 34.5958C78.934 32.0342 77.692 29.7888 76.1481 28.3513C80.4002 23.9353 83.0654 19.0679 83.051 14.9049C83.0366 6.86357 73.1984 4.43707 61.0687 9.46832L58.4927 10.5608C56.9201 9.01982 55.3619 7.47595 53.7749 5.93494C39.9375 -6.14868 -3.30538 41.9932 10.5147 53.7031L13.5392 56.2647C12.7314 58.4497 12.4467 60.8014 12.6997 63.1388C13.0304 66.3588 14.6777 69.4437 17.3716 71.8242C19.916 74.0839 23.2711 75.5215 26.5371 75.5215C31.9134 87.9357 44.2069 95.5573 58.6106 95.9915C74.0781 96.44 87.0616 89.1777 92.4954 76.1223C92.8547 75.2081 94.367 71.0767 94.367 67.4369C94.367 63.7684 92.2999 62.2562 90.9831 62.2562V62.2476ZM27.7187 72.0111C27.2559 72.1002 26.7614 72.1318 26.2812 72.1146C21.6237 71.9938 16.5781 67.7877 16.0692 62.7852C15.5144 57.2594 18.329 53.0217 23.3171 52.0183C24.0071 51.8688 24.7086 51.8228 25.413 51.8544C28.2132 52.0183 32.3302 54.1602 33.2589 60.2552C34.0984 65.6602 32.7787 71.1572 27.7187 72.0254V72.0111ZM22.5092 48.7121C19.41 49.3101 16.6701 51.0782 14.9911 53.5047C13.9877 52.6824 12.1305 51.0638 11.8027 50.4342C9.13762 45.3426 14.7237 35.4756 18.6165 29.8894C28.2592 16.1124 43.3674 5.67619 50.3622 7.5622C51.5007 7.89282 55.2584 12.2628 55.2584 12.2628C55.2584 12.2628 48.2664 16.1412 41.7804 21.5606C33.0519 28.2996 26.4624 38.0774 22.5092 48.7092V48.7121ZM71.5165 69.9612C71.62 69.9152 71.6976 69.7973 71.6804 69.691C71.666 69.5415 71.5452 69.4351 71.3957 69.4523C71.3957 69.4523 64.0875 70.5448 57.1702 68.0004C57.9177 65.5596 59.9245 66.4422 62.949 66.6837C67.6496 66.9683 72.3675 66.4594 76.9042 65.1714C80.0351 64.2716 84.1378 62.5063 87.3405 59.9763C88.4186 62.3424 88.7924 64.9472 88.7924 64.9472C88.7924 64.9472 89.6319 64.7977 90.319 65.2318C90.9774 65.6372 91.4575 66.4911 91.1269 68.6617C90.4685 72.7356 88.732 76.0447 85.8254 79.098C84.0141 81.0587 81.8579 82.6773 79.4457 83.859C78.1118 84.5633 76.7202 85.147 75.2971 85.6271C64.3347 89.2065 53.1194 85.2677 49.4969 76.8066C49.2122 76.1626 48.9736 75.4898 48.7781 74.7998C47.2371 69.2281 48.5395 62.5351 52.6421 58.3289C52.8807 58.0587 53.1366 57.7453 53.1366 57.3399C53.1366 57.0093 52.9267 56.6672 52.7485 56.4113C51.3254 54.3298 46.3689 50.7964 47.3579 43.9367C48.0766 39.0089 52.3747 35.5503 56.3882 35.7458L57.406 35.8062C59.1425 35.9097 60.6547 36.1368 62.0779 36.1943C64.4727 36.2978 66.629 35.9557 69.1762 33.8282C70.0301 33.1094 70.7173 32.4798 71.8874 32.2872C72.0081 32.2728 72.3215 32.1521 72.9195 32.1837C73.5491 32.2124 74.1471 32.4079 74.6704 32.7529C76.7231 34.1157 77.0077 37.4104 77.1112 39.8197C77.1716 41.1968 77.3355 44.5203 77.3959 45.4806C77.531 47.6656 78.1002 47.9818 79.2531 48.3556C79.9115 48.5798 80.5267 48.7437 81.4094 48.9852C84.1205 49.75 85.7219 50.5262 86.7252 51.5152C87.3405 52.1304 87.6079 52.7888 87.6999 53.4156C88.0305 55.7529 85.903 58.6279 80.2738 61.2471C74.1184 64.1077 66.6635 64.8264 61.5115 64.2572L59.7002 64.0473C55.5832 63.4924 53.2315 68.8227 55.7011 72.4941C57.2881 74.8458 61.6466 76.3868 65.9879 76.3868C75.9469 76.3868 83.6116 72.1203 86.4579 68.4346L86.6821 68.104C86.8316 67.8941 86.7109 67.7906 86.5326 67.9084C84.2125 69.4954 73.8654 75.8291 62.8139 73.9287C62.8139 73.9287 61.4655 73.7044 60.2379 73.2243C59.2633 72.8506 57.2278 71.9076 56.9748 69.8088C65.8988 72.5803 71.5136 69.9583 71.5136 69.9583L71.5165 69.9612ZM40.3112 29.8291C43.7411 25.8616 47.9616 22.4173 51.7365 20.4853C51.8716 20.4106 52.0067 20.5601 51.9464 20.6808C51.6474 21.2213 51.0637 22.4029 50.8826 23.2712C50.8539 23.4063 51.0034 23.5098 51.1069 23.4351C53.473 21.8337 57.5612 20.1116 61.155 19.8873C61.3045 19.8873 61.3792 20.0828 61.2585 20.1719C60.6605 20.6348 60.1344 21.1609 59.6715 21.7589C59.5967 21.8624 59.6715 21.9976 59.7922 21.9976C62.3222 22.0263 65.8729 22.9118 68.1786 24.2142C68.3425 24.3033 68.239 24.6023 68.0579 24.5592C64.5532 23.7513 58.8176 23.1361 52.8606 24.6052C47.5447 25.9076 43.4881 27.8999 40.5211 30.0706C40.3716 30.1741 40.1905 29.9786 40.3112 29.8291Z" fill="black" data-dark-mode-color="true"/>
</svg>
