<svg xmlns="http://www.w3.org/2000/svg" width="100" height="100" fill="none" viewBox="0 0 100 100"><g clip-path="url(#clip0_7187_37)"><path fill="#FF5F00" d="M62.9331 27.0479H37.3858V72.9518H62.9331V27.0479Z"/><path fill="#EB001B" d="M39.0079 50C39.0079 41.0787 43.1441 32.563 50.1189 27.048C37.4669 17.0724 19.0567 19.2622 9.08108 31.9953C-0.813413 44.6472 1.37635 62.9764 14.1094 72.952C24.7338 81.3055 39.5756 81.3055 50.2 72.952C43.1441 67.437 39.0079 58.9212 39.0079 50Z"/><path fill="#F79E1B" d="M97.4016 50C97.4016 66.1394 84.3441 79.1968 68.2048 79.1968C61.6355 79.1968 55.3095 77.0071 50.2 72.952C62.852 62.9764 65.0418 44.6472 55.0662 31.9142C53.6063 30.1299 51.9843 28.4268 50.2 27.048C62.852 17.0724 81.2622 19.2622 91.1567 31.9953C95.2118 37.1047 97.4016 43.4307 97.4016 50Z"/></g><defs><clipPath id="clip0_7187_37"><rect width="99.6" height="70.583" fill="#fff" transform="translate(0.399994 14.7087)"/></clipPath></defs></svg>