<svg width="48" height="48" viewBox="0 0 48 48" fill="none" xmlns="http://www.w3.org/2000/svg">
<path d="M11.5 34.9063V31.593C11.5003 30.17 12.8164 29.1118 14.2065 29.4166L21.5502 31.0266C23.189 31.3859 24.3571 32.838 24.3571 34.5157V36.1591C24.3571 38.4396 22.2488 40.1364 20.0212 39.6482L14.3069 38.3954C12.6682 38.0361 11.5 36.584 11.5 34.9063ZM12.9286 34.9063C12.9286 35.9129 13.6293 36.7833 14.6124 36.9989L20.3267 38.2531C21.6634 38.5461 22.9286 37.5275 22.9286 36.1591V34.5157C22.9286 33.5091 22.2279 32.6387 21.2447 32.423L13.8996 30.8117C13.4008 30.7027 12.9289 31.0824 12.9286 31.593V34.9063Z" fill="#B3BFC4"/>
<path d="M6.85718 30.1874L41.1429 38.2826V9.71118L6.85718 19.235V30.1874Z" fill="#E05241"/>
<path d="M4 31.1396V18.2825H6.85714V31.1396H4Z" fill="#B3BFC4"/>
<rect x="41.1428" y="8.28247" width="2.85714" height="31.4286" fill="#B3BFC4"/>
<path d="M39.7143 12.5681L8.28577 21.1395V22.5681L39.7143 16.8538V12.5681Z" fill="#EF5C4A"/>
</svg>
