<svg width="90" height="24" viewBox="0 0 90 24" fill="none" xmlns="http://www.w3.org/2000/svg">
<g clip-path="url(#clip0_8130_447)">
<path d="M33.5171 4.90845H28.5433C28.2029 4.90845 27.9135 5.15572 27.8604 5.49172L25.8487 18.2459C25.8087 18.4975 26.0036 18.7244 26.2589 18.7244H28.6335C28.9738 18.7244 29.2633 18.4772 29.3164 18.1404L29.8589 14.7004C29.9113 14.3637 30.2015 14.1164 30.5411 14.1164H32.1156C35.392 14.1164 37.2829 12.531 37.7767 9.38917C37.9993 8.01463 37.7862 6.93463 37.1425 6.17827C36.4356 5.34772 35.1818 4.90845 33.5171 4.90845ZM34.0909 9.56663C33.8189 11.3514 32.4553 11.3514 31.1367 11.3514H30.3862L30.9127 8.01827C30.944 7.81681 31.1185 7.66845 31.3222 7.66845H31.6662C32.5644 7.66845 33.4116 7.66845 33.8495 8.18045C34.1105 8.4859 34.1905 8.93972 34.0909 9.56663Z" fill="#002B8A"/>
<path d="M48.3848 9.50916H46.003C45.8001 9.50916 45.6248 9.65752 45.5935 9.85897L45.4881 10.5252L45.3215 10.2837C44.8059 9.53534 43.6561 9.28516 42.5085 9.28516C39.8765 9.28516 37.6285 11.2786 37.1906 14.075C36.963 15.4699 37.2866 16.8037 38.0779 17.7339C38.8037 18.5892 39.8423 18.9455 41.0779 18.9455C43.1986 18.9455 44.3746 17.5819 44.3746 17.5819L44.2685 18.2437C44.2285 18.4968 44.4234 18.7237 44.6772 18.7237H46.8226C47.1637 18.7237 47.4517 18.4764 47.5055 18.1397L48.7928 9.9877C48.8335 9.73679 48.6394 9.50916 48.3848 9.50916ZM45.0648 14.1448C44.835 15.5055 43.755 16.419 42.3775 16.419C41.6859 16.419 41.1332 16.1972 40.7783 15.7768C40.4263 15.3593 40.2925 14.7652 40.4045 14.1033C40.619 12.7542 41.7172 11.811 43.0735 11.811C43.7499 11.811 44.2997 12.0357 44.6619 12.4597C45.0248 12.8881 45.1688 13.4859 45.0648 14.1448Z" fill="#002B8A"/>
<path d="M61.0698 9.50903H58.6764C58.448 9.50903 58.2335 9.62249 58.104 9.81231L54.8029 14.6749L53.4037 10.0021C53.3157 9.70976 53.0458 9.50903 52.7404 9.50903H50.3884C50.1026 9.50903 49.904 9.78831 49.9949 10.0574L52.6313 17.7941L50.1527 21.293C49.9578 21.5687 50.1542 21.9476 50.4909 21.9476H52.8815C53.1084 21.9476 53.3207 21.837 53.4495 21.6509L61.4102 10.1599C61.6007 9.88503 61.4051 9.50903 61.0698 9.50903Z" fill="#002B8A"/>
<path d="M68.9941 4.90845H64.0196C63.68 4.90845 63.3905 5.15572 63.3374 5.49172L61.3258 18.2459C61.2858 18.4975 61.4807 18.7244 61.7345 18.7244H64.2872C64.5243 18.7244 64.7272 18.5514 64.7643 18.3157L65.3352 14.7004C65.3876 14.3637 65.6778 14.1164 66.0174 14.1164H67.5912C70.8683 14.1164 72.7585 12.531 73.2531 9.38917C73.4763 8.01463 73.2618 6.93463 72.6181 6.17827C71.912 5.34772 70.6589 4.90845 68.9941 4.90845ZM69.568 9.56663C69.2967 11.3514 67.9331 11.3514 66.6138 11.3514H65.864L66.3912 8.01827C66.4225 7.81681 66.5956 7.66845 66.8 7.66845H67.144C68.0414 7.66845 68.8894 7.66845 69.3272 8.18045C69.5883 8.4859 69.6676 8.93972 69.568 9.56663Z" fill="#009BE0"/>
<path d="M83.8611 9.50916H81.4807C81.2764 9.50916 81.1025 9.65752 81.072 9.85897L80.9665 10.5252L80.7993 10.2837C80.2836 9.53534 79.1345 9.28516 77.9869 9.28516C75.3549 9.28516 73.1076 11.2786 72.6698 14.075C72.4429 15.4699 72.7651 16.8037 73.5564 17.7339C74.2836 18.5892 75.3207 18.9455 76.5564 18.9455C78.6771 18.9455 79.8531 17.5819 79.8531 17.5819L79.7469 18.2437C79.7069 18.4968 79.9018 18.7237 80.1571 18.7237H82.3018C82.6414 18.7237 82.9309 18.4764 82.984 18.1397L84.272 9.9877C84.3113 9.73679 84.1163 9.50916 83.8611 9.50916ZM80.5411 14.1448C80.3127 15.5055 79.2313 16.419 77.8538 16.419C77.1636 16.419 76.6094 16.1972 76.2545 15.7768C75.9025 15.3593 75.7702 14.7652 75.8807 14.1033C76.0967 12.7542 77.1934 11.811 78.5498 11.811C79.2262 11.811 79.776 12.0357 80.1382 12.4597C80.5025 12.8881 80.6465 13.4859 80.5411 14.1448Z" fill="#009BE0"/>
<path d="M86.6691 5.25826L84.6277 18.2459C84.5877 18.4975 84.7826 18.7244 85.0364 18.7244H87.0888C87.4298 18.7244 87.7193 18.4772 87.7717 18.1404L89.7848 5.38699C89.8248 5.13535 89.6298 4.90771 89.376 4.90771H87.0778C86.8749 4.90844 86.7004 5.05681 86.6691 5.25826Z" fill="#009BE0"/>
<path d="M5.19351 21.2028L5.57388 18.7868L4.7266 18.7672H0.680786L3.49242 0.939538C3.50115 0.88572 3.52951 0.835538 3.57097 0.799902C3.61242 0.764265 3.66551 0.744629 3.72079 0.744629H10.5426C12.8073 0.744629 14.3702 1.2159 15.1862 2.14608C15.5688 2.58245 15.8124 3.03845 15.9302 3.54027C16.0539 4.06681 16.0561 4.6959 15.9353 5.46317L15.9266 5.51917V6.01081L16.3091 6.22754C16.6313 6.39845 16.8873 6.59408 17.0837 6.81808C17.411 7.19117 17.6226 7.66536 17.7121 8.22754C17.8044 8.80572 17.7739 9.49372 17.6226 10.2726C17.4481 11.1686 17.1659 11.949 16.7848 12.5875C16.4342 13.1759 15.9877 13.6639 15.4575 14.0421C14.9513 14.4014 14.3499 14.6741 13.6699 14.8486C13.011 15.0203 12.2597 15.1068 11.4357 15.1068H10.9048C10.5251 15.1068 10.1564 15.2435 9.86697 15.4886C9.57679 15.7388 9.38479 16.0806 9.32588 16.4544L9.28588 16.6719L8.61388 20.9301L8.58333 21.0864C8.57533 21.1359 8.56151 21.1606 8.54115 21.1774C8.52297 21.1926 8.49679 21.2028 8.47133 21.2028H5.19351Z" fill="#002B8A"/>
<path d="M16.6712 5.57617C16.6509 5.70635 16.6276 5.83944 16.6014 5.97617C15.7018 10.5951 12.624 12.1907 8.69306 12.1907H6.69161C6.21088 12.1907 5.80579 12.5398 5.73088 13.014L4.70615 19.5129L4.41597 21.3551C4.36724 21.6664 4.60724 21.9471 4.92143 21.9471H8.47124C8.89161 21.9471 9.2487 21.6416 9.31488 21.2271L9.34979 21.0467L10.0182 16.8053L10.0611 16.5725C10.1265 16.1565 10.4843 15.8511 10.9047 15.8511H11.4356C14.8749 15.8511 17.5672 14.4547 18.3542 10.414C18.6829 8.72599 18.5127 7.31654 17.6429 6.32526C17.3796 6.02635 17.0531 5.77835 16.6712 5.57617Z" fill="#009BE0"/>
<path d="M15.7302 5.20059C15.5928 5.16059 15.451 5.12423 15.3055 5.0915C15.1593 5.0595 15.0095 5.03114 14.8553 5.00641C14.3157 4.91914 13.7244 4.87769 13.091 4.87769H7.74405C7.61241 4.87769 7.48732 4.9075 7.37532 4.96132C7.12877 5.07987 6.9455 5.31332 6.90114 5.59914L5.76368 12.8035L5.73096 13.0137C5.80587 12.5395 6.21096 12.1904 6.69168 12.1904H8.69314C12.624 12.1904 15.7019 10.594 16.6015 5.97587C16.6284 5.83914 16.651 5.70605 16.6713 5.57587C16.4437 5.45514 16.1971 5.35187 15.9317 5.26387C15.8662 5.24205 15.7986 5.22096 15.7302 5.20059Z" fill="#001F6A"/>
<path d="M6.90117 5.59927C6.94554 5.31345 7.12881 5.08 7.37535 4.96218C7.48808 4.90836 7.61244 4.87855 7.74408 4.87855H13.091C13.7244 4.87855 14.3157 4.92 14.8554 5.00727C15.0095 5.032 15.1594 5.06036 15.3055 5.09236C15.451 5.12509 15.5928 5.16145 15.7303 5.20145C15.7986 5.22182 15.8663 5.24291 15.9324 5.264C16.1979 5.352 16.4444 5.456 16.6721 5.576C16.9397 3.86909 16.6699 2.70691 15.747 1.65455C14.7295 0.496 12.8932 0 10.5434 0H3.72154C3.24154 0 2.83208 0.349091 2.7579 0.824L-0.0835557 18.8349C-0.139556 19.1913 0.135353 19.5127 0.494626 19.5127H4.70626L5.76372 12.8036L6.90117 5.59927Z" fill="#002B8A"/>
</g>
<defs>
<clipPath id="clip0_8130_447">
<rect width="90" height="24" fill="white"/>
</clipPath>
</defs>
</svg>
