<svg width="114" height="24" viewBox="0 0 114 24" fill="none" xmlns="http://www.w3.org/2000/svg">
<path fill-rule="evenodd" clip-rule="evenodd" d="M27.1416 9.05611C26.9617 9.72514 26.613 10.2162 26.0955 10.5297C25.5774 10.8432 24.8508 11.0002 23.9135 11.0002H20.9358L21.9811 7.11231H24.9589C25.8954 7.11231 26.5384 7.26907 26.8877 7.58253C27.2364 7.89636 27.3215 8.38745 27.1416 9.05611ZM30.2252 8.97233C30.6039 7.5655 30.447 6.48539 29.7546 5.73294C29.0621 4.9805 27.8487 4.60449 26.1157 4.60449H19.4686L15.468 19.4854H18.6974L20.3103 13.4869H22.4282C22.9031 13.4869 23.2769 13.5637 23.5503 13.717C23.8243 13.8706 23.9847 14.1423 24.0342 14.532L24.6102 19.4854H28.0704L27.5091 14.8667C27.3947 13.8355 26.9212 13.2294 26.0893 13.0483C27.1499 12.7421 28.0383 12.233 28.7538 11.5223C29.4687 10.8119 29.9595 9.96214 30.2252 8.97233Z" fill="#072654" data-dark-mode-color="true"/>
<path fill-rule="evenodd" clip-rule="evenodd" d="M38.074 14.1559C37.8041 15.1589 37.3884 15.9256 36.8271 16.4549C36.2651 16.9845 35.5928 17.2491 34.8104 17.2491C34.0126 17.2491 33.4715 16.988 33.1862 16.4653C32.8996 15.943 32.8898 15.1874 33.1563 14.1976C33.4219 13.2085 33.8459 12.4353 34.4296 11.8774C35.0125 11.3207 35.6953 11.0416 36.4784 11.0416C37.2608 11.0416 37.7908 11.3103 38.0655 11.8466C38.3404 12.3828 38.3438 13.1526 38.074 14.1559ZM39.4895 8.88897L39.0851 10.3939C38.91 9.85029 38.5718 9.41863 38.0711 9.09821C37.5698 8.77779 36.9484 8.61719 36.2078 8.61719C35.2992 8.61719 34.4254 8.85077 33.5872 9.31752C32.749 9.78456 32.016 10.4428 31.3892 11.2926C30.7623 12.1426 30.3027 13.1109 30.0105 14.1976C29.7183 15.2848 29.6597 16.2426 29.8355 17.0714C30.0112 17.9007 30.3919 18.5381 30.9784 18.9839C31.5642 19.4302 32.3187 19.6526 33.2413 19.6526C33.9819 19.6526 34.6877 19.4994 35.3571 19.1928C36.0265 18.8867 36.5948 18.4613 37.0628 17.918L36.6409 19.4855H39.765L42.6137 8.88897H39.4895Z" fill="#072654" data-dark-mode-color="true"/>
<path fill-rule="evenodd" clip-rule="evenodd" d="M53.8473 8.88892H44.7678L44.1332 11.2508H49.417L42.431 17.2698L41.8347 19.4854H51.2078L51.8431 17.1239H46.1821L53.2741 11.0207L53.8473 8.88892Z" fill="#072654" data-dark-mode-color="true"/>
<path fill-rule="evenodd" clip-rule="evenodd" d="M61.841 14.1351C61.56 15.1797 61.1436 15.9607 60.5927 16.4761C60.0419 16.9915 59.3752 17.249 58.5928 17.249C56.9567 17.249 56.4184 16.2116 56.9763 14.1351C57.2538 13.1039 57.6722 12.3272 58.2315 11.8048C58.7914 11.2821 59.4693 11.0208 60.2664 11.0208C61.0488 11.0208 61.5767 11.2821 61.8487 11.8048C62.1206 12.3272 62.1185 13.1039 61.841 14.1351ZM63.6688 9.28585C62.9498 8.84027 62.0314 8.61719 60.9128 8.61719C59.7803 8.61719 58.7315 8.84027 57.7657 9.28585C56.7999 9.73209 55.9777 10.373 55.2992 11.2088C54.6199 12.0449 54.1304 13.0202 53.8305 14.1351C53.5307 15.25 53.4958 16.2248 53.726 17.061C53.9554 17.8972 54.4324 18.5381 55.159 18.9839C55.8849 19.4302 56.8138 19.6526 57.9463 19.6526C59.0648 19.6526 60.1032 19.4302 61.0621 18.9839C62.0195 18.5381 62.8389 17.8972 63.5181 17.061C64.1966 16.2248 64.6862 15.25 64.986 14.1351C65.2859 13.0202 65.3208 12.0449 65.0913 11.2088C64.8612 10.373 64.387 9.73209 63.6688 9.28585Z" fill="#072654" data-dark-mode-color="true"/>
<path fill-rule="evenodd" clip-rule="evenodd" d="M96.3452 14.1559C96.0754 15.1589 95.6597 15.9256 95.0983 16.4549C94.5369 16.9845 93.8633 17.2491 93.0809 17.2491C92.2846 17.2491 91.7427 16.988 91.4575 16.4653C91.1708 15.943 91.1611 15.1874 91.4275 14.1976C91.6932 13.2085 92.1172 12.4353 92.7009 11.8774C93.2838 11.3207 93.9666 11.0416 94.7496 11.0416C95.5321 11.0416 96.0621 11.3103 96.3368 11.8466C96.6116 12.3828 96.6151 13.1526 96.3452 14.1559ZM97.7608 8.88897L97.3564 10.3939C97.1813 9.85029 96.8431 9.41863 96.3424 9.09821C95.841 8.77779 95.2197 8.61719 94.4791 8.61719C93.5704 8.61719 92.6966 8.85077 91.8585 9.31752C91.0202 9.78456 90.2873 10.4428 89.6604 11.2926C89.0335 12.1426 88.5739 13.1109 88.2817 14.1976C87.9896 15.2848 87.9316 16.2426 88.1067 17.0714C88.2824 17.9007 88.6625 18.5381 89.2496 18.9839C89.8355 19.4302 90.59 19.6526 91.5126 19.6526C92.2531 19.6526 92.9589 19.4994 93.6283 19.1928C94.2978 18.8867 94.8661 18.4613 95.334 17.918L94.9122 19.4855H98.0362L100.885 8.88897H97.7608Z" fill="#072654" data-dark-mode-color="true"/>
<path fill-rule="evenodd" clip-rule="evenodd" d="M74.8075 11.7316L75.6039 8.84736C75.3333 8.70799 74.9749 8.63818 74.5279 8.63818C73.8145 8.63818 73.1276 8.81575 72.4658 9.17125C71.8975 9.47626 71.4135 9.90439 71.0049 10.4408L71.4191 8.8876L70.5146 8.8891H68.296L65.4254 19.4855H68.5927L70.0816 13.9472C70.2985 13.1392 70.6876 12.5087 71.2504 12.0559C71.8117 11.603 72.5125 11.3764 73.3515 11.3764C73.8688 11.3764 74.3535 11.4949 74.8075 11.7316Z" fill="#072654" data-dark-mode-color="true"/>
<path fill-rule="evenodd" clip-rule="evenodd" d="M83.6238 14.1975C83.3573 15.1873 82.9446 15.9429 82.3853 16.4652C81.8246 16.9879 81.1537 17.2489 80.3713 17.2489C79.5882 17.2489 79.0548 16.9844 78.7709 16.4548C78.4864 15.9255 78.4794 15.1591 78.7493 14.1558C79.0192 13.1525 79.4389 12.3826 80.0094 11.8464C80.5798 11.3101 81.257 11.0415 82.0401 11.0415C82.8085 11.0415 83.3309 11.3206 83.6077 11.8777C83.8839 12.4351 83.8895 13.2087 83.6238 14.1975ZM85.8371 9.31734C85.2493 8.85059 84.501 8.61743 83.5931 8.61743C82.796 8.61743 82.0373 8.79848 81.319 9.16064C80.5987 9.52346 80.015 10.0173 79.5673 10.6446L79.5774 10.5751L80.1095 8.88736H79.4972V8.88886H77.0177L76.2305 11.8191C76.2214 11.8532 76.2137 11.8849 76.2046 11.9194L72.9571 23.9999H76.1238L77.759 17.9183C77.9194 18.4611 78.2528 18.8865 78.7577 19.1927C79.2625 19.4992 79.8852 19.6525 80.6265 19.6525C81.5492 19.6525 82.4264 19.4301 83.2597 18.9838C84.0924 18.5382 84.8162 17.9005 85.4299 17.0713C86.0442 16.2428 86.4976 15.2846 86.7898 14.1975C87.082 13.1107 87.1426 12.1425 86.9731 11.2924C86.8037 10.4427 86.4243 9.78444 85.8371 9.31734Z" fill="#072654" data-dark-mode-color="true"/>
<path fill-rule="evenodd" clip-rule="evenodd" d="M113.998 8.89185L114 8.88892H112.082C112.021 8.88892 111.967 8.89065 111.91 8.89185H110.915L110.406 9.59878C110.365 9.65203 110.324 9.70564 110.28 9.76783L110.225 9.84969L106.179 15.4657L105.34 8.88892H102.027L103.705 18.8828L99.9987 23.9999H100.104H101.997H103.3L104.198 22.7318C104.225 22.694 104.248 22.6631 104.276 22.6231L105.324 21.1421L105.354 21.0997L110.044 14.4734L113.995 8.89623L114 8.89185H113.998Z" fill="#072654" data-dark-mode-color="true"/>
<path fill-rule="evenodd" clip-rule="evenodd" d="M7.32975 6.30931L6.38177 9.78654L11.8061 6.28976L8.25877 19.4822L11.8611 19.4855L17.1014 0L7.32975 6.30931Z" fill="#3395FF"/>
<path fill-rule="evenodd" clip-rule="evenodd" d="M1.49133 13.9395L0 19.4854H7.38391C7.38391 19.4854 10.4041 8.20612 10.405 8.20288C10.4021 8.20468 1.49133 13.9395 1.49133 13.9395Z" fill="#072654" data-dark-mode-color="true"/>
</svg>
