<svg width="100" height="100" viewBox="0 0 100 100" fill="none" xmlns="http://www.w3.org/2000/svg">
<path d="M50 94C74.3006 94 94 74.3006 94 50C94 25.6995 74.3006 6 50 6C25.6995 6 6 25.6995 6 50C6 74.3006 25.6995 94 50 94Z" fill="url(#paint0_linear_7855_885)"/>
<path d="M49.9994 90.6993C72.4774 90.6993 90.6994 72.4773 90.6994 49.9993C90.6994 27.5213 72.4774 9.29932 49.9994 9.29932C27.5214 9.29932 9.29941 27.5213 9.29941 49.9993C9.29941 72.4773 27.5214 90.6993 49.9994 90.6993Z" fill="url(#paint1_radial_7855_885)"/>
<path d="M50.0675 19.1995C49.7925 19.1995 49.5517 18.9934 49.5517 18.7184V11.5339C49.5517 11.2589 49.7925 11.0527 50.0675 11.0527C50.3425 11.0527 50.5829 11.2589 50.5829 11.5339V18.7184C50.5486 18.9934 50.3425 19.1995 50.0675 19.1995Z" fill="#F3F3F3"/>
<path d="M50.0682 19.2341C49.7586 19.2341 49.5182 18.9935 49.5182 18.7185V11.5341C49.5182 11.2591 49.7586 11.0186 50.0682 11.0186C50.3774 11.0186 50.6182 11.2591 50.6182 11.5341V18.7185C50.6182 18.9935 50.3432 19.2341 50.0682 19.2341ZM50.0682 11.087C49.8274 11.087 49.587 11.2936 49.587 11.5341V18.7185C49.587 18.9591 49.7932 19.1656 50.0682 19.1656C50.3086 19.1656 50.5493 18.9591 50.5493 18.7185V11.5341C50.5151 11.2936 50.3086 11.087 50.0682 11.087Z" fill="white"/>
<path d="M53.5076 15.3498C53.2326 15.3154 53.0264 15.1092 53.0264 14.8342L53.2668 11.637C53.3011 11.3624 53.5418 11.1559 53.8168 11.1903C54.0918 11.2247 54.298 11.4312 54.298 11.7062L54.0576 14.903C54.023 15.178 53.7826 15.3839 53.5076 15.3498Z" fill="#F3F3F3"/>
<path d="M53.5049 15.3848C53.1956 15.3504 52.9895 15.1098 52.9895 14.8348L53.2299 11.6377C53.2645 11.3631 53.5049 11.1225 53.8145 11.1565C54.1234 11.191 54.3299 11.4319 54.3299 11.7065L54.0895 14.9037C54.0549 15.2131 53.8145 15.4192 53.5049 15.3848ZM53.8145 11.2254C53.5737 11.2254 53.333 11.3975 53.333 11.6381L53.0922 14.8352C53.0922 15.0754 53.2645 15.2819 53.5395 15.316C53.7799 15.316 54.0206 15.1442 54.0206 14.9037L54.2611 11.7065C54.2611 11.466 54.0552 11.2598 53.8145 11.2254Z" fill="white"/>
<path d="M56.0826 19.8191C55.8073 19.7502 55.6357 19.5097 55.6699 19.2346L57.0792 12.1875C57.1483 11.9129 57.3888 11.7408 57.6638 11.8096C57.9388 11.8784 58.1104 12.119 58.0761 12.394L56.6669 19.4412C56.6323 19.6814 56.3576 19.8535 56.0826 19.8191Z" fill="#F3F3F3"/>
<path d="M56.0865 19.8523C55.7766 19.7835 55.605 19.5085 55.6396 19.2335L57.0488 12.1864C57.1177 11.9118 57.3927 11.7053 57.7016 11.7741C58.0109 11.8429 58.1831 12.1179 58.1485 12.3929L56.7393 19.44C56.6704 19.7146 56.3954 19.8867 56.0865 19.8523ZM57.7016 11.8429C57.4612 11.8085 57.2204 11.9458 57.1516 12.1868L55.7427 19.2338C55.7084 19.4741 55.8454 19.7146 56.1204 19.7838C56.3612 19.8179 56.6016 19.6802 56.6704 19.4396L58.0797 12.3929C58.1143 12.1179 57.9423 11.9118 57.7016 11.8429Z" fill="white"/>
<path d="M60.2078 16.7251C60.1425 16.7093 60.0806 16.6808 60.0262 16.6411C59.9718 16.6015 59.9256 16.5515 59.8904 16.494C59.8555 16.4365 59.832 16.3727 59.8216 16.3062C59.8112 16.2396 59.814 16.1717 59.8298 16.1062L60.6893 13.0128C60.7578 12.7378 61.0328 12.6001 61.3078 12.6689C61.5828 12.7378 61.7551 13.0128 61.6862 13.2878L60.8267 16.3816C60.7578 16.6562 60.4828 16.7939 60.2078 16.7251Z" fill="#F3F3F3"/>
<path d="M60.2081 16.7588C59.9331 16.69 59.7269 16.3805 59.8303 16.1059L60.6896 13.0117C60.7581 12.7371 61.0673 12.565 61.3423 12.6338C61.6173 12.7027 61.8235 13.0121 61.7204 13.2867L60.8612 16.3809C60.7923 16.6555 60.517 16.8276 60.2081 16.7588ZM61.3423 12.7371C61.1019 12.6683 60.8269 12.8059 60.7581 13.0465L59.8991 16.14C59.8303 16.3805 59.9673 16.6215 60.2423 16.69C60.4831 16.7588 60.7581 16.6215 60.8269 16.3809L61.6862 13.2867C61.7204 13.0465 61.5831 12.8063 61.3423 12.7371Z" fill="white"/>
<path d="M61.8942 21.5722C61.6192 21.4689 61.5164 21.1595 61.6192 20.9189L64.3692 14.2845C64.4719 14.044 64.7818 13.9063 65.0219 14.044C65.2972 14.1469 65.4006 14.4566 65.2972 14.6969L62.5476 21.3312C62.4445 21.5722 62.1346 21.7095 61.8942 21.5722Z" fill="#F3F3F3"/>
<path d="M61.8932 21.6071C61.7612 21.5568 61.6543 21.4561 61.5965 21.3272C61.5384 21.1983 61.534 21.0517 61.5839 20.9195L64.3339 14.285C64.437 14.01 64.7466 13.9067 65.0558 14.01C65.1882 14.0603 65.2947 14.161 65.3528 14.2899C65.4107 14.4188 65.4154 14.5654 65.3654 14.6977L62.6154 21.3321C62.4778 21.6071 62.1682 21.7445 61.8932 21.6071ZM65.0216 14.0788C64.7808 13.9759 64.5058 14.0788 64.4028 14.3194L61.6528 20.9539C61.5497 21.1945 61.687 21.435 61.9278 21.5383C62.1682 21.6412 62.4432 21.5383 62.5466 21.2977L65.2966 14.6633C65.3654 14.4567 65.262 14.1817 65.0216 14.0788Z" fill="white"/>
<path d="M66.5352 19.3724C66.2944 19.2347 66.191 18.9597 66.2944 18.7192L67.7379 15.8663C67.8753 15.6254 68.1503 15.5221 68.4256 15.6598C68.666 15.7975 68.7691 16.0725 68.666 16.3127L67.2222 19.1659C67.0849 19.4065 66.8102 19.5101 66.5352 19.3724Z" fill="#F3F3F3"/>
<path d="M66.5346 19.4063C66.2593 19.2686 66.1562 18.9592 66.2936 18.6842L67.7374 15.8313C67.8747 15.5559 68.1846 15.453 68.4593 15.5904C68.7343 15.728 68.8374 16.0374 68.6997 16.3124L67.2562 19.1653C67.1186 19.4403 66.8096 19.5439 66.5346 19.4063ZM68.425 15.6592C68.1843 15.5563 67.9093 15.6248 67.8062 15.8654L66.3624 18.7186C66.2596 18.9247 66.3624 19.1997 66.5686 19.3374C66.8093 19.4403 67.0843 19.3718 67.1874 19.1313L68.6312 16.278C68.7343 16.0718 68.6312 15.7969 68.425 15.6592Z" fill="white"/>
<path d="M67.2208 24.4603C66.9804 24.2885 66.9115 23.9791 67.0831 23.7729L71.0708 17.8258C71.2081 17.5852 71.518 17.5508 71.7581 17.6885C71.9992 17.8602 72.0677 18.1696 71.8958 18.3758L67.9081 24.3229C67.7708 24.5635 67.4615 24.6324 67.2208 24.4603Z" fill="#F3F3F3"/>
<path d="M67.2207 24.4932C66.9803 24.3214 66.9114 23.9776 67.0491 23.737L71.0364 17.7901C71.208 17.5495 71.5176 17.4806 71.7926 17.6527C72.0331 17.8245 72.1019 18.1683 71.9645 18.4089L67.9769 24.3559C67.8053 24.5964 67.4614 24.6649 67.2207 24.4932ZM71.7581 17.7216C71.5522 17.5839 71.2426 17.6183 71.1053 17.8245L67.1176 23.7714C66.9803 23.9772 67.0488 24.2526 67.2553 24.3899C67.4614 24.5276 67.7707 24.4932 67.908 24.287L71.8957 18.3745C72.0331 18.1683 71.9645 17.8589 71.7581 17.7216Z" fill="white"/>
<path d="M72.2403 23.1877C72.0344 23.0156 71.9656 22.7062 72.1375 22.5L74.131 19.9906C74.3026 19.7848 74.6122 19.75 74.8184 19.9221C75.0249 20.0939 75.0934 20.4033 74.9211 20.6094L72.9279 23.1189C72.756 23.325 72.4465 23.3594 72.2403 23.1877Z" fill="#F3F3F3"/>
<path d="M72.2076 23.2216C71.9669 23.0495 71.9326 22.7056 72.1048 22.465L74.098 19.9559C74.27 19.715 74.6138 19.6805 74.8542 19.8871C75.0946 20.0588 75.1292 20.4027 74.957 20.6433L72.9638 23.1527C72.7919 23.3933 72.448 23.4278 72.2076 23.2216ZM74.7854 19.9556C74.5795 19.7838 74.3042 19.8182 74.1326 20.0244L72.1388 22.5339C72.0014 22.74 72.036 23.015 72.2416 23.1868C72.448 23.3589 72.723 23.3245 72.895 23.1183L74.8885 20.6088C75.0264 20.4027 74.9912 20.0929 74.7854 19.9556Z" fill="white"/>
<path d="M71.8968 28.3445C71.6906 28.1384 71.6906 27.829 71.8968 27.6569L76.9838 22.6041C77.1903 22.3979 77.4993 22.432 77.6715 22.6041C77.8431 22.7758 77.8777 23.1196 77.6715 23.2914L72.6187 28.3445C72.4122 28.5507 72.103 28.5507 71.8968 28.3445Z" fill="#F3F3F3"/>
<path d="M71.8633 28.3783C71.764 28.2774 71.7084 28.1417 71.7084 28.0002C71.7084 27.8588 71.764 27.723 71.8633 27.6222L76.9507 22.5689C77.0516 22.4697 77.1873 22.4141 77.3288 22.4141C77.4705 22.4141 77.6063 22.4697 77.7072 22.5689C77.8062 22.6698 77.8618 22.8056 77.8618 22.947C77.8618 23.0884 77.8062 23.2242 77.7072 23.3251L72.6195 28.3779C72.5186 28.4771 72.3828 28.5326 72.2414 28.5326C72.0997 28.5326 71.9639 28.4774 71.8633 28.3783ZM77.6726 22.6034C77.501 22.4313 77.1914 22.4313 77.0198 22.6034L71.9322 27.6562C71.7599 27.8283 71.7599 28.1377 71.9322 28.3095C72.1038 28.4816 72.4133 28.4816 72.5849 28.3095L77.6726 23.2566C77.8445 23.0845 77.8445 22.8095 77.6726 22.6034Z" fill="white"/>
<path d="M77.054 28.0684C76.8821 27.8623 76.8821 27.5529 77.0883 27.3808L79.5287 25.3185C79.7349 25.1468 80.0445 25.1808 80.2164 25.3874C80.388 25.5935 80.388 25.9029 80.1821 26.0747L77.7417 28.1373C77.5352 28.309 77.2256 28.2746 77.054 28.0684Z" fill="#F3F3F3"/>
<path d="M77.0186 28.1026C76.8124 27.862 76.847 27.5182 77.0528 27.3464L79.4932 25.2838C79.6994 25.0776 80.0432 25.112 80.2494 25.3526C80.4559 25.5932 80.4216 25.937 80.2155 26.1088L77.7747 28.1714C77.5689 28.3772 77.2244 28.3432 77.0186 28.1026ZM80.1809 25.387C80.009 25.1809 79.734 25.1809 79.5281 25.3182L77.0874 27.3809C76.9158 27.5526 76.8812 27.8276 77.0528 28.0338C77.2247 28.2399 77.5 28.2399 77.7059 28.1026L80.1466 26.0399C80.3528 25.8682 80.3528 25.5932 80.1809 25.387Z" fill="white"/>
<path d="M75.6771 33.0185C75.5052 32.7781 75.574 32.4686 75.8147 32.3309L81.7956 28.3436C82.036 28.2059 82.3456 28.2748 82.4829 28.4813C82.6549 28.7219 82.586 29.0313 82.3456 29.1686L76.3647 33.1559C76.1582 33.2935 75.8487 33.2247 75.6771 33.0185Z" fill="#F3F3F3"/>
<path d="M75.6431 33.0186C75.4715 32.7778 75.5403 32.434 75.781 32.2624L81.7619 28.2747C82.0026 28.103 82.3465 28.1718 82.5181 28.4468C82.6903 28.6874 82.6211 29.0312 82.3807 29.2026L76.3999 33.1905C76.1588 33.3627 75.8153 33.2936 75.6431 33.0186ZM82.4492 28.5157C82.3119 28.3091 82.0369 28.2403 81.8307 28.378L75.8492 32.3652C75.6437 32.5028 75.5742 32.7778 75.7465 33.0186C75.8838 33.2248 76.1588 33.2936 76.3653 33.1562L82.3465 29.1686C82.5526 28.9968 82.5869 28.7215 82.4492 28.5157Z" fill="white"/>
<path d="M80.7991 33.7412C80.6615 33.5001 80.7303 33.1912 80.9707 33.0535L83.7553 31.4723C83.9957 31.3347 84.3053 31.4378 84.4426 31.6782C84.5803 31.919 84.5115 32.2282 84.2707 32.3659L81.4865 33.9474C81.2457 34.0847 80.9368 33.9819 80.7991 33.7412Z" fill="#F3F3F3"/>
<path d="M80.7651 33.7754C80.6274 33.5004 80.6962 33.1909 80.937 33.0535L83.7212 31.4723C83.962 31.3347 84.3058 31.4378 84.4431 31.6782C84.5808 31.9535 84.512 32.2628 84.2715 32.4001L81.487 33.9819C81.2462 34.1193 80.9024 34.0159 80.7651 33.7754ZM84.4086 31.7128C84.2712 31.4723 83.9962 31.4035 83.7904 31.5409L81.0058 33.1223C80.7996 33.2597 80.7308 33.5347 80.8336 33.7409C80.9712 33.9816 81.2462 34.0504 81.4524 33.9131L84.237 32.3313C84.4431 32.2285 84.512 31.9535 84.4086 31.7128Z" fill="white"/>
<path d="M78.4965 38.3126C78.3937 38.0376 78.4965 37.7626 78.7715 37.6595L85.406 34.9098C85.6465 34.8064 85.956 34.9438 86.0588 35.1842C86.1622 35.4592 86.0588 35.7342 85.7838 35.8373L79.1499 38.5873C78.9088 38.6904 78.5999 38.5873 78.4965 38.3126Z" fill="#F3F3F3"/>
<path d="M78.4629 38.3468C78.3601 38.0721 78.4629 37.7626 78.7379 37.6249L85.3722 34.8752C85.5045 34.8252 85.6509 34.83 85.7798 34.8878C85.9086 34.9459 86.0092 35.0525 86.0595 35.1845C86.1629 35.4595 86.0595 35.769 85.7845 35.9064L79.1506 38.6561C79.0182 38.706 78.8718 38.7016 78.7429 38.6438C78.6141 38.5857 78.5132 38.4788 78.4629 38.3468ZM85.991 35.219C85.8879 34.9783 85.6129 34.8752 85.4067 34.944L78.7722 37.6937C78.5317 37.7968 78.4283 38.0721 78.5317 38.3126C78.6345 38.5533 78.9095 38.6564 79.116 38.5876L85.7502 35.8379C85.991 35.7348 86.0944 35.4595 85.991 35.219Z" fill="white"/>
<path d="M83.3441 40.0316C83.2413 39.756 83.3783 39.4816 83.6533 39.3782L86.678 38.381C86.9187 38.2782 87.228 38.4498 87.2968 38.6905C87.3999 38.9655 87.2626 39.2405 86.9876 39.3436L83.9629 40.3409C83.7221 40.4436 83.4471 40.3072 83.3441 40.0316Z" fill="#F3F3F3"/>
<path d="M83.3098 40.0656C83.2071 39.7906 83.3444 39.4813 83.654 39.3782L86.6784 38.3813C86.9534 38.2782 87.2629 38.4501 87.366 38.7254C87.4688 39.0001 87.3318 39.3094 87.0219 39.4128L83.9975 40.4097C83.7225 40.4782 83.4132 40.3406 83.3098 40.0656ZM87.2972 38.7597C87.2284 38.519 86.9534 38.3813 86.7129 38.4501L83.6882 39.447C83.4475 39.5156 83.3444 39.7906 83.4132 40.0316C83.4821 40.272 83.7571 40.4094 83.9975 40.3406L87.0222 39.344C87.2629 39.2409 87.366 39.0004 87.2972 38.7597Z" fill="white"/>
<path d="M80.25 44.122C80.1812 43.847 80.3528 43.572 80.6278 43.5378L87.6744 42.1628C87.9491 42.0939 88.1898 42.3001 88.2583 42.5751C88.3272 42.8501 88.1556 43.1251 87.8806 43.1594L80.834 44.5344C80.559 44.5686 80.2846 44.397 80.25 44.122Z" fill="#F3F3F3"/>
<path d="M80.1806 44.1213C80.1117 43.8117 80.3179 43.5367 80.5929 43.4679L87.6398 42.0929C87.9148 42.024 88.1898 42.2305 88.2583 42.5401C88.3272 42.849 88.121 43.124 87.846 43.1929L80.7991 44.5682C80.5244 44.637 80.2491 44.4311 80.1806 44.1213ZM88.1898 42.574C88.1556 42.3336 87.9148 42.1617 87.6744 42.1963L80.6272 43.5713C80.3867 43.6055 80.2148 43.8802 80.2833 44.1213C80.3179 44.362 80.5583 44.5336 80.7994 44.4993L87.846 43.124C88.0867 43.0552 88.2583 42.8148 88.1898 42.574Z" fill="white"/>
<path d="M84.6492 46.769C84.615 46.494 84.7866 46.2533 85.0616 46.2187L88.2239 45.8406C88.4989 45.8064 88.74 46.0126 88.7739 46.2876C88.8085 46.5629 88.6366 46.8033 88.3616 46.8379L85.1989 47.2156C84.9585 47.2502 84.6838 47.044 84.6492 46.769Z" fill="#F3F3F3"/>
<path d="M84.6151 46.7689C84.5805 46.4597 84.7867 46.1847 85.0617 46.1501L88.2241 45.7723C88.4991 45.7378 88.7741 45.9439 88.8083 46.2535C88.8429 46.5628 88.6367 46.8378 88.3617 46.8723L85.1991 47.2501C84.9244 47.2847 84.6491 47.0785 84.6151 46.7689ZM88.7741 46.2878C88.7398 46.0473 88.4994 45.8408 88.2583 45.8751L85.0963 46.2535C84.8555 46.2878 84.6836 46.5285 84.7179 46.7689C84.7525 47.0097 84.9929 47.2162 85.2336 47.1816L88.396 46.8035C88.6367 46.7689 88.808 46.5285 88.7741 46.2878Z" fill="white"/>
<path d="M80.8023 50.1033C80.8023 49.8283 81.0082 49.5879 81.2835 49.5879H88.4677C88.7427 49.5879 88.9489 49.8283 88.9489 50.1033C88.9489 50.3783 88.7427 50.6187 88.4677 50.6187H81.2835C81.0085 50.6187 80.8023 50.3783 80.8023 50.1033Z" fill="#F3F3F3"/>
<path d="M80.7656 50.1027C80.7656 49.7935 81.0061 49.5527 81.2811 49.5527H88.4656C88.7406 49.5527 88.981 49.7935 88.981 50.1027C88.981 50.412 88.7406 50.6527 88.4656 50.6527H81.2811C81.0061 50.6527 80.7656 50.412 80.7656 50.1027ZM88.9122 50.1373C88.9122 49.8966 88.706 49.6561 88.465 49.6561H81.2814C81.0409 49.6561 80.8345 49.8617 80.8345 50.1373C80.8345 50.3777 81.0409 50.6182 81.2814 50.6182H88.4659C88.7064 50.5839 88.9122 50.3777 88.9122 50.1373Z" fill="white"/>
<path d="M84.6148 53.5749C84.6487 53.2999 84.8552 53.0938 85.1302 53.0938L88.3271 53.3342C88.6018 53.3687 88.808 53.6092 88.7737 53.8842C88.7395 54.1592 88.533 54.3654 88.258 54.3654L85.0614 54.1249C84.821 54.0904 84.6148 53.8499 84.6148 53.5749Z" fill="#F3F3F3"/>
<path d="M84.5804 53.5753C84.615 53.2657 84.8554 53.0596 85.1304 53.0596L88.328 53.3003C88.6027 53.3346 88.8434 53.5753 88.8088 53.8846C88.7749 54.1941 88.5338 54.4003 88.2588 54.4003L85.0616 54.1596C84.7866 54.1253 84.5804 53.8503 84.5804 53.5753ZM88.7749 53.8846C88.8088 53.6441 88.6027 53.4034 88.3619 53.4034L85.1647 53.163C84.9243 53.163 84.7178 53.3346 84.6835 53.6099C84.6493 53.8503 84.8554 54.0907 85.0962 54.0907L88.2934 54.3315C88.5338 54.3315 88.7403 54.1256 88.7749 53.8846Z" fill="white"/>
<path d="M80.1808 56.0837C80.2496 55.8087 80.4901 55.6368 80.7651 55.6714L87.812 57.081C88.087 57.1495 88.2589 57.3899 88.1901 57.6649C88.1212 57.9399 87.8808 58.1121 87.6058 58.0776L80.5586 56.6683C80.3181 56.6337 80.1462 56.3587 80.1808 56.0837Z" fill="#F3F3F3"/>
<path d="M80.1469 56.0848C80.2157 55.7752 80.4907 55.6036 80.7657 55.6375L87.813 57.0474C88.088 57.1156 88.2941 57.3906 88.2253 57.7002C88.1568 58.0095 87.8818 58.1817 87.6068 58.1471L80.5593 56.7379C80.2843 56.669 80.1127 56.3937 80.1469 56.0848ZM88.1568 57.7002C88.1914 57.4595 88.054 57.219 87.813 57.1502L80.7654 55.7409C80.5253 55.707 80.2843 55.844 80.2154 56.119C80.1815 56.3598 80.3188 56.6002 80.5596 56.669L87.6068 58.0783C87.8818 58.1129 88.088 57.9406 88.1568 57.7002Z" fill="white"/>
<path d="M83.2756 60.2098C83.2913 60.1441 83.3199 60.0825 83.3595 60.0281C83.3991 59.9737 83.449 59.9275 83.5066 59.8927C83.5638 59.8575 83.6276 59.8339 83.6942 59.8235C83.7608 59.8131 83.8287 59.816 83.8941 59.8317L86.9879 60.6909C87.2629 60.7598 87.4002 61.0351 87.3317 61.3098C87.316 61.3751 87.2874 61.4371 87.2478 61.4914C87.2082 61.5458 87.1582 61.592 87.1007 61.6272C87.0432 61.6624 86.9794 61.6857 86.9128 61.6963C86.8462 61.7067 86.7783 61.7039 86.7129 61.6879L83.6191 60.8286C83.3441 60.7598 83.207 60.4848 83.2756 60.2098Z" fill="#F3F3F3"/>
<path d="M83.2419 60.2093C83.3107 59.9343 83.6203 59.7281 83.8953 59.8312L86.9891 60.6902C87.2641 60.759 87.436 61.0685 87.3672 61.3435C87.2984 61.6185 86.9891 61.8244 86.7141 61.7216L83.6203 60.8624C83.3453 60.7936 83.1727 60.5182 83.2419 60.2093ZM87.2641 61.3435C87.3329 61.1028 87.1953 60.8278 86.9545 60.759L83.8607 59.8997C83.6203 59.8309 83.3795 59.9685 83.3107 60.2435C83.2422 60.4843 83.3795 60.759 83.6203 60.8278L86.7141 61.6874C86.9545 61.7216 87.1953 61.5843 87.2641 61.3435Z" fill="white"/>
<path d="M78.4294 61.8586C78.5321 61.5836 78.842 61.4806 79.0821 61.5836L85.7167 64.3336C85.9575 64.4364 86.0948 64.7463 85.9917 64.9864C85.8886 65.2617 85.5791 65.3648 85.3386 65.2617L78.7044 62.512C78.4294 62.409 78.326 62.0991 78.4294 61.8586Z" fill="#F3F3F3"/>
<path d="M78.3922 61.8252C78.4428 61.6932 78.5433 61.5864 78.6722 61.5285C78.801 61.4704 78.9478 61.466 79.0798 61.516L85.7141 64.266C85.9891 64.3694 86.0922 64.6786 85.9891 64.9882C85.9388 65.1202 85.8382 65.227 85.7094 65.2849C85.5802 65.343 85.4337 65.3474 85.3014 65.2974L78.6672 62.5474C78.3922 62.4098 78.2894 62.1002 78.3922 61.8252ZM85.9202 64.9536C86.0233 64.7132 85.9202 64.4382 85.6798 64.3348L79.0456 61.5848C78.8048 61.4817 78.5644 61.619 78.461 61.8598C78.3582 62.1002 78.461 62.3752 78.7017 62.4786L85.336 65.2286C85.5764 65.2974 85.8514 65.1944 85.9202 64.9536Z" fill="white"/>
<path d="M80.6614 66.5003C80.7991 66.2595 81.0738 66.1564 81.3145 66.2595L84.1673 67.7037C84.4077 67.8064 84.5111 68.116 84.3738 68.391C84.2361 68.6314 83.9611 68.7352 83.7207 68.6314L80.8679 67.1879C80.6272 67.0503 80.5238 66.7407 80.6614 66.5003Z" fill="#F3F3F3"/>
<path d="M80.6266 66.4649C80.7642 66.1899 81.0735 66.0868 81.3485 66.2241L84.2016 67.6683C84.4766 67.8059 84.5797 68.1152 84.442 68.3899C84.3047 68.6649 83.9951 68.7683 83.7204 68.6306L80.8673 67.1871C80.592 67.084 80.4892 66.7399 80.6266 66.4649ZM84.3392 68.3553C84.442 68.1149 84.3732 67.8399 84.1328 67.7371L81.2797 66.2929C81.0732 66.1902 80.7985 66.2929 80.6608 66.4991C80.5581 66.7399 80.6266 67.0149 80.867 67.1179L83.7201 68.5621C83.9608 68.6649 84.2358 68.5963 84.3392 68.3553Z" fill="white"/>
<path d="M75.6095 67.1533C75.7817 66.9129 76.0567 66.8441 76.2972 67.0157L82.2787 71.0033C82.5191 71.1407 82.5537 71.4505 82.4163 71.6907C82.2441 71.9317 81.9691 72.0002 81.7283 71.8283L75.7472 67.8407C75.5067 67.6691 75.4379 67.3595 75.6095 67.1533Z" fill="#F3F3F3"/>
<path d="M75.573 67.1195C75.7453 66.8788 76.0891 66.81 76.3295 66.9476L82.311 70.9349C82.5518 71.1069 82.6206 71.4161 82.4483 71.6911C82.2764 71.9322 81.9326 72.0007 81.6925 71.8633L75.7107 67.8757C75.4357 67.7038 75.4014 67.3599 75.573 67.1195ZM82.3456 71.6569C82.4826 71.451 82.4484 71.1411 82.2425 71.0038L76.2607 67.0161C76.0545 66.8788 75.7795 66.9476 75.6419 67.1538C75.5045 67.3599 75.5391 67.6695 75.745 67.8069L81.7264 71.7945C81.9326 71.9322 82.2076 71.863 82.3456 71.6569Z" fill="white"/>
<path d="M76.8826 72.1375C77.0542 71.931 77.3638 71.8625 77.5699 72.0348L80.0795 73.9937C80.2857 74.1656 80.3199 74.4749 80.1483 74.6814C79.9764 74.8872 79.6672 74.9564 79.4604 74.7844L76.9511 72.8249C76.7453 72.653 76.7104 72.3437 76.8826 72.1375Z" fill="#F3F3F3"/>
<path d="M76.8461 72.1031C77.0177 71.8624 77.3616 71.8281 77.6023 72.0003L80.1116 73.9593C80.352 74.1312 80.3866 74.475 80.2144 74.7154C80.0428 74.9565 79.6989 74.9904 79.4588 74.8188L76.9489 72.8593C76.7085 72.6877 76.6745 72.3435 76.8461 72.1031ZM80.1461 74.6815C80.3177 74.475 80.2832 74.2 80.077 74.0281L77.5678 72.0685C77.3616 71.9312 77.0866 71.9657 76.915 72.1716C76.7427 72.3781 76.7773 72.6531 76.9835 72.8247L79.4927 74.7843C79.6989 74.9219 79.9745 74.8874 80.1461 74.6815Z" fill="white"/>
<path d="M71.7606 71.7938C71.9671 71.5876 72.2766 71.5876 72.4482 71.7938L77.5356 76.8466C77.7424 77.053 77.7078 77.3623 77.5356 77.5342C77.33 77.7404 77.0201 77.7404 76.8482 77.5342L71.7606 72.4814C71.589 72.3092 71.589 71.9654 71.7606 71.7938Z" fill="#F3F3F3"/>
<path d="M71.7598 71.7589C71.8607 71.6596 71.9968 71.604 72.1382 71.604C72.2796 71.604 72.4154 71.6596 72.5163 71.7589L77.604 76.8117C77.7033 76.9126 77.7589 77.0484 77.7589 77.1901C77.7589 77.3315 77.7033 77.4673 77.604 77.5682C77.5031 77.6675 77.3673 77.7228 77.2259 77.7228C77.0844 77.7228 76.9487 77.6675 76.8478 77.5682L71.7598 72.5154C71.5194 72.3089 71.5194 71.9654 71.7598 71.7589ZM77.5351 77.4994C77.7073 77.3278 77.7073 77.0182 77.5351 76.8466L72.4475 71.7935C72.2759 71.6216 71.9663 71.6216 71.7947 71.7935C71.6225 71.9651 71.6225 72.2744 71.7947 72.4463L76.882 77.4994C77.0539 77.7059 77.3293 77.7059 77.5351 77.4994Z" fill="white"/>
<path d="M72.0684 76.9157C72.2748 76.7441 72.5841 76.7441 72.756 76.9503L74.8532 79.3564C75.0248 79.5629 74.9906 79.8725 74.7841 80.0441C74.5782 80.2157 74.2684 80.2157 74.0968 80.0095L71.9995 77.6033C71.8279 77.4317 71.8622 77.1222 72.0684 76.9157Z" fill="#F3F3F3"/>
<path d="M72.0339 76.915C72.2746 76.7095 72.5839 76.7434 72.7897 76.9496L74.8867 79.3558C75.0928 79.5623 75.0586 79.9058 74.8178 80.1123C74.5774 80.3184 74.2678 80.2839 74.0617 80.0777L71.9647 77.6715C71.7928 77.4311 71.7931 77.0873 72.0339 76.915ZM74.7839 80.0434C74.9897 79.8715 74.9897 79.5962 74.8524 79.3903L72.7552 76.9839C72.5836 76.8123 72.3086 76.7777 72.1024 76.9496C71.8962 77.1215 71.8962 77.3965 72.0336 77.6024L74.1305 80.0089C74.3024 80.215 74.578 80.215 74.7839 80.0434Z" fill="white"/>
<path d="M67.1175 75.6099C67.3579 75.4383 67.6675 75.5071 67.8051 75.7476L71.7925 81.6942C71.9301 81.9349 71.8613 82.2442 71.6552 82.3818C71.4144 82.5537 71.1051 82.4849 70.9675 82.2442L66.9798 76.2972C66.8422 76.0571 66.9113 75.7472 67.1175 75.6099Z" fill="#F3F3F3"/>
<path d="M67.1182 75.5745C67.359 75.4026 67.7028 75.4714 67.8744 75.7121L71.8618 81.6587C72.0337 81.8988 71.9645 82.2427 71.6902 82.4146C71.4491 82.5865 71.1056 82.5177 70.9337 82.2772L66.9466 76.3306C66.7747 76.056 66.8436 75.7461 67.1182 75.5745ZM71.6556 82.3461C71.8618 82.2084 71.9306 81.9334 71.7929 81.7272L67.8059 75.7806C67.6683 75.5748 67.3932 75.5399 67.1531 75.6776C66.9466 75.8149 66.8778 76.0899 67.0155 76.2964L71.0025 82.2427C71.1402 82.4146 71.4497 82.4837 71.6556 82.3461Z" fill="white"/>
<path d="M66.3967 80.6979C66.6372 80.5605 66.9467 80.6294 67.0841 80.8698L68.6656 83.6544C68.8029 83.8948 68.6995 84.2044 68.4591 84.3417C68.2183 84.4794 67.9091 84.4105 67.7717 84.1698L66.1906 81.3855C66.0875 81.1448 66.1566 80.8352 66.3967 80.6979Z" fill="#F3F3F3"/>
<path d="M66.3975 80.6625C66.6725 80.5248 66.9817 80.5936 67.1191 80.8344L68.7002 83.6189C68.8379 83.8597 68.7691 84.2035 68.4947 84.3408C68.2191 84.4785 67.9098 84.4097 67.7725 84.1689L66.1913 81.3844C66.0536 81.1436 66.1228 80.8344 66.3975 80.6625ZM68.4598 84.3066C68.6663 84.1689 68.7691 83.8939 68.6317 83.6878L67.0506 80.9032C66.9129 80.697 66.6379 80.6282 66.4317 80.731C66.2252 80.8686 66.1225 81.1436 66.2598 81.3498L67.8413 84.1347C67.9441 84.3409 68.2536 84.4443 68.4598 84.3066Z" fill="white"/>
<path d="M61.825 78.428C62.1 78.3249 62.375 78.428 62.4784 78.6684L65.2626 85.3027C65.3657 85.5434 65.2284 85.8527 64.9876 85.9554C64.7472 86.0588 64.4376 85.9554 64.3348 85.715L61.5503 79.0811C61.4472 78.84 61.5845 78.5311 61.825 78.428Z" fill="#F3F3F3"/>
<path d="M61.8253 78.3936C62.1003 78.2908 62.4095 78.3936 62.5472 78.6686L65.3315 85.3031C65.3814 85.4351 65.3767 85.5819 65.3189 85.7108C65.2607 85.8393 65.1542 85.9402 65.0222 85.9905C64.7472 86.0936 64.4376 85.9905 64.3003 85.7155L61.516 79.0812C61.4129 78.8405 61.5506 78.5312 61.8253 78.3936ZM64.9534 85.922C65.1938 85.8186 65.2972 85.5436 65.1938 85.3374L62.4095 78.7031C62.3068 78.4624 62.0318 78.3593 61.791 78.4624C61.5506 78.5655 61.4469 78.8405 61.5506 79.047L64.3345 85.6812C64.4722 85.922 64.7126 86.0247 64.9534 85.922Z" fill="white"/>
<path d="M60.1401 83.3096C60.4154 83.2065 60.6901 83.3439 60.7931 83.6189L61.7904 86.6439C61.8931 86.8846 61.7215 87.1939 61.4811 87.2627C61.2061 87.3658 60.9311 87.2285 60.828 86.9535L59.8311 83.9285C59.728 83.6877 59.8651 83.4127 60.1401 83.3096Z" fill="#F3F3F3"/>
<path d="M60.1061 83.2746C60.2384 83.2247 60.3849 83.2294 60.5137 83.2872C60.6426 83.3453 60.7432 83.4519 60.7934 83.5839L61.7907 86.6089C61.8938 86.8839 61.7218 87.1931 61.4465 87.2965C61.3142 87.3462 61.1678 87.3418 61.0389 87.2837C60.91 87.2258 60.8095 87.119 60.7592 86.987L59.7623 83.9623C59.6934 83.6873 59.8311 83.3777 60.1061 83.2746ZM61.4469 87.2274C61.6876 87.1589 61.8249 86.8839 61.7564 86.6431L60.7592 83.6185C60.6907 83.3777 60.4157 83.2746 60.1749 83.3435C59.9339 83.4123 59.7965 83.6873 59.8654 83.9277L60.8623 86.9527C60.8799 87.0109 60.9094 87.0649 60.9493 87.1111C60.9889 87.1573 61.038 87.1944 61.0933 87.2205C61.1483 87.2466 61.2083 87.2604 61.2693 87.2617C61.3302 87.2629 61.3906 87.251 61.4469 87.2274Z" fill="white"/>
<path d="M56.0828 80.1807C56.3575 80.1119 56.6332 80.2835 56.6671 80.5585L58.1112 87.606C58.1801 87.8804 57.9736 88.1215 57.6983 88.19C57.4236 88.2588 57.1483 88.0872 57.1143 87.8122L55.6699 80.7647C55.6359 80.5242 55.8078 80.2496 56.0828 80.1807Z" fill="#F3F3F3"/>
<path d="M56.0846 80.147C56.3935 80.0785 56.6685 80.2847 56.7374 80.5597L58.1809 87.6076C58.2497 87.8822 58.0432 88.1915 57.7682 88.2261C57.459 88.2949 57.184 88.0887 57.1154 87.8137L55.6716 80.7659C55.6031 80.4909 55.7757 80.2156 56.0846 80.147ZM57.6994 88.1572C57.9404 88.123 58.112 87.8822 58.0778 87.6072L56.634 80.5597C56.6 80.3193 56.325 80.1474 56.084 80.2159C55.8435 80.2504 55.6719 80.4909 55.7062 80.7659L57.15 87.8137C57.2182 88.0541 57.4586 88.1912 57.6994 88.1572Z" fill="white"/>
<path d="M53.4705 84.6498C53.7455 84.6156 53.986 84.7875 54.0548 85.0625L54.4671 88.2248C54.5017 88.4998 54.2955 88.7403 54.0199 88.7748C53.7455 88.8091 53.5048 88.6375 53.436 88.3625L53.0236 85.1998C52.9894 84.9248 53.1955 84.6844 53.4705 84.6498Z" fill="#F3F3F3"/>
<path d="M53.4716 84.6151C53.7812 84.5808 54.0562 84.787 54.0904 85.062L54.5031 88.2246C54.5376 88.4996 54.3312 88.7746 54.0216 88.8089C53.712 88.8435 53.437 88.6373 53.4024 88.362L52.9901 85.1993C52.9555 84.9243 53.162 84.6493 53.4716 84.6151ZM53.9873 88.7401C54.2281 88.7061 54.4346 88.465 54.4 88.2246L53.9873 85.062C53.9528 84.8215 53.712 84.6493 53.4716 84.6839C53.2308 84.7181 53.024 84.9589 53.0586 85.1993L53.4716 88.3623C53.5058 88.6027 53.7466 88.7746 53.9873 88.7401Z" fill="white"/>
<path d="M49.9325 80.7998C50.2075 80.7998 50.4479 81.0063 50.4479 81.2813V88.4655C50.4479 88.7405 50.2075 88.947 49.9325 88.947C49.6575 88.947 49.417 88.7405 49.417 88.4655V81.2813C49.4513 81.0063 49.6575 80.7998 49.9325 80.7998Z" fill="#F3F3F3"/>
<path d="M49.9299 80.7656C50.2394 80.7656 50.4799 81.0061 50.4799 81.2811V88.4656C50.4799 88.7406 50.2394 88.981 49.9299 88.981C49.6206 88.981 49.3799 88.7406 49.3799 88.4656V81.2814C49.3799 81.0064 49.6549 80.7656 49.9299 80.7656ZM49.9299 88.9125C50.1706 88.9125 50.411 88.7064 50.411 88.4656V81.2814C50.411 81.0406 50.2049 80.8345 49.9299 80.8345C49.6894 80.8345 49.4487 81.0406 49.4487 81.2814V88.4656C49.4829 88.7064 49.6894 88.9125 49.9299 88.9125Z" fill="white"/>
<path d="M46.4939 84.6507C46.7689 84.6853 46.975 84.8914 46.975 85.1664L46.7343 88.3633C46.7004 88.6383 46.4593 88.8445 46.1843 88.8106C45.9093 88.7757 45.7031 88.5695 45.7031 88.2945L45.9439 85.0976C45.9781 84.8229 46.2189 84.6164 46.4939 84.6507Z" fill="#F3F3F3"/>
<path d="M46.4947 84.615C46.8039 84.6493 47.0101 84.89 47.0101 85.165L46.7697 88.3623C46.7351 88.6373 46.4947 88.8777 46.1851 88.8434C45.8762 88.8089 45.6697 88.5684 45.6697 88.2934L45.9101 85.0962C45.9447 84.787 46.1851 84.5808 46.4947 84.615ZM46.1851 88.7746C46.4259 88.7746 46.6666 88.6027 46.6666 88.3623L46.9073 85.165C46.9073 84.9243 46.7351 84.7181 46.4601 84.6839C46.2197 84.6839 45.9789 84.8555 45.9789 85.0965L45.7385 88.2934C45.7385 88.5339 45.9444 88.7404 46.1851 88.7746Z" fill="white"/>
<path d="M43.9138 80.1812C44.1888 80.2497 44.3604 80.4901 44.3261 80.7651L42.9169 87.813C42.848 88.088 42.6073 88.2599 42.3323 88.1908C42.0573 88.1222 41.8857 87.8818 41.9199 87.6065L43.3295 80.559C43.3638 80.3185 43.6388 80.1466 43.9138 80.1812Z" fill="#F3F3F3"/>
<path d="M43.9149 80.1467C44.2241 80.2155 44.396 80.4908 44.3618 80.7655L42.9522 87.813C42.8834 88.088 42.6084 88.2942 42.2994 88.2254C41.9899 88.1566 41.818 87.8816 41.8522 87.6066L43.2618 80.5593C43.3306 80.2843 43.6059 80.1121 43.9149 80.1467ZM42.2994 88.1566C42.5399 88.1908 42.7806 88.0535 42.8494 87.813L44.2584 80.7655C44.293 80.5251 44.1556 80.2843 43.8806 80.2155C43.6399 80.1816 43.3994 80.3189 43.3306 80.5596L41.921 87.6066C41.8868 87.8816 42.0584 88.088 42.2994 88.1566Z" fill="white"/>
<path d="M39.7926 83.2752C40.0679 83.3441 40.2395 83.6191 40.1707 83.8941L39.3114 86.9876C39.2429 87.2623 38.9679 87.3996 38.6929 87.3311C38.6272 87.3154 38.5656 87.2871 38.5112 87.2475C38.4565 87.2076 38.4107 87.1576 38.3755 87.1004C38.3403 87.0429 38.3167 86.9791 38.3063 86.9125C38.2959 86.8458 38.2988 86.778 38.3145 86.7126L39.1741 83.6191C39.2429 83.3441 39.5176 83.2067 39.7926 83.2752Z" fill="#F3F3F3"/>
<path d="M39.7903 83.2416C40.0656 83.3101 40.2718 83.6196 40.1684 83.8946L39.3091 86.9882C39.2406 87.2632 38.931 87.4354 38.656 87.3662C38.381 87.2977 38.1749 86.9882 38.278 86.7132L39.1372 83.6196C39.206 83.3446 39.481 83.1727 39.7903 83.2416ZM38.656 87.2632C38.8968 87.332 39.1718 87.1943 39.2406 86.9539L40.0996 83.8601C40.1684 83.6196 40.031 83.3789 39.756 83.3101C39.5156 83.2412 39.2406 83.3789 39.1718 83.6196L38.3122 86.7132C38.278 86.9539 38.4153 87.1943 38.656 87.2632Z" fill="white"/>
<path d="M38.1073 78.4282C38.3823 78.5313 38.4853 78.8406 38.3823 79.0813L35.6326 85.7156C35.5295 85.9566 35.2199 86.094 34.9795 85.9566C34.7387 85.819 34.6011 85.544 34.7042 85.3035L37.4542 78.669C37.5569 78.4282 37.8671 78.2906 38.1073 78.4282Z" fill="#F3F3F3"/>
<path d="M38.1051 78.3927C38.2371 78.443 38.3439 78.5439 38.4021 78.6728C38.4599 78.8016 38.4643 78.9484 38.4146 79.0804L35.6643 85.7143C35.5612 85.9893 35.2517 86.0927 34.9424 85.9893C34.8104 85.9391 34.7036 85.8385 34.6457 85.7096C34.5876 85.5808 34.5832 85.4343 34.6328 85.3023L37.3828 78.6677C37.5208 78.3927 37.8301 78.2554 38.1051 78.3927ZM34.9767 85.9211C35.2174 86.0239 35.4924 85.9211 35.5955 85.6804L38.3458 79.0461C38.4486 78.8054 38.3112 78.5647 38.0708 78.4616C37.8301 78.3588 37.5551 78.4616 37.4517 78.7023L34.7017 85.3366C34.6328 85.5427 34.7362 85.8177 34.9767 85.9211Z" fill="white"/>
<path d="M33.4676 80.63C33.708 80.7674 33.8111 81.0424 33.708 81.2828L32.2642 84.1356C32.1265 84.376 31.8515 84.4794 31.5765 84.3418C31.3361 84.2044 31.233 83.9294 31.3361 83.689L32.7802 80.8365C32.9176 80.5955 33.1926 80.4924 33.4676 80.63Z" fill="#F3F3F3"/>
<path d="M33.4674 80.5938C33.7424 80.7311 33.8455 81.0407 33.7082 81.3154L32.2643 84.1685C32.1267 84.4435 31.8171 84.5469 31.5424 84.4092C31.2674 84.2719 31.1643 83.962 31.302 83.6873L32.7455 80.8349C32.8832 80.5592 33.1924 80.4565 33.4674 80.5938ZM31.577 84.3407C31.8174 84.4435 32.0924 84.3747 32.1955 84.1342L33.6393 81.2815C33.7421 81.075 33.6393 80.8 33.4332 80.6626C33.1924 80.5599 32.9174 80.6284 32.8143 80.8688L31.3705 83.7216C31.2674 83.9281 31.3705 84.2034 31.577 84.3407Z" fill="white"/>
<path d="M32.7767 75.5407C33.0171 75.7123 33.0859 76.0219 32.9143 76.2281L28.9266 82.1756C28.7893 82.4157 28.4795 82.4503 28.2393 82.313C27.9987 82.1407 27.9299 81.8318 28.1016 81.625L32.0893 75.6774C32.2267 75.4373 32.5359 75.3691 32.7767 75.5407Z" fill="#F3F3F3"/>
<path d="M32.7773 75.5071C33.0177 75.679 33.0865 76.0232 32.9489 76.2636L28.9615 82.2108C28.7898 82.4509 28.4803 82.5197 28.2053 82.3481C27.9648 82.1759 27.8959 81.8324 28.0332 81.5917L32.0211 75.6447C32.1927 75.404 32.5365 75.3352 32.7773 75.5071ZM28.2398 82.2793C28.4456 82.4167 28.7554 82.3821 28.8927 82.1762L32.8804 76.229C33.0177 76.0232 32.9492 75.7481 32.7427 75.6102C32.5365 75.4728 32.2273 75.5074 32.0899 75.7133L28.1021 81.6259C27.9648 81.8324 28.0332 82.142 28.2398 82.2793Z" fill="white"/>
<path d="M27.7582 76.8127C27.9647 76.9846 28.0332 77.2938 27.8615 77.5L25.8677 80.0093C25.6959 80.2154 25.3865 80.25 25.1804 80.0781C24.9742 79.9065 24.9054 79.5969 25.0774 79.3904L27.0709 76.8812C27.2426 76.6753 27.5521 76.6408 27.7582 76.8127Z" fill="#F3F3F3"/>
<path d="M27.7942 76.7781C28.0348 76.9497 28.0692 77.2935 27.8971 77.5342L25.9036 80.0435C25.7318 80.2843 25.388 80.3185 25.1474 80.1123C24.9068 79.9404 24.8724 79.5969 25.0445 79.3559L27.038 76.8469C27.2098 76.6059 27.5536 76.5719 27.7942 76.7781ZM25.2163 80.0435C25.4221 80.2154 25.6974 80.1815 25.8692 79.9747L27.863 77.4654C28.0007 77.2596 27.9659 76.9842 27.7601 76.8123C27.5536 76.6401 27.2786 76.6747 27.1069 76.8812L25.113 79.3904C24.9757 79.5969 25.0104 79.9059 25.2163 80.0435Z" fill="white"/>
<path d="M28.1037 71.6568C28.3099 71.8627 28.3099 72.1722 28.1037 72.3442L23.0166 77.3969C22.8101 77.6034 22.501 77.5692 22.3289 77.3969C22.1572 77.2253 22.1228 76.8815 22.3289 76.7096L27.3817 71.6568C27.5882 71.4503 27.8976 71.4503 28.1037 71.6568Z" fill="#F3F3F3"/>
<path d="M28.1358 71.6219C28.2348 71.7228 28.2903 71.8586 28.2903 71.9997C28.2903 72.1411 28.2348 72.2769 28.1358 72.3778L23.0483 77.4315C22.9475 77.5305 22.8117 77.5861 22.6704 77.5861C22.5291 77.5861 22.3934 77.5305 22.2925 77.4315C22.1933 77.3306 22.1377 77.1948 22.1377 77.0531C22.1377 76.9117 22.1933 76.7759 22.2925 76.675L27.3797 71.6219C27.4806 71.5226 27.6163 71.4673 27.7578 71.4673C27.8992 71.4673 28.035 71.5226 28.1358 71.6219ZM22.3266 77.3966C22.4983 77.5685 22.8077 77.5685 22.9795 77.3966L28.067 72.3432C28.2391 72.1716 28.2391 71.862 28.067 71.6904C27.8953 71.5182 27.5858 71.5182 27.4141 71.6904L22.3266 76.7435C22.1549 76.9151 22.1549 77.1907 22.3266 77.3966Z" fill="white"/>
<path d="M22.9453 71.9321C23.117 72.1376 23.117 72.4475 22.9108 72.6194L20.4703 74.6821C20.2641 74.854 19.9547 74.8194 19.7826 74.6133C19.6108 74.4068 19.6108 74.0978 19.817 73.9256L22.2576 71.8633C22.4641 71.691 22.7731 71.7253 22.9453 71.9321Z" fill="#F3F3F3"/>
<path d="M22.9819 71.8967C23.188 72.1374 23.1536 72.4809 22.9474 72.6532L20.5069 74.7152C20.3007 74.9217 19.9569 74.8874 19.7507 74.6467C19.5442 74.4059 19.5786 74.0624 19.7848 73.8902L22.2257 71.8282C22.4315 71.622 22.7761 71.6563 22.9819 71.8967ZM19.8192 74.6124C19.9913 74.8186 20.2663 74.8186 20.4721 74.6813L22.913 72.6186C23.0848 72.447 23.1192 72.1717 22.9474 71.9658C22.7754 71.7593 22.5004 71.7593 22.2946 71.897L19.8536 73.9593C19.6474 74.1309 19.6474 74.4066 19.8192 74.6124Z" fill="white"/>
<path d="M24.3222 66.9808C24.494 67.2216 24.4252 67.5308 24.1846 67.6685L18.2034 71.6558C17.9629 71.7932 17.6535 71.7243 17.5161 71.5181C17.344 71.2777 17.4129 70.9682 17.6535 70.8305L23.6349 66.8435C23.8414 66.7061 24.1501 66.7746 24.3222 66.9808Z" fill="#F3F3F3"/>
<path d="M24.3571 66.9817C24.5288 67.2225 24.46 67.566 24.2194 67.7382L18.2384 71.7252C17.9978 71.8975 17.654 71.8283 17.4822 71.5536C17.3101 71.3132 17.3793 70.9694 17.6196 70.7975L23.6009 66.8098C23.8415 66.6382 24.1854 66.707 24.3571 66.9817ZM17.5511 71.4848C17.6884 71.691 17.9634 71.7598 18.1696 71.6225L24.1506 67.6348C24.3571 67.4975 24.4256 67.2225 24.2538 66.982C24.1165 66.7755 23.8415 66.707 23.635 66.8444L17.654 70.832C17.4478 71.0036 17.4134 71.2786 17.5511 71.4848Z" fill="white"/>
<path d="M19.2006 66.2595C19.3383 66.4999 19.2695 66.8095 19.0289 66.9472L16.2444 68.528C16.0038 68.6654 15.6944 68.5626 15.5571 68.3218C15.4194 68.0814 15.4882 67.7722 15.7288 67.6342L18.5133 66.0533C18.7539 65.9157 19.063 66.0191 19.2006 66.2595Z" fill="#F3F3F3"/>
<path d="M19.2353 66.2254C19.3726 66.5004 19.3038 66.8096 19.0632 66.9473L16.2788 68.5282C16.0382 68.6655 15.6944 68.5627 15.5571 68.3223C15.4194 68.0473 15.4882 67.7377 15.7288 67.6001L18.5132 66.0192C18.7538 65.8816 19.098 65.9846 19.2353 66.2254ZM15.5911 68.2877C15.7288 68.5282 16.0038 68.597 16.21 68.4593L18.9944 66.8785C19.2005 66.7408 19.2694 66.4658 19.1665 66.2596C19.0288 66.0192 18.7538 65.9504 18.5476 66.088L15.7632 67.6689C15.5571 67.772 15.4879 68.0473 15.5911 68.2877Z" fill="white"/>
<path d="M21.5016 61.6866C21.6045 61.9616 21.5016 62.2366 21.2266 62.3394L14.5921 65.0897C14.3516 65.1928 14.0421 65.0555 13.9392 64.8147C13.836 64.5397 13.9392 64.2647 14.2142 64.1616L20.8487 61.4116C21.0892 61.3089 21.3987 61.4116 21.5016 61.6866Z" fill="#F3F3F3"/>
<path d="M21.536 61.6537C21.6389 61.9287 21.536 62.2383 21.261 62.3753L14.6266 65.1253C14.4944 65.1753 14.3478 65.1706 14.219 65.1127C14.0902 65.0546 13.9896 64.9481 13.9392 64.8161C13.836 64.5411 13.9392 64.2315 14.2142 64.0941L20.8487 61.3445C20.9808 61.2945 21.1274 61.2992 21.2562 61.357C21.385 61.4152 21.4856 61.5217 21.536 61.6537ZM14.0077 64.7815C14.111 65.0225 14.386 65.1259 14.5921 65.0565L21.2266 62.3065C21.4671 62.2037 21.5704 61.9287 21.4671 61.6883C21.3642 61.4475 21.0892 61.3445 20.8827 61.4133L14.2483 64.1633C14.0077 64.2661 13.9048 64.5404 14.0077 64.7815Z" fill="white"/>
<path d="M16.6568 59.9685C16.7597 60.2435 16.6224 60.5185 16.3473 60.6216L13.3223 61.6185C13.0818 61.7213 12.7723 61.5497 12.7035 61.3092C12.6006 61.0342 12.7379 60.7592 13.0129 60.6562L16.0379 59.6592C16.2785 59.5562 16.5535 59.6935 16.6568 59.9685Z" fill="#F3F3F3"/>
<path d="M16.6885 59.9343C16.7917 60.2093 16.6544 60.5186 16.345 60.622L13.32 61.6189C13.045 61.7217 12.7356 61.5501 12.6324 61.2751C12.5295 60.9998 12.6668 60.6905 12.9766 60.5874L16.0012 59.5902C16.2762 59.5217 16.5852 59.6587 16.6885 59.9343ZM12.7016 61.2408C12.7704 61.4816 13.0454 61.6192 13.286 61.5504L16.3109 60.5532C16.5515 60.4846 16.6548 60.2096 16.5859 59.9689C16.5171 59.7285 16.2421 59.5908 16.0015 59.6596L12.9766 60.6569C12.736 60.7596 12.6327 61.0004 12.7016 61.2408Z" fill="white"/>
<path d="M19.7517 55.8789C19.8202 56.1539 19.6484 56.4289 19.3734 56.4632L12.3264 57.8382C12.0514 57.907 11.8108 57.7005 11.7423 57.4255C11.6735 57.1505 11.8452 56.8755 12.1202 56.8409L19.1673 55.4662C19.4423 55.432 19.7177 55.6039 19.7517 55.8789Z" fill="#F3F3F3"/>
<path d="M19.8184 55.8787C19.8872 56.1879 19.6811 56.4629 19.4061 56.5314L12.359 57.9064C12.084 57.9752 11.809 57.7691 11.7405 57.4598C11.6716 57.1502 11.8778 56.8752 12.1528 56.8067L19.1999 55.4317C19.4746 55.3629 19.7499 55.5691 19.8184 55.8787ZM11.809 57.4256C11.8434 57.666 12.084 57.8379 12.3246 57.8036L19.3716 56.4286C19.6122 56.3941 19.784 56.1191 19.7155 55.8787C19.6811 55.6379 19.4405 55.466 19.1996 55.5002L12.1528 56.8752C11.9122 56.9441 11.7405 57.1851 11.809 57.4256Z" fill="white"/>
<path d="M15.3501 53.2313C15.3841 53.506 15.2124 53.7467 14.9374 53.7813L11.7751 54.1594C11.4997 54.1936 11.2591 53.9875 11.2251 53.7121C11.1907 53.4375 11.3624 53.1967 11.6374 53.1618L14.8001 52.7841C15.0407 52.7495 15.3157 52.9557 15.3501 53.2313Z" fill="#F3F3F3"/>
<path d="M15.3845 53.2323C15.4186 53.5412 15.2124 53.8162 14.9374 53.8508L11.7751 54.2289C11.4998 54.2634 11.2251 54.0573 11.1907 53.7477C11.1562 53.4384 11.3624 53.1634 11.6374 53.1292L14.8001 52.7508C15.0748 52.7165 15.3504 52.9233 15.3845 53.2323ZM11.2248 53.7134C11.2592 53.9539 11.5001 54.1603 11.7407 54.1258L14.903 53.7477C15.1436 53.7134 15.3157 53.4727 15.2813 53.2323C15.2468 52.9915 15.0063 52.7853 14.7657 52.8196L11.603 53.198C11.3624 53.2323 11.1907 53.4727 11.2248 53.7134Z" fill="white"/>
<path d="M19.1981 49.8966C19.1981 50.1719 18.9923 50.4123 18.7169 50.4123H11.5329C11.2579 50.4123 11.0517 50.1719 11.0517 49.8969C11.0517 49.6219 11.2579 49.3809 11.5329 49.3809H18.7173C18.9923 49.3809 19.1981 49.6216 19.1981 49.8966Z" fill="#F3F3F3"/>
<path d="M19.2337 49.8967C19.2337 50.2063 18.9928 50.4467 18.7178 50.4467H11.5337C11.2587 50.4467 11.0182 50.2059 11.0182 49.8967C11.0182 49.5874 11.2587 49.3467 11.5337 49.3467H18.7182C18.9932 49.3467 19.2337 49.5874 19.2337 49.8967ZM11.0866 49.8624C11.0866 50.1032 11.2928 50.3436 11.5337 50.3436H18.7178C18.9584 50.3436 19.1649 50.1374 19.1649 49.8624C19.1649 49.622 18.9584 49.3809 18.7178 49.3809H11.5337C11.2932 49.4155 11.0866 49.622 11.0866 49.8624Z" fill="white"/>
<path d="M15.3842 46.425C15.3494 46.7 15.1433 46.9062 14.8683 46.9062L11.6711 46.6654C11.3965 46.6312 11.1903 46.3904 11.2244 46.1154C11.2588 45.8404 11.4653 45.6343 11.7403 45.6343L14.9371 45.875C15.1777 45.9093 15.3842 46.15 15.3842 46.425Z" fill="#E2E2E2"/>
<path d="M15.4181 46.4246C15.3837 46.7339 15.1431 46.94 14.8681 46.94L11.671 46.6996C11.3964 46.665 11.1558 46.4246 11.1902 46.115C11.2243 45.8061 11.4652 45.5996 11.7402 45.5996L14.9369 45.84C15.2119 45.8746 15.4181 46.1496 15.4181 46.4246ZM11.2243 46.115C11.1902 46.3558 11.3964 46.5968 11.6369 46.5968L14.834 46.8373C15.0742 46.8373 15.2808 46.665 15.3152 46.39C15.3496 46.1496 15.1431 45.9089 14.9025 45.9089L11.7054 45.6684C11.4652 45.6684 11.2587 45.874 11.2243 46.115Z" fill="white"/>
<path d="M19.8191 43.916C19.7503 44.191 19.5097 44.3629 19.2347 44.3287L12.1879 42.8849C11.9129 42.816 11.7408 42.5756 11.8097 42.3006C11.8785 42.0256 12.1191 41.8534 12.3941 41.8883L19.4412 43.2975C19.6818 43.366 19.8535 43.641 19.8191 43.916Z" fill="#F3F3F3"/>
<path d="M19.8519 43.9153C19.7831 44.2249 19.5081 44.3968 19.2331 44.3625L12.1864 42.9529C11.9114 42.8841 11.7052 42.6091 11.7741 42.3002C11.8426 41.9903 12.1176 41.8187 12.3926 41.8529L19.4396 43.2625C19.7146 43.3313 19.8863 43.6063 19.8519 43.9153ZM11.8426 42.2999C11.8081 42.5403 11.9454 42.781 12.1864 42.8499L19.2335 44.2591C19.474 44.2937 19.7146 44.1563 19.7834 43.881C19.8175 43.6403 19.6802 43.3999 19.4392 43.331L12.3929 41.9218C12.1179 41.8875 11.9114 42.0591 11.8426 42.2999Z" fill="white"/>
<path d="M16.725 39.791C16.7092 39.8564 16.6807 39.918 16.641 39.9727C16.6014 40.0271 16.5514 40.073 16.4939 40.1082C16.4364 40.1434 16.3726 40.1666 16.306 40.177C16.2395 40.1874 16.1716 40.1848 16.1061 40.1688L13.0122 39.3096C12.7372 39.2407 12.5999 38.9657 12.6684 38.6907C12.6842 38.625 12.7127 38.5634 12.7524 38.5091C12.792 38.4547 12.842 38.4085 12.8995 38.3733C12.957 38.3384 13.0208 38.3148 13.0873 38.3045C13.1539 38.2941 13.2218 38.2969 13.2872 38.3126L16.3811 39.1722C16.6561 39.2407 16.7934 39.516 16.725 39.791Z" fill="#F3F3F3"/>
<path d="M16.7603 39.7902C16.6919 40.0648 16.3824 40.2713 16.1074 40.1679L13.0135 39.3087C12.7385 39.2398 12.5664 38.9306 12.6353 38.6559C12.7041 38.3806 13.0135 38.1744 13.2885 38.2775L16.3824 39.1371C16.6574 39.2059 16.8295 39.4812 16.7603 39.7902ZM12.7385 38.6553C12.6697 38.896 12.8073 39.171 13.0479 39.2395L16.1419 40.0988C16.3824 40.1676 16.623 40.03 16.6919 39.755C16.7603 39.5145 16.623 39.2395 16.3824 39.171L13.2885 38.3118C13.0479 38.2772 12.8073 38.4142 12.7385 38.6553Z" fill="white"/>
<path d="M21.5708 38.1409C21.4679 38.4155 21.1581 38.5186 20.9179 38.4155L14.2831 35.6655C14.0426 35.5625 13.9052 35.2532 14.0081 35.0125C14.1114 34.7375 14.4208 34.6344 14.6614 34.7375L21.2958 37.4875C21.5708 37.5905 21.6741 37.9001 21.5708 38.1409Z" fill="#F3F3F3"/>
<path d="M21.607 38.1753C21.5566 38.3073 21.456 38.4138 21.3271 38.4719C21.1982 38.5298 21.0516 38.5345 20.9193 38.4845L14.2848 35.7345C14.0098 35.6317 13.9069 35.3222 14.0098 35.0129C14.0602 34.8806 14.1608 34.7741 14.2897 34.7159C14.4187 34.6581 14.5653 34.6534 14.6975 34.7033L21.332 37.4533C21.607 37.5907 21.7099 37.9006 21.607 38.1753ZM14.0787 35.0472C13.9758 35.2879 14.0787 35.5629 14.3193 35.6657L20.9537 38.4157C21.1943 38.5191 21.4349 38.3811 21.5381 38.1407C21.6411 37.9003 21.5381 37.6253 21.2976 37.5222L14.6631 34.7722C14.4225 34.7033 14.1475 34.8067 14.0787 35.0472Z" fill="white"/>
<path d="M19.3375 33.5002C19.2001 33.741 18.9251 33.844 18.6845 33.741L15.8313 32.2971C15.5907 32.194 15.4875 31.8845 15.6251 31.6095C15.7625 31.369 16.0375 31.2656 16.278 31.369L19.1309 32.8129C19.3719 32.9502 19.4751 33.2601 19.3375 33.5002Z" fill="#F3F3F3"/>
<path d="M19.3724 33.5349C19.2347 33.8099 18.9253 33.9133 18.6503 33.7757L15.7974 32.3318C15.5224 32.1945 15.4191 31.8849 15.5568 31.6099C15.6941 31.3349 16.0039 31.2315 16.2786 31.3695L19.1315 32.8133C19.4068 32.9161 19.5097 33.2602 19.3724 33.5349ZM15.6597 31.6445C15.5568 31.8849 15.6257 32.1599 15.8662 32.2633L18.7191 33.7071C18.9256 33.8099 19.2006 33.7071 19.338 33.5007C19.4409 33.2599 19.3724 32.9849 19.1318 32.8818L16.2438 31.4386C16.0376 31.3355 15.763 31.4037 15.6597 31.6445Z" fill="white"/>
<path d="M24.3893 32.8457C24.2175 33.0867 23.9425 33.1555 23.702 32.9833L17.7547 29.0306C17.5145 28.8929 17.4801 28.5835 17.6174 28.3429C17.7551 28.1023 18.0645 28.0335 18.3051 28.2052L24.2864 32.1929C24.4925 32.3305 24.5614 32.6401 24.3893 32.8457Z" fill="#F3F3F3"/>
<path d="M24.4237 32.8805C24.252 33.1216 23.9082 33.1901 23.6679 33.0528L17.7209 29.065C17.4803 28.8932 17.4115 28.5838 17.5832 28.3092C17.7553 28.0682 18.0991 27.9994 18.3397 28.1371L24.2864 32.1244C24.5614 32.2966 24.5958 32.6401 24.4237 32.8805ZM17.652 28.3432C17.5147 28.5494 17.5491 28.8588 17.755 28.9961L23.7364 32.9843C23.9426 33.1219 24.2176 33.0531 24.3552 32.8469C24.4926 32.6404 24.4582 32.3309 24.2523 32.1935L18.2705 28.2059C18.0644 28.0682 17.7897 28.1371 17.652 28.3432Z" fill="white"/>
<path d="M23.1193 27.8619C22.9475 28.0681 22.6381 28.1369 22.4319 27.9648L19.9225 26.0058C19.7163 25.8337 19.6819 25.5243 19.8536 25.3181C20.0254 25.112 20.3348 25.0431 20.5413 25.2152L23.0504 27.1742C23.2569 27.3464 23.2914 27.6554 23.1193 27.8619Z" fill="#F3F3F3"/>
<path d="M23.1523 27.8976C22.9806 28.1385 22.6368 28.1729 22.3962 28.0008L19.8869 26.0418C19.6463 25.8701 19.6119 25.5262 19.7839 25.286C19.9557 25.0451 20.2995 25.0107 20.5397 25.1828L23.0491 27.1418C23.29 27.3139 23.3245 27.6567 23.1523 27.8976ZM19.8524 25.3197C19.6807 25.5259 19.7151 25.8009 19.9213 25.9726L22.4306 27.9324C22.6368 28.0697 22.9118 28.0352 23.0835 27.8291C23.2556 27.6229 23.2212 27.3479 23.015 27.1762L20.5057 25.2165C20.2995 25.0791 20.0238 25.1136 19.8524 25.3197Z" fill="white"/>
<path d="M28.239 28.2055C28.0332 28.4121 27.7235 28.4121 27.5517 28.2055L22.4302 23.1526C22.224 22.9464 22.2581 22.637 22.4302 22.4649C22.6364 22.2591 22.9458 22.2591 23.1175 22.4649L28.2054 27.5182C28.4115 27.69 28.4108 28.0334 28.239 28.2055Z" fill="#F3F3F3"/>
<path d="M28.2409 28.2412C28.14 28.3402 28.0043 28.3957 27.8629 28.3957C27.7216 28.3957 27.5859 28.3402 27.485 28.2412L22.3971 23.1876C22.2978 23.0867 22.2422 22.9509 22.2422 22.8093C22.2422 22.6678 22.2978 22.5319 22.3971 22.4311C22.4979 22.3319 22.6337 22.2764 22.7751 22.2764C22.9166 22.2764 23.0524 22.3319 23.1532 22.4311L28.2409 27.4843C28.4814 27.6904 28.4814 28.035 28.2409 28.2412ZM22.4666 22.4999C22.2945 22.672 22.2945 22.9814 22.4666 23.1528L27.5539 28.206C27.726 28.3781 28.035 28.3781 28.2068 28.206C28.3789 28.0343 28.3789 27.7249 28.2068 27.5531L23.1195 22.4658C22.9478 22.2941 22.6724 22.2937 22.4666 22.4999Z" fill="white"/>
<path d="M27.9325 23.0841C27.7264 23.2561 27.417 23.2561 27.2449 23.0496L25.1478 20.6435C24.9764 20.4373 25.0105 20.1279 25.217 19.9561C25.4228 19.7841 25.7326 19.7841 25.9043 19.9902L28.0014 22.3967C28.1731 22.5685 28.1387 22.8779 27.9325 23.0841Z" fill="#F3F3F3"/>
<path d="M27.9656 23.084C27.725 23.2902 27.4156 23.2561 27.2091 23.0496L25.1123 20.6435C24.9062 20.4373 24.9406 20.0935 25.1812 19.8873C25.4218 19.6808 25.7312 19.7152 25.9373 19.9217L28.0344 22.3275C28.2062 22.5685 28.2062 22.9123 27.9656 23.084ZM25.2156 19.9561C25.0091 20.1279 25.0091 20.4029 25.1468 20.609L27.2439 23.0152C27.4156 23.1873 27.6906 23.2217 27.8968 23.0496C28.1029 22.8779 28.1029 22.6025 27.9656 22.3967L25.8685 19.9902C25.6968 19.7844 25.4214 19.7844 25.2156 19.9561Z" fill="white"/>
<path d="M32.8823 24.3903C32.6415 24.5621 32.3323 24.4933 32.1946 24.2527L28.1728 18.3056C28.0351 18.065 28.1039 17.7556 28.3101 17.6183C28.5507 17.4466 28.8601 17.5154 28.9978 17.756L32.985 23.7027C33.1573 23.9433 33.0884 24.253 32.8823 24.3903Z" fill="#F3F3F3"/>
<path d="M32.8802 24.4261C32.6395 24.5982 32.2957 24.529 32.1237 24.2888L28.1366 18.3417C27.9648 18.1011 28.0337 17.7576 28.3083 17.5859C28.5489 17.4138 28.8927 17.4826 29.0648 17.7232L33.0518 23.67C33.2237 23.945 33.1549 24.2544 32.8802 24.4261ZM28.3423 17.6543C28.1362 17.7917 28.0674 18.0667 28.205 18.2732L32.1923 24.22C32.3299 24.4261 32.6049 24.4605 32.845 24.3229C33.0515 24.1855 33.1203 23.9105 32.9827 23.7044L28.9959 17.7917C28.8583 17.5859 28.5481 17.5167 28.3423 17.6543Z" fill="white"/>
<path d="M33.602 19.3032C33.3615 19.4405 33.0523 19.372 32.9149 19.1315L31.3335 16.347C31.1961 16.1065 31.2989 15.797 31.5399 15.6594C31.7804 15.522 32.0899 15.5905 32.2273 15.8315L33.8081 18.6155C33.9115 18.8561 33.8421 19.1655 33.602 19.3032Z" fill="#F3F3F3"/>
<path d="M33.6039 19.3377C33.3289 19.475 33.0193 19.4065 32.8823 19.1656L31.3005 16.3815C31.1634 16.1405 31.2323 15.797 31.5073 15.6594C31.7823 15.522 32.0915 15.5905 32.2289 15.8315L33.81 18.6156C33.9477 18.8561 33.8785 19.1656 33.6039 19.3377ZM31.5415 15.6938C31.335 15.8311 31.2323 16.1061 31.3696 16.3126L32.9511 19.0971C33.0881 19.3029 33.3631 19.3721 33.5693 19.2688C33.7761 19.1315 33.8789 18.8561 33.7415 18.65L32.16 15.8655C32.0573 15.6597 31.7477 15.5561 31.5415 15.6938Z" fill="white"/>
<path d="M38.1746 21.5717C37.9003 21.6747 37.6249 21.5717 37.5219 21.3312L34.7376 14.6964C34.6348 14.4558 34.7722 14.1464 35.0126 14.0432C35.2876 13.9402 35.5626 14.0432 35.6654 14.2837L38.4496 20.9182C38.553 21.1587 38.4157 21.4688 38.1746 21.5717Z" fill="#F3F3F3"/>
<path d="M38.1765 21.6069C37.9018 21.7098 37.5925 21.6069 37.4545 21.3315L34.6703 14.6975C34.6203 14.5653 34.6247 14.4187 34.6829 14.2897C34.7407 14.1608 34.8475 14.0602 34.9795 14.0098C35.2545 13.9069 35.5641 14.0098 35.7018 14.2848L38.4857 20.9192C38.5891 21.1598 38.4515 21.4692 38.1765 21.6069ZM35.0484 14.0787C34.8079 14.1816 34.7045 14.4569 34.8079 14.6631L37.5919 21.2971C37.695 21.5377 37.97 21.6406 38.2104 21.5377C38.4511 21.4348 38.5549 21.1595 38.4511 20.9533L35.6669 14.3189C35.5292 14.0783 35.2891 13.9754 35.0484 14.0787Z" fill="white"/>
<path d="M39.8575 16.6911C39.5825 16.794 39.3075 16.6564 39.2047 16.3817L38.2078 13.3564C38.1047 13.1158 38.2767 12.8064 38.5171 12.7379C38.7575 12.6691 39.0671 12.7723 39.1699 13.0473L40.1671 16.0723C40.2699 16.3129 40.1325 16.5882 39.8575 16.6911Z" fill="#F3F3F3"/>
<path d="M39.8952 16.725C39.7632 16.7748 39.6164 16.7702 39.4875 16.7123C39.359 16.6542 39.2581 16.5476 39.2078 16.4156L38.2109 13.3906C38.1078 13.1156 38.2797 12.8065 38.5551 12.7033C38.6871 12.6534 38.8338 12.658 38.9627 12.716C39.0915 12.774 39.1921 12.8807 39.2424 13.0127L40.239 16.0377C40.3078 16.3127 40.1702 16.6221 39.8952 16.725ZM38.5547 12.7721C38.314 12.8406 38.1763 13.1156 38.2452 13.3562L39.2424 16.3815C39.3109 16.6221 39.5859 16.725 39.8267 16.6562C40.0674 16.5877 40.2047 16.3127 40.1359 16.0721L39.139 13.0467C39.1214 12.9884 39.0919 12.9344 39.0523 12.8882C39.0123 12.8421 38.9633 12.8048 38.9083 12.7789C38.853 12.7529 38.793 12.7389 38.7323 12.7377C38.6713 12.7364 38.6107 12.7484 38.5547 12.7721Z" fill="white"/>
<path d="M43.9141 19.819C43.6391 19.8879 43.3641 19.7161 43.3298 19.4408L41.886 12.3941C41.8171 12.1191 42.0236 11.8785 42.2983 11.8096C42.5736 11.7408 42.8483 11.9125 42.8826 12.1879L44.3267 19.2349C44.361 19.4752 44.1891 19.7502 43.9141 19.819Z" fill="#F3F3F3"/>
<path d="M43.9156 19.8543C43.606 19.9231 43.331 19.7166 43.2622 19.4416L41.8184 12.3949C41.7496 12.1199 41.956 11.8104 42.231 11.776C42.5406 11.7072 42.8156 11.9137 42.8841 12.1887L44.3283 19.2358C44.3968 19.5104 44.2249 19.7858 43.9156 19.8543ZM42.2999 11.8449C42.0591 11.8793 41.8872 12.1199 41.9218 12.3949L43.3656 19.442C43.3999 19.6822 43.6746 19.8543 43.9156 19.7854C44.156 19.751 44.328 19.5104 44.2934 19.2354L42.8496 12.1884C42.781 11.9481 42.5409 11.8104 42.2999 11.8449Z" fill="white"/>
<path d="M46.5287 15.3501C46.2537 15.3845 46.013 15.2128 45.9442 14.9378L45.5318 11.7751C45.4976 11.5001 45.7037 11.2595 45.9791 11.2251C46.2537 11.1907 46.4942 11.3628 46.563 11.6378L46.9753 14.8001C47.0099 15.0751 46.8037 15.3157 46.5287 15.3501Z" fill="#F3F3F3"/>
<path d="M46.5295 15.3841C46.2199 15.4185 45.9449 15.2123 45.9107 14.937L45.4983 11.7747C45.4638 11.4997 45.6699 11.2247 45.9795 11.1902C46.2888 11.1561 46.5638 11.3623 46.5983 11.6373L47.0107 14.7997C47.0449 15.0747 46.8388 15.3497 46.5295 15.3841ZM46.0138 11.2591C45.7733 11.2935 45.5668 11.5341 45.6011 11.7747L46.0138 14.9373C46.0483 15.1779 46.2888 15.3497 46.5295 15.3152C46.7699 15.2812 46.9764 15.0402 46.9422 14.7997L46.5295 11.6373C46.4949 11.3967 46.2545 11.2247 46.0138 11.2591Z" fill="white"/>
<path d="M50.2422 90.6657C72.7199 90.6657 90.9422 72.4435 90.9422 49.9658C90.9422 27.4876 72.7199 9.26562 50.2422 9.26562C27.7641 9.26562 9.54202 27.4876 9.54202 49.9658C9.54202 72.4435 27.7641 90.6657 50.2422 90.6657Z" fill="url(#paint2_linear_7855_885)" fill-opacity="0.2"/>
<path d="M78.4284 24.1504L45.6003 45.188H45.5657V45.222L45.5315 45.2566L25.0443 79.0476L55.1568 54.813L55.191 54.7791V54.7445L78.4284 24.1504Z" fill="black" fill-opacity="0.05"/>
<path d="M77.8091 22.1904L45.3591 45.256L54.9841 54.8121L77.8091 22.1904Z" fill="#CD151E"/>
<path d="M45.3932 45.1874L50.2401 49.9652L77.8086 22.1904L45.3932 45.1874Z" fill="#FA5153"/>
<path d="M45.3924 45.1883L55.0174 54.7438L22.5674 77.8099L45.3924 45.1883Z" fill="#ACACAC"/>
<path d="M22.5674 77.8099L50.239 49.9661L45.3921 45.188L22.5674 77.8099Z" fill="#EEEEEE"/>
<defs>
<linearGradient id="paint0_linear_7855_885" x1="50" y1="94" x2="50" y2="6" gradientUnits="userSpaceOnUse">
<stop offset="0.25" stop-color="#DBDBDA"/>
<stop offset="1" stop-color="white"/>
</linearGradient>
<radialGradient id="paint1_radial_7855_885" cx="0" cy="0" r="1" gradientUnits="userSpaceOnUse" gradientTransform="translate(55.7178 41.0591) scale(49.6801)">
<stop stop-color="#2ABCE1"/>
<stop offset="0.11363" stop-color="#2ABBE1"/>
<stop offset="1" stop-color="#3375F8"/>
</radialGradient>
<linearGradient id="paint2_linear_7855_885" x1="49.4687" y1="38.3277" x2="30.4724" y2="72.4092" gradientUnits="userSpaceOnUse">
<stop stop-opacity="0"/>
<stop offset="1"/>
</linearGradient>
</defs>
</svg>
