<svg xmlns="http://www.w3.org/2000/svg" width="101" height="100" fill="none" viewBox="0 0 101 100"><path fill="url(#a)" d="M50.5 93.75c24.024 0 43.5-19.476 43.5-43.5S74.524 6.75 50.5 6.75 7 26.226 7 50.25s19.476 43.5 43.5 43.5Z"/><path fill="url(#b)" d="M50.5 90.487c22.222 0 40.237-18.015 40.237-40.238 0-22.222-18.015-40.237-40.238-40.237-22.222 0-40.237 18.015-40.237 40.237 0 22.223 18.015 40.238 40.237 40.238Z"/><path fill="#F3F3F3" d="M50.567 19.8c-.272 0-.51-.204-.51-.476v-7.102c0-.272.238-.476.51-.476s.51.204.51.476v7.102c-.035.272-.238.476-.51.476Z"/><path fill="#fff" d="M50.567 19.833c-.306 0-.543-.237-.543-.51v-7.102c0-.272.237-.51.543-.51.306 0 .544.238.544.51v7.103c0 .271-.272.51-.544.51Zm0-8.054c-.238 0-.475.204-.475.442v7.103c0 .237.203.442.475.442.238 0 .476-.204.476-.442V12.22c-.034-.238-.238-.442-.476-.442Z"/><path fill="#F3F3F3" d="M53.968 15.994c-.272-.034-.476-.238-.476-.51l.238-3.16a.495.495 0 0 1 .543-.442c.272.034.476.238.476.51l-.238 3.16a.495.495 0 0 1-.543.442Z"/><path fill="#fff" d="M53.965 16.028a.552.552 0 0 1-.51-.544l.238-3.16c.034-.272.272-.51.578-.476.306.034.51.272.51.544l-.238 3.16c-.034.306-.272.51-.578.476Zm.306-4.112c-.238 0-.476.17-.476.408l-.238 3.16c0 .238.17.442.442.476.238 0 .476-.17.476-.408l.238-3.16c0-.238-.204-.442-.442-.476Z"/><path fill="#F3F3F3" d="M56.514 20.412a.523.523 0 0 1-.408-.578l1.393-6.967c.068-.271.306-.441.578-.373a.522.522 0 0 1 .407.578l-1.393 6.967c-.034.237-.306.407-.578.373Z"/><path fill="#fff" d="M56.517 20.445a.554.554 0 0 1-.442-.612l1.394-6.967a.547.547 0 0 1 .645-.407c.306.068.476.34.442.611l-1.393 6.967c-.068.272-.34.442-.646.408Zm1.597-7.918a.487.487 0 0 0-.544.34l-1.393 6.966a.482.482 0 0 0 .374.544.488.488 0 0 0 .544-.34l1.393-6.967c.034-.271-.136-.475-.374-.543Z"/><path fill="#F3F3F3" d="M60.592 17.353a.508.508 0 0 1-.374-.612l.85-3.058c.067-.272.34-.408.611-.34.272.068.442.34.374.612l-.85 3.058c-.068.272-.34.408-.611.34Z"/><path fill="#fff" d="M60.592 17.387c-.272-.069-.476-.374-.373-.646l.849-3.059c.068-.271.373-.442.645-.373.272.068.476.373.374.645l-.85 3.059c-.067.271-.34.442-.645.373Zm1.121-3.976c-.237-.069-.51.068-.577.305l-.85 3.059c-.068.238.068.476.34.544.238.068.51-.068.578-.306l.85-3.059a.488.488 0 0 0-.34-.543Z"/><path fill="#F3F3F3" d="M62.259 22.145a.487.487 0 0 1-.272-.646l2.719-6.559c.102-.237.408-.374.645-.237a.485.485 0 0 1 .272.645l-2.718 6.559c-.102.238-.408.374-.646.238Z"/><path fill="#fff" d="M62.258 22.18a.527.527 0 0 1-.306-.68l2.72-6.56c.101-.271.407-.373.713-.271a.528.528 0 0 1 .306.68l-2.719 6.559c-.136.271-.442.407-.714.271Zm3.093-7.443a.461.461 0 0 0-.612.238l-2.719 6.559c-.102.238.034.475.272.578.238.101.51 0 .612-.238l2.719-6.56a.484.484 0 0 0-.272-.577Z"/><path fill="#F3F3F3" d="M66.847 19.97c-.238-.136-.34-.408-.238-.646l1.427-2.82a.497.497 0 0 1 .68-.205c.238.137.34.409.238.646l-1.427 2.82a.496.496 0 0 1-.68.205Z"/><path fill="#fff" d="M66.847 20.004a.52.52 0 0 1-.239-.714l1.428-2.82a.52.52 0 0 1 .713-.239.52.52 0 0 1 .238.714l-1.427 2.82a.52.52 0 0 1-.713.239Zm1.869-3.705c-.238-.101-.51-.034-.612.204l-1.428 2.82c-.101.205 0 .477.204.613.238.102.51.034.612-.204l1.427-2.82c.102-.205 0-.477-.203-.613Z"/><path fill="#F3F3F3" d="M67.525 25c-.237-.17-.306-.475-.136-.68l3.943-5.879c.135-.238.442-.272.68-.136.237.17.305.476.135.68l-3.942 5.88a.46.46 0 0 1-.68.135Z"/><path fill="#fff" d="M67.525 25.033a.587.587 0 0 1-.17-.748l3.942-5.879c.17-.238.476-.306.748-.136.238.17.306.51.17.748l-3.942 5.88a.543.543 0 0 1-.748.135Zm4.486-6.695c-.204-.136-.51-.102-.646.102l-3.942 5.88a.442.442 0 0 0 .136.61c.204.137.51.103.645-.1l3.943-5.846a.483.483 0 0 0-.136-.646Z"/><path fill="#F3F3F3" d="M72.487 23.742c-.203-.17-.271-.476-.101-.68l1.97-2.48a.485.485 0 0 1 .68-.069c.204.17.272.476.102.68l-1.97 2.48a.485.485 0 0 1-.68.069Z"/><path fill="#fff" d="M72.455 23.776c-.238-.17-.272-.51-.102-.748l1.971-2.48c.17-.239.51-.273.748-.069.237.17.272.51.101.748l-1.97 2.48c-.17.239-.51.273-.748.069Zm2.549-3.229c-.204-.17-.476-.136-.646.068l-1.971 2.481a.482.482 0 0 0 .102.645c.204.17.476.137.646-.067l1.97-2.481c.137-.204.102-.51-.102-.646Z"/><path fill="#F3F3F3" d="M72.148 28.84c-.204-.203-.204-.51 0-.68l5.03-4.995a.482.482 0 0 1 .68 0c.169.17.203.51 0 .68l-4.996 4.995a.493.493 0 0 1-.714 0Z"/><path fill="#fff" d="M72.115 28.874a.533.533 0 0 1 0-.748l5.03-4.995a.533.533 0 0 1 .747 0 .534.534 0 0 1 0 .747l-5.03 4.996a.533.533 0 0 1-.747 0Zm5.743-5.71a.472.472 0 0 0-.645 0l-5.03 4.996a.472.472 0 0 0 0 .646c.17.17.476.17.645 0l5.03-4.995c.17-.17.17-.442 0-.646Z"/><path fill="#F3F3F3" d="M77.247 28.568c-.17-.204-.17-.51.034-.68l2.412-2.039a.485.485 0 0 1 .68.068c.17.204.17.51-.034.68l-2.413 2.039a.485.485 0 0 1-.68-.068Z"/><path fill="#fff" d="M77.212 28.602c-.204-.238-.17-.578.033-.748l2.413-2.039c.204-.204.544-.17.748.068.204.238.17.578-.034.748L77.96 28.67c-.203.203-.544.17-.748-.068Zm3.126-2.685c-.17-.204-.442-.204-.645-.068l-2.413 2.04a.473.473 0 0 0-.035.645c.17.204.442.204.646.068l2.413-2.04c.204-.17.204-.441.034-.645Z"/><path fill="#F3F3F3" d="M75.885 33.461a.46.46 0 0 1 .136-.68l5.913-3.942c.238-.136.544-.068.68.137a.46.46 0 0 1-.136.679l-5.913 3.942c-.204.136-.51.068-.68-.136Z"/><path fill="#fff" d="M75.852 33.462a.543.543 0 0 1 .136-.748l5.913-3.942a.523.523 0 0 1 .748.17.542.542 0 0 1-.136.747L76.6 33.632c-.238.17-.578.102-.748-.17Zm6.729-4.452a.442.442 0 0 0-.612-.136l-5.913 3.942c-.204.136-.272.408-.102.646a.443.443 0 0 0 .612.136l5.913-3.943a.481.481 0 0 0 .102-.645Z"/><path fill="#F3F3F3" d="M80.95 34.175a.495.495 0 0 1 .169-.68l2.753-1.563c.237-.136.543-.034.68.204a.495.495 0 0 1-.17.68l-2.753 1.563c-.238.136-.544.034-.68-.204Z"/><path fill="#fff" d="M80.915 34.21c-.136-.273-.068-.579.17-.715l2.753-1.563c.238-.136.578-.034.714.204.136.272.068.578-.17.714l-2.753 1.563c-.238.136-.578.034-.714-.204Zm3.603-2.04c-.136-.238-.408-.306-.612-.17l-2.753 1.564a.488.488 0 0 0-.17.611c.136.238.408.306.612.17l2.753-1.563c.204-.102.272-.374.17-.612Z"/><path fill="#F3F3F3" d="M78.673 38.695c-.102-.272 0-.543.272-.645l6.559-2.719c.237-.102.544.034.645.271.102.272 0 .544-.272.646l-6.558 2.719a.487.487 0 0 1-.646-.272Z"/><path fill="#fff" d="M78.64 38.73a.564.564 0 0 1 .271-.714l6.56-2.719a.528.528 0 0 1 .679.306.563.563 0 0 1-.272.714l-6.559 2.718a.528.528 0 0 1-.68-.305Zm7.442-3.093a.484.484 0 0 0-.578-.272l-6.559 2.719a.46.46 0 0 0-.237.612c.101.238.373.34.577.272l6.56-2.719c.237-.102.34-.374.237-.612Z"/><path fill="#F3F3F3" d="M83.465 40.395a.492.492 0 0 1 .306-.646l2.99-.986c.238-.101.544.068.612.306.102.272-.034.544-.306.646l-2.99.986c-.238.101-.51-.033-.612-.306Z"/><path fill="#fff" d="M83.431 40.428a.52.52 0 0 1 .34-.68l2.99-.985c.273-.102.579.068.68.34a.52.52 0 0 1-.34.68l-2.99.986c-.272.067-.577-.069-.68-.34Zm3.942-1.29c-.068-.239-.34-.375-.577-.307l-2.99.986c-.239.068-.34.34-.272.578.068.237.34.373.577.305l2.99-.985a.468.468 0 0 0 .272-.578Z"/><path fill="#F3F3F3" d="M80.406 44.438c-.068-.271.102-.543.374-.577l6.966-1.36c.272-.068.51.136.578.408.068.272-.102.544-.374.578l-6.966 1.36c-.272.033-.544-.137-.578-.409Z"/><path fill="#fff" d="M80.338 44.438a.547.547 0 0 1 .407-.646l6.967-1.359c.272-.068.544.136.612.442a.546.546 0 0 1-.408.645l-6.967 1.36c-.272.068-.544-.135-.611-.442Zm7.918-1.53a.455.455 0 0 0-.51-.373l-6.967 1.36c-.238.033-.408.305-.34.543a.456.456 0 0 0 .51.374l6.967-1.36c.238-.068.408-.305.34-.543Z"/><path fill="#F3F3F3" d="M84.756 47.056c-.034-.272.135-.51.407-.544l3.127-.374c.272-.034.51.17.543.442.035.272-.135.51-.407.544l-3.127.373c-.238.034-.51-.17-.543-.441Z"/><path fill="#fff" d="M84.722 47.056c-.034-.306.17-.578.441-.612l3.127-.373a.528.528 0 0 1 .577.476c.034.305-.17.577-.441.611l-3.127.374a.528.528 0 0 1-.577-.476Zm4.111-.476c-.033-.237-.271-.441-.51-.407l-3.125.374a.456.456 0 0 0-.375.51c.035.237.272.441.51.407l3.127-.374a.456.456 0 0 0 .373-.51Z"/><path fill="#F3F3F3" d="M80.953 50.352c0-.272.203-.51.475-.51h7.103c.272 0 .475.238.475.51s-.203.51-.475.51h-7.103c-.272 0-.475-.239-.475-.51Z"/><path fill="#fff" d="M80.916 50.352c0-.306.238-.544.51-.544h7.103c.272 0 .51.238.51.544 0 .306-.239.544-.51.544h-7.103c-.272 0-.51-.238-.51-.544Zm8.054.034c0-.238-.204-.475-.442-.475h-7.102c-.238 0-.442.203-.442.475 0 .238.204.476.442.476h7.103c.238-.034.441-.238.441-.476Z"/><path fill="#F3F3F3" d="M84.722 53.784c.033-.272.237-.475.509-.475l3.16.237a.495.495 0 0 1 .442.544c-.034.272-.238.476-.51.476l-3.16-.238c-.238-.034-.441-.272-.441-.544Z"/><path fill="#fff" d="M84.688 53.785a.552.552 0 0 1 .543-.51l3.162.238c.271.034.51.272.475.578a.551.551 0 0 1-.544.51l-3.16-.238c-.273-.034-.476-.306-.476-.578Zm4.146.306a.43.43 0 0 0-.408-.476l-3.16-.238c-.239 0-.443.17-.477.442a.43.43 0 0 0 .409.476l3.16.238c.238 0 .442-.204.476-.442Z"/><path fill="#F3F3F3" d="M80.338 56.265a.522.522 0 0 1 .578-.408l6.966 1.394c.272.067.442.305.374.577a.522.522 0 0 1-.578.408l-6.967-1.393c-.237-.035-.407-.306-.373-.578Z"/><path fill="#fff" d="M80.304 56.266a.555.555 0 0 1 .612-.442l6.967 1.393c.272.068.476.34.408.646a.554.554 0 0 1-.611.442l-6.968-1.394c-.272-.068-.442-.34-.408-.645Zm7.92 1.597a.487.487 0 0 0-.34-.544l-6.968-1.393a.482.482 0 0 0-.544.373.488.488 0 0 0 .34.544l6.968 1.393c.271.035.475-.136.543-.373Z"/><path fill="#F3F3F3" d="M83.397 60.343a.503.503 0 0 1 .612-.374l3.059.85c.272.068.407.34.34.612a.506.506 0 0 1-.612.373l-3.059-.849c-.272-.068-.407-.34-.34-.612Z"/><path fill="#fff" d="M83.364 60.344c.068-.272.374-.476.646-.374l3.059.849c.272.068.442.374.374.646s-.374.475-.646.374l-3.059-.85c-.272-.068-.442-.34-.374-.645Zm3.977 1.121c.068-.238-.068-.51-.306-.578l-3.059-.85c-.238-.068-.476.069-.544.34-.067.238.068.51.306.578l3.059.85a.488.488 0 0 0 .544-.34Z"/><path fill="#F3F3F3" d="M78.606 61.974a.486.486 0 0 1 .646-.272l6.559 2.719c.238.101.374.408.272.645a.486.486 0 0 1-.646.272l-6.559-2.718c-.272-.102-.374-.408-.272-.646Z"/><path fill="#fff" d="M78.57 61.941a.528.528 0 0 1 .68-.306l6.558 2.72c.272.101.374.407.272.713a.527.527 0 0 1-.68.306l-6.559-2.719a.564.564 0 0 1-.271-.714Zm7.442 3.093a.461.461 0 0 0-.238-.612l-6.558-2.718c-.238-.102-.476.033-.578.271-.102.238 0 .51.238.612l6.558 2.719c.238.068.51-.034.578-.272Z"/><path fill="#F3F3F3" d="M80.813 66.562c.136-.238.408-.34.646-.238l2.82 1.428c.238.102.34.408.204.68-.136.237-.408.34-.645.237l-2.82-1.427c-.239-.136-.341-.442-.205-.68Z"/><path fill="#fff" d="M80.779 66.528a.52.52 0 0 1 .714-.238l2.82 1.428a.52.52 0 0 1 .238.713.52.52 0 0 1-.713.238l-2.821-1.427c-.272-.102-.374-.442-.238-.714Zm3.67 1.869c.102-.238.034-.51-.204-.611l-2.82-1.428c-.205-.102-.476 0-.612.204-.102.238-.034.51.203.612l2.821 1.427c.238.102.51.034.612-.204Z"/><path fill="#F3F3F3" d="M75.819 67.208c.17-.237.442-.305.68-.136l5.913 3.942c.238.136.272.443.136.68-.17.238-.442.306-.68.136l-5.913-3.942c-.238-.17-.306-.476-.136-.68Z"/><path fill="#fff" d="M75.782 67.175a.587.587 0 0 1 .748-.17l5.914 3.942c.238.17.306.476.136.748a.587.587 0 0 1-.748.17l-5.913-3.942c-.272-.17-.306-.51-.136-.748Zm6.696 4.486c.136-.204.102-.51-.102-.646l-5.914-3.942a.443.443 0 0 0-.612.136c-.135.204-.101.51.103.645l5.913 3.943a.443.443 0 0 0 .612-.136Z"/><path fill="#F3F3F3" d="M77.077 72.136c.17-.204.476-.272.68-.101l2.48 1.936c.205.17.239.476.069.68-.17.204-.476.272-.68.102l-2.481-1.937a.485.485 0 0 1-.068-.68Z"/><path fill="#fff" d="M77.041 72.102c.17-.238.51-.272.748-.102l2.48 1.937c.238.17.272.51.102.747-.17.239-.51.272-.747.103l-2.481-1.938c-.238-.17-.271-.51-.102-.747Zm3.263 2.549c.17-.204.135-.476-.069-.646l-2.48-1.938a.482.482 0 0 0-.646.102c-.17.205-.136.476.068.646l2.48 1.937a.482.482 0 0 0 .647-.101Z"/><path fill="#F3F3F3" d="M72.013 71.796c.204-.203.51-.203.68 0l5.03 4.996c.204.204.17.51 0 .68-.204.204-.51.204-.68 0l-5.03-4.996c-.17-.17-.17-.51 0-.68Z"/><path fill="#fff" d="M72.013 71.762a.533.533 0 0 1 .747 0l5.03 4.995a.533.533 0 0 1 0 .748.532.532 0 0 1-.747 0l-5.03-4.995a.481.481 0 0 1 0-.748Zm5.71 5.675a.472.472 0 0 0 0-.646l-5.03-4.995a.472.472 0 0 0-.646 0 .471.471 0 0 0 0 .645l5.03 4.996c.17.204.442.204.645 0Z"/><path fill="#F3F3F3" d="M72.317 76.86c.205-.17.51-.17.68.034l2.074 2.38c.17.203.135.51-.069.679-.203.17-.51.17-.68-.034l-2.073-2.38c-.17-.169-.135-.475.068-.679Z"/><path fill="#fff" d="M72.284 76.86a.533.533 0 0 1 .747.034l2.073 2.378c.204.205.17.544-.068.748a.533.533 0 0 1-.748-.034l-2.073-2.379c-.17-.237-.17-.577.069-.748Zm2.718 3.092c.204-.17.204-.442.068-.645l-2.073-2.38a.472.472 0 0 0-.646-.033c-.204.17-.204.441-.068.645l2.073 2.38c.17.203.443.203.646.033Z"/><path fill="#F3F3F3" d="M67.423 75.569a.46.46 0 0 1 .68.136l3.942 5.879c.136.238.068.543-.136.68a.46.46 0 0 1-.68-.137l-3.942-5.879c-.136-.237-.068-.544.136-.68Z"/><path fill="#fff" d="M67.424 75.534a.543.543 0 0 1 .747.136l3.942 5.879c.17.237.102.577-.17.747a.543.543 0 0 1-.747-.136l-3.942-5.879a.517.517 0 0 1 .17-.747Zm4.485 6.694a.443.443 0 0 0 .136-.611l-3.942-5.88c-.136-.203-.407-.237-.645-.101a.442.442 0 0 0-.136.612l3.942 5.878c.136.17.442.239.645.102Z"/><path fill="#F3F3F3" d="M66.71 80.599a.495.495 0 0 1 .68.17l1.563 2.753c.136.237.034.543-.204.68a.494.494 0 0 1-.68-.17l-1.563-2.754c-.102-.238-.033-.544.204-.68Z"/><path fill="#fff" d="M66.711 80.564c.272-.136.578-.068.714.17l1.563 2.753c.136.238.068.578-.203.714-.273.136-.579.068-.714-.17l-1.564-2.753c-.136-.238-.067-.544.204-.714Zm2.04 3.603c.203-.136.305-.408.17-.612l-1.564-2.753a.489.489 0 0 0-.612-.17c-.204.136-.306.408-.17.611l1.564 2.754c.101.204.407.306.611.17Z"/><path fill="#F3F3F3" d="M62.19 78.355c.273-.102.544 0 .647.238l2.752 6.559c.102.238-.034.544-.272.645-.237.102-.543 0-.645-.237L61.919 79c-.102-.237.034-.543.272-.645Z"/><path fill="#fff" d="M62.19 78.321a.564.564 0 0 1 .715.272l2.752 6.56a.528.528 0 0 1-.305.679.563.563 0 0 1-.714-.272L61.885 79c-.102-.237.034-.543.306-.679Zm3.094 7.443c.237-.102.34-.374.237-.578l-2.752-6.559a.46.46 0 0 0-.612-.238c-.238.102-.34.374-.238.578l2.753 6.559c.136.238.374.34.612.238Z"/><path fill="#F3F3F3" d="M60.525 83.18a.492.492 0 0 1 .646.306l.985 2.99c.102.239-.068.545-.305.613-.272.102-.544-.034-.646-.306l-.986-2.99c-.102-.239.034-.51.306-.612Z"/><path fill="#fff" d="M60.491 83.147a.528.528 0 0 1 .68.306l.986 2.99c.102.272-.068.578-.34.68a.529.529 0 0 1-.68-.306l-.986-2.99c-.068-.272.068-.578.34-.68Zm1.326 3.908c.238-.068.374-.34.306-.578l-.986-2.99c-.068-.238-.34-.34-.578-.272-.238.068-.374.34-.306.578l.986 2.99a.429.429 0 0 0 .578.272Z"/><path fill="#F3F3F3" d="M56.514 80.088c.271-.068.544.101.578.373l1.427 6.968c.068.271-.136.51-.408.577-.272.068-.544-.102-.577-.373l-1.428-6.968a.544.544 0 0 1 .408-.577Z"/><path fill="#fff" d="M56.515 80.054a.547.547 0 0 1 .646.408l1.427 6.968c.068.271-.136.577-.408.611a.546.546 0 0 1-.645-.407l-1.428-6.968c-.068-.272.103-.544.408-.612Zm1.597 7.92c.238-.035.408-.273.374-.544l-1.427-6.968c-.034-.238-.306-.408-.544-.34-.238.034-.407.272-.374.544l1.428 6.968a.487.487 0 0 0 .543.34Z"/><path fill="#F3F3F3" d="M53.931 84.506a.523.523 0 0 1 .578.408l.407 3.126a.495.495 0 0 1-.442.544.522.522 0 0 1-.577-.408l-.408-3.127a.495.495 0 0 1 .442-.543Z"/><path fill="#fff" d="M53.932 84.472c.306-.034.578.17.612.442l.408 3.126a.528.528 0 0 1-.476.578c-.306.034-.578-.17-.612-.442l-.408-3.126a.529.529 0 0 1 .476-.578Zm.51 4.078c.238-.034.442-.272.408-.51l-.408-3.126a.456.456 0 0 0-.51-.374c-.238.034-.442.272-.408.51l.408 3.127a.456.456 0 0 0 .51.373Z"/><path fill="#F3F3F3" d="M50.433 80.7c.272 0 .51.204.51.475v7.103c0 .272-.238.476-.51.476s-.51-.204-.51-.476v-7.103c.035-.271.238-.475.51-.475Z"/><path fill="#fff" d="M50.43 80.666c.307 0 .544.238.544.51v7.102c0 .272-.237.51-.543.51-.306 0-.544-.238-.544-.51v-7.102c0-.272.272-.51.544-.51Zm0 8.054c.239 0 .476-.204.476-.442v-7.102c0-.238-.203-.442-.475-.442-.238 0-.476.204-.476.442v7.102c.034.238.238.442.476.442Z"/><path fill="#F3F3F3" d="M47.034 84.507c.272.034.475.238.475.51l-.238 3.16a.495.495 0 0 1-.543.442c-.272-.034-.476-.238-.476-.51l.238-3.16a.495.495 0 0 1 .544-.442Z"/><path fill="#fff" d="M47.034 84.472c.306.034.51.272.51.544l-.238 3.16c-.034.272-.272.51-.578.476a.552.552 0 0 1-.51-.543l.238-3.161c.034-.306.272-.51.578-.476Zm-.306 4.112c.238 0 .476-.17.476-.407l.238-3.161c0-.238-.17-.442-.442-.476-.238 0-.476.17-.476.408l-.237 3.16c0 .238.203.442.441.476Z"/><path fill="#F3F3F3" d="M44.483 80.088a.522.522 0 0 1 .408.577l-1.394 6.968c-.068.272-.306.442-.578.373a.522.522 0 0 1-.407-.577l1.393-6.968c.034-.237.306-.407.578-.373Z"/><path fill="#fff" d="M44.484 80.054c.306.068.476.34.442.612l-1.393 6.967a.547.547 0 0 1-.646.408.555.555 0 0 1-.442-.612l1.394-6.967c.068-.272.34-.442.645-.408Zm-1.597 7.919a.488.488 0 0 0 .544-.34l1.393-6.967a.481.481 0 0 0-.374-.544.488.488 0 0 0-.543.34l-1.394 6.967c-.034.272.136.476.374.544Z"/><path fill="#F3F3F3" d="M40.409 83.147c.272.068.441.34.373.612l-.85 3.058c-.067.272-.339.408-.61.34a.505.505 0 0 1-.375-.612l.85-3.058c.068-.272.34-.408.612-.34Z"/><path fill="#fff" d="M40.407 83.114c.272.067.476.373.373.645l-.85 3.058c-.067.272-.373.443-.645.374-.272-.067-.476-.374-.374-.645l.85-3.059c.068-.272.34-.442.645-.373Zm-1.122 3.975c.238.068.51-.068.578-.305l.85-3.06c.067-.237-.069-.475-.34-.543-.238-.068-.51.068-.578.306l-.85 3.059a.488.488 0 0 0 .34.543Z"/><path fill="#F3F3F3" d="M38.742 78.355a.485.485 0 0 1 .272.645l-2.718 6.56c-.102.238-.408.373-.646.238-.238-.136-.374-.408-.272-.646l2.719-6.56c.101-.237.408-.373.645-.237Z"/><path fill="#fff" d="M38.74 78.32a.53.53 0 0 1 .306.68l-2.719 6.559c-.102.272-.407.374-.713.272a.527.527 0 0 1-.306-.68l2.718-6.558c.137-.272.443-.408.714-.272Zm-3.092 7.443a.46.46 0 0 0 .611-.238l2.72-6.558c.101-.238-.035-.476-.272-.578a.462.462 0 0 0-.613.238l-2.718 6.559a.484.484 0 0 0 .272.577Z"/><path fill="#F3F3F3" d="M34.156 80.531c.237.136.34.408.237.646l-1.427 2.82a.497.497 0 0 1-.68.204c-.238-.136-.34-.408-.238-.645l1.428-2.82a.497.497 0 0 1 .68-.205Z"/><path fill="#fff" d="M34.155 80.497a.52.52 0 0 1 .238.713l-1.427 2.82a.52.52 0 0 1-.714.239.52.52 0 0 1-.238-.714l1.427-2.82a.52.52 0 0 1 .714-.238ZM32.286 84.2c.238.102.51.034.612-.204l1.427-2.82c.102-.205 0-.477-.204-.612-.238-.102-.51-.034-.611.204l-1.428 2.82c-.102.204 0 .476.204.612Z"/><path fill="#F3F3F3" d="M33.472 75.5c.238.17.306.477.136.68l-3.942 5.88c-.136.238-.442.272-.68.136-.237-.17-.305-.476-.136-.68l3.943-5.88a.46.46 0 0 1 .68-.135Z"/><path fill="#fff" d="M33.473 75.467c.238.17.306.51.17.748l-3.942 5.88c-.17.237-.476.305-.748.135a.588.588 0 0 1-.17-.748l3.942-5.879a.543.543 0 0 1 .748-.136Zm-4.486 6.695c.203.136.51.102.645-.102l3.943-5.88a.443.443 0 0 0-.136-.611c-.204-.136-.51-.102-.646.102l-3.942 5.845a.484.484 0 0 0 .136.646Z"/><path fill="#F3F3F3" d="M28.511 76.757c.204.17.272.476.102.68l-1.971 2.48a.484.484 0 0 1-.68.069c-.203-.17-.271-.476-.101-.68l1.97-2.48a.485.485 0 0 1 .68-.069Z"/><path fill="#fff" d="M28.547 76.724c.237.17.271.51.101.747l-1.97 2.48c-.17.239-.51.273-.748.069-.238-.17-.272-.51-.102-.748l1.971-2.48c.17-.239.51-.272.748-.068Zm-2.55 3.228c.204.17.477.136.646-.068l1.972-2.48a.482.482 0 0 0-.102-.647c-.204-.17-.476-.136-.646.069l-1.971 2.48c-.136.204-.102.51.102.646Z"/><path fill="#F3F3F3" d="M28.853 71.66c.203.204.203.51 0 .68l-5.03 4.995a.481.481 0 0 1-.68 0c-.17-.17-.203-.51 0-.68l4.996-4.995a.493.493 0 0 1 .714 0Z"/><path fill="#fff" d="M28.884 71.626a.533.533 0 0 1 0 .748l-5.03 4.996a.534.534 0 0 1-.746 0 .533.533 0 0 1 0-.748l5.029-4.996a.532.532 0 0 1 .747 0Zm-5.743 5.71c.17.17.476.17.646 0l5.03-4.996a.472.472 0 0 0 0-.646.472.472 0 0 0-.646 0l-5.03 4.996c-.17.17-.17.442 0 .646Z"/><path fill="#F3F3F3" d="M23.753 71.933c.17.203.17.51-.034.68l-2.413 2.039a.485.485 0 0 1-.68-.068c-.17-.204-.17-.51.034-.68l2.413-2.04a.484.484 0 0 1 .68.069Z"/><path fill="#fff" d="M23.789 71.898c.204.238.17.578-.034.748l-2.413 2.038c-.204.205-.544.17-.748-.067-.204-.238-.17-.578.034-.748l2.413-2.039c.204-.204.544-.17.748.068Zm-3.127 2.685c.17.204.442.204.646.068l2.413-2.04a.472.472 0 0 0 .034-.645c-.17-.204-.442-.204-.646-.068l-2.413 2.04c-.204.169-.204.441-.034.645Z"/><path fill="#F3F3F3" d="M25.114 67.038a.46.46 0 0 1-.136.68l-5.913 3.942c-.238.135-.544.067-.68-.136a.46.46 0 0 1 .136-.68l5.913-3.942c.205-.136.51-.068.68.136Z"/><path fill="#fff" d="M25.148 67.039a.544.544 0 0 1-.136.748L19.1 71.728a.522.522 0 0 1-.747-.17.543.543 0 0 1 .136-.747L24.4 66.87a.523.523 0 0 1 .747.17ZM18.42 71.49a.443.443 0 0 0 .611.136l5.913-3.943c.204-.135.272-.407.102-.645a.443.443 0 0 0-.611-.136l-5.913 3.942a.481.481 0 0 0-.102.646Z"/><path fill="#F3F3F3" d="M20.05 66.325a.495.495 0 0 1-.17.68l-2.752 1.563c-.238.136-.544.034-.68-.204a.495.495 0 0 1 .17-.68l2.753-1.563c.238-.136.544-.034.68.204Z"/><path fill="#fff" d="M20.085 66.29c.136.272.068.578-.17.714l-2.753 1.563c-.238.136-.578.034-.713-.203-.137-.272-.069-.578.17-.715l2.752-1.562c.238-.136.578-.035.714.203Zm-3.603 2.04c.136.237.408.305.612.169l2.753-1.563a.489.489 0 0 0 .17-.612c-.136-.237-.408-.305-.612-.17l-2.753 1.564c-.204.102-.272.374-.17.611Z"/><path fill="#F3F3F3" d="M22.326 61.804c.101.272 0 .544-.272.645l-6.56 2.72c-.237.102-.543-.034-.645-.272-.102-.272 0-.544.272-.646l6.56-2.719a.486.486 0 0 1 .645.272Z"/><path fill="#fff" d="M22.36 61.771a.563.563 0 0 1-.272.714l-6.56 2.719a.528.528 0 0 1-.679-.306.563.563 0 0 1 .272-.714l6.56-2.718a.528.528 0 0 1 .679.305Zm-7.443 3.093c.102.238.374.34.578.271l6.559-2.718a.46.46 0 0 0 .238-.611.483.483 0 0 0-.578-.272l-6.56 2.718c-.237.102-.339.373-.237.612Z"/><path fill="#F3F3F3" d="M17.536 60.105a.492.492 0 0 1-.306.646l-2.99.986c-.239.101-.545-.069-.613-.306a.492.492 0 0 1 .306-.646l2.99-.985c.239-.102.51.033.613.305Z"/><path fill="#fff" d="M17.567 60.071a.52.52 0 0 1-.34.68l-2.99.986c-.272.101-.578-.068-.68-.34a.52.52 0 0 1 .34-.68l2.99-.986c.273-.068.578.068.68.34Zm-3.941 1.292c.068.238.34.374.577.306l2.99-.986c.239-.068.34-.34.273-.578-.068-.237-.34-.373-.578-.305l-2.99.986a.468.468 0 0 0-.272.577Z"/><path fill="#F3F3F3" d="M20.595 56.062c.068.272-.102.544-.373.578l-6.968 1.359c-.271.068-.51-.136-.577-.408-.068-.272.102-.544.374-.578l6.967-1.36c.271-.033.544.137.577.409Z"/><path fill="#fff" d="M20.661 56.062a.546.546 0 0 1-.407.645l-6.967 1.36c-.272.068-.544-.136-.612-.442a.546.546 0 0 1 .408-.646l6.967-1.359c.271-.068.544.136.611.442Zm-7.918 1.53a.456.456 0 0 0 .51.373l6.967-1.36c.238-.033.407-.305.34-.543a.456.456 0 0 0-.51-.374l-6.967 1.36c-.238.067-.408.305-.34.543Z"/><path fill="#F3F3F3" d="M16.244 53.445c.034.272-.136.51-.408.544l-3.127.373a.495.495 0 0 1-.543-.442.47.47 0 0 1 .407-.544l3.127-.373c.238-.034.51.17.544.442Z"/><path fill="#fff" d="M16.278 53.446c.034.305-.17.577-.442.611l-3.127.374a.528.528 0 0 1-.577-.476c-.034-.306.17-.578.441-.611l3.127-.375a.53.53 0 0 1 .578.477Zm-4.113.475c.034.238.273.442.51.408l3.127-.374a.456.456 0 0 0 .374-.51c-.034-.237-.272-.441-.51-.407l-3.127.374a.456.456 0 0 0-.374.51Z"/><path fill="#F3F3F3" d="M20.048 50.148c0 .272-.203.51-.475.51H12.47c-.272 0-.476-.238-.476-.51 0-.271.204-.51.476-.51h7.103c.272 0 .475.238.475.51Z"/><path fill="#fff" d="M20.083 50.148c0 .306-.238.543-.51.543h-7.102c-.272 0-.51-.238-.51-.544 0-.305.238-.543.51-.543h7.103c.271 0 .51.238.51.544Zm-8.054-.034c0 .238.204.475.442.475h7.102c.238 0 .442-.203.442-.475 0-.238-.204-.476-.442-.476h-7.102c-.238.034-.442.238-.442.476Z"/><path fill="#E2E2E2" d="M16.278 46.715c-.035.272-.239.476-.51.476l-3.161-.238a.495.495 0 0 1-.442-.544c.034-.272.238-.475.51-.475l3.16.238c.238.034.443.272.443.543Z"/><path fill="#fff" d="M16.311 46.716a.552.552 0 0 1-.544.51l-3.16-.238c-.272-.035-.51-.272-.476-.578a.552.552 0 0 1 .544-.51l3.16.238c.272.034.476.306.476.578Zm-4.146-.306a.43.43 0 0 0 .408.476l3.16.238c.238 0 .442-.17.476-.442a.43.43 0 0 0-.408-.476l-3.16-.238c-.238 0-.442.203-.476.442Z"/><path fill="#F3F3F3" d="M20.662 44.235a.523.523 0 0 1-.578.408l-6.966-1.428c-.272-.068-.442-.305-.374-.577a.522.522 0 0 1 .578-.408l6.967 1.394c.237.067.407.34.373.611Z"/><path fill="#fff" d="M20.695 44.234a.555.555 0 0 1-.612.442l-6.967-1.393a.547.547 0 0 1-.407-.646.554.554 0 0 1 .611-.442l6.967 1.394c.272.068.442.34.408.645Zm-7.919-1.597a.488.488 0 0 0 .34.544l6.967 1.393a.481.481 0 0 0 .544-.374.488.488 0 0 0-.34-.544l-6.967-1.393c-.271-.034-.476.136-.544.374Z"/><path fill="#F3F3F3" d="M17.603 40.157a.51.51 0 0 1-.414.382.504.504 0 0 1-.198-.008l-3.058-.85c-.272-.068-.408-.34-.34-.611a.504.504 0 0 1 .611-.374l3.06.85c.271.067.407.34.34.611Z"/><path fill="#fff" d="M17.638 40.157c-.068.271-.373.475-.645.373l-3.059-.85c-.272-.067-.442-.373-.374-.645s.374-.476.646-.374l3.059.85c.271.068.442.34.373.646Zm-3.976-1.122c-.068.238.068.51.306.577l3.059.85c.238.068.475-.068.543-.34.068-.238-.068-.51-.305-.577l-3.06-.85a.487.487 0 0 0-.543.34Z"/><path fill="#F3F3F3" d="M22.394 38.526a.486.486 0 0 1-.645.271l-6.56-2.718c-.238-.102-.373-.408-.272-.646a.486.486 0 0 1 .646-.272l6.56 2.719a.486.486 0 0 1 .271.646Z"/><path fill="#fff" d="M22.43 38.56a.528.528 0 0 1-.68.306l-6.56-2.719c-.271-.102-.373-.408-.271-.713a.528.528 0 0 1 .68-.306l6.559 2.718a.564.564 0 0 1 .272.714Zm-7.443-3.093a.46.46 0 0 0 .238.612l6.559 2.719c.238.102.476-.035.578-.272a.461.461 0 0 0-.238-.612l-6.56-2.718c-.237-.069-.51.034-.577.271Z"/><path fill="#F3F3F3" d="M20.186 33.937c-.136.238-.408.34-.645.238l-2.821-1.427c-.238-.102-.34-.408-.204-.68.136-.238.408-.34.645-.238l2.82 1.428c.24.136.341.442.205.68Z"/><path fill="#fff" d="M20.22 33.972a.52.52 0 0 1-.713.238l-2.82-1.427a.52.52 0 0 1-.239-.714.519.519 0 0 1 .714-.238l2.82 1.428c.272.101.374.441.238.713Zm-3.67-1.869c-.102.238-.034.51.204.612l2.82 1.427c.205.102.477 0 .612-.204.102-.238.034-.51-.203-.612L17.127 31.9a.419.419 0 0 0-.577.203Z"/><path fill="#F3F3F3" d="M25.18 33.291c-.17.238-.441.306-.68.136l-5.879-3.908c-.237-.136-.271-.442-.136-.68a.46.46 0 0 1 .68-.136l5.914 3.943c.203.136.271.442.101.645Z"/><path fill="#fff" d="M25.215 33.326a.587.587 0 0 1-.748.17l-5.88-3.943c-.237-.17-.305-.475-.135-.747a.587.587 0 0 1 .748-.17l5.879 3.942c.272.17.306.51.136.748ZM18.52 28.84c-.136.204-.102.51.102.645l5.913 3.943a.443.443 0 0 0 .612-.136c.136-.204.102-.51-.102-.646l-5.914-3.942a.442.442 0 0 0-.611.136Z"/><path fill="#F3F3F3" d="M23.925 28.364c-.17.203-.476.272-.68.101l-2.48-1.936a.485.485 0 0 1-.069-.68c.17-.204.476-.272.68-.102l2.48 1.937c.205.17.239.476.069.68Z"/><path fill="#fff" d="M23.957 28.399c-.17.238-.51.272-.747.102l-2.481-1.937c-.238-.17-.272-.51-.102-.747.17-.238.51-.272.748-.102l2.48 1.936c.238.17.273.51.102.748Zm-3.262-2.549c-.17.204-.136.476.068.646l2.48 1.937a.482.482 0 0 0 .646-.102.444.444 0 0 0-.067-.645l-2.481-1.938a.482.482 0 0 0-.646.102Z"/><path fill="#F3F3F3" d="M28.986 28.704c-.203.204-.51.204-.679 0l-5.063-4.996a.482.482 0 0 1 0-.68c.204-.203.51-.203.68 0l5.03 4.996c.203.17.202.51.032.68Z"/><path fill="#fff" d="M28.988 28.738a.533.533 0 0 1-.747 0l-5.03-4.996a.533.533 0 0 1 0-.748.533.533 0 0 1 .747 0l5.03 4.996a.482.482 0 0 1 0 .748Zm-5.709-5.676a.472.472 0 0 0 0 .646l5.03 4.995c.17.17.476.17.645 0a.472.472 0 0 0 0-.645l-5.029-5.03c-.17-.17-.442-.17-.646.034Z"/><path fill="#F3F3F3" d="M28.683 23.64c-.203.17-.51.17-.68-.034l-2.073-2.379a.485.485 0 0 1 .069-.68c.203-.17.51-.17.68.034l2.073 2.38c.17.17.135.475-.069.68Z"/><path fill="#fff" d="M28.716 23.64a.533.533 0 0 1-.748-.034l-2.073-2.379c-.204-.204-.17-.544.068-.747a.533.533 0 0 1 .748.034l2.073 2.378c.17.238.17.578-.068.748Zm-2.719-3.093c-.204.17-.204.442-.068.646l2.073 2.379c.17.17.442.204.646.034.204-.17.204-.442.068-.646l-2.073-2.379c-.17-.203-.442-.203-.646-.034Z"/><path fill="#F3F3F3" d="M33.577 24.932a.46.46 0 0 1-.68-.136l-3.976-5.88c-.136-.238-.068-.544.136-.68a.46.46 0 0 1 .68.137l3.942 5.879a.48.48 0 0 1-.102.68Z"/><path fill="#fff" d="M33.575 24.966a.544.544 0 0 1-.748-.136l-3.942-5.88a.523.523 0 0 1 .17-.746.543.543 0 0 1 .748.135l3.941 5.88a.517.517 0 0 1-.17.747Zm-4.487-6.695a.443.443 0 0 0-.135.612l3.942 5.88c.136.203.408.237.645.101a.442.442 0 0 0 .136-.611l-3.941-5.846a.485.485 0 0 0-.646-.136Z"/><path fill="#F3F3F3" d="M34.288 19.902a.495.495 0 0 1-.679-.17l-1.564-2.752c-.135-.238-.034-.544.205-.68a.495.495 0 0 1 .68.17l1.562 2.753c.102.237.034.543-.204.68Z"/><path fill="#fff" d="M34.29 19.936c-.272.136-.578.069-.713-.17l-1.564-2.752c-.136-.238-.068-.578.204-.714s.578-.068.714.17l1.563 2.753c.136.237.068.543-.204.713Zm-2.039-3.602c-.204.136-.306.408-.17.612l1.564 2.753a.488.488 0 0 0 .61.17c.205-.136.307-.409.171-.613l-1.563-2.752c-.102-.204-.408-.306-.612-.17Z"/><path fill="#F3F3F3" d="M38.81 22.144c-.272.102-.544 0-.646-.237l-2.753-6.56c-.102-.238.034-.543.272-.646.272-.101.544 0 .645.238l2.753 6.56c.102.237-.034.544-.272.645Z"/><path fill="#fff" d="M38.81 22.18a.564.564 0 0 1-.713-.273l-2.753-6.559a.527.527 0 0 1 .306-.68.564.564 0 0 1 .714.272l2.752 6.56c.103.237-.033.543-.305.68Zm-3.092-7.443c-.238.101-.34.374-.238.577l2.753 6.559a.46.46 0 0 0 .611.238c.238-.102.34-.374.238-.578l-2.752-6.559c-.136-.238-.374-.34-.612-.237Z"/><path fill="#F3F3F3" d="M40.473 17.32c-.272.101-.544-.035-.645-.307l-.986-2.99c-.102-.238.068-.544.306-.612.237-.068.543.034.645.306l.986 2.99c.102.238-.034.51-.306.612Z"/><path fill="#fff" d="M40.51 17.354a.529.529 0 0 1-.68-.306l-.985-2.991c-.102-.272.068-.578.34-.68a.529.529 0 0 1 .68.306l.985 2.991c.068.272-.068.578-.34.68Zm-1.325-3.909c-.238.068-.374.34-.306.578l.986 2.99c.067.239.34.34.577.272.238-.067.374-.34.306-.577l-.986-2.991a.433.433 0 0 0-.228-.265.43.43 0 0 0-.35-.007Z"/><path fill="#F3F3F3" d="M44.483 20.412c-.272.068-.543-.102-.577-.374l-1.428-6.966c-.068-.272.136-.51.408-.578.272-.068.544.101.578.374l1.427 6.967a.544.544 0 0 1-.408.577Z"/><path fill="#fff" d="M44.485 20.447a.547.547 0 0 1-.646-.408l-1.428-6.967c-.068-.272.137-.578.408-.612a.547.547 0 0 1 .646.408l1.428 6.967c.068.272-.102.544-.408.612Zm-1.597-7.919c-.238.034-.408.272-.374.544l1.427 6.967c.034.237.306.408.544.34.238-.034.408-.272.373-.544l-1.427-6.967a.487.487 0 0 0-.543-.34Z"/><path fill="#F3F3F3" d="M47.068 15.994a.522.522 0 0 1-.578-.408l-.407-3.127a.495.495 0 0 1 .442-.544.523.523 0 0 1 .577.408l.408 3.127a.495.495 0 0 1-.442.544Z"/><path fill="#fff" d="M47.069 16.028c-.306.034-.578-.17-.612-.442l-.408-3.127a.528.528 0 0 1 .476-.577c.306-.034.578.17.612.442l.407 3.126a.529.529 0 0 1-.475.578Zm-.51-4.078c-.238.034-.442.272-.408.51l.408 3.126a.456.456 0 0 0 .51.374c.237-.034.442-.272.408-.51l-.408-3.126a.456.456 0 0 0-.51-.374Z"/><path fill="url(#c)" fill-opacity=".2" d="M50.74 90.454c22.222 0 40.237-18.016 40.237-40.238 0-22.223-18.015-40.237-40.238-40.237-22.222 0-40.237 18.015-40.237 40.237s18.015 40.238 40.237 40.238Z"/><path fill="#000" fill-opacity=".05" d="M78.605 24.694 46.15 45.492h-.034v.034l-.034.034-20.254 33.407 29.77-23.96.034-.033v-.034l22.973-30.246Z"/><path fill="#CD151E" d="M77.993 22.756 45.912 45.56l9.516 9.448 22.565-32.25Z"/><path fill="#FA5153" d="m45.946 45.492 4.791 4.723 27.256-27.459-32.047 22.736Z"/><path fill="#ACACAC" d="m45.945 45.493 9.516 9.447-32.082 22.804 22.566-32.251Z"/><path fill="#EEE" d="m23.38 77.744 27.357-27.528-4.792-4.724-22.566 32.252Z"/><defs><linearGradient id="a" x1="50.5" x2="50.5" y1="93.75" y2="6.75" gradientUnits="userSpaceOnUse"><stop offset=".25" stop-color="#DBDBDA"/><stop offset="1" stop-color="#fff"/></linearGradient><linearGradient id="c" x1="49.975" x2="31.194" y1="38.71" y2="72.405" gradientUnits="userSpaceOnUse"><stop stop-opacity="0"/><stop offset="1"/></linearGradient><radialGradient id="b" cx="0" cy="0" r="1" gradientTransform="translate(56.153 41.41) scale(49.1155)" gradientUnits="userSpaceOnUse"><stop stop-color="#2ABCE1"/><stop offset=".114" stop-color="#2ABBE1"/><stop offset="1" stop-color="#3375F8"/></radialGradient></defs></svg>