<svg xmlns="http://www.w3.org/2000/svg" width="48" height="48" fill="none" viewBox="0 0 48 48"><g clip-path="url(#clip0_1369_12216)"><path fill="#95BF47" d="M39.8514 9.363C39.8162 9.15075 39.6429 8.988 39.4284 8.96775C39.2597 8.94 35.5509 8.68575 35.5509 8.68575L32.7234 5.85825C32.4684 5.57625 31.9044 5.65875 31.6914 5.71725C31.6637 5.71725 31.1274 5.886 30.2499 6.171C29.3972 3.7035 27.8874 1.4415 25.2279 1.4415H25.0007C24.2387 0.45375 23.3057 0 22.5182 0C16.3262 0.02775 13.3757 7.74975 12.4427 11.6955L8.11516 13.023C6.78766 13.446 6.73891 13.4767 6.56041 14.7428L2.91016 42.8812L30.2612 48L45.0834 44.805C45.0834 44.7773 39.8784 9.63225 39.8514 9.36375V9.363ZM28.7334 6.645C28.0457 6.87225 27.2612 7.09875 26.4159 7.35375V6.84375C26.4409 5.57112 26.2502 4.30344 25.8519 3.0945C27.2379 3.3075 28.1694 4.86225 28.7342 6.64425L28.7334 6.645ZM24.1824 3.4215C24.6347 4.755 24.8447 6.159 24.8019 7.56675V7.82175L20.0207 9.294C20.9567 5.799 22.6832 4.0725 24.1832 3.4215H24.1824ZM22.3449 1.70175C22.6278 1.70777 22.9027 1.79612 23.1362 1.956C21.1412 2.8845 19.0322 5.2305 18.1277 9.92625L14.3439 11.0858C15.4112 7.5225 17.9012 1.695 22.3427 1.695L22.3449 1.70175Z"/><path fill="#5E8E3E" d="M39.4299 8.96775C39.2611 8.94 35.5524 8.68575 35.5524 8.68575L32.7249 5.85825C32.6199 5.75175 32.4774 5.691 32.3296 5.6895L30.2656 48L45.0879 44.805L39.8529 9.3915C39.8359 9.28543 39.7859 9.18742 39.7099 9.11147C39.6339 9.03551 39.5359 8.98547 39.4299 8.9685V8.96775Z"/><path fill="#fff" d="M25.2313 17.1675L23.3908 22.599C22.2786 22.0605 21.0628 21.771 19.8268 21.7492C16.9408 21.7492 16.7998 23.5582 16.7998 24.0127C16.7998 26.4862 23.2768 27.4357 23.2768 33.2625C23.2768 37.845 20.3631 40.785 16.4518 40.785C11.7568 40.785 9.35156 37.8712 9.35156 37.8712L10.6003 33.7087C10.6003 33.7087 13.0603 35.8312 15.1551 35.8312C15.4055 35.8408 15.6552 35.7994 15.8892 35.7097C16.1231 35.6199 16.3365 35.4836 16.5162 35.309C16.696 35.1345 16.8385 34.9252 16.9351 34.694C17.0316 34.4628 17.0803 34.2143 17.0781 33.9637C17.0781 30.7087 11.7606 30.5685 11.7606 25.2502C11.7606 20.7787 14.9841 16.4227 21.4611 16.4227C24.0066 16.4602 25.2246 17.1652 25.2246 17.1652L25.2313 17.1675Z"/></g><defs><clipPath id="clip0_1369_12216"><rect width="48" height="48" fill="#fff"/></clipPath></defs></svg>