<svg width="100" height="100" viewBox="0 0 100 100" fill="none" xmlns="http://www.w3.org/2000/svg">
<path d="M78.8633 23.2802C78.8028 22.8402 78.4173 22.5967 78.0988 22.5698C77.7808 22.5433 71.0518 22.0445 71.0518 22.0445C71.0518 22.0445 66.3785 17.405 65.8656 16.8914C65.3523 16.3782 64.35 16.5343 63.9609 16.6488C63.9036 16.6657 62.9399 16.9631 61.3456 17.4565C59.7845 12.9643 57.0294 8.8361 52.1825 8.8361C52.0487 8.8361 51.9109 8.84153 51.7732 8.84936C50.3947 7.02638 48.6872 6.23438 47.2123 6.23438C35.9214 6.23438 30.5272 20.349 28.8359 27.5216C24.4486 28.8811 21.3318 29.8476 20.9337 29.9727C18.4848 30.7409 18.4073 30.818 18.0858 33.1256C17.8438 34.8727 11.436 84.4266 11.436 84.4266L61.3664 93.7817L88.4204 87.9291C88.4204 87.9291 78.923 23.7202 78.8633 23.2802ZM58.586 18.31L54.3611 19.6176C54.3626 19.3199 54.3641 19.0269 54.3641 18.7066C54.3641 15.9147 53.9765 13.6668 53.3548 11.8848C55.8522 12.1982 57.5155 15.0398 58.586 18.31ZM50.2567 12.4384C50.9511 14.1782 51.4025 16.675 51.4025 20.0443C51.4025 20.2167 51.401 20.3744 51.3995 20.5338C48.6519 21.3848 45.6662 22.3088 42.6739 23.2359C44.3541 16.7516 47.5034 13.6197 50.2567 12.4384ZM46.9022 9.26284C47.3895 9.26284 47.8804 9.42829 48.3502 9.75166C44.7317 11.4544 40.8531 15.7429 39.2151 24.3069L32.318 26.443C34.2365 19.9108 38.7923 9.26284 46.9022 9.26284Z" fill="#95BF46"/>
<path d="M78.0989 22.5707C77.7809 22.5441 71.052 22.0454 71.052 22.0454C71.052 22.0454 66.3786 17.4058 65.8657 16.8922C65.6737 16.7012 65.4148 16.6032 65.1442 16.561L61.3689 93.7819L88.4205 87.9299C88.4205 87.9299 78.9231 23.721 78.8635 23.281C78.8029 22.841 78.4174 22.5975 78.0989 22.5707Z" fill="#5E8E3E"/>
<path d="M52.1826 37.5188L48.8468 47.4417C48.8468 47.4417 45.9241 45.8818 42.3414 45.8818C37.0891 45.8818 36.8248 49.1779 36.8248 50.0084C36.8248 54.5404 48.6385 56.2769 48.6385 66.8924C48.6385 75.2443 43.3413 80.6222 36.1989 80.6222C27.6279 80.6222 23.2448 75.2879 23.2448 75.2879L25.5397 67.7055C25.5397 67.7055 30.0452 71.5736 33.847 71.5736C36.3312 71.5736 37.3417 69.6177 37.3417 68.1886C37.3417 62.2769 27.6496 62.0132 27.6496 52.2992C27.6496 44.1233 33.5179 36.2114 45.3635 36.2114C49.9278 36.2114 52.1826 37.5188 52.1826 37.5188Z" fill="white"/>
</svg>
