<svg xmlns="http://www.w3.org/2000/svg" width="32" height="32" fill="none" viewBox="0 0 32 32"><path fill="#36C5F0" fill-rule="evenodd" d="M11.7092 0C9.94381 0.00130479 8.51507 1.43397 8.51637 3.19935C8.51507 4.96473 9.94512 6.39739 11.7105 6.39869H14.9046V3.20065C14.9059 1.43527 13.4759 0.00260958 11.7092 0C11.7105 0 11.7105 0 11.7092 0V0ZM11.7092 8.53333H3.19413C1.42875 8.53464 -0.00130123 9.9673 3.56583e-06 11.7327C-0.00260602 13.4981 1.42744 14.9307 3.19283 14.9333H11.7092C13.4746 14.932 14.9046 13.4994 14.9033 11.734C14.9046 9.9673 13.4746 8.53464 11.7092 8.53333Z" clip-rule="evenodd"/><path fill="#2EB67D" fill-rule="evenodd" d="M31.9347 11.7327C31.936 9.9673 30.5059 8.53464 28.7405 8.53333C26.9751 8.53464 25.5451 9.9673 25.5464 11.7327V14.9333H28.7405C30.5059 14.932 31.936 13.4994 31.9347 11.7327ZM23.4183 11.7327V3.19935C23.4196 1.43527 21.9908 0.00260958 20.2254 0C18.46 0.00130479 17.0299 1.43397 17.0313 3.19935V11.7327C17.0286 13.4981 18.4587 14.9307 20.2241 14.9333C21.9895 14.932 23.4196 13.4994 23.4183 11.7327Z" clip-rule="evenodd"/><path fill="#ECB22E" fill-rule="evenodd" d="M20.2254 32.0002C21.9908 31.9989 23.4208 30.5662 23.4195 28.8008C23.4208 27.0354 21.9908 25.6027 20.2254 25.6014H17.0313V28.8008C17.0299 30.5649 18.46 31.9976 20.2254 32.0002ZM20.2254 23.4655H28.7417C30.5071 23.4642 31.9372 22.0315 31.9359 20.2661C31.9385 18.5007 30.5084 17.068 28.7431 17.0654H20.2267C18.4613 17.0667 17.0313 18.4994 17.0326 20.2648C17.0313 22.0315 18.46 23.4642 20.2254 23.4655Z" clip-rule="evenodd"/><path fill="#E01E5A" fill-rule="evenodd" d="M8.92167e-07 20.2658C-0.0013039 22.0312 1.42875 23.4638 3.19413 23.4652C4.95951 23.4638 6.38956 22.0312 6.38826 20.2658V17.0664H3.19413C1.42875 17.0677 -0.0013039 18.5004 8.92167e-07 20.2658ZM8.51637 20.2658V28.7992C8.51376 30.5646 9.94381 31.9973 11.7092 31.9999C13.4746 31.9986 14.9046 30.5659 14.9033 28.8005V20.2684C14.9059 18.503 13.4759 17.0703 11.7105 17.0677C9.94381 17.0677 8.51507 18.5004 8.51637 20.2658C8.51637 20.2658 8.51637 20.2671 8.51637 20.2658Z" clip-rule="evenodd"/></svg>