<svg width="60" height="24" viewBox="0 0 60 24" fill="none" xmlns="http://www.w3.org/2000/svg">
<path fill-rule="evenodd" clip-rule="evenodd" d="M59 12.4005C59 8.29907 57.0022 5.06275 53.1839 5.06275C49.3494 5.06275 47.0294 8.29906 47.0294 12.3685C47.0294 17.1909 49.7683 19.6262 53.6994 19.6262C55.6167 19.6262 57.0667 19.1936 58.1622 18.5848V15.3805C57.0667 15.9252 55.81 16.2617 54.215 16.2617C52.6522 16.2617 51.2667 15.717 51.0894 13.8264H58.9678C58.9678 13.6182 59 12.785 59 12.4005ZM51.0411 10.8785C51.0411 9.06809 52.1528 8.31509 53.1678 8.31509C54.1506 8.31509 55.1978 9.06809 55.1978 10.8785H51.0411ZM40.8106 5.06275C39.2317 5.06275 38.2167 5.79973 37.6528 6.31242L37.4433 5.31909H33.8989V24L37.9267 23.1509L37.9428 18.6168C38.5228 19.0334 39.3767 19.6262 40.7944 19.6262C43.6783 19.6262 46.3044 17.3191 46.3044 12.2403C46.2883 7.59413 43.63 5.06275 40.8106 5.06275ZM39.8439 16.1015C38.8933 16.1015 38.3294 15.765 37.9428 15.3485L37.9267 9.40454C38.3456 8.93992 38.9256 8.61949 39.8439 8.61949C41.31 8.61949 42.325 10.2537 42.325 12.3525C42.325 14.4993 41.3261 16.1015 39.8439 16.1015ZM28.3567 4.11749L32.4006 3.25234V0L28.3567 0.849132V4.11749ZM28.3567 5.33511H32.4006V19.3538H28.3567V5.33511ZM24.0228 6.52069L23.765 5.33511H20.285V19.3538H24.3128V9.85314C25.2633 8.61949 26.8744 8.84379 27.3739 9.02003V5.33511C26.8583 5.14286 24.9733 4.79039 24.0228 6.52069ZM15.9672 1.85848L12.0361 2.69159L12.02 15.5247C12.02 17.8959 13.8083 19.6422 16.1928 19.6422C17.5139 19.6422 18.4806 19.4019 19.0122 19.1135V15.8611C18.4967 16.0694 15.9511 16.8064 15.9511 14.4352V8.74766H19.0122V5.33511H15.9511L15.9672 1.85848ZM5.07611 9.40454C5.07611 8.77971 5.59167 8.53939 6.44556 8.53939C7.67 8.53939 9.21667 8.90788 10.4411 9.56475V5.79973C9.10389 5.27103 7.78278 5.06275 6.44556 5.06275C3.175 5.06275 1 6.76101 1 9.5968C1 14.0187 7.12222 13.3138 7.12222 15.2203C7.12222 15.9573 6.47778 16.1976 5.57556 16.1976C4.23833 16.1976 2.53056 15.6529 1.17722 14.9159V18.729C2.67556 19.3698 4.19 19.6422 5.57556 19.6422C8.92667 19.6422 11.2306 17.992 11.2306 15.1242C11.2144 10.3498 5.07611 11.1989 5.07611 9.40454Z" fill="#635BFF"/>
</svg>
