<svg width="100" height="100" viewBox="0 0 100 100" fill="none" xmlns="http://www.w3.org/2000/svg">
<path fill-rule="evenodd" clip-rule="evenodd" d="M99 51.1169C99 44.148 95.6244 38.6491 89.1728 38.6491C82.6939 38.6491 78.7739 44.148 78.7739 51.0624C78.7739 59.2563 83.4017 63.3941 90.0439 63.3941C93.2833 63.3941 95.7333 62.6591 97.5844 61.6247V56.1802C95.7333 57.1058 93.61 57.6774 90.915 57.6774C88.2744 57.6774 85.9333 56.7519 85.6339 53.5397H98.9455C98.9455 53.1858 99 51.7702 99 51.1169ZM85.5522 48.5308C85.5522 45.4547 87.4305 44.1752 89.1456 44.1752C90.8061 44.1752 92.5756 45.4547 92.5756 48.5308H85.5522ZM68.2661 38.6491C65.5983 38.6491 63.8833 39.9013 62.9306 40.7724L62.5767 39.0847H56.5878V70.8258L63.3933 69.383L63.4206 61.6791C64.4006 62.3869 65.8433 63.3941 68.2389 63.3941C73.1117 63.3941 77.5489 59.4741 77.5489 50.8447C77.5217 42.9502 73.03 38.6491 68.2661 38.6491ZM66.6328 57.4052C65.0267 57.4052 64.0739 56.8335 63.4206 56.1258L63.3933 46.0263C64.1011 45.2369 65.0811 44.6924 66.6328 44.6924C69.11 44.6924 70.825 47.4691 70.825 51.0352C70.825 54.683 69.1372 57.4052 66.6328 57.4052ZM47.2233 37.043L54.0561 35.573V30.0469L47.2233 31.4897V37.043ZM47.2233 39.1119H54.0561V62.9313H47.2233V39.1119ZM39.9006 41.1263L39.465 39.1119H33.585V62.9313H40.3906V46.7885C41.9967 44.6924 44.7189 45.0735 45.5628 45.373V39.1119C44.6917 38.7852 41.5067 38.1863 39.9006 41.1263ZM26.2894 33.2047L19.6472 34.6202L19.62 56.4252C19.62 60.4541 22.6417 63.4213 26.6706 63.4213C28.9028 63.4213 30.5361 63.013 31.4344 62.523V56.9969C30.5633 57.3508 26.2622 58.603 26.2622 54.5741V44.9102H31.4344V39.1119H26.2622L26.2894 33.2047ZM7.88722 46.0263C7.88722 44.9647 8.75833 44.5563 10.2011 44.5563C12.27 44.5563 14.8833 45.1824 16.9522 46.2985V39.9013C14.6928 39.003 12.4606 38.6491 10.2011 38.6491C4.675 38.6491 1 41.5347 1 46.353C1 53.8663 11.3444 52.6685 11.3444 55.908C11.3444 57.1602 10.2556 57.5685 8.73111 57.5685C6.47167 57.5685 3.58611 56.643 1.29944 55.3908V61.8697C3.83111 62.9585 6.39 63.4213 8.73111 63.4213C14.3933 63.4213 18.2861 60.6174 18.2861 55.7447C18.2589 47.6324 7.88722 49.0752 7.88722 46.0263Z" fill="#635BFF"/>
</svg>
