<svg width="100" height="100" viewBox="0 0 100 100" fill="none" xmlns="http://www.w3.org/2000/svg">
<path fill-rule="evenodd" clip-rule="evenodd" d="M43.4659 32.2066C43.4659 28.4352 46.5604 26.9846 51.6857 26.9846C59.0351 26.9846 68.3186 29.2088 75.6681 33.1736V10.4483C67.6417 7.25714 59.712 6 51.6857 6C32.0549 6 18.9999 16.2506 18.9999 33.367C18.9999 60.0571 55.7472 55.8022 55.7472 67.3099C55.7472 71.7582 51.8791 73.2088 46.4637 73.2088C38.4373 73.2088 28.1868 69.9209 20.0637 65.4725V88.4879C29.0571 92.356 38.1472 94 46.4637 94C66.578 94 80.4065 84.0396 80.4065 66.7297C80.3098 37.9121 43.4659 43.0374 43.4659 32.2066Z" fill="#635BFF"/>
</svg>
