<?xml version="1.0" encoding="UTF-8"?>
<svg xmlns="http://www.w3.org/2000/svg" xmlns:xlink="http://www.w3.org/1999/xlink" width="32px" height="32px" viewBox="0 0 32 30" version="1.1">
<defs>
<filter id="alpha" filterUnits="objectBoundingBox" x="0%" y="0%" width="100%" height="100%">
  <feColorMatrix type="matrix" in="SourceGraphic" values="0 0 0 0 1 0 0 0 0 1 0 0 0 0 1 0 0 0 1 0"/>
</filter>
<mask id="mask0">
  <g filter="url(#alpha)">
<rect x="0" y="0" width="32" height="30" style="fill:rgb(0%,0%,0%);fill-opacity:0.101961;stroke:none;"/>
  </g>
</mask>
<clipPath id="clip1">
  <rect x="0" y="0" width="32" height="30"/>
</clipPath>
<g id="surface5" clip-path="url(#clip1)">
<path style=" stroke:none;fill-rule:nonzero;fill:rgb(0%,0%,0%);fill-opacity:1;" d="M 17.859375 11.25 L 17.859375 23.378906 C 17.855469 23.933594 17.523438 24.433594 17.011719 24.644531 C 16.847656 24.714844 16.675781 24.75 16.5 24.75 L 9.585938 24.75 C 9.488281 24.503906 9.402344 24.253906 9.328125 24 C 9.066406 23.140625 8.933594 22.246094 8.933594 21.34375 L 8.933594 12.691406 C 8.914062 11.914062 9.523438 11.269531 10.292969 11.25 Z M 17.859375 11.25 "/>
</g>
<mask id="mask1">
  <g filter="url(#alpha)">
<rect x="0" y="0" width="32" height="30" style="fill:rgb(0%,0%,0%);fill-opacity:0.2;stroke:none;"/>
  </g>
</mask>
<clipPath id="clip2">
  <rect x="0" y="0" width="32" height="30"/>
</clipPath>
<g id="surface8" clip-path="url(#clip2)">
<path style=" stroke:none;fill-rule:nonzero;fill:rgb(0%,0%,0%);fill-opacity:1;" d="M 17.117188 11.25 L 17.117188 24.128906 C 17.117188 24.304688 17.082031 24.480469 17.011719 24.644531 C 16.800781 25.160156 16.304688 25.496094 15.753906 25.5 L 9.9375 25.5 C 9.808594 25.253906 9.691406 25.003906 9.585938 24.75 C 9.484375 24.496094 9.402344 24.253906 9.328125 24 C 9.066406 23.140625 8.933594 22.246094 8.933594 21.34375 L 8.933594 12.691406 C 8.914062 11.914062 9.523438 11.269531 10.292969 11.25 Z M 17.117188 11.25 "/>
</g>
<mask id="mask2">
  <g filter="url(#alpha)">
<rect x="0" y="0" width="32" height="30" style="fill:rgb(0%,0%,0%);fill-opacity:0.2;stroke:none;"/>
  </g>
</mask>
<clipPath id="clip3">
  <rect x="0" y="0" width="32" height="30"/>
</clipPath>
<g id="surface11" clip-path="url(#clip3)">
<path style=" stroke:none;fill-rule:nonzero;fill:rgb(0%,0%,0%);fill-opacity:1;" d="M 17.117188 11.25 L 17.117188 22.628906 C 17.109375 23.382812 16.503906 23.996094 15.753906 24 L 9.328125 24 C 9.066406 23.140625 8.933594 22.246094 8.933594 21.34375 L 8.933594 12.691406 C 8.914062 11.914062 9.523438 11.269531 10.292969 11.25 Z M 17.117188 11.25 "/>
</g>
<mask id="mask3">
  <g filter="url(#alpha)">
<rect x="0" y="0" width="32" height="30" style="fill:rgb(0%,0%,0%);fill-opacity:0.2;stroke:none;"/>
  </g>
</mask>
<clipPath id="clip4">
  <rect x="0" y="0" width="32" height="30"/>
</clipPath>
<g id="surface14" clip-path="url(#clip4)">
<path style=" stroke:none;fill-rule:nonzero;fill:rgb(0%,0%,0%);fill-opacity:1;" d="M 16.371094 11.25 L 16.371094 22.628906 C 16.367188 23.382812 15.761719 23.996094 15.011719 24 L 9.328125 24 C 9.066406 23.140625 8.933594 22.246094 8.933594 21.34375 L 8.933594 12.691406 C 8.914062 11.914062 9.523438 11.269531 10.292969 11.25 Z M 16.371094 11.25 "/>
</g>
<mask id="mask4">
  <g filter="url(#alpha)">
<rect x="0" y="0" width="32" height="30" style="fill:rgb(0%,0%,0%);fill-opacity:0.101961;stroke:none;"/>
  </g>
</mask>
<clipPath id="clip5">
  <rect x="0" y="0" width="32" height="30"/>
</clipPath>
<g id="surface17" clip-path="url(#clip5)">
<path style=" stroke:none;fill-rule:nonzero;fill:rgb(0%,0%,0%);fill-opacity:1;" d="M 17.859375 7.371094 L 17.859375 9.734375 C 17.734375 9.742188 17.613281 9.75 17.488281 9.75 C 17.363281 9.75 17.242188 9.742188 17.117188 9.734375 C 16.863281 9.71875 16.617188 9.679688 16.371094 9.613281 C 14.867188 9.253906 13.621094 8.191406 13.023438 6.75 C 12.921875 6.507812 12.839844 6.257812 12.785156 6 L 16.5 6 C 17.25 6.003906 17.855469 6.617188 17.859375 7.371094 Z M 17.859375 7.371094 "/>
</g>
<mask id="mask5">
  <g filter="url(#alpha)">
<rect x="0" y="0" width="32" height="30" style="fill:rgb(0%,0%,0%);fill-opacity:0.2;stroke:none;"/>
  </g>
</mask>
<clipPath id="clip6">
  <rect x="0" y="0" width="32" height="30"/>
</clipPath>
<g id="surface20" clip-path="url(#clip6)">
<path style=" stroke:none;fill-rule:nonzero;fill:rgb(0%,0%,0%);fill-opacity:1;" d="M 17.117188 8.121094 L 17.117188 9.734375 C 16.863281 9.71875 16.617188 9.679688 16.371094 9.613281 C 14.867188 9.253906 13.621094 8.191406 13.023438 6.75 L 15.753906 6.75 C 16.503906 6.753906 17.113281 7.367188 17.117188 8.121094 Z M 17.117188 8.121094 "/>
</g>
<mask id="mask6">
  <g filter="url(#alpha)">
<rect x="0" y="0" width="32" height="30" style="fill:rgb(0%,0%,0%);fill-opacity:0.2;stroke:none;"/>
  </g>
</mask>
<clipPath id="clip7">
  <rect x="0" y="0" width="32" height="30"/>
</clipPath>
<g id="surface23" clip-path="url(#clip7)">
<path style=" stroke:none;fill-rule:nonzero;fill:rgb(0%,0%,0%);fill-opacity:1;" d="M 17.117188 8.121094 L 17.117188 9.734375 C 16.863281 9.71875 16.617188 9.679688 16.371094 9.613281 C 14.867188 9.253906 13.621094 8.191406 13.023438 6.75 L 15.753906 6.75 C 16.503906 6.753906 17.113281 7.367188 17.117188 8.121094 Z M 17.117188 8.121094 "/>
</g>
<mask id="mask7">
  <g filter="url(#alpha)">
<rect x="0" y="0" width="32" height="30" style="fill:rgb(0%,0%,0%);fill-opacity:0.2;stroke:none;"/>
  </g>
</mask>
<clipPath id="clip8">
  <rect x="0" y="0" width="32" height="30"/>
</clipPath>
<g id="surface26" clip-path="url(#clip8)">
<path style=" stroke:none;fill-rule:nonzero;fill:rgb(0%,0%,0%);fill-opacity:1;" d="M 16.371094 8.121094 L 16.371094 9.613281 C 14.867188 9.253906 13.621094 8.191406 13.023438 6.75 L 15.011719 6.75 C 15.761719 6.753906 16.371094 7.367188 16.371094 8.121094 Z M 16.371094 8.121094 "/>
</g>
<linearGradient id="linear0" gradientUnits="userSpaceOnUse" x1="198.099" y1="1683.0726" x2="942.2344" y2="394.2607" gradientTransform="matrix(0.0143539,0,0,-0.0144695,0.00376833,30.028943)">
<stop offset="0" style="stop-color:rgb(35.294118%,38.431373%,76.470588%);stop-opacity:1;"/>
<stop offset="0.5" style="stop-color:rgb(30.196078%,33.333333%,74.117647%);stop-opacity:1;"/>
<stop offset="1" style="stop-color:rgb(22.352941%,25.098039%,67.058824%);stop-opacity:1;"/>
</linearGradient>
</defs>
<g id="surface1">
<path style=" stroke:none;fill-rule:nonzero;fill:rgb(31.372549%,34.901961%,78.823529%);fill-opacity:1;" d="M 22.320312 11.25 L 30.582031 11.25 C 31.363281 11.25 31.996094 11.886719 31.996094 12.675781 L 31.996094 20.261719 C 31.996094 23.15625 29.671875 25.5 26.800781 25.5 L 26.777344 25.5 C 23.90625 25.5 21.582031 23.15625 21.578125 20.261719 L 21.578125 11.996094 C 21.582031 11.582031 21.910156 11.25 22.320312 11.25 Z M 22.320312 11.25 "/>
<path style=" stroke:none;fill-rule:nonzero;fill:rgb(31.372549%,34.901961%,78.823529%);fill-opacity:1;" d="M 31.253906 6.375 C 31.253906 8.238281 29.753906 9.75 27.902344 9.75 C 26.054688 9.75 24.554688 8.238281 24.554688 6.375 C 24.554688 4.511719 26.054688 3 27.902344 3 C 29.753906 3 31.253906 4.511719 31.253906 6.375 Z M 31.253906 6.375 "/>
<path style=" stroke:none;fill-rule:nonzero;fill:rgb(48.235294%,51.372549%,92.156863%);fill-opacity:1;" d="M 22.324219 4.875 C 22.324219 7.566406 20.160156 9.75 17.488281 9.75 C 14.816406 9.75 12.652344 7.566406 12.652344 4.875 C 12.652344 2.183594 14.816406 0 17.488281 0 C 20.160156 0 22.324219 2.183594 22.324219 4.875 Z M 22.324219 4.875 "/>
<path style=" stroke:none;fill-rule:nonzero;fill:rgb(48.235294%,51.372549%,92.156863%);fill-opacity:1;" d="M 23.9375 11.25 L 10.296875 11.25 C 9.523438 11.269531 8.914062 11.914062 8.933594 12.691406 L 8.933594 21.347656 C 8.824219 26.011719 12.488281 29.886719 17.117188 30 C 21.746094 29.886719 25.40625 26.011719 25.300781 21.347656 L 25.300781 12.691406 C 25.316406 11.914062 24.707031 11.269531 23.9375 11.25 Z M 23.9375 11.25 "/>
<use xlink:href="#surface5" mask="url(#mask0)"/>
<use xlink:href="#surface8" mask="url(#mask1)"/>
<use xlink:href="#surface11" mask="url(#mask2)"/>
<use xlink:href="#surface14" mask="url(#mask3)"/>
<use xlink:href="#surface17" mask="url(#mask4)"/>
<use xlink:href="#surface20" mask="url(#mask5)"/>
<use xlink:href="#surface23" mask="url(#mask6)"/>
<use xlink:href="#surface26" mask="url(#mask7)"/>
<path style=" stroke:none;fill-rule:nonzero;fill:url(#linear0);" d="M 1.367188 6.75 L 15.007812 6.75 C 15.761719 6.75 16.371094 7.367188 16.371094 8.125 L 16.371094 21.875 C 16.371094 22.632812 15.761719 23.25 15.007812 23.25 L 1.367188 23.25 C 0.613281 23.25 0.00390625 22.632812 0.00390625 21.875 L 0.00390625 8.125 C 0.00390625 7.367188 0.613281 6.75 1.367188 6.75 Z M 1.367188 6.75 "/>
<path style=" stroke:none;fill-rule:nonzero;fill:rgb(100%,100%,100%);fill-opacity:1;" d="M 11.777344 11.984375 L 9.050781 11.984375 L 9.050781 19.46875 L 7.3125 19.46875 L 7.3125 11.984375 L 4.597656 11.984375 L 4.597656 10.53125 L 11.777344 10.53125 Z M 11.777344 11.984375 "/>
</g>
</svg>
