<svg width="100" height="100" viewBox="0 0 100 100" fill="none" xmlns="http://www.w3.org/2000/svg"><path d="M93.75 50c0 24.15-19.578 43.75-43.75 43.75S6.25 74.15 6.25 50C6.25 25.828 25.828 6.25 50 6.25S93.75 25.828 93.75 50Z" fill="#E95420"/><path d="M21.317 44.238c-3.155 0-5.692 2.595-5.692 5.773 0 3.178 2.558 5.772 5.692 5.772 3.134 0 5.693-2.594 5.693-5.772 0-3.2-2.559-5.773-5.693-5.773Zm40.657 26.225c-2.73 1.6-3.646 5.124-2.09 7.891 1.578 2.768 5.053 3.72 7.782 2.12s3.646-5.125 2.09-7.892c-1.6-2.746-5.075-3.697-7.782-2.119ZM33.683 50.011a16.876 16.876 0 0 1 7.078-13.794l-4.158-7.07c-4.988 3.373-8.677 8.54-10.233 14.572a8.183 8.183 0 0 1 2.942 6.292 8.18 8.18 0 0 1-2.942 6.291 25.086 25.086 0 0 0 10.233 14.572l4.158-7.07a16.877 16.877 0 0 1-7.078-13.793Zm16.629-16.864c8.698 0 15.819 6.746 16.565 15.372L75 48.39a25.112 25.112 0 0 0-7.355-16.258 7.93 7.93 0 0 1-6.822-.562c-2.175-1.275-3.518-3.394-3.902-5.73a24.773 24.773 0 0 0-6.61-.907c-3.943 0-7.653.93-10.957 2.594l3.965 7.178a16.42 16.42 0 0 1 6.993-1.557Zm0 33.727c-2.494 0-4.882-.562-7.014-1.556l-3.965 7.177A24.306 24.306 0 0 0 50.29 75.09c2.28 0 4.498-.324 6.609-.908a8.08 8.08 0 0 1 3.901-5.73c2.153-1.275 4.669-1.383 6.822-.562a25.217 25.217 0 0 0 7.356-16.258l-8.123-.13c-.725 8.605-7.846 15.372-16.544 15.372Zm11.64-37.337c2.73 1.6 6.205.648 7.782-2.119 1.578-2.767.64-6.291-2.09-7.891-2.728-1.6-6.203-.649-7.78 2.119-1.557 2.767-.62 6.291 2.089 7.89Z" fill="#fff"/></svg>
