<svg width="100" height="100" viewBox="0 0 100 100" fill="none" xmlns="http://www.w3.org/2000/svg">
<g clip-path="url(#clip0_8133_597)">
<mask id="mask0_8133_597" style="mask-type:luminance" maskUnits="userSpaceOnUse" x="-8" y="21" width="116" height="58">
<path d="M-7.20268 21.7196H107.208V78.8691H-7.20268V21.7196Z" fill="white"/>
</mask>
<g mask="url(#mask0_8133_597)">
<path d="M1.79567 62.7122H2.52927L1.84757 65.5567C1.74641 65.9788 1.76547 66.2965 1.90531 66.5084C2.04462 66.7206 2.30389 66.8267 2.68288 66.8267C3.05948 66.8267 3.36829 66.7206 3.60956 66.5084C3.85109 66.2965 4.02244 65.9788 4.12361 65.5567L4.80504 62.7122H5.54818L4.8498 65.6271C4.69805 66.2605 4.42765 66.7347 4.04045 67.049C3.65299 67.3638 3.14503 67.521 2.51656 67.521C1.88757 67.521 1.45614 67.3641 1.22123 67.0506C0.98605 66.7373 0.945 66.2626 1.09728 65.6271L1.79567 62.7122Z" fill="#696A6A"/>
<path d="M5.44967 67.3959L6.61656 62.5263L8.8338 65.3898C8.89312 65.4705 8.95298 65.557 9.01204 65.6488C9.0711 65.7406 9.13148 65.8438 9.19345 65.9592L9.97182 62.7117H10.6585L9.49246 67.5776L7.2286 64.663C7.16795 64.5844 7.11154 64.5014 7.05884 64.4138C7.00561 64.3262 6.95767 64.2344 6.91371 64.1386L6.13322 67.3959H5.44967Z" fill="#696A6A"/>
<path d="M10.5977 67.396L11.7201 62.7118H12.4627L11.3406 67.396H10.5977Z" fill="#696A6A"/>
<path d="M12.4083 67.396L13.5307 62.7118H16.0811L15.9262 63.358H14.1186L13.8387 64.5258H15.6462L15.4863 65.1944H13.6785L13.1512 67.396H12.4083Z" fill="#696A6A"/>
<path d="M15.7771 67.396L16.8995 62.7118H17.6421L16.52 67.396H15.7771Z" fill="#696A6A"/>
<path d="M17.5878 67.396L18.7101 62.7118H21.2606L21.1056 63.358H19.2981L19.0166 64.5322H20.8241L20.6641 65.201H18.8566L18.4938 66.7144H20.3013L20.1382 67.396H17.5878Z" fill="#696A6A"/>
<path d="M21.8984 66.7078H22.5229C22.8661 66.7078 23.1293 66.6843 23.3124 66.6374C23.4954 66.5906 23.6633 66.5115 23.8171 66.4006C24.0261 66.2496 24.2006 66.0612 24.341 65.836C24.4811 65.6111 24.5873 65.3489 24.6588 65.0502C24.73 64.7515 24.7496 64.4901 24.7173 64.2655C24.6848 64.04 24.6005 63.8519 24.4641 63.7003C24.3616 63.5897 24.2263 63.5104 24.0573 63.4633C23.8881 63.4167 23.6127 63.3931 23.2297 63.3931H22.9612H22.6926L21.8984 66.7078ZM20.9908 67.396L22.1132 62.7116H23.115C23.7666 62.7116 24.2168 62.7449 24.4663 62.8121C24.7152 62.8796 24.921 62.9923 25.0828 63.15C25.2976 63.3569 25.4343 63.6225 25.493 63.9464C25.5516 64.2708 25.5309 64.6409 25.4313 65.0568C25.3318 65.4728 25.1752 65.8413 24.9618 66.1623C24.7488 66.4835 24.4848 66.7483 24.1707 66.9573C23.9331 67.1153 23.6784 67.2277 23.4077 67.2952C23.1362 67.3621 22.7316 67.396 22.1923 67.396H21.9924H20.9908Z" fill="#696A6A"/>
<path d="M29.0486 64.67H29.2393C29.6511 64.67 29.9369 64.6237 30.0963 64.5322C30.256 64.4406 30.3632 64.2784 30.4189 64.0459C30.4787 63.7964 30.4477 63.6202 30.3254 63.518C30.203 63.4156 29.9456 63.364 29.5523 63.364H29.3616L29.0486 64.67ZM28.8523 65.2934L28.3486 67.396H27.6526L28.7753 62.7118H29.899C30.2319 62.7118 30.4726 62.7304 30.6209 62.7677C30.7687 62.8047 30.8908 62.8664 30.9872 62.9518C31.1045 63.0606 31.1816 63.2071 31.2187 63.3916C31.2555 63.5762 31.2475 63.7794 31.1946 64.0009C31.1411 64.2229 31.0516 64.4277 30.9255 64.6155C30.7994 64.8031 30.6517 64.9505 30.4827 65.0568C30.3455 65.1423 30.1943 65.2031 30.0285 65.2391C29.8624 65.2756 29.6132 65.2934 29.2803 65.2934H29.1339H28.8523Z" fill="#696A6A"/>
<path d="M32.1117 65.5564H33.3853L33.1727 64.4875C33.1626 64.4195 33.1531 64.3411 33.1448 64.2525C33.1372 64.1639 33.1319 64.0652 33.1284 63.9564C33.0792 64.0588 33.0296 64.1543 32.9801 64.243C32.9309 64.3314 32.8829 64.4128 32.8358 64.4875L32.1117 65.5564ZM33.7251 67.396L33.4955 66.1898H31.6848L30.8651 67.396H30.0851L33.4648 62.5264L34.5085 67.396H33.7251Z" fill="#696A6A"/>
<path d="M35.5732 67.396L36.0865 65.2521L35.1564 62.7118H35.9369L36.5142 64.302C36.5274 64.3427 36.5433 64.3959 36.5616 64.4621C36.5802 64.5282 36.5982 64.5994 36.6151 64.6764C36.6617 64.6018 36.7097 64.5308 36.7576 64.465C36.8055 64.3988 36.854 64.3382 36.903 64.2827L38.2624 62.7118H39.0056L36.8233 65.2521L36.3098 67.396H35.5732Z" fill="#696A6A"/>
<path d="M42.6615 65.0821C42.6617 65.0458 42.6723 64.9458 42.693 64.7815C42.7089 64.645 42.7213 64.5317 42.7303 64.442C42.6861 64.5489 42.6339 64.6558 42.5741 64.7622C42.514 64.8688 42.4451 64.9776 42.3665 65.0887L40.5727 67.5845L39.9874 65.0376C39.9625 64.9328 39.9434 64.8315 39.9307 64.7336C39.918 64.6354 39.9093 64.5383 39.905 64.442C39.8796 64.5405 39.8473 64.6431 39.8078 64.7511C39.7684 64.8588 39.7212 64.9715 39.6659 65.0887L38.6229 67.3956H37.9397L40.1895 62.5127L40.8299 65.4694C40.8391 65.5162 40.8526 65.5943 40.869 65.703C40.8855 65.8118 40.9048 65.9462 40.9273 66.106C41.0031 65.9716 41.1122 65.8012 41.2557 65.5943C41.2939 65.5387 41.323 65.4961 41.3426 65.4662L43.3678 62.5127L43.3029 67.3956H42.6128L42.6615 65.0821Z" fill="#696A6A"/>
<path d="M43.8959 67.396L45.0186 62.7118H47.569L47.4141 63.358H45.6063L45.325 64.5322H47.1325L46.9726 65.201H45.1648L44.8022 66.7144H46.6098L46.4461 67.396H43.8959Z" fill="#696A6A"/>
<path d="M47.2989 67.3959L48.4658 62.5263L50.6831 65.3898C50.7424 65.4705 50.8022 65.557 50.8613 65.6488C50.9204 65.7406 50.9808 65.8438 51.0427 65.9592L51.8211 62.7117H52.5081L51.3417 67.5776L49.0779 64.663C49.0172 64.5844 48.9608 64.5014 48.9081 64.4138C48.8549 64.3262 48.8069 64.2344 48.763 64.1386L47.9825 67.3959H47.2989Z" fill="#696A6A"/>
<path d="M54.8784 63.358L53.911 67.396H53.1681L54.1353 63.358H52.921L53.0759 62.7118H56.2413L56.0866 63.358H54.8784Z" fill="#696A6A"/>
<path d="M55.6495 66.4587L56.31 66.1775C56.3166 66.3862 56.3812 66.5457 56.5046 66.6556C56.628 66.7656 56.8063 66.8204 57.0399 66.8204C57.2602 66.8204 57.4509 66.7574 57.6109 66.6315C57.7711 66.5058 57.8768 66.3373 57.9273 66.1261C57.9933 65.8507 57.8288 65.6054 57.4355 65.3903C57.3805 65.3583 57.3381 65.3348 57.3089 65.3197C56.8653 65.0681 56.5841 64.8403 56.4654 64.6365C56.347 64.4328 56.3227 64.1838 56.3931 63.8896C56.4845 63.5078 56.6852 63.1985 56.9948 62.9617C57.3044 62.7249 57.6641 62.6064 58.0743 62.6064C58.4115 62.6064 58.6776 62.6731 58.8723 62.8064C59.0672 62.94 59.1785 63.1313 59.206 63.3808L58.5521 63.688C58.4954 63.5409 58.4207 63.4332 58.328 63.3647C58.2351 63.2964 58.1175 63.2623 57.9763 63.2623C57.7767 63.2623 57.605 63.316 57.4618 63.4221C57.3193 63.529 57.2258 63.6719 57.1826 63.8513C57.1153 64.1328 57.3105 64.395 57.7684 64.6381C57.8037 64.6572 57.8312 64.6725 57.8511 64.6831C58.2518 64.8961 58.5124 65.1048 58.6318 65.3086C58.7515 65.5126 58.7751 65.7668 58.7017 66.0716C58.5955 66.5156 58.3749 66.868 58.0396 67.1292C57.7044 67.3903 57.3044 67.521 56.8407 67.521C56.4511 67.521 56.1542 67.4295 55.9498 67.2458C55.7448 67.0625 55.6447 66.8003 55.6495 66.4587Z" fill="#696A6A"/>
<path d="M61.1382 67.396L62.2606 62.7118H63.0035L61.8811 67.396H61.1382Z" fill="#696A6A"/>
<path d="M62.9489 67.3959L64.1158 62.5263L66.333 65.3898C66.3924 65.4705 66.4522 65.557 66.5113 65.6488C66.5703 65.7406 66.6307 65.8438 66.6927 65.9592L67.4711 62.7117H68.1578L66.9917 67.5776L64.7279 64.663C64.6672 64.5844 64.6105 64.5014 64.5578 64.4138C64.5049 64.3262 64.4567 64.2344 64.4127 64.1386L63.6325 67.3959H62.9489Z" fill="#696A6A"/>
<path d="M70.5284 63.358L69.5606 67.396H68.818L69.7852 63.358H68.5709L68.7259 62.7118H71.8912L71.7366 63.358H70.5284Z" fill="#696A6A"/>
<path d="M71.3371 67.396L72.4595 62.7118H75.0099L74.8552 63.358H73.0477L72.7662 64.5322H74.5737L74.4135 65.201H72.6059L72.2434 66.7144H74.0509L73.8875 67.396H71.3371Z" fill="#696A6A"/>
<path d="M76.127 64.7081H76.2615C76.6546 64.7081 76.9271 64.6615 77.0786 64.5676C77.2301 64.4737 77.3349 64.3075 77.3916 64.0684C77.4536 63.8104 77.4282 63.6284 77.3145 63.5231C77.202 63.417 76.9581 63.3643 76.5836 63.3643H76.449L76.127 64.7081ZM75.9384 65.3L75.436 67.396H74.74L75.8627 62.7118H76.899C77.2028 62.7118 77.4337 62.732 77.5913 62.7727C77.7491 62.8132 77.8763 62.8801 77.9724 62.9743C78.0868 63.087 78.161 63.2336 78.1954 63.4127C78.229 63.5916 78.2203 63.7879 78.1694 64.0009C78.0797 64.3763 77.9208 64.6703 77.693 64.8827C77.4652 65.0947 77.1734 65.2225 76.8177 65.2648L77.8808 67.396H77.0407L76.0227 65.3H75.9384Z" fill="#696A6A"/>
<path d="M78.321 67.396L79.4434 62.7118H81.9938L81.8391 63.358H80.0313L79.7514 64.5258H81.5592L81.399 65.1944H79.5914L79.0639 67.396H78.321Z" fill="#696A6A"/>
<path d="M82.8548 65.5564H84.1287L83.916 64.4875C83.9057 64.4195 83.8964 64.3411 83.8882 64.2525C83.8805 64.1639 83.8753 64.0652 83.8718 63.9564C83.8223 64.0588 83.7728 64.1543 83.7235 64.243C83.6742 64.3314 83.626 64.4128 83.5789 64.4875L82.8548 65.5564ZM84.4685 67.396L84.2389 66.1898H82.4282L81.6085 67.396H80.8283L84.2079 62.5264L85.2519 67.396H84.4685Z" fill="#696A6A"/>
<path d="M90.0878 63.8513C89.9217 63.6679 89.7326 63.5303 89.5202 63.4385C89.3083 63.3472 89.0732 63.3009 88.815 63.3009C88.3157 63.3009 87.8697 63.4652 87.478 63.7936C87.0858 64.1222 86.8273 64.5476 86.7021 65.0704C86.581 65.5761 86.6337 65.9928 86.8599 66.3211C87.0861 66.6497 87.4314 66.8143 87.8952 66.8143C88.1661 66.8143 88.4352 66.7651 88.7032 66.6669C88.9712 66.5688 89.2416 66.4206 89.5136 66.2219L89.3073 67.0828C89.0724 67.23 88.8285 67.34 88.5761 67.4123C88.3234 67.4847 88.0599 67.521 87.7853 67.521C87.4357 67.521 87.1263 67.4625 86.858 67.345C86.5895 67.2278 86.3699 67.0553 86.2002 66.8267C86.0312 66.6029 85.9229 66.3391 85.8766 66.0348C85.8294 65.7311 85.8472 65.4073 85.9293 65.0636C86.0116 64.7204 86.1491 64.3979 86.3411 64.096C86.5328 63.7941 86.7699 63.529 87.0511 63.3009C87.3334 63.0705 87.6354 62.8964 87.9569 62.7776C88.2787 62.6596 88.6105 62.6 88.9519 62.6C89.2204 62.6 89.4667 62.6403 89.691 62.7204C89.9154 62.8001 90.1225 62.921 90.3129 63.0837L90.0878 63.8513Z" fill="#696A6A"/>
<path d="M90.1596 67.396L91.282 62.7118H93.8324L93.6775 63.358H91.8702L91.5887 64.5322H93.3962L93.236 65.201H91.4285L91.0659 66.7144H92.8735L92.71 67.396H90.1596Z" fill="#696A6A"/>
<path d="M76.6093 58.6294H71.5024L78.6049 33.0034H83.7121L76.6093 58.6294Z" fill="#66686C"/>
<path d="M73.9581 33.8139C73.604 33.3263 73.0579 33.0802 72.3161 33.0802H44.2335L42.8426 38.0994H47.9524V38.0964H68.3899L66.9031 43.46H46.4651L46.4669 43.4489H41.3592L37.1199 58.7383H42.2303L45.0752 48.4762H68.049C68.7665 48.4762 69.4418 48.2318 70.0769 47.7428C70.7107 47.2533 71.1278 46.6498 71.3277 45.9291L74.1724 35.6649C74.38 34.9201 74.3083 34.3021 73.9581 33.8139Z" fill="#66686C"/>
<path d="M34.144 57.03C33.862 58.0446 32.9372 58.7466 31.8828 58.7466H5.53363C4.81565 58.7466 4.28199 58.5021 3.93108 58.0137C3.58043 57.5247 3.50522 56.9199 3.7057 56.1995L10.135 33.0785H15.2466L9.50411 53.7291H29.9514L35.6939 33.0785H40.8045L34.144 57.03Z" fill="#66686C"/>
<path d="M92.5323 33.0512L98.9981 45.8975L85.406 58.7402L92.5323 33.0512Z" fill="#27803B"/>
<path d="M87.9998 33.0512L94.4608 45.8975L80.8632 58.7402L87.9998 33.0512Z" fill="#E9661C"/>
</g>
</g>
<defs>
<clipPath id="clip0_8133_597">
<rect width="98" height="34.6221" fill="white" transform="translate(1 33)"/>
</clipPath>
</defs>
</svg>
