<svg width="68" height="24" viewBox="0 0 68 24" fill="none" xmlns="http://www.w3.org/2000/svg">
<g clip-path="url(#clip0_8130_531)">
<mask id="mask0_8130_531" style="mask-type:luminance" maskUnits="userSpaceOnUse" x="-6" y="-8" width="80" height="40">
<path d="M-5.69165 -7.82765H73.6955V31.8271H-5.69165V-7.82765Z" fill="white"/>
</mask>
<g mask="url(#mask0_8130_531)">
<path d="M0.552108 20.6159H1.06114L0.588126 22.5897C0.517928 22.8825 0.531159 23.103 0.628188 23.25C0.724849 23.3973 0.904756 23.4709 1.16773 23.4709C1.42904 23.4709 1.64331 23.3973 1.81073 23.25C1.97832 23.103 2.09722 22.8825 2.16742 22.5897L2.64025 20.6159H3.1559L2.6713 22.6385C2.56601 23.078 2.37838 23.407 2.10971 23.6251C1.84086 23.8436 1.4884 23.9526 1.05232 23.9526C0.615875 23.9526 0.316519 23.8438 0.153518 23.6262C-0.0096662 23.4089 -0.03815 23.0795 0.0675157 22.6385L0.552108 20.6159Z" fill="#696A6A"/>
<path d="M3.08752 23.8663L3.8972 20.4874L5.43569 22.4744C5.47686 22.5303 5.51839 22.5904 5.55937 22.6541C5.60035 22.7178 5.64225 22.7894 5.68525 22.8694L6.22534 20.6161H6.70185L5.89272 23.9924L4.32188 21.97C4.2798 21.9155 4.24066 21.8579 4.20409 21.7971C4.16715 21.7363 4.13389 21.6726 4.10339 21.6062L3.56183 23.8663H3.08752Z" fill="#696A6A"/>
<path d="M6.65967 23.8662L7.43847 20.616H7.95375L7.17513 23.8662H6.65967Z" fill="#696A6A"/>
<path d="M7.91602 23.8662L8.69482 20.616H10.4645L10.357 21.0643H9.10278L8.90854 21.8747H10.1627L10.0518 22.3386H8.79736L8.43148 23.8662H7.91602Z" fill="#696A6A"/>
<path d="M10.2535 23.8662L11.0323 20.616H11.5476L10.769 23.8662H10.2535Z" fill="#696A6A"/>
<path d="M11.5099 23.8662L12.2887 20.616H14.0584L13.9509 21.0643H12.6967L12.5013 21.8791H13.7555L13.6445 22.3432H12.3903L12.1386 23.3933H13.3928L13.2796 23.8662H11.5099Z" fill="#696A6A"/>
<path d="M14.501 23.3887H14.9343C15.1725 23.3887 15.3551 23.3724 15.4821 23.3399C15.6091 23.3074 15.7256 23.2525 15.8324 23.1756C15.9774 23.0707 16.0985 22.94 16.1959 22.7838C16.2931 22.6277 16.3668 22.4458 16.4164 22.2385C16.4658 22.0313 16.4794 21.8499 16.457 21.694C16.4344 21.5376 16.376 21.4071 16.2813 21.3019C16.2102 21.2251 16.1163 21.1701 15.999 21.1374C15.8816 21.1051 15.6905 21.0887 15.4248 21.0887H15.2384H15.0521L14.501 23.3887ZM13.8712 23.8662L14.65 20.6158H15.3452C15.7973 20.6158 16.1097 20.6389 16.2828 20.6856C16.4555 20.7324 16.5983 20.8106 16.7106 20.92C16.8596 21.0636 16.9545 21.2479 16.9952 21.4726C17.0359 21.6977 17.0215 21.9545 16.9524 22.2431C16.8833 22.5317 16.7747 22.7875 16.6266 23.0101C16.4789 23.233 16.2956 23.4168 16.0777 23.5618C15.9129 23.6714 15.7361 23.7494 15.5483 23.7963C15.3599 23.8427 15.0791 23.8662 14.705 23.8662H14.5662H13.8712Z" fill="#696A6A"/>
<path d="M19.4623 21.9747H19.5946C19.8804 21.9747 20.0786 21.9426 20.1893 21.8791C20.3001 21.8155 20.3745 21.703 20.4131 21.5416C20.4546 21.3685 20.4331 21.2462 20.3482 21.1754C20.2633 21.1043 20.0847 21.0685 19.8118 21.0685H19.6795L19.4623 21.9747ZM19.3261 22.4072L18.9766 23.8662H18.4937L19.2726 20.616H20.0524C20.2834 20.616 20.4504 20.6288 20.5533 20.6547C20.6558 20.6804 20.7406 20.7232 20.8075 20.7825C20.8889 20.858 20.9423 20.9597 20.9681 21.0876C20.9936 21.2158 20.9881 21.3568 20.9513 21.5104C20.9142 21.6645 20.8521 21.8065 20.7646 21.9369C20.6772 22.0671 20.5746 22.1693 20.4574 22.2431C20.3622 22.3024 20.2573 22.3446 20.1422 22.3696C20.027 22.3949 19.8541 22.4072 19.6231 22.4072H19.5215H19.3261Z" fill="#696A6A"/>
<path d="M21.5877 22.5897H22.4714L22.3239 21.848C22.3169 21.8009 22.3103 21.7465 22.3046 21.685C22.2992 21.6235 22.2956 21.555 22.2932 21.4796C22.259 21.5506 22.2246 21.6169 22.1903 21.6784C22.1561 21.7397 22.1228 21.7963 22.0901 21.848L21.5877 22.5897ZM22.7072 23.8662L22.5479 23.0292H21.2915L20.7227 23.8662H20.1815L22.5266 20.4873L23.2508 23.8662H22.7072Z" fill="#696A6A"/>
<path d="M23.9896 23.8662L24.3457 22.3786L23.7003 20.616H24.2419L24.6425 21.7193C24.6517 21.7476 24.6627 21.7845 24.6754 21.8304C24.6882 21.8763 24.7007 21.9257 24.7125 21.9791C24.7448 21.9273 24.7781 21.8781 24.8114 21.8324C24.8446 21.7865 24.8783 21.7445 24.9123 21.7059L25.8555 20.616H26.3712L24.8569 22.3786L24.5006 23.8662H23.9896Z" fill="#696A6A"/>
<path d="M28.908 22.2609C28.9081 22.2358 28.9155 22.1664 28.9298 22.0524C28.9409 21.9577 28.9495 21.8791 28.9557 21.8169C28.9251 21.891 28.8889 21.9652 28.8473 22.039C28.8056 22.113 28.7578 22.1884 28.7033 22.2655L27.4586 23.9973L27.0525 22.2301C27.0352 22.1574 27.022 22.0871 27.0131 22.0192C27.0043 21.9511 26.9983 21.8837 26.9953 21.8169C26.9777 21.8851 26.9553 21.9564 26.9279 22.0313C26.9005 22.106 26.8678 22.1842 26.8294 22.2655L26.1057 23.8662H25.6316L27.1927 20.4781L27.637 22.5297C27.6435 22.5622 27.6528 22.6164 27.6642 22.6918C27.6756 22.7673 27.689 22.8605 27.7047 22.9714C27.7572 22.8782 27.8329 22.7599 27.9325 22.6164C27.959 22.5778 27.9792 22.5483 27.9928 22.5275L29.3981 20.4781L29.353 23.8662H28.8742L28.908 22.2609Z" fill="#696A6A"/>
<path d="M29.7646 23.8662L30.5436 20.616H32.3133L32.2058 21.0643H30.9514L30.7563 21.8791H32.0105L31.8995 22.3432H30.6451L30.3935 23.3933H31.6477L31.5341 23.8662H29.7646Z" fill="#696A6A"/>
<path d="M32.1259 23.8663L32.9355 20.4874L34.474 22.4744C34.5152 22.5303 34.5567 22.5904 34.5977 22.6541C34.6387 22.7178 34.6806 22.7894 34.7236 22.8694L35.2637 20.6161H35.7404L34.9311 23.9924L33.3602 21.97C33.3181 21.9155 33.279 21.8579 33.2424 21.7971C33.2055 21.7363 33.1722 21.6726 33.1417 21.6062L32.6002 23.8663H32.1259Z" fill="#696A6A"/>
<path d="M37.3851 21.0643L36.7138 23.8662H36.1983L36.8694 21.0643H36.0269L36.1344 20.616H38.3307L38.2234 21.0643H37.3851Z" fill="#696A6A"/>
<path d="M37.92 23.2155L38.3783 23.0204C38.3829 23.1652 38.4278 23.2759 38.5134 23.3521C38.5991 23.4285 38.7227 23.4665 38.8848 23.4665C39.0377 23.4665 39.17 23.4228 39.281 23.3354C39.3922 23.2482 39.4655 23.1313 39.5006 22.9848C39.5464 22.7937 39.4322 22.6235 39.1594 22.4742C39.1211 22.452 39.0917 22.4357 39.0715 22.4252C38.7637 22.2506 38.5685 22.0925 38.4862 21.9512C38.4041 21.8098 38.3872 21.6371 38.4361 21.4329C38.4995 21.168 38.6387 20.9534 38.8536 20.7891C39.0684 20.6248 39.3179 20.5425 39.6026 20.5425C39.8365 20.5425 40.0212 20.5888 40.1563 20.6813C40.2915 20.774 40.3687 20.9067 40.3878 21.0799L39.9341 21.293C39.8948 21.1909 39.843 21.1162 39.7786 21.0687C39.7141 21.0213 39.6326 20.9976 39.5346 20.9976C39.396 20.9976 39.277 21.0349 39.1775 21.1085C39.0787 21.1827 39.0138 21.2818 38.9839 21.4063C38.9372 21.6016 39.0726 21.7836 39.3904 21.9523C39.4148 21.9655 39.4339 21.9761 39.4477 21.9835C39.7257 22.1313 39.9066 22.2761 39.9894 22.4175C40.0725 22.559 40.0888 22.7355 40.0379 22.9469C39.9643 23.255 39.8112 23.4995 39.5785 23.6807C39.3459 23.8619 39.0684 23.9526 38.7466 23.9526C38.4763 23.9526 38.2703 23.8891 38.1284 23.7617C37.9862 23.6345 37.9167 23.4525 37.92 23.2155Z" fill="#696A6A"/>
<path d="M41.7285 23.8662L42.5073 20.616H43.0228L42.244 23.8662H41.7285Z" fill="#696A6A"/>
<path d="M42.985 23.8663L43.7947 20.4874L45.3332 22.4744C45.3743 22.5303 45.4158 22.5904 45.4568 22.6541C45.4978 22.7178 45.5397 22.7894 45.5827 22.8694L46.1228 20.6161H46.5993L45.7902 23.9924L44.2193 21.97C44.1773 21.9155 44.1379 21.8579 44.1014 21.7971C44.0646 21.7363 44.0312 21.6726 44.0007 21.6062L43.4593 23.8663H42.985Z" fill="#696A6A"/>
<path d="M48.2442 21.0643L47.5727 23.8662H47.0574L47.7286 21.0643H46.886L46.9935 20.616H49.1899L49.0825 21.0643H48.2442Z" fill="#696A6A"/>
<path d="M48.8054 23.8662L49.5842 20.616H51.3539L51.2466 21.0643H49.9924L49.797 21.8791H51.0512L50.9401 22.3432H49.6858L49.4343 23.3933H50.6885L50.5751 23.8662H48.8054Z" fill="#696A6A"/>
<path d="M52.129 22.0012H52.2224C52.4951 22.0012 52.6842 21.9688 52.7893 21.9037C52.8944 21.8385 52.9672 21.7232 53.0065 21.5572C53.0495 21.3782 53.0319 21.2519 52.953 21.1789C52.8749 21.1052 52.7057 21.0687 52.4458 21.0687H52.3525L52.129 22.0012ZM51.9982 22.4118L51.6496 23.8662H51.1666L51.9456 20.616H52.6647C52.8755 20.616 53.0357 20.6299 53.1451 20.6582C53.2546 20.6863 53.3428 20.7327 53.4095 20.7981C53.4889 20.8763 53.5403 20.978 53.5642 21.1023C53.5876 21.2264 53.5815 21.3626 53.5462 21.5104C53.4839 21.7709 53.3737 21.9749 53.2156 22.1223C53.0576 22.2694 52.8551 22.358 52.6083 22.3874L53.3459 23.8662H52.763L52.0566 22.4118H51.9982Z" fill="#696A6A"/>
<path d="M53.6514 23.8662L54.4302 20.616H56.1998L56.0925 21.0643H54.8381L54.6439 21.8747H55.8983L55.7871 22.3386H54.5329L54.1668 23.8662H53.6514Z" fill="#696A6A"/>
<path d="M56.7972 22.5897H57.6811L57.5335 21.848C57.5264 21.8009 57.5199 21.7465 57.5142 21.685C57.5089 21.6235 57.5052 21.555 57.5028 21.4796C57.4685 21.5506 57.4341 21.6169 57.3999 21.6784C57.3657 21.7397 57.3323 21.7963 57.2996 21.848L56.7972 22.5897ZM57.9169 23.8662L57.7575 23.0292H56.5011L55.9324 23.8662H55.391L57.736 20.4873L58.4604 23.8662H57.9169Z" fill="#696A6A"/>
<path d="M61.816 21.4063C61.7008 21.2791 61.5696 21.1836 61.4222 21.1199C61.2752 21.0566 61.112 21.0244 60.9328 21.0244C60.5864 21.0244 60.277 21.1384 60.0052 21.3663C59.733 21.5943 59.5537 21.8895 59.4667 22.2523C59.3828 22.6031 59.4193 22.8922 59.5763 23.1201C59.7332 23.3481 59.9728 23.4623 60.2946 23.4623C60.4826 23.4623 60.6693 23.4281 60.8553 23.36C61.0413 23.2919 61.2289 23.1891 61.4176 23.0512L61.2745 23.6486C61.1115 23.7507 60.9422 23.8271 60.7671 23.8772C60.5918 23.9275 60.4089 23.9526 60.2183 23.9526C59.9758 23.9526 59.7611 23.9121 59.575 23.8306C59.3886 23.7492 59.2363 23.6295 59.1185 23.4709C59.0013 23.3156 58.9261 23.1326 58.8939 22.9214C58.8612 22.7107 58.8735 22.486 58.9305 22.2475C58.9877 22.0094 59.083 21.7856 59.2163 21.5761C59.3493 21.3666 59.5138 21.1827 59.7089 21.0244C59.9048 20.8645 60.1143 20.7437 60.3374 20.6613C60.5607 20.5794 60.791 20.5381 61.0278 20.5381C61.2142 20.5381 61.3851 20.566 61.5407 20.6216C61.6964 20.6769 61.8401 20.7608 61.9722 20.8737L61.816 21.4063Z" fill="#696A6A"/>
<path d="M61.8658 23.8662L62.6446 20.616H64.4143L64.3068 21.0643H63.0528L62.8574 21.8791H64.1117L64.0005 22.3432H62.7463L62.4947 23.3933H63.7489L63.6355 23.8662H61.8658Z" fill="#696A6A"/>
<path d="M52.4636 17.7837H48.92L53.8483 0.00236893H57.3921L52.4636 17.7837Z" fill="#66686C"/>
<path d="M50.6239 0.564438C50.3782 0.226088 49.9993 0.0553513 49.4846 0.0553513H29.9987L29.0336 3.538H32.5792V3.53598H46.7602L45.7286 7.25765H31.5471L31.5484 7.24994H28.0043L25.0627 17.8589H28.6087L30.5827 10.7383H46.5237C47.0216 10.7383 47.4902 10.5686 47.9308 10.2294C48.3706 9.88974 48.66 9.47098 48.7988 8.97089L50.7726 1.84881C50.9167 1.33202 50.8669 0.903156 50.6239 0.564438Z" fill="#66686C"/>
<path d="M22.9979 16.6736C22.8022 17.3777 22.1604 17.8647 21.4289 17.8647H3.14575C2.64756 17.8647 2.27727 17.6951 2.03378 17.3562C1.79047 17.0169 1.73828 16.5973 1.87739 16.0974L6.33851 0.0542355H9.88539L5.90078 14.3832H20.0887L24.0733 0.0542355H27.6194L22.9979 16.6736Z" fill="#66686C"/>
<path d="M63.5123 0.0355816L67.9988 8.94928L58.5675 17.8606L63.5123 0.0355816Z" fill="#27803B"/>
<path d="M60.3672 0.0355816L64.8504 8.94928L55.4153 17.8606L60.3672 0.0355816Z" fill="#E9661C"/>
</g>
</g>
<defs>
<clipPath id="clip0_8130_531">
<rect width="68" height="24" fill="white"/>
</clipPath>
</defs>
</svg>
