<svg width="40" height="40" viewBox="0 0 32 30" fill="none" xmlns="http://www.w3.org/2000/svg">
<path fill-rule="evenodd" clip-rule="evenodd" d="M16.2317 10.5043C16.1672 10.5084 16.1027 10.5105 16.0381 10.5105C14.3842 10.5105 13.0413 9.1676 13.0413 7.51366C13.0413 5.85971 14.3842 4.51685 16.0381 4.51685C17.6921 4.51685 19.0349 5.85971 19.0349 7.51366C19.0358 8.20127 18.7992 8.8681 18.3651 9.40135L21.6777 15.4907C22.494 15.194 23.3559 15.0422 24.2245 15.0422C28.3393 15.0422 31.6799 18.3828 31.6799 22.4977C31.6799 26.6125 28.3393 29.9531 24.2245 29.9531C22.7684 29.9525 21.344 29.5272 20.126 28.7291C19.9954 28.6441 19.8849 28.5316 19.8023 28.3994C19.7198 28.2671 19.6672 28.1184 19.6483 27.9637C19.6293 27.809 19.6445 27.652 19.6927 27.5038C19.7409 27.3556 19.821 27.2197 19.9274 27.1057C19.9296 27.1034 19.9319 27.1009 19.9363 27.1004C20.1151 26.9088 20.3554 26.7859 20.6154 26.7531C20.8755 26.7203 21.1388 26.7797 21.3596 26.9209C22.2129 27.4736 23.2078 27.7676 24.2245 27.7676C27.1331 27.7676 29.4945 25.4063 29.4945 22.4977C29.4945 19.589 27.1331 17.2277 24.2245 17.2277C23.2173 17.2277 21.7877 17.6683 20.9283 18.2137C20.8841 18.2469 20.8332 18.2703 20.7792 18.2821C20.7251 18.2939 20.6691 18.294 20.6151 18.2823C20.561 18.2705 20.5101 18.2473 20.4658 18.2142C20.4215 18.181 20.3848 18.1387 20.3583 18.0902L16.2317 10.5043ZM14.8558 23.4584C14.7046 24.3136 14.4051 25.1359 13.9708 25.888C11.9134 29.4517 7.35003 30.6745 3.78647 28.6171C0.222907 26.5597 -0.999787 21.9962 1.05748 18.4325C1.78609 17.1717 2.86669 16.1509 4.16684 15.4951C4.30575 15.4244 4.45844 15.3851 4.61419 15.3798C4.76993 15.3744 4.92496 15.4033 5.06837 15.4642C5.21185 15.5252 5.34026 15.6168 5.44456 15.7326C5.54887 15.8484 5.62653 15.9857 5.67211 16.1348C5.67299 16.138 5.67387 16.1411 5.67211 16.145C5.74876 16.3957 5.73509 16.6653 5.63349 16.907C5.53188 17.1486 5.34877 17.347 5.11602 17.4676C4.21068 17.9302 3.45849 18.6448 2.95014 19.5253C1.49589 22.044 2.36014 25.2699 4.87906 26.7243C7.39798 28.1786 10.6238 27.3142 12.0781 24.7952C12.5817 23.923 12.9149 22.4646 12.8723 21.4476C12.8656 21.3927 12.8707 21.3369 12.8875 21.2842C12.9042 21.2314 12.9321 21.1829 12.9693 21.1419C13.0065 21.1009 13.0521 21.0685 13.103 21.0467C13.1539 21.025 13.2089 21.0145 13.2642 21.0159L21.8971 21.2351C21.9256 21.1775 21.956 21.1206 21.9886 21.0643C22.8156 19.632 24.6499 19.1404 26.0822 19.9673C27.5148 20.7945 28.0062 22.6288 27.1792 24.0611C26.3522 25.4934 24.5179 25.9849 23.0854 25.1579C22.4895 24.8149 22.0303 24.2766 21.7855 23.6341L14.8558 23.4584ZM11.2374 13.2305C10.5722 12.6719 10.0098 12.0013 9.57541 11.249C7.51799 7.68542 8.74069 3.12195 12.3042 1.06469C15.8678 -0.99258 20.4313 0.230115 22.4885 3.79353C23.2161 5.05485 23.56 6.50103 23.4779 7.95484C23.4696 8.11048 23.4274 8.26242 23.3541 8.39999C23.2808 8.53756 23.1784 8.65743 23.0538 8.75118C22.9293 8.84494 22.7858 8.9103 22.6334 8.94269C22.4809 8.97508 22.3232 8.97371 22.1713 8.93867C22.1681 8.93794 22.1649 8.93706 22.1623 8.93355C21.9069 8.87459 21.6802 8.72796 21.5218 8.51917C21.3634 8.31038 21.2831 8.05265 21.2951 7.79082C21.3472 6.7754 21.1044 5.7666 20.5959 4.88612C19.1416 2.36734 15.9159 1.50295 13.397 2.9572C10.8782 4.4116 10.0137 7.63733 11.4681 10.1562C11.9717 11.0285 13.0681 12.0463 13.97 12.5179C14.021 12.5395 14.0666 12.5719 14.1039 12.6128C14.1412 12.6536 14.1693 12.7021 14.1862 12.7548C14.2031 12.8075 14.2084 12.8632 14.2019 12.9182C14.1953 12.9731 14.1769 13.026 14.1481 13.0732L9.64178 20.4399C9.67745 20.4933 9.71151 20.5481 9.74411 20.6044C10.5709 22.0369 10.0795 23.8712 8.64698 24.6982C7.21466 25.5252 5.38033 25.0337 4.55336 23.6012C3.72639 22.1689 4.21786 20.3346 5.65018 19.5076C6.24523 19.163 6.94102 19.0345 7.61989 19.1439L11.2374 13.2305Z" fill="#7547DB"/>
</svg>
