<svg width="100" height="100" viewBox="0 0 100 100" fill="none" xmlns="http://www.w3.org/2000/svg">
<path d="M48.1144 6.75049H48.0069L46.932 6.96547C44.5671 7.25212 42.256 7.91499 39.9987 8.95409C37.7413 9.99319 35.7527 11.3727 34.0328 13.0926C31.0947 15.7441 29.0523 19.0047 27.9058 22.8744C27.2608 25.0243 26.9742 27.2816 27.0458 29.6464C27.1175 32.0113 27.5474 34.2686 28.3357 36.4185C29.554 39.6433 31.4172 42.4381 33.9254 44.8029L35.3228 46.0928L26.4009 60.6044C24.5377 60.5327 22.9253 60.7835 21.5637 61.3568C19.4138 62.2884 17.8014 63.7217 16.7265 65.6565C16.2249 66.7315 15.9024 67.8422 15.7591 68.9888C15.6158 70.1354 15.6874 71.282 15.9741 72.4286C16.5474 74.5784 17.7298 76.2983 19.5213 77.5882C20.5962 78.3048 21.7787 78.8244 23.0686 79.1469C24.3585 79.4694 25.6484 79.541 26.9383 79.3619C28.2282 79.1827 29.4644 78.7348 30.6468 78.0182C31.8292 77.3016 32.8146 76.4058 33.6029 75.3309C34.4628 74.1126 34.9824 72.7152 35.1615 71.1387C35.3407 69.5621 35.1436 68.093 34.5703 66.7315C34.4986 66.3731 34.2478 65.8715 33.8179 65.2266L33.4954 64.5816L46.1795 43.943C46.6095 43.298 46.8961 42.7964 47.0395 42.4381L45.9645 42.1156C45.3196 41.9723 44.8538 41.829 44.5671 41.6856C42.9189 40.969 41.4319 39.9837 40.1062 38.7296C38.7804 37.4755 37.7593 36.0602 37.0426 34.4836C35.8244 31.9038 35.5019 29.2165 36.0752 26.4217C36.3619 24.7734 36.971 23.2327 37.9026 21.7995C38.8342 20.3662 39.9449 19.148 41.2349 18.1447C43.8863 16.2099 46.8245 15.2424 50.0493 15.2424C51.9841 15.1708 53.8653 15.5111 55.6926 16.2636C57.52 17.016 59.1145 18.1089 60.4761 19.5421C61.6943 20.6887 62.6438 22.0682 63.3246 23.6806C64.0054 25.293 64.3816 26.9233 64.4533 28.5715C64.4533 29.7898 64.2383 31.2947 63.8083 33.0862L71.3328 35.1286L72.1928 35.2361C73.196 32.1546 73.4469 29.0732 72.9452 25.9917C72.6586 23.6269 71.9599 21.3516 70.8491 19.1659C69.7384 16.9802 68.323 15.0633 66.6032 13.415C63.5934 10.4052 59.9028 8.39871 55.5314 7.39544C55.1014 7.25212 54.4565 7.1088 53.5965 6.96547L52.0916 6.75049H48.1144ZM50.0493 20.0796C48.831 20.0796 47.6128 20.3304 46.3945 20.832C45.1763 21.3337 44.0834 22.0682 43.116 23.0356C42.1485 24.0031 41.4498 25.1318 41.0199 26.4217C40.4466 27.8549 40.3033 29.4315 40.5899 31.1513C40.8049 32.4413 41.3065 33.6595 42.0948 34.8061C42.8831 35.9527 43.8863 36.8485 45.1046 37.4934C46.8245 38.5683 48.831 39.0342 51.1242 38.8908C51.3392 39.1775 51.5183 39.4641 51.6617 39.7508L63.7008 60.2819C63.9158 60.7119 64.1308 61.0343 64.3458 61.2493C66.2807 59.3861 68.3768 58.1141 70.6341 57.4333C72.8915 56.7525 75.2205 56.6271 77.6212 57.0571C80.0218 57.4871 82.1179 58.4187 83.9095 59.8519C86.2027 61.6435 87.7613 63.8471 88.5854 66.4627C89.4095 69.0784 89.4275 71.712 88.6392 74.3634C88.0659 76.37 87.0447 78.1615 85.5756 79.7381C84.1066 81.3146 82.3688 82.4971 80.3622 83.2853C78.1407 84.2169 75.758 84.5215 73.214 84.199C70.67 83.8766 68.3947 82.9987 66.3882 81.5655C66.1015 81.3505 65.6357 80.9922 64.9908 80.4905L64.4533 79.8456C64.1667 80.0606 63.7725 80.4189 63.2709 80.9205L58.2187 85.8652C59.8669 87.5134 61.7301 88.8929 63.8083 90.0036C65.8865 91.1144 68.0722 91.8848 70.3654 92.3147L72.7302 92.7447H76.9225L79.9323 92.2072C84.5186 91.2756 88.46 89.1258 91.7565 85.7577C93.333 84.1811 94.6408 82.3717 95.6799 80.3293C96.719 78.2869 97.4177 76.155 97.7761 73.9335C98.1344 71.3536 98.0627 68.7917 97.5611 66.2477C97.0594 63.7037 96.1637 61.3926 94.8738 59.3145C93.5838 57.2363 92.0073 55.4089 90.1441 53.8323C88.2809 52.2558 86.2385 51.0017 84.017 50.0701C81.5805 49.0668 79.0544 48.4935 76.4387 48.3502C73.8231 48.2069 71.2612 48.4577 68.753 49.1026L66.9256 49.6401L58.2187 34.9136C59.1503 33.552 59.7236 32.2263 59.9386 30.9364C60.2969 28.6432 59.8311 26.4933 58.5412 24.4868C57.3946 22.6952 55.818 21.4412 53.8115 20.7245C52.5933 20.2946 51.3392 20.0796 50.0493 20.0796ZM19.7363 48.4577C15.5799 49.3893 11.9968 51.2883 8.98703 54.1548C5.61892 57.3079 3.43324 61.0702 2.42997 65.4415L2 68.0214V71.9986L2.21499 73.181C2.35831 74.1126 2.50163 74.8292 2.64496 75.3309C3.14659 77.5524 4.02445 79.6664 5.27853 81.673C6.53261 83.6795 8.05543 85.4352 9.84697 86.9401C13.4301 89.8782 17.5506 91.6339 22.2086 92.2072C24.9318 92.4939 27.6549 92.3327 30.3781 91.7235C33.1012 91.1144 35.6094 90.0932 37.9026 88.66C41.7007 86.2235 44.4955 82.9629 46.287 78.8781C46.7887 77.6599 47.2903 76.0475 47.7919 74.041C48.2219 73.9693 48.8668 73.9693 49.7268 74.041L63.1634 74.256C64.1667 74.256 64.8833 74.2918 65.3132 74.3634C66.1015 75.7967 66.9973 76.9074 68.0006 77.6957C69.0038 78.484 70.1325 79.0573 71.3866 79.4156C72.6407 79.7739 73.9127 79.9172 75.2026 79.8456C77.2091 79.6306 79.0007 78.914 80.5772 77.6957C82.5121 76.1908 83.6587 74.256 84.017 71.8911C84.1603 70.6729 84.1066 69.4904 83.8557 68.3438C83.6049 67.1973 83.1212 66.1223 82.4046 65.1191C81.258 63.5425 79.7889 62.3959 77.9974 61.6793C76.7791 61.1777 75.5071 60.9448 74.1814 60.9806C72.8556 61.0164 71.5837 61.2852 70.3654 61.7868C68.3589 62.6467 66.8181 63.9725 65.7432 65.764L65.4207 66.409C64.4175 66.409 62.9126 66.3731 60.906 66.3015L48.7594 66.194C47.6844 66.1223 46.1437 66.0865 44.1372 66.0865L38.7625 65.979L39.085 67.8064C39.6583 70.8878 39.1925 73.7901 37.6876 76.5133C36.6843 78.4482 35.2511 80.0606 33.3879 81.3505C31.5247 82.6404 29.4823 83.4287 27.2608 83.7153C24.7526 84.1453 22.2445 83.8766 19.7363 82.9091C17.2281 81.9417 15.1858 80.4189 13.6092 78.3407C11.6027 75.8325 10.6353 73.0019 10.7069 69.8487C10.7786 67.1973 11.6027 64.7249 13.1792 62.4317C14.1109 61.0702 15.2574 59.9236 16.619 58.992C17.9806 58.0604 19.4497 57.3796 21.0262 56.9496L21.9937 56.6271L19.7363 48.4577Z" fill="black" data-dark-mode-color="true"/>
</svg>
