<svg xmlns="http://www.w3.org/2000/svg" xmlns:xlink="http://www.w3.org/1999/xlink" width="32" height="32" viewBox="0 0 48 48"><path style="stroke:none;fill-rule:nonzero;fill:#fff;fill-opacity:1" d="M 1.679688 46.519531 L 4.824219 35.046875 C 2.882812 31.6875 1.863281 27.878906 1.863281 23.976562 C 1.871094 11.765625 11.804688 1.832031 24.015625 1.832031 C 29.941406 1.835938 35.503906 4.140625 39.683594 8.328125 C 43.867188 12.511719 46.167969 18.074219 46.167969 23.992188 C 46.164062 36.203125 36.222656 46.136719 24.015625 46.136719 L 24.007812 46.136719 C 20.300781 46.136719 16.65625 45.207031 13.421875 43.441406 Z M 1.679688 46.519531"/><path style="stroke:none;fill-rule:nonzero;fill:#fff;fill-opacity:1" d="M 1.679688 47.105469 C 1.523438 47.105469 1.375 47.042969 1.265625 46.929688 C 1.121094 46.78125 1.0625 46.566406 1.117188 46.367188 L 4.195312 35.125 C 2.289062 31.734375 1.28125 27.886719 1.28125 23.976562 C 1.289062 11.445312 11.484375 1.25 24.015625 1.25 C 30.09375 1.253906 35.804688 3.621094 40.097656 7.914062 C 44.390625 12.210938 46.753906 17.921875 46.75 23.992188 C 46.746094 36.523438 36.546875 46.71875 24.015625 46.71875 C 20.296875 46.71875 16.613281 45.800781 13.347656 44.0625 L 1.828125 47.082031 C 1.777344 47.097656 1.730469 47.105469 1.679688 47.105469 Z M 1.679688 47.105469"/><path style="stroke:none;fill-rule:nonzero;fill:#cfd8dc;fill-opacity:1" d="M 24.015625 1.832031 C 29.941406 1.835938 35.503906 4.140625 39.683594 8.328125 C 43.867188 12.511719 46.167969 18.074219 46.167969 23.992188 C 46.164062 36.203125 36.222656 46.136719 24.015625 46.136719 L 24.007812 46.136719 C 20.300781 46.136719 16.65625 45.207031 13.421875 43.441406 L 1.679688 46.519531 L 4.824219 35.046875 C 2.882812 31.6875 1.863281 27.878906 1.863281 23.976562 C 1.871094 11.765625 11.804688 1.832031 24.015625 1.832031 M 24.015625 46.136719 L 24.015625 46.136719 M 24.015625 46.136719 L 24.015625 46.136719 M 24.015625 0.667969 C 11.164062 0.667969 0.703125 11.121094 0.699219 23.976562 C 0.695312 27.902344 1.6875 31.773438 3.570312 35.203125 L 0.554688 46.214844 C 0.445312 46.617188 0.554688 47.046875 0.851562 47.339844 C 1.070312 47.566406 1.371094 47.6875 1.679688 47.6875 C 1.777344 47.6875 1.878906 47.675781 1.976562 47.648438 L 13.277344 44.6875 C 16.578125 46.398438 20.273438 47.304688 24.007812 47.304688 C 36.867188 47.304688 47.328125 36.847656 47.335938 23.996094 C 47.335938 17.765625 44.914062 11.910156 40.511719 7.503906 C 36.109375 3.097656 30.25 0.667969 24.015625 0.667969 Z M 24.015625 0.667969"/><path style="stroke:none;fill-rule:nonzero;fill:#40c351;fill-opacity:1" d="M 37.039062 10.96875 C 33.5625 7.492188 28.941406 5.574219 24.023438 5.574219 C 13.867188 5.574219 5.609375 13.828125 5.605469 23.976562 C 5.601562 27.453125 6.574219 30.839844 8.417969 33.773438 L 8.859375 34.46875 L 6.996094 41.261719 L 13.964844 39.433594 L 14.640625 39.832031 C 17.464844 41.507812 20.707031 42.394531 24.007812 42.398438 L 24.015625 42.398438 C 34.164062 42.398438 42.421875 34.140625 42.425781 23.992188 C 42.425781 19.074219 40.515625 14.449219 37.039062 10.96875 Z M 37.039062 10.96875"/><path style="stroke:none;fill-rule:evenodd;fill:#fff;fill-opacity:1" d="M 18.480469 14.71875 C 18.066406 13.796875 17.628906 13.777344 17.234375 13.761719 C 16.910156 13.75 16.542969 13.75 16.171875 13.75 C 15.804688 13.75 15.203125 13.886719 14.695312 14.441406 C 14.191406 14.996094 12.757812 16.335938 12.757812 19.058594 C 12.757812 21.78125 14.742188 24.414062 15.019531 24.78125 C 15.296875 25.152344 18.847656 30.917969 24.472656 33.136719 C 29.148438 34.980469 30.101562 34.613281 31.117188 34.519531 C 32.128906 34.429688 34.390625 33.183594 34.851562 31.890625 C 35.3125 30.597656 35.3125 29.492188 35.175781 29.257812 C 35.035156 29.027344 34.667969 28.890625 34.113281 28.613281 C 33.5625 28.335938 30.839844 26.996094 30.332031 26.8125 C 29.824219 26.628906 29.457031 26.535156 29.085938 27.089844 C 28.71875 27.644531 27.65625 28.890625 27.332031 29.257812 C 27.011719 29.628906 26.6875 29.675781 26.132812 29.398438 C 25.582031 29.121094 23.796875 28.539062 21.683594 26.652344 C 20.039062 25.183594 18.925781 23.375 18.605469 22.820312 C 18.28125 22.265625 18.570312 21.964844 18.847656 21.691406 C 19.09375 21.441406 19.398438 21.042969 19.675781 20.71875 C 19.953125 20.398438 20.046875 20.167969 20.230469 19.796875 C 20.414062 19.429688 20.324219 19.105469 20.183594 18.828125 C 20.046875 18.550781 18.972656 15.8125 18.480469 14.71875 Z M 18.480469 14.71875"/></svg>