<svg width="93" height="82" viewBox="0 0 93 82" fill="none" xmlns="http://www.w3.org/2000/svg">

<path d="M50.4268 0.880371C53.9751 5.56919 56.7282 13.8051 58.2803 19.48H59.1064C61.0525 12.7246 67.0051 5.26311 73.5732 2.57275C82.807 -1.2094 91.8234 4.61634 92.5498 14.52C93.1992 23.378 89.1811 31.7142 85.9736 39.7339C80.4879 53.4498 74.1735 67.0765 69.4404 81.0669H68.6133L57.6172 54.2007L52.4932 40.9741C50.0378 43.2173 49.0005 47.4326 47.7812 50.48C45.1277 57.114 42.2386 63.6612 39.6553 70.3208C38.5075 73.2803 37.0542 79.4041 34.3066 81.0669L22.8262 52.9604L6.34863 13.6938L0 5.42725H33.8936C40.1828 5.42726 45.9483 6.12836 50.4268 0.880371ZM43.3955 20.3071C40.7241 13.8331 34.5677 3.54761 26.0576 9.14404C21.4702 12.1609 24.1628 18.4678 25.8018 22.3735C30.7818 34.2414 34.5588 47.5688 40.9199 58.7466C43.8764 54.2942 45.3049 48.3668 47.417 43.4536C48.2871 41.4303 49.9506 38.6812 49.7803 36.4263C49.3974 31.3546 45.3386 25.0161 43.3955 20.3071ZM82.209 18.6597C77.9149 12.2958 62.2475 13.8084 60.2598 21.9595C59.6026 24.6548 62.9455 29.8061 64.0049 32.2935C67.6827 40.9279 71.4201 49.5838 74.8135 58.3335C76.8243 55.8444 77.6095 52.1926 78.7812 49.2397C82.1709 40.6967 88.1125 27.4099 82.209 18.6597Z" fill="#020202" data-dark-mode-color="true"/>


</svg>
