<svg xmlns="http://www.w3.org/2000/svg" xmlns:xlink="http://www.w3.org/1999/xlink" width="32" height="32" version="1.1" viewBox="0 7 32 32"><path fill="#000" d="M 16.734375 15.710938 C 16.222656 16.128906 15.714844 16.175781 11.222656 16.175781 C 8.5 16.175781 6.269531 16.25 6.269531 16.371094 C 6.269531 16.46875 6.488281 16.691406 6.753906 16.863281 C 7.410156 17.253906 7.726562 17.964844 10.882812 25.734375 C 12.410156 29.4375 13.699219 32.574219 13.796875 32.671875 C 13.890625 32.769531 14.597656 31.300781 15.375 29.363281 C 16.148438 27.425781 16.976562 25.441406 17.195312 24.925781 L 17.605469 23.996094 L 19.402344 28.429688 C 20.398438 30.859375 21.25 32.84375 21.320312 32.84375 C 21.539062 32.820312 26.152344 20.710938 26.324219 19.679688 C 26.542969 18.1875 26.25 17.035156 25.425781 16.175781 C 23.796875 14.558594 21.03125 15.636719 19.453125 18.554688 L 19.039062 19.339844 L 18.164062 17.304688 L 17.316406 15.246094 Z M 13.746094 16.9375 C 14.644531 17.253906 15.15625 18.015625 16.34375 20.90625 L 17.21875 23.0625 L 16.296875 25.488281 C 15.785156 26.839844 15.324219 27.941406 15.25 27.941406 C 15.058594 27.941406 11.367188 18.699219 11.367188 18.210938 C 11.367188 17.574219 11.660156 17.207031 12.339844 16.9375 C 12.679688 16.8125 12.945312 16.691406 12.96875 16.691406 C 12.992188 16.667969 13.332031 16.789062 13.746094 16.9375 Z M 23.042969 19.042969 C 23.964844 20.023438 23.792969 22.28125 22.554688 25.488281 C 21.804688 27.5 21.535156 27.964844 21.390625 27.574219 C 21.292969 27.304688 20.566406 25.539062 19.789062 23.652344 C 19.011719 21.765625 18.378906 20.097656 18.378906 19.949219 C 18.378906 19.484375 19.546875 18.578125 20.371094 18.40625 C 21.558594 18.160156 22.410156 18.359375 23.042969 19.042969 Z M 23.042969 19.042969" data-dark-mode-color="true"/></svg>