<svg width="100" height="100" viewBox="0 0 100 100" fill="none" xmlns="http://www.w3.org/2000/svg">
<g clip-path="url(#clip0_7855_1055)">
<path d="M54.4267 9.88037C49.9482 15.1284 44.1826 14.427 37.8933 14.427H4L10.3486 22.6937L26.8265 61.9604L38.3067 90.067C41.0543 88.4042 42.507 82.2798 43.6548 79.3204C46.2381 72.6607 49.1277 66.1144 51.7813 59.4804C53.0007 56.4329 54.0377 52.2169 56.4933 49.9737L61.6174 63.2004L72.6133 90.067H73.44C78.1731 76.0765 84.4876 62.4498 89.9733 48.7337C93.1808 40.714 97.1988 32.3784 96.5495 23.5204C95.8232 13.6165 86.8072 7.79041 77.5733 11.5726C71.0051 14.2629 65.0526 21.7249 63.1067 28.4804H62.28C60.7279 22.8054 57.9751 14.5693 54.4267 9.88037Z" fill="#020202"/>
<path d="M44.9199 67.7467C47.8765 63.2943 49.305 57.3666 51.4171 52.4533C52.2872 50.4301 53.9504 47.6816 53.7801 45.4267C53.3974 40.3547 49.3384 34.0158 47.3953 29.3067C44.724 22.8326 38.5679 12.5479 30.0578 18.1444C25.4704 21.1613 28.163 27.4676 29.802 31.3733C34.782 43.2412 38.5587 56.5689 44.9199 67.7467Z" fill="#F7F7F7"/>
<path d="M78.8133 67.3331C80.8241 64.8441 81.6099 61.1927 82.7817 58.2398C86.1714 49.6966 92.1127 36.4095 86.2086 27.6592C81.9145 21.2953 66.2467 22.8084 64.2594 30.9598C63.6022 33.6552 66.9452 38.8058 68.0046 41.2931C71.6824 49.9277 75.4198 58.5833 78.8133 67.3331Z" fill="#F7F7F7"/>
</g>
<defs>
<clipPath id="clip0_7855_1055">
<rect width="93" height="80.1867" fill="white" transform="translate(4 9.88037)"/>
</clipPath>
</defs>
</svg>
