<svg xmlns="http://www.w3.org/2000/svg" width="48" height="48" fill="none" viewBox="0 0 48 48"><path fill="#464342" d="M3.41016 23.9994C3.41016 32.1489 8.14619 39.1916 15.0138 42.529L5.19269 15.6204C4.01536 18.2568 3.40793 21.1121 3.41016 23.9994ZM37.8979 22.9605C37.8979 20.416 36.9839 18.6538 36.2 17.2822C35.1563 15.5863 34.1781 14.1501 34.1781 12.4541C34.1781 10.5615 35.6135 8.79978 37.6354 8.79978C37.7267 8.79978 37.8132 8.81114 37.9022 8.81623C34.2392 5.46039 29.359 3.41147 23.9989 3.41147C16.8061 3.41147 10.478 7.10188 6.79656 12.6916C7.27961 12.7061 7.73484 12.7162 8.12151 12.7162C10.275 12.7162 13.6085 12.4549 13.6085 12.4549C14.7184 12.3895 14.8493 14.0196 13.7406 14.1509C13.7406 14.1509 12.6252 14.2821 11.3841 14.3471L18.8817 36.6483L23.3873 23.1352L20.1796 14.3464C19.0709 14.2813 18.0206 14.1501 18.0206 14.1501C16.9111 14.0851 17.0412 12.3887 18.1506 12.4541C18.1506 12.4541 21.5508 12.7155 23.5738 12.7155C25.727 12.7155 29.0609 12.4541 29.0609 12.4541C30.1715 12.3887 30.302 14.0188 29.1929 14.1501C29.1929 14.1501 28.0752 14.2813 26.8364 14.3464L34.2768 36.4786L36.3304 29.6161C37.2205 26.7684 37.8979 24.723 37.8979 22.9605Z"/><path fill="#464342" d="M24.3609 25.8003L18.1836 43.7505C20.0722 44.3068 22.0309 44.5892 23.9997 44.5893C26.3973 44.5893 28.6966 44.1748 30.8368 43.4222C30.7796 43.3322 30.7306 43.2373 30.6902 43.1386L24.3609 25.8003ZM42.0655 14.1215C42.154 14.7773 42.2042 15.4813 42.2042 16.2386C42.2042 18.3279 41.814 20.6765 40.6387 23.6131L34.3497 41.796C40.4706 38.2267 44.5876 31.5953 44.5876 23.9998C44.588 20.4203 43.6737 17.0542 42.0655 14.1215Z"/><path fill="#464342" d="M24.0002 0C10.7668 0 0 10.766 0 23.9994C0 37.2343 10.7668 48 24.0002 48C37.2332 48 48.0016 37.2343 48.0016 23.9994C48.0012 10.766 37.2332 0 24.0002 0ZM24.0002 46.8999C11.3737 46.8999 1.10046 36.6267 1.10046 23.9994C1.10046 11.3729 11.3733 1.10046 24.0002 1.10046C36.6263 1.10046 46.8988 11.3729 46.8988 23.9994C46.8988 36.6267 36.6263 46.8999 24.0002 46.8999Z"/></svg>