<svg width="100" height="100" viewBox="0 0 100 100" fill="none" xmlns="http://www.w3.org/2000/svg">
<g clip-path="url(#clip0_7855_1065)">
<path d="M60.9997 50.0192C61.0012 53.1923 60.4288 56.3394 59.3101 59.3088C56.3397 60.4272 53.1919 61.0005 50.0179 61.001H49.9808C46.7124 60.9969 43.5808 60.3995 40.6912 59.3101C39.5719 56.3405 38.9989 53.1929 39 50.0192V49.9808C38.9985 46.8083 39.5703 43.6617 40.6878 40.6926C43.658 39.572 46.8066 38.9986 49.9811 39H50.0182C53.1924 38.9985 56.3406 39.5718 59.3105 40.6923C60.4293 43.6611 61.0016 46.8078 61 49.9804V50.0189L60.9997 50.0192ZM93.3888 42.6668H67.7052L85.8652 24.5054C84.4398 22.5032 82.8498 20.6233 81.1118 18.8855V18.8841C79.3737 17.1481 77.4944 15.5596 75.4932 14.1348L57.3318 32.2962V6.61256C54.9164 6.20623 52.4714 6.00133 50.022 6L49.9766 6C47.4851 6.00138 45.0448 6.21313 42.6668 6.61256V32.2962L24.5054 14.1348C22.5039 15.5592 20.6254 17.1489 18.8896 18.8872L18.88 18.8941C17.1449 20.6297 15.5572 22.5067 14.1331 24.5054L32.2958 42.6668H6.61256C6.61256 42.6668 6 47.4906 6 49.9849V50.0151C6 52.5094 6.21141 54.9538 6.61256 57.3332H32.2962L14.1335 75.4946C16.9906 79.5041 20.4959 83.0094 24.5054 85.8665L42.6668 67.7038V93.3888C45.0796 93.7931 47.5216 93.9976 49.968 94H50.0303C52.4767 93.9978 54.9187 93.7934 57.3315 93.3888V67.7038L75.4946 85.8665C77.4953 84.4413 79.3742 82.8523 81.1118 81.1159L81.1159 81.1118C82.8515 79.3739 84.4401 77.495 85.8652 75.4946L67.7024 57.3332H93.3888C93.7886 54.9579 93.9973 52.5207 94 50.032V49.968C93.9973 47.4793 93.7886 45.0421 93.3888 42.6668Z" fill="#FF4A00"/>
</g>
<defs>
<clipPath id="clip0_7855_1065">
<rect width="88" height="88" fill="white" transform="translate(6 6)"/>
</clipPath>
</defs>
</svg>
