<svg xmlns="http://www.w3.org/2000/svg" width="32" height="32" fill="none" viewBox="0 0 517 517"><rect width="517" height="517" fill="#FF4F00" rx="59"/><g clip-path="url(#clip0_501_13)"><path fill="#fff" d="M78.0501 421.305L77.9767 421.069L124.568 377.975V357.212H49.82V377.975H94.467L94.5404 378.174L48.4048 421.305V442.069H125.318V421.305H78.0501Z"/><path fill="#fff" d="M171.198 355.235C162.576 355.235 155.55 356.548 150.118 359.176C145.059 361.466 140.797 365.239 137.886 370.005C135.101 374.803 133.352 380.142 132.755 385.671L155.434 388.891C156.255 384.009 157.896 380.549 160.357 378.51C163.155 376.377 166.603 375.299 170.103 375.464C174.706 375.464 178.045 376.707 180.121 379.193C182.176 381.68 183.222 385.124 183.222 389.662V391.925H161.415C150.315 391.925 142.341 394.412 137.493 399.385C132.643 404.358 130.224 410.923 130.232 419.079C130.232 427.434 132.652 433.651 137.493 437.729C142.332 441.807 148.42 443.834 155.755 443.809C164.853 443.809 171.851 440.647 176.748 434.323C179.641 430.436 181.707 425.987 182.815 421.255H183.64L186.766 442.018H207.318V389.439C207.318 378.572 204.483 370.155 198.814 364.187C193.144 358.219 183.94 355.235 171.198 355.235ZM178.385 420.049C175.124 422.797 170.855 424.164 165.538 424.164C161.156 424.164 158.113 423.389 156.407 421.839C155.576 421.106 154.913 420.197 154.469 419.176C154.025 418.156 153.808 417.048 153.835 415.934C153.786 414.882 153.95 413.832 154.316 412.847C154.682 411.861 155.242 410.962 155.964 410.202C156.743 409.463 157.663 408.891 158.668 408.522C159.673 408.152 160.741 407.992 161.809 408.051H183.259V409.481C183.303 411.502 182.886 413.506 182.041 415.338C181.195 417.171 179.945 418.783 178.385 420.049Z"/><path fill="#fff" d="M331.577 357.212H307.297V442.081H331.577V357.212Z"/><path fill="#fff" d="M474.922 357.212C468.064 357.212 462.657 359.657 458.703 364.547C455.864 368.062 453.706 373.255 452.23 380.126H451.516L448.342 357.212H427.605V442.069H451.886V398.552C451.886 393.065 453.157 388.858 455.701 385.932C458.243 383.007 462.936 381.544 469.779 381.544H478.996V357.212H474.922Z"/><path fill="#fff" d="M403.535 359.986C397.866 356.579 390.717 354.88 382.085 354.888C368.5 354.888 357.867 358.796 350.188 366.613C342.509 374.429 338.67 385.205 338.67 398.939C338.474 407.243 340.268 415.471 343.899 422.923C347.224 429.563 352.401 435.074 358.79 438.775C365.222 442.531 372.872 444.412 381.74 444.419C389.412 444.419 395.819 443.226 400.963 440.84C405.799 438.695 410.01 435.335 413.195 431.079C416.228 426.901 418.48 422.199 419.841 417.204L398.92 411.285C398.04 414.534 396.344 417.497 393.998 419.889C391.635 422.276 387.676 423.47 382.122 423.47C375.518 423.47 370.596 421.559 367.355 417.738C365.005 414.978 363.528 411.037 362.875 405.927H420.161C420.395 403.539 420.518 401.538 420.518 399.921V394.637C420.656 387.539 419.204 380.5 416.272 374.048C413.527 368.17 409.087 363.268 403.535 359.986ZM381.384 375.117C391.229 375.117 396.812 380.012 398.132 389.801H363.306C363.86 386.534 365.199 383.456 367.208 380.836C370.399 377.015 375.124 375.109 381.384 375.117Z"/><path fill="#fff" d="M319.697 323.008C317.87 322.945 316.05 323.254 314.343 323.916C312.637 324.578 311.081 325.58 309.766 326.862C308.469 328.157 307.453 329.709 306.781 331.421C306.109 333.134 305.797 334.968 305.865 336.809C305.799 338.661 306.112 340.507 306.784 342.232C307.457 343.957 308.474 345.523 309.771 346.833C311.069 348.143 312.621 349.169 314.328 349.847C316.036 350.524 317.864 350.839 319.697 350.771C321.518 350.841 323.335 350.526 325.03 349.847C326.724 349.169 328.261 348.141 329.542 346.83C330.812 345.505 331.803 343.934 332.456 342.212C333.11 340.49 333.412 338.652 333.344 336.809C333.428 334.976 333.133 333.147 332.477 331.436C331.822 329.726 330.821 328.172 329.538 326.875C328.255 325.577 326.718 324.564 325.026 323.901C323.333 323.237 321.522 322.937 319.709 323.02L319.697 323.008Z"/><path fill="#fff" d="M269.547 354.888C261.278 354.888 254.633 357.512 249.612 362.758C245.894 366.646 243.168 372.448 241.428 380.165H240.652L237.478 357.25H216.741V466.464H241.021V421.481H241.908C242.649 424.48 243.687 427.396 245.009 430.184C247.063 434.725 250.431 438.531 254.669 441.1C259.064 443.523 264.013 444.729 269.018 444.594C279.183 444.594 286.924 440.595 292.24 432.596C297.556 424.597 300.214 413.436 300.214 399.113C300.214 385.279 297.643 374.45 292.498 366.625C287.354 358.801 279.704 354.888 269.547 354.888ZM272.009 416.383C269.178 420.527 264.748 422.6 258.718 422.6C256.232 422.715 253.753 422.231 251.49 421.187C249.225 420.143 247.24 418.568 245.698 416.594C242.556 412.607 240.989 407.149 240.997 400.22V398.603C240.997 391.566 242.564 386.178 245.698 382.44C248.832 378.702 253.172 376.853 258.718 376.895C264.855 376.895 269.313 378.864 272.094 382.801C274.876 386.738 276.267 392.229 276.267 399.275C276.283 406.561 274.872 412.263 272.033 416.383H272.009Z"/></g><defs><clipPath id="clip0_501_13"><rect width="524" height="144" fill="#fff" transform="translate(-45 323)"/></clipPath></defs></svg>