<svg xmlns="http://www.w3.org/2000/svg" width="24" height="24" fill="none" viewBox="0 0 24 24"><path fill="#68737D" fill-rule="evenodd" d="M19.3742 12.5C19.3742 12.0858 19.0384 11.75 18.6242 11.75C18.21 11.75 17.8742 12.0858 17.8742 12.5V14.6242H15.75C15.3358 14.6242 15 14.96 15 15.3742C15 15.7884 15.3358 16.1242 15.75 16.1242H17.8742V18.2483C17.8742 18.6626 18.21 18.9983 18.6242 18.9983C19.0384 18.9983 19.3742 18.6626 19.3742 18.2483V16.1242H21.4983C21.9126 16.1242 22.2483 15.7884 22.2483 15.3742C22.2483 14.96 21.9126 14.6242 21.4983 14.6242H19.3742V12.5Z" clip-rule="evenodd"/><line x1="3.75" x2="20.25" y1="7.25" y2="7.25" stroke="#68737D" stroke-linecap="round" stroke-width="1.5"/><line x1="3.75" x2="14.25" y1="11.25" y2="11.25" stroke="#68737D" stroke-linecap="round" stroke-width="1.5"/><line x1="3.75" x2="10.25" y1="15.25" y2="15.25" stroke="#68737D" stroke-linecap="round" stroke-width="1.5"/></svg>