<svg xmlns="http://www.w3.org/2000/svg" width="20" height="20" fill="none" viewBox="0 0 24 24"><path stroke="currentColor" stroke-linecap="round" stroke-linejoin="round" stroke-width="1.5" d="M9 19V4"/><path stroke="currentColor" stroke-linecap="round" stroke-linejoin="round" stroke-width="1.5" d="M15 14V20.896"/><path stroke="currentColor" stroke-linecap="round" stroke-linejoin="round" stroke-width="1.5" d="M21 13V18.3321C21.0005 18.5417 20.9349 18.7461 20.8125 18.9162C20.6902 19.0864 20.5174 19.2137 20.3186 19.28C19.0212 19.7125 16.2426 20.6388 15.3114 20.9494C15.1076 21.0173 14.8871 21.0168 14.6836 20.9478L9.31626 19.1585C9.11097 19.0901 8.88903 19.0901 8.68374 19.1585L4.31626 20.6145C4.16594 20.6646 4.00586 20.6783 3.84922 20.6544C3.69257 20.6305 3.54385 20.5697 3.4153 20.4771C3.28676 20.3844 3.18207 20.2626 3.10986 20.1215C3.03766 19.9805 3 19.8243 3 19.6658V6.61276C3 6.40288 3.06603 6.19833 3.18875 6.02806C3.31146 5.8578 3.48464 5.73046 3.68374 5.66409L8.36747 4.10265C8.77803 3.96578 9.22191 3.96578 9.63247 4.10265L11 4.55852"/><path stroke="currentColor" stroke-linecap="round" stroke-linejoin="round" stroke-width="1.5" d="M14 6.5C14 8.13851 15.788 9.88881 16.808 10.7543C17.0034 10.9132 17.2476 11 17.4995 11C17.7514 11 17.9956 10.9132 18.191 10.7543C19.212 9.88881 21 8.13851 21 6.5"/><path stroke="currentColor" stroke-linecap="round" stroke-linejoin="round" stroke-width="1.5" d="M17.501 6.25001C17.5504 6.25021 17.5986 6.26504 17.6396 6.29263C17.6806 6.32022 17.7125 6.35933 17.7313 6.40503C17.75 6.45073 17.7548 6.50096 17.7451 6.54939C17.7353 6.59782 17.7114 6.64227 17.6764 6.67714C17.6414 6.712 17.5969 6.73571 17.5484 6.74528C17.4999 6.75484 17.4497 6.74983 17.4041 6.73088C17.3585 6.71193 17.3195 6.67989 17.2921 6.6388C17.2646 6.59771 17.25 6.54941 17.25 6.50001C17.2498 6.46705 17.2562 6.43438 17.2688 6.4039C17.2813 6.37343 17.2998 6.34575 17.3232 6.32249C17.3465 6.29923 17.3743 6.28084 17.4048 6.2684C17.4353 6.25595 17.468 6.2497 17.501 6.25001"/><path stroke="currentColor" stroke-linecap="round" stroke-linejoin="round" stroke-width="1.5" d="M14 6.5C14 5.57174 14.3687 4.6815 15.0251 4.02513C15.6815 3.36875 16.5717 3 17.5 3V3C18.4283 3 19.3185 3.36875 19.9749 4.02513C20.6313 4.6815 21 5.57174 21 6.5V6.5"/></svg>