<svg width="24" height="24" viewBox="0 0 24 24" fill="none" xmlns="http://www.w3.org/2000/svg">
<g clip-path="url(#clip0_7489_175)">
<path d="M11 21H7C5.89543 21 5 20.1046 5 19V5C5 3.89543 5.89543 3 7 3H14.1716C14.702 3 15.2107 3.21071 15.5858 3.58579L18.4142 6.41421C18.7893 6.78929 19 7.29799 19 7.82843V11" stroke="#68737D" stroke-width="1.5" stroke-linecap="round"/>
<path d="M9 8H15" stroke="#68737D" stroke-width="1.5" stroke-linecap="round" stroke-linejoin="round"/>
<path d="M9 11H15" stroke="#68737D" stroke-width="1.5" stroke-linecap="round" stroke-linejoin="round"/>
<path d="M15.8333 14C15.5902 14 15.3571 14.0966 15.1852 14.2685C15.0132 14.4404 14.9167 14.6736 14.9167 14.9167V16.2917C14.9167 16.6563 14.8201 17.0061 14.6482 17.2639C14.4763 17.5218 14.2431 17.6667 14 17.6667C14.2431 17.6667 14.4763 17.8115 14.6482 18.0694C14.8201 18.3273 14.9167 18.677 14.9167 19.0417V20.4167C14.9167 20.6598 15.0132 20.8929 15.1852 21.0648C15.3571 21.2368 15.5902 21.3333 15.8333 21.3333" stroke="#68737D" stroke-width="1.5" stroke-linecap="round" stroke-linejoin="round"/>
<path d="M20.4167 14C20.6598 14 20.8929 14.0966 21.0648 14.2685C21.2368 14.4404 21.3333 14.6736 21.3333 14.9167V16.2917C21.3333 16.6563 21.4299 17.0061 21.6018 17.2639C21.7737 17.5218 22.0069 17.6667 22.25 17.6667C22.0069 17.6667 21.7737 17.8115 21.6018 18.0694C21.4299 18.3273 21.3333 18.677 21.3333 19.0417V20.4167C21.3333 20.6598 21.2368 20.8929 21.0648 21.0648C20.8929 21.2368 20.6598 21.3333 20.4167 21.3333" stroke="#68737D" stroke-width="1.5" stroke-linecap="round" stroke-linejoin="round"/>
</g>
<defs>
<clipPath id="clip0_7489_175">
<rect width="24" height="24" fill="white"/>
</clipPath>
</defs>
</svg>
