<svg xmlns="http://www.w3.org/2000/svg" width="24" height="24" fill="none" viewBox="0 0 24 24"><g clip-path="url(#clip0_3125_3522)"><path stroke="#68737D" stroke-linecap="round" stroke-linejoin="round" stroke-width="1.5" d="M4.5 17.8334V14.9167C4.5 14.2263 5.05964 13.6667 5.75 13.6667H7.31583C7.64712 13.6668 7.96484 13.7983 8.19917 14.0325L9.0125 14.8459C9.32492 15.1579 9.74842 15.3333 10.19 15.3334H13.8092C14.2514 15.3335 14.6756 15.1578 14.9883 14.845L15.6792 14.1542C15.9916 13.8421 16.4151 13.6668 16.8567 13.6667H18.25C18.9404 13.6667 19.5 14.2263 19.5 14.9167V17.8334C19.5 18.7538 18.7538 19.5 17.8333 19.5H6.16667C5.24619 19.5 4.5 18.7538 4.5 17.8334Z"/><path stroke="#68737D" stroke-linecap="round" stroke-linejoin="round" stroke-width="1.5" d="M6.16667 13.6667V6.16667C6.16667 5.24619 6.91286 4.5 7.83334 4.5H16.1667C17.0871 4.5 17.8333 5.24619 17.8333 6.16667V13.6667"/></g><defs><clipPath id="clip0_3125_3522"><rect width="20" height="20" fill="#fff" transform="translate(2 2)"/></clipPath></defs></svg>