<svg width="24" height="24" viewBox="0 0 24 24" fill="none" xmlns="http://www.w3.org/2000/svg">
<g clip-path="url(#clip0_6884_75)">
<path d="M18 20V19C18 17.9391 17.5786 16.9217 16.8284 16.1716C16.0783 15.4214 15.0609 15 14 15H6C4.93913 15 3.92172 15.4214 3.17157 16.1716C2.42143 16.9217 2 17.9391 2 19V20" stroke="#68737D" stroke-width="1.5" stroke-linecap="round" stroke-linejoin="round"/>
<path d="M10 11C12.2091 11 14 9.20914 14 7C14 4.79086 12.2091 3 10 3C7.79086 3 6 4.79086 6 7C6 9.20914 7.79086 11 10 11Z" stroke="#68737D" stroke-width="1.5" stroke-linecap="round" stroke-linejoin="round"/>
<path d="M21 11L17 11" stroke="#68737D" stroke-width="1.5" stroke-linecap="round" stroke-linejoin="round"/>
<path d="M19 13L19 9.00001" stroke="#68737D" stroke-width="1.5" stroke-linecap="round" stroke-linejoin="round"/>
</g>
<defs>
<clipPath id="clip0_6884_75">
<rect width="24" height="24" fill="white"/>
</clipPath>
</defs>
</svg>
