<svg width="24" height="24" viewBox="0 0 24 24" fill="none" xmlns="http://www.w3.org/2000/svg">
<g clip-path="url(#clip0_7295_594)">
<path d="M17.6304 5.87338C16.7367 4.49592 15.4631 3.40683 13.9636 2.73773C12.4642 2.06863 10.803 1.84816 9.18093 2.10298C7.55885 2.3578 6.0453 3.07699 4.8232 4.17363C3.6011 5.27028 2.72278 6.69742 2.29439 8.28257C1.866 9.86773 1.90588 11.543 2.40922 13.106C2.91255 14.669 3.85779 16.0527 5.13068 17.09C6.40358 18.1272 7.94964 18.7735 9.582 18.9509C9.88422 18.983 10.1902 19 10.5 19" stroke="#68737D" stroke-width="1.5" stroke-linecap="round" stroke-linejoin="round"/>
<path d="M10 6V10.2857L12 12" stroke="#68737D" stroke-width="1.5" stroke-linecap="round" stroke-linejoin="round"/>
<path d="M14 22V20.6667C14 19.9594 14.281 19.2811 14.781 18.781C15.2811 18.281 15.9594 18 16.6667 18H19.3333C20.0406 18 20.7189 18.281 21.219 18.781C21.719 19.2811 22 19.9594 22 20.6667V22" stroke="#68737D" stroke-width="1.5" stroke-linecap="round" stroke-linejoin="round"/>
<path d="M15.3334 12.6667C15.3334 13.3739 15.6143 14.0522 16.1144 14.5523C16.6145 15.0524 17.2928 15.3333 18 15.3333C18.7073 15.3333 19.3856 15.0524 19.8857 14.5523C20.3858 14.0522 20.6667 13.3739 20.6667 12.6667C20.6667 11.9594 20.3858 11.2811 19.8857 10.781C19.3856 10.281 18.7073 10 18 10C17.2928 10 16.6145 10.281 16.1144 10.781C15.6143 11.2811 15.3334 11.9594 15.3334 12.6667Z" stroke="#68737D" stroke-width="1.5" stroke-linecap="round" stroke-linejoin="round"/>
</g>
<defs>
<clipPath id="clip0_7295_594">
<rect width="24" height="24" fill="white"/>
</clipPath>
</defs>
</svg>
