<svg xmlns="http://www.w3.org/2000/svg" width="24" height="24" fill="none" viewBox="0 0 24 24"><g clip-path="url(#clip0_6477_264)"><circle cx="11.791" cy="9.75" r="6.75" stroke="#68737D" stroke-width="1.5"/><path stroke="#68737D" stroke-width="1.151" d="M6.6897 14L3.55399 18.9138C3.51836 18.9696 3.56841 19.0363 3.63569 19.0226L6.52057 18.4357L7.37584 21.0293C7.39579 21.0898 7.48364 21.0972 7.51927 21.0414L10.655 16.1276"/><path stroke="#68737D" stroke-width="1.151" d="M16.9653 14L20.101 18.9138C20.1366 18.9696 20.0866 19.0363 20.0193 19.0226L17.1344 18.4357L16.2791 21.0293C16.2592 21.0898 16.1713 21.0972 16.1357 21.0414L13 16.1276"/><path stroke="#68737D" stroke-width="1.5" d="M11.8634 6.26762C11.9203 6.15611 12.0797 6.15611 12.1366 6.26762L13.1636 8.28013C13.1859 8.32378 13.2277 8.35416 13.2761 8.36186L15.5075 8.71674C15.6311 8.7364 15.6804 8.88794 15.5919 8.97652L13.9953 10.5752C13.9606 10.6099 13.9447 10.659 13.9523 10.7074L14.3043 12.9393C14.3238 13.0629 14.1949 13.1566 14.0833 13.0998L12.0695 12.0754C12.0258 12.0531 11.9742 12.0531 11.9305 12.0754L9.91666 13.0998C9.80507 13.1566 9.67617 13.0629 9.69567 12.9393L10.0477 10.7074C10.0553 10.659 10.0394 10.6099 10.0047 10.5752L8.40809 8.97652C8.31963 8.88794 8.36886 8.7364 8.4925 8.71674L10.7239 8.36186C10.7723 8.35416 10.8141 8.32378 10.8364 8.28013L11.8634 6.26762Z"/></g><defs><clipPath id="clip0_6477_264"><rect width="24" height="24" fill="#fff"/></clipPath></defs></svg>