<svg xmlns="http://www.w3.org/2000/svg" width="24" height="24" fill="none" viewBox="0 0 24 24"><path stroke="#68737D" stroke-linecap="round" stroke-linejoin="round" stroke-width="1.5" d="M20 6.375H4M15.5414 21H8.45857C7.89171 21 7.34573 20.786 6.92981 20.4009C6.51389 20.0157 6.25868 19.4878 6.2152 18.9226L5.25 6.375H18.75L17.7848 18.9226C17.7413 19.4878 17.4861 20.0157 17.0702 20.4009C16.6543 20.786 16.1083 21 15.5414 21ZM9.18748 3H14.8125C15.1108 3 15.397 3.11853 15.608 3.3295C15.819 3.54048 15.9375 3.82663 15.9375 4.125V6.375H8.06248V4.125C8.06248 3.82663 8.18101 3.54048 8.39198 3.3295C8.60296 3.11853 8.88911 3 9.18748 3Z"/><path stroke="#68737D" stroke-linecap="round" stroke-width="1.5" d="M9 13L11 15L15 11"/></svg>