<svg width="24" height="24" viewBox="0 0 24 24" fill="none" xmlns="http://www.w3.org/2000/svg">
<g clip-path="url(#clip0_7213_54)">
<path d="M14.653 6.17542L17 3.82843C17.7811 3.04738 19.0474 3.04738 19.8284 3.82843V3.82843C20.6095 4.60948 20.6095 5.87581 19.8284 6.65686L17.4814 9.00385M12.3963 8.43214L3.44542 17.383C2.91336 17.9151 2.6042 18.63 2.58094 19.3821L2.57237 19.6592C2.57213 19.6668 2.57116 19.6744 2.56945 19.6818V19.6818C2.37583 20.5254 3.13141 21.281 3.97506 21.0874V21.0874C3.98249 21.0857 3.99006 21.0847 3.99768 21.0845L4.27478 21.0759C5.02687 21.0527 5.74179 20.7435 6.27385 20.2114L15.2247 11.2606" stroke="#68737D" stroke-width="1.5"/>
<path d="M14.6191 8.16505C14.912 8.45795 15.3869 8.45795 15.6798 8.16505C15.9727 7.87216 15.9727 7.39729 15.6798 7.10439L14.6191 8.16505ZM17.5303 8.95496L17 8.42463L15.9393 9.48529L16.4697 10.0156L17.5303 8.95496ZM15.7626 11.4298L12.227 7.8943L11.1664 8.95496L14.7019 12.4905L15.7626 11.4298ZM13.2877 6.83364L14.6191 8.16505L15.6798 7.10439L14.3483 5.77298L13.2877 6.83364ZM16.4697 10.0156L16.8232 10.3692L17.8839 9.30851L17.5303 8.95496L16.4697 10.0156ZM12.227 7.8943C11.9341 7.6014 11.9341 7.12653 12.227 6.83364L11.1664 5.77298C10.2877 6.65166 10.2877 8.07628 11.1664 8.95496L12.227 7.8943ZM16.8232 11.4298C16.5303 11.7227 16.0555 11.7227 15.7626 11.4298L14.7019 12.4905C15.5806 13.3692 17.0052 13.3692 17.8839 12.4905L16.8232 11.4298ZM17.8839 12.4905C18.7626 11.6118 18.7626 10.1872 17.8839 9.30851L16.8232 10.3692C17.1161 10.6621 17.1161 11.1369 16.8232 11.4298L17.8839 12.4905ZM12.227 6.83364C12.5199 6.54074 12.9948 6.54074 13.2877 6.83364L14.3483 5.77298C13.4697 4.8943 12.045 4.8943 11.1664 5.77298L12.227 6.83364Z" fill="#68737D"/>
</g>
<defs>
<clipPath id="clip0_7213_54">
<rect width="24" height="24" fill="white"/>
</clipPath>
</defs>
</svg>
