<svg xmlns="http://www.w3.org/2000/svg" width="24" height="24" fill="none" viewBox="0 0 24 24"><path stroke="#68737D" stroke-linecap="round" stroke-linejoin="round" stroke-width="1.5" d="M6.5 7.5C6.5 7.76522 6.60536 8.01957 6.79289 8.20711C6.98043 8.39464 7.23478 8.5 7.5 8.5C7.76522 8.5 8.01957 8.39464 8.20711 8.20711C8.39464 8.01957 8.5 7.76522 8.5 7.5C8.5 7.23478 8.39464 6.98043 8.20711 6.79289C8.01957 6.60536 7.76522 6.5 7.5 6.5C7.23478 6.5 6.98043 6.60536 6.79289 6.79289C6.60536 6.98043 6.5 7.23478 6.5 7.5Z"/><path stroke="#68737D" stroke-linecap="round" stroke-linejoin="round" stroke-width="1.5" d="M16.441 7.441L12.586 3.586C12.211 3.2109 11.7024 3.00011 11.172 3H6C5.20435 3 4.44129 3.31607 3.87868 3.87868C3.31607 4.44129 3 5.20435 3 6V11.172C3.00011 11.7024 3.2109 12.211 3.586 12.586L10 19"/><path stroke="#68737D" stroke-linecap="round" stroke-linejoin="round" stroke-width="1.5" d="M12 22H23"/><path stroke="#68737D" stroke-linecap="round" stroke-linejoin="round" stroke-width="1.5" d="M15.5 13.3333H16.1667"/><path stroke="#68737D" stroke-linecap="round" stroke-linejoin="round" stroke-width="1.5" d="M15.5 16H16.1667"/><path stroke="#68737D" stroke-linecap="round" stroke-linejoin="round" stroke-width="1.5" d="M15.5 18.6667H16.1667"/><path stroke="#68737D" stroke-linecap="round" stroke-linejoin="round" stroke-width="1.5" d="M18.8333 13.3333H19.5"/><path stroke="#68737D" stroke-linecap="round" stroke-linejoin="round" stroke-width="1.5" d="M18.8333 16H19.5"/><path stroke="#68737D" stroke-linecap="round" stroke-linejoin="round" stroke-width="1.5" d="M18.8333 18.6667H19.5"/><path stroke="#68737D" stroke-linecap="round" stroke-linejoin="round" stroke-width="1.5" d="M13 22V11.3333C13 10.9797 13.1355 10.6406 13.3766 10.3905C13.6177 10.1405 13.9447 10 14.2857 10H20.7143C21.0553 10 21.3823 10.1405 21.6234 10.3905C21.8645 10.6406 22 10.9797 22 11.3333V22"/></svg>