<svg width="24" height="24" viewBox="0 0 24 24" fill="none" xmlns="http://www.w3.org/2000/svg">
<path d="M6.5 7.5C6.5 7.76522 6.60536 8.01957 6.79289 8.20711C6.98043 8.39464 7.23478 8.5 7.5 8.5C7.76522 8.5 8.01957 8.39464 8.20711 8.20711C8.39464 8.01957 8.5 7.76522 8.5 7.5C8.5 7.23478 8.39464 6.98043 8.20711 6.79289C8.01957 6.60536 7.76522 6.5 7.5 6.5C7.23478 6.5 6.98043 6.60536 6.79289 6.79289C6.60536 6.98043 6.5 7.23478 6.5 7.5Z" stroke="#68737D" stroke-width="1.5" stroke-linecap="round" stroke-linejoin="round"/>
<path d="M16.441 7.441L12.586 3.586C12.211 3.2109 11.7024 3.00011 11.172 3H6C5.20435 3 4.44129 3.31607 3.87868 3.87868C3.31607 4.44129 3 5.20435 3 6V11.172C3.00011 11.7024 3.2109 12.211 3.586 12.586L10 19" stroke="#68737D" stroke-width="1.5" stroke-linecap="round" stroke-linejoin="round"/>
<path d="M22 11.375V19.625C22 19.9897 21.8645 20.3394 21.6234 20.5973C21.3823 20.8551 21.0553 21 20.7143 21H14.2857C13.9447 21 13.6177 20.8551 13.3766 20.5973C13.1355 20.3394 13 19.9897 13 19.625V11.375C13 11.0103 13.1355 10.6606 13.3766 10.4027C13.6177 10.1449 13.9447 10 14.2857 10H20.7143C21.0553 10 21.3823 10.1449 21.6234 10.4027C21.8645 10.6606 22 11.0103 22 11.375Z" stroke="#68737D" stroke-width="1.5" stroke-linecap="round" stroke-linejoin="round"/>
<path d="M15.75 18.5H19.5" stroke="#68737D" stroke-width="1.5" stroke-linecap="round" stroke-linejoin="round"/>
<path d="M16.375 14.375C16.375 14.7065 16.5067 15.0245 16.7411 15.2589C16.9755 15.4933 17.2935 15.625 17.625 15.625C17.9565 15.625 18.2745 15.4933 18.5089 15.2589C18.7433 15.0245 18.875 14.7065 18.875 14.375C18.875 14.0435 18.7433 13.7255 18.5089 13.4911C18.2745 13.2567 17.9565 13.125 17.625 13.125C17.2935 13.125 16.9755 13.2567 16.7411 13.4911C16.5067 13.7255 16.375 14.0435 16.375 14.375Z" stroke="#68737D" stroke-width="1.5" stroke-linecap="round" stroke-linejoin="round"/>
<path d="M12 13.5H13.875" stroke="#68737D" stroke-width="1.5" stroke-linecap="round" stroke-linejoin="round"/>
<path d="M12 17.5H13.875" stroke="#68737D" stroke-width="1.5" stroke-linecap="round" stroke-linejoin="round"/>
</svg>
