<svg xmlns="http://www.w3.org/2000/svg" width="24" height="24" fill="none" viewBox="0 0 24 24"><g clip-path="url(#clip0_7295_253)"><path stroke="#68737D" stroke-linecap="round" stroke-linejoin="round" stroke-width="1.5" d="M20.6025 9.35496C20.0344 7.50711 18.8863 5.89131 17.3283 4.74677C15.7703 3.60223 13.8851 2.9898 11.9519 3.00013C10.0187 3.01046 8.14021 3.64301 6.5945 4.80413C5.0488 5.96525 3.91806 7.59322 3.36968 9.44705C2.8213 11.3009 2.88442 13.282 3.5497 15.0972C4.21498 16.9123 5.44706 18.465 7.06354 19.5254C8.29307 20.3319 9.69528 20.821 11.1454 20.9593"/><path stroke="#68737D" stroke-linecap="round" stroke-linejoin="round" stroke-width="1.5" d="M3.59991 9.00067H20.3999"/><path stroke="#68737D" stroke-linecap="round" stroke-linejoin="round" stroke-width="1.5" d="M3.59991 15.0007H8.5"/><path stroke="#68737D" stroke-linecap="round" stroke-linejoin="round" stroke-width="1.5" d="M11.4999 3.00067C9.81525 5.70028 8.92212 8.81854 8.92212 12.0007C8.92212 15.1828 9.81525 18.3011 11.4999 21.0007"/><path stroke="#68737D" stroke-linecap="round" stroke-linejoin="round" stroke-width="1.5" d="M12.4999 3.00067C14.1981 5.71573 15.0809 8.83769 15.0778 12"/><path stroke="#68737D" stroke-linecap="round" stroke-linejoin="round" stroke-width="1.5" d="M16.4999 18.4997L19.4996 15.4999"/><path stroke="#68737D" stroke-linecap="round" stroke-linejoin="round" stroke-width="1.5" d="M17.4998 14.0001L17.7312 13.7321C18.2001 13.2633 18.836 13 19.499 13C20.162 13 20.7979 13.2635 21.2667 13.7323C21.7355 14.2012 21.9988 14.8371 21.9988 15.5001C21.9987 16.1632 21.7353 16.799 21.2664 17.2678L20.9995 17.4998"/><path stroke="#68737D" stroke-linecap="round" stroke-linejoin="round" stroke-width="1.5" d="M18.4997 19.9996L18.3012 20.2666C17.8269 20.7356 17.1867 20.9987 16.5196 20.9987C15.8525 20.9987 15.2123 20.7356 14.738 20.2666C14.5042 20.0354 14.3186 19.7601 14.1919 19.4567C14.0652 19.1533 14 18.8278 14 18.499C14 18.1702 14.0652 17.8446 14.1919 17.5412C14.3186 17.2378 14.5042 16.9625 14.738 16.7314L15 16.4999"/></g><defs><clipPath id="clip0_7295_253"><rect width="24" height="24" fill="#fff"/></clipPath></defs></svg>