<svg xmlns="http://www.w3.org/2000/svg" width="32" height="32" fill="none" viewBox="0 0 32 32"><path stroke="#68737D" stroke-linecap="round" stroke-linejoin="round" stroke-width="2" d="M28 16C28 13.6266 27.2962 11.3066 25.9776 9.33316C24.6591 7.35977 22.7849 5.8217 20.5922 4.91345C18.3995 4.0052 15.9867 3.76756 13.6589 4.23058C11.3312 4.6936 9.19295 5.83649 7.51472 7.51472C5.83649 9.19295 4.6936 11.3312 4.23058 13.6589C3.76756 15.9867 4.0052 18.3995 4.91345 20.5922C5.8217 22.7849 7.35977 24.6591 9.33316 25.9776C11.3066 27.2962 13.6266 28 16 28M4.80001 12H27.2M4.80001 20H16M15.4373 4.00001C13.1911 7.59949 12.0003 11.7572 12.0003 16C12.0003 20.2429 13.1911 24.4005 15.4373 28M16.6667 4.00001C18.9587 7.67334 20 11.8347 20 16M24 28V18.6667M24 18.6667L28 22.6667M24 18.6667L20 22.6667"/></svg>