<svg xmlns="http://www.w3.org/2000/svg" width="24" height="24" fill="none" viewBox="0 0 24 24"><g clip-path="url(#clip0_6884_74)"><g clip-path="url(#clip1_6884_74)"><path fill="#68737D" stroke="#68737D" stroke-linecap="round" stroke-linejoin="round" stroke-width="1.5" d="M12 7C12.5523 7 13 6.55228 13 6C13 5.44772 12.5523 5 12 5C11.4477 5 11 5.44772 11 6C11 6.55228 11.4477 7 12 7Z"/><path fill="#68737D" stroke="#68737D" stroke-linecap="round" stroke-linejoin="round" stroke-width="1.5" d="M12 19C12.5523 19 13 18.5523 13 18C13 17.4477 12.5523 17 12 17C11.4477 17 11 17.4477 11 18C11 18.5523 11.4477 19 12 19Z"/><path stroke="#68737D" stroke-linecap="round" stroke-linejoin="round" stroke-width="1.5" d="M5 12H19"/></g></g><defs><clipPath id="clip0_6884_74"><rect width="24" height="24" fill="#fff"/></clipPath><clipPath id="clip1_6884_74"><rect width="24" height="24" fill="#fff"/></clipPath></defs></svg>