<svg xmlns="http://www.w3.org/2000/svg" width="24" height="24" fill="none" viewBox="0 0 24 24"><path stroke="#68737D" stroke-linecap="round" stroke-linejoin="round" stroke-width="1.484" d="M21 10.713V18.989C21 20.1 20.129 21 19.054 21H4.946C3.871 21 3 20.1 3 18.99V7.01C3 5.9 3.871 5 4.946 5H10.297"/><path stroke="#68737D" stroke-linecap="round" stroke-linejoin="round" stroke-width="1.5" d="M19.43 7L17 4.57M18.062 3.505C18.734 2.833 19.824 2.832 20.496 3.505C21.168 4.177 21.168 5.267 20.495 5.939L14.721 11.708C14.534 11.895 14.28 12 14.015 12H12V9.985C12 9.72 12.105 9.466 12.293 9.278L18.062 3.505V3.505ZM8 12H6H8ZM6 16H18H6Z"/></svg>