<svg width="24" height="24" viewBox="0 0 24 24" fill="none" xmlns="http://www.w3.org/2000/svg">
<g clip-path="url(#clip0_7337_861)">
<path d="M9 17H5C4.46957 17 3.96086 16.7893 3.58579 16.4142C3.21071 16.0391 3 15.5304 3 15V5C3 4.46957 3.21071 3.96086 3.58579 3.58579C3.96086 3.21071 4.46957 3 5 3H19C19.5304 3 20.0391 3.21071 20.4142 3.58579C20.7893 3.96086 21 4.46957 21 5V9" stroke="#68737D" stroke-width="1.5" stroke-linecap="round" stroke-linejoin="round"/>
<path d="M3 6L12 12L21 6" stroke="#68737D" stroke-width="1.5" stroke-linecap="round" stroke-linejoin="round"/>
<path d="M22.1667 17.5653C22.0418 16.6671 21.6251 15.8348 20.9808 15.1967C20.3364 14.5586 19.5001 14.1501 18.6007 14.034C17.7013 13.9179 16.7887 14.1008 16.0035 14.5545C15.2183 15.0081 14.6039 15.7073 14.2552 16.5445M14 14.5028V16.5445H16.0417" stroke="#68737D" stroke-width="1.5" stroke-linecap="round" stroke-linejoin="round"/>
<path d="M14 18.5862C14.1248 19.4844 14.5415 20.3166 15.1859 20.9547C15.8302 21.5928 16.6665 22.0014 17.5659 22.1174C18.4653 22.2335 19.3779 22.0506 20.1632 21.597C20.9484 21.1433 21.5627 20.4441 21.9115 19.607M22.1667 21.6487V19.607H20.125" stroke="#68737D" stroke-width="1.5" stroke-linecap="round" stroke-linejoin="round"/>
</g>
<defs>
<clipPath id="clip0_7337_861">
<rect width="24" height="24" fill="white"/>
</clipPath>
</defs>
</svg>
