<svg width="24" height="24" viewBox="0 0 24 24" fill="none" xmlns="http://www.w3.org/2000/svg">
<g clip-path="url(#clip0_7487_137)">
<path d="M13 19H5C4.46957 19 3.96086 18.7893 3.58579 18.4142C3.21071 18.0391 3 17.5304 3 17V7C3 6.46957 3.21071 5.96086 3.58579 5.58579C3.96086 5.21071 4.46957 5 5 5H19C19.5304 5 20.0391 5.21071 20.4142 5.58579C20.7893 5.96086 21 6.46957 21 7V10.5" stroke="#68737D" stroke-width="1.5" stroke-linecap="round" stroke-linejoin="round"/>
<path d="M3 7L12 13L21 7" stroke="#68737D" stroke-width="1.5" stroke-linecap="round" stroke-linejoin="round"/>
<path d="M18 15C18 14.7348 18.1054 14.4804 18.2929 14.2929C18.4804 14.1054 18.7348 14 19 14C19.2652 14 19.5196 14.1054 19.7071 14.2929C19.8946 14.4804 20 14.7348 20 15C20.5742 15.2715 21.0637 15.6942 21.416 16.2226C21.7683 16.7511 21.9702 17.3655 22 18V19.5C22.0376 19.8109 22.1477 20.1085 22.3214 20.3691C22.4951 20.6296 22.7275 20.8457 23 21H15C15.2725 20.8457 15.5049 20.6296 15.6786 20.3691C15.8523 20.1085 15.9624 19.8109 16 19.5V18C16.0298 17.3655 16.2317 16.7511 16.584 16.2226C16.9363 15.6942 17.4258 15.2715 18 15Z" stroke="#68737D" stroke-width="1.5" stroke-linecap="round" stroke-linejoin="round"/>
<path d="M17.5 21V21.5C17.5 21.8978 17.658 22.2794 17.9393 22.5607C18.2206 22.842 18.6022 23 19 23C19.3978 23 19.7794 22.842 20.0607 22.5607C20.342 22.2794 20.5 21.8978 20.5 21.5V21" stroke="#68737D" stroke-width="1.5" stroke-linecap="round" stroke-linejoin="round"/>
</g>
<defs>
<clipPath id="clip0_7487_137">
<rect width="24" height="24" fill="white"/>
</clipPath>
</defs>
</svg>
