<svg xmlns="http://www.w3.org/2000/svg" width="24" height="24" fill="none" viewBox="0 0 24 24"><path stroke="#68737D" stroke-linecap="round" stroke-linejoin="round" stroke-width="1.5" d="M3 6.28571C3 5.67951 3.21071 5.09812 3.58579 4.66947C3.96086 4.24082 4.46957 4 5 4H19C19.5304 4 20.0391 4.24082 20.4142 4.66947C20.7893 5.09812 21 5.67951 21 6.28571V17.7143C21 18.3205 20.7893 18.9019 20.4142 19.3305C20.0391 19.7592 19.5304 20 19 20H5C4.46957 20 3.96086 19.7592 3.58579 19.3305C3.21071 18.9019 3 18.3205 3 17.7143V6.28571Z"/><path stroke="#68737D" stroke-linecap="round" stroke-width="1.5" d="M14 7H17.8C17.9105 7 18 7.08954 18 7.2V11"/><path stroke="#68737D" stroke-linecap="round" stroke-width="1.5" d="M10 17H6.2C6.08954 17 6 16.9105 6 16.8V13"/></svg>