<svg xmlns="http://www.w3.org/2000/svg" width="24" height="24" fill="none" viewBox="0 0 24 24"><g clip-path="url(#clip0_7295_221)"><path stroke="#68737D" stroke-linecap="round" stroke-linejoin="round" stroke-width="1.5" d="M20.6025 9.35496C20.0344 7.50711 18.8863 5.89131 17.3283 4.74677C15.7703 3.60223 13.8851 2.9898 11.9519 3.00013C10.0187 3.01046 8.14021 3.64301 6.5945 4.80413C5.0488 5.96525 3.91806 7.59322 3.36968 9.44705C2.8213 11.3009 2.88442 13.282 3.5497 15.0972C4.21498 16.9123 5.44706 18.465 7.06354 19.5254C8.29307 20.3319 9.69528 20.821 11.1454 20.9593"/><path stroke="#68737D" stroke-linecap="round" stroke-linejoin="round" stroke-width="1.5" d="M3.59991 9.00067H20.3999"/><path stroke="#68737D" stroke-linecap="round" stroke-linejoin="round" stroke-width="1.5" d="M3.59991 15.0007H8.5"/><path stroke="#68737D" stroke-linecap="round" stroke-linejoin="round" stroke-width="1.5" d="M11.4999 3.00067C9.81525 5.70028 8.92212 8.81854 8.92212 12.0007C8.92212 15.1828 9.81525 18.3011 11.4999 21.0007"/><path stroke="#68737D" stroke-linecap="round" stroke-linejoin="round" stroke-width="1.5" d="M12.4999 3.00067C14.1981 5.71573 15.0809 8.83769 15.0778 12"/><circle cx="18" cy="18" r="4" stroke="#68737D" stroke-width="1.5"/><path stroke="#68737D" stroke-linecap="round" stroke-width="1.5" d="M16.5 18H19.5"/></g><defs><clipPath id="clip0_7295_221"><rect width="24" height="24" fill="#fff"/></clipPath></defs></svg>