<svg width="24" height="24" viewBox="0 0 24 24" fill="none" xmlns="http://www.w3.org/2000/svg">
<path d="M12 3C7.03945 3 3 7.03945 3 12C3 16.9605 7.03945 21 12 21C16.9605 21 21 16.9605 21 12C21 7.03945 16.9605 3 12 3ZM12 4.50117C16.152 4.50117 19.4988 7.85156 19.4988 12C19.4988 15.7723 16.732 18.8695 13.1145 19.4109V14.1867H15.252L15.5859 12.0176H13.1145V10.8328C13.1145 9.93281 13.4098 9.13125 14.2535 9.13125H15.607V7.23984C15.368 7.2082 14.8652 7.13789 13.916 7.13789C11.9297 7.13789 10.766 8.18555 10.766 10.5762V12.0176H8.72344V14.1867H10.766V19.3898C7.2082 18.8027 4.50117 15.7301 4.50117 12C4.50117 7.84805 7.84805 4.50117 12 4.50117Z" fill="#68737D"/>
</svg>
