<svg xmlns="http://www.w3.org/2000/svg" width="24" height="24" fill="none" viewBox="0 0 24 24"><g clip-path="url(#clip0_7338_875)"><path stroke="#68737D" stroke-linecap="round" stroke-linejoin="round" stroke-width="1.5" d="M20.5 10.6947L21.2521 9.96263C21.5492 9.67339 21.3854 9.16898 20.975 9.10951L15.3393 8.29273C15.1763 8.26912 15.0355 8.16682 14.9626 8.01918L12.4414 2.91052C12.258 2.5389 11.728 2.53889 11.5446 2.91052L9.02339 8.01918C8.95053 8.16682 8.80967 8.26912 8.64674 8.29273L3.01099 9.10951C2.60062 9.16898 2.43681 9.67339 2.73395 9.96263L6.81848 13.9385C6.93649 14.0534 6.99037 14.219 6.96252 14.3813L5.9993 19.9964C5.92923 20.4049 6.35797 20.7164 6.72479 20.5235L11 18.2758"/><path stroke="#68737D" stroke-linecap="round" stroke-linejoin="round" stroke-width="1.5" d="M17.9319 12C18.0431 12 18.1515 12.0354 18.2425 12.1012C18.3334 12.167 18.4024 12.2601 18.4399 12.3678L18.7142 13.1539C18.7577 13.2775 18.8422 13.3814 18.9528 13.4472L19.7664 13.9306C19.8769 13.9962 20.0064 14.0194 20.132 13.9961L20.931 13.8478C21.0405 13.8273 21.1535 13.8421 21.2545 13.8903C21.3555 13.9384 21.4395 14.0175 21.4952 14.1167L21.9271 14.8833C21.9829 14.9823 22.0076 15.0965 21.998 15.2105C21.9883 15.3244 21.9447 15.4325 21.8731 15.52L21.3489 16.1578C21.2663 16.2581 21.221 16.3852 21.2209 16.5167V17.4833C21.221 17.6148 21.2663 17.7419 21.3489 17.8422L21.8731 18.48C21.9447 18.5675 21.9883 18.6756 21.998 18.7895C22.0076 18.9035 21.9829 19.0177 21.9271 19.1167L21.4952 19.8833C21.4396 19.9824 21.3556 20.0614 21.2547 20.1096C21.1538 20.1577 21.0409 20.1726 20.9315 20.1522L20.1325 20.0039C20.007 19.9806 19.8775 20.0038 19.767 20.0694L18.9534 20.5528C18.8428 20.6186 18.7583 20.7225 18.7147 20.8461L18.4405 21.6322C18.4029 21.74 18.3338 21.8332 18.2428 21.899C18.1518 21.9648 18.0432 22.0001 17.9319 22H17.0681C16.9569 22 16.8485 21.9646 16.7575 21.8988C16.6666 21.833 16.5976 21.7399 16.5601 21.6322L16.2858 20.8461C16.2423 20.7227 16.158 20.6188 16.0477 20.5528L15.2336 20.0694C15.1231 20.0038 14.9936 19.9806 14.868 20.0039L14.069 20.1522C13.9595 20.1727 13.8465 20.1579 13.7455 20.1097C13.6445 20.0616 13.5605 19.9825 13.5048 19.8833L13.0729 19.1167C13.0171 19.0177 12.9924 18.9035 13.002 18.7895C13.0117 18.6756 13.0553 18.5675 13.1269 18.48L13.6511 17.8422C13.7337 17.7419 13.779 17.6148 13.7791 17.4833V16.5167C13.779 16.3852 13.7337 16.2581 13.6511 16.1578L13.1323 15.52C13.0607 15.4325 13.0171 15.3244 13.0074 15.2105C12.9978 15.0965 13.0225 14.9823 13.0783 14.8833L13.5102 14.1167C13.5658 14.0176 13.6498 13.9386 13.7507 13.8904C13.8516 13.8423 13.9645 13.8274 14.0739 13.8478L14.8729 13.9961C14.9984 14.0194 15.1279 13.9962 15.2384 13.9306L16.0526 13.4472C16.1629 13.3812 16.2471 13.2773 16.2907 13.1539L16.5649 12.3678C16.6022 12.2609 16.6704 12.1684 16.7604 12.1026C16.8504 12.0368 16.9577 12.001 17.0681 12H17.9319Z"/><path stroke="#68737D" stroke-linecap="round" stroke-linejoin="round" stroke-width="1.5" d="M17.5 18.5278C18.32 18.5278 18.9847 17.8438 18.9847 17C18.9847 16.1562 18.32 15.4722 17.5 15.4722C16.68 15.4722 16.0153 16.1562 16.0153 17C16.0153 17.8438 16.68 18.5278 17.5 18.5278Z"/></g><defs><clipPath id="clip0_7338_875"><rect width="24" height="24" fill="#fff"/></clipPath></defs></svg>