<svg width="24" height="24" viewBox="0 0 24 24" fill="none" xmlns="http://www.w3.org/2000/svg">
<g clip-path="url(#clip0_7880_44)">
<circle cx="12" cy="12" r="10" stroke="#68737D" stroke-width="1.5"/>
<path d="M10.896 14.806C10.896 14.4139 10.926 14.0463 10.9859 13.7032C11.0512 13.3601 11.171 13.0334 11.3453 12.7229C11.4923 12.4289 11.6639 12.192 11.8599 12.0123C12.0614 11.8271 12.2793 11.6474 12.5134 11.4731C12.753 11.2934 13.0036 11.0647 13.265 10.7869C13.4828 10.5473 13.6271 10.305 13.6979 10.0599C13.7741 9.81484 13.8123 9.55071 13.8123 9.26753C13.8123 9.06059 13.7878 8.86726 13.7387 8.68754C13.6897 8.50783 13.608 8.35262 13.4937 8.22192C13.3194 8.00408 13.0989 7.8516 12.832 7.76447C12.5652 7.67189 12.2874 7.6256 11.9988 7.6256C11.7374 7.6256 11.4869 7.66099 11.2473 7.73179C11.0131 7.80259 10.817 7.9115 10.6591 8.05854C10.4903 8.20014 10.365 8.37713 10.2833 8.58952C10.2071 8.79646 10.1717 9.02246 10.1771 9.26753H8.38C8.42357 8.75562 8.55427 8.27638 8.7721 7.82982C8.98994 7.38325 9.28402 7.0211 9.65434 6.74336C9.9702 6.49285 10.3296 6.30769 10.7326 6.18788C11.1356 6.06263 11.5386 6 11.9416 6C12.5189 6 13.0635 6.08986 13.5754 6.26957C14.0927 6.44929 14.523 6.74064 14.866 7.14363C15.1166 7.42682 15.3044 7.75085 15.4297 8.11573C15.5604 8.47515 15.6257 8.8482 15.6257 9.23485C15.6257 9.75221 15.5141 10.2315 15.2908 10.6726C15.073 11.1137 14.7925 11.5167 14.4494 11.8816C14.2697 12.0722 14.0873 12.2464 13.9021 12.4044C13.717 12.5568 13.5454 12.7066 13.3875 12.8536C13.2296 13.0007 13.0989 13.1613 12.9954 13.3356C12.8483 13.5861 12.7639 13.8121 12.7422 14.0136C12.7204 14.2097 12.7095 14.4738 12.7095 14.806H10.896ZM10.9042 18V16.0231H12.7095V18H10.9042Z" fill="#68737D"/>
</g>
<defs>
<clipPath id="clip0_7880_44">
<rect width="24" height="24" fill="white"/>
</clipPath>
</defs>
</svg>
