<svg width="24" height="24" viewBox="0 0 24 24" fill="none" xmlns="http://www.w3.org/2000/svg">
<g clip-path="url(#clip0_3261_3774)">
<path d="M7.32053 17.6341C8.6935 19.0182 10.5246 19.8532 12.4698 19.9824C14.4151 20.1116 16.3405 19.5261 17.8845 18.3358C19.4284 17.1455 20.4846 15.4324 20.8546 13.5183C21.2246 11.6042 20.8829 9.62091 19.8938 7.94097C18.9047 6.26103 17.3361 5.00009 15.4829 4.39505C13.6296 3.79 11.6192 3.88249 9.82937 4.65514C8.03951 5.42779 6.59338 6.82742 5.76266 8.59108C4.93194 10.3547 4.77382 12.3611 5.31799 14.2331" stroke="#68737D" stroke-width="1.5" stroke-linecap="round" stroke-linejoin="round"/>
<path d="M7.50138 12.0678L4.99066 14.5577L2.50076 12.047" stroke="#68737D" stroke-width="1.5" stroke-linecap="round" stroke-linejoin="round"/>
<path d="M12.5 8V12.5L15.5 15" stroke="#68737D" stroke-width="1.5" stroke-linecap="round"/>
</g>
<defs>
<clipPath id="clip0_3261_3774">
<rect width="24" height="24" fill="white"/>
</clipPath>
</defs>
</svg>
