<svg xmlns="http://www.w3.org/2000/svg" width="24" height="24" fill="none" viewBox="0 0 24 24"><path stroke="#68737D" stroke-width="1.5" d="M4 10.0643V19.4286C4 19.7442 4.25584 20 4.57143 20H9.42857C9.74416 20 10 19.7442 10 19.4286V14.5714C10 14.2558 10.2558 14 10.5714 14H13.4286C13.7442 14 14 14.2558 14 14.5714V19.4286C14 19.7442 14.2558 20 14.5714 20H19.4286C19.7442 20 20 19.7442 20 19.4286V10.0643C20 9.89661 19.9264 9.73743 19.7987 9.62886L12.3701 3.31457C12.1567 3.13319 11.8433 3.13319 11.6299 3.31457L4.20134 9.62886C4.07361 9.73743 4 9.89661 4 10.0643Z"/></svg>