<svg xmlns="http://www.w3.org/2000/svg" width="20" height="20" fill="none" viewBox="0 0 24 24"><path stroke="currentColor" stroke-linecap="round" stroke-linejoin="round" stroke-width="1.5" d="M7.41667 7.55556H16.5833M12 12C10.6739 12 9.40215 12.5619 8.46447 13.5621C7.52678 14.5623 7 15.9188 7 17.3333V19.1111C7 19.3469 7.0878 19.573 7.24408 19.7397C7.40036 19.9064 7.61232 20 7.83333 20H16.1667C16.3877 20 16.5996 19.9064 16.7559 19.7397C16.9122 19.573 17 19.3469 17 19.1111V17.3333C17 15.9188 16.4732 14.5623 15.5355 13.5621C14.5979 12.5619 13.3261 12 12 12ZM12 12C10.6739 12 9.40215 11.4381 8.46447 10.4379C7.52678 9.43771 7 8.08115 7 6.66667V4.88889C7 4.65314 7.0878 4.42705 7.24408 4.26035C7.40036 4.09365 7.61232 4 7.83333 4H16.1667C16.3877 4 16.5996 4.09365 16.7559 4.26035C16.9122 4.42705 17 4.65314 17 4.88889V6.66667C17 8.08115 16.4732 9.43771 15.5355 10.4379C14.5979 11.4381 13.3261 12 12 12Z"/></svg>