<svg xmlns="http://www.w3.org/2000/svg" width="24" height="24" fill="none" viewBox="0 0 24 24"><path stroke="#68737D" stroke-linecap="round" stroke-width="1.5" d="M13 5H17C18.1046 5 19 5.89543 19 7V13.5M5 12.5294V19C5 20.1046 5.89543 21 7 21H14"/><path stroke="#68737D" stroke-linecap="round" stroke-linejoin="round" stroke-width="1.5" d="M2 6C2 7.06087 2.42143 8.07828 3.17157 8.82843C3.92172 9.57857 4.93913 10 6 10C7.06087 10 8.07828 9.57857 8.82843 8.82843C9.57857 8.07828 10 7.06087 10 6C10 4.93913 9.57857 3.92172 8.82843 3.17157C8.07828 2.42143 7.06087 2 6 2C4.93913 2 3.92172 2.42143 3.17157 3.17157C2.42143 3.92172 2 4.93913 2 6Z"/><path stroke="#68737D" stroke-linecap="round" stroke-linejoin="round" stroke-width="1.5" d="M6 4V6H8"/><path stroke="#68737D" stroke-linecap="round" stroke-width="1.5" d="M11 10L15 10"/><path stroke="#68737D" stroke-linecap="round" stroke-width="1.5" d="M8 13L15 13"/><path stroke="#68737D" stroke-linecap="round" stroke-width="1.5" d="M8 16L13 16"/><path stroke="#68737D" stroke-linecap="round" stroke-linejoin="round" stroke-width="1.5" d="M17 20L19 22L21 20"/><path stroke="#68737D" stroke-linecap="round" stroke-linejoin="round" stroke-width="1.5" d="M19 16.5V21"/></svg>