<svg xmlns="http://www.w3.org/2000/svg" width="24" height="24" fill="none" viewBox="0 0 24 24"><g clip-path="url(#clip0_7495_502)"><path stroke="#68737D" stroke-linecap="round" stroke-linejoin="round" stroke-width="1.5" d="M9 20H4C3.46957 20 2.96086 19.7893 2.58579 19.4142C2.21071 19.0391 2 18.5304 2 18V6C2 5.46957 2.21071 4.96086 2.58579 4.58579C2.96086 4.21071 3.46957 4 4 4H16C16.5304 4 17.0391 4.21071 17.4142 4.58579C17.7893 4.96086 18 5.46957 18 6V10"/><path stroke="#68737D" stroke-linecap="round" stroke-linejoin="round" stroke-width="1.5" d="M14 2V6"/><path stroke="#68737D" stroke-linecap="round" stroke-linejoin="round" stroke-width="1.5" d="M6 2V6"/><path stroke="#68737D" stroke-linecap="round" stroke-linejoin="round" stroke-width="1.5" d="M2 10H18"/><path stroke="#68737D" stroke-linecap="round" stroke-linejoin="round" stroke-width="1.5" d="M15.999 13.0036C16.0577 13.0036 16.1159 13.0036 16.1737 13.0036C15.6027 13.5341 15.2357 14.2479 15.1365 15.021C15.0373 15.794 15.212 16.5774 15.6305 17.235C16.0489 17.8925 16.6845 18.3827 17.4269 18.6202C18.1692 18.8577 18.9713 18.8276 19.6937 18.5351C19.4158 19.2038 18.9616 19.7845 18.3796 20.2152C17.7975 20.646 17.1095 20.9107 16.3888 20.9811C15.6681 21.0514 14.9418 20.9249 14.2874 20.6148C13.633 20.3048 13.0751 19.823 12.6731 19.2207C12.2711 18.6184 12.0401 17.9183 12.0048 17.1951C11.9694 16.4718 12.1311 15.7526 12.4725 15.114C12.814 14.4754 13.3223 13.9415 13.9434 13.5692C14.5644 13.1969 15.2749 13.0002 15.999 13V13.0036Z"/></g><defs><clipPath id="clip0_7495_502"><rect width="24" height="24" fill="#fff"/></clipPath></defs></svg>