<svg xmlns="http://www.w3.org/2000/svg" width="24" height="24" fill="none" viewBox="0 0 24 24"><g clip-path="url(#clip0_7495_408)"><path stroke="#68737D" stroke-linecap="round" stroke-linejoin="round" stroke-width="1.5" d="M10.8856 7.62653V11.1807"/><path stroke="#68737D" stroke-linecap="round" stroke-linejoin="round" stroke-width="1.5" d="M11.5 17.3971H3.68209C3.38518 17.3937 3.09432 17.3127 2.83844 17.1621C2.58256 17.0115 2.37058 16.7965 2.22357 16.5385C2.07656 16.2805 1.99966 15.9885 2.00051 15.6916C2.00136 15.3947 2.07993 15.1032 2.22842 14.846L9.43103 2.82033C9.58257 2.57021 9.79605 2.3625 10.0508 2.21896C10.3056 2.07541 10.5932 2 10.8856 2C11.178 2 11.4656 2.07541 11.7203 2.21896C11.9751 2.3625 12.1886 2.56932 12.3402 2.81944L17.2391 11"/><path stroke="#68737D" stroke-linecap="round" stroke-linejoin="round" stroke-width="1.5" d="M10.8856 13.8464H10.8945"/><path stroke="#68737D" stroke-linecap="round" stroke-linejoin="round" stroke-width="1.5" d="M16.1311 18.8689C16.3541 19.0966 16.6204 19.2774 16.9142 19.4009C17.208 19.5244 17.5235 19.588 17.8422 19.588C18.1609 19.588 18.4764 19.5244 18.7703 19.4009C19.0641 19.2774 19.3303 19.0966 19.5534 18.8689L22.2912 16.1311C22.745 15.6773 23 15.0617 23 14.4199C23 13.7781 22.745 13.1626 22.2912 12.7088C21.8374 12.255 21.2219 12 20.5801 12C19.9383 12 19.3227 12.255 18.8689 12.7088L18.5267 13.051M18.8689 16.1311C18.6459 15.9034 18.3796 15.7226 18.0858 15.5991C17.792 15.4756 17.4765 15.412 17.1578 15.412C16.8391 15.412 16.5236 15.4756 16.2297 15.5991C15.9359 15.7226 15.6697 15.9034 15.4466 16.1311L12.7088 18.8689C12.255 19.3227 12 19.9383 12 20.5801C12 21.2219 12.255 21.8374 12.7088 22.2912C13.1626 22.745 13.7781 23 14.4199 23C15.0617 23 15.6773 22.745 16.1311 22.2912L16.4733 21.949"/></g><defs><clipPath id="clip0_7495_408"><rect width="24" height="24" fill="#fff"/></clipPath></defs></svg>