<svg xmlns="http://www.w3.org/2000/svg" width="24" height="24" fill="none" viewBox="0 0 24 24"><path stroke="#68737D" stroke-linecap="round" stroke-linejoin="round" stroke-width="1.5" d="M10 7H2.83333C2.3731 7 2 7.3731 2 7.83333V18.9358C2 19.1725 2.10062 19.398 2.27674 19.5561L4.36897 21.4337C4.7157 21.7449 5.25018 21.7113 5.5553 21.3593L6.4852 20.2863C6.77425 19.9528 7.27321 19.9025 7.62303 20.1716L9.42326 21.5564C9.75365 21.8105 10.221 21.7814 10.5173 21.4883L11.7473 20.2719C12.072 19.9508 12.5946 19.9508 12.9193 20.2719L14.0338 21.3741C14.3764 21.7129 14.934 21.6915 15.2496 21.3274L16.7964 19.5426C16.9277 19.3911 17 19.1973 17 18.9968V14.9924"/><path stroke="#68737D" stroke-linecap="round" stroke-linejoin="round" stroke-width="1.5" d="M17.9319 2C18.0431 2.00002 18.1515 2.03535 18.2425 2.10118C18.3334 2.167 18.4024 2.26011 18.4399 2.36778L18.7142 3.15389C18.7577 3.27751 18.8422 3.38137 18.9528 3.44722L19.7664 3.93056C19.8769 3.99615 20.0064 4.01938 20.132 3.99611L20.931 3.84778C21.0405 3.82729 21.1535 3.84213 21.2545 3.89026C21.3555 3.93839 21.4395 4.01747 21.4952 4.11667L21.9271 4.88333C21.9829 4.98227 22.0076 5.09651 21.998 5.21046C21.9883 5.3244 21.9447 5.43251 21.8731 5.52L21.3489 6.15778C21.2663 6.25807 21.221 6.38523 21.2209 6.51667V7.48333C21.221 7.61477 21.2663 7.74193 21.3489 7.84222L21.8731 8.48C21.9447 8.56749 21.9883 8.6756 21.998 8.78955C22.0076 8.90349 21.9829 9.01773 21.9271 9.11667L21.4952 9.88333C21.4396 9.98243 21.3556 10.0614 21.2547 10.1096C21.1538 10.1577 21.0409 10.1726 20.9315 10.1522L20.1325 10.0039C20.007 9.98062 19.8775 10.0038 19.767 10.0694L18.9534 10.5528C18.8428 10.6186 18.7583 10.7225 18.7147 10.8461L18.4405 11.6322C18.4029 11.74 18.3338 11.8332 18.2428 11.899C18.1518 11.9648 18.0432 12.0001 17.9319 12H17.0681C16.9569 12 16.8485 11.9646 16.7575 11.8988C16.6666 11.833 16.5976 11.7399 16.5601 11.6322L16.2858 10.8461C16.2423 10.7227 16.158 10.6188 16.0477 10.5528L15.2336 10.0694C15.1231 10.0038 14.9936 9.98062 14.868 10.0039L14.069 10.1522C13.9595 10.1727 13.8465 10.1579 13.7455 10.1097C13.6445 10.0616 13.5605 9.98253 13.5048 9.88333L13.0729 9.11667C13.0171 9.01773 12.9924 8.90349 13.002 8.78955C13.0117 8.6756 13.0553 8.56749 13.1269 8.48L13.6511 7.84222C13.7337 7.74193 13.779 7.61477 13.7791 7.48333V6.51667C13.779 6.38523 13.7337 6.25807 13.6511 6.15778L13.1323 5.52C13.0607 5.43251 13.0171 5.3244 13.0074 5.21046C12.9978 5.09651 13.0225 4.98227 13.0783 4.88333L13.5102 4.11667C13.5658 4.01757 13.6498 3.93856 13.7507 3.89044C13.8516 3.84231 13.9645 3.82741 14.0739 3.84778L14.8729 3.99611C14.9984 4.01938 15.1279 3.99615 15.2384 3.93056L16.0526 3.44722C16.1629 3.38116 16.2471 3.27735 16.2907 3.15389L16.5649 2.36778C16.6022 2.26091 16.6704 2.16836 16.7604 2.10261C16.8504 2.03685 16.9577 2.00104 17.0681 2H17.9319Z"/><path stroke="#68737D" stroke-linecap="round" stroke-linejoin="round" stroke-width="1.5" d="M17.5 8.52778C18.32 8.52778 18.9847 7.84377 18.9847 7C18.9847 6.15623 18.32 5.47222 17.5 5.47222C16.68 5.47222 16.0153 6.15623 16.0153 7C16.0153 7.84377 16.68 8.52778 17.5 8.52778Z"/><path stroke="#68737D" stroke-linecap="round" stroke-linejoin="round" stroke-width="1.5" d="M11.5 10.875H9.3125C8.9644 10.875 8.63056 11.0133 8.38442 11.2594C8.13828 11.5056 8 11.8394 8 12.1875C8 12.5356 8.13828 12.8694 8.38442 13.1156C8.63056 13.3617 8.9644 13.5 9.3125 13.5H10.1875C10.5356 13.5 10.8694 13.6383 11.1156 13.8844C11.3617 14.1306 11.5 14.4644 11.5 14.8125C11.5 15.1606 11.3617 15.4944 11.1156 15.7406C10.8694 15.9867 10.5356 16.125 10.1875 16.125H8"/><path stroke="#68737D" stroke-linecap="round" stroke-linejoin="round" stroke-width="1.5" d="M9.75 16.125V17M9.75 10V10.875"/></svg>