<svg xmlns="http://www.w3.org/2000/svg" width="24" height="24" fill="none" viewBox="0 0 24 24"><g clip-path="url(#clip0_7295_300)"><path stroke="#68737D" stroke-linecap="round" stroke-linejoin="round" stroke-width="1.5" d="M11.5 21H7C6.46957 21 5.96086 20.7893 5.58579 20.4142C5.21071 20.0391 5 19.5304 5 19V13C5 12.4696 5.21071 11.9609 5.58579 11.5858C5.96086 11.2107 6.46957 11 7 11H17"/><path stroke="#68737D" stroke-linecap="round" stroke-linejoin="round" stroke-width="1.5" d="M8 11V7C8 5.93913 8.42143 4.92172 9.17157 4.17157C9.92172 3.42143 10.9391 3 12 3C13.0609 3 14.0783 3.42143 14.8284 4.17157C15.5786 4.92172 16 5.93913 16 7V11"/><path stroke="#68737D" stroke-linecap="round" stroke-linejoin="round" stroke-width="1.5" d="M17.5 14C18.5382 14.9185 19.8931 15.3967 21.2778 15.3333C21.4794 16.0191 21.5411 16.7384 21.4592 17.4485C21.3773 18.1586 21.1535 18.845 20.8011 19.4669C20.4487 20.0888 19.9748 20.6335 19.4078 21.0687C18.8407 21.5038 18.1919 21.8205 17.5 22C16.8081 21.8205 16.1593 21.5038 15.5922 21.0687C15.0252 20.6335 14.5513 20.0888 14.1989 19.4669C13.8465 18.845 13.6227 18.1586 13.5408 17.4485C13.4589 16.7384 13.5206 16.0191 13.7222 15.3333C15.1069 15.3967 16.4619 14.9185 17.5 14Z"/><path stroke="#68737D" stroke-linecap="round" stroke-linejoin="round" stroke-width="1.5" d="M16.5 18.3333L17.3333 19.1667L19 17.5"/></g><defs><clipPath id="clip0_7295_300"><rect width="24" height="24" fill="#fff"/></clipPath></defs></svg>