<svg xmlns="http://www.w3.org/2000/svg" width="24" height="24" fill="none" viewBox="0 0 24 24"><path stroke="#87929D" stroke-linecap="round" stroke-linejoin="round" stroke-width="1.5" d="M7.5 10.875V16.5M7.5 7.5V7.51125M12 16.5V10.875M16.5 16.5V13.125C16.5 12.5283 16.2629 11.956 15.841 11.534C15.419 11.1121 14.8467 10.875 14.25 10.875C13.6533 10.875 13.081 11.1121 12.659 11.534C12.2371 11.956 12 12.5283 12 13.125M5.25 3H18.75C19.9926 3 21 4.00736 21 5.25V18.75C21 19.9926 19.9926 21 18.75 21H5.25C4.00736 21 3 19.9926 3 18.75V5.25C3 4.00736 4.00736 3 5.25 3Z"/></svg>