<svg xmlns="http://www.w3.org/2000/svg" width="24" height="24" fill="none" viewBox="0 0 24 24"><g clip-path="url(#clip0_7363_1302)"><path stroke="#68737D" stroke-linecap="round" stroke-linejoin="round" stroke-width="1.5" d="M13 19H5C4.46957 19 3.96086 18.7893 3.58579 18.4142C3.21071 18.0391 3 17.5304 3 17V7C3 6.46957 3.21071 5.96086 3.58579 5.58579C3.96086 5.21071 4.46957 5 5 5H19C19.5304 5 20.0391 5.21071 20.4142 5.58579C20.7893 5.96086 21 6.46957 21 7V10.5"/><path stroke="#68737D" stroke-linecap="round" stroke-linejoin="round" stroke-width="1.5" d="M3 7L12 13L21 7"/><path stroke="#68737D" stroke-linecap="round" stroke-linejoin="round" stroke-width="1.5" d="M16 17.4286C16 17.2013 16.0903 16.9833 16.2511 16.8225C16.4118 16.6618 16.6298 16.5715 16.8571 16.5715H21.1429C21.3702 16.5715 21.5882 16.6618 21.7489 16.8225C21.9097 16.9833 22 17.2013 22 17.4286V20C22 20.2274 21.9097 20.4454 21.7489 20.6061C21.5882 20.7669 21.3702 20.8572 21.1429 20.8572H16.8571C16.6298 20.8572 16.4118 20.7669 16.2511 20.6061C16.0903 20.4454 16 20.2274 16 20V17.4286Z"/><path stroke="#68737D" stroke-linecap="round" stroke-linejoin="round" stroke-width="1.5" d="M17.2857 16.5715V14.8572C17.2857 14.4025 17.4663 13.9665 17.7878 13.645C18.1093 13.3235 18.5453 13.1429 19 13.1429C19.4547 13.1429 19.8907 13.3235 20.2122 13.645C20.5337 13.9665 20.7143 14.4025 20.7143 14.8572V16.5715"/></g><defs><clipPath id="clip0_7363_1302"><rect width="24" height="24" fill="#fff"/></clipPath></defs></svg>