<svg xmlns="http://www.w3.org/2000/svg" width="24" height="24" fill="none" viewBox="0 0 24 24"><g clip-path="url(#clip0_7294_207)"><path stroke="#68737D" stroke-linecap="round" stroke-width="1.5" d="M10 21H7C5.89543 21 5 20.1046 5 19V5C5 3.89543 5.89543 3 7 3H14.1716C14.702 3 15.2107 3.21071 15.5858 3.58579L18.4142 6.41421C18.7893 6.78929 19 7.29799 19 7.82843V11"/><path stroke="#68737D" stroke-linecap="round" stroke-linejoin="round" stroke-width="1.5" d="M9 8H15"/><path stroke="#68737D" stroke-linecap="round" stroke-linejoin="round" stroke-width="1.5" d="M9 11H15"/><path stroke="#68737D" stroke-linecap="round" stroke-linejoin="round" stroke-width="1.5" d="M15.6625 13.6585C15.8755 12.7805 17.1245 12.7805 17.3375 13.6585C17.3695 13.7904 17.4321 13.9129 17.5204 14.016C17.6086 14.1191 17.7199 14.1999 17.8453 14.2519C17.9707 14.3038 18.1066 14.3254 18.2419 14.3149C18.3772 14.3044 18.5081 14.2622 18.624 14.1915C19.3955 13.7215 20.279 14.6045 19.809 15.3765C19.7384 15.4923 19.6962 15.6232 19.6858 15.7584C19.6753 15.8936 19.6969 16.0294 19.7488 16.1547C19.8006 16.28 19.8814 16.3913 19.9844 16.4795C20.0874 16.5678 20.2097 16.6305 20.3415 16.6625C21.2195 16.8755 21.2195 18.1245 20.3415 18.3375C20.2096 18.3695 20.0871 18.4321 19.984 18.5204C19.8809 18.6086 19.8001 18.7199 19.7481 18.8453C19.6962 18.9707 19.6746 19.1066 19.6851 19.2419C19.6956 19.3772 19.7378 19.5081 19.8085 19.624C20.2785 20.3955 19.3955 21.279 18.6235 20.809C18.5077 20.7384 18.3768 20.6962 18.2416 20.6858C18.1064 20.6753 17.9706 20.6969 17.8453 20.7488C17.72 20.8006 17.6087 20.8814 17.5205 20.9844C17.4322 21.0874 17.3695 21.2097 17.3375 21.3415C17.1245 22.2195 15.8755 22.2195 15.6625 21.3415C15.6305 21.2096 15.5679 21.0871 15.4796 20.984C15.3914 20.8809 15.2801 20.8001 15.1547 20.7481C15.0293 20.6962 14.8934 20.6746 14.7581 20.6851C14.6228 20.6956 14.4919 20.7378 14.376 20.8085C13.6045 21.2785 12.721 20.3955 13.191 19.6235C13.2616 19.5077 13.3038 19.3768 13.3142 19.2416C13.3247 19.1064 13.3031 18.9706 13.2512 18.8453C13.1994 18.72 13.1186 18.6087 13.0156 18.5205C12.9126 18.4322 12.7903 18.3695 12.6585 18.3375C11.7805 18.1245 11.7805 16.8755 12.6585 16.6625C12.7904 16.6305 12.9129 16.5679 13.016 16.4796C13.1191 16.3914 13.1999 16.2801 13.2519 16.1547C13.3038 16.0293 13.3254 15.8934 13.3149 15.7581C13.3044 15.6228 13.2622 15.4919 13.1915 15.376C12.7215 14.6045 13.6045 13.721 14.3765 14.191C14.8765 14.495 15.5245 14.226 15.6625 13.6585Z"/><path stroke="#68737D" stroke-linecap="round" stroke-linejoin="round" stroke-width="1.5" d="M15.2727 17.5C15.2727 17.8255 15.402 18.1377 15.6322 18.3678C15.8623 18.598 16.1745 18.7273 16.5 18.7273C16.8255 18.7273 17.1376 18.598 17.3678 18.3678C17.598 18.1377 17.7273 17.8255 17.7273 17.5C17.7273 17.1745 17.598 16.8623 17.3678 16.6322C17.1376 16.402 16.8255 16.2727 16.5 16.2727C16.1745 16.2727 15.8623 16.402 15.6322 16.6322C15.402 16.8623 15.2727 17.1745 15.2727 17.5Z"/></g><defs><clipPath id="clip0_7294_207"><rect width="24" height="24" fill="#fff"/></clipPath></defs></svg>