<svg xmlns="http://www.w3.org/2000/svg" width="20" height="20" fill="none" viewBox="0 0 24 24"><path stroke="currentColor" stroke-linecap="round" stroke-linejoin="round" stroke-width="1.5" d="M5 14C3.895 14 3 13.105 3 12C3 10.895 3.895 10 5 10C6.105 10 7 10.895 7 12C7 13.105 6.105 14 5 14ZM12 14C10.895 14 10 13.105 10 12C10 10.895 10.895 10 12 10C13.105 10 14 10.895 14 12C14 13.105 13.105 14 12 14ZM19 14C17.895 14 17 13.105 17 12C17 10.895 17.895 10 19 10C20.105 10 21 10.895 21 12C21 13.105 20.105 14 19 14ZM5 21C3.895 21 3 20.105 3 19C3 17.895 3.895 17 5 17C6.105 17 7 17.895 7 19C7 20.105 6.105 21 5 21ZM12 21C10.895 21 10 20.105 10 19C10 17.895 10.895 17 12 17C13.105 17 14 17.895 14 19C14 20.105 13.105 21 12 21ZM19 21C17.895 21 17 20.105 17 19C17 17.895 17.895 17 19 17C20.105 17 21 17.895 21 19C21 20.105 20.105 21 19 21ZM5 7C3.895 7 3 6.105 3 5C3 3.895 3.895 3 5 3C6.105 3 7 3.895 7 5C7 6.105 6.105 7 5 7ZM12 7C10.895 7 10 6.105 10 5C10 3.895 10.895 3 12 3C13.105 3 14 3.895 14 5C14 6.105 13.105 7 12 7ZM19 7C17.895 7 17 6.105 17 5C17 3.895 17.895 3 19 3C20.105 3 21 3.895 21 5C21 6.105 20.105 7 19 7Z"/></svg>