<svg xmlns="http://www.w3.org/2000/svg" width="24" height="24" fill="none" viewBox="0 0 24 24"><path fill="#68737D" stroke="#68737D" stroke-linecap="round" stroke-linejoin="round" stroke-width="1.5" d="M12 13C12.5523 13 13 12.5523 13 12C13 11.4477 12.5523 11 12 11C11.4477 11 11 11.4477 11 12C11 12.5523 11.4477 13 12 13Z"/><path fill="#68737D" stroke="#68737D" stroke-linecap="round" stroke-linejoin="round" stroke-width="1.5" d="M18 13C18.5523 13 19 12.5523 19 12C19 11.4477 18.5523 11 18 11C17.4477 11 17 11.4477 17 12C17 12.5523 17.4477 13 18 13Z"/><path fill="#68737D" stroke="#68737D" stroke-linecap="round" stroke-linejoin="round" stroke-width="1.5" d="M6 13C6.55228 13 7 12.5523 7 12C7 11.4477 6.55228 11 6 11C5.44772 11 5 11.4477 5 12C5 12.5523 5.44772 13 6 13Z"/></svg>