<svg xmlns="http://www.w3.org/2000/svg" width="24" height="24" fill="none" viewBox="0 0 24 24"><g clip-path="url(#clip0_7374_1526)"><path stroke="#68737D" stroke-linecap="round" stroke-linejoin="round" stroke-width="1.5" d="M13.0339 16.2034H3.05085C2.77215 16.2034 2.50486 16.0927 2.30779 15.8956C2.11071 15.6985 2 15.4312 2 15.1525V4.64405C2 4.36535 2.11071 4.09806 2.30779 3.90099C2.50486 3.70391 2.77215 3.5932 3.05085 3.5932H19.8644C20.1431 3.5932 20.4104 3.70391 20.6075 3.90099C20.8045 4.09806 20.9153 4.36535 20.9153 4.64405V5.16947"/><path stroke="#68737D" stroke-linecap="round" stroke-linejoin="round" stroke-width="1.5" d="M9 20L13 20"/><path stroke="#68737D" stroke-linecap="round" stroke-linejoin="round" stroke-width="1.5" d="M11 16.2034V19.4068"/><path stroke="#68737D" stroke-linecap="round" stroke-linejoin="round" stroke-width="1.5" d="M14.9604 9.081C14.9604 8.74036 15.0958 8.41368 15.3366 8.17281C15.5775 7.93195 15.9042 7.79663 16.2448 7.79663H21.3823C21.7229 7.79663 22.0496 7.93195 22.2905 8.17281C22.5313 8.41368 22.6667 8.74036 22.6667 9.081V18.0716C22.6667 18.4122 22.5313 18.7389 22.2905 18.9798C22.0496 19.2206 21.7229 19.356 21.3823 19.356H16.2448C15.9042 19.356 15.5775 19.2206 15.3366 18.9798C15.0958 18.7389 14.9604 18.4122 14.9604 18.0716V9.081Z"/><path stroke="#68737D" stroke-linecap="round" stroke-linejoin="round" stroke-width="1.5" d="M18.0429 8.5672H19.5842"/></g><defs><clipPath id="clip0_7374_1526"><rect width="24" height="24" fill="#fff"/></clipPath></defs></svg>