<svg width="24" height="24" viewBox="0 0 24 24" fill="none" xmlns="http://www.w3.org/2000/svg">
<path d="M16.5675 3C16.6705 3.00002 16.7709 3.03182 16.8552 3.09106C16.9394 3.1503 17.0032 3.2341 17.038 3.331L17.292 4.0385C17.3324 4.14976 17.4106 4.24324 17.513 4.3025L18.2665 4.7375C18.3689 4.79654 18.4888 4.81744 18.605 4.7965L19.345 4.663C19.4464 4.64456 19.5511 4.65791 19.6446 4.70123C19.7382 4.74455 19.816 4.81572 19.8675 4.905L20.2675 5.595C20.3192 5.68404 20.3421 5.78686 20.3332 5.88941C20.3242 5.99196 20.2838 6.08926 20.2175 6.168L19.732 6.742C19.6556 6.83226 19.6136 6.94671 19.6135 7.065V7.935C19.6136 8.05329 19.6556 8.16774 19.732 8.258L20.2175 8.832C20.2838 8.91074 20.3242 9.00804 20.3332 9.11059C20.3421 9.21314 20.3192 9.31596 20.2675 9.405L19.8675 10.095C19.816 10.1842 19.7383 10.2553 19.6448 10.2986C19.5514 10.3419 19.4469 10.3553 19.3455 10.337L18.6055 10.2035C18.4893 10.1826 18.3694 10.2035 18.267 10.2625L17.5135 10.6975C17.4111 10.7568 17.3329 10.8502 17.2925 10.9615L17.0385 11.669C17.0037 11.766 16.9398 11.8498 16.8554 11.9091C16.7711 11.9683 16.6706 12.0001 16.5675 12H15.7675C15.6646 12 15.5641 11.9682 15.4799 11.9089C15.3957 11.8497 15.3318 11.7659 15.297 11.669L15.043 10.9615C15.0027 10.8504 14.9247 10.757 14.8225 10.6975L14.0685 10.2625C13.9662 10.2035 13.8463 10.1826 13.73 10.2035L12.99 10.337C12.8886 10.3554 12.784 10.3421 12.6905 10.2988C12.5969 10.2554 12.5191 10.1843 12.4675 10.095L12.0675 9.405C12.0159 9.31596 11.9929 9.21314 12.0019 9.11059C12.0108 9.00804 12.0512 8.91074 12.1175 8.832L12.603 8.258C12.6795 8.16774 12.7215 8.05329 12.7215 7.935V7.065C12.7215 6.94671 12.6795 6.83226 12.603 6.742L12.1225 6.168C12.0562 6.08926 12.0158 5.99196 12.0069 5.88941C11.9979 5.78686 12.0209 5.68404 12.0725 5.595L12.4725 4.905C12.524 4.81582 12.6018 4.74471 12.6952 4.70139C12.7887 4.65808 12.8932 4.64467 12.9945 4.663L13.7345 4.7965C13.8508 4.81744 13.9707 4.79654 14.073 4.7375L14.827 4.3025C14.9292 4.24305 15.0072 4.14961 15.0475 4.0385L15.3015 3.331C15.3361 3.23482 15.3993 3.15153 15.4826 3.09235C15.5659 3.03316 15.6653 3.00094 15.7675 3H16.5675Z" stroke="#68737D" stroke-width="1.5" stroke-linecap="round" stroke-linejoin="round"/>
<path d="M16.1675 8.875C16.9269 8.875 17.5425 8.25939 17.5425 7.5C17.5425 6.74061 16.9269 6.125 16.1675 6.125C15.4081 6.125 14.7925 6.74061 14.7925 7.5C14.7925 8.25939 15.4081 8.875 16.1675 8.875Z" stroke="#68737D" stroke-width="1.5" stroke-linecap="round" stroke-linejoin="round"/>
<rect x="2" y="12" width="3" height="8" rx="1" stroke="#68737D" stroke-width="1.5"/>
<path d="M5.5 13L7.86164 12.2128C8.26741 12.0775 8.71177 12.1235 9.08123 12.3391L13.2197 14.7531C13.9242 15.1641 14.157 16.0716 13.7374 16.771V16.771C13.3276 17.454 12.4471 17.6841 11.7556 17.2889L9.5 16" stroke="#68737D" stroke-width="1.5" stroke-linecap="round"/>
<path d="M14 17L19.0915 15.825C19.8901 15.6407 20.6979 16.0938 20.9571 16.8714V16.8714C21.25 17.7499 20.7329 18.6918 19.8345 18.9164L12.2597 20.8101C11.7695 20.9326 11.2516 20.8758 10.7996 20.6498L7.28636 18.8932C6.78286 18.6414 6.19998 18.6 5.66595 18.778L5 19" stroke="#68737D" stroke-width="1.5" stroke-linecap="round"/>
</svg>
