<svg width="24" height="24" viewBox="0 0 24 24" fill="none" xmlns="http://www.w3.org/2000/svg">
<g clip-path="url(#clip0_7869_32)">
<path d="M5 7C5 8.06087 5.42143 9.07828 6.17157 9.82843C6.92172 10.5786 7.93913 11 9 11C10.0609 11 11.0783 10.5786 11.8284 9.82843C12.5786 9.07828 13 8.06087 13 7C13 5.93913 12.5786 4.92172 11.8284 4.17157C11.0783 3.42143 10.0609 3 9 3C7.93913 3 6.92172 3.42143 6.17157 4.17157C5.42143 4.92172 5 5.93913 5 7Z" stroke="#68737D" stroke-width="1.5" stroke-linecap="round" stroke-linejoin="round"/>
<path d="M3 21V19C3 17.9391 3.42143 16.9217 4.17157 16.1716C4.92172 15.4214 5.93913 15 7 15H11" stroke="#68737D" stroke-width="1.5" stroke-linecap="round" stroke-linejoin="round"/>
<path d="M18.9319 13C19.0431 13 19.1515 13.0354 19.2425 13.1012C19.3334 13.167 19.4024 13.2601 19.4399 13.3678L19.7142 14.1539C19.7577 14.2775 19.8422 14.3814 19.9528 14.4472L20.7664 14.9306C20.8769 14.9962 21.0064 15.0194 21.132 14.9961L21.931 14.8478C22.0405 14.8273 22.1535 14.8421 22.2545 14.8903C22.3555 14.9384 22.4395 15.0175 22.4952 15.1167L22.9271 15.8833C22.9829 15.9823 23.0076 16.0965 22.998 16.2105C22.9883 16.3244 22.9447 16.4325 22.8731 16.52L22.3489 17.1578C22.2663 17.2581 22.221 17.3852 22.2209 17.5167V18.4833C22.221 18.6148 22.2663 18.7419 22.3489 18.8422L22.8731 19.48C22.9447 19.5675 22.9883 19.6756 22.998 19.7895C23.0076 19.9035 22.9829 20.0177 22.9271 20.1167L22.4952 20.8833C22.4396 20.9824 22.3556 21.0614 22.2547 21.1096C22.1538 21.1577 22.0409 21.1726 21.9315 21.1522L21.1325 21.0039C21.007 20.9806 20.8775 21.0038 20.767 21.0694L19.9534 21.5528C19.8428 21.6186 19.7583 21.7225 19.7147 21.8461L19.4405 22.6322C19.4029 22.74 19.3338 22.8331 19.2428 22.899C19.1518 22.9648 19.0432 23.0001 18.9319 23H18.0681C17.9569 23 17.8485 22.9646 17.7575 22.8988C17.6666 22.833 17.5976 22.7399 17.5601 22.6322L17.2858 21.8461C17.2423 21.7227 17.158 21.6188 17.0477 21.5528L16.2336 21.0694C16.1231 21.0038 15.9936 20.9806 15.868 21.0039L15.069 21.1522C14.9595 21.1727 14.8465 21.1579 14.7455 21.1097C14.6445 21.0616 14.5605 20.9825 14.5048 20.8833L14.0729 20.1167C14.0171 20.0177 13.9924 19.9035 14.002 19.7895C14.0117 19.6756 14.0553 19.5675 14.1269 19.48L14.6511 18.8422C14.7337 18.7419 14.779 18.6148 14.7791 18.4833V17.5167C14.779 17.3852 14.7337 17.2581 14.6511 17.1578L14.1323 16.52C14.0607 16.4325 14.0171 16.3244 14.0074 16.2105C13.9978 16.0965 14.0225 15.9823 14.0783 15.8833L14.5102 15.1167C14.5658 15.0176 14.6498 14.9386 14.7507 14.8904C14.8516 14.8423 14.9645 14.8274 15.0739 14.8478L15.8729 14.9961C15.9984 15.0194 16.1279 14.9962 16.2384 14.9306L17.0526 14.4472C17.1629 14.3812 17.2471 14.2773 17.2907 14.1539L17.5649 13.3678C17.6022 13.2609 17.6704 13.1684 17.7604 13.1026C17.8504 13.0368 17.9577 13.001 18.0681 13H18.9319Z" stroke="#68737D" stroke-width="1.5" stroke-linecap="round" stroke-linejoin="round"/>
<path d="M18.5 19.5278C19.32 19.5278 19.9847 18.8438 19.9847 18C19.9847 17.1562 19.32 16.4722 18.5 16.4722C17.68 16.4722 17.0153 17.1562 17.0153 18C17.0153 18.8438 17.68 19.5278 18.5 19.5278Z" stroke="#68737D" stroke-width="1.5" stroke-linecap="round" stroke-linejoin="round"/>
</g>
<defs>
<clipPath id="clip0_7869_32">
<rect width="24" height="24" fill="white"/>
</clipPath>
</defs>
</svg>
