<svg xmlns="http://www.w3.org/2000/svg" width="24" height="24" fill="none" viewBox="0 0 24 24"><path stroke="#68737D" stroke-linecap="round" stroke-linejoin="round" stroke-width="1.5" d="M3 5C3 4.46957 3.21071 3.96086 3.58579 3.58579C3.96086 3.21071 4.46957 3 5 3H19C19.5304 3 20.0391 3.21071 20.4142 3.58579C20.7893 3.96086 21 4.46957 21 5V19C21 19.5304 20.7893 20.0391 20.4142 20.4142C20.0391 20.7893 19.5304 21 19 21H5C4.46957 21 3.96086 20.7893 3.58579 20.4142C3.21071 20.0391 3 19.5304 3 19V5Z"/><path stroke="#68737D" stroke-linecap="round" stroke-width="1.5" d="M11 6L18 6"/><path stroke="#68737D" stroke-linecap="round" stroke-width="1.5" d="M3 9L20 9"/><path stroke="#68737D" stroke-linecap="round" stroke-width="1.5" d="M6 6L8 6"/><path stroke="#68737D" stroke-linecap="round" stroke-width="1.5" d="M6 18L8 18"/><path stroke="#68737D" stroke-linecap="round" stroke-width="1.5" d="M11 18L13 18"/><path stroke="#68737D" stroke-linecap="round" stroke-width="1.5" d="M16 18L18 18"/></svg>