<svg xmlns="http://www.w3.org/2000/svg" width="20" height="20" fill="none" viewBox="0 0 24 24"><path stroke="currentColor" stroke-linecap="round" stroke-linejoin="round" stroke-width="1.5" d="M18.75 11.0001H21.08M10.048 13.8691C8.87804 12.6991 7.99604 11.3891 7.41004 10.0601C7.28604 9.77908 7.35904 9.45008 7.57604 9.23308L8.39504 8.41408C9.06604 7.74308 9.06604 6.79408 8.48004 6.20808L7.30604 5.03508C6.52504 4.25408 5.25904 4.25408 4.47804 5.03508L3.82604 5.68608C3.08504 6.42708 2.77604 7.49608 2.97604 8.55608C3.47004 11.1691 4.98804 14.0301 7.43704 16.4791C9.88604 18.9281 12.747 20.4461 15.36 20.9401C16.42 21.1401 17.489 20.8311 18.23 20.0901L18.881 19.4391C19.662 18.6581 19.662 17.3921 18.881 16.6111L17.708 15.4381C17.122 14.8521 16.172 14.8521 15.587 15.4381L14.684 16.3421C14.467 16.5591 14.138 16.6321 13.857 16.5081C12.528 15.9211 11.218 15.0381 10.048 13.8691V13.8691ZM12.92 5.17008V2.83008V5.17008ZM17.09 6.82008L18.74 5.18008L17.09 6.82008Z"/></svg>