<svg width="24" height="24" viewBox="0 0 24 24" fill="none" xmlns="http://www.w3.org/2000/svg">
<path d="M2 7C2 6.44772 2.44772 6 3 6H17.4648C17.7992 6 18.1114 6.1671 18.2969 6.4453L21.6302 11.4453C21.8541 11.7812 21.8541 12.2188 21.6302 12.5547L18.2969 17.5547C18.1114 17.8329 17.7992 18 17.4648 18H3C2.44772 18 2 17.5523 2 17V7Z" stroke="#68737D" stroke-width="1.5"/>
<path d="M5.5 12.5L6.78787 13.7879C6.90503 13.905 7.09497 13.905 7.21213 13.7879L10 11" stroke="#68737D" stroke-width="1.5" stroke-linecap="round"/>
<path d="M15 6L18.9974 11.9961C18.999 11.9985 18.999 12.0015 18.9974 12.0039L15 18" stroke="#68737D" stroke-width="1.5" stroke-linecap="round"/>
<path d="M12 6L15.9974 11.9961C15.999 11.9985 15.999 12.0015 15.9974 12.0039L12 18" stroke="#68737D" stroke-width="1.5" stroke-linecap="round"/>
</svg>
