<svg xmlns="http://www.w3.org/2000/svg" width="24" height="24" fill="none" viewBox="0 0 24 24"><path stroke="#68737D" stroke-linecap="round" stroke-width="1.5" d="M6.2245 12.7583H11.7718M6.2245 15.347H11.7718M6.2245 17.9357H11.7718M11.3515 22.0037H3.91314C3.14722 22.0037 2.52632 21.3828 2.52632 20.6169V10.4711C2.52632 10.1562 2.6335 9.85069 2.83022 9.60479L5.80811 5.88242C6.07129 5.55344 6.46974 5.36194 6.89103 5.36194H14.0831C14.849 5.36194 15.4699 5.98284 15.4699 6.74875V12.5902"/><path stroke="#68737D" stroke-linecap="round" stroke-width="1.5" d="M19 12.5902V3.38682C19 2.6209 18.3791 2 17.6132 2H10.4211C9.99981 2 9.60136 2.19151 9.33818 2.52048L8.64511 3.38682"/><circle cx="6.351" cy="9.943" r=".883" fill="#68737D"/><circle cx="8.704" cy="9.943" r=".883" fill="#68737D"/><circle cx="11.057" cy="9.943" r=".883" fill="#68737D"/><circle cx="18.5" cy="19.21" r="3.5" stroke="#68737D" stroke-width="1.5"/><path stroke="#68737D" stroke-linecap="round" stroke-width="1.5" d="M16.75 20.9605L20.25 17.4605"/></svg>