<svg xmlns="http://www.w3.org/2000/svg" width="24" height="24" fill="none" viewBox="0 0 24 24"><path stroke="#68737D" stroke-linecap="round" stroke-linejoin="round" stroke-width="1.5" d="M7 17V17.01M7 7V7.01M17 7V7.01M17 14H14V17M20 14V14.01M14 20H17M17 17H20V20M5 4H9C9.55228 4 10 4.44772 10 5V9C10 9.55228 9.55228 10 9 10H5C4.44772 10 4 9.55228 4 9V5C4 4.44772 4.44772 4 5 4ZM15 4H19C19.5523 4 20 4.44772 20 5V9C20 9.55228 19.5523 10 19 10H15C14.4477 10 14 9.55228 14 9V5C14 4.44772 14.4477 4 15 4ZM5 14H9C9.55228 14 10 14.4477 10 15V19C10 19.5523 9.55228 20 9 20H5C4.44772 20 4 19.5523 4 19V15C4 14.4477 4.44772 14 5 14Z"/></svg>