<svg width="24" height="24" viewBox="0 0 24 24" fill="none" xmlns="http://www.w3.org/2000/svg">
<g clip-path="url(#clip0_8118_385)">
<rect x="1.99988" y="14.2859" width="15.4286" height="5.14286" rx="1" fill="#68737D"/>
<path d="M6.92859 11.071H15.9286V8.92847H6.92859V11.071ZM17.4286 11.571L17.4237 11.6736C17.3759 12.1441 17.0016 12.5182 16.5311 12.5662L16.4286 12.571H6.42859L6.32605 12.5662C5.85554 12.5182 5.48125 12.1441 5.43347 11.6736L5.42859 11.571V8.42847C5.42859 7.91079 5.82192 7.48468 6.32605 7.43335L6.42859 7.42847H16.4286L16.5311 7.43335C17.0353 7.48468 17.4286 7.91079 17.4286 8.42847V11.571Z" fill="#68737D"/>
<line x1="20.7499" y1="3.14288" x2="20.7499" y2="22" stroke="#68737D" stroke-width="1.5"/>
</g>
<defs>
<clipPath id="clip0_8118_385">
<rect width="24" height="24" fill="white"/>
</clipPath>
</defs>
</svg>
