<svg width="14" height="14" viewBox="0 0 14 14" fill="none" xmlns="http://www.w3.org/2000/svg">
<path d="M11 1.66669H3.00002C2.26364 1.66669 1.66669 2.26364 1.66669 3.00002V4.33335C1.66669 5.06973 2.26364 5.66669 3.00002 5.66669H11C11.7364 5.66669 12.3334 5.06973 12.3334 4.33335V3.00002C12.3334 2.26364 11.7364 1.66669 11 1.66669Z" stroke="#68737D" stroke-width="1" stroke-linecap="round" stroke-linejoin="round"/>
<path d="M11 8.33335H3.00002C2.26364 8.33335 1.66669 8.93031 1.66669 9.66669V11C1.66669 11.7364 2.26364 12.3334 3.00002 12.3334H11C11.7364 12.3334 12.3334 11.7364 12.3334 11V9.66669C12.3334 8.93031 11.7364 8.33335 11 8.33335Z" stroke="#68737D" stroke-width="1" stroke-linecap="round" stroke-linejoin="round"/>
</svg>
