<svg xmlns="http://www.w3.org/2000/svg" width="24" height="24" fill="none" viewBox="0 0 24 24"><g clip-path="url(#clip0_7294_194)"><path stroke="#68737D" stroke-linecap="round" stroke-width="1.5" d="M9 21H7C5.89543 21 5 20.1046 5 19V5C5 3.89543 5.89543 3 7 3H14.1716C14.702 3 15.2107 3.21071 15.5858 3.58579L18.4142 6.41421C18.7893 6.78929 19 7.29799 19 7.82843V11"/><path stroke="#68737D" stroke-linecap="round" stroke-linejoin="round" stroke-width="1.5" d="M9 8H15"/><path stroke="#68737D" stroke-linecap="round" stroke-linejoin="round" stroke-width="1.5" d="M9 11H15"/><path stroke="#68737D" stroke-linecap="round" stroke-linejoin="round" stroke-width="1.5" d="M14.6176 16.6176H18.8059"/><path stroke="#68737D" stroke-linecap="round" stroke-linejoin="round" stroke-width="1.5" d="M14.6176 18.7118H17.2176"/><path stroke="#68737D" stroke-linecap="round" stroke-linejoin="round" stroke-width="1.5" d="M19.5 14C19.8978 14 20.2794 14.1673 20.5607 14.4652C20.842 14.763 21 15.167 21 15.5882V19.8235C21 20.2448 20.842 20.6487 20.5607 20.9466C20.2794 21.2444 19.8978 21.4118 19.5 21.4118H17L14.5 23V21.4118H13.5C13.1022 21.4118 12.7206 21.2444 12.4393 20.9466C12.158 20.6487 12 20.2448 12 19.8235V15.5882C12 15.167 12.158 14.763 12.4393 14.4652C12.7206 14.1673 13.1022 14 13.5 14H19.5Z"/></g><defs><clipPath id="clip0_7294_194"><rect width="24" height="24" fill="#fff"/></clipPath></defs></svg>