<svg xmlns="http://www.w3.org/2000/svg" width="24" height="24" fill="none" viewBox="0 0 24 24"><path stroke="#68737D" stroke-linecap="round" stroke-linejoin="round" stroke-width="1.5" d="M8 4H5C4.46957 4 3.96086 4.24082 3.58579 4.66947C3.21071 5.09812 3 5.67951 3 6.28571V17.7143C3 18.3205 3.21071 18.9019 3.58579 19.3305C3.96086 19.7592 4.46957 20 5 20H8M16 4H19C19.5304 4 20.0391 4.24082 20.4142 4.66947C20.7893 5.09812 21 5.67951 21 6.28571V17.7143C21 18.3205 20.7893 18.9019 20.4142 19.3305C20.0391 19.7592 19.5304 20 19 20H16"/><path stroke="#68737D" stroke-dasharray="3 3" stroke-linecap="round" stroke-width="1.5" d="M12 2V22"/></svg>