<svg width="24" height="24" viewBox="0 0 24 24" fill="none" xmlns="http://www.w3.org/2000/svg">
<g clip-path="url(#clip0_7407_193)">
<path d="M6.1443 18.0323C5.13326 17.6135 4.2146 16.9997 3.44078 16.2259C2.66696 15.4521 2.05313 14.5334 1.63434 13.5224C1.21555 12.5113 1 11.4277 1 10.3333C1 8.1232 1.87797 6.00358 3.44078 4.44078C5.00358 2.87797 7.1232 2 9.33333 2C11.5435 2 13.6631 2.87797 15.2259 4.44078C16.0466 5.26152 16.6785 6.23583 17.0935 7.29617M17.0935 7.29617C17.12 7.36377 17.1455 7.43172 17.1702 7.5L17.0935 7.29617Z" stroke="#68737D" stroke-width="1.5" stroke-linecap="round" stroke-linejoin="round"/>
<path d="M1.55554 7.55554H17.1111" stroke="#68737D" stroke-width="1.5" stroke-linecap="round" stroke-linejoin="round"/>
<path d="M1.55554 13.1111H6.72393" stroke="#68737D" stroke-width="1.5" stroke-linecap="round" stroke-linejoin="round"/>
<path d="M8.87035 2C7.31048 4.49964 6.48351 7.38691 6.48351 10.3333C6.48351 11.2308 6.56023 12.1228 6.71103 13" stroke="#68737D" stroke-width="1.5" stroke-linecap="round" stroke-linejoin="round"/>
<path d="M9.7963 2C10.8108 3.62574 11.5153 5.41544 11.8839 7.27875" stroke="#68737D" stroke-width="1.5" stroke-linecap="round" stroke-linejoin="round"/>
<path d="M8.88889 16.5556C8.88889 17.4164 9.05845 18.2689 9.3879 19.0643C9.71734 19.8596 10.2002 20.5823 10.809 21.191C11.4177 21.7998 12.1404 22.2827 12.9357 22.6121C13.7311 22.9415 14.5836 23.1111 15.4444 23.1111C16.3053 23.1111 17.1578 22.9415 17.9531 22.6121C18.7485 22.2827 19.4712 21.7998 20.0799 21.191C20.6887 20.5823 21.1715 19.8596 21.501 19.0643C21.8304 18.2689 22 17.4164 22 16.5556C22 14.8169 21.3093 13.1495 20.0799 11.9201C18.8505 10.6907 17.1831 10 15.4444 10C13.7058 10 12.0384 10.6907 10.809 11.9201C9.57956 13.1495 8.88889 14.8169 8.88889 16.5556Z" stroke="#68737D" stroke-width="1.5" stroke-linecap="round" stroke-linejoin="round"/>
<path d="M9.32591 14.3704H21.5629" stroke="#68737D" stroke-width="1.5" stroke-linecap="round" stroke-linejoin="round"/>
<path d="M9.32591 18.7407H21.5629" stroke="#68737D" stroke-width="1.5" stroke-linecap="round" stroke-linejoin="round"/>
<path d="M15.0802 10C13.8531 11.9664 13.2026 14.2377 13.2026 16.5556C13.2026 18.8734 13.8531 21.1447 15.0802 23.1111" stroke="#68737D" stroke-width="1.5" stroke-linecap="round" stroke-linejoin="round"/>
<path d="M15.8087 10C17.0358 11.9664 17.6863 14.2377 17.6863 16.5556C17.6863 18.8734 17.0358 21.1447 15.8087 23.1111" stroke="#68737D" stroke-width="1.5" stroke-linecap="round" stroke-linejoin="round"/>
</g>
<defs>
<clipPath id="clip0_7407_193">
<rect width="24" height="24" fill="white"/>
</clipPath>
</defs>
</svg>
