<svg xmlns="http://www.w3.org/2000/svg" width="24" height="24" fill="none" viewBox="0 0 24 24"><circle cx="12" cy="12" r="8.25" stroke="#68737D" stroke-width="1.5"/><path stroke="#68737D" stroke-width="1.5" d="M15.25 12C15.25 14.4055 14.8152 16.5471 14.1431 18.0594C13.8066 18.8164 13.4254 19.3826 13.0399 19.7494C12.6584 20.1126 12.3082 20.25 12 20.25C11.6918 20.25 11.3416 20.1126 10.9601 19.7494C10.5746 19.3826 10.1934 18.8164 9.85693 18.0594C9.18483 16.5471 8.75 14.4055 8.75 12C8.75 9.59454 9.18483 7.45286 9.85693 5.94064C10.1934 5.18359 10.5746 4.61737 10.9601 4.25056C11.3416 3.88743 11.6918 3.75 12 3.75C12.3082 3.75 12.6584 3.88743 13.0399 4.25056C13.4254 4.61737 13.8066 5.18359 14.1431 5.94064C14.8152 7.45286 15.25 9.59454 15.25 12Z"/><path stroke="#68737D" stroke-width="1.5" d="M4 12H20"/></svg>