<svg xmlns="http://www.w3.org/2000/svg" width="24" height="24" fill="none" viewBox="0 0 24 24"><path stroke="#68737D" stroke-linecap="round" stroke-linejoin="round" stroke-width="1.5" d="M19 21H5V21C3.89543 21 3 20.1046 3 19V10V10C3 8.89543 3.89543 8 5 8H19V8C20.1046 8 21 8.89543 21 10V19V19C21 20.1046 20.1046 21 19 21C19 21 19 21 19 21V21Z"/><path stroke="#68737D" stroke-linecap="round" stroke-linejoin="round" stroke-width="1.5" d="M16 21V6C16 4.89543 15.1046 4 14 4H10V4C8.89543 4 8 4.89543 8 6V6V21"/></svg>