<svg xmlns="http://www.w3.org/2000/svg" width="24" height="24" fill="none" viewBox="0 0 24 24"><g clip-path="url(#clip0_7325_62)"><path stroke="#68737D" stroke-linecap="round" stroke-width="1.5" d="M10 4H5.71429C4.21523 4 3 5.21523 3 6.71429V15.2857C3 16.7848 4.21523 18 5.71429 18H7.51579C7.8183 18 8.10079 18.1512 8.26859 18.4029L9.58397 20.376C9.78189 20.6728 10.2181 20.6728 10.416 20.376L11.7314 18.4029C11.8992 18.1512 12.1817 18 12.4842 18H18.2857C19.7848 18 21 16.7848 21 15.2857V12"/><path stroke="#68737D" stroke-linecap="round" stroke-linejoin="round" stroke-width="1.5" d="M16.5005 8.96461L14.6905 9.96024C14.6368 9.98959 14.5764 10.0027 14.516 9.99808C14.4556 9.99346 14.3976 9.97131 14.3485 9.9341C14.2994 9.8969 14.2611 9.84609 14.2379 9.78737C14.2147 9.72864 14.2076 9.6643 14.2172 9.60153L14.563 7.49215L13.0989 5.99869C13.0552 5.95434 13.0242 5.89797 13.0096 5.83604C12.9949 5.7741 12.9971 5.70909 13.016 5.64842C13.0348 5.58775 13.0696 5.53387 13.1162 5.49293C13.1628 5.45199 13.2195 5.42564 13.2797 5.41688L15.303 5.10892L16.208 3.19026C16.2351 3.13311 16.2768 3.08503 16.3284 3.05142C16.3801 3.01781 16.4397 3 16.5005 3C16.5613 3 16.6209 3.01781 16.6725 3.05142C16.7242 3.08503 16.7659 3.13311 16.793 3.19026L17.698 5.10892L19.7213 5.41688C19.7813 5.42595 19.8377 5.45247 19.8842 5.49345C19.9306 5.53443 19.9652 5.58823 19.984 5.64877C20.0028 5.7093 20.0051 5.77416 19.9906 5.836C19.9762 5.89784 19.9455 5.95419 19.9021 5.99869L18.438 7.49215L18.783 9.60066C18.7933 9.66354 18.7867 9.7282 18.7638 9.78731C18.7409 9.84642 18.7027 9.89761 18.6535 9.93506C18.6042 9.97251 18.546 9.99472 18.4854 9.99917C18.4248 10.0036 18.3642 9.99014 18.3105 9.96024L16.5005 8.96461Z"/><path stroke="#68737D" stroke-linecap="round" stroke-width="1.5" d="M6 11H9"/><path stroke="#68737D" stroke-linecap="round" stroke-width="1.5" d="M6 14H13"/></g><defs><clipPath id="clip0_7325_62"><rect width="24" height="24" fill="#fff"/></clipPath></defs></svg>