<svg width="24" height="24" viewBox="0 0 24 24" fill="none" xmlns="http://www.w3.org/2000/svg">
<g clip-path="url(#clip0_7429_30)">
<path d="M3 8V12.172C3.00011 12.7024 3.2109 13.211 3.586 13.586L9.296 19.296C9.74795 19.7479 10.3609 20.0017 11 20.0017C11.6391 20.0017 12.252 19.7479 12.704 19.296L16.296 15.704C16.7479 15.252 17.0017 14.6391 17.0017 14C17.0017 13.3609 16.7479 12.748 16.296 12.296L10.586 6.586C10.211 6.2109 9.70239 6.00011 9.172 6H5C4.46957 6 3.96086 6.21071 3.58579 6.58579C3.21071 6.96086 3 7.46957 3 8Z" stroke="#68737D" stroke-width="1.5" stroke-linecap="round" stroke-linejoin="round"/>
<path d="M18 19L19.592 17.408C20.4958 16.5041 21.0035 15.2782 21.0035 14C21.0035 12.7218 20.4958 11.4959 19.592 10.592L15 6" stroke="#68737D" stroke-width="1.5" stroke-linecap="round" stroke-linejoin="round"/>
<path d="M6.99999 10H6.98999" stroke="#68737D" stroke-width="1.5" stroke-linecap="round" stroke-linejoin="round"/>
</g>
<defs>
<clipPath id="clip0_7429_30">
<rect width="24" height="24" fill="white"/>
</clipPath>
</defs>
</svg>
