<svg xmlns="http://www.w3.org/2000/svg" width="24" height="24" fill="none" viewBox="0 0 24 24"><g clip-path="url(#clip0_7338_909)"><path stroke="#68737D" stroke-linecap="round" stroke-linejoin="round" stroke-width="1.5" d="M8 5H6C5.46957 5 4.96086 5.21071 4.58579 5.58579C4.21071 5.96086 4 6.46957 4 7V19C4 19.5304 4.21071 20.0391 4.58579 20.4142C4.96086 20.7893 5.46957 21 6 21H9M18 8V7C18 6.46957 17.7893 5.96086 17.4142 5.58579C17.0391 5.21071 16.5304 5 16 5H14"/><path stroke="#68737D" stroke-linecap="round" stroke-linejoin="round" stroke-width="1.5" d="M8 5C8 4.46957 8.21071 3.96086 8.58579 3.58579C8.96086 3.21071 9.46957 3 10 3H12C12.5304 3 13.0391 3.21071 13.4142 3.58579C13.7893 3.96086 14 4.46957 14 5C14 5.53043 13.7893 6.03914 13.4142 6.41421C13.0391 6.78929 12.5304 7 12 7H10C9.46957 7 8.96086 6.78929 8.58579 6.41421C8.21071 6.03914 8 5.53043 8 5Z"/><path stroke="#68737D" stroke-linecap="round" stroke-linejoin="round" stroke-width="1.5" d="M13.8571 17.4286C13.8571 17.618 13.9324 17.7997 14.0664 17.9337C14.2003 18.0676 14.382 18.1429 14.5714 18.1429C14.7609 18.1429 14.9426 18.0676 15.0765 17.9337C15.2105 17.7997 15.2857 17.618 15.2857 17.4286C15.2857 17.2391 15.2105 17.0575 15.0765 16.9235C14.9426 16.7895 14.7609 16.7143 14.5714 16.7143C14.382 16.7143 14.2003 16.7895 14.0664 16.9235C13.9324 17.0575 13.8571 17.2391 13.8571 17.4286Z"/><path stroke="#68737D" stroke-linecap="round" stroke-linejoin="round" stroke-width="1.5" d="M14.5714 13.8571C13.8651 13.8571 13.1746 14.0666 12.5873 14.459C11.9999 14.8515 11.5422 15.4093 11.2719 16.0618C11.0015 16.7144 10.9308 17.4325 11.0686 18.1253C11.2064 18.8181 11.5466 19.4545 12.046 19.954C12.5455 20.4534 13.1819 20.7936 13.8747 20.9314C14.5675 21.0692 15.2856 20.9985 15.9382 20.7281C16.5907 20.4578 17.1485 20.0001 17.541 19.4128C17.9334 18.8254 18.1429 18.1349 18.1429 17.4286"/><path stroke="#68737D" stroke-linecap="round" stroke-linejoin="round" stroke-width="1.5" d="M16.7143 13.1429V15.2857H18.8572L21 13.1429H18.8572V11L16.7143 13.1429Z"/><path stroke="#68737D" stroke-linecap="round" stroke-linejoin="round" stroke-width="1.5" d="M16.7143 15.2857L14.5714 17.4286"/></g><defs><clipPath id="clip0_7338_909"><rect width="24" height="24" fill="#fff"/></clipPath></defs></svg>