<svg width="24" height="24" viewBox="0 0 24 24" fill="none" xmlns="http://www.w3.org/2000/svg">
<path d="M6.5 7.5C6.5 7.76522 6.60536 8.01957 6.79289 8.20711C6.98043 8.39464 7.23478 8.5 7.5 8.5C7.76522 8.5 8.01957 8.39464 8.20711 8.20711C8.39464 8.01957 8.5 7.76522 8.5 7.5C8.5 7.23478 8.39464 6.98043 8.20711 6.79289C8.01957 6.60536 7.76522 6.5 7.5 6.5C7.23478 6.5 6.98043 6.60536 6.79289 6.79289C6.60536 6.98043 6.5 7.23478 6.5 7.5Z" stroke="#68737D" stroke-width="1.5" stroke-linecap="round" stroke-linejoin="round"/>
<path d="M11 20L3.586 12.586C3.2109 12.211 3.00011 11.7024 3 11.172V6C3 5.20435 3.31607 4.44129 3.87868 3.87868C4.44129 3.31607 5.20435 3 6 3H11.172C11.7024 3.00011 12.211 3.2109 12.586 3.586L16.441 7.441L18 9" stroke="#68737D" stroke-width="1.5" stroke-linecap="round" stroke-linejoin="round"/>
<path d="M15 12H22.3333" stroke="#68737D" stroke-width="1.5" stroke-linecap="round" stroke-linejoin="round"/>
<path d="M15 15H22.3333" stroke="#68737D" stroke-width="1.5" stroke-linecap="round" stroke-linejoin="round"/>
<path d="M15 18H22.3333" stroke="#68737D" stroke-width="1.5" stroke-linecap="round" stroke-linejoin="round"/>
<path d="M13 12V12.0067" stroke="#68737D" stroke-width="1.5" stroke-linecap="round" stroke-linejoin="round"/>
<path d="M13 15V15.0067" stroke="#68737D" stroke-width="1.5" stroke-linecap="round" stroke-linejoin="round"/>
<path d="M13 18V18.0067" stroke="#68737D" stroke-width="1.5" stroke-linecap="round" stroke-linejoin="round"/>
</svg>
