<svg xmlns="http://www.w3.org/2000/svg" width="24" height="24" fill="none" viewBox="0 0 24 24"><path stroke="#68737D" stroke-linecap="round" stroke-linejoin="round" stroke-width="1.5" d="M20 3H4C3.44772 3 3 3.44772 3 4V17.323C3 17.607 3.12074 17.8776 3.33209 18.0673L5.84277 20.3204C6.25884 20.6938 6.90022 20.6536 7.26636 20.2311L8.38224 18.9436C8.7291 18.5433 9.32785 18.483 9.74764 18.8059L11.9079 20.4676C12.3044 20.7726 12.8652 20.7377 13.2208 20.386L14.6968 18.9262C15.0864 18.5409 15.7136 18.5409 16.1032 18.9262L17.4406 20.249C17.8517 20.6555 18.5208 20.6298 18.8995 20.1929L20.7557 18.0511C20.9133 17.8693 21 17.6368 21 17.3962V4C21 3.44772 20.5523 3 20 3Z"/><path stroke="#68737D" stroke-linecap="round" stroke-linejoin="round" stroke-width="1.5" d="M9 14L15 8"/><path stroke="#68737D" stroke-linecap="round" stroke-linejoin="round" stroke-width="1.5" d="M9.5 9C9.77614 9 10 8.77614 10 8.5C10 8.22386 9.77614 8 9.5 8C9.22386 8 9 8.22386 9 8.5C9 8.77614 9.22386 9 9.5 9Z"/><path stroke="#68737D" stroke-linecap="round" stroke-linejoin="round" stroke-width="1.5" d="M14.5 14C14.7761 14 15 13.7761 15 13.5C15 13.2239 14.7761 13 14.5 13C14.2239 13 14 13.2239 14 13.5C14 13.7761 14.2239 14 14.5 14Z"/></svg>