<svg width="24" height="24" viewBox="0 0 24 24" fill="none" xmlns="http://www.w3.org/2000/svg">
<path d="M9 7H2.83333C2.3731 7 2 7.3731 2 7.83333V18.9358C2 19.1725 2.10062 19.398 2.27674 19.5561L4.36897 21.4337C4.7157 21.7449 5.25018 21.7113 5.5553 21.3593L6.4852 20.2863C6.77425 19.9528 7.27321 19.9025 7.62303 20.1716L9.42326 21.5564C9.75365 21.8105 10.221 21.7814 10.5173 21.4883L11.7473 20.2719C12.072 19.9508 12.5946 19.9508 12.9193 20.2719L14.0338 21.3741C14.3764 21.7129 14.934 21.6915 15.2496 21.3274L16.7964 19.5426C16.9277 19.3911 17 19.1973 17 18.9968V14.9924" stroke="#68737D" stroke-width="1.5" stroke-linecap="round" stroke-linejoin="round"/>
<path d="M11.25 11.75H9.375C9.07663 11.75 8.79048 11.8685 8.57951 12.0795C8.36853 12.2905 8.25 12.5766 8.25 12.875C8.25 13.1734 8.36853 13.4595 8.57951 13.6705C8.79048 13.8815 9.07663 14 9.375 14H10.125C10.4234 14 10.7095 14.1185 10.9205 14.3295C11.1315 14.5405 11.25 14.8266 11.25 15.125C11.25 15.4234 11.1315 15.7095 10.9205 15.9205C10.7095 16.1315 10.4234 16.25 10.125 16.25H8.25" stroke="#68737D" stroke-width="1.5" stroke-linecap="round" stroke-linejoin="round"/>
<path d="M9.75 16.25V17M9.75 11V11.75" stroke="#68737D" stroke-width="1.5" stroke-linecap="round" stroke-linejoin="round"/>
<path d="M12 7C12 7.65661 12.1293 8.30679 12.3806 8.91342C12.6319 9.52005 13.0002 10.0712 13.4645 10.5355C13.9288 10.9998 14.48 11.3681 15.0866 11.6194C15.6932 11.8707 16.3434 12 17 12C17.6566 12 18.3068 11.8707 18.9134 11.6194C19.52 11.3681 20.0712 10.9998 20.5355 10.5355C20.9998 10.0712 21.3681 9.52005 21.6194 8.91342C21.8707 8.30679 22 7.65661 22 7C22 5.67392 21.4732 4.40215 20.5355 3.46447C19.5979 2.52678 18.3261 2 17 2C15.6739 2 14.4021 2.52678 13.4645 3.46447C12.5268 4.40215 12 5.67392 12 7Z" stroke="#68737D" stroke-width="1.5" stroke-linecap="round" stroke-linejoin="round"/>
<path d="M15.3333 8.70839L18.6666 5.37506" stroke="#68737D" stroke-width="1.5" stroke-linecap="round" stroke-linejoin="round"/>
<path d="M15.3333 5.39166V5.39833" stroke="#68737D" stroke-width="1.5" stroke-linecap="round" stroke-linejoin="round"/>
<path d="M18.6667 8.73334V8.74" stroke="#68737D" stroke-width="1.5" stroke-linecap="round" stroke-linejoin="round"/>
</svg>
