<svg width="24" height="24" viewBox="0 0 24 24" fill="none" xmlns="http://www.w3.org/2000/svg">
<path d="M8.97 18.96V18.69C9.474 18.63 9.858 18.492 10.122 18.276C10.386 18.06 10.518 17.658 10.518 17.07V6H12.498V17.07C12.498 17.658 12.63 18.06 12.894 18.276C13.158 18.492 13.542 18.63 14.046 18.69V18.96H8.97ZM12.156 6.576H9.402C8.394 6.576 7.662 6.816 7.206 7.296C6.75 7.764 6.45 8.424 6.306 9.276L6 9.258L6.162 6.522L6.198 6H12.156V6.576ZM16.854 6L16.89 6.522L17.07 9.258L16.764 9.276C16.608 8.424 16.302 7.764 15.846 7.296C15.402 6.816 14.67 6.576 13.65 6.576H10.896V6H16.854Z" fill="#68737D"/>
</svg>
