<svg width="24" height="24" viewBox="0 0 24 24" fill="none" xmlns="http://www.w3.org/2000/svg">
<path d="M3.99793 19C3.51187 19 3.20255 18.6818 3.20255 18.1781V6.82189C3.20255 6.31815 3.51187 6 3.99793 6C4.484 6 4.79331 6.31815 4.79331 6.82189V11.6383H11.7926V6.82189C11.7926 6.31815 12.1019 6 12.588 6C13.0741 6 13.3834 6.31815 13.3834 6.82189V18.1781C13.3834 18.6818 13.0741 19 12.588 19C12.1019 19 11.7926 18.6818 11.7926 18.1781V13.07H4.79331V18.1781C4.79331 18.6818 4.484 19 3.99793 19Z" fill="#68737D"/>
<path d="M18.1205 19C17.0957 19 16.1868 18.5369 15.8695 17.9067C15.8009 17.7695 15.7623 17.6237 15.7623 17.4736C15.7623 17.0877 15.9981 16.8562 16.3969 16.8562C16.6927 16.8562 16.8814 16.9548 17.07 17.1906C17.3101 17.5508 17.6103 17.7866 18.1076 17.7866C18.695 17.7866 19.128 17.3579 19.128 16.779C19.128 16.2131 18.7122 15.8143 18.1205 15.8143C17.7818 15.8143 17.5116 15.9687 17.3144 16.1445C17.0743 16.3546 16.9157 16.4317 16.5727 16.4317C16.0539 16.4317 15.818 16.0716 15.8438 15.6557C15.8438 15.6471 15.8438 15.6428 15.8438 15.6343L16.0067 13.4605C16.0496 12.8945 16.3583 12.6587 16.8857 12.6587H19.6683C20.0413 12.6587 20.2857 12.8945 20.2857 13.2632C20.2857 13.632 20.0456 13.8678 19.6683 13.8678H17.3015L17.1815 15.4242H17.2115C17.4516 15.0169 17.9533 14.7467 18.6007 14.7467C19.7712 14.7467 20.6115 15.5699 20.6115 16.7447C20.6115 18.1039 19.5911 19 18.1205 19Z" fill="#68737D"/>
</svg>
