<svg width="24" height="24" viewBox="0 0 24 24" fill="none" xmlns="http://www.w3.org/2000/svg">
<path d="M3.99793 19C3.51187 19 3.20255 18.6818 3.20255 18.1781V6.82189C3.20255 6.31815 3.51187 6 3.99793 6C4.48399 6 4.79331 6.31815 4.79331 6.82189V11.6383H11.7926V6.82189C11.7926 6.31815 12.1019 6 12.588 6C13.0741 6 13.3834 6.31815 13.3834 6.82189V18.1781C13.3834 18.6818 13.0741 19 12.588 19C12.1019 19 11.7926 18.6818 11.7926 18.1781V13.07H4.79331V18.1781C4.79331 18.6818 4.48399 19 3.99793 19Z" fill="#68737D"/>
<path d="M18.0196 19C16.7026 19 15.9475 18.3994 15.6987 17.7988C15.6472 17.6786 15.6214 17.5499 15.6214 17.4384C15.6214 17.0437 15.8831 16.7949 16.3122 16.7949C16.6125 16.7949 16.8055 16.9021 16.96 17.151C17.1873 17.5371 17.4662 17.7644 18.0539 17.7644C18.5945 17.7644 18.972 17.447 18.972 17.0008C18.972 16.4817 18.5859 16.2029 17.8995 16.2029H17.7493C17.3761 16.2029 17.1788 15.9883 17.1788 15.6666C17.1788 15.3534 17.3761 15.1346 17.7493 15.1346H17.8909C18.4958 15.1346 18.8648 14.8386 18.8648 14.3881C18.8648 13.9505 18.5559 13.6717 18.0196 13.6717C17.5777 13.6717 17.2903 13.8519 17.1015 14.2208C16.9256 14.5512 16.7369 14.6756 16.3894 14.6756C15.9604 14.6756 15.7416 14.4182 15.7416 14.0578C15.7416 13.9248 15.763 13.8176 15.8188 13.6846C16.0633 13.0839 16.7926 12.5005 18.011 12.5005C19.3581 12.5005 20.3277 13.114 20.3277 14.165C20.3277 14.9587 19.7528 15.465 19.045 15.6065V15.6366C19.9802 15.7309 20.5722 16.2586 20.5722 17.0952C20.5722 18.2535 19.5726 19 18.0196 19Z" fill="#68737D"/>
</svg>
