<svg width="24" height="24" viewBox="0 0 24 24" fill="none" xmlns="http://www.w3.org/2000/svg">
<path d="M3.99794 19C3.51187 19 3.20256 18.6818 3.20256 18.1781V6.82189C3.20256 6.31815 3.51187 6 3.99794 6C4.484 6 4.79332 6.31815 4.79332 6.82189V11.6383H11.7926V6.82189C11.7926 6.31815 12.1019 6 12.588 6C13.0741 6 13.3834 6.31815 13.3834 6.82189V18.1781C13.3834 18.6818 13.0741 19 12.588 19C12.1019 19 11.7926 18.6818 11.7926 18.1781V13.07H4.79332V18.1781C4.79332 18.6818 4.484 19 3.99794 19Z" fill="#68737D"/>
<path d="M17.9108 19C17.435 19 17.1119 18.6901 17.1119 18.2099V14.0148H17.0814L16.2956 14.5604C16.1516 14.6608 16.0555 14.6958 15.9027 14.6958C15.5928 14.6958 15.3614 14.4644 15.3614 14.1414C15.3614 13.91 15.4531 13.731 15.6801 13.5739L16.8718 12.7619C17.208 12.5349 17.4786 12.5 17.7929 12.5C18.3692 12.5 18.7053 12.8449 18.7053 13.3949V18.2099C18.7053 18.6901 18.3866 19 17.9108 19Z" fill="#68737D"/>
</svg>
