<svg width="24" height="24" viewBox="0 0 24 24" fill="none" xmlns="http://www.w3.org/2000/svg">
<path d="M3.99793 19C3.51187 19 3.20255 18.6818 3.20255 18.1781V6.82189C3.20255 6.31815 3.51187 6 3.99793 6C4.48399 6 4.79331 6.31815 4.79331 6.82189V11.6383H11.7926V6.82189C11.7926 6.31815 12.1019 6 12.588 6C13.0741 6 13.3834 6.31815 13.3834 6.82189V18.1781C13.3834 18.6818 13.0741 19 12.588 19C12.1019 19 11.7926 18.6818 11.7926 18.1781V13.07H4.79331V18.1781C4.79331 18.6818 4.48399 19 3.99793 19Z" fill="#68737D"/>
<path d="M19.3187 19C18.8817 19 18.5658 18.7491 18.5658 18.2428V17.8361H16.4371C15.866 17.8361 15.4766 17.477 15.4766 16.9492C15.4766 16.6463 15.5718 16.3478 15.7925 15.9584C16.2078 15.2099 16.7054 14.4224 17.2808 13.5527C17.7611 12.8086 18.1288 12.5576 18.7562 12.5576C19.5523 12.5576 20.0672 12.9946 20.0672 13.6739V16.603H20.3095C20.7292 16.603 20.9412 16.8626 20.9412 17.2217C20.9412 17.5809 20.7248 17.8361 20.3095 17.8361H20.0672V18.2428C20.0672 18.7491 19.7513 19 19.3187 19ZM18.6091 16.6593V13.7518H18.5788C17.826 14.8421 17.3111 15.6425 16.8049 16.616V16.6593H18.6091Z" fill="#68737D"/>
</svg>
