<svg width="24" height="24" viewBox="0 0 24 24" fill="none" xmlns="http://www.w3.org/2000/svg">
<path d="M3.99794 19C3.51187 19 3.20256 18.6818 3.20256 18.1781V6.82189C3.20256 6.31815 3.51187 6 3.99794 6C4.484 6 4.79332 6.31815 4.79332 6.82189V11.6383H11.7926V6.82189C11.7926 6.31815 12.1019 6 12.588 6C13.0741 6 13.3834 6.31815 13.3834 6.82189V18.1781C13.3834 18.6818 13.0741 19 12.588 19C12.1019 19 11.7926 18.6818 11.7926 18.1781V13.07H4.79332V18.1781C4.79332 18.6818 4.484 19 3.99794 19Z" fill="#68737D"/>
<path d="M16.2995 19C15.7809 19 15.5436 18.71 15.5436 18.3101C15.5436 18.0068 15.6711 17.7915 15.9875 17.519L17.798 15.8755C18.5407 15.1987 18.7428 14.9087 18.7428 14.4956C18.7428 14.0386 18.3913 13.7134 17.8859 13.7134C17.4684 13.7134 17.1828 13.9155 16.9499 14.3374C16.7477 14.6494 16.5587 14.7769 16.2336 14.7769C15.8161 14.7769 15.5656 14.5352 15.5656 14.1396C15.5656 14.0166 15.5832 13.9023 15.6315 13.7881C15.9084 13.0586 16.7521 12.5005 17.9079 12.5005C19.3537 12.5005 20.3029 13.2695 20.3029 14.3901C20.3029 15.2031 19.8898 15.6689 18.8835 16.5786L17.6222 17.73V17.7607H19.8151C20.2238 17.7607 20.4611 18.0024 20.4611 18.3804C20.4611 18.7495 20.2238 19 19.8151 19H16.2995Z" fill="#68737D"/>
</svg>
