<svg width="24" height="24" viewBox="0 0 24 24" fill="none" xmlns="http://www.w3.org/2000/svg">
<g clip-path="url(#clip0_7328_680)">
<path d="M15 21H12C12 20.4401 11.7893 19.9031 11.4142 19.5072C11.0391 19.1113 10.5304 18.8889 10 18.8889C9.46957 18.8889 8.96086 19.1113 8.58579 19.5072C8.21071 19.9031 8 20.4401 8 21H5C4.46957 21 3.96086 20.7776 3.58579 20.3817C3.21071 19.9858 3 19.4488 3 18.8889L3 4.11111C3 3.55121 3.21071 3.01424 3.58579 2.61833C3.96086 2.22242 4.46957 2 5 2L8 2C8 2.5599 8.21071 3.09687 8.58579 3.49278C8.96086 3.88869 9.46957 4.11111 10 4.11111C10.5304 4.11111 11.0391 3.88869 11.4142 3.49278C11.7893 3.09687 12 2.5599 12 2L15 2C15.5304 2 16.0391 2.22242 16.4142 2.61833C16.7893 3.01424 17 3.55121 17 4.11111V8M9 9.38889H13.5M9 13.6111H10.5M6.5 9.38889V9.39989M6.5 13.6006V13.6116" stroke="#68737D" stroke-width="1.5" stroke-linecap="round" stroke-linejoin="round"/>
<path d="M17.9319 10C18.0431 10 18.1515 10.0354 18.2425 10.1012C18.3334 10.167 18.4024 10.2601 18.4399 10.3678L18.7142 11.1539C18.7577 11.2775 18.8422 11.3814 18.9528 11.4472L19.7664 11.9306C19.8769 11.9962 20.0064 12.0194 20.132 11.9961L20.931 11.8478C21.0405 11.8273 21.1535 11.8421 21.2545 11.8903C21.3555 11.9384 21.4395 12.0175 21.4952 12.1167L21.9271 12.8833C21.9829 12.9823 22.0076 13.0965 21.998 13.2105C21.9883 13.3244 21.9447 13.4325 21.8731 13.52L21.3489 14.1578C21.2663 14.2581 21.221 14.3852 21.2209 14.5167V15.4833C21.221 15.6148 21.2663 15.7419 21.3489 15.8422L21.8731 16.48C21.9447 16.5675 21.9883 16.6756 21.998 16.7895C22.0076 16.9035 21.9829 17.0177 21.9271 17.1167L21.4952 17.8833C21.4396 17.9824 21.3556 18.0614 21.2547 18.1096C21.1538 18.1577 21.0409 18.1726 20.9315 18.1522L20.1325 18.0039C20.007 17.9806 19.8775 18.0038 19.767 18.0694L18.9534 18.5528C18.8428 18.6186 18.7583 18.7225 18.7147 18.8461L18.4405 19.6322C18.4029 19.74 18.3338 19.8332 18.2428 19.899C18.1518 19.9648 18.0432 20.0001 17.9319 20H17.0681C16.9569 20 16.8485 19.9646 16.7575 19.8988C16.6666 19.833 16.5976 19.7399 16.5601 19.6322L16.2858 18.8461C16.2423 18.7227 16.158 18.6188 16.0477 18.5528L15.2336 18.0694C15.1231 18.0038 14.9936 17.9806 14.868 18.0039L14.069 18.1522C13.9595 18.1727 13.8465 18.1579 13.7455 18.1097C13.6445 18.0616 13.5605 17.9825 13.5048 17.8833L13.0729 17.1167C13.0171 17.0177 12.9924 16.9035 13.002 16.7895C13.0117 16.6756 13.0553 16.5675 13.1269 16.48L13.6511 15.8422C13.7337 15.7419 13.779 15.6148 13.7791 15.4833V14.5167C13.779 14.3852 13.7337 14.2581 13.6511 14.1578L13.1323 13.52C13.0607 13.4325 13.0171 13.3244 13.0074 13.2105C12.9978 13.0965 13.0225 12.9823 13.0783 12.8833L13.5102 12.1167C13.5658 12.0176 13.6498 11.9386 13.7507 11.8904C13.8516 11.8423 13.9645 11.8274 14.0739 11.8478L14.8729 11.9961C14.9984 12.0194 15.1279 11.9962 15.2384 11.9306L16.0526 11.4472C16.1629 11.3812 16.2471 11.2773 16.2907 11.1539L16.5649 10.3678C16.6022 10.2609 16.6704 10.1684 16.7604 10.1026C16.8504 10.0368 16.9577 10.001 17.0681 10H17.9319Z" stroke="#68737D" stroke-width="1.5" stroke-linecap="round" stroke-linejoin="round"/>
<path d="M17.5 16.5278C18.32 16.5278 18.9847 15.8438 18.9847 15C18.9847 14.1562 18.32 13.4722 17.5 13.4722C16.68 13.4722 16.0153 14.1562 16.0153 15C16.0153 15.8438 16.68 16.5278 17.5 16.5278Z" stroke="#68737D" stroke-width="1.5" stroke-linecap="round" stroke-linejoin="round"/>
</g>
<defs>
<clipPath id="clip0_7328_680">
<rect width="24" height="24" fill="white"/>
</clipPath>
</defs>
</svg>
