<svg width="24" height="24" viewBox="0 0 24 24" fill="none" xmlns="http://www.w3.org/2000/svg">
<g clip-path="url(#clip0_7295_361)">
<path d="M16.8571 14.6667H19.75M16.8571 17.3333H19.75M15.25 14.6667V14.6736M15.25 17.3267V17.3336M13 20.6667L13 11.3333C13 10.9797 13.1355 10.6406 13.3766 10.3905C13.6177 10.1405 13.9447 10 14.2857 10L16.2143 10C16.2143 10.3536 16.3497 10.6928 16.5909 10.9428C16.832 11.1929 17.159 11.3333 17.5 11.3333C17.841 11.3333 18.168 11.1929 18.4091 10.9428C18.6503 10.6928 18.7857 10.3536 18.7857 10L20.7143 10C21.0553 10 21.3823 10.1405 21.6234 10.3905C21.8645 10.6406 22 10.9797 22 11.3333L22 20.6667C22 21.0203 21.8645 21.3594 21.6234 21.6095C21.3823 21.8595 21.0553 22 20.7143 22H18.7857C18.7857 21.6464 18.6503 21.3072 18.4091 21.0572C18.168 20.8071 17.841 20.6667 17.5 20.6667C17.159 20.6667 16.832 20.8071 16.5909 21.0572C16.3497 21.3072 16.2143 21.6464 16.2143 22H14.2857C13.9447 22 13.6177 21.8595 13.3766 21.6095C13.1355 21.3594 13 21.0203 13 20.6667Z" stroke="#68737D" stroke-width="1.5" stroke-linecap="round" stroke-linejoin="round"/>
<path d="M20 8V7C20 5.89543 19.1046 5 18 5H6C4.89543 5 4 5.89543 4 7V11C4 12.1046 4.89543 13 6 13H10" stroke="#68737D" stroke-width="1.5" stroke-linecap="round"/>
<path d="M7 7V11" stroke="#68737D" stroke-width="1.5" stroke-linecap="round"/>
</g>
<defs>
<clipPath id="clip0_7295_361">
<rect width="24" height="24" fill="white"/>
</clipPath>
</defs>
</svg>
