<svg xmlns="http://www.w3.org/2000/svg" width="24" height="24" fill="none" viewBox="0 0 24 24"><path stroke="#68737D" stroke-linecap="round" stroke-linejoin="round" stroke-width="1.5" d="M16.2 21H7.8C6.11984 21 5.27976 21 4.63803 20.673C4.07354 20.3854 3.6146 19.9265 3.32698 19.362C3 18.7202 3 17.8802 3 16.2V7.8C3 6.11984 3 5.27976 3.32698 4.63803C3.6146 4.07354 4.07354 3.6146 4.63803 3.32698C5.27976 3 6.11984 3 7.8 3H16.2C17.8802 3 18.7202 3 19.362 3.32698C19.9265 3.6146 20.3854 4.07354 20.673 4.63803C21 5.27976 21 6.11984 21 7.8V16.2C21 17.8802 21 18.7202 20.673 19.362C20.3854 19.9265 19.9265 20.3854 19.362 20.673C18.7202 21 17.8802 21 16.2 21Z"/><path stroke="#68737D" stroke-linecap="round" stroke-width="1.5" d="M3 10H20.5"/><path stroke="#68737D" stroke-linecap="round" stroke-width="1.5" d="M10 21L10 10"/><path stroke="#68737D" stroke-linecap="round" stroke-width="1.5" d="M4.5 9.52628L8.5 3"/><path stroke="#68737D" stroke-linecap="round" stroke-width="1.5" d="M8.5 9.52628L12.5 3"/><path stroke="#68737D" stroke-linecap="round" stroke-width="1.5" d="M12.5 9.52628L16.5 3"/><path stroke="#68737D" stroke-linecap="round" stroke-width="1.5" d="M16.5 9.44385L19.7855 4.08239"/></svg>