<svg xmlns="http://www.w3.org/2000/svg" width="24" height="24" fill="none" viewBox="0 0 24 24"><path stroke="#49545C" stroke-linecap="round" stroke-linejoin="round" stroke-width="1.5" d="M12 8.5V10.5"/><path stroke="#49545C" stroke-linecap="round" stroke-linejoin="round" stroke-width="1.5" d="M14.712 15.5C13.8803 14.9574 13.1968 14.2161 12.7233 13.3432C12.2498 12.4702 12.0012 11.4931 12 10.5"/><path stroke="#49545C" stroke-linecap="round" stroke-linejoin="round" stroke-width="1.5" d="M12.0001 10.5C11.9988 11.4931 11.7502 12.4702 11.2768 13.3432C10.8033 14.2161 10.1198 14.9574 9.28809 15.5"/><path stroke="#49545C" stroke-linecap="round" stroke-linejoin="round" stroke-width="1.5" d="M16 3H8C5.23858 3 3 5.23858 3 8V16C3 18.7614 5.23858 21 8 21H16C18.7614 21 21 18.7614 21 16V8C21 5.23858 18.7614 3 16 3Z"/><path stroke="#49545C" stroke-linecap="round" stroke-linejoin="round" stroke-width="1.5" d="M15 10.5H9"/></svg>