<svg xmlns="http://www.w3.org/2000/svg" width="24" height="24" fill="none" viewBox="0 0 24 24"><g clip-path="url(#clip0_7295_642)"><path stroke="#68737D" stroke-linecap="round" stroke-linejoin="round" stroke-width="1.5" d="M11.5 17H4C4.54494 16.6914 5.00981 16.2592 5.35719 15.7381C5.70457 15.2171 5.92474 14.6217 6 14V11C6.05956 9.73107 6.4633 8.50227 7.16795 7.4453C7.8726 6.38833 8.85159 5.54303 10 5C10 4.46957 10.2107 3.96086 10.5858 3.58579C10.9609 3.21071 11.4696 3 12 3C12.5304 3 13.0391 3.21071 13.4142 3.58579C13.7893 3.96086 14 4.46957 14 5C15.1484 5.54303 16.1274 6.38833 16.8321 7.4453C17.2394 8.05626 17.5461 8.72464 17.744 9.42499"/><path stroke="#68737D" stroke-linecap="round" stroke-linejoin="round" stroke-width="1.5" d="M9 17V18C8.99993 18.7087 9.25073 19.3945 9.70796 19.9359C10.1652 20.4773 10.7993 20.8394 11.498 20.958"/><path stroke="#68737D" stroke-linecap="round" stroke-linejoin="round" stroke-width="1.5" d="M15 21V20C15 19.4695 15.2107 18.9608 15.5858 18.5858C15.9609 18.2107 16.4696 18 17 18H19C19.5304 18 20.0391 18.2107 20.4142 18.5858C20.7893 18.9608 21 19.4695 21 20V21"/><path stroke="#68737D" stroke-linecap="round" stroke-linejoin="round" stroke-width="1.5" d="M16 14C16 14.5304 16.2108 15.0391 16.5858 15.4142C16.9609 15.7893 17.4696 16 18 16C18.5305 16 19.0392 15.7893 19.4143 15.4142C19.7893 15.0391 20 14.5304 20 14C20 13.4696 19.7893 12.9609 19.4143 12.5858C19.0392 12.2107 18.5305 12 18 12C17.4696 12 16.9609 12.2107 16.5858 12.5858C16.2108 12.9609 16 13.4696 16 14Z"/></g><defs><clipPath id="clip0_7295_642"><rect width="24" height="24" fill="#fff"/></clipPath></defs></svg>