<svg width="24" height="24" viewBox="0 0 24 24" fill="none" xmlns="http://www.w3.org/2000/svg">
<path d="M6.5 7.5C6.5 7.76522 6.60536 8.01957 6.79289 8.20711C6.98043 8.39464 7.23478 8.5 7.5 8.5C7.76522 8.5 8.01957 8.39464 8.20711 8.20711C8.39464 8.01957 8.5 7.76522 8.5 7.5C8.5 7.23478 8.39464 6.98043 8.20711 6.79289C8.01957 6.60536 7.76522 6.5 7.5 6.5C7.23478 6.5 6.98043 6.60536 6.79289 6.79289C6.60536 6.98043 6.5 7.23478 6.5 7.5Z" stroke="#68737D" stroke-width="1.5" stroke-linecap="round" stroke-linejoin="round"/>
<path d="M16.441 7.441L12.586 3.586C12.211 3.2109 11.7024 3.00011 11.172 3H6C5.20435 3 4.44129 3.31607 3.87868 3.87868C3.31607 4.44129 3 5.20435 3 6V11.172C3.00011 11.7024 3.2109 12.211 3.586 12.586L11 20" stroke="#68737D" stroke-width="1.5" stroke-linecap="round" stroke-linejoin="round"/>
<path d="M14 22V20.6667C14 19.9594 14.281 19.2811 14.781 18.781C15.2811 18.2809 15.9594 18 16.6667 18H19.3333C20.0406 18 20.7189 18.2809 21.219 18.781C21.719 19.2811 22 19.9594 22 20.6667V22" stroke="#68737D" stroke-width="1.5" stroke-linecap="round" stroke-linejoin="round"/>
<path d="M15.3334 12.6667C15.3334 13.3739 15.6143 14.0522 16.1144 14.5523C16.6145 15.0524 17.2928 15.3333 18 15.3333C18.7073 15.3333 19.3856 15.0524 19.8857 14.5523C20.3858 14.0522 20.6667 13.3739 20.6667 12.6667C20.6667 11.9594 20.3858 11.2811 19.8857 10.781C19.3856 10.281 18.7073 10 18 10C17.2928 10 16.6145 10.281 16.1144 10.781C15.6143 11.2811 15.3334 11.9594 15.3334 12.6667Z" stroke="#68737D" stroke-width="1.5" stroke-linecap="round" stroke-linejoin="round"/>
</svg>
