<svg xmlns="http://www.w3.org/2000/svg" width="24" height="24" fill="none" viewBox="0 0 24 24"><g clip-path="url(#clip0_7363_1223)"><path stroke="#68737D" stroke-linecap="round" stroke-linejoin="round" stroke-width="1.5" d="M10.5 19C9.38376 19 8.27846 18.7801 7.24719 18.353C6.21592 17.9258 5.27889 17.2997 4.48959 16.5104C3.70029 15.7211 3.07419 14.7841 2.64702 13.7528C2.21986 12.7215 2 11.6162 2 10.5C2 8.24566 2.89553 6.08365 4.48959 4.48959C6.08365 2.89553 8.24566 2 10.5 2C12.7543 2 14.9163 2.89553 16.5104 4.48959C17.3074 5.28662 17.9298 6.22564 18.353 7.24719"/><path stroke="#68737D" stroke-linecap="round" stroke-linejoin="round" stroke-width="1.5" d="M10.5 7.66669H10.5094"/><path stroke="#68737D" stroke-linecap="round" stroke-linejoin="round" stroke-width="1.5" d="M9.55556 10.5H10.5V14.2778H11.4444"/><path stroke="#68737D" stroke-linecap="round" stroke-linejoin="round" stroke-width="1.5" d="M14 22V20.6667C14 19.9594 14.281 19.2811 14.781 18.781C15.2811 18.281 15.9594 18 16.6667 18H19.3333C20.0406 18 20.7189 18.281 21.219 18.781C21.719 19.2811 22 19.9594 22 20.6667V22"/><path stroke="#68737D" stroke-linecap="round" stroke-linejoin="round" stroke-width="1.5" d="M15.3334 12.6667C15.3334 13.3739 15.6143 14.0522 16.1144 14.5523C16.6145 15.0524 17.2928 15.3333 18 15.3333C18.7073 15.3333 19.3856 15.0524 19.8857 14.5523C20.3858 14.0522 20.6667 13.3739 20.6667 12.6667C20.6667 11.9594 20.3858 11.2811 19.8857 10.781C19.3856 10.281 18.7073 10 18 10C17.2928 10 16.6145 10.281 16.1144 10.781C15.6143 11.2811 15.3334 11.9594 15.3334 12.6667Z"/></g><defs><clipPath id="clip0_7363_1223"><rect width="24" height="24" fill="#fff"/></clipPath></defs></svg>