<svg xmlns="http://www.w3.org/2000/svg" width="20" height="20" fill="none" viewBox="0 0 24 24"><path stroke="currentColor" stroke-linecap="round" stroke-linejoin="round" stroke-width="1.5" d="M17 16.5C17 15.837 16.7366 15.2011 16.2678 14.7322C15.7989 14.2634 15.163 14 14.5 14H9.5C8.83696 14 8.20107 14.2634 7.73223 14.7322C7.26339 15.2011 7 15.837 7 16.5"/><path stroke="currentColor" stroke-linecap="round" stroke-linejoin="round" stroke-width="1.5" d="M12 11.5C13.3807 11.5 14.5 10.3807 14.5 9C14.5 7.61929 13.3807 6.5 12 6.5C10.6193 6.5 9.5 7.61929 9.5 9C9.5 10.3807 10.6193 11.5 12 11.5Z"/><path stroke="currentColor" stroke-linecap="round" stroke-linejoin="round" stroke-width="1.5" d="M16 21C17.3261 21 18.5979 20.4732 19.5355 19.5355C20.4732 18.5979 21 17.3261 21 16V8C21 6.67392 20.4732 5.40215 19.5355 4.46447C18.5979 3.52678 17.3261 3 16 3H8C6.67392 3 5.40215 3.52678 4.46447 4.46447C3.52678 5.40215 3 6.67392 3 8V16C3 17.3261 3.52678 18.5979 4.46447 19.5355C5.40215 20.4732 6.67392 21 8 21H16Z"/></svg>