<svg width="24" height="24" viewBox="0 0 24 24" fill="none" xmlns="http://www.w3.org/2000/svg">
<g clip-path="url(#clip0_8118_415)">
<rect x="9.92859" y="4.78577" width="15.4286" height="5.14286" rx="1" transform="rotate(90 9.92859 4.78577)" fill="#68737D"/>
<path d="M13.1429 8.28583L13.1429 17.2858L15.2855 17.2858L15.2855 8.28583L13.1429 8.28583ZM12.6429 18.7858L12.5404 18.7809C12.0699 18.7332 11.6957 18.3589 11.6478 17.8884L11.6429 17.7858L11.6429 7.78583L11.6478 7.68329C11.6957 7.21278 12.0699 6.83849 12.5404 6.79071L12.6429 6.78583L15.7855 6.78583C16.3032 6.78583 16.7293 7.17916 16.7806 7.68329L16.7855 7.78583L16.7855 17.7858L16.7806 17.8884C16.7293 18.3925 16.3032 18.7858 15.7855 18.7858L12.6429 18.7858Z" fill="#68737D"/>
<line x1="12.2142" y1="12.5359" x2="2.21423" y2="12.5359" stroke="#68737D" stroke-width="1.5"/>
<line x1="21.2142" y1="12.5359" x2="16.2142" y2="12.5359" stroke="#68737D" stroke-width="1.5"/>
</g>
<defs>
<clipPath id="clip0_8118_415">
<rect width="24" height="24" fill="white"/>
</clipPath>
</defs>
</svg>
