<svg xmlns="http://www.w3.org/2000/svg" width="24" height="24" fill="none" viewBox="0 0 24 24"><path stroke="#68737D" stroke-linecap="round" stroke-linejoin="round" stroke-width="1.5" d="M15 10L19.553 7.724C19.7054 7.64783 19.8748 7.61188 20.045 7.61954C20.2152 7.62721 20.3806 7.67824 20.5256 7.7678C20.6706 7.85736 20.7902 7.98247 20.8733 8.13127C20.9563 8.28006 20.9999 8.44761 21 8.618V15.382C20.9999 15.5524 20.9563 15.7199 20.8733 15.8687C20.7902 16.0175 20.6706 16.1426 20.5256 16.2322C20.3806 16.3218 20.2152 16.3728 20.045 16.3805C19.8748 16.3881 19.7054 16.3522 19.553 16.276L15 14V10Z"/><path stroke="#68737D" stroke-linecap="round" stroke-linejoin="round" stroke-width="1.5" d="M10 6H13C13.5304 6 14.0391 6.21071 14.4142 6.58579C14.7893 6.96086 15 7.46957 15 8V14M6 6H5C4.46957 6 3.96086 6.21071 3.58579 6.58579C3.21071 6.96086 3 7.46957 3 8V16C3 16.5304 3.21071 17.0391 3.58579 17.4142C3.96086 17.7893 4.46957 18 5 18H13C13.5304 18 14.0391 17.7893 14.4142 17.4142C14.5389 17.2895 14.6454 17.1501 14.7321 17"/><path stroke="#68737D" stroke-linecap="round" stroke-width="1.5" d="M4 3.5L21 20"/></svg>