<svg width="24" height="24" viewBox="0 0 24 24" fill="none" xmlns="http://www.w3.org/2000/svg">
<g clip-path="url(#clip0_7495_450)">
<path d="M21 13V15C21 15.2652 20.8946 15.5196 20.7071 15.7071C20.5196 15.8946 20.2652 16 20 16H4C3.73478 16 3.48043 15.8946 3.29289 15.7071C3.10536 15.5196 3 15.2652 3 15V5C3 4.73478 3.10536 4.48043 3.29289 4.29289C3.48043 4.10536 3.73478 4 4 4H7" stroke="#68737D" stroke-width="1.5" stroke-linecap="round" stroke-linejoin="round"/>
<path d="M7 20H17" stroke="#68737D" stroke-width="1.5" stroke-linecap="round" stroke-linejoin="round"/>
<path d="M9 16V20" stroke="#68737D" stroke-width="1.5" stroke-linecap="round" stroke-linejoin="round"/>
<path d="M15 16V20" stroke="#68737D" stroke-width="1.5" stroke-linecap="round" stroke-linejoin="round"/>
<path d="M9 7C9 7.78793 9.15519 8.56815 9.45672 9.2961C9.75825 10.0241 10.2002 10.6855 10.7574 11.2426C11.3145 11.7998 11.9759 12.2417 12.7039 12.5433C13.4319 12.8448 14.2121 13 15 13C15.7879 13 16.5681 12.8448 17.2961 12.5433C18.0241 12.2417 18.6855 11.7998 19.2426 11.2426C19.7998 10.6855 20.2417 10.0241 20.5433 9.2961C20.8448 8.56815 21 7.78793 21 7C21 5.4087 20.3679 3.88258 19.2426 2.75736C18.1174 1.63214 16.5913 1 15 1C13.4087 1 11.8826 1.63214 10.7574 2.75736C9.63214 3.88258 9 5.4087 9 7Z" stroke="#68737D" stroke-width="1.5" stroke-linecap="round" stroke-linejoin="round"/>
<path d="M9.4 5H20.6" stroke="#68737D" stroke-width="1.5" stroke-linecap="round" stroke-linejoin="round"/>
<path d="M9.4 9H20.6" stroke="#68737D" stroke-width="1.5" stroke-linecap="round" stroke-linejoin="round"/>
<path d="M14.6667 1C13.5436 2.79974 12.9481 4.87858 12.9481 7C12.9481 9.12142 13.5436 11.2003 14.6667 13" stroke="#68737D" stroke-width="1.5" stroke-linecap="round" stroke-linejoin="round"/>
<path d="M15.3333 1C16.4564 2.79974 17.0519 4.87858 17.0519 7C17.0519 9.12142 16.4564 11.2003 15.3333 13" stroke="#68737D" stroke-width="1.5" stroke-linecap="round" stroke-linejoin="round"/>
</g>
<defs>
<clipPath id="clip0_7495_450">
<rect width="24" height="24" fill="white"/>
</clipPath>
</defs>
</svg>
