<svg xmlns="http://www.w3.org/2000/svg" width="24" height="24" fill="none" viewBox="0 0 24 24"><g clip-path="url(#clip0_7328_684)"><path stroke="#68737D" stroke-linecap="round" stroke-linejoin="round" stroke-width="1.5" d="M4 4H10V10H4V4Z"/><path stroke="#68737D" stroke-linecap="round" stroke-linejoin="round" stroke-width="1.5" d="M14 4H20V10H14V4Z"/><path stroke="#68737D" stroke-linecap="round" stroke-linejoin="round" stroke-width="1.5" d="M4 14H10V20H4V14Z"/><path stroke="#68737D" stroke-linecap="round" stroke-linejoin="round" stroke-width="1.5" d="M16.5 17.0001C16.5 17.2653 16.6054 17.5196 16.7929 17.7072C16.9805 17.8947 17.2348 18.0001 17.5 18.0001C17.7652 18.0001 18.0196 17.8947 18.2071 17.7072C18.3947 17.5196 18.5 17.2653 18.5 17.0001C18.5 16.7348 18.3947 16.4805 18.2071 16.293C18.0196 16.1054 17.7652 16.0001 17.5 16.0001C17.2348 16.0001 16.9805 16.1054 16.7929 16.293C16.6054 16.4805 16.5 16.7348 16.5 17.0001Z"/><path stroke="#68737D" stroke-linecap="round" stroke-linejoin="round" stroke-width="1.5" d="M22 17C20.8 19 19.3 20 17.5 20C15.7 20 14.2 19 13 17C14.2 15 15.7 14 17.5 14C19.3 14 20.8 15 22 17Z"/></g><defs><clipPath id="clip0_7328_684"><rect width="24" height="24" fill="#fff"/></clipPath></defs></svg>