<svg xmlns="http://www.w3.org/2000/svg" width="24" height="24" fill="none" viewBox="0 0 24 24"><path stroke="#68737D" stroke-linecap="round" stroke-width="1.5" d="M8 5H20C20.5523 5 21 5.44772 21 6V11C21 11.5523 20.5523 12 20 12H17.7692"/><path stroke="#68737D" stroke-linecap="round" stroke-width="1.5" d="M9.6383 12H4C3.44771 12 3 12.4477 3 13V18C3 18.5523 3.44772 19 4 19H13"/><rect width="4" height="4" x="4" y="3" stroke="#68737D" stroke-width="1.5" rx=".783"/><rect width="4" height="4" x="10" y="10" stroke="#68737D" stroke-width="1.5" rx=".783"/><rect width="4" height="4" x="16" y="17" stroke="#68737D" stroke-width="1.5" rx=".783"/><path stroke="#68737D" stroke-linecap="round" stroke-width="1.5" d="M16 12L18 10"/><path stroke="#68737D" stroke-linecap="round" stroke-width="1.5" d="M18 14L16 12"/><path stroke="#68737D" stroke-linecap="round" stroke-width="1.5" d="M14 19L12 17"/><path stroke="#68737D" stroke-linecap="round" stroke-width="1.5" d="M12 21L14 19"/></svg>