<svg xmlns="http://www.w3.org/2000/svg" width="20" height="20" fill="none" viewBox="0 0 24 24"><path stroke="currentColor" stroke-linecap="round" stroke-linejoin="round" stroke-width="1.5" d="M5.00008 20.0001H3.61808C3.30908 20.0001 3.05908 19.7501 3.05908 19.4411V15.0591C3.05908 14.7501 3.30908 14.5001 3.61808 14.5001H5.00008C5.30908 14.5001 5.55908 14.7501 5.55908 15.1011V19.4831C5.55908 19.7501 5.30908 20.0001 5.00008 20.0001V20.0001ZM5.55908 15.6851L7.40508 12.6641C8.11608 11.5011 9.90708 12.0041 9.90708 13.3681V14.9631H10.7971H11.4171C11.8701 14.9631 12.2931 15.1901 12.5451 15.5691C12.7681 15.9041 12.8331 16.3211 12.7221 16.7081L11.9901 19.2701C11.8661 19.7021 11.4711 20.0001 11.0221 20.0001H7.43908C7.14808 20.0001 6.86508 19.8981 6.64108 19.7121L5.55908 18.8151V15.6851ZM19.0591 4.05908H20.4411C20.7501 4.05908 21.0001 4.30908 21.0001 4.61808V9.00008C21.0001 9.30908 20.7501 9.55908 20.4411 9.55908H19.0591C18.7501 9.55908 18.5001 9.30908 18.5001 8.95808V4.57608C18.5001 4.30908 18.7501 4.05908 19.0591 4.05908V4.05908Z"/><path stroke="currentColor" stroke-linecap="round" stroke-linejoin="round" stroke-width="1.5" d="M18.5003 8.37408L16.6543 11.3951C15.9433 12.5581 14.1523 12.0551 14.1523 10.6911V9.09608H13.2623H12.6423C12.1893 9.09608 11.7663 8.86908 11.5143 8.49008C11.2913 8.15508 11.2263 7.73808 11.3373 7.35108L12.0693 4.78908C12.1933 4.35708 12.5883 4.05908 13.0373 4.05908H16.6203C16.9113 4.05908 17.1943 4.16108 17.4183 4.34708L18.5003 5.24408V8.37408Z"/></svg>