<svg width="24" height="24" viewBox="0 0 24 24" fill="none" xmlns="http://www.w3.org/2000/svg">
<path d="M3 16V8C3 6.67392 3.52678 5.40215 4.46447 4.46447C5.40215 3.52678 6.67392 3 8 3H16C17.3261 3 18.5979 3.52678 19.5355 4.46447C20.4732 5.40215 21 6.67392 21 8V16C21 17.3261 20.4732 18.5979 19.5355 19.5355C18.5979 20.4732 17.3261 21 16 21H8C6.67392 21 5.40215 20.4732 4.46447 19.5355C3.52678 18.5979 3 17.3261 3 16Z" stroke="#49545C" stroke-width="1.5" stroke-linecap="round" stroke-linejoin="round"/>
<path d="M15.8541 8.854C15.7841 8.9238 15.695 8.9713 15.5981 8.99049C15.5011 9.00968 15.4006 8.9997 15.3093 8.96182C15.2181 8.92394 15.14 8.85985 15.0852 8.77765C15.0303 8.69546 15.001 8.59884 15.001 8.5C15.001 8.40116 15.0303 8.30454 15.0852 8.22235C15.14 8.14015 15.2181 8.07606 15.3093 8.03818C15.4006 8.0003 15.5011 7.99033 15.5981 8.00952C15.695 8.02871 15.7841 8.0762 15.8541 8.146C15.9006 8.19245 15.9376 8.24762 15.9628 8.30837C15.988 8.36911 16.001 8.43423 16.001 8.5C16.001 8.56577 15.988 8.63089 15.9628 8.69163C15.9376 8.75238 15.9006 8.80755 15.8541 8.854Z" stroke="#49545C" stroke-width="1.5" stroke-linecap="round" stroke-linejoin="round"/>
<path d="M13.89 21C13.9592 20.5445 13.996 20.0847 14 19.624C14 17.0716 12.986 14.6237 11.1812 12.8188C9.37635 11.014 6.92844 10 4.376 10C3.91527 10.0032 3.45539 10.04 3 10.11" stroke="#49545C" stroke-width="1.5" stroke-linecap="round" stroke-linejoin="round"/>
</svg>
