<svg width="24" height="24" viewBox="0 0 24 24" fill="none" xmlns="http://www.w3.org/2000/svg">
<path d="M10 13L10.953 13.953C11.3244 14.3245 11.7654 14.6191 12.2507 14.8202C12.736 15.0212 13.2562 15.1247 13.7815 15.1247C14.3068 15.1247 14.827 15.0212 15.3123 14.8202C15.7976 14.6191 16.2386 14.3245 16.61 13.953L19.641 10.922C20.5112 10.0517 21.0001 8.87129 21.0001 7.64051C21.0001 6.40973 20.5112 5.22935 19.641 4.35901C18.7707 3.48877 17.5903 2.99988 16.3595 2.99988C15.1287 2.99988 13.9483 3.48877 13.078 4.35901L12.191 5.24701" stroke="#49545C" stroke-width="1.5" stroke-linecap="round" stroke-linejoin="round"/>
<path d="M14.0001 10L13.0471 9.04701C12.6757 8.67556 12.2347 8.3809 11.7494 8.17987C11.2641 7.97884 10.7439 7.87537 10.2186 7.87537C9.69333 7.87537 9.17317 7.97884 8.68785 8.17987C8.20254 8.3809 7.76157 8.67556 7.39013 9.04701L4.35914 12.078C3.48889 12.9484 3 14.1287 3 15.3595C3 16.5903 3.48889 17.7707 4.35914 18.641V18.641C5.22948 19.5113 6.40985 20.0001 7.64064 20.0001C8.87142 20.0001 10.0518 19.5113 10.9221 18.641L11.8091 17.753" stroke="#49545C" stroke-width="1.5" stroke-linecap="round" stroke-linejoin="round"/>
</svg>
