<svg width="24" height="24" viewBox="0 0 24 24" fill="none" xmlns="http://www.w3.org/2000/svg">
<path d="M13.75 13.3125H18.125C18.608 13.3125 19 13.7045 19 14.1875V17.6875C19 18.1705 18.608 18.5625 18.125 18.5625H14.625C14.142 18.5625 13.75 18.1705 13.75 17.6875V13.3125ZM13.75 13.3125C13.75 8.0625 14.625 7.1875 17.25 5.4375M5 13.3125H9.375C9.858 13.3125 10.25 13.7045 10.25 14.1875V17.6875C10.25 18.1705 9.858 18.5625 9.375 18.5625H5.875C5.392 18.5625 5 18.1705 5 17.6875V13.3125ZM5 13.3125C5 8.0625 5.875 7.1875 8.5 5.4375" stroke="#2F3941" stroke-width="1.5" stroke-linecap="round" stroke-linejoin="round"/>
</svg>
