<svg width="24" height="24" viewBox="0 0 24 24" fill="none" xmlns="http://www.w3.org/2000/svg">
<path d="M9.65402 18.634L10.18 19.817V19.817C10.4995 20.5364 11.2128 21.0001 12 21V21C12.7872 21.0001 13.5006 20.5364 13.82 19.817L14.346 18.634V18.634C14.5333 18.2142 14.8482 17.8643 15.246 17.634V17.634C15.6463 17.4031 16.1094 17.3047 16.569 17.353L17.856 17.49V17.49C18.6387 17.5728 19.3967 17.1867 19.79 16.505V16.505C20.1838 15.8237 20.1392 14.9742 19.676 14.338L18.914 13.291V13.291C18.6427 12.9154 18.4977 12.4633 18.5 12V11.9996C18.5 11.5375 18.6464 11.0873 18.9182 10.7137L19.6803 9.66668V9.66668C20.1432 9.03045 20.1878 8.18121 19.794 7.5V7.5C19.4007 6.81827 18.6427 6.43221 17.86 6.515L16.573 6.652V6.652C16.1134 6.70027 15.6503 6.60191 15.25 6.371V6.371C14.8514 6.13943 14.5364 5.78762 14.35 5.366L13.82 4.183V4.183C13.5006 3.46355 12.7872 2.99987 12 3V3C11.2128 2.99987 10.4995 3.46355 10.18 4.183L9.65402 5.366V5.366C9.46765 5.78762 9.1526 6.13943 8.75402 6.371V6.371C8.35371 6.60191 7.89062 6.70027 7.43102 6.652L6.14002 6.515V6.515C5.35733 6.43221 4.59933 6.81827 4.20602 7.5V7.5C3.81219 8.18133 3.85688 9.03075 4.32002 9.667L5.08202 10.714V10.714C5.35376 11.0877 5.5001 11.5379 5.50002 12V12.0004C5.50002 12.4625 5.3536 12.9127 5.08178 13.2863L4.32002 14.333V14.333C3.85688 14.9692 3.81219 15.8187 4.20602 16.5V16.5C4.5997 17.1813 5.35743 17.5673 6.14002 17.485L7.42702 17.348V17.348C7.88662 17.2997 8.34971 17.3981 8.75002 17.629V17.629C9.15009 17.8599 9.4666 18.2118 9.65402 18.634V18.634Z" stroke="#87929D" stroke-width="1.5"/>
<path d="M12 14.6465C13.4619 14.6465 14.647 13.4614 14.647 11.9995C14.647 10.5376 13.4619 9.35254 12 9.35254C10.5381 9.35254 9.35303 10.5376 9.35303 11.9995C9.35303 13.4614 10.5381 14.6465 12 14.6465Z" stroke="#87929D" stroke-width="1.5" stroke-linecap="round" stroke-linejoin="round"/>
</svg>
