<svg width="423" height="64" viewBox="0 0 423 64" fill="none" xmlns="http://www.w3.org/2000/svg">
<path d="M56 32C56 18.7452 45.2548 8 32 8H8V56H56V32Z" fill="url(#paint0_linear_3239_10950)"/>
<rect x="27.0234" y="31.4121" width="16.0959" height="4.38979" rx="2.1949" fill="white"/>
<rect x="27.0234" y="38.7275" width="12.4377" height="4.38979" rx="2.1949" fill="white"/>
<rect x="27.0234" y="24.0957" width="11.7061" height="4.38979" rx="2.1949" fill="white"/>
<circle cx="22.6343" cy="26.2906" r="2.1949" fill="white"/>
<circle cx="22.6343" cy="33.607" r="2.1949" fill="white"/>
<circle cx="22.6343" cy="40.9226" r="2.1949" fill="white"/>
<path d="M80.166 20.0697V55.2697H87.6943V27.5497H97.8797C103.505 27.5497 108.065 32.0805 108.065 37.6697V55.2697H115.593V37.6697C115.593 27.9494 107.663 20.0697 97.8797 20.0697H80.166Z" fill="#11243E"/>
<path fill-rule="evenodd" clip-rule="evenodd" d="M146.343 34.7771C145.621 30.1974 142.812 26.8231 137.194 26.8231C131.976 26.8231 128.365 29.7138 127.403 34.7771H146.343ZM138.077 48.4384C142.491 48.4384 145.701 46.6705 147.628 44.8223L152.363 49.8042C149.232 52.9391 144.9 55.2697 138.158 55.2697C126.6 55.2697 119.136 47.7968 119.136 37.6714C119.136 27.6251 127.002 20.0697 137.112 20.0697C148.589 20.0697 155.09 28.5887 154.53 40.403H127.403C128.365 45.3059 131.896 48.4384 138.077 48.4384Z" fill="#11243E"/>
<path fill-rule="evenodd" clip-rule="evenodd" d="M185.314 34.7771C184.592 30.1974 181.782 26.8231 176.164 26.8231C170.946 26.8231 167.335 29.7138 166.373 34.7771H185.314ZM177.047 48.4384C181.461 48.4384 184.671 46.6705 186.598 44.8223L191.333 49.8042C188.202 52.9391 183.87 55.2697 177.128 55.2697C165.57 55.2697 158.106 47.7968 158.106 37.6714C158.106 27.6251 165.973 20.0697 176.082 20.0697C187.559 20.0697 194.06 28.5887 193.5 40.403H166.373C167.335 45.3059 170.866 48.4384 177.047 48.4384Z" fill="#11243E"/>
<path fill-rule="evenodd" clip-rule="evenodd" d="M197.076 20.3731H203.017V11.2697H210.566V20.3731H217.975V27.1968H210.566V41.024C210.566 47.2788 211.544 48.2505 217.975 48.2505V55.2697H216.857C206.232 55.2697 203.017 51.9336 203.017 41.0943V27.1968H197.076V20.3731Z" fill="#11243E"/>
<path fill-rule="evenodd" clip-rule="evenodd" d="M249.71 37.6702C249.71 31.7128 245.066 26.839 239.197 26.839C233.326 26.839 228.753 31.7128 228.753 37.6702C228.753 43.6265 233.326 48.5003 239.197 48.5003C245.066 48.5003 249.71 43.6265 249.71 37.6702ZM221.517 37.6702C221.517 27.7868 229.367 20.0697 239.197 20.0697C249.027 20.0697 256.945 27.7868 256.945 37.6702C256.945 47.4851 249.027 55.2697 239.197 55.2697C229.367 55.2697 221.517 47.4851 221.517 37.6702Z" fill="#11243E"/>
<path d="M289.497 11.7163V17.5443H271.01V30.391H285.423V36.219H271.01V55.2697H263.866V11.7163H289.497Z" fill="#11243E"/>
<path d="M310.428 55.8337C307.169 55.8337 304.224 55.1025 301.592 53.6403C298.96 52.1363 296.892 50.0474 295.388 47.3737C293.884 44.6581 293.132 41.5248 293.132 37.9737C293.132 34.4643 293.905 31.3519 295.451 28.6363C296.996 25.9208 299.106 23.8319 301.78 22.3697C304.454 20.9074 307.441 20.1763 310.741 20.1763C314.042 20.1763 317.029 20.9074 319.703 22.3697C322.376 23.8319 324.486 25.9208 326.032 28.6363C327.578 31.3519 328.351 34.4643 328.351 37.9737C328.351 41.483 327.557 44.5954 325.969 47.311C324.382 50.0265 322.209 52.1363 319.452 53.6403C316.736 55.1025 313.728 55.8337 310.428 55.8337ZM310.428 49.6297C312.266 49.6297 313.979 49.191 315.567 48.3137C317.196 47.4363 318.512 46.1203 319.515 44.3657C320.517 42.611 321.019 40.4803 321.019 37.9737C321.019 35.467 320.538 33.3572 319.577 31.6443C318.616 29.8897 317.342 28.5737 315.755 27.6963C314.167 26.819 312.454 26.3803 310.616 26.3803C308.778 26.3803 307.065 26.819 305.477 27.6963C303.932 28.5737 302.699 29.8897 301.78 31.6443C300.861 33.3572 300.401 35.467 300.401 37.9737C300.401 41.6919 301.341 44.5745 303.221 46.6217C305.143 48.627 307.545 49.6297 310.428 49.6297Z" fill="#11243E"/>
<path d="M341.89 25.7537C342.935 23.999 344.313 22.6412 346.026 21.6803C347.781 20.6777 349.849 20.1763 352.23 20.1763V27.571H350.413C347.614 27.571 345.483 28.2812 344.021 29.7017C342.6 31.1221 341.89 33.587 341.89 37.0963V55.2697H334.746V20.7403H341.89V25.7537Z" fill="#11243E"/>
<path d="M399.929 20.1763C402.645 20.1763 405.068 20.7403 407.198 21.8683C409.371 22.9963 411.063 24.6674 412.274 26.8817C413.528 29.0959 414.154 31.7697 414.154 34.903V55.2697H407.073V35.9683C407.073 32.8768 406.3 30.5163 404.754 28.887C403.209 27.2159 401.099 26.3803 398.425 26.3803C395.751 26.3803 393.621 27.2159 392.033 28.887C390.487 30.5163 389.714 32.8768 389.714 35.9683V55.2697H382.633V35.9683C382.633 32.8768 381.86 30.5163 380.314 28.887C378.769 27.2159 376.659 26.3803 373.985 26.3803C371.311 26.3803 369.181 27.2159 367.593 28.887C366.047 30.5163 365.274 32.8768 365.274 35.9683V55.2697H358.13V20.7403H365.274V24.6883C366.444 23.2679 367.927 22.1608 369.724 21.367C371.52 20.5732 373.442 20.1763 375.489 20.1763C378.246 20.1763 380.711 20.7612 382.884 21.931C385.056 23.1008 386.727 24.7928 387.897 27.007C388.941 24.9181 390.571 23.2679 392.785 22.0563C394.999 20.803 397.381 20.1763 399.929 20.1763Z" fill="#11243E"/>
<path fill-rule="evenodd" clip-rule="evenodd" d="M202.851 11.1027H210.734V20.2061H218.142V27.3631H210.734V41.0236C210.734 42.5857 210.795 43.8055 210.984 44.7592C211.172 45.711 211.485 46.3828 211.976 46.8633C212.468 47.3442 213.158 47.6514 214.136 47.8369C215.116 48.0226 216.369 48.0835 217.975 48.0835H218.142V55.436H216.858C211.538 55.436 208.016 54.6036 205.834 52.3627C203.652 50.1231 202.851 46.5188 202.851 41.094V27.3631H196.91V20.2061H202.851V11.1027ZM203.184 11.436V20.5394H197.244V27.0298H203.184V41.094C203.184 46.5084 203.99 49.9918 206.073 52.1301C208.154 54.2671 211.552 55.1027 216.858 55.1027H217.809V48.4167C216.277 48.4125 215.051 48.3496 214.074 48.1644C213.06 47.9722 212.299 47.6456 211.743 47.1017C211.186 46.5574 210.853 45.8135 210.657 44.8239C210.461 43.8363 210.4 42.589 210.4 41.0236V27.0298H217.809V20.5394H210.4V11.436H203.184ZM263.7 11.5493H289.664V17.7107H271.177V30.224H285.591V36.3853H271.177V55.436H263.7V11.5493ZM264.033 11.8827V55.1027H270.844V36.052H285.257V30.5573H270.844V17.3773H289.331V11.8827H264.033ZM80 19.9027H97.8804C107.754 19.9027 115.761 27.8561 115.761 37.6693V55.436H107.899V37.6693C107.899 32.1733 103.415 27.716 97.8804 27.716H87.8617V55.436H80V19.9027ZM80.3333 20.236V55.1027H87.5283V27.3827H97.8804C103.597 27.3827 108.232 31.9871 108.232 37.6693V55.1027H115.427V37.6693C115.427 28.0422 107.572 20.236 97.8804 20.236H80.3333ZM137.113 20.236C127.091 20.236 119.303 27.721 119.303 37.6711C119.303 42.6913 121.153 47.046 124.428 50.1462C127.703 53.2468 132.416 55.1027 138.159 55.1027C144.772 55.1027 149.039 52.8472 152.131 49.8005L147.622 45.0573C145.656 46.8897 142.447 48.6048 138.078 48.6048C134.959 48.6048 132.492 47.8142 130.681 46.39C128.868 44.9652 127.727 42.9183 127.24 40.4348L127.201 40.236H154.371C154.616 34.428 153.138 29.4472 150.207 25.912C147.252 22.3476 142.807 20.236 137.113 20.236ZM118.97 37.6711C118.97 27.5285 126.915 19.9027 137.113 19.9027C142.895 19.9027 147.439 22.0505 150.464 25.6992C153.486 29.345 154.979 34.4722 154.697 40.4105L154.69 40.5693H127.608C128.103 42.8979 129.195 44.7983 130.887 46.1279C132.626 47.4957 135.015 48.2714 138.078 48.2714C142.444 48.2714 145.615 46.5229 147.513 44.7017L147.634 44.5858L152.596 49.8067L152.482 49.9216C149.321 53.087 144.946 55.436 138.159 55.436C132.343 55.436 127.545 53.5555 124.199 50.3883C120.853 47.2207 118.97 42.7762 118.97 37.6711ZM176.083 20.236C166.061 20.236 158.274 27.721 158.274 37.6711C158.274 42.6913 160.123 47.046 163.398 50.1462C166.674 53.2468 171.386 55.1027 177.129 55.1027C183.742 55.1027 188.009 52.8472 191.101 49.8005L186.592 45.0573C184.626 46.8897 181.417 48.6048 177.048 48.6048C173.929 48.6048 171.462 47.8142 169.651 46.39C167.839 44.9652 166.698 42.9183 166.21 40.4348L166.171 40.236H193.342C193.586 34.428 192.108 29.4472 189.177 25.912C186.222 22.3476 181.777 20.236 176.083 20.236ZM157.94 37.6711C157.94 27.5285 165.885 19.9027 176.083 19.9027C181.865 19.9027 186.409 22.0505 189.434 25.6992C192.456 29.345 193.949 34.4722 193.667 40.4105L193.66 40.5693H166.578C167.073 42.8979 168.166 44.7983 169.857 46.1279C171.597 47.4957 173.985 48.2714 177.048 48.2714C181.414 48.2714 184.585 46.5229 186.483 44.7017L186.604 44.5858L191.567 49.8067L191.452 49.9216C188.291 53.087 183.916 55.436 177.129 55.436C171.313 55.436 166.515 53.5555 163.169 50.3883C159.823 47.2207 157.94 42.7762 157.94 37.6711ZM239.198 20.236C229.459 20.236 221.685 27.8799 221.685 37.6699C221.685 47.3918 229.459 55.1027 239.198 55.1027C248.937 55.1027 256.779 47.391 256.779 37.6699C256.779 27.8807 248.937 20.236 239.198 20.236ZM221.351 37.6699C221.351 27.6931 229.277 19.9027 239.198 19.9027C249.117 19.9027 257.112 27.6923 257.112 37.6699C257.112 47.5786 249.118 55.436 239.198 55.436C229.277 55.436 221.351 47.5777 221.351 37.6699ZM310.742 20.3427C307.467 20.3427 304.508 21.0678 301.861 22.5156C299.215 23.9626 297.127 26.029 295.596 28.7184C294.066 31.4059 293.299 34.4893 293.299 37.9733C293.299 41.5 294.046 44.6045 295.534 47.2918C297.023 49.9391 299.069 52.0058 301.674 53.4945C304.279 54.9417 307.196 55.6667 310.429 55.6667C313.703 55.6667 316.683 54.9416 319.373 53.4937C322.104 52.0042 324.254 49.916 325.826 47.2265C327.397 44.5394 328.185 41.4566 328.185 37.9733C328.185 34.4893 327.418 31.4059 325.888 28.7184C324.357 26.029 322.269 23.9626 319.623 22.5156C316.976 21.0678 314.017 20.3427 310.742 20.3427ZM301.701 22.2231C304.401 20.7464 307.416 20.0093 310.742 20.0093C314.068 20.0093 317.083 20.7464 319.783 22.2231C322.485 23.7005 324.617 25.8118 326.177 28.5535C327.739 31.2972 328.518 34.4387 328.518 37.9733C328.518 41.5087 327.718 44.6508 326.114 47.3948C324.511 50.1365 322.316 52.2678 319.532 53.7863C316.791 55.2625 313.755 56 310.429 56C307.144 56 304.17 55.2628 301.512 53.7857L301.51 53.7847C298.851 52.2656 296.762 50.1548 295.243 47.455L295.243 47.4541C293.723 44.7104 292.966 41.5486 292.966 37.9733C292.966 34.4387 293.745 31.2972 295.306 28.5535C296.867 25.8118 298.999 23.7005 301.701 22.2231ZM352.064 20.3435C349.777 20.3664 347.794 20.8621 346.11 21.8247L346.108 21.8254C344.422 22.7714 343.064 24.108 342.034 25.8386L341.724 26.3592V20.9067H334.914V55.1027H341.724V37.096C341.724 33.573 342.436 31.0516 343.904 29.5835L343.905 29.5818C345.409 28.1213 347.588 27.404 350.414 27.404H352.064V20.3435ZM345.944 21.5353C347.728 20.5159 349.826 20.0093 352.231 20.0093H352.398V27.7373H350.414C347.642 27.7373 345.56 28.4399 344.139 29.8194C342.767 31.1922 342.058 33.6005 342.058 37.096V55.436H334.58V20.5733H342.058V25.1736C343.074 23.6322 344.37 22.4186 345.944 21.5353ZM375.49 20.3427C373.465 20.3427 371.566 20.7351 369.792 21.5191C368.017 22.3031 366.556 23.3949 365.404 24.7939L365.108 25.1525V20.9067H358.298V55.1027H365.108V35.968C365.108 32.85 365.888 30.4423 367.473 28.7719C369.097 27.0623 371.274 26.2133 373.986 26.2133C376.697 26.2133 378.854 27.062 380.436 28.7725C382.021 30.4429 382.8 32.8504 382.8 35.968V55.1027H389.548V35.968C389.548 32.85 390.328 30.4423 391.913 28.7719C393.537 27.0623 395.714 26.2133 398.426 26.2133C401.137 26.2133 403.294 27.062 404.876 28.7725C406.461 30.4429 407.24 32.8504 407.24 35.968V55.1027H413.988V34.9027C413.988 31.7915 413.366 29.1474 412.13 26.9634L412.129 26.9613C410.933 24.7752 409.264 23.1282 407.122 22.0159L407.121 22.0153C405.017 20.9015 402.622 20.3427 399.93 20.3427C397.41 20.3427 395.057 20.9619 392.868 22.201L392.866 22.2022C390.679 23.3988 389.075 25.0252 388.047 27.0812L387.902 27.3712L387.75 27.0845C386.596 24.8991 384.948 23.2313 382.805 22.0774C380.66 20.9222 378.223 20.3427 375.49 20.3427ZM369.657 21.2142C371.476 20.4107 373.42 20.0093 375.49 20.0093C378.271 20.0093 380.764 20.5996 382.963 21.7839C385.073 22.9202 386.718 24.5436 387.894 26.6509C388.958 24.662 390.564 23.0817 392.705 21.91C394.944 20.6431 397.353 20.0093 399.93 20.0093C402.668 20.0093 405.118 20.5782 407.276 21.7201C409.478 22.8636 411.194 24.5583 412.42 26.7999C413.691 29.0442 414.322 31.7474 414.322 34.9027V55.436H406.907V35.968C406.907 32.9028 406.141 30.5897 404.634 29.0014L404.633 28.9998C403.124 27.3688 401.062 26.5467 398.426 26.5467C395.79 26.5467 393.705 27.3688 392.154 29.0014C390.648 30.5897 389.882 32.9028 389.882 35.968V55.436H382.467V35.968C382.467 32.9028 381.701 30.5897 380.194 29.0014L380.193 28.9998C378.684 27.3688 376.622 26.5467 373.986 26.5467C371.35 26.5467 369.265 27.3688 367.714 29.0014C366.208 30.5897 365.442 32.9028 365.442 35.968V55.436H357.964V20.5733H365.442V24.2374C366.58 22.9601 367.986 21.9526 369.657 21.2142ZM305.397 27.5501C307.01 26.659 308.751 26.2133 310.617 26.2133C312.483 26.2133 314.223 26.659 315.836 27.5501C317.454 28.4442 318.749 29.7841 319.724 31.5631C320.702 33.3068 321.186 35.4462 321.186 37.9733C321.186 40.5021 320.68 42.6628 319.66 44.448C318.644 46.2268 317.306 47.566 315.647 48.4595C314.035 49.3505 312.294 49.796 310.429 49.796C307.502 49.796 305.056 48.7762 303.102 46.7366L303.099 46.7341C301.183 44.647 300.235 41.7189 300.235 37.9733C300.235 35.4473 300.698 33.309 301.633 31.566C302.566 29.7867 303.819 28.4458 305.396 27.551L305.397 27.5501ZM305.559 27.8415C304.045 28.7013 302.834 29.9921 301.928 31.7213L301.928 31.7228C301.025 33.4054 300.569 35.4864 300.569 37.9733C300.569 41.6634 301.501 44.5002 303.344 46.5074C305.232 48.4776 307.59 49.4627 310.429 49.4627C312.239 49.4627 313.924 49.031 315.487 48.1675L315.488 48.1666C317.088 47.3054 318.382 46.0128 319.371 44.2826C320.356 42.5585 320.853 40.4579 320.853 37.9733C320.853 35.4875 320.376 33.4076 319.433 31.7255L319.432 31.724C318.484 29.9941 317.232 28.7024 315.675 27.8419C314.112 26.9784 312.427 26.5467 310.617 26.5467C308.806 26.5467 307.122 26.9782 305.559 27.8415ZM130.598 28.7715C132.308 27.3878 134.555 26.6561 137.195 26.6561C140.039 26.6561 142.189 27.5113 143.72 28.9614C145.249 30.4093 146.144 32.4355 146.509 34.7508L146.539 34.9434H127.202L127.24 34.7457C127.727 32.1812 128.888 30.1555 130.598 28.7715ZM127.606 34.6101C128.102 32.2059 129.211 30.3226 130.808 29.0306C132.449 27.7031 134.617 26.9894 137.195 26.9894C139.969 26.9894 142.032 27.8214 143.491 29.2034C144.91 30.5481 145.772 32.4277 146.148 34.6101H127.606ZM169.569 28.7715C171.279 27.3878 173.525 26.6561 176.165 26.6561C179.009 26.6561 181.16 27.5113 182.69 28.9614C184.219 30.4093 185.114 32.4355 185.479 34.7508L185.509 34.9434H166.172L166.21 34.7457C166.697 32.1812 167.858 30.1555 169.569 28.7715ZM166.576 34.6101C167.072 32.2059 168.182 30.3226 169.778 29.0306C171.419 27.7031 173.587 26.9894 176.165 26.9894C178.939 26.9894 181.002 27.8214 182.461 29.2034C183.881 30.5481 184.743 32.4277 185.118 34.6101H166.576ZM228.587 37.6699C228.587 31.6275 233.228 26.672 239.198 26.672C245.165 26.672 249.877 31.626 249.877 37.6699C249.877 43.7126 245.165 48.6666 239.198 48.6666C233.228 48.6666 228.587 43.7112 228.587 37.6699ZM239.198 27.0054C233.426 27.0054 228.92 31.7974 228.92 37.6699C228.92 43.5412 233.426 48.3333 239.198 48.3333C244.97 48.3333 249.544 43.5398 249.544 37.6699C249.544 31.7989 244.97 27.0054 239.198 27.0054Z" fill="#11243E"/>
<defs>
<linearGradient id="paint0_linear_3239_10950" x1="33.5701" y1="75.2897" x2="33.3458" y2="13.6075" gradientUnits="userSpaceOnUse">
<stop stop-color="#E26682"/>
<stop offset="1" stop-color="#FE8072"/>
</linearGradient>
</defs>
</svg>
