<svg width="516" height="65" viewBox="0 0 516 65" fill="none" xmlns="http://www.w3.org/2000/svg">
<path d="M48 32.9956C48 19.7408 37.2548 8.99561 24 8.99561H0V56.9956H48V32.9956Z" fill="url(#paint0_linear_3688_21620)"/>
<g filter="url(#filter0_d_3688_21620)">
<path fill-rule="evenodd" clip-rule="evenodd" d="M18.7575 22.5012C14.3425 22.5012 10.7634 26.0803 10.7634 30.4953C10.7634 34.9104 14.3425 38.4895 18.7575 38.4895V39.6523C13.7003 39.6523 9.60059 35.5526 9.60059 30.4953C9.60059 25.4381 13.7003 21.3384 18.7575 21.3384C23.8148 21.3384 27.9145 25.4381 27.9145 30.4953H26.7517C26.7517 26.0803 23.1726 22.5012 18.7575 22.5012Z" fill="white"/>
<path fill-rule="evenodd" clip-rule="evenodd" d="M18.7568 26.2805C16.4289 26.2805 14.5417 28.1676 14.5417 30.4956C14.5417 32.8235 16.4289 34.7107 18.7568 34.7107V35.8735C15.7867 35.8735 13.3789 33.4657 13.3789 30.4956C13.3789 27.5254 15.7867 25.1177 18.7568 25.1177C21.7269 25.1177 24.1347 27.5254 24.1347 30.4956H22.9719C22.9719 28.1676 21.0847 26.2805 18.7568 26.2805Z" fill="white"/>
<path d="M18.597 31.0906C18.4917 30.8012 18.7723 30.5207 19.0617 30.6259L37.9732 37.5036C38.2926 37.6197 38.2911 38.0719 37.9709 38.1859L29.3283 41.2633C29.2248 41.3002 29.1435 41.382 29.1075 41.4859L26.1537 49.9858C26.0417 50.3081 25.5871 50.3114 25.4704 49.9907L18.597 31.0906Z" fill="white"/>
</g>
<path fill-rule="evenodd" clip-rule="evenodd" d="M90.0873 21.6226H73.2401L81.5759 29.8206H90.0873C95.4515 29.8206 99.7952 34.0714 99.7952 39.3091V56.9956H108.175V39.3091C108.175 29.5385 100.074 21.6226 90.0873 21.6226ZM80.3794 31.0143L72 22.7734V56.9956H80.3794V31.0143ZM144.982 51.2125L139.664 45.7081L139.346 46.009C137.501 47.751 134.408 49.4336 130.135 49.4336C127.13 49.4336 124.814 48.6851 123.14 47.3898C121.593 46.1932 120.559 44.5034 120.047 42.4212H146.946L146.966 42.0092C147.249 36.1373 145.75 31.0399 142.686 27.4026C139.615 23.7575 135.007 21.6226 129.173 21.6226C118.87 21.6226 110.825 29.2122 110.825 39.3108C110.825 44.3842 112.728 48.8137 116.12 51.9734C119.511 55.1321 124.362 56.9956 130.216 56.9956C137.052 56.9956 141.48 54.663 144.679 51.5107L144.982 51.2125ZM183.807 51.2125L178.49 45.7081L178.171 46.009C176.326 47.751 173.233 49.4336 168.96 49.4336C165.955 49.4336 163.639 48.6851 161.965 47.3898C160.418 46.1932 159.385 44.5034 158.872 42.4212H185.771L185.791 42.0092C186.074 36.1373 184.575 31.0399 181.511 27.4026C178.44 23.7575 173.832 21.6226 167.999 21.6226C157.695 21.6226 149.65 29.2122 149.65 39.3108C149.65 44.3842 151.553 48.8137 154.945 51.9734C158.336 55.1321 163.187 56.9956 169.041 56.9956C175.877 56.9956 180.305 54.663 183.504 51.5107L183.807 51.2125ZM194.393 21.9201H188.475V29.4747H194.393V42.6664C194.393 47.9929 195.189 51.6241 197.443 53.9013C199.701 56.1821 203.311 56.9956 208.622 56.9956H210.175V49.2494H209.735C208.138 49.2494 206.91 49.1894 205.961 49.0123C205.015 48.8359 204.387 48.5505 203.95 48.1299C203.514 47.7103 203.22 47.1098 203.038 46.2073C202.856 45.2997 202.794 44.1261 202.794 42.5975V29.4747H210.175V21.9201H202.794V12.9956H194.393V21.9201ZM129.255 29.1083C131.961 29.1083 133.946 29.9051 135.34 31.205C136.632 32.4093 137.453 34.0787 137.846 36.0409H120.043C120.557 33.8916 121.603 32.2136 123.065 31.0494C124.642 29.7934 126.738 29.1083 129.255 29.1083ZM168.081 29.1083C170.786 29.1083 172.771 29.9051 174.165 31.205C175.457 32.4093 176.278 34.0787 176.672 36.0409H158.868C159.382 33.8916 160.428 32.2136 161.89 31.0494C163.467 29.7934 165.563 29.1083 168.081 29.1083ZM230.879 29.1239C236.469 29.1239 240.913 33.6936 240.913 39.3097C240.913 44.9246 236.469 49.4943 230.879 49.4943C225.291 49.4943 220.913 44.9284 220.913 39.3097C220.913 33.6898 225.291 29.1239 230.879 29.1239ZM230.879 21.6226C220.846 21.6226 212.825 29.3783 212.825 39.3097C212.825 49.1728 220.845 56.9956 230.879 56.9956C240.91 56.9956 249 49.175 249 39.3097C249 29.3761 240.909 21.6226 230.879 21.6226Z" fill="#11243E"/>
<path d="M264.098 12.3849V56.1263H255.324V12.3849H264.098Z" fill="#11243E"/>
<path d="M291.338 20.9076C295.474 20.9076 298.816 22.2236 301.364 24.8556C303.913 27.4458 305.187 31.0805 305.187 35.7596V56.1263H296.414V36.9503C296.414 34.1929 295.724 32.0832 294.346 30.6209C292.967 29.1169 291.087 28.3649 288.706 28.3649C286.283 28.3649 284.361 29.1169 282.94 30.6209C281.562 32.0832 280.872 34.1929 280.872 36.9503V56.1263H272.099V21.4089H280.872V25.7329C282.042 24.2289 283.525 23.0592 285.322 22.2236C287.16 21.3463 289.165 20.9076 291.338 20.9076Z" fill="#11243E"/>
<path d="M327.339 48.0423L336.113 21.4089H345.45L332.603 56.1263H321.95L309.166 21.4089H318.566L327.339 48.0423Z" fill="#11243E"/>
<path d="M354.16 17.2729C352.614 17.2729 351.319 16.7925 350.275 15.8316C349.272 14.8289 348.771 13.5965 348.771 12.1343C348.771 10.6721 349.272 9.46049 350.275 8.4996C351.319 7.49694 352.614 6.99561 354.16 6.99561C355.706 6.99561 356.98 7.49694 357.983 8.4996C359.027 9.46049 359.55 10.6721 359.55 12.1343C359.55 13.5965 359.027 14.8289 357.983 15.8316C356.98 16.7925 355.706 17.2729 354.16 17.2729ZM358.484 21.4089V56.1263H349.711V21.4089H358.484Z" fill="#11243E"/>
<path d="M379.771 56.6903C376.93 56.6903 374.382 56.1889 372.126 55.1863C369.87 54.1418 368.073 52.7423 366.736 50.9876C365.441 49.2329 364.731 47.2903 364.606 45.1596H373.442C373.609 46.4965 374.256 47.6036 375.384 48.4809C376.554 49.3583 377.995 49.7969 379.708 49.7969C381.379 49.7969 382.675 49.4627 383.594 48.7943C384.555 48.1258 385.035 47.2694 385.035 46.2249C385.035 45.0969 384.45 44.2614 383.28 43.7183C382.152 43.1334 380.335 42.5067 377.828 41.8383C375.238 41.2116 373.107 40.5641 371.436 39.8956C369.807 39.2272 368.387 38.2036 367.175 36.8249C366.005 35.4463 365.42 33.5872 365.42 31.2476C365.42 29.3258 365.963 27.5712 367.05 25.9836C368.178 24.396 369.765 23.1427 371.812 22.2236C373.901 21.3045 376.345 20.8449 379.144 20.8449C383.28 20.8449 386.581 21.8894 389.046 23.9783C391.511 26.0254 392.868 28.8036 393.119 32.3129H384.722C384.596 30.9343 384.011 29.8481 382.967 29.0543C381.964 28.2187 380.607 27.8009 378.894 27.8009C377.306 27.8009 376.074 28.0934 375.196 28.6783C374.361 29.2632 373.943 30.0778 373.943 31.1223C373.943 32.2921 374.528 33.1903 375.698 33.8169C376.867 34.4018 378.685 35.0076 381.15 35.6343C383.656 36.2609 385.724 36.9085 387.354 37.5769C388.983 38.2454 390.383 39.2898 391.552 40.7103C392.764 42.0889 393.391 43.9272 393.432 46.2249C393.432 48.2303 392.868 50.0267 391.74 51.6143C390.654 53.2018 389.067 54.4552 386.978 55.3743C384.931 56.2516 382.528 56.6903 379.771 56.6903Z" fill="#11243E"/>
<path d="M404.417 17.2729C402.871 17.2729 401.576 16.7925 400.531 15.8316C399.529 14.8289 399.027 13.5965 399.027 12.1343C399.027 10.6721 399.529 9.46049 400.531 8.4996C401.576 7.49694 402.871 6.99561 404.417 6.99561C405.963 6.99561 407.237 7.49694 408.239 8.4996C409.284 9.46049 409.806 10.6721 409.806 12.1343C409.806 13.5965 409.284 14.8289 408.239 15.8316C407.237 16.7925 405.963 17.2729 404.417 17.2729ZM408.741 21.4089V56.1263H399.967V21.4089H408.741Z" fill="#11243E"/>
<path d="M425.516 26.4849C426.644 24.8138 428.189 23.4561 430.153 22.4116C432.158 21.3672 434.435 20.8449 436.984 20.8449C439.95 20.8449 442.624 21.5761 445.005 23.0383C447.428 24.5005 449.329 26.5894 450.708 29.3049C452.128 31.9787 452.838 35.0912 452.838 38.6423C452.838 42.1934 452.128 45.3476 450.708 48.1049C449.329 50.8205 447.428 52.9303 445.005 54.4343C442.624 55.9383 439.95 56.6903 436.984 56.6903C434.393 56.6903 432.116 56.1889 430.153 55.1863C428.231 54.1418 426.685 52.8049 425.516 51.1756V56.1263H416.742V9.75294H425.516V26.4849ZM443.877 38.6423C443.877 36.5534 443.438 34.7569 442.561 33.2529C441.725 31.7072 440.597 30.5374 439.177 29.7436C437.798 28.9498 436.294 28.5529 434.665 28.5529C433.077 28.5529 431.573 28.9707 430.153 29.8063C428.774 30.6001 427.646 31.7698 426.769 33.3156C425.933 34.8614 425.516 36.6787 425.516 38.7676C425.516 40.8565 425.933 42.6738 426.769 44.2196C427.646 45.7654 428.774 46.9561 430.153 47.7916C431.573 48.5854 433.077 48.9823 434.665 48.9823C436.294 48.9823 437.798 48.5645 439.177 47.7289C440.597 46.8934 441.725 45.7027 442.561 44.1569C443.438 42.6112 443.877 40.7729 443.877 38.6423Z" fill="#11243E"/>
<path d="M467.32 9.75294V56.1263H458.547V9.75294H467.32Z" fill="#11243E"/>
<path d="M507.595 38.0156C507.595 39.2689 507.511 40.3969 507.344 41.3996H481.964C482.173 43.9063 483.051 45.8698 484.596 47.2903C486.142 48.7107 488.043 49.4209 490.299 49.4209C493.558 49.4209 495.876 48.0214 497.255 45.2223H506.718C505.715 48.5645 503.793 51.3218 500.952 53.4943C498.111 55.6249 494.623 56.6903 490.487 56.6903C487.145 56.6903 484.137 55.9592 481.463 54.4969C478.831 52.9929 476.763 50.8832 475.259 48.1676C473.797 45.4521 473.066 42.3187 473.066 38.7676C473.066 35.1747 473.797 32.0205 475.259 29.3049C476.721 26.5894 478.768 24.5005 481.4 23.0383C484.032 21.5761 487.061 20.8449 490.487 20.8449C493.787 20.8449 496.733 21.5552 499.323 22.9756C501.955 24.3961 503.981 26.4223 505.402 29.0543C506.864 31.6445 507.595 34.6316 507.595 38.0156ZM498.508 35.5089C498.467 33.2529 497.652 31.4565 496.064 30.1196C494.477 28.7409 492.534 28.0516 490.236 28.0516C488.064 28.0516 486.226 28.7201 484.722 30.0569C483.259 31.3521 482.361 33.1694 482.027 35.5089H498.508Z" fill="#11243E"/>
<defs>
<filter id="filter0_d_3688_21620" x="9.60059" y="21.3384" width="34.6113" height="35.8911" filterUnits="userSpaceOnUse" color-interpolation-filters="sRGB">
<feFlood flood-opacity="0" result="BackgroundImageFix"/>
<feColorMatrix in="SourceAlpha" type="matrix" values="0 0 0 0 0 0 0 0 0 0 0 0 0 0 0 0 0 0 127 0" result="hardAlpha"/>
<feOffset dx="3" dy="4"/>
<feGaussianBlur stdDeviation="1.5"/>
<feComposite in2="hardAlpha" operator="out"/>
<feColorMatrix type="matrix" values="0 0 0 0 0 0 0 0 0 0 0 0 0 0 0 0 0 0 0.05 0"/>
<feBlend mode="normal" in2="BackgroundImageFix" result="effect1_dropShadow_3688_21620"/>
<feBlend mode="normal" in="SourceGraphic" in2="effect1_dropShadow_3688_21620" result="shape"/>
</filter>
<linearGradient id="paint0_linear_3688_21620" x1="51.7714" y1="71.2242" x2="-15.6" y2="-16.7187" gradientUnits="userSpaceOnUse">
<stop stop-color="#28CCF0"/>
<stop offset="0.6986" stop-color="#799DFA"/>
</linearGradient>
</defs>
</svg>
