<svg width="516" height="153" viewBox="0 0 516 153" fill="none" xmlns="http://www.w3.org/2000/svg">
  <g data-logo-icon="neeto-typeface-logo__icon">
  <path d="M129.695 8.44141H79.8232V83.7385L129.695 8.44141Z" fill="#0DA84C"/>
  <path d="M14.305 8.44141H79.8232L79.8232 42.6674H14.305V8.44141Z" fill="#5BCC5A"/>
  <path d="M45.5973 135.567L45.5973 8.44216L79.8232 8.44141V83.7385L45.5973 135.567Z" fill="#75DC66"/>
  </g>
  <g data-logo-text="neeto-typeface-logo__text">
  <path d="M227.543 54.9492V67.9795H206.094V135.437H189.951V67.9795H168.503V54.9492H227.543Z" fill="black" data-dark-mode-color="true"/>
  <path d="M265.382 136.475C259.232 136.475 253.697 135.13 248.777 132.439C243.857 129.672 239.975 125.79 237.131 120.793C234.363 115.796 232.979 110.03 232.979 103.496C232.979 96.9614 234.401 91.1958 237.246 86.1989C240.167 81.202 244.126 77.3583 249.123 74.6677C254.12 71.9002 259.693 70.5164 265.843 70.5164C271.993 70.5164 277.567 71.9002 282.564 74.6677C287.561 77.3583 291.481 81.202 294.326 86.1989C297.247 91.1958 298.707 96.9614 298.707 103.496C298.707 110.03 297.208 115.796 294.21 120.793C291.289 125.79 287.291 129.672 282.218 132.439C277.221 135.13 271.609 136.475 265.382 136.475ZM265.382 122.407C268.303 122.407 271.032 121.715 273.569 120.331C276.183 118.871 278.259 116.718 279.796 113.874C281.334 111.03 282.102 107.57 282.102 103.496C282.102 97.4227 280.488 92.7717 277.259 89.543C274.107 86.2373 270.225 84.5845 265.613 84.5845C261 84.5845 257.118 86.2373 253.966 89.543C250.891 92.7717 249.354 97.4227 249.354 103.496C249.354 109.569 250.853 114.258 253.851 117.564C256.926 120.793 260.77 122.407 265.382 122.407Z" fill="black" data-dark-mode-color="true"/>
  <path d="M396.803 71.5542L378.123 135.437H360.71L349.064 90.8114L337.417 135.437H319.89L301.094 71.5542H317.468L328.769 120.216L340.992 71.5542H358.058L370.051 120.101L381.351 71.5542H396.803Z" fill="black" data-dark-mode-color="true"/>
  <path d="M462.618 102.112C462.618 104.418 462.464 106.494 462.157 108.339H415.455C415.839 112.951 417.454 116.565 420.298 119.178C423.143 121.792 426.64 123.099 430.792 123.099C436.788 123.099 441.054 120.524 443.591 115.373H461.003C459.158 121.523 455.622 126.597 450.395 130.594C445.167 134.515 438.748 136.475 431.138 136.475C424.988 136.475 419.453 135.13 414.533 132.439C409.689 129.672 405.884 125.79 403.117 120.793C400.426 115.796 399.081 110.03 399.081 103.496C399.081 96.8845 400.426 91.0805 403.117 86.0836C405.807 81.0867 409.574 77.243 414.417 74.5523C419.26 71.8617 424.834 70.5164 431.138 70.5164C437.211 70.5164 442.63 71.8233 447.397 74.437C452.24 77.0508 455.968 80.7792 458.582 85.6223C461.273 90.3886 462.618 95.8852 462.618 102.112ZM445.898 97.4995C445.821 93.3483 444.322 90.0427 441.4 87.5827C438.479 85.0458 434.904 83.7773 430.676 83.7773C426.679 83.7773 423.296 85.0073 420.529 87.4673C417.838 89.8505 416.185 93.1945 415.57 97.4995H445.898Z" fill="black" data-dark-mode-color="true"/>
  <path d="M488.239 81.4711C490.314 78.0886 493.005 75.4364 496.311 73.5145C499.693 71.5927 503.537 70.6317 507.842 70.6317V87.5827H503.575C498.502 87.5827 494.658 88.7742 492.044 91.1573C489.507 93.5405 488.239 97.6917 488.239 103.611V135.437H472.095V71.5542H488.239V81.4711Z" fill="black" data-dark-mode-color="true"/>
  <path d="M229.747 25.3847C229.747 26.2481 229.689 27.0252 229.574 27.716H212.103C212.247 29.4429 212.851 30.7956 213.915 31.7742C214.979 32.7527 216.288 33.242 217.841 33.242C220.084 33.242 221.68 32.2778 222.629 30.3495H229.143C228.452 32.652 227.13 34.5516 225.174 36.0482C223.218 37.5161 220.817 38.25 217.97 38.25C215.669 38.25 213.599 37.7463 211.758 36.739C209.947 35.7028 208.523 34.2494 207.488 32.3786C206.481 30.5078 205.978 28.3492 205.978 25.9028C205.978 23.4275 206.481 21.2545 207.488 19.3837C208.494 17.513 209.903 16.0739 211.715 15.0665C213.527 14.0592 215.612 13.5555 217.97 13.5555C220.242 13.5555 222.269 14.0448 224.052 15.0234C225.864 16.0019 227.259 17.3978 228.237 19.2111C229.243 20.9955 229.747 23.0534 229.747 25.3847ZM223.492 23.6578C223.463 22.1036 222.902 20.866 221.809 19.945C220.716 18.9952 219.379 18.5203 217.798 18.5203C216.302 18.5203 215.037 18.9808 214.001 19.9018C212.995 20.794 212.377 22.046 212.147 23.6578H223.492Z" fill="black" data-dark-mode-color="true"/>
  <path d="M256.37 25.3847C256.37 26.2481 256.313 27.0252 256.198 27.716H238.727C238.871 29.4429 239.475 30.7956 240.539 31.7742C241.603 32.7527 242.911 33.242 244.464 33.242C246.708 33.242 248.304 32.2778 249.253 30.3495H255.766C255.076 32.652 253.753 34.5516 251.798 36.0482C249.842 37.5161 247.441 38.25 244.594 38.25C242.293 38.25 240.223 37.7463 238.382 36.739C236.57 35.7028 235.147 34.2494 234.111 32.3786C233.105 30.5078 232.602 28.3492 232.602 25.9028C232.602 23.4275 233.105 21.2545 234.111 19.3837C235.118 17.513 236.527 16.0739 238.339 15.0665C240.151 14.0592 242.236 13.5555 244.594 13.5555C246.866 13.5555 248.893 14.0448 250.676 15.0234C252.488 16.0019 253.883 17.3978 254.861 19.2111C255.867 20.9955 256.37 23.0534 256.37 25.3847ZM250.115 23.6578C250.087 22.1036 249.526 20.866 248.433 19.945C247.34 18.9952 246.003 18.5203 244.421 18.5203C242.926 18.5203 241.661 18.9808 240.625 19.9018C239.619 20.794 239 22.046 238.77 23.6578H250.115Z" fill="black" data-dark-mode-color="true"/>
  <path d="M267.91 18.8624V30.5365C267.91 31.3424 268.122 31.8749 268.496 32.249C268.899 32.5944 269.56 32.7671 270.481 32.7671H273.285V37.8614H269.488C264.398 37.8614 261.963 35.258 261.963 30.3076V18.8624H258.761V13.8265H261.963V7.875H267.91V13.8265H273.285V18.8624H267.91Z" fill="black" data-dark-mode-color="true"/>
  <path d="M288.114 38.25C285.814 38.25 283.743 37.7463 281.903 36.739C280.062 35.7028 278.61 34.2494 277.546 32.3786C276.51 30.5078 275.993 28.3492 275.993 25.9028C275.993 23.4563 276.525 21.2977 277.589 19.4269C278.682 17.5561 280.163 16.1171 282.032 15.1097C283.901 14.0736 285.986 13.5555 288.287 13.5555C290.587 13.5555 292.672 14.0736 294.542 15.1097C296.411 16.1171 297.878 17.5561 298.942 19.4269C300.035 21.2977 300.581 23.4563 300.581 25.9028C300.581 28.3492 300.02 30.5078 298.899 32.3786C297.806 34.2494 296.31 35.7028 294.412 36.739C292.543 37.7463 290.444 38.25 288.114 38.25ZM288.114 32.983C289.207 32.983 290.228 32.724 291.177 32.2059C292.155 31.659 292.931 30.8532 293.506 29.7882C294.082 28.7233 294.369 27.4282 294.369 25.9028C294.369 23.629 293.765 21.8877 292.557 20.6789C291.378 19.4413 289.926 18.8225 288.201 18.8225C286.475 18.8225 285.023 19.4413 283.844 20.6789C282.693 21.8877 282.118 23.629 282.118 25.9028C282.118 28.1765 282.679 29.9322 283.801 31.1698C284.951 32.3786 286.389 32.983 288.114 32.983Z" fill="black" data-dark-mode-color="true"/>
  <path d="M200.877 7.875H189.283L200.877 25.2653V7.875Z" fill="black" data-dark-mode-color="true"/>
  <path d="M172.125 38.25L172.125 7.875H180.497L200.877 38.25H192.261L178.849 18.541V38.25H172.125Z" fill="black" data-dark-mode-color="true"/>
  </g>
</svg>
