<svg width="591" height="65" viewBox="0 0 591 65" fill="none" xmlns="http://www.w3.org/2000/svg">
<path d="M48 32.9956C48 19.7408 37.2548 8.99561 24 8.99561H0V56.9956H48V32.9956Z" fill="url(#paint0_linear_3688_21410)"/>
<g filter="url(#filter0_d_3688_21410)">
<rect x="20.9277" y="24.7661" width="13.3561" height="5.37313" rx="0.511727" fill="white"/>
<rect x="13.7139" y="31.981" width="13.3561" height="13.3561" rx="0.511727" fill="white"/>
<circle cx="16.4004" cy="27.4527" r="2.68657" fill="white"/>
<rect x="28.9131" y="45.3384" width="13.3561" height="5.37314" rx="0.511727" transform="rotate(-90 28.9131 45.3384)" fill="white"/>
</g>
<path fill-rule="evenodd" clip-rule="evenodd" d="M90.0873 21.627H73.2401L81.5759 29.825H90.0873C95.4515 29.825 99.7952 34.0758 99.7952 39.3135V57H108.175V39.3135C108.175 29.5429 100.074 21.627 90.0873 21.627ZM80.3794 31.0187L72 22.7778V57H80.3794V31.0187ZM144.982 51.2169L139.664 45.7125L139.346 46.0134C137.501 47.7554 134.408 49.438 130.135 49.438C127.13 49.438 124.814 48.6895 123.14 47.3942C121.593 46.1976 120.559 44.5078 120.047 42.4256H146.946L146.966 42.0135C147.249 36.1417 145.75 31.0443 142.686 27.407C139.615 23.7619 135.007 21.627 129.173 21.627C118.87 21.627 110.825 29.2166 110.825 39.3152C110.825 44.3885 112.728 48.8181 116.12 51.9778C119.511 55.1365 124.362 57 130.216 57C137.052 57 141.48 54.6674 144.679 51.5151L144.982 51.2169ZM183.807 51.2169L178.49 45.7125L178.171 46.0134C176.326 47.7554 173.233 49.438 168.96 49.438C165.955 49.438 163.639 48.6895 161.965 47.3942C160.418 46.1976 159.385 44.5078 158.872 42.4256H185.771L185.791 42.0135C186.074 36.1417 184.575 31.0443 181.511 27.407C178.44 23.7619 173.832 21.627 167.999 21.627C157.695 21.627 149.65 29.2166 149.65 39.3152C149.65 44.3885 151.553 48.8181 154.945 51.9778C158.336 55.1365 163.187 57 169.041 57C175.877 57 180.305 54.6674 183.504 51.5151L183.807 51.2169ZM194.393 21.9245H188.475V29.4791H194.393V42.6708C194.393 47.9973 195.189 51.6285 197.443 53.9057C199.701 56.1865 203.311 57 208.622 57H210.175V49.2538H209.735C208.138 49.2538 206.91 49.1938 205.961 49.0167C205.015 48.8403 204.387 48.5548 203.95 48.1343C203.514 47.7147 203.22 47.1142 203.038 46.2117C202.856 45.3041 202.794 44.1305 202.794 42.6019V29.4791H210.175V21.9245H202.794V13H194.393V21.9245ZM129.255 29.1127C131.961 29.1127 133.946 29.9095 135.34 31.2094C136.632 32.4137 137.453 34.0831 137.846 36.0453H120.043C120.557 33.8959 121.603 32.218 123.065 31.0538C124.642 29.7977 126.738 29.1127 129.255 29.1127ZM168.081 29.1127C170.786 29.1127 172.771 29.9095 174.165 31.2094C175.457 32.4137 176.278 34.0831 176.672 36.0453H158.868C159.382 33.8959 160.428 32.218 161.89 31.0538C163.467 29.7977 165.563 29.1127 168.081 29.1127ZM230.879 29.1283C236.469 29.1283 240.913 33.698 240.913 39.3141C240.913 44.929 236.469 49.4986 230.879 49.4986C225.291 49.4986 220.913 44.9328 220.913 39.3141C220.913 33.6942 225.291 29.1283 230.879 29.1283ZM230.879 21.627C220.846 21.627 212.825 29.3827 212.825 39.3141C212.825 49.1772 220.845 57 230.879 57C240.91 57 249 49.1794 249 39.3141C249 29.3805 240.909 21.627 230.879 21.627Z" fill="#11243E"/>
<path d="M313.792 13.5158L301.572 57.2571H291.232L283.023 26.1118L274.438 57.2571L264.16 57.3198L252.379 13.5158H261.779L269.487 47.4811L278.386 13.5158H288.162L296.559 47.2931L304.33 13.5158H313.792Z" fill="#11243E"/>
<path d="M323.304 18.4038C321.758 18.4038 320.463 17.9234 319.418 16.9625C318.416 15.9598 317.914 14.7274 317.914 13.2651C317.914 11.8029 318.416 10.5914 319.418 9.63046C320.463 8.6278 321.758 8.12646 323.304 8.12646C324.849 8.12646 326.124 8.6278 327.126 9.63046C328.171 10.5914 328.693 11.8029 328.693 13.2651C328.693 14.7274 328.171 15.9598 327.126 16.9625C326.124 17.9234 324.849 18.4038 323.304 18.4038ZM327.628 22.5398V57.2571H318.854V22.5398H327.628Z" fill="#11243E"/>
<path d="M344.402 27.9291C345.53 26.0909 346.992 24.6496 348.789 23.6051C350.627 22.5607 352.716 22.0385 355.056 22.0385V31.2505H352.737C349.98 31.2505 347.891 31.898 346.47 33.1931C345.092 34.4882 344.402 36.7442 344.402 39.9611V57.2571H335.629V22.5398H344.402V27.9291Z" fill="#11243E"/>
<path d="M392.572 39.1465C392.572 40.3998 392.488 41.5278 392.321 42.5305H366.941C367.15 45.0371 368.027 47.0007 369.573 48.4211C371.119 49.8416 373.02 50.5518 375.276 50.5518C378.534 50.5518 380.853 49.1522 382.232 46.3531H391.694C390.692 49.6954 388.77 52.4527 385.929 54.6251C383.088 56.7558 379.6 57.8211 375.464 57.8211C372.121 57.8211 369.113 57.09 366.44 55.6278C363.808 54.1238 361.74 52.014 360.236 49.2985C358.773 46.5829 358.042 43.4496 358.042 39.8985C358.042 36.3056 358.773 33.1514 360.236 30.4358C361.698 27.7202 363.745 25.6314 366.377 24.1691C369.009 22.7069 372.038 21.9758 375.464 21.9758C378.764 21.9758 381.709 22.686 384.3 24.1065C386.932 25.5269 388.958 27.5531 390.378 30.1851C391.84 32.7754 392.572 35.7625 392.572 39.1465ZM383.485 36.6398C383.443 34.3838 382.628 32.5874 381.041 31.2505C379.453 29.8718 377.511 29.1825 375.213 29.1825C373.04 29.1825 371.202 29.8509 369.698 31.1878C368.236 32.4829 367.338 34.3002 367.004 36.6398H383.485Z" fill="#11243E"/>
<path d="M414.226 29.7465H408.147V57.2571H399.249V29.7465H395.301V22.5398H399.249V20.7851C399.249 16.5238 400.46 13.3905 402.883 11.3851C405.306 9.3798 408.962 8.4398 413.85 8.56513V15.9598C411.719 15.918 410.236 16.2731 409.401 17.0251C408.565 17.7771 408.147 19.1349 408.147 21.0985V22.5398H414.226V29.7465Z" fill="#11243E"/>
<path d="M428.018 27.9291C429.146 26.0909 430.608 24.6496 432.405 23.6051C434.243 22.5607 436.332 22.0385 438.671 22.0385V31.2505H436.353C433.595 31.2505 431.507 31.898 430.086 33.1931C428.707 34.4882 428.018 36.7442 428.018 39.9611V57.2571H419.245V22.5398H428.018V27.9291Z" fill="#11243E"/>
<path d="M441.658 39.7731C441.658 36.2638 442.347 33.1514 443.726 30.4358C445.147 27.7202 447.047 25.6314 449.429 24.1691C451.852 22.7069 454.547 21.9758 457.513 21.9758C460.103 21.9758 462.359 22.498 464.281 23.5425C466.244 24.5869 467.811 25.9029 468.981 27.4905V22.5398H477.817V57.2571H468.981V52.1811C467.853 53.8105 466.286 55.1682 464.281 56.2545C462.317 57.2989 460.04 57.8211 457.45 57.8211C454.526 57.8211 451.852 57.0691 449.429 55.5651C447.047 54.0611 445.147 51.9514 443.726 49.2358C442.347 46.4785 441.658 43.3242 441.658 39.7731ZM468.981 39.8985C468.981 37.7678 468.563 35.9505 467.727 34.4465C466.892 32.9007 465.764 31.7309 464.343 30.9371C462.923 30.1016 461.398 29.6838 459.769 29.6838C458.139 29.6838 456.635 30.0807 455.257 30.8745C453.878 31.6682 452.75 32.838 451.873 34.3838C451.037 35.8878 450.619 37.6842 450.619 39.7731C450.619 41.862 451.037 43.7002 451.873 45.2878C452.75 46.8336 453.878 48.0242 455.257 48.8598C456.677 49.6954 458.181 50.1131 459.769 50.1131C461.398 50.1131 462.923 49.7162 464.343 48.9225C465.764 48.0869 466.892 46.9171 467.727 45.4131C468.563 43.8674 468.981 42.0291 468.981 39.8985Z" fill="#11243E"/>
<path d="M528.833 22.0385C533.095 22.0385 536.521 23.3545 539.111 25.9865C541.743 28.5767 543.059 32.2114 543.059 36.8905V57.2571H534.285V38.0811C534.285 35.3656 533.596 33.2976 532.217 31.8771C530.839 30.4149 528.959 29.6838 526.577 29.6838C524.196 29.6838 522.295 30.4149 520.875 31.8771C519.496 33.2976 518.807 35.3656 518.807 38.0811V57.2571H510.033V38.0811C510.033 35.3656 509.344 33.2976 507.965 31.8771C506.587 30.4149 504.707 29.6838 502.325 29.6838C499.902 29.6838 497.981 30.4149 496.56 31.8771C495.181 33.2976 494.492 35.3656 494.492 38.0811V57.2571H485.719V22.5398H494.492V26.7385C495.62 25.2762 497.061 24.1274 498.816 23.2918C500.613 22.4562 502.576 22.0385 504.707 22.0385C507.422 22.0385 509.845 22.6234 511.976 23.7931C514.107 24.9211 515.757 26.5505 516.927 28.6811C518.055 26.6758 519.684 25.0674 521.815 23.8558C523.987 22.6442 526.327 22.0385 528.833 22.0385Z" fill="#11243E"/>
<path d="M582.991 39.1465C582.991 40.3998 582.907 41.5278 582.74 42.5305H557.36C557.569 45.0371 558.446 47.0007 559.992 48.4211C561.538 49.8416 563.439 50.5518 565.695 50.5518C568.953 50.5518 571.272 49.1522 572.651 46.3531H582.113C581.111 49.6954 579.189 52.4527 576.348 54.6251C573.507 56.7558 570.019 57.8211 565.883 57.8211C562.541 57.8211 559.533 57.09 556.859 55.6278C554.227 54.1238 552.159 52.014 550.655 49.2985C549.193 46.5829 548.461 43.4496 548.461 39.8985C548.461 36.3056 549.193 33.1514 550.655 30.4358C552.117 27.7202 554.164 25.6314 556.796 24.1691C559.428 22.7069 562.457 21.9758 565.883 21.9758C569.183 21.9758 572.129 22.686 574.719 24.1065C577.351 25.5269 579.377 27.5531 580.797 30.1851C582.26 32.7754 582.991 35.7625 582.991 39.1465ZM573.904 36.6398C573.862 34.3838 573.048 32.5874 571.46 31.2505C569.873 29.8718 567.93 29.1825 565.632 29.1825C563.46 29.1825 561.621 29.8509 560.117 31.1878C558.655 32.4829 557.757 34.3002 557.423 36.6398H573.904Z" fill="#11243E"/>
<defs>
<filter id="filter0_d_3688_21410" x="13.7139" y="24.7661" width="26.5723" height="27.5723" filterUnits="userSpaceOnUse" color-interpolation-filters="sRGB">
<feFlood flood-opacity="0" result="BackgroundImageFix"/>
<feColorMatrix in="SourceAlpha" type="matrix" values="0 0 0 0 0 0 0 0 0 0 0 0 0 0 0 0 0 0 127 0" result="hardAlpha"/>
<feOffset dx="3" dy="4"/>
<feGaussianBlur stdDeviation="1.5"/>
<feComposite in2="hardAlpha" operator="out"/>
<feColorMatrix type="matrix" values="0 0 0 0 0 0 0 0 0 0 0 0 0 0 0 0 0 0 0.05 0"/>
<feBlend mode="normal" in2="BackgroundImageFix" result="effect1_dropShadow_3688_21410"/>
<feBlend mode="normal" in="SourceGraphic" in2="effect1_dropShadow_3688_21410" result="shape"/>
</filter>
<linearGradient id="paint0_linear_3688_21410" x1="51.7714" y1="71.2242" x2="7.54286" y2="4.70989" gradientUnits="userSpaceOnUse">
<stop stop-color="#6A67E8"/>
<stop offset="0.6986" stop-color="#B49AFC"/>
</linearGradient>
</defs>
</svg>
