<svg width="380" height="64" viewBox="0 0 380 64" fill="none" xmlns="http://www.w3.org/2000/svg">
<path d="M56 32C56 18.7452 45.2548 8 32 8H8V56H56V32Z" fill="url(#paint0_linear_3239_12394)"/>
<g filter="url(#filter0_d_3239_12394)">
<path fill-rule="evenodd" clip-rule="evenodd" d="M42.1367 21.4062L42.1706 21.3711H19.1197C18.4698 21.3711 17.943 21.8979 17.943 22.5478V24.3525H37.3999V24.6663H17.943V41.6897C17.943 42.3396 18.4698 42.8665 19.1197 42.8665H44.5377C45.1876 42.8665 45.7144 42.3396 45.7144 41.6897V24.8517L42.1367 21.4062ZM41.37 22.2021L34.4727 29.3643L38.1864 32.9407L45.0838 25.7785L41.37 22.2021ZM33.7259 30.1791L32.4982 35.1321L37.4015 33.7188L33.7259 30.1791ZM20.2969 22.9395C20.2969 23.1994 20.0862 23.4102 19.8262 23.4102C19.5662 23.4102 19.3555 23.1994 19.3555 22.9395C19.3555 22.6795 19.5662 22.4688 19.8262 22.4688C20.0862 22.4688 20.2969 22.6795 20.2969 22.9395ZM21.2395 23.4102C21.4994 23.4102 21.7102 23.1994 21.7102 22.9395C21.7102 22.6795 21.4994 22.4688 21.2395 22.4688C20.9795 22.4688 20.7688 22.6795 20.7688 22.9395C20.7688 23.1994 20.9795 23.4102 21.2395 23.4102ZM23.1211 22.9395C23.1211 23.1994 22.9104 23.4102 22.6504 23.4102C22.3905 23.4102 22.1797 23.1994 22.1797 22.9395C22.1797 22.6795 22.3905 22.4688 22.6504 22.4688C22.9104 22.4688 23.1211 22.6795 23.1211 22.9395Z" fill="white"/>
</g>
<path d="M80 21.0533V56.2533H87.5283V28.5333H97.7137C103.339 28.5333 107.899 33.0642 107.899 38.6533V56.2533H115.427V38.6533C115.427 28.9331 107.497 21.0533 97.7137 21.0533H80Z" fill="#11243E"/>
<path fill-rule="evenodd" clip-rule="evenodd" d="M146.177 35.7608C145.455 31.1811 142.646 27.8067 137.028 27.8067C131.81 27.8067 128.199 30.6975 127.237 35.7608H146.177ZM137.911 49.4221C142.325 49.4221 145.535 47.6541 147.462 45.806L152.197 50.7879C149.066 53.9228 144.734 56.2533 137.992 56.2533C126.434 56.2533 118.97 48.7805 118.97 38.6551C118.97 28.6087 126.836 21.0533 136.946 21.0533C148.423 21.0533 154.924 29.5723 154.364 41.3867H127.237C128.199 46.2895 131.73 49.4221 137.911 49.4221Z" fill="#11243E"/>
<path fill-rule="evenodd" clip-rule="evenodd" d="M185.148 35.7608C184.426 31.1811 181.616 27.8067 175.998 27.8067C170.78 27.8067 167.169 30.6975 166.207 35.7608H185.148ZM176.881 49.4221C181.295 49.4221 184.505 47.6541 186.432 45.806L191.167 50.7879C188.036 53.9228 183.704 56.2533 176.962 56.2533C165.404 56.2533 157.94 48.7805 157.94 38.6551C157.94 28.6087 165.807 21.0533 175.916 21.0533C187.393 21.0533 193.894 29.5723 193.334 41.3867H166.207C167.169 46.2895 170.7 49.4221 176.881 49.4221Z" fill="#11243E"/>
<path fill-rule="evenodd" clip-rule="evenodd" d="M196.91 21.3568H202.851V12.2533H210.4V21.3568H217.809V28.1805H210.4V42.0076C210.4 48.2625 211.378 49.2342 217.809 49.2342V56.2533H216.691C206.066 56.2533 202.851 52.9172 202.851 42.078V28.1805H196.91V21.3568Z" fill="#11243E"/>
<path fill-rule="evenodd" clip-rule="evenodd" d="M249.544 38.6539C249.544 32.6965 244.9 27.8227 239.031 27.8227C233.16 27.8227 228.587 32.6965 228.587 38.6539C228.587 44.6102 233.16 49.484 239.031 49.484C244.9 49.484 249.544 44.6102 249.544 38.6539ZM221.351 38.6539C221.351 28.7705 229.201 21.0533 239.031 21.0533C248.861 21.0533 256.779 28.7705 256.779 38.6539C256.779 48.4688 248.861 56.2533 239.031 56.2533C229.201 56.2533 221.351 48.4688 221.351 38.6539Z" fill="#11243E"/>
<path d="M278.051 56.692C275.126 56.692 272.494 56.1907 270.155 55.188C267.815 54.1436 265.977 52.6813 264.64 50.8013C263.303 48.9213 262.635 46.728 262.635 44.2213H270.28C270.447 46.1013 271.178 47.6471 272.473 48.8587C273.81 50.0702 275.669 50.676 278.051 50.676C280.516 50.676 282.437 50.0911 283.816 48.9213C285.195 47.7098 285.884 46.164 285.884 44.284C285.884 42.8218 285.445 41.6311 284.568 40.712C283.732 39.7929 282.667 39.0827 281.372 38.5813C280.119 38.08 278.364 37.5369 276.108 36.952C273.267 36.2 270.948 35.448 269.152 34.696C267.397 33.9022 265.893 32.6907 264.64 31.0613C263.387 29.432 262.76 27.2596 262.76 24.544C262.76 22.0373 263.387 19.844 264.64 17.964C265.893 16.084 267.648 14.6427 269.904 13.64C272.16 12.6373 274.771 12.136 277.737 12.136C281.957 12.136 285.404 13.2013 288.077 15.332C290.793 17.4209 292.297 20.3036 292.589 23.98H284.693C284.568 22.3924 283.816 21.0347 282.437 19.9067C281.059 18.7787 279.241 18.2147 276.985 18.2147C274.938 18.2147 273.267 18.7369 271.972 19.7813C270.677 20.8258 270.029 22.3298 270.029 24.2933C270.029 25.6302 270.426 26.7373 271.22 27.6147C272.056 28.4502 273.1 29.1187 274.353 29.62C275.607 30.1213 277.32 30.6644 279.492 31.2493C282.375 32.0431 284.714 32.8369 286.511 33.6307C288.349 34.4244 289.895 35.6569 291.148 37.328C292.443 38.9573 293.091 41.1507 293.091 43.908C293.091 46.1222 292.485 48.2111 291.273 50.1747C290.104 52.1382 288.37 53.7258 286.072 54.9373C283.816 56.1071 281.142 56.692 278.051 56.692Z" fill="#11243E"/>
<path d="M304.488 17.1493C303.193 17.1493 302.107 16.7107 301.23 15.8333C300.352 14.956 299.914 13.8698 299.914 12.5747C299.914 11.2796 300.352 10.1933 301.23 9.316C302.107 8.43867 303.193 8 304.488 8C305.742 8 306.807 8.43867 307.684 9.316C308.562 10.1933 309 11.2796 309 12.5747C309 13.8698 308.562 14.956 307.684 15.8333C306.807 16.7107 305.742 17.1493 304.488 17.1493ZM307.998 21.724V56.2533H300.854V21.724H307.998Z" fill="#11243E"/>
<path d="M325.045 27.552V46.6653C325.045 47.9604 325.338 48.9004 325.922 49.4853C326.549 50.0284 327.594 50.3 329.056 50.3H333.442V56.2533H327.802C324.586 56.2533 322.121 55.5013 320.408 53.9973C318.695 52.4933 317.838 50.0493 317.838 46.6653V27.552H313.765V21.724H317.838V13.1387H325.045V21.724H333.442V27.552H325.045Z" fill="#11243E"/>
<path d="M371.007 38.1427C371.007 39.4378 370.923 40.6076 370.756 41.652H344.374C344.582 44.4093 345.606 46.6236 347.444 48.2947C349.282 49.9658 351.538 50.8013 354.212 50.8013C358.056 50.8013 360.771 49.1929 362.359 45.976H370.067C369.022 49.1511 367.121 51.7622 364.364 53.8093C361.649 55.8147 358.265 56.8173 354.212 56.8173C350.912 56.8173 347.945 56.0862 345.313 54.624C342.723 53.12 340.676 51.0311 339.172 48.3573C337.71 45.6418 336.979 42.5084 336.979 38.9573C336.979 35.4062 337.689 32.2938 339.109 29.62C340.572 26.9044 342.598 24.8156 345.188 23.3533C347.82 21.8911 350.828 21.16 354.212 21.16C357.471 21.16 360.374 21.8702 362.923 23.2907C365.471 24.7111 367.456 26.7164 368.876 29.3067C370.297 31.8551 371.007 34.8004 371.007 38.1427ZM363.549 35.8867C363.508 33.2547 362.568 31.1449 360.729 29.5573C358.891 27.9698 356.614 27.176 353.899 27.176C351.434 27.176 349.324 27.9698 347.569 29.5573C345.815 31.1031 344.77 33.2129 344.436 35.8867H363.549Z" fill="#11243E"/>
<path d="M80 21.0533V56.2533H87.5283V28.5333H97.7137C103.339 28.5333 107.899 33.0642 107.899 38.6533V56.2533H115.427V38.6533C115.427 28.9331 107.497 21.0533 97.7137 21.0533H80Z" stroke="#11243E" stroke-width="0.333333"/>
<path fill-rule="evenodd" clip-rule="evenodd" d="M146.177 35.7608C145.455 31.1811 142.646 27.8067 137.028 27.8067C131.81 27.8067 128.199 30.6975 127.237 35.7608H146.177ZM137.911 49.4221C142.325 49.4221 145.535 47.6541 147.462 45.806L152.197 50.7879C149.066 53.9228 144.734 56.2533 137.992 56.2533C126.434 56.2533 118.97 48.7805 118.97 38.6551C118.97 28.6087 126.836 21.0533 136.946 21.0533C148.423 21.0533 154.924 29.5723 154.364 41.3867H127.237C128.199 46.2895 131.73 49.4221 137.911 49.4221Z" stroke="#11243E" stroke-width="0.333333"/>
<path fill-rule="evenodd" clip-rule="evenodd" d="M185.148 35.7608C184.426 31.1811 181.616 27.8067 175.998 27.8067C170.78 27.8067 167.169 30.6975 166.207 35.7608H185.148ZM176.881 49.4221C181.295 49.4221 184.505 47.6541 186.432 45.806L191.167 50.7879C188.036 53.9228 183.704 56.2533 176.962 56.2533C165.404 56.2533 157.94 48.7805 157.94 38.6551C157.94 28.6087 165.807 21.0533 175.916 21.0533C187.393 21.0533 193.894 29.5723 193.334 41.3867H166.207C167.169 46.2895 170.7 49.4221 176.881 49.4221Z" stroke="#11243E" stroke-width="0.333333"/>
<path fill-rule="evenodd" clip-rule="evenodd" d="M196.91 21.3568H202.851V12.2533H210.4V21.3568H217.809V28.1805H210.4V42.0076C210.4 48.2625 211.378 49.2342 217.809 49.2342V56.2533H216.691C206.066 56.2533 202.851 52.9172 202.851 42.078V28.1805H196.91V21.3568Z" stroke="#11243E" stroke-width="0.333333"/>
<path fill-rule="evenodd" clip-rule="evenodd" d="M249.544 38.6539C249.544 32.6965 244.9 27.8227 239.031 27.8227C233.16 27.8227 228.587 32.6965 228.587 38.6539C228.587 44.6102 233.16 49.484 239.031 49.484C244.9 49.484 249.544 44.6102 249.544 38.6539ZM221.351 38.6539C221.351 28.7705 229.201 21.0533 239.031 21.0533C248.861 21.0533 256.779 28.7705 256.779 38.6539C256.779 48.4688 248.861 56.2533 239.031 56.2533C229.201 56.2533 221.351 48.4688 221.351 38.6539Z" stroke="#11243E" stroke-width="0.333333"/>
<path d="M278.051 56.692C275.126 56.692 272.494 56.1907 270.155 55.188C267.815 54.1436 265.977 52.6813 264.64 50.8013C263.303 48.9213 262.635 46.728 262.635 44.2213H270.28C270.447 46.1013 271.178 47.6471 272.473 48.8587C273.81 50.0702 275.669 50.676 278.051 50.676C280.516 50.676 282.437 50.0911 283.816 48.9213C285.195 47.7098 285.884 46.164 285.884 44.284C285.884 42.8218 285.445 41.6311 284.568 40.712C283.732 39.7929 282.667 39.0827 281.372 38.5813C280.119 38.08 278.364 37.5369 276.108 36.952C273.267 36.2 270.948 35.448 269.152 34.696C267.397 33.9022 265.893 32.6907 264.64 31.0613C263.387 29.432 262.76 27.2596 262.76 24.544C262.76 22.0373 263.387 19.844 264.64 17.964C265.893 16.084 267.648 14.6427 269.904 13.64C272.16 12.6373 274.771 12.136 277.737 12.136C281.957 12.136 285.404 13.2013 288.077 15.332C290.793 17.4209 292.297 20.3036 292.589 23.98H284.693C284.568 22.3924 283.816 21.0347 282.437 19.9067C281.059 18.7787 279.241 18.2147 276.985 18.2147C274.938 18.2147 273.267 18.7369 271.972 19.7813C270.677 20.8258 270.029 22.3298 270.029 24.2933C270.029 25.6302 270.426 26.7373 271.22 27.6147C272.056 28.4502 273.1 29.1187 274.353 29.62C275.607 30.1213 277.32 30.6644 279.492 31.2493C282.375 32.0431 284.714 32.8369 286.511 33.6307C288.349 34.4244 289.895 35.6569 291.148 37.328C292.443 38.9573 293.091 41.1507 293.091 43.908C293.091 46.1222 292.485 48.2111 291.273 50.1747C290.104 52.1382 288.37 53.7258 286.072 54.9373C283.816 56.1071 281.142 56.692 278.051 56.692Z" stroke="#11243E" stroke-width="0.333333"/>
<path d="M304.488 17.1493C303.193 17.1493 302.107 16.7107 301.23 15.8333C300.352 14.956 299.914 13.8698 299.914 12.5747C299.914 11.2796 300.352 10.1933 301.23 9.316C302.107 8.43867 303.193 8 304.488 8C305.742 8 306.807 8.43867 307.684 9.316C308.562 10.1933 309 11.2796 309 12.5747C309 13.8698 308.562 14.956 307.684 15.8333C306.807 16.7107 305.742 17.1493 304.488 17.1493ZM307.998 21.724V56.2533H300.854V21.724H307.998Z" stroke="#11243E" stroke-width="0.333333"/>
<path d="M325.045 27.552V46.6653C325.045 47.9604 325.338 48.9004 325.922 49.4853C326.549 50.0284 327.594 50.3 329.056 50.3H333.442V56.2533H327.802C324.586 56.2533 322.121 55.5013 320.408 53.9973C318.695 52.4933 317.838 50.0493 317.838 46.6653V27.552H313.765V21.724H317.838V13.1387H325.045V21.724H333.442V27.552H325.045Z" stroke="#11243E" stroke-width="0.333333"/>
<path d="M371.007 38.1427C371.007 39.4378 370.923 40.6076 370.756 41.652H344.374C344.582 44.4093 345.606 46.6236 347.444 48.2947C349.282 49.9658 351.538 50.8013 354.212 50.8013C358.056 50.8013 360.771 49.1929 362.359 45.976H370.067C369.022 49.1511 367.121 51.7622 364.364 53.8093C361.649 55.8147 358.265 56.8173 354.212 56.8173C350.912 56.8173 347.945 56.0862 345.313 54.624C342.723 53.12 340.676 51.0311 339.172 48.3573C337.71 45.6418 336.979 42.5084 336.979 38.9573C336.979 35.4062 337.689 32.2938 339.109 29.62C340.572 26.9044 342.598 24.8156 345.188 23.3533C347.82 21.8911 350.828 21.16 354.212 21.16C357.471 21.16 360.374 21.8702 362.923 23.2907C365.471 24.7111 367.456 26.7164 368.876 29.3067C370.297 31.8551 371.007 34.8004 371.007 38.1427ZM363.549 35.8867C363.508 33.2547 362.568 31.1449 360.729 29.5573C358.891 27.9698 356.614 27.176 353.899 27.176C351.434 27.176 349.324 27.9698 347.569 29.5573C345.815 31.1031 344.77 33.2129 344.436 35.8867H363.549Z" stroke="#11243E" stroke-width="0.333333"/>
<defs>
<filter id="filter0_d_3239_12394" x="17.943" y="21.3711" width="33.7715" height="28.4954" filterUnits="userSpaceOnUse" color-interpolation-filters="sRGB">
<feFlood flood-opacity="0" result="BackgroundImageFix"/>
<feColorMatrix in="SourceAlpha" type="matrix" values="0 0 0 0 0 0 0 0 0 0 0 0 0 0 0 0 0 0 127 0" result="hardAlpha"/>
<feOffset dx="3" dy="4"/>
<feGaussianBlur stdDeviation="1.5"/>
<feComposite in2="hardAlpha" operator="out"/>
<feColorMatrix type="matrix" values="0 0 0 0 0 0 0 0 0 0 0 0 0 0 0 0 0 0 0.05 0"/>
<feBlend mode="normal" in2="BackgroundImageFix" result="effect1_dropShadow_3239_12394"/>
<feBlend mode="normal" in="SourceGraphic" in2="effect1_dropShadow_3239_12394" result="shape"/>
</filter>
<linearGradient id="paint0_linear_3239_12394" x1="2.85714" y1="-5.2" x2="77.4286" y2="93.0286" gradientUnits="userSpaceOnUse">
<stop offset="0.373525" stop-color="#8176FF"/>
<stop offset="1" stop-color="#41BBFF"/>
</linearGradient>
</defs>
</svg>
