<svg xmlns="http://www.w3.org/2000/svg" width="576" height="153" fill="none" viewBox="0 0 576 153"><g data-logo-icon="neeto-typeface-logo__icon"><path fill="#75DC66" d="M37.5721 67.1583C37.5721 65.1194 38.6622 63.2361 40.4302 62.2206L68.0317 46.3665C69.7614 45.3729 71.885 45.357 73.6295 46.3244L102.971 62.5968C104.781 63.6005 105.904 65.507 105.904 67.5765V99.397C105.904 101.467 104.781 103.373 102.971 104.377L73.6295 120.649C71.885 121.617 69.7614 121.601 68.0317 120.607L40.4302 104.753C38.6622 103.737 37.5721 101.854 37.5721 99.8153V67.1583Z"/><path fill="#5BCC5A" d="M68.0335 23.5906L12.0046 55.7732C8.19379 57.9621 8.19378 63.4597 12.0046 65.6486L68.0335 97.8312C69.7633 98.8247 71.8869 98.8407 73.6314 97.8732L131.661 65.6906C135.571 63.5221 135.571 57.8996 131.661 55.7311L73.6314 23.5485C71.8869 22.581 69.7633 22.597 68.0335 23.5906Z"/><path fill="#0DA84C" d="M39.2661 62.8892L65.746 47.6794C67.9997 46.3848 70.8094 48.0166 70.802 50.6156L70.602 120.321C70.5997 121.098 69.7594 121.583 69.0855 121.196L40.4321 104.753C38.663 103.737 37.5721 101.854 37.5721 99.8138V65.8158C37.5721 64.6074 38.2182 63.4911 39.2661 62.8892Z"/></g><g data-logo-text="neeto-typeface-logo__text"><path fill="#000" d="M168.844 95.2037C168.844 87.2855 170.612 80.213 174.148 73.9862C177.761 67.6824 182.643 62.8009 188.793 59.3415C195.02 55.8052 201.977 54.0371 209.664 54.0371C218.659 54.0371 226.538 56.3434 233.303 60.9559C240.068 65.5684 244.796 71.949 247.487 80.0977H228.922C227.077 76.254 224.463 73.3712 221.08 71.4493C217.775 69.5274 213.931 68.5665 209.549 68.5665C204.86 68.5665 200.67 69.6812 196.98 71.9105C193.367 74.063 190.523 77.138 188.447 81.1355C186.448 85.133 185.449 89.8224 185.449 95.2037C185.449 100.508 186.448 105.197 188.447 109.272C190.523 113.269 193.367 116.383 196.98 118.612C200.67 120.765 204.86 121.841 209.549 121.841C213.931 121.841 217.775 120.88 221.08 118.958C224.463 116.959 227.077 114.038 228.922 110.194H247.487C244.796 118.42 240.068 124.839 233.303 129.451C226.615 133.987 218.736 136.255 209.664 136.255C201.977 136.255 195.02 134.525 188.793 131.066C182.643 127.53 177.761 122.648 174.148 116.421C170.612 110.194 168.844 103.122 168.844 95.2037Z" data-dark-mode-color="true"/><path fill="#000" d="M287.336 136.601C281.186 136.601 275.651 135.256 270.731 132.565C265.811 129.797 261.929 125.915 259.085 120.918C256.317 115.921 254.934 110.156 254.934 103.621C254.934 97.0871 256.356 91.3215 259.2 86.3246C262.121 81.3277 266.08 77.484 271.077 74.7934C276.074 72.0259 281.648 70.6421 287.798 70.6421C293.948 70.6421 299.521 72.0259 304.518 74.7934C309.515 77.484 313.435 81.3277 316.28 86.3246C319.201 91.3215 320.662 97.0871 320.662 103.621C320.662 110.156 319.163 115.921 316.164 120.918C313.243 125.915 309.246 129.797 304.172 132.565C299.175 135.256 293.563 136.601 287.336 136.601ZM287.336 122.533C290.258 122.533 292.987 121.841 295.524 120.457C298.137 118.996 300.213 116.844 301.75 114C303.288 111.155 304.057 107.696 304.057 103.621C304.057 97.5484 302.442 92.8974 299.214 89.6687C296.062 86.363 292.179 84.7102 287.567 84.7102C282.954 84.7102 279.072 86.363 275.92 89.6687C272.845 92.8974 271.308 97.5484 271.308 103.621C271.308 109.695 272.807 114.384 275.805 117.69C278.88 120.918 282.724 122.533 287.336 122.533Z" data-dark-mode-color="true"/><path fill="#000" d="M390.506 71.6799V135.563H374.247V127.491C372.171 130.259 369.442 132.45 366.06 134.064C362.754 135.601 359.141 136.37 355.22 136.37C350.223 136.37 345.803 135.332 341.959 133.257C338.116 131.104 335.079 127.991 332.85 123.916C330.697 119.765 329.621 114.845 329.621 109.156V71.6799H345.765V106.85C345.765 111.924 347.033 115.845 349.57 118.612C352.107 121.303 355.566 122.648 359.948 122.648C364.407 122.648 367.905 121.303 370.442 118.612C372.978 115.845 374.247 111.924 374.247 106.85V71.6799H390.506Z" data-dark-mode-color="true"/><path fill="#000" d="M420.272 81.5968C422.348 78.2143 425.038 75.5621 428.344 73.6402C431.726 71.7184 435.57 70.7574 439.875 70.7574V87.7084H435.608C430.535 87.7084 426.691 88.8999 424.077 91.2831C421.54 93.6662 420.272 97.8174 420.272 103.737V135.563H404.128V71.6799H420.272V81.5968Z" data-dark-mode-color="true"/><path fill="#000" d="M472.889 136.601C467.661 136.601 462.972 135.678 458.82 133.833C454.669 131.911 451.364 129.336 448.904 126.107C446.52 122.879 445.214 119.304 444.983 115.383H461.242C461.55 117.843 462.741 119.881 464.817 121.495C466.969 123.109 469.621 123.916 472.773 123.916C475.848 123.916 478.231 123.301 479.923 122.071C481.691 120.841 482.575 119.266 482.575 117.344C482.575 115.268 481.499 113.731 479.346 112.731C477.27 111.655 473.926 110.502 469.314 109.272C464.548 108.119 460.627 106.927 457.552 105.697C454.554 104.467 451.94 102.584 449.711 100.047C447.558 97.5099 446.482 94.089 446.482 89.784C446.482 86.2477 447.481 83.019 449.48 80.0977C451.556 77.1765 454.477 74.8702 458.244 73.179C462.088 71.4877 466.585 70.6421 471.736 70.6421C479.346 70.6421 485.419 72.564 489.955 76.4077C494.49 80.1746 496.989 85.2868 497.45 91.7443H481.998C481.768 89.2074 480.691 87.2087 478.77 85.748C476.925 84.2105 474.426 83.4418 471.274 83.4418C468.353 83.4418 466.085 83.9799 464.471 85.0562C462.933 86.1324 462.165 87.6315 462.165 89.5534C462.165 91.7059 463.241 93.3587 465.393 94.5118C467.546 95.588 470.89 96.7027 475.425 97.8559C480.038 99.009 483.843 100.201 486.841 101.431C489.84 102.661 492.415 104.582 494.567 107.196C496.797 109.733 497.95 113.116 498.027 117.344C498.027 121.034 496.989 124.339 494.913 127.261C492.915 130.182 489.993 132.488 486.15 134.179C482.383 135.794 477.962 136.601 472.889 136.601Z" data-dark-mode-color="true"/><path fill="#000" d="M568.358 102.238C568.358 104.544 568.205 106.62 567.897 108.465H521.196C521.58 113.077 523.194 116.69 526.039 119.304C528.883 121.918 532.381 123.225 536.532 123.225C542.528 123.225 546.795 120.649 549.332 115.499H566.744C564.899 121.649 561.363 126.722 556.135 130.72C550.908 134.641 544.489 136.601 536.878 136.601C530.728 136.601 525.193 135.256 520.273 132.565C515.43 129.797 511.625 125.915 508.857 120.918C506.167 115.921 504.821 110.156 504.821 103.621C504.821 97.0102 506.167 91.2062 508.857 86.2093C511.548 81.2124 515.315 77.3687 520.158 74.678C525.001 71.9874 530.574 70.6421 536.878 70.6421C542.951 70.6421 548.371 71.949 553.137 74.5627C557.98 77.1765 561.709 80.9049 564.322 85.748C567.013 90.5143 568.358 96.0109 568.358 102.238ZM551.638 97.6252C551.561 93.474 550.062 90.1684 547.141 87.7084C544.22 85.1715 540.645 83.903 536.417 83.903C532.419 83.903 529.037 85.133 526.269 87.593C523.579 89.9762 521.926 93.3202 521.311 97.6252H551.638Z" data-dark-mode-color="true"/><path fill="#000" d="M229.747 25.3847C229.747 26.2481 229.689 27.0252 229.574 27.716H212.103C212.247 29.4429 212.851 30.7956 213.915 31.7742C214.979 32.7527 216.288 33.242 217.841 33.242C220.084 33.242 221.68 32.2778 222.629 30.3495H229.143C228.452 32.652 227.13 34.5516 225.174 36.0482C223.219 37.5161 220.817 38.25 217.97 38.25C215.669 38.25 213.599 37.7463 211.758 36.739C209.947 35.7028 208.523 34.2494 207.488 32.3786C206.481 30.5078 205.978 28.3492 205.978 25.9028C205.978 23.4275 206.481 21.2545 207.488 19.3837C208.494 17.513 209.903 16.0739 211.715 15.0665C213.527 14.0592 215.612 13.5555 217.97 13.5555C220.242 13.5555 222.269 14.0448 224.052 15.0234C225.864 16.0019 227.259 17.3978 228.237 19.2111C229.243 20.9955 229.747 23.0534 229.747 25.3847ZM223.492 23.6578C223.463 22.1036 222.902 20.866 221.809 19.945C220.717 18.9952 219.379 18.5203 217.798 18.5203C216.302 18.5203 215.037 18.9808 214.002 19.9018C212.995 20.794 212.377 22.046 212.147 23.6578H223.492Z" data-dark-mode-color="true"/><path fill="#000" d="M256.37 25.3847C256.37 26.2481 256.313 27.0252 256.198 27.716H238.727C238.871 29.4429 239.475 30.7956 240.539 31.7742C241.603 32.7527 242.912 33.242 244.465 33.242C246.708 33.242 248.304 32.2778 249.253 30.3495H255.766C255.076 32.652 253.753 34.5516 251.798 36.0482C249.842 37.5161 247.441 38.25 244.594 38.25C242.293 38.25 240.223 37.7463 238.382 36.739C236.57 35.7028 235.147 34.2494 234.112 32.3786C233.105 30.5078 232.602 28.3492 232.602 25.9028C232.602 23.4275 233.105 21.2545 234.112 19.3837C235.118 17.513 236.527 16.0739 238.339 15.0665C240.151 14.0592 242.236 13.5555 244.594 13.5555C246.866 13.5555 248.893 14.0448 250.676 15.0234C252.488 16.0019 253.883 17.3978 254.861 19.2111C255.867 20.9955 256.37 23.0534 256.37 25.3847ZM250.115 23.6578C250.087 22.1036 249.526 20.866 248.433 19.945C247.34 18.9952 246.003 18.5203 244.421 18.5203C242.926 18.5203 241.661 18.9808 240.625 19.9018C239.619 20.794 239 22.046 238.77 23.6578H250.115Z" data-dark-mode-color="true"/><path fill="#000" d="M267.91 18.8624V30.5365C267.91 31.3424 268.122 31.8749 268.496 32.249C268.899 32.5944 269.56 32.7671 270.481 32.7671H273.285V37.8614H269.489C264.398 37.8614 261.963 35.258 261.963 30.3076V18.8624H258.761V13.8265H261.963V7.875H267.91V13.8265H273.285V18.8624H267.91Z" data-dark-mode-color="true"/><path fill="#000" d="M288.114 38.25C285.814 38.25 283.743 37.7463 281.903 36.739C280.062 35.7028 278.61 34.2494 277.546 32.3786C276.51 30.5078 275.993 28.3492 275.993 25.9028C275.993 23.4563 276.525 21.2977 277.589 19.4269C278.682 17.5561 280.163 16.1171 282.032 15.1097C283.901 14.0736 285.986 13.5555 288.287 13.5555C290.588 13.5555 292.673 14.0736 294.542 15.1097C296.411 16.1171 297.878 17.5561 298.942 19.4269C300.035 21.2977 300.581 23.4563 300.581 25.9028C300.581 28.3492 300.02 30.5078 298.899 32.3786C297.806 34.2494 296.31 35.7028 294.412 36.739C292.543 37.7463 290.444 38.25 288.114 38.25ZM288.114 32.983C289.207 32.983 290.228 32.724 291.177 32.2059C292.155 31.659 292.931 30.8532 293.507 29.7882C294.082 28.7233 294.369 27.4282 294.369 25.9028C294.369 23.629 293.765 21.8877 292.557 20.6789C291.378 19.4413 289.926 18.8225 288.201 18.8225C286.475 18.8225 285.023 19.4413 283.844 20.6789C282.693 21.8877 282.118 23.629 282.118 25.9028C282.118 28.1765 282.679 29.9322 283.801 31.1698C284.951 32.3786 286.389 32.983 288.114 32.983Z" data-dark-mode-color="true"/><path fill="#000" d="M200.877 7.875H189.284L200.877 25.2653V7.875Z" data-dark-mode-color="true"/><path fill="#000" d="M172.125 38.25L172.125 7.875H180.497L200.877 38.25H192.261L178.849 18.541V38.25H172.125Z" data-dark-mode-color="true"/></g></svg>