<svg xmlns="http://www.w3.org/2000/svg" width="550" height="73" fill="none" viewBox="0 0 550 73"><path fill="url(#paint0_linear_3239_11188)" d="M56 32C56 18.7452 45.2548 8 32 8H8V56H56V32Z"/><g filter="url(#filter0_d_3239_11188)"><rect width="3.246" height="5.68" x="18.286" y="30.785" fill="#fff"/><rect width="3.246" height="9.738" x="22.831" y="26.727" fill="#fff"/><path fill="#fff" d="M27.375 21.3711H30.621V36.4649H27.375V21.3711Z"/><path fill="#fff" fill-rule="evenodd" d="M37.1014 39.3895C37.8541 38.7743 38.963 38.8858 39.5782 39.6385L45.3169 46.66C45.9321 47.4127 45.8206 48.5216 45.0679 49.1368C44.3152 49.752 43.2063 49.6405 42.5911 48.8878L36.8524 41.8663C36.2372 41.1136 36.3487 40.0047 37.1014 39.3895Z" clip-rule="evenodd"/><path fill="#fff" fill-rule="evenodd" d="M40.2434 32.7201C40.2434 28.4268 36.7867 24.9409 32.5045 24.8938V21.3733C38.7309 21.4205 43.7638 26.4826 43.7638 32.7201C43.7638 36.4767 41.9366 39.8067 39.1301 41.869C37.25 43.2506 34.9261 44.0673 32.4166 44.0673C28.732 44.0673 25.4573 42.3092 23.3873 39.5933C23.095 39.2099 22.8265 38.807 22.584 38.387H27.0178C28.4236 39.7271 30.3242 40.5469 32.4166 40.5469C34.1511 40.5469 35.7492 39.9848 37.0455 39.0322C38.9882 37.6047 40.2434 35.3091 40.2434 32.7201Z" clip-rule="evenodd"/></g><path fill="#11243E" d="M80 21.0533V56.2533H87.5283V28.5333H97.7137C103.339 28.5333 107.899 33.0642 107.899 38.6533V56.2533H115.427V38.6533C115.427 28.9331 107.497 21.0533 97.7137 21.0533H80Z"/><path fill="#11243E" fill-rule="evenodd" d="M146.177 35.7608C145.455 31.1811 142.646 27.8067 137.028 27.8067C131.81 27.8067 128.199 30.6975 127.237 35.7608H146.177ZM137.911 49.4221C142.325 49.4221 145.535 47.6541 147.462 45.806L152.197 50.7879C149.066 53.9228 144.734 56.2533 137.992 56.2533C126.434 56.2533 118.97 48.7805 118.97 38.6551C118.97 28.6087 126.836 21.0533 136.946 21.0533C148.423 21.0533 154.924 29.5723 154.364 41.3867H127.237C128.199 46.2895 131.73 49.4221 137.911 49.4221Z" clip-rule="evenodd"/><path fill="#11243E" fill-rule="evenodd" d="M185.148 35.7608C184.426 31.1811 181.616 27.8067 175.998 27.8067C170.78 27.8067 167.169 30.6975 166.207 35.7608H185.148ZM176.881 49.4221C181.295 49.4221 184.505 47.6541 186.432 45.806L191.167 50.7879C188.036 53.9228 183.704 56.2533 176.962 56.2533C165.404 56.2533 157.94 48.7805 157.94 38.6551C157.94 28.6087 165.807 21.0533 175.916 21.0533C187.393 21.0533 193.894 29.5723 193.334 41.3867H166.207C167.169 46.2895 170.7 49.4221 176.881 49.4221Z" clip-rule="evenodd"/><path fill="#11243E" fill-rule="evenodd" d="M196.91 21.3568H202.851V12.2533H210.4V21.3568H217.809V28.1805H210.4V42.0076C210.4 48.2625 211.378 49.2342 217.809 49.2342V56.2533H216.691C206.066 56.2533 202.851 52.9172 202.851 42.078V28.1805H196.91V21.3568Z" clip-rule="evenodd"/><path fill="#11243E" fill-rule="evenodd" d="M249.544 38.6539C249.544 32.6965 244.9 27.8227 239.031 27.8227C233.16 27.8227 228.587 32.6965 228.587 38.6539C228.587 44.6102 233.16 49.484 239.031 49.484C244.9 49.484 249.544 44.6102 249.544 38.6539ZM221.351 38.6539C221.351 28.7705 229.201 21.0533 239.031 21.0533C248.861 21.0533 256.779 28.7705 256.779 38.6539C256.779 48.4688 248.861 56.2533 239.031 56.2533C229.201 56.2533 221.351 48.4688 221.351 38.6539Z" clip-rule="evenodd"/><path fill="#11243E" d="M289.957 47.3547H271.721L268.588 56.2533H261.131L276.735 12.6373H285.007L300.611 56.2533H293.091L289.957 47.3547ZM287.952 41.5267L280.871 21.2853L273.727 41.5267H287.952Z"/><path fill="#11243E" d="M324.15 21.16C326.866 21.16 329.289 21.724 331.419 22.852C333.592 23.98 335.284 25.6511 336.495 27.8653C337.707 30.0796 338.313 32.7533 338.313 35.8867V56.2533H331.231V36.952C331.231 33.8604 330.458 31.5 328.913 29.8707C327.367 28.1996 325.257 27.364 322.583 27.364C319.91 27.364 317.779 28.1996 316.191 29.8707C314.646 31.5 313.873 33.8604 313.873 36.952V56.2533H306.729V21.724H313.873V25.672C315.042 24.2516 316.526 23.1444 318.322 22.3507C320.16 21.5569 322.103 21.16 324.15 21.16Z"/><path fill="#11243E" d="M344.377 38.832C344.377 35.3644 345.087 32.2938 346.508 29.62C347.97 26.9462 349.934 24.8782 352.399 23.416C354.905 21.912 357.663 21.16 360.671 21.16C363.386 21.16 365.747 21.7031 367.752 22.7893C369.799 23.8338 371.428 25.1498 372.64 26.7373V21.724H379.847V56.2533H372.64V51.1147C371.428 52.744 369.778 54.1018 367.689 55.188C365.6 56.2742 363.219 56.8173 360.545 56.8173C357.579 56.8173 354.863 56.0653 352.399 54.5613C349.934 53.0156 347.97 50.8849 346.508 48.1693C345.087 45.412 344.377 42.2996 344.377 38.832ZM372.64 38.9573C372.64 36.576 372.139 34.508 371.136 32.7533C370.175 30.9987 368.901 29.6618 367.313 28.7427C365.726 27.8236 364.013 27.364 362.175 27.364C360.336 27.364 358.623 27.8236 357.036 28.7427C355.448 29.62 354.153 30.936 353.151 32.6907C352.19 34.4036 351.709 36.4507 351.709 38.832C351.709 41.2133 352.19 43.3022 353.151 45.0987C354.153 46.8951 355.448 48.2738 357.036 49.2347C358.665 50.1538 360.378 50.6133 362.175 50.6133C364.013 50.6133 365.726 50.1538 367.313 49.2347C368.901 48.3156 370.175 46.9787 371.136 45.224C372.139 43.4276 372.64 41.3387 372.64 38.9573Z"/><path fill="#11243E" d="M395.707 9.88V56.2533H388.563V9.88H395.707Z"/><path fill="#11243E" d="M435.503 21.724L414.321 72.484H406.927L413.945 55.6893L400.347 21.724H408.305L418.019 48.044L428.108 21.724H435.503Z"/><path fill="#11243E" d="M448.562 27.552V46.6653C448.562 47.9604 448.854 48.9004 449.439 49.4853C450.066 50.0284 451.11 50.3 452.573 50.3H456.959V56.2533H451.319C448.102 56.2533 445.638 55.5013 443.925 53.9973C442.212 52.4933 441.355 50.0493 441.355 46.6653V27.552H437.282V21.724H441.355V13.1387H448.562V21.724H456.959V27.552H448.562Z"/><path fill="#11243E" d="M466.512 17.1493C465.217 17.1493 464.13 16.7107 463.253 15.8333C462.376 14.956 461.937 13.8698 461.937 12.5747C461.937 11.2796 462.376 10.1933 463.253 9.316C464.13 8.43867 465.217 8 466.512 8C467.765 8 468.83 8.43867 469.708 9.316C470.585 10.1933 471.024 11.2796 471.024 12.5747C471.024 13.8698 470.585 14.956 469.708 15.8333C468.83 16.7107 467.765 17.1493 466.512 17.1493ZM470.021 21.724V56.2533H462.877V21.724H470.021Z"/><path fill="#11243E" d="M476.353 38.9573C476.353 35.4062 477.063 32.2938 478.483 29.62C479.945 26.9044 481.951 24.8156 484.499 23.3533C487.048 21.8911 489.972 21.16 493.273 21.16C497.45 21.16 500.897 22.1627 503.613 24.168C506.37 26.1316 508.229 28.9516 509.19 32.628H501.482C500.855 30.9151 499.853 29.5782 498.474 28.6173C497.095 27.6564 495.361 27.176 493.273 27.176C490.348 27.176 488.009 28.2204 486.254 30.3093C484.541 32.3564 483.685 35.2391 483.685 38.9573C483.685 42.6756 484.541 45.5791 486.254 47.668C488.009 49.7569 490.348 50.8013 493.273 50.8013C497.409 50.8013 500.145 48.984 501.482 45.3493H509.19C508.187 48.8587 506.307 51.6578 503.55 53.7467C500.793 55.7938 497.367 56.8173 493.273 56.8173C489.972 56.8173 487.048 56.0862 484.499 54.624C481.951 53.12 479.945 51.0311 478.483 48.3573C477.063 45.6418 476.353 42.5084 476.353 38.9573Z"/><path fill="#11243E" d="M528.176 56.8173C525.461 56.8173 523.017 56.3369 520.844 55.376C518.713 54.3733 517.021 53.0364 515.768 51.3653C514.515 49.6524 513.846 47.7516 513.763 45.6627H521.157C521.283 47.1249 521.972 48.3573 523.225 49.36C524.52 50.3209 526.129 50.8013 528.051 50.8013C530.056 50.8013 531.602 50.4253 532.688 49.6733C533.816 48.8796 534.38 47.8769 534.38 46.6653C534.38 45.3702 533.753 44.4093 532.5 43.7827C531.289 43.156 529.346 42.4667 526.672 41.7147C524.082 41.0044 521.972 40.3151 520.343 39.6467C518.713 38.9782 517.293 37.9547 516.081 36.576C514.912 35.1973 514.327 33.38 514.327 31.124C514.327 29.2858 514.87 27.6147 515.956 26.1107C517.042 24.5649 518.588 23.3533 520.593 22.476C522.641 21.5987 524.98 21.16 527.612 21.16C531.539 21.16 534.693 22.1627 537.075 24.168C539.498 26.1316 540.793 28.8262 540.96 32.252H533.816C533.691 30.7062 533.064 29.4738 531.936 28.5547C530.808 27.6356 529.283 27.176 527.361 27.176C525.481 27.176 524.04 27.5311 523.037 28.2413C522.035 28.9516 521.533 29.8916 521.533 31.0613C521.533 31.9804 521.868 32.7533 522.536 33.38C523.204 34.0067 524.019 34.508 524.98 34.884C525.941 35.2182 527.361 35.6569 529.241 36.2C531.748 36.8684 533.795 37.5578 535.383 38.268C537.012 38.9364 538.412 39.9391 539.581 41.276C540.751 42.6129 541.357 44.3884 541.399 46.6027C541.399 48.5662 540.856 50.3209 539.769 51.8667C538.683 53.4124 537.137 54.624 535.132 55.5013C533.168 56.3787 530.85 56.8173 528.176 56.8173Z"/><path stroke="#11243E" stroke-width=".333" d="M80 21.0533V56.2533H87.5283V28.5333H97.7137C103.339 28.5333 107.899 33.0642 107.899 38.6533V56.2533H115.427V38.6533C115.427 28.9331 107.497 21.0533 97.7137 21.0533H80Z"/><path fill-rule="evenodd" stroke="#11243E" stroke-width=".333" d="M146.177 35.7608C145.455 31.1811 142.646 27.8067 137.028 27.8067C131.81 27.8067 128.199 30.6975 127.237 35.7608H146.177ZM137.911 49.4221C142.325 49.4221 145.535 47.6541 147.462 45.806L152.197 50.7879C149.066 53.9228 144.734 56.2533 137.992 56.2533C126.434 56.2533 118.97 48.7805 118.97 38.6551C118.97 28.6087 126.836 21.0533 136.946 21.0533C148.423 21.0533 154.924 29.5723 154.364 41.3867H127.237C128.199 46.2895 131.73 49.4221 137.911 49.4221Z" clip-rule="evenodd"/><path fill-rule="evenodd" stroke="#11243E" stroke-width=".333" d="M185.148 35.7608C184.426 31.1811 181.616 27.8067 175.998 27.8067C170.78 27.8067 167.169 30.6975 166.207 35.7608H185.148ZM176.881 49.4221C181.295 49.4221 184.505 47.6541 186.432 45.806L191.167 50.7879C188.036 53.9228 183.704 56.2533 176.962 56.2533C165.404 56.2533 157.94 48.7805 157.94 38.6551C157.94 28.6087 165.807 21.0533 175.916 21.0533C187.393 21.0533 193.894 29.5723 193.334 41.3867H166.207C167.169 46.2895 170.7 49.4221 176.881 49.4221Z" clip-rule="evenodd"/><path fill-rule="evenodd" stroke="#11243E" stroke-width=".333" d="M196.91 21.3568H202.851V12.2533H210.4V21.3568H217.809V28.1805H210.4V42.0076C210.4 48.2625 211.378 49.2342 217.809 49.2342V56.2533H216.691C206.066 56.2533 202.851 52.9172 202.851 42.078V28.1805H196.91V21.3568Z" clip-rule="evenodd"/><path fill-rule="evenodd" stroke="#11243E" stroke-width=".333" d="M249.544 38.6539C249.544 32.6965 244.9 27.8227 239.031 27.8227C233.16 27.8227 228.587 32.6965 228.587 38.6539C228.587 44.6102 233.16 49.484 239.031 49.484C244.9 49.484 249.544 44.6102 249.544 38.6539ZM221.351 38.6539C221.351 28.7705 229.201 21.0533 239.031 21.0533C248.861 21.0533 256.779 28.7705 256.779 38.6539C256.779 48.4688 248.861 56.2533 239.031 56.2533C229.201 56.2533 221.351 48.4688 221.351 38.6539Z" clip-rule="evenodd"/><path stroke="#11243E" stroke-width=".333" d="M289.957 47.3547H271.721L268.588 56.2533H261.131L276.735 12.6373H285.007L300.611 56.2533H293.091L289.957 47.3547ZM287.952 41.5267L280.871 21.2853L273.727 41.5267H287.952Z"/><path stroke="#11243E" stroke-width=".333" d="M324.15 21.16C326.866 21.16 329.289 21.724 331.419 22.852C333.592 23.98 335.284 25.6511 336.495 27.8653C337.707 30.0796 338.313 32.7533 338.313 35.8867V56.2533H331.231V36.952C331.231 33.8604 330.458 31.5 328.913 29.8707C327.367 28.1996 325.257 27.364 322.583 27.364C319.91 27.364 317.779 28.1996 316.191 29.8707C314.646 31.5 313.873 33.8604 313.873 36.952V56.2533H306.729V21.724H313.873V25.672C315.042 24.2516 316.526 23.1444 318.322 22.3507C320.16 21.5569 322.103 21.16 324.15 21.16Z"/><path stroke="#11243E" stroke-width=".333" d="M344.377 38.832C344.377 35.3644 345.087 32.2938 346.508 29.62C347.97 26.9462 349.934 24.8782 352.399 23.416C354.905 21.912 357.663 21.16 360.671 21.16C363.386 21.16 365.747 21.7031 367.752 22.7893C369.799 23.8338 371.428 25.1498 372.64 26.7373V21.724H379.847V56.2533H372.64V51.1147C371.428 52.744 369.778 54.1018 367.689 55.188C365.6 56.2742 363.219 56.8173 360.545 56.8173C357.579 56.8173 354.863 56.0653 352.399 54.5613C349.934 53.0156 347.97 50.8849 346.508 48.1693C345.087 45.412 344.377 42.2996 344.377 38.832ZM372.64 38.9573C372.64 36.576 372.139 34.508 371.136 32.7533C370.175 30.9987 368.901 29.6618 367.313 28.7427C365.726 27.8236 364.013 27.364 362.175 27.364C360.336 27.364 358.623 27.8236 357.036 28.7427C355.448 29.62 354.153 30.936 353.151 32.6907C352.19 34.4036 351.709 36.4507 351.709 38.832C351.709 41.2133 352.19 43.3022 353.151 45.0987C354.153 46.8951 355.448 48.2738 357.036 49.2347C358.665 50.1538 360.378 50.6133 362.175 50.6133C364.013 50.6133 365.726 50.1538 367.313 49.2347C368.901 48.3156 370.175 46.9787 371.136 45.224C372.139 43.4276 372.64 41.3387 372.64 38.9573Z"/><path stroke="#11243E" stroke-width=".333" d="M395.707 9.88V56.2533H388.563V9.88H395.707Z"/><path stroke="#11243E" stroke-width=".333" d="M435.503 21.724L414.321 72.484H406.927L413.945 55.6893L400.347 21.724H408.305L418.019 48.044L428.108 21.724H435.503Z"/><path stroke="#11243E" stroke-width=".333" d="M448.562 27.552V46.6653C448.562 47.9604 448.854 48.9004 449.439 49.4853C450.066 50.0284 451.11 50.3 452.573 50.3H456.959V56.2533H451.319C448.102 56.2533 445.638 55.5013 443.925 53.9973C442.212 52.4933 441.355 50.0493 441.355 46.6653V27.552H437.282V21.724H441.355V13.1387H448.562V21.724H456.959V27.552H448.562Z"/><path stroke="#11243E" stroke-width=".333" d="M466.512 17.1493C465.217 17.1493 464.13 16.7107 463.253 15.8333C462.376 14.956 461.937 13.8698 461.937 12.5747C461.937 11.2796 462.376 10.1933 463.253 9.316C464.13 8.43867 465.217 8 466.512 8C467.765 8 468.83 8.43867 469.708 9.316C470.585 10.1933 471.024 11.2796 471.024 12.5747C471.024 13.8698 470.585 14.956 469.708 15.8333C468.83 16.7107 467.765 17.1493 466.512 17.1493ZM470.021 21.724V56.2533H462.877V21.724H470.021Z"/><path stroke="#11243E" stroke-width=".333" d="M476.353 38.9573C476.353 35.4062 477.063 32.2938 478.483 29.62C479.945 26.9044 481.951 24.8156 484.499 23.3533C487.048 21.8911 489.972 21.16 493.273 21.16C497.45 21.16 500.897 22.1627 503.613 24.168C506.37 26.1316 508.229 28.9516 509.19 32.628H501.482C500.855 30.9151 499.853 29.5782 498.474 28.6173C497.095 27.6564 495.361 27.176 493.273 27.176C490.348 27.176 488.009 28.2204 486.254 30.3093C484.541 32.3564 483.685 35.2391 483.685 38.9573C483.685 42.6756 484.541 45.5791 486.254 47.668C488.009 49.7569 490.348 50.8013 493.273 50.8013C497.409 50.8013 500.145 48.984 501.482 45.3493H509.19C508.187 48.8587 506.307 51.6578 503.55 53.7467C500.793 55.7938 497.367 56.8173 493.273 56.8173C489.972 56.8173 487.048 56.0862 484.499 54.624C481.951 53.12 479.945 51.0311 478.483 48.3573C477.063 45.6418 476.353 42.5084 476.353 38.9573Z"/><path stroke="#11243E" stroke-width=".333" d="M528.176 56.8173C525.461 56.8173 523.017 56.3369 520.844 55.376C518.713 54.3733 517.021 53.0364 515.768 51.3653C514.515 49.6524 513.846 47.7516 513.763 45.6627H521.157C521.283 47.1249 521.972 48.3573 523.225 49.36C524.52 50.3209 526.129 50.8013 528.051 50.8013C530.056 50.8013 531.602 50.4253 532.688 49.6733C533.816 48.8796 534.38 47.8769 534.38 46.6653C534.38 45.3702 533.753 44.4093 532.5 43.7827C531.289 43.156 529.346 42.4667 526.672 41.7147C524.082 41.0044 521.972 40.3151 520.343 39.6467C518.713 38.9782 517.293 37.9547 516.081 36.576C514.912 35.1973 514.327 33.38 514.327 31.124C514.327 29.2858 514.87 27.6147 515.956 26.1107C517.042 24.5649 518.588 23.3533 520.593 22.476C522.641 21.5987 524.98 21.16 527.612 21.16C531.539 21.16 534.693 22.1627 537.075 24.168C539.498 26.1316 540.793 28.8262 540.96 32.252H533.816C533.691 30.7062 533.064 29.4738 531.936 28.5547C530.808 27.6356 529.283 27.176 527.361 27.176C525.481 27.176 524.04 27.5311 523.037 28.2413C522.035 28.9516 521.533 29.8916 521.533 31.0613C521.533 31.9804 521.868 32.7533 522.536 33.38C523.204 34.0067 524.019 34.508 524.98 34.884C525.941 35.2182 527.361 35.6569 529.241 36.2C531.748 36.8684 533.795 37.5578 535.383 38.268C537.012 38.9364 538.412 39.9391 539.581 41.276C540.751 42.6129 541.357 44.3884 541.399 46.6027C541.399 48.5662 540.856 50.3209 539.769 51.8667C538.683 53.4124 537.137 54.624 535.132 55.5013C533.168 56.3787 530.85 56.8173 528.176 56.8173Z"/><defs><filter id="filter0_d_3239_11188" width="28.23" height="29.098" x="18.286" y="21.371" color-interpolation-filters="sRGB" filterUnits="userSpaceOnUse"><feFlood flood-opacity="0" result="BackgroundImageFix"/><feColorMatrix in="SourceAlpha" result="hardAlpha" type="matrix" values="0 0 0 0 0 0 0 0 0 0 0 0 0 0 0 0 0 0 127 0"/><feOffset dx=".401" dy=".534"/><feGaussianBlur stdDeviation=".2"/><feComposite in2="hardAlpha" operator="out"/><feColorMatrix type="matrix" values="0 0 0 0 0 0 0 0 0 0 0 0 0 0 0 0 0 0 0.05 0"/><feBlend in2="BackgroundImageFix" mode="normal" result="effect1_dropShadow_3239_11188"/><feBlend in="SourceGraphic" in2="effect1_dropShadow_3239_11188" mode="normal" result="shape"/></filter><linearGradient id="paint0_linear_3239_11188" x1="56" x2="14" y1="78.8" y2="4.229" gradientUnits="userSpaceOnUse"><stop stop-color="#8588FF"/><stop offset="1" stop-color="#63D9FE"/></linearGradient></defs></svg>