<svg xmlns="http://www.w3.org/2000/svg" width="592" height="64" fill="none" viewBox="0 0 592 64"><path fill="url(#paint0_linear_3239_11695)" d="M56 32C56 18.7452 45.2548 8 32 8H8V56H56V32Z"/><g filter="url(#filter0_d_3239_11695)"><rect width="13.356" height="5.373" x="28.928" y="23.77" fill="#fff" rx=".512"/><rect width="13.356" height="13.356" x="21.714" y="30.985" fill="#fff" rx=".512"/><circle cx="24.401" cy="26.457" r="2.687" fill="#fff"/><rect width="13.356" height="5.373" x="36.913" y="44.343" fill="#fff" rx=".512" transform="rotate(-90 36.9133 44.3428)"/></g><path fill="#11243E" d="M80 20.8V56H87.5283V28.28H97.7137C103.339 28.28 107.899 32.8109 107.899 38.4V56H115.427V38.4C115.427 28.6798 107.497 20.8 97.7137 20.8H80Z"/><path fill="#11243E" fill-rule="evenodd" d="M146.177 35.5075C145.455 30.9277 142.646 27.5534 137.028 27.5534C131.81 27.5534 128.199 30.4442 127.237 35.5075H146.177ZM137.911 49.1688C142.325 49.1688 145.535 47.4008 147.462 45.5526L152.197 50.5345C149.066 53.6695 144.734 56 137.992 56C126.434 56 118.97 48.5271 118.97 38.4018C118.97 28.3554 126.836 20.8 136.946 20.8C148.423 20.8 154.924 29.319 154.364 41.1333H127.237C128.199 46.0362 131.73 49.1688 137.911 49.1688Z" clip-rule="evenodd"/><path fill="#11243E" fill-rule="evenodd" d="M185.148 35.5075C184.426 30.9277 181.616 27.5534 175.998 27.5534C170.78 27.5534 167.169 30.4442 166.207 35.5075H185.148ZM176.881 49.1688C181.295 49.1688 184.505 47.4008 186.432 45.5526L191.167 50.5345C188.036 53.6695 183.704 56 176.962 56C165.404 56 157.94 48.5271 157.94 38.4018C157.94 28.3554 165.807 20.8 175.916 20.8C187.393 20.8 193.894 29.319 193.334 41.1333H166.207C167.169 46.0362 170.7 49.1688 176.881 49.1688Z" clip-rule="evenodd"/><path fill="#11243E" fill-rule="evenodd" d="M196.91 21.1034H202.851V12H210.4V21.1034H217.809V27.9271H210.4V41.7543C210.4 48.0092 211.378 48.9809 217.809 48.9809V56H216.691C206.066 56 202.851 52.6639 202.851 41.8247V27.9271H196.91V21.1034Z" clip-rule="evenodd"/><path fill="#11243E" fill-rule="evenodd" d="M249.544 38.4006C249.544 32.4431 244.9 27.5694 239.031 27.5694C233.16 27.5694 228.587 32.4431 228.587 38.4006C228.587 44.3569 233.16 49.2306 239.031 49.2306C244.9 49.2306 249.544 44.3569 249.544 38.4006ZM221.351 38.4006C221.351 28.5172 229.201 20.8 239.031 20.8C248.861 20.8 256.779 28.5172 256.779 38.4006C256.779 48.2155 248.861 56 239.031 56C229.201 56 221.351 48.2155 221.351 38.4006Z" clip-rule="evenodd"/><path fill="#11243E" d="M320.001 11.8827L307.092 55.436H299.008L289.859 22.4734L280.145 55.436L272.124 55.4987L259.779 11.8827H267.361L276.385 47.352L286.161 11.8827H294.183L303.269 47.164L312.356 11.8827H320.001Z"/><path fill="#11243E" d="M328.862 16.332C327.566 16.332 326.48 15.8934 325.603 15.016C324.726 14.1387 324.287 13.0525 324.287 11.7574C324.287 10.4623 324.726 9.37604 325.603 8.49871C326.48 7.62137 327.566 7.1827 328.862 7.1827C330.115 7.1827 331.18 7.62137 332.058 8.49871C332.935 9.37604 333.374 10.4623 333.374 11.7574C333.374 13.0525 332.935 14.1387 332.058 15.016C331.18 15.8934 330.115 16.332 328.862 16.332ZM332.371 20.9067V55.436H325.227V20.9067H332.371Z"/><path fill="#11243E" d="M348.228 25.92C349.272 24.1654 350.651 22.8076 352.364 21.8467C354.118 20.844 356.186 20.3427 358.568 20.3427V27.7374H356.75C353.951 27.7374 351.821 28.4476 350.358 29.868C348.938 31.2885 348.228 33.7534 348.228 37.2627V55.436H341.084V20.9067H348.228V25.92Z"/><path fill="#11243E" d="M396.115 37.3254C396.115 38.6205 396.031 39.7903 395.864 40.8347H369.481C369.69 43.592 370.714 45.8063 372.552 47.4774C374.39 49.1485 376.646 49.984 379.32 49.984C383.163 49.984 385.879 48.3756 387.466 45.1587H395.174C394.13 48.3338 392.229 50.9449 389.472 52.992C386.756 54.9974 383.372 56 379.32 56C376.019 56 373.053 55.2689 370.421 53.8067C367.831 52.3027 365.784 50.2138 364.28 47.54C362.818 44.8245 362.086 41.6912 362.086 38.14C362.086 34.5889 362.797 31.4765 364.217 28.8027C365.679 26.0872 367.706 23.9983 370.296 22.536C372.928 21.0738 375.936 20.3427 379.32 20.3427C382.578 20.3427 385.482 21.0529 388.031 22.4734C390.579 23.8938 392.563 25.8992 393.984 28.4894C395.404 31.0378 396.115 33.9832 396.115 37.3254ZM388.657 35.0694C388.615 32.4374 387.675 30.3276 385.837 28.74C383.999 27.1525 381.722 26.3587 379.007 26.3587C376.542 26.3587 374.432 27.1525 372.677 28.74C370.922 30.2858 369.878 32.3956 369.544 35.0694H388.657Z"/><path fill="#11243E" d="M416.954 26.7347H410.562V55.436H403.356V26.7347H399.282V20.9067H403.356V18.4627C403.356 14.4938 404.4 11.6111 406.489 9.8147C408.62 7.97648 411.941 7.05737 416.453 7.05737V13.0107C414.28 13.0107 412.756 13.4285 411.878 14.264C411.001 15.0578 410.562 16.4574 410.562 18.4627V20.9067H416.954V26.7347Z"/><path fill="#11243E" d="M429.763 25.92C430.807 24.1654 432.186 22.8076 433.899 21.8467C435.654 20.844 437.722 20.3427 440.103 20.3427V27.7374H438.286C435.486 27.7374 433.356 28.4476 431.894 29.868C430.473 31.2885 429.763 33.7534 429.763 37.2627V55.436H422.619V20.9067H429.763V25.92Z"/><path fill="#11243E" d="M443.622 38.0147C443.622 34.5471 444.332 31.4765 445.752 28.8027C447.215 26.1289 449.178 24.0609 451.643 22.5987C454.15 21.0947 456.907 20.3427 459.915 20.3427C462.631 20.3427 464.991 20.8858 466.996 21.972C469.043 23.0165 470.673 24.3325 471.884 25.92V20.9067H479.091V55.436H471.884V50.2974C470.673 51.9267 469.023 53.2845 466.934 54.3707C464.845 55.4569 462.463 56 459.79 56C456.823 56 454.108 55.248 451.643 53.744C449.178 52.1983 447.215 50.0676 445.752 47.352C444.332 44.5947 443.622 41.4823 443.622 38.0147ZM471.884 38.14C471.884 35.7587 471.383 33.6907 470.38 31.936C469.419 30.1814 468.145 28.8445 466.558 27.9254C464.97 27.0063 463.257 26.5467 461.419 26.5467C459.581 26.5467 457.868 27.0063 456.28 27.9254C454.693 28.8027 453.398 30.1187 452.395 31.8734C451.434 33.5863 450.954 35.6334 450.954 38.0147C450.954 40.396 451.434 42.4849 452.395 44.2814C453.398 46.0778 454.693 47.4565 456.28 48.4174C457.91 49.3365 459.623 49.796 461.419 49.796C463.257 49.796 464.97 49.3365 466.558 48.4174C468.145 47.4983 469.419 46.1614 470.38 44.4067C471.383 42.6103 471.884 40.5214 471.884 38.14Z"/><path fill="#11243E" d="M529.606 20.3427C532.322 20.3427 534.745 20.9067 536.876 22.0347C539.048 23.1627 540.74 24.8338 541.952 27.048C543.205 29.2623 543.832 31.936 543.832 35.0694V55.436H536.75V36.1347C536.75 33.0432 535.977 30.6827 534.432 29.0534C532.886 27.3823 530.776 26.5467 528.102 26.5467C525.429 26.5467 523.298 27.3823 521.71 29.0534C520.165 30.6827 519.392 33.0432 519.392 36.1347V55.436H512.31V36.1347C512.31 33.0432 511.537 30.6827 509.992 29.0534C508.446 27.3823 506.336 26.5467 503.662 26.5467C500.989 26.5467 498.858 27.3823 497.27 29.0534C495.725 30.6827 494.952 33.0432 494.952 36.1347V55.436H487.808V20.9067H494.952V24.8547C496.121 23.4343 497.605 22.3272 499.401 21.5334C501.197 20.7396 503.119 20.3427 505.166 20.3427C507.924 20.3427 510.389 20.9276 512.561 22.0974C514.733 23.2672 516.405 24.9592 517.574 27.1734C518.619 25.0845 520.248 23.4343 522.462 22.2227C524.677 20.9694 527.058 20.3427 529.606 20.3427Z"/><path fill="#11243E" d="M583.902 37.3254C583.902 38.6205 583.819 39.7903 583.652 40.8347H557.269C557.478 43.592 558.501 45.8063 560.34 47.4774C562.178 49.1485 564.434 49.984 567.108 49.984C570.951 49.984 573.667 48.3756 575.254 45.1587H582.962C581.918 48.3338 580.017 50.9449 577.26 52.992C574.544 54.9974 571.16 56 567.108 56C563.807 56 560.841 55.2689 558.209 53.8067C555.619 52.3027 553.572 50.2138 552.068 47.54C550.605 44.8245 549.874 41.6912 549.874 38.14C549.874 34.5889 550.585 31.4765 552.005 28.8027C553.467 26.0872 555.493 23.9983 558.084 22.536C560.716 21.0738 563.724 20.3427 567.108 20.3427C570.366 20.3427 573.27 21.0529 575.818 22.4734C578.367 23.8938 580.351 25.8992 581.772 28.4894C583.192 31.0378 583.902 33.9832 583.902 37.3254ZM576.445 35.0694C576.403 32.4374 575.463 30.3276 573.625 28.74C571.787 27.1525 569.51 26.3587 566.794 26.3587C564.329 26.3587 562.22 27.1525 560.465 28.74C558.71 30.2858 557.666 32.3956 557.332 35.0694H576.445Z"/><path stroke="#11243E" stroke-width=".333" d="M320.001 11.8827L307.092 55.436H299.008L289.859 22.4734L280.145 55.436L272.124 55.4987L259.779 11.8827H267.361L276.385 47.352L286.161 11.8827H294.183L303.269 47.164L312.356 11.8827H320.001Z"/><path stroke="#11243E" stroke-width=".333" d="M328.862 16.332C327.566 16.332 326.48 15.8934 325.603 15.016C324.726 14.1387 324.287 13.0525 324.287 11.7574C324.287 10.4623 324.726 9.37604 325.603 8.49871C326.48 7.62137 327.566 7.1827 328.862 7.1827C330.115 7.1827 331.18 7.62137 332.058 8.49871C332.935 9.37604 333.374 10.4623 333.374 11.7574C333.374 13.0525 332.935 14.1387 332.058 15.016C331.18 15.8934 330.115 16.332 328.862 16.332ZM332.371 20.9067V55.436H325.227V20.9067H332.371Z"/><path stroke="#11243E" stroke-width=".333" d="M348.228 25.92C349.272 24.1654 350.651 22.8076 352.364 21.8467C354.118 20.844 356.186 20.3427 358.568 20.3427V27.7374H356.75C353.951 27.7374 351.821 28.4476 350.358 29.868C348.938 31.2885 348.228 33.7534 348.228 37.2627V55.436H341.084V20.9067H348.228V25.92Z"/><path stroke="#11243E" stroke-width=".333" d="M396.115 37.3254C396.115 38.6205 396.031 39.7903 395.864 40.8347H369.481C369.69 43.592 370.714 45.8063 372.552 47.4774C374.39 49.1485 376.646 49.984 379.32 49.984C383.163 49.984 385.879 48.3756 387.466 45.1587H395.174C394.13 48.3338 392.229 50.9449 389.472 52.992C386.756 54.9974 383.372 56 379.32 56C376.019 56 373.053 55.2689 370.421 53.8067C367.831 52.3027 365.784 50.2138 364.28 47.54C362.818 44.8245 362.086 41.6912 362.086 38.14C362.086 34.5889 362.797 31.4765 364.217 28.8027C365.679 26.0872 367.706 23.9983 370.296 22.536C372.928 21.0738 375.936 20.3427 379.32 20.3427C382.578 20.3427 385.482 21.0529 388.031 22.4734C390.579 23.8938 392.563 25.8992 393.984 28.4894C395.404 31.0378 396.115 33.9832 396.115 37.3254ZM388.657 35.0694C388.615 32.4374 387.675 30.3276 385.837 28.74C383.999 27.1525 381.722 26.3587 379.007 26.3587C376.542 26.3587 374.432 27.1525 372.677 28.74C370.922 30.2858 369.878 32.3956 369.544 35.0694H388.657Z"/><path stroke="#11243E" stroke-width=".333" d="M416.954 26.7347H410.562V55.436H403.356V26.7347H399.282V20.9067H403.356V18.4627C403.356 14.4938 404.4 11.6111 406.489 9.8147C408.62 7.97648 411.941 7.05737 416.453 7.05737V13.0107C414.28 13.0107 412.756 13.4285 411.878 14.264C411.001 15.0578 410.562 16.4574 410.562 18.4627V20.9067H416.954V26.7347Z"/><path stroke="#11243E" stroke-width=".333" d="M429.763 25.92C430.807 24.1654 432.186 22.8076 433.899 21.8467C435.654 20.844 437.722 20.3427 440.103 20.3427V27.7374H438.286C435.486 27.7374 433.356 28.4476 431.894 29.868C430.473 31.2885 429.763 33.7534 429.763 37.2627V55.436H422.619V20.9067H429.763V25.92Z"/><path stroke="#11243E" stroke-width=".333" d="M443.622 38.0147C443.622 34.5471 444.332 31.4765 445.752 28.8027C447.215 26.1289 449.178 24.0609 451.643 22.5987C454.15 21.0947 456.907 20.3427 459.915 20.3427C462.631 20.3427 464.991 20.8858 466.996 21.972C469.043 23.0165 470.673 24.3325 471.884 25.92V20.9067H479.091V55.436H471.884V50.2974C470.673 51.9267 469.023 53.2845 466.934 54.3707C464.845 55.4569 462.463 56 459.79 56C456.823 56 454.108 55.248 451.643 53.744C449.178 52.1983 447.215 50.0676 445.752 47.352C444.332 44.5947 443.622 41.4823 443.622 38.0147ZM471.884 38.14C471.884 35.7587 471.383 33.6907 470.38 31.936C469.419 30.1814 468.145 28.8445 466.558 27.9254C464.97 27.0063 463.257 26.5467 461.419 26.5467C459.581 26.5467 457.868 27.0063 456.28 27.9254C454.693 28.8027 453.398 30.1187 452.395 31.8734C451.434 33.5863 450.954 35.6334 450.954 38.0147C450.954 40.396 451.434 42.4849 452.395 44.2814C453.398 46.0778 454.693 47.4565 456.28 48.4174C457.91 49.3365 459.623 49.796 461.419 49.796C463.257 49.796 464.97 49.3365 466.558 48.4174C468.145 47.4983 469.419 46.1614 470.38 44.4067C471.383 42.6103 471.884 40.5214 471.884 38.14Z"/><path stroke="#11243E" stroke-width=".333" d="M529.606 20.3427C532.322 20.3427 534.745 20.9067 536.876 22.0347C539.048 23.1627 540.74 24.8338 541.952 27.048C543.205 29.2623 543.832 31.936 543.832 35.0694V55.436H536.75V36.1347C536.75 33.0432 535.977 30.6827 534.432 29.0534C532.886 27.3823 530.776 26.5467 528.102 26.5467C525.429 26.5467 523.298 27.3823 521.71 29.0534C520.165 30.6827 519.392 33.0432 519.392 36.1347V55.436H512.31V36.1347C512.31 33.0432 511.537 30.6827 509.992 29.0534C508.446 27.3823 506.336 26.5467 503.662 26.5467C500.989 26.5467 498.858 27.3823 497.27 29.0534C495.725 30.6827 494.952 33.0432 494.952 36.1347V55.436H487.808V20.9067H494.952V24.8547C496.121 23.4343 497.605 22.3272 499.401 21.5334C501.197 20.7396 503.119 20.3427 505.166 20.3427C507.924 20.3427 510.389 20.9276 512.561 22.0974C514.733 23.2672 516.405 24.9592 517.574 27.1734C518.619 25.0845 520.248 23.4343 522.462 22.2227C524.677 20.9694 527.058 20.3427 529.606 20.3427Z"/><path stroke="#11243E" stroke-width=".333" d="M583.902 37.3254C583.902 38.6205 583.819 39.7903 583.652 40.8347H557.269C557.478 43.592 558.501 45.8063 560.34 47.4774C562.178 49.1485 564.434 49.984 567.108 49.984C570.951 49.984 573.667 48.3756 575.254 45.1587H582.962C581.918 48.3338 580.017 50.9449 577.26 52.992C574.544 54.9974 571.16 56 567.108 56C563.807 56 560.841 55.2689 558.209 53.8067C555.619 52.3027 553.572 50.2138 552.068 47.54C550.605 44.8245 549.874 41.6912 549.874 38.14C549.874 34.5889 550.585 31.4765 552.005 28.8027C553.467 26.0872 555.493 23.9983 558.084 22.536C560.716 21.0738 563.724 20.3427 567.108 20.3427C570.366 20.3427 573.27 21.0529 575.818 22.4734C578.367 23.8938 580.351 25.8992 581.772 28.4894C583.192 31.0378 583.902 33.9832 583.902 37.3254ZM576.445 35.0694C576.403 32.4374 575.463 30.3276 573.625 28.74C571.787 27.1525 569.51 26.3587 566.794 26.3587C564.329 26.3587 562.22 27.1525 560.465 28.74C558.71 30.2858 557.666 32.3956 557.332 35.0694H576.445Z"/><defs><filter id="filter0_d_3239_11695" width="26.572" height="27.572" x="21.714" y="23.77" color-interpolation-filters="sRGB" filterUnits="userSpaceOnUse"><feFlood flood-opacity="0" result="BackgroundImageFix"/><feColorMatrix in="SourceAlpha" result="hardAlpha" type="matrix" values="0 0 0 0 0 0 0 0 0 0 0 0 0 0 0 0 0 0 127 0"/><feOffset dx="3" dy="4"/><feGaussianBlur stdDeviation="1.5"/><feComposite in2="hardAlpha" operator="out"/><feColorMatrix type="matrix" values="0 0 0 0 0 0 0 0 0 0 0 0 0 0 0 0 0 0 0.05 0"/><feBlend in2="BackgroundImageFix" mode="normal" result="effect1_dropShadow_3239_11695"/><feBlend in="SourceGraphic" in2="effect1_dropShadow_3239_11695" mode="normal" result="shape"/></filter><linearGradient id="paint0_linear_3239_11695" x1="59.771" x2="15.543" y1="70.229" y2="3.714" gradientUnits="userSpaceOnUse"><stop stop-color="#6A67E8"/><stop offset=".699" stop-color="#B49AFC"/></linearGradient></defs></svg>