<svg width="320" height="65" viewBox="0 0 320 65" fill="none" xmlns="http://www.w3.org/2000/svg">
<path d="M48 32.9956C48 19.7408 37.2548 8.99561 24 8.99561H0V56.9956H48V32.9956Z" fill="url(#paint0_linear_3688_21636)"/>
<g filter="url(#filter0_d_3688_21636)">
<path d="M35.356 23.3955H12.6451C12.099 23.3955 11.6577 23.8368 11.6577 24.3829V47.0938C11.6577 47.64 12.099 48.0812 12.6451 48.0812H35.356C35.9022 48.0812 36.3434 47.64 36.3434 47.0938V24.3829C36.3434 23.8368 35.9022 23.3955 35.356 23.3955ZM24.0345 35.9266L18.1099 40.8946C17.9495 41.0304 17.7057 40.9162 17.7057 40.7064V38.7716C17.7057 38.7007 17.7397 38.6297 17.7952 38.5834L21.1833 35.7384L17.7952 32.8933C17.7668 32.8709 17.744 32.8423 17.7285 32.8097C17.713 32.777 17.7052 32.7412 17.7057 32.7051V30.7704C17.7057 30.5605 17.9495 30.4464 18.1099 30.5821L24.0345 35.5471C24.1549 35.6458 24.1549 35.8279 24.0345 35.9266ZM30.2954 40.7064C30.2954 40.8421 30.1905 40.9532 30.064 40.9532H24.3554C24.2289 40.9532 24.124 40.8421 24.124 40.7064V39.2252C24.124 39.0895 24.2289 38.9784 24.3554 38.9784H30.064C30.1905 38.9784 30.2954 39.0895 30.2954 39.2252V40.7064Z" fill="white"/>
</g>
<path fill-rule="evenodd" clip-rule="evenodd" d="M90.0873 21.6226H73.2401L81.5759 29.8206H90.0873C95.4515 29.8206 99.7952 34.0714 99.7952 39.3091V56.9956H108.175V39.3091C108.175 29.5385 100.074 21.6226 90.0873 21.6226ZM80.3794 31.0143L72 22.7734V56.9956H80.3794V31.0143ZM144.982 51.2125L139.664 45.7081L139.346 46.009C137.501 47.751 134.408 49.4336 130.135 49.4336C127.13 49.4336 124.814 48.6851 123.14 47.3898C121.593 46.1932 120.559 44.5034 120.047 42.4212H146.946L146.966 42.0092C147.249 36.1373 145.75 31.0399 142.686 27.4026C139.615 23.7575 135.007 21.6226 129.173 21.6226C118.87 21.6226 110.825 29.2122 110.825 39.3108C110.825 44.3842 112.728 48.8137 116.12 51.9734C119.511 55.1321 124.362 56.9956 130.216 56.9956C137.052 56.9956 141.48 54.663 144.679 51.5107L144.982 51.2125ZM183.807 51.2125L178.49 45.7081L178.171 46.009C176.326 47.751 173.233 49.4336 168.96 49.4336C165.955 49.4336 163.639 48.6851 161.965 47.3898C160.418 46.1932 159.385 44.5034 158.872 42.4212H185.771L185.791 42.0092C186.074 36.1373 184.575 31.0399 181.511 27.4026C178.44 23.7575 173.832 21.6226 167.999 21.6226C157.695 21.6226 149.65 29.2122 149.65 39.3108C149.65 44.3842 151.553 48.8137 154.945 51.9734C158.336 55.1321 163.187 56.9956 169.041 56.9956C175.877 56.9956 180.305 54.663 183.504 51.5107L183.807 51.2125ZM194.393 21.9201H188.475V29.4747H194.393V42.6664C194.393 47.9929 195.189 51.6241 197.443 53.9013C199.701 56.1821 203.311 56.9956 208.622 56.9956H210.175V49.2494H209.735C208.138 49.2494 206.91 49.1894 205.961 49.0123C205.015 48.8359 204.387 48.5505 203.95 48.1299C203.514 47.7103 203.22 47.1098 203.038 46.2073C202.856 45.2997 202.794 44.1261 202.794 42.5975V29.4747H210.175V21.9201H202.794V12.9956H194.393V21.9201ZM129.255 29.1083C131.961 29.1083 133.946 29.9051 135.34 31.205C136.632 32.4093 137.453 34.0787 137.846 36.0409H120.043C120.557 33.8916 121.603 32.2136 123.065 31.0494C124.642 29.7934 126.738 29.1083 129.255 29.1083ZM168.081 29.1083C170.786 29.1083 172.771 29.9051 174.165 31.205C175.457 32.4093 176.278 34.0787 176.672 36.0409H158.868C159.382 33.8916 160.428 32.2136 161.89 31.0494C163.467 29.7934 165.563 29.1083 168.081 29.1083ZM230.879 29.1239C236.469 29.1239 240.913 33.6936 240.913 39.3097C240.913 44.9246 236.469 49.4943 230.879 49.4943C225.291 49.4943 220.913 44.9284 220.913 39.3097C220.913 33.6898 225.291 29.1239 230.879 29.1239ZM230.879 21.6226C220.846 21.6226 212.825 29.3783 212.825 39.3097C212.825 49.1728 220.845 56.9956 230.879 56.9956C240.91 56.9956 249 49.175 249 39.3097C249 29.3761 240.909 21.6226 230.879 21.6226Z" fill="#11243E"/>
<path d="M253.193 34.3676C253.193 30.0645 254.154 26.2209 256.076 22.8369C258.04 19.4112 260.692 16.7583 264.035 14.8783C267.419 12.9565 271.2 11.9956 275.377 11.9956C280.265 11.9956 284.548 13.2489 288.224 15.7556C291.9 18.2623 294.47 21.7298 295.932 26.1583H285.843C284.84 24.0694 283.42 22.5027 281.581 21.4583C279.785 20.4138 277.696 19.8916 275.315 19.8916C272.766 19.8916 270.489 20.4974 268.484 21.7089C266.52 22.8787 264.975 24.5498 263.847 26.7223C262.76 28.8947 262.217 31.4432 262.217 34.3676C262.217 37.2503 262.76 39.7987 263.847 42.0129C264.975 44.1854 266.52 45.8774 268.484 47.0889C270.489 48.2587 272.766 48.8436 275.315 48.8436C277.696 48.8436 279.785 48.3214 281.581 47.2769C283.42 46.1907 284.84 44.6032 285.843 42.5143H295.932C294.47 46.9845 291.9 50.4729 288.224 52.9796C284.589 55.4445 280.307 56.6769 275.377 56.6769C271.2 56.6769 267.419 55.7369 264.035 53.8569C260.692 51.9352 258.04 49.2823 256.076 45.8983C254.154 42.5143 253.193 38.6707 253.193 34.3676Z" fill="#11243E"/>
<path d="M311.532 12.5596V56.3009H302.759V12.5596H311.532Z" fill="#11243E"/>
<defs>
<filter id="filter0_d_3688_21636" x="11.6577" y="23.3955" width="30.6855" height="31.6858" filterUnits="userSpaceOnUse" color-interpolation-filters="sRGB">
<feFlood flood-opacity="0" result="BackgroundImageFix"/>
<feColorMatrix in="SourceAlpha" type="matrix" values="0 0 0 0 0 0 0 0 0 0 0 0 0 0 0 0 0 0 127 0" result="hardAlpha"/>
<feOffset dx="3" dy="4"/>
<feGaussianBlur stdDeviation="1.5"/>
<feComposite in2="hardAlpha" operator="out"/>
<feColorMatrix type="matrix" values="0 0 0 0 0 0 0 0 0 0 0 0 0 0 0 0 0 0 0.05 0"/>
<feBlend mode="normal" in2="BackgroundImageFix" result="effect1_dropShadow_3688_21636"/>
<feBlend mode="normal" in="SourceGraphic" in2="effect1_dropShadow_3688_21636" result="shape"/>
</filter>
<linearGradient id="paint0_linear_3688_21636" x1="48" y1="66.767" x2="-27.4286" y2="-20.6615" gradientUnits="userSpaceOnUse">
<stop stop-color="#FF85B8"/>
<stop offset="1" stop-color="#EF8F59"/>
</linearGradient>
</defs>
</svg>
