<svg width="474" height="74" viewBox="0 0 474 74" fill="none" xmlns="http://www.w3.org/2000/svg">
<path d="M48 32.9956C48 19.7408 37.2548 8.99561 24 8.99561H0V56.9956H48V32.9956Z" fill="url(#paint0_linear_3688_21574)"/>
<g filter="url(#filter0_d_3688_21574)">
<path d="M29.198 34.7066C29.5343 34.9007 29.5343 35.3861 29.198 35.5802L21.2917 40.1449C20.9554 40.3391 20.5351 40.0964 20.5351 39.7081L20.5351 30.5787C20.5351 30.1904 20.9554 29.9478 21.2917 30.1419L29.198 34.7066Z" fill="white"/>
<path d="M35.3167 27.7347C35.3736 28.1014 35.0574 28.4176 34.6907 28.3607L30.383 27.6921C29.9395 27.6233 29.762 27.0799 30.0793 26.7625L33.7185 23.1233C34.0359 22.806 34.5793 22.9835 34.6481 23.427L35.3167 27.7347Z" fill="white"/>
<path fill-rule="evenodd" clip-rule="evenodd" d="M24.2028 23.7223C18.0378 23.7223 13.04 28.6665 13.04 34.7654C13.04 40.8644 18.0378 45.8086 24.2028 45.8086C28.6538 45.8086 32.4991 43.2316 34.2922 39.4975C34.6188 38.8174 35.4409 38.528 36.1283 38.851C36.8158 39.1741 37.1084 39.9874 36.7818 40.6675C34.5494 45.3165 29.7575 48.5353 24.2028 48.5353C16.5155 48.5353 10.2837 42.3703 10.2837 34.7654C10.2837 27.1606 16.5155 20.9956 24.2028 20.9956C28.0973 20.9956 31.6203 22.5796 34.145 25.1285C34.6777 25.6663 34.6689 26.5295 34.1253 27.0565C33.5816 27.5835 32.7091 27.5747 32.1764 27.0369C30.1487 24.9899 27.3266 23.7223 24.2028 23.7223Z" fill="white"/>
</g>
<path fill-rule="evenodd" clip-rule="evenodd" d="M90.0873 21.9956H73.2401L81.5759 30.1936H90.0873C95.4515 30.1936 99.7952 34.4444 99.7952 39.6821V57.3687H108.175V39.6821C108.175 29.9115 100.074 21.9956 90.0873 21.9956ZM80.3794 31.3874L72 23.1464V57.3687H80.3794V31.3874ZM144.982 51.5856L139.664 46.0812L139.346 46.382C137.501 48.124 134.408 49.8066 130.135 49.8066C127.13 49.8066 124.814 49.0582 123.14 47.7629C121.593 46.5663 120.559 44.8765 120.047 42.7943H146.946L146.966 42.3822C147.249 36.5104 145.75 31.413 142.686 27.7756C139.615 24.1306 135.007 21.9956 129.173 21.9956C118.87 21.9956 110.825 29.5853 110.825 39.6839C110.825 44.7572 112.728 49.1867 116.12 52.3465C119.511 55.5052 124.362 57.3687 130.216 57.3687C137.052 57.3687 141.48 55.036 144.679 51.8838L144.982 51.5856ZM183.807 51.5856L178.49 46.0812L178.171 46.382C176.326 48.124 173.233 49.8066 168.96 49.8066C165.955 49.8066 163.639 49.0582 161.965 47.7629C160.418 46.5663 159.385 44.8765 158.872 42.7943H185.771L185.791 42.3822C186.074 36.5104 184.575 31.413 181.511 27.7756C178.44 24.1306 173.832 21.9956 167.999 21.9956C157.695 21.9956 149.65 29.5853 149.65 39.6839C149.65 44.7572 151.553 49.1867 154.945 52.3465C158.336 55.5052 163.187 57.3687 169.041 57.3687C175.877 57.3687 180.305 55.036 183.504 51.8838L183.807 51.5856ZM194.393 22.2931H188.475V29.8477H194.393V43.0395C194.393 48.366 195.189 51.9971 197.443 54.2744C199.701 56.5551 203.311 57.3687 208.622 57.3687H210.175V49.6225H209.735C208.138 49.6225 206.91 49.5625 205.961 49.3854C205.015 49.209 204.387 48.9235 203.95 48.5029C203.514 48.0834 203.22 47.4829 203.038 46.5804C202.856 45.6727 202.794 44.4991 202.794 42.9705V29.8477H210.175V22.2931H202.794V13.3687H194.393V22.2931ZM129.255 29.4813C131.961 29.4813 133.946 30.2782 135.34 31.578C136.632 32.7823 137.453 34.4518 137.846 36.4139H120.043C120.557 34.2646 121.603 32.5866 123.065 31.4225C124.642 30.1664 126.738 29.4813 129.255 29.4813ZM168.081 29.4813C170.786 29.4813 172.771 30.2782 174.165 31.578C175.457 32.7823 176.278 34.4518 176.672 36.4139H158.868C159.382 34.2646 160.428 32.5866 161.89 31.4225C163.467 30.1664 165.563 29.4813 168.081 29.4813ZM230.879 29.497C236.469 29.497 240.913 34.0666 240.913 39.6827C240.913 45.2976 236.469 49.8673 230.879 49.8673C225.291 49.8673 220.913 45.3014 220.913 39.6827C220.913 34.0628 225.291 29.497 230.879 29.497ZM230.879 21.9956C220.846 21.9956 212.825 29.7513 212.825 39.6827C212.825 49.5458 220.845 57.3687 230.879 57.3687C240.91 57.3687 249 49.548 249 39.6827C249 29.7492 240.909 21.9956 230.879 21.9956Z" fill="#11243E"/>
<path d="M277.884 57.3689L268.234 40.3236H264.098V57.3689H255.324V13.6276H271.743C275.127 13.6276 278.01 14.2334 280.391 15.4449C282.772 16.6147 284.548 18.2232 285.718 20.2703C286.929 22.2756 287.535 24.5316 287.535 27.0383C287.535 29.9209 286.699 32.532 285.028 34.8716C283.357 37.1694 280.871 38.7569 277.571 39.6343L288.036 57.3689H277.884ZM264.098 33.7436H271.43C273.811 33.7436 275.586 33.1796 276.756 32.0516C277.926 30.8818 278.511 29.2734 278.511 27.2263C278.511 25.2209 277.926 23.6752 276.756 22.5889C275.586 21.4609 273.811 20.8969 271.43 20.8969H264.098V33.7436Z" fill="#11243E"/>
<path d="M327.077 39.2583C327.077 40.5116 326.993 41.6396 326.826 42.6423H301.446C301.655 45.1489 302.532 47.1125 304.078 48.5329C305.624 49.9534 307.525 50.6636 309.781 50.6636C313.039 50.6636 315.358 49.264 316.737 46.4649H326.199C325.197 49.8072 323.275 52.5645 320.434 54.7369C317.593 56.8676 314.105 57.9329 309.969 57.9329C306.626 57.9329 303.618 57.2018 300.945 55.7396C298.313 54.2356 296.245 52.1258 294.741 49.4103C293.278 46.6947 292.547 43.5614 292.547 40.0103C292.547 36.4174 293.278 33.2632 294.741 30.5476C296.203 27.832 298.25 25.7432 300.882 24.2809C303.514 22.8187 306.543 22.0876 309.969 22.0876C313.269 22.0876 316.215 22.7978 318.805 24.2183C321.437 25.6387 323.463 27.6649 324.883 30.2969C326.346 32.8872 327.077 35.8743 327.077 39.2583ZM317.99 36.7516C317.948 34.4956 317.134 32.6992 315.546 31.3623C313.958 29.9836 312.016 29.2943 309.718 29.2943C307.546 29.2943 305.707 29.9627 304.203 31.2996C302.741 32.5947 301.843 34.412 301.509 36.7516H317.99Z" fill="#11243E"/>
<path d="M341.587 27.6649C342.715 26.0774 344.261 24.7614 346.224 23.7169C348.23 22.6307 350.507 22.0876 353.055 22.0876C356.021 22.0876 358.695 22.8187 361.076 24.2809C363.5 25.7432 365.4 27.832 366.779 30.5476C368.2 33.2214 368.91 36.3338 368.91 39.8849C368.91 43.4361 368.2 46.5903 366.779 49.3476C365.4 52.0632 363.5 54.1729 361.076 55.6769C358.695 57.1809 356.021 57.9329 353.055 57.9329C350.507 57.9329 348.251 57.4107 346.287 56.3663C344.365 55.3218 342.799 54.0058 341.587 52.4183V73.9129H332.814V22.6516H341.587V27.6649ZM359.948 39.8849C359.948 37.796 359.51 35.9996 358.632 34.4956C357.797 32.9498 356.669 31.7801 355.248 30.9863C353.87 30.1925 352.366 29.7956 350.736 29.7956C349.149 29.7956 347.645 30.2134 346.224 31.0489C344.846 31.8427 343.718 33.0125 342.84 34.5583C342.005 36.104 341.587 37.9214 341.587 40.0103C341.587 42.0992 342.005 43.9165 342.84 45.4623C343.718 47.008 344.846 48.1987 346.224 49.0343C347.645 49.8281 349.149 50.2249 350.736 50.2249C352.366 50.2249 353.87 49.8072 355.248 48.9716C356.669 48.1361 357.797 46.9454 358.632 45.3996C359.51 43.8538 359.948 42.0156 359.948 39.8849Z" fill="#11243E"/>
<path d="M383.392 10.9956V57.3689H374.618V10.9956H383.392Z" fill="#11243E"/>
<path d="M389.137 39.8849C389.137 36.3756 389.827 33.2632 391.205 30.5476C392.626 27.832 394.527 25.7432 396.908 24.2809C399.331 22.8187 402.026 22.0876 404.992 22.0876C407.582 22.0876 409.838 22.6098 411.76 23.6543C413.723 24.6987 415.29 26.0147 416.46 27.6023V22.6516H425.296V57.3689H416.46V52.2929C415.332 53.9223 413.765 55.28 411.76 56.3663C409.796 57.4107 407.519 57.9329 404.929 57.9329C402.005 57.9329 399.331 57.1809 396.908 55.6769C394.527 54.1729 392.626 52.0632 391.205 49.3476C389.827 46.5903 389.137 43.4361 389.137 39.8849ZM416.46 40.0103C416.46 37.8796 416.042 36.0623 415.207 34.5583C414.371 33.0125 413.243 31.8427 411.823 31.0489C410.402 30.2134 408.877 29.7956 407.248 29.7956C405.619 29.7956 404.115 30.1925 402.736 30.9863C401.357 31.7801 400.229 32.9498 399.352 34.4956C398.516 35.9996 398.099 37.796 398.099 39.8849C398.099 41.9738 398.516 43.812 399.352 45.3996C400.229 46.9454 401.357 48.1361 402.736 48.9716C404.156 49.8072 405.66 50.2249 407.248 50.2249C408.877 50.2249 410.402 49.8281 411.823 49.0343C413.243 48.1987 414.371 47.0289 415.207 45.5249C416.042 43.9792 416.46 42.1409 416.46 40.0103Z" fill="#11243E"/>
<path d="M466.411 22.6516L444.917 73.7876H435.579L443.099 56.4916L429.187 22.6516H439.026L447.987 46.9036L457.074 22.6516H466.411Z" fill="#11243E"/>
<defs>
<filter id="filter0_d_3688_21574" x="10.2837" y="20.9956" width="32.6318" height="34.5396" filterUnits="userSpaceOnUse" color-interpolation-filters="sRGB">
<feFlood flood-opacity="0" result="BackgroundImageFix"/>
<feColorMatrix in="SourceAlpha" type="matrix" values="0 0 0 0 0 0 0 0 0 0 0 0 0 0 0 0 0 0 127 0" result="hardAlpha"/>
<feOffset dx="3" dy="4"/>
<feGaussianBlur stdDeviation="1.5"/>
<feComposite in2="hardAlpha" operator="out"/>
<feColorMatrix type="matrix" values="0 0 0 0 0 0 0 0 0 0 0 0 0 0 0 0 0 0 0.05 0"/>
<feBlend mode="normal" in2="BackgroundImageFix" result="effect1_dropShadow_3688_21574"/>
<feBlend mode="normal" in="SourceGraphic" in2="effect1_dropShadow_3688_21574" result="shape"/>
</filter>
<linearGradient id="paint0_linear_3688_21574" x1="71.4857" y1="92.9956" x2="-10.6286" y2="-9.51868" gradientUnits="userSpaceOnUse">
<stop offset="0.34375" stop-color="#20C7BD"/>
<stop offset="0.6986" stop-color="#83D6AE"/>
</linearGradient>
</defs>
</svg>
