<svg xmlns="http://www.w3.org/2000/svg" width="579" height="144" fill="none" viewBox="0 0 579 144"><g clip-path="url(#clip0_318_36200)" data-logo-icon="neeto-typeface-logo__icon"><path fill="#5BCC5A" d="M65.7284 99.4431C70.771 104.486 70.771 112.661 65.7284 117.704C60.6858 122.747 52.5101 122.747 47.4675 117.704L12.6057 82.8422C7.56304 77.7996 7.56305 69.6239 12.6057 64.5813C17.6483 59.5387 25.824 59.5387 30.8666 64.5813L65.7284 99.4431Z"/><path fill="#5BCC5A" d="M65.7284 48.2148C70.771 43.1722 70.771 34.9965 65.7284 29.9538C60.6858 24.9112 52.5101 24.9112 47.4675 29.9538L12.6057 64.8156C7.56304 69.8583 7.56305 78.034 12.6057 83.0766C17.6483 88.1192 25.824 88.1192 30.8666 83.0766L65.7284 48.2148Z"/><path fill="#75DC66" d="M77.1587 99.4431C72.1161 104.486 72.1161 112.661 77.1587 117.704C82.2013 122.747 90.377 122.747 95.4197 117.704L130.281 82.8422C135.324 77.7996 135.324 69.6239 130.281 64.5813C125.239 59.5387 117.063 59.5387 112.021 64.5813L77.1587 99.4431Z"/><path fill="#0DA84C" d="M77.1587 48.2148C72.1161 43.1722 72.1161 34.9965 77.1587 29.9538C82.2013 24.9112 90.377 24.9112 95.4197 29.9538L130.281 64.8156C135.324 69.8583 135.324 78.034 130.281 83.0766C125.239 88.1192 117.063 88.1192 112.021 83.0766L77.1587 48.2148Z"/><path fill="#0DA84C" d="M102.774 73.8311L112.022 64.5834C116.565 60.0401 123.652 59.5902 128.699 63.234L130.283 64.8178C132.774 67.3093 134.035 70.5657 134.064 73.8311C134.035 77.0965 132.774 80.3529 130.283 82.8444L128.699 84.4282C123.652 88.0719 116.565 87.6221 112.022 83.0787L102.774 73.8311Z"/></g><g data-logo-text="neeto-typeface-logo__text"><path fill="#000" d="M214.282 135.562L196.524 104.197H188.913V135.562H172.77V55.0742H202.981C209.208 55.0742 214.513 56.1889 218.895 58.4183C223.276 60.5708 226.544 63.5305 228.696 67.2973C230.925 70.9873 232.04 75.1386 232.04 79.7511C232.04 85.0555 230.503 89.8602 227.428 94.1652C224.353 98.3933 219.779 101.315 213.705 102.929L232.963 135.562H214.282ZM188.913 92.0895H202.405C206.787 92.0895 210.054 91.0517 212.206 88.9761C214.359 86.8236 215.435 83.8639 215.435 80.097C215.435 76.407 214.359 73.5627 212.206 71.5639C210.054 69.4883 206.787 68.4505 202.405 68.4505H188.913V92.0895Z" data-dark-mode-color="true"/><path fill="#000" d="M304.644 71.6792V135.562H288.385V127.49C286.309 130.258 283.58 132.449 280.198 134.063C276.892 135.601 273.279 136.37 269.358 136.37C264.361 136.37 259.941 135.332 256.097 133.256C252.253 131.104 249.217 127.99 246.988 123.916C244.835 119.765 243.759 114.845 243.759 109.156V71.6792H259.903V106.85C259.903 111.923 261.171 115.844 263.708 118.611C266.245 121.302 269.704 122.647 274.086 122.647C278.545 122.647 282.043 121.302 284.579 118.611C287.116 115.844 288.385 111.923 288.385 106.85V71.6792H304.644Z" data-dark-mode-color="true"/><path fill="#000" d="M353.667 70.7567C361.278 70.7567 367.428 73.1783 372.117 78.0214C376.806 82.7877 379.151 89.4758 379.151 98.0858V135.562H363.007V100.277C363.007 95.203 361.739 91.3208 359.202 88.6302C356.665 85.8627 353.206 84.4789 348.824 84.4789C344.365 84.4789 340.829 85.8627 338.215 88.6302C335.678 91.3208 334.41 95.203 334.41 100.277V135.562H318.266V71.6792H334.41V79.6358C336.562 76.8683 339.291 74.7158 342.597 73.1783C345.979 71.5639 349.669 70.7567 353.667 70.7567Z" data-dark-mode-color="true"/><path fill="#000" d="M427.598 70.7567C435.208 70.7567 441.358 73.1783 446.048 78.0214C450.737 82.7877 453.082 89.4758 453.082 98.0858V135.562H436.938V100.277C436.938 95.203 435.669 91.3208 433.133 88.6302C430.596 85.8627 427.136 84.4789 422.754 84.4789C418.296 84.4789 414.759 85.8627 412.146 88.6302C409.609 91.3208 408.34 95.203 408.34 100.277V135.562H392.197V71.6792H408.34V79.6358C410.493 76.8683 413.222 74.7158 416.528 73.1783C419.91 71.5639 423.6 70.7567 427.598 70.7567Z" data-dark-mode-color="true"/><path fill="#000" d="M525.513 102.237C525.513 104.543 525.359 106.619 525.052 108.464H478.35C478.735 113.076 480.349 116.69 483.193 119.303C486.038 121.917 489.536 123.224 493.687 123.224C499.683 123.224 503.95 120.649 506.487 115.498H523.899C522.054 121.648 518.518 126.722 513.29 130.719C508.063 134.64 501.643 136.6 494.033 136.6C487.883 136.6 482.348 135.255 477.428 132.564C472.585 129.797 468.779 125.915 466.012 120.918C463.321 115.921 461.976 110.155 461.976 103.621C461.976 97.0095 463.321 91.2055 466.012 86.2086C468.703 81.2117 472.469 77.368 477.313 74.6773C482.156 71.9867 487.729 70.6414 494.033 70.6414C500.106 70.6414 505.526 71.9483 510.292 74.562C515.135 77.1758 518.863 80.9042 521.477 85.7473C524.168 90.5136 525.513 96.0102 525.513 102.237ZM508.793 97.6245C508.716 93.4733 507.217 90.1677 504.296 87.7077C501.374 85.1708 497.8 83.9023 493.572 83.9023C489.574 83.9023 486.192 85.1323 483.424 87.5923C480.733 89.9755 479.081 93.3195 478.466 97.6245H508.793Z" data-dark-mode-color="true"/><path fill="#000" d="M551.134 81.5961C553.21 78.2136 555.9 75.5614 559.206 73.6395C562.589 71.7177 566.432 70.7567 570.737 70.7567V87.7077H566.471C561.397 87.7077 557.553 88.8992 554.939 91.2823C552.403 93.6655 551.134 97.8167 551.134 103.736V135.562H534.99V71.6792H551.134V81.5961Z" data-dark-mode-color="true"/><path fill="#000" d="M229.747 25.3847C229.747 26.2481 229.689 27.0252 229.574 27.716H212.103C212.247 29.4429 212.851 30.7956 213.915 31.7742C214.979 32.7527 216.288 33.242 217.841 33.242C220.084 33.242 221.68 32.2778 222.629 30.3495H229.143C228.452 32.652 227.13 34.5516 225.174 36.0482C223.219 37.5161 220.817 38.25 217.97 38.25C215.669 38.25 213.599 37.7463 211.758 36.739C209.947 35.7028 208.523 34.2494 207.488 32.3786C206.481 30.5078 205.978 28.3492 205.978 25.9028C205.978 23.4275 206.481 21.2545 207.488 19.3837C208.494 17.513 209.903 16.0739 211.715 15.0665C213.527 14.0592 215.612 13.5555 217.97 13.5555C220.242 13.5555 222.269 14.0448 224.052 15.0234C225.864 16.0019 227.259 17.3978 228.237 19.2111C229.243 20.9955 229.747 23.0534 229.747 25.3847ZM223.492 23.6578C223.463 22.1036 222.902 20.866 221.809 19.945C220.717 18.9952 219.379 18.5203 217.798 18.5203C216.302 18.5203 215.037 18.9808 214.002 19.9018C212.995 20.794 212.377 22.046 212.147 23.6578H223.492Z" data-dark-mode-color="true"/><path fill="#000" d="M256.37 25.3847C256.37 26.2481 256.313 27.0252 256.198 27.716H238.727C238.871 29.4429 239.475 30.7956 240.539 31.7742C241.603 32.7527 242.912 33.242 244.465 33.242C246.708 33.242 248.304 32.2778 249.253 30.3495H255.766C255.076 32.652 253.753 34.5516 251.798 36.0482C249.842 37.5161 247.441 38.25 244.594 38.25C242.293 38.25 240.223 37.7463 238.382 36.739C236.57 35.7028 235.147 34.2494 234.112 32.3786C233.105 30.5078 232.602 28.3492 232.602 25.9028C232.602 23.4275 233.105 21.2545 234.112 19.3837C235.118 17.513 236.527 16.0739 238.339 15.0665C240.151 14.0592 242.236 13.5555 244.594 13.5555C246.866 13.5555 248.893 14.0448 250.676 15.0234C252.488 16.0019 253.883 17.3978 254.861 19.2111C255.867 20.9955 256.37 23.0534 256.37 25.3847ZM250.115 23.6578C250.087 22.1036 249.526 20.866 248.433 19.945C247.34 18.9952 246.003 18.5203 244.421 18.5203C242.926 18.5203 241.661 18.9808 240.625 19.9018C239.619 20.794 239 22.046 238.77 23.6578H250.115Z" data-dark-mode-color="true"/><path fill="#000" d="M267.91 18.8624V30.5365C267.91 31.3424 268.122 31.8749 268.496 32.249C268.899 32.5944 269.56 32.7671 270.481 32.7671H273.285V37.8614H269.489C264.398 37.8614 261.963 35.258 261.963 30.3076V18.8624H258.761V13.8265H261.963V7.875H267.91V13.8265H273.285V18.8624H267.91Z" data-dark-mode-color="true"/><path fill="#000" d="M288.114 38.25C285.814 38.25 283.743 37.7463 281.903 36.739C280.062 35.7028 278.61 34.2494 277.546 32.3786C276.51 30.5078 275.993 28.3492 275.993 25.9028C275.993 23.4563 276.525 21.2977 277.589 19.4269C278.682 17.5561 280.163 16.1171 282.032 15.1097C283.901 14.0736 285.986 13.5555 288.287 13.5555C290.588 13.5555 292.673 14.0736 294.542 15.1097C296.411 16.1171 297.878 17.5561 298.942 19.4269C300.035 21.2977 300.581 23.4563 300.581 25.9028C300.581 28.3492 300.02 30.5078 298.899 32.3786C297.806 34.2494 296.31 35.7028 294.412 36.739C292.543 37.7463 290.444 38.25 288.114 38.25ZM288.114 32.983C289.207 32.983 290.228 32.724 291.177 32.2059C292.155 31.659 292.931 30.8532 293.507 29.7882C294.082 28.7233 294.369 27.4282 294.369 25.9028C294.369 23.629 293.765 21.8877 292.557 20.6789C291.378 19.4413 289.926 18.8225 288.201 18.8225C286.475 18.8225 285.023 19.4413 283.844 20.6789C282.693 21.8877 282.118 23.629 282.118 25.9028C282.118 28.1765 282.679 29.9322 283.801 31.1698C284.951 32.3786 286.389 32.983 288.114 32.983Z" data-dark-mode-color="true"/><path fill="#000" d="M200.877 7.875H189.284L200.877 25.2653V7.875Z" data-dark-mode-color="true"/><path fill="#000" d="M172.125 38.25L172.125 7.875H180.497L200.877 38.25H192.261L178.849 18.541V38.25H172.125Z" data-dark-mode-color="true"/></g><defs><clipPath id="clip0_318_36200"><rect width="126" height="126" fill="#fff" transform="translate(8.4375 9)"/></clipPath></defs></svg>