<svg xmlns="http://www.w3.org/2000/svg" width="497" height="73" fill="none" viewBox="0 0 497 73"><path fill="#fff" fill-rule="evenodd" d="M32.0032 17.9424C38.4413 17.9424 43.6604 23.1615 43.6604 29.5995V41.2567H20.3461V17.9424H32.0032ZM37.2101 23.0715C36.5663 23.0715 36.0444 23.5934 36.0444 24.2372V37.4487C36.0444 38.0925 36.5663 38.6144 37.2101 38.6144C37.8539 38.6144 38.3758 38.0925 38.3758 37.4487V24.2372C38.3758 23.5934 37.8539 23.0715 37.2101 23.0715Z" clip-rule="evenodd"/><path fill="#fff" fill-rule="evenodd" d="M26.7808 40.3232C26.7808 39.8082 27.1983 39.3906 27.7134 39.3906H40.1632C42.0946 39.3906 43.6604 40.9564 43.6604 42.8878C43.6604 44.8192 42.0946 46.3849 40.1632 46.3849H20.3461V43.7824H22.2112V44.5198H40.1632C41.0645 44.5198 41.7952 43.7891 41.7952 42.8878C41.7952 41.9864 41.0645 41.2558 40.1632 41.2558H27.7134C27.1983 41.2558 26.7808 40.8382 26.7808 40.3232Z" clip-rule="evenodd"/><path fill="#fff" d="M42.1055 39.8574H43.6598V42.966H42.1055V39.8574Z"/><path fill="url(#paint0_linear_3239_12263)" d="M56 32C56 18.7452 45.2548 8 32 8H8V56H56V32Z"/><g filter="url(#filter0_d_3239_12263)"><path fill="#fff" d="M32.0006 47.002L29.1059 44.1855H34.8953L32.0006 47.002Z"/><path fill="#fff" fill-rule="evenodd" d="M31.9997 21.0283C38.4378 21.0283 43.6569 26.2474 43.6569 32.6855V44.3426H20.3426V21.0283H31.9997ZM26.7579 29.1648C26.4123 29.1648 26.132 29.4451 26.132 29.7907C26.132 30.1364 26.4123 30.4166 26.7579 30.4166H37.0851C37.4307 30.4166 37.711 30.1364 37.711 29.7907C37.711 29.4451 37.4307 29.1648 37.0851 29.1648H26.7579ZM26.132 32.7637C26.132 32.418 26.4123 32.1378 26.7579 32.1378H37.0851C37.4307 32.1378 37.711 32.418 37.711 32.7637C37.711 33.1094 37.4307 33.3896 37.0851 33.3896H26.7579C26.4123 33.3896 26.132 33.1094 26.132 32.7637ZM26.7579 35.2672C26.4123 35.2672 26.132 35.5475 26.132 35.8931C26.132 36.2388 26.4123 36.519 26.7579 36.519H31.765C32.1107 36.519 32.3909 36.2388 32.3909 35.8931C32.3909 35.5475 32.1107 35.2672 31.765 35.2672H26.7579Z" clip-rule="evenodd"/></g><path fill="#11243E" d="M80 20.8V56H87.5283V28.28H97.7137C103.339 28.28 107.899 32.8109 107.899 38.4V56H115.427V38.4C115.427 28.6798 107.497 20.8 97.7137 20.8H80Z"/><path fill="#11243E" fill-rule="evenodd" d="M146.177 35.5075C145.455 30.9277 142.646 27.5534 137.028 27.5534C131.81 27.5534 128.199 30.4442 127.237 35.5075H146.177ZM137.911 49.1688C142.325 49.1688 145.535 47.4008 147.462 45.5526L152.197 50.5345C149.066 53.6695 144.734 56 137.992 56C126.434 56 118.97 48.5271 118.97 38.4018C118.97 28.3554 126.836 20.8 136.946 20.8C148.423 20.8 154.924 29.319 154.364 41.1333H127.237C128.199 46.0362 131.73 49.1688 137.911 49.1688Z" clip-rule="evenodd"/><path fill="#11243E" fill-rule="evenodd" d="M185.148 35.5075C184.426 30.9277 181.616 27.5534 175.998 27.5534C170.78 27.5534 167.169 30.4442 166.207 35.5075H185.148ZM176.881 49.1688C181.295 49.1688 184.505 47.4008 186.432 45.5526L191.167 50.5345C188.036 53.6695 183.704 56 176.962 56C165.404 56 157.94 48.5271 157.94 38.4018C157.94 28.3554 165.807 20.8 175.916 20.8C187.393 20.8 193.894 29.319 193.334 41.1333H166.207C167.169 46.0362 170.7 49.1688 176.881 49.1688Z" clip-rule="evenodd"/><path fill="#11243E" fill-rule="evenodd" d="M196.91 21.1034H202.851V12H210.4V21.1034H217.809V27.9271H210.4V41.7543C210.4 48.0092 211.378 48.9809 217.809 48.9809V56H216.691C206.066 56 202.851 52.6639 202.851 41.8247V27.9271H196.91V21.1034Z" clip-rule="evenodd"/><path fill="#11243E" fill-rule="evenodd" d="M249.544 38.4006C249.544 32.4431 244.9 27.5694 239.031 27.5694C233.16 27.5694 228.587 32.4431 228.587 38.4006C228.587 44.3569 233.16 49.2306 239.031 49.2306C244.9 49.2306 249.544 44.3569 249.544 38.4006ZM221.351 38.4006C221.351 28.5172 229.201 20.8 239.031 20.8C248.861 20.8 256.779 28.5172 256.779 38.4006C256.779 48.2155 248.861 56 239.031 56C229.201 56 221.351 48.2155 221.351 38.4006Z" clip-rule="evenodd"/><path fill="#11243E" d="M294.156 25.4187C294.156 27.6329 293.634 29.7218 292.589 31.6853C291.545 33.6489 289.874 35.2573 287.576 36.5107C285.278 37.7222 282.333 38.328 278.74 38.328H270.844V56H263.7V12.4467H278.74C282.082 12.4467 284.902 13.0316 287.2 14.2013C289.54 15.3293 291.273 16.8751 292.401 18.8387C293.571 20.8022 294.156 22.9956 294.156 25.4187ZM278.74 32.5C281.456 32.5 283.482 31.8942 284.819 30.6827C286.156 29.4293 286.824 27.6747 286.824 25.4187C286.824 20.656 284.129 18.2747 278.74 18.2747H270.844V32.5H278.74Z"/><path fill="#11243E" d="M315.28 56.564C312.022 56.564 309.076 55.8329 306.444 54.3707C303.812 52.8667 301.744 50.7778 300.24 48.104C298.736 45.3884 297.984 42.2551 297.984 38.704C297.984 35.1947 298.757 32.0822 300.303 29.3667C301.849 26.6511 303.958 24.5622 306.632 23.1C309.306 21.6378 312.293 20.9067 315.594 20.9067C318.894 20.9067 321.881 21.6378 324.555 23.1C327.229 24.5622 329.338 26.6511 330.884 29.3667C332.43 32.0822 333.203 35.1947 333.203 38.704C333.203 42.2133 332.409 45.3258 330.822 48.0413C329.234 50.7569 327.062 52.8667 324.304 54.3707C321.589 55.8329 318.581 56.564 315.28 56.564ZM315.28 50.36C317.118 50.36 318.831 49.9213 320.419 49.044C322.048 48.1667 323.364 46.8507 324.367 45.096C325.37 43.3413 325.871 41.2107 325.871 38.704C325.871 36.1973 325.39 34.0876 324.43 32.3747C323.469 30.62 322.194 29.304 320.607 28.4267C319.019 27.5493 317.306 27.1107 315.468 27.1107C313.63 27.1107 311.917 27.5493 310.33 28.4267C308.784 29.304 307.551 30.62 306.632 32.3747C305.713 34.0876 305.254 36.1973 305.254 38.704C305.254 42.4222 306.194 45.3049 308.074 47.352C309.995 49.3573 312.398 50.36 315.28 50.36Z"/><path fill="#11243E" d="M346.742 26.5467C347.954 24.9591 349.604 23.6222 351.693 22.536C353.782 21.4498 356.142 20.9067 358.774 20.9067C361.782 20.9067 364.519 21.6587 366.984 23.1627C369.49 24.6249 371.454 26.6929 372.874 29.3667C374.295 32.0404 375.005 35.1111 375.005 38.5787C375.005 42.0462 374.295 45.1587 372.874 47.916C371.454 50.6316 369.49 52.7622 366.984 54.308C364.519 55.812 361.782 56.564 358.774 56.564C356.142 56.564 353.803 56.0418 351.756 54.9973C349.709 53.9111 348.038 52.5742 346.742 50.9867V72.4187H339.598V21.4707H346.742V26.5467ZM367.736 38.5787C367.736 36.1973 367.234 34.1502 366.232 32.4373C365.271 30.6827 363.976 29.3667 362.346 28.4893C360.759 27.5702 359.046 27.1107 357.208 27.1107C355.411 27.1107 353.698 27.5702 352.069 28.4893C350.482 29.4084 349.186 30.7453 348.184 32.5C347.223 34.2547 346.742 36.3227 346.742 38.704C346.742 41.0853 347.223 43.1742 348.184 44.9707C349.186 46.7253 350.482 48.0622 352.069 48.9813C353.698 49.9004 355.411 50.36 357.208 50.36C359.046 50.36 360.759 49.9004 362.346 48.9813C363.976 48.0204 365.271 46.6418 366.232 44.8453C367.234 43.0489 367.736 40.96 367.736 38.5787Z"/><path fill="#11243E" d="M412.674 21.4707V56H405.53V51.9267C404.402 53.3471 402.919 54.4751 401.08 55.3107C399.284 56.1044 397.362 56.5013 395.315 56.5013C392.6 56.5013 390.156 55.9373 387.983 54.8093C385.852 53.6813 384.16 52.0102 382.907 49.796C381.696 47.5818 381.09 44.908 381.09 41.7747V21.4707H388.171V40.7093C388.171 43.8009 388.944 46.1822 390.49 47.8533C392.036 49.4827 394.145 50.2973 396.819 50.2973C399.493 50.2973 401.603 49.4827 403.148 47.8533C404.736 46.1822 405.53 43.8009 405.53 40.7093V21.4707H412.674Z"/><path fill="#11243E" d="M428.577 26.5467C429.789 24.9591 431.439 23.6222 433.528 22.536C435.617 21.4498 437.977 20.9067 440.609 20.9067C443.617 20.9067 446.354 21.6587 448.818 23.1627C451.325 24.6249 453.289 26.6929 454.709 29.3667C456.13 32.0404 456.84 35.1111 456.84 38.5787C456.84 42.0462 456.13 45.1587 454.709 47.916C453.289 50.6316 451.325 52.7622 448.818 54.308C446.354 55.812 443.617 56.564 440.609 56.564C437.977 56.564 435.638 56.0418 433.59 54.9973C431.543 53.9111 429.872 52.5742 428.577 50.9867V72.4187H421.433V21.4707H428.577V26.5467ZM449.57 38.5787C449.57 36.1973 449.069 34.1502 448.066 32.4373C447.106 30.6827 445.81 29.3667 444.181 28.4893C442.594 27.5702 440.881 27.1107 439.042 27.1107C437.246 27.1107 435.533 27.5702 433.904 28.4893C432.316 29.4084 431.021 30.7453 430.018 32.5C429.058 34.2547 428.577 36.3227 428.577 38.704C428.577 41.0853 429.058 43.1742 430.018 44.9707C431.021 46.7253 432.316 48.0622 433.904 48.9813C435.533 49.9004 437.246 50.36 439.042 50.36C440.881 50.36 442.594 49.9004 444.181 48.9813C445.81 48.0204 447.106 46.6418 448.066 44.8453C449.069 43.0489 449.57 40.96 449.57 38.5787Z"/><path fill="#11243E" d="M475.771 56.564C473.056 56.564 470.612 56.0836 468.439 55.1227C466.308 54.12 464.616 52.7831 463.363 51.112C462.11 49.3991 461.441 47.4982 461.358 45.4093H468.752C468.878 46.8716 469.567 48.104 470.82 49.1067C472.116 50.0676 473.724 50.548 475.646 50.548C477.651 50.548 479.197 50.172 480.283 49.42C481.411 48.6262 481.975 47.6236 481.975 46.412C481.975 45.1169 481.348 44.156 480.095 43.5293C478.884 42.9027 476.941 42.2133 474.267 41.4613C471.677 40.7511 469.567 40.0618 467.938 39.3933C466.308 38.7249 464.888 37.7013 463.676 36.3227C462.507 34.944 461.922 33.1267 461.922 30.8707C461.922 29.0324 462.465 27.3613 463.551 25.8573C464.637 24.3116 466.183 23.1 468.188 22.2227C470.236 21.3453 472.575 20.9067 475.207 20.9067C479.134 20.9067 482.288 21.9093 484.67 23.9147C487.093 25.8782 488.388 28.5729 488.555 31.9987H481.411C481.286 30.4529 480.659 29.2204 479.531 28.3013C478.403 27.3822 476.878 26.9227 474.956 26.9227C473.076 26.9227 471.635 27.2778 470.632 27.988C469.63 28.6982 469.128 29.6382 469.128 30.808C469.128 31.7271 469.463 32.5 470.131 33.1267C470.8 33.7533 471.614 34.2547 472.575 34.6307C473.536 34.9649 474.956 35.4036 476.836 35.9467C479.343 36.6151 481.39 37.3044 482.978 38.0147C484.607 38.6831 486.007 39.6858 487.176 41.0227C488.346 42.3596 488.952 44.1351 488.994 46.3493C488.994 48.3129 488.451 50.0676 487.364 51.6133C486.278 53.1591 484.732 54.3707 482.727 55.248C480.764 56.1253 478.445 56.564 475.771 56.564Z"/><path stroke="#11243E" stroke-width=".333" d="M80 20.8V56H87.5283V28.28H97.7137C103.339 28.28 107.899 32.8109 107.899 38.4V56H115.427V38.4C115.427 28.6798 107.497 20.8 97.7137 20.8H80Z"/><path fill-rule="evenodd" stroke="#11243E" stroke-width=".333" d="M146.177 35.5075C145.455 30.9277 142.646 27.5534 137.028 27.5534C131.81 27.5534 128.199 30.4442 127.237 35.5075H146.177ZM137.911 49.1688C142.325 49.1688 145.535 47.4008 147.462 45.5526L152.197 50.5345C149.066 53.6695 144.734 56 137.992 56C126.434 56 118.97 48.5271 118.97 38.4018C118.97 28.3554 126.836 20.8 136.946 20.8C148.423 20.8 154.924 29.319 154.364 41.1333H127.237C128.199 46.0362 131.73 49.1688 137.911 49.1688Z" clip-rule="evenodd"/><path fill-rule="evenodd" stroke="#11243E" stroke-width=".333" d="M185.148 35.5075C184.426 30.9277 181.616 27.5534 175.998 27.5534C170.78 27.5534 167.169 30.4442 166.207 35.5075H185.148ZM176.881 49.1688C181.295 49.1688 184.505 47.4008 186.432 45.5526L191.167 50.5345C188.036 53.6695 183.704 56 176.962 56C165.404 56 157.94 48.5271 157.94 38.4018C157.94 28.3554 165.807 20.8 175.916 20.8C187.393 20.8 193.894 29.319 193.334 41.1333H166.207C167.169 46.0362 170.7 49.1688 176.881 49.1688Z" clip-rule="evenodd"/><path fill-rule="evenodd" stroke="#11243E" stroke-width=".333" d="M196.91 21.1034H202.851V12H210.4V21.1034H217.809V27.9271H210.4V41.7543C210.4 48.0092 211.378 48.9809 217.809 48.9809V56H216.691C206.066 56 202.851 52.6639 202.851 41.8247V27.9271H196.91V21.1034Z" clip-rule="evenodd"/><path fill-rule="evenodd" stroke="#11243E" stroke-width=".333" d="M249.544 38.4006C249.544 32.4431 244.9 27.5694 239.031 27.5694C233.16 27.5694 228.587 32.4431 228.587 38.4006C228.587 44.3569 233.16 49.2306 239.031 49.2306C244.9 49.2306 249.544 44.3569 249.544 38.4006ZM221.351 38.4006C221.351 28.5172 229.201 20.8 239.031 20.8C248.861 20.8 256.779 28.5172 256.779 38.4006C256.779 48.2155 248.861 56 239.031 56C229.201 56 221.351 48.2155 221.351 38.4006Z" clip-rule="evenodd"/><path stroke="#11243E" stroke-width=".333" d="M294.156 25.4187C294.156 27.6329 293.634 29.7218 292.589 31.6853C291.545 33.6489 289.874 35.2573 287.576 36.5107C285.278 37.7222 282.333 38.328 278.74 38.328H270.844V56H263.7V12.4467H278.74C282.082 12.4467 284.902 13.0316 287.2 14.2013C289.54 15.3293 291.273 16.8751 292.401 18.8387C293.571 20.8022 294.156 22.9956 294.156 25.4187ZM278.74 32.5C281.456 32.5 283.482 31.8942 284.819 30.6827C286.156 29.4293 286.824 27.6747 286.824 25.4187C286.824 20.656 284.129 18.2747 278.74 18.2747H270.844V32.5H278.74Z"/><path stroke="#11243E" stroke-width=".333" d="M315.28 56.564C312.022 56.564 309.076 55.8329 306.444 54.3707C303.812 52.8667 301.744 50.7778 300.24 48.104C298.736 45.3884 297.984 42.2551 297.984 38.704C297.984 35.1947 298.757 32.0822 300.303 29.3667C301.849 26.6511 303.958 24.5622 306.632 23.1C309.306 21.6378 312.293 20.9067 315.594 20.9067C318.894 20.9067 321.881 21.6378 324.555 23.1C327.229 24.5622 329.338 26.6511 330.884 29.3667C332.43 32.0822 333.203 35.1947 333.203 38.704C333.203 42.2133 332.409 45.3258 330.822 48.0413C329.234 50.7569 327.062 52.8667 324.304 54.3707C321.589 55.8329 318.581 56.564 315.28 56.564ZM315.28 50.36C317.118 50.36 318.831 49.9213 320.419 49.044C322.048 48.1667 323.364 46.8507 324.367 45.096C325.37 43.3413 325.871 41.2107 325.871 38.704C325.871 36.1973 325.39 34.0876 324.43 32.3747C323.469 30.62 322.194 29.304 320.607 28.4267C319.019 27.5493 317.306 27.1107 315.468 27.1107C313.63 27.1107 311.917 27.5493 310.33 28.4267C308.784 29.304 307.551 30.62 306.632 32.3747C305.713 34.0876 305.254 36.1973 305.254 38.704C305.254 42.4222 306.194 45.3049 308.074 47.352C309.995 49.3573 312.398 50.36 315.28 50.36Z"/><path stroke="#11243E" stroke-width=".333" d="M346.742 26.5467C347.954 24.9591 349.604 23.6222 351.693 22.536C353.782 21.4498 356.142 20.9067 358.774 20.9067C361.782 20.9067 364.519 21.6587 366.984 23.1627C369.49 24.6249 371.454 26.6929 372.874 29.3667C374.295 32.0404 375.005 35.1111 375.005 38.5787C375.005 42.0462 374.295 45.1587 372.874 47.916C371.454 50.6316 369.49 52.7622 366.984 54.308C364.519 55.812 361.782 56.564 358.774 56.564C356.142 56.564 353.803 56.0418 351.756 54.9973C349.709 53.9111 348.038 52.5742 346.742 50.9867V72.4187H339.598V21.4707H346.742V26.5467ZM367.736 38.5787C367.736 36.1973 367.234 34.1502 366.232 32.4373C365.271 30.6827 363.976 29.3667 362.346 28.4893C360.759 27.5702 359.046 27.1107 357.208 27.1107C355.411 27.1107 353.698 27.5702 352.069 28.4893C350.482 29.4084 349.186 30.7453 348.184 32.5C347.223 34.2547 346.742 36.3227 346.742 38.704C346.742 41.0853 347.223 43.1742 348.184 44.9707C349.186 46.7253 350.482 48.0622 352.069 48.9813C353.698 49.9004 355.411 50.36 357.208 50.36C359.046 50.36 360.759 49.9004 362.346 48.9813C363.976 48.0204 365.271 46.6418 366.232 44.8453C367.234 43.0489 367.736 40.96 367.736 38.5787Z"/><path stroke="#11243E" stroke-width=".333" d="M412.674 21.4707V56H405.53V51.9267C404.402 53.3471 402.919 54.4751 401.08 55.3107C399.284 56.1044 397.362 56.5013 395.315 56.5013C392.6 56.5013 390.156 55.9373 387.983 54.8093C385.852 53.6813 384.16 52.0102 382.907 49.796C381.696 47.5818 381.09 44.908 381.09 41.7747V21.4707H388.171V40.7093C388.171 43.8009 388.944 46.1822 390.49 47.8533C392.036 49.4827 394.145 50.2973 396.819 50.2973C399.493 50.2973 401.603 49.4827 403.148 47.8533C404.736 46.1822 405.53 43.8009 405.53 40.7093V21.4707H412.674Z"/><path stroke="#11243E" stroke-width=".333" d="M428.577 26.5467C429.789 24.9591 431.439 23.6222 433.528 22.536C435.617 21.4498 437.977 20.9067 440.609 20.9067C443.617 20.9067 446.354 21.6587 448.818 23.1627C451.325 24.6249 453.289 26.6929 454.709 29.3667C456.13 32.0404 456.84 35.1111 456.84 38.5787C456.84 42.0462 456.13 45.1587 454.709 47.916C453.289 50.6316 451.325 52.7622 448.818 54.308C446.354 55.812 443.617 56.564 440.609 56.564C437.977 56.564 435.638 56.0418 433.59 54.9973C431.543 53.9111 429.872 52.5742 428.577 50.9867V72.4187H421.433V21.4707H428.577V26.5467ZM449.57 38.5787C449.57 36.1973 449.069 34.1502 448.066 32.4373C447.106 30.6827 445.81 29.3667 444.181 28.4893C442.594 27.5702 440.881 27.1107 439.042 27.1107C437.246 27.1107 435.533 27.5702 433.904 28.4893C432.316 29.4084 431.021 30.7453 430.018 32.5C429.058 34.2547 428.577 36.3227 428.577 38.704C428.577 41.0853 429.058 43.1742 430.018 44.9707C431.021 46.7253 432.316 48.0622 433.904 48.9813C435.533 49.9004 437.246 50.36 439.042 50.36C440.881 50.36 442.594 49.9004 444.181 48.9813C445.81 48.0204 447.106 46.6418 448.066 44.8453C449.069 43.0489 449.57 40.96 449.57 38.5787Z"/><path stroke="#11243E" stroke-width=".333" d="M475.771 56.564C473.056 56.564 470.612 56.0836 468.439 55.1227C466.308 54.12 464.616 52.7831 463.363 51.112C462.11 49.3991 461.441 47.4982 461.358 45.4093H468.752C468.878 46.8716 469.567 48.104 470.82 49.1067C472.116 50.0676 473.724 50.548 475.646 50.548C477.651 50.548 479.197 50.172 480.283 49.42C481.411 48.6262 481.975 47.6236 481.975 46.412C481.975 45.1169 481.348 44.156 480.095 43.5293C478.884 42.9027 476.941 42.2133 474.267 41.4613C471.677 40.7511 469.567 40.0618 467.938 39.3933C466.308 38.7249 464.888 37.7013 463.676 36.3227C462.507 34.944 461.922 33.1267 461.922 30.8707C461.922 29.0324 462.465 27.3613 463.551 25.8573C464.637 24.3116 466.183 23.1 468.188 22.2227C470.236 21.3453 472.575 20.9067 475.207 20.9067C479.134 20.9067 482.288 21.9093 484.67 23.9147C487.093 25.8782 488.388 28.5729 488.555 31.9987H481.411C481.286 30.4529 480.659 29.2204 479.531 28.3013C478.403 27.3822 476.878 26.9227 474.956 26.9227C473.076 26.9227 471.635 27.2778 470.632 27.988C469.63 28.6982 469.128 29.6382 469.128 30.808C469.128 31.7271 469.463 32.5 470.131 33.1267C470.8 33.7533 471.614 34.2547 472.575 34.6307C473.536 34.9649 474.956 35.4036 476.836 35.9467C479.343 36.6151 481.39 37.3044 482.978 38.0147C484.607 38.6831 486.007 39.6858 487.176 41.0227C488.346 42.3596 488.952 44.1351 488.994 46.3493C488.994 48.3129 488.451 50.0676 487.364 51.6133C486.278 53.1591 484.732 54.3707 482.727 55.248C480.764 56.1253 478.445 56.564 475.771 56.564Z"/><defs><filter id="filter0_d_3239_12263" width="29.314" height="32.974" x="20.343" y="21.028" color-interpolation-filters="sRGB" filterUnits="userSpaceOnUse"><feFlood flood-opacity="0" result="BackgroundImageFix"/><feColorMatrix in="SourceAlpha" result="hardAlpha" type="matrix" values="0 0 0 0 0 0 0 0 0 0 0 0 0 0 0 0 0 0 127 0"/><feOffset dx="3" dy="4"/><feGaussianBlur stdDeviation="1.5"/><feComposite in2="hardAlpha" operator="out"/><feColorMatrix type="matrix" values="0 0 0 0 0 0 0 0 0 0 0 0 0 0 0 0 0 0 0.05 0"/><feBlend in2="BackgroundImageFix" mode="normal" result="effect1_dropShadow_3239_12263"/><feBlend in="SourceGraphic" in2="effect1_dropShadow_3239_12263" mode="normal" result="shape"/></filter><linearGradient id="paint0_linear_3239_12263" x1="56" x2="-.229" y1="65.771" y2="-3.657" gradientUnits="userSpaceOnUse"><stop stop-color="#59B9EF"/><stop offset="1" stop-color="#3EA8CA"/></linearGradient></defs></svg>