<svg width="481" height="65" viewBox="0 0 481 65" fill="none" xmlns="http://www.w3.org/2000/svg">
<path d="M48 32.9956C48 19.7408 37.2548 8.99561 24 8.99561H0V56.9956H48V32.9956Z" fill="url(#paint0_linear_3688_21515)"/>
<g filter="url(#filter0_d_3688_21515)">
<path fill-rule="evenodd" clip-rule="evenodd" d="M24.0033 18.938C30.4414 18.938 35.6605 24.1571 35.6605 30.5951V42.2523H12.3462V18.938H24.0033ZM29.2102 24.0671C28.5664 24.0671 28.0445 24.589 28.0445 25.2328V38.4443C28.0445 39.0881 28.5664 39.61 29.2102 39.61C29.854 39.61 30.3759 39.0881 30.3759 38.4443V25.2328C30.3759 24.589 29.854 24.0671 29.2102 24.0671Z" fill="white"/>
<path fill-rule="evenodd" clip-rule="evenodd" d="M18.7809 41.3188C18.7809 40.8038 19.1985 40.3862 19.7135 40.3862H32.1633C34.0948 40.3862 35.6605 41.952 35.6605 43.8834C35.6605 45.8148 34.0948 47.3805 32.1633 47.3805H12.3462V44.778H14.2113V45.5154H32.1633C33.0647 45.5154 33.7953 44.7847 33.7953 43.8834C33.7953 42.982 33.0647 42.2514 32.1633 42.2514H19.7135C19.1985 42.2514 18.7809 41.8338 18.7809 41.3188Z" fill="white"/>
<path d="M34.1055 40.853H35.6598V43.9616H34.1055V40.853Z" fill="white"/>
</g>
<path fill-rule="evenodd" clip-rule="evenodd" d="M90.0873 21.6226H73.2401L81.5759 29.8206H90.0873C95.4515 29.8206 99.7952 34.0714 99.7952 39.3091V56.9956H108.175V39.3091C108.175 29.5385 100.074 21.6226 90.0873 21.6226ZM80.3794 31.0143L72 22.7734V56.9956H80.3794V31.0143ZM144.982 51.2125L139.664 45.7081L139.346 46.009C137.501 47.751 134.408 49.4336 130.135 49.4336C127.13 49.4336 124.814 48.6851 123.14 47.3898C121.593 46.1932 120.559 44.5034 120.047 42.4212H146.946L146.966 42.0092C147.249 36.1373 145.75 31.0399 142.686 27.4026C139.615 23.7575 135.007 21.6226 129.173 21.6226C118.87 21.6226 110.825 29.2122 110.825 39.3108C110.825 44.3842 112.728 48.8137 116.12 51.9734C119.511 55.1321 124.362 56.9956 130.216 56.9956C137.052 56.9956 141.48 54.663 144.679 51.5107L144.982 51.2125ZM183.807 51.2125L178.49 45.7081L178.171 46.009C176.326 47.751 173.233 49.4336 168.96 49.4336C165.955 49.4336 163.639 48.6851 161.965 47.3898C160.418 46.1932 159.385 44.5034 158.872 42.4212H185.771L185.791 42.0092C186.074 36.1373 184.575 31.0399 181.511 27.4026C178.44 23.7575 173.832 21.6226 167.999 21.6226C157.695 21.6226 149.65 29.2122 149.65 39.3108C149.65 44.3842 151.553 48.8137 154.945 51.9734C158.336 55.1321 163.187 56.9956 169.041 56.9956C175.877 56.9956 180.305 54.663 183.504 51.5107L183.807 51.2125ZM194.393 21.9201H188.475V29.4747H194.393V42.6664C194.393 47.9929 195.189 51.6241 197.443 53.9013C199.701 56.1821 203.311 56.9956 208.622 56.9956H210.175V49.2494H209.735C208.138 49.2494 206.91 49.1894 205.961 49.0123C205.015 48.8359 204.387 48.5505 203.95 48.1299C203.514 47.7103 203.22 47.1098 203.038 46.2073C202.856 45.2997 202.794 44.1261 202.794 42.5975V29.4747H210.175V21.9201H202.794V12.9956H194.393V21.9201ZM129.255 29.1083C131.961 29.1083 133.946 29.9051 135.34 31.205C136.632 32.4093 137.453 34.0787 137.846 36.0409H120.043C120.557 33.8916 121.603 32.2136 123.065 31.0494C124.642 29.7934 126.738 29.1083 129.255 29.1083ZM168.081 29.1083C170.786 29.1083 172.771 29.9051 174.165 31.205C175.457 32.4093 176.278 34.0787 176.672 36.0409H158.868C159.382 33.8916 160.428 32.2136 161.89 31.0494C163.467 29.7934 165.563 29.1083 168.081 29.1083ZM230.879 29.1239C236.469 29.1239 240.913 33.6936 240.913 39.3097C240.913 44.9246 236.469 49.4943 230.879 49.4943C225.291 49.4943 220.913 44.9284 220.913 39.3097C220.913 33.6898 225.291 29.1239 230.879 29.1239ZM230.879 21.6226C220.846 21.6226 212.825 29.3783 212.825 39.3097C212.825 49.1728 220.845 56.9956 230.879 56.9956C240.91 56.9956 249 49.175 249 39.3097C249 29.3761 240.909 21.6226 230.879 21.6226Z" fill="#11243E"/>
<path d="M253.193 34.3676C253.193 30.0645 254.154 26.2209 256.076 22.8369C258.04 19.4112 260.692 16.7583 264.035 14.8783C267.419 12.9565 271.2 11.9956 275.377 11.9956C280.265 11.9956 284.548 13.2489 288.224 15.7556C291.9 18.2623 294.47 21.7298 295.932 26.1583H285.843C284.84 24.0694 283.42 22.5027 281.581 21.4583C279.785 20.4138 277.696 19.8916 275.315 19.8916C272.766 19.8916 270.489 20.4974 268.484 21.7089C266.52 22.8787 264.975 24.5498 263.847 26.7223C262.76 28.8947 262.217 31.4432 262.217 34.3676C262.217 37.2503 262.76 39.7987 263.847 42.0129C264.975 44.1854 266.52 45.8774 268.484 47.0889C270.489 48.2587 272.766 48.8436 275.315 48.8436C277.696 48.8436 279.785 48.3214 281.581 47.2769C283.42 46.1907 284.84 44.6032 285.843 42.5143H295.932C294.47 46.9845 291.9 50.4729 288.224 52.9796C284.589 55.4445 280.307 56.6769 275.377 56.6769C271.2 56.6769 267.419 55.7369 264.035 53.8569C260.692 51.9352 258.04 49.2823 256.076 45.8983C254.154 42.5143 253.193 38.6707 253.193 34.3676Z" fill="#11243E"/>
<path d="M318.175 56.8649C314.833 56.8649 311.825 56.1338 309.151 54.6716C306.477 53.1676 304.367 51.0578 302.822 48.3423C301.318 45.6267 300.566 42.4934 300.566 38.9423C300.566 35.3912 301.338 32.2578 302.884 29.5423C304.472 26.8267 306.623 24.7378 309.339 23.2756C312.054 21.7716 315.083 21.0196 318.426 21.0196C321.768 21.0196 324.797 21.7716 327.512 23.2756C330.228 24.7378 332.358 26.8267 333.904 29.5423C335.492 32.2578 336.286 35.3912 336.286 38.9423C336.286 42.4934 335.471 45.6267 333.842 48.3423C332.254 51.0578 330.082 53.1676 327.324 54.6716C324.609 56.1338 321.559 56.8649 318.175 56.8649ZM318.175 49.2196C319.762 49.2196 321.246 48.8436 322.624 48.0916C324.045 47.2978 325.173 46.128 326.008 44.5823C326.844 43.0365 327.262 41.1565 327.262 38.9423C327.262 35.6418 326.384 33.1143 324.63 31.3596C322.917 29.5632 320.807 28.6649 318.3 28.6649C315.794 28.6649 313.684 29.5632 311.971 31.3596C310.3 33.1143 309.464 35.6418 309.464 38.9423C309.464 42.2427 310.279 44.7912 311.908 46.5876C313.579 48.3423 315.668 49.2196 318.175 49.2196Z" fill="#11243E"/>
<path d="M374.829 21.5836V56.3009H365.993V51.9143C364.865 53.4183 363.382 54.6089 361.544 55.4863C359.747 56.3218 357.784 56.7396 355.653 56.7396C352.938 56.7396 350.535 56.1756 348.447 55.0476C346.358 53.8778 344.707 52.1858 343.496 49.9716C342.326 47.7156 341.741 45.0418 341.741 41.9503V21.5836H350.514V40.6969C350.514 43.4543 351.204 45.5849 352.582 47.0889C353.961 48.5512 355.841 49.2823 358.223 49.2823C360.646 49.2823 362.547 48.5512 363.925 47.0889C365.304 45.5849 365.993 43.4543 365.993 40.6969V21.5836H374.829Z" fill="#11243E"/>
<path d="M391.592 26.9729C392.72 25.1347 394.182 23.6934 395.979 22.6489C397.817 21.6045 399.906 21.0823 402.245 21.0823V30.2943H399.927C397.169 30.2943 395.081 30.9418 393.66 32.2369C392.281 33.5321 391.592 35.788 391.592 39.0049V56.3009H382.819V21.5836H391.592V26.9729Z" fill="#11243E"/>
<path d="M420.773 56.8649C417.933 56.8649 415.384 56.3636 413.128 55.3609C410.872 54.3165 409.076 52.9169 407.739 51.1623C406.444 49.4076 405.733 47.4649 405.608 45.3343H414.444C414.611 46.6712 415.259 47.7783 416.387 48.6556C417.557 49.5329 418.998 49.9716 420.711 49.9716C422.382 49.9716 423.677 49.6374 424.596 48.9689C425.557 48.3005 426.037 47.4441 426.037 46.3996C426.037 45.2716 425.453 44.4361 424.283 43.8929C423.155 43.3081 421.337 42.6814 418.831 42.0129C416.241 41.3863 414.11 40.7387 412.439 40.0703C410.809 39.4018 409.389 38.3783 408.177 36.9996C407.008 35.6209 406.423 33.7618 406.423 31.4223C406.423 29.5005 406.966 27.7458 408.052 26.1583C409.18 24.5707 410.768 23.3174 412.815 22.3983C414.904 21.4792 417.348 21.0196 420.147 21.0196C424.283 21.0196 427.583 22.0641 430.048 24.1529C432.513 26.2001 433.871 28.9783 434.121 32.4876H425.724C425.599 31.1089 425.014 30.0227 423.969 29.2289C422.967 28.3934 421.609 27.9756 419.896 27.9756C418.309 27.9756 417.076 28.2681 416.199 28.8529C415.363 29.4378 414.945 30.2525 414.945 31.2969C414.945 32.4667 415.53 33.3649 416.7 33.9916C417.87 34.5765 419.687 35.1823 422.152 35.8089C424.659 36.4356 426.727 37.0832 428.356 37.7516C429.985 38.42 431.385 39.4645 432.555 40.8849C433.766 42.2636 434.393 44.1018 434.435 46.3996C434.435 48.4049 433.871 50.2014 432.743 51.7889C431.657 53.3765 430.069 54.6298 427.98 55.5489C425.933 56.4263 423.531 56.8649 420.773 56.8649Z" fill="#11243E"/>
<path d="M473.243 38.1903C473.243 39.4436 473.16 40.5716 472.993 41.5743H447.613C447.821 44.0809 448.699 46.0445 450.245 47.4649C451.79 48.8854 453.691 49.5956 455.947 49.5956C459.206 49.5956 461.525 48.196 462.903 45.3969H472.366C471.363 48.7392 469.441 51.4965 466.601 53.6689C463.76 55.7996 460.271 56.8649 456.135 56.8649C452.793 56.8649 449.785 56.1338 447.111 54.6716C444.479 53.1676 442.411 51.0578 440.907 48.3423C439.445 45.6267 438.714 42.4934 438.714 38.9423C438.714 35.3494 439.445 32.1952 440.907 29.4796C442.369 26.764 444.417 24.6752 447.049 23.2129C449.681 21.7507 452.709 21.0196 456.135 21.0196C459.436 21.0196 462.381 21.7298 464.971 23.1503C467.603 24.5707 469.629 26.5969 471.05 29.2289C472.512 31.8192 473.243 34.8063 473.243 38.1903ZM464.157 35.6836C464.115 33.4276 463.3 31.6312 461.713 30.2943C460.125 28.9156 458.182 28.2263 455.885 28.2263C453.712 28.2263 451.874 28.8947 450.37 30.2316C448.908 31.5267 448.009 33.344 447.675 35.6836H464.157Z" fill="#11243E"/>
<defs>
<filter id="filter0_d_3688_21515" x="12.3462" y="18.938" width="29.3145" height="35.4425" filterUnits="userSpaceOnUse" color-interpolation-filters="sRGB">
<feFlood flood-opacity="0" result="BackgroundImageFix"/>
<feColorMatrix in="SourceAlpha" type="matrix" values="0 0 0 0 0 0 0 0 0 0 0 0 0 0 0 0 0 0 127 0" result="hardAlpha"/>
<feOffset dx="3" dy="4"/>
<feGaussianBlur stdDeviation="1.5"/>
<feComposite in2="hardAlpha" operator="out"/>
<feColorMatrix type="matrix" values="0 0 0 0 0 0 0 0 0 0 0 0 0 0 0 0 0 0 0.05 0"/>
<feBlend mode="normal" in2="BackgroundImageFix" result="effect1_dropShadow_3688_21515"/>
<feBlend mode="normal" in="SourceGraphic" in2="effect1_dropShadow_3688_21515" result="shape"/>
</filter>
<linearGradient id="paint0_linear_3688_21515" x1="48" y1="66.767" x2="-8.22857" y2="-2.66154" gradientUnits="userSpaceOnUse">
<stop stop-color="#59CBEF"/>
<stop offset="1" stop-color="#8CD672"/>
</linearGradient>
</defs>
</svg>
