<svg xmlns="http://www.w3.org/2000/svg" width="380" height="153" fill="none" viewBox="0 0 380 153"><g data-logo-icon="neeto-typeface-logo__icon"><path fill="#5BCC5A" d="M10.125 42.875C10.125 36.6618 15.1618 31.625 21.375 31.625H121.5C127.713 31.625 132.75 36.6618 132.75 42.875V53H10.125V42.875Z"/><path fill="#5BCC5A" d="M10.125 54.6875H132.75V116.562C132.75 122.776 127.713 127.812 121.5 127.812H21.375C15.1618 127.812 10.125 122.776 10.125 116.562V54.6875Z"/><path fill="#0DA84C" d="M90.5625 22.625C90.5625 19.5184 93.0809 17 96.1875 17H107.438C110.544 17 113.062 19.5184 113.062 22.625V91.1094L101.812 104.188L90.5625 91.1094V22.625Z"/><path fill="#75DC66" d="M90.5625 22.625C90.5625 19.5184 93.0809 17 96.1875 17H107.438C110.544 17 113.062 19.5184 113.062 22.625V54.6875H90.5625V22.625Z"/></g><g data-logo-text="neeto-typeface-logo__text"><path fill="#000" d="M199.997 136.245C194.385 136.245 189.311 135.284 184.776 133.363C180.317 131.441 176.781 128.673 174.167 125.06C171.553 121.447 170.208 117.18 170.131 112.26H187.428C187.658 115.566 188.812 118.18 190.887 120.102C193.04 122.024 195.961 122.984 199.651 122.984C203.418 122.984 206.377 122.1 208.53 120.332C210.682 118.487 211.759 116.104 211.759 113.183C211.759 110.8 211.028 108.839 209.568 107.302C208.107 105.764 206.262 104.573 204.033 103.727C201.88 102.805 198.882 101.805 195.038 100.729C189.811 99.1916 185.544 97.6926 182.239 96.232C179.01 94.6945 176.204 92.4266 173.821 89.4285C171.515 86.3535 170.362 82.2791 170.362 77.2054C170.362 72.4391 171.553 68.2879 173.936 64.7516C176.319 61.2154 179.663 58.5248 183.968 56.6798C188.273 54.7579 193.193 53.797 198.728 53.797C207.031 53.797 213.757 55.8341 218.908 59.9085C224.136 63.906 227.018 69.5179 227.557 76.7441H209.798C209.645 73.9766 208.453 71.7088 206.224 69.9407C204.071 68.0957 201.188 67.1732 197.575 67.1732C194.423 67.1732 191.887 67.9804 189.965 69.5948C188.12 71.2091 187.197 73.5538 187.197 76.6288C187.197 78.7813 187.889 80.5879 189.273 82.0485C190.733 83.4323 192.502 84.5854 194.577 85.5079C196.73 86.3535 199.728 87.3529 203.572 88.506C208.799 90.0435 213.066 91.581 216.371 93.1185C219.677 94.656 222.521 96.9623 224.904 100.037C227.287 103.112 228.479 107.148 228.479 112.145C228.479 116.45 227.364 120.448 225.135 124.138C222.906 127.828 219.638 130.787 215.333 133.017C211.028 135.169 205.916 136.245 199.997 136.245Z" data-dark-mode-color="true"/><path fill="#000" d="M248.356 63.9445C245.512 63.9445 243.129 63.0604 241.207 61.2923C239.362 59.4473 238.439 57.1795 238.439 54.4888C238.439 51.7982 239.362 49.5688 241.207 47.8007C243.129 45.9557 245.512 45.0332 248.356 45.0332C251.2 45.0332 253.545 45.9557 255.39 47.8007C257.312 49.5688 258.273 51.7982 258.273 54.4888C258.273 57.1795 257.312 59.4473 255.39 61.2923C253.545 63.0604 251.2 63.9445 248.356 63.9445ZM256.313 71.5551V135.438H240.169V71.5551H256.313Z" data-dark-mode-color="true"/><path fill="#000" d="M288.752 84.816V115.72C288.752 117.872 289.252 119.448 290.251 120.448C291.328 121.37 293.096 121.831 295.556 121.831H303.051V135.438H292.904C279.297 135.438 272.493 128.827 272.493 115.604V84.816H264.883V71.5551H272.493V55.7573H288.752V71.5551H303.051V84.816H288.752Z" data-dark-mode-color="true"/><path fill="#000" d="M371.742 102.113C371.742 104.419 371.588 106.495 371.281 108.34H324.579C324.964 112.952 326.578 116.565 329.423 119.179C332.267 121.793 335.765 123.1 339.916 123.1C345.912 123.1 350.179 120.524 352.716 115.374H370.128C368.283 121.524 364.747 126.598 359.519 130.595C354.292 134.516 347.873 136.476 340.262 136.476C334.112 136.476 328.577 135.131 323.657 132.44C318.814 129.673 315.008 125.79 312.241 120.794C309.55 115.797 308.205 110.031 308.205 103.497C308.205 96.8854 309.55 91.0813 312.241 86.0845C314.932 81.0876 318.698 77.2438 323.542 74.5532C328.385 71.8626 333.958 70.5173 340.262 70.5173C346.335 70.5173 351.755 71.8241 356.521 74.4379C361.364 77.0516 365.093 80.7801 367.706 85.6232C370.397 90.3895 371.742 95.886 371.742 102.113ZM355.022 97.5004C354.945 93.3491 353.446 90.0435 350.525 87.5835C347.603 85.0466 344.029 83.7782 339.801 83.7782C335.803 83.7782 332.421 85.0082 329.653 87.4682C326.963 89.8513 325.31 93.1954 324.695 97.5004H355.022Z" data-dark-mode-color="true"/><path fill="#000" d="M228.622 25.5097C228.622 26.3731 228.564 27.1502 228.449 27.841H210.978C211.122 29.5679 211.726 30.9206 212.79 31.8992C213.854 32.8777 215.163 33.367 216.716 33.367C218.959 33.367 220.555 32.4028 221.504 30.4745H228.018C227.327 32.777 226.005 34.6766 224.049 36.1732C222.094 37.6411 219.692 38.375 216.845 38.375C214.544 38.375 212.474 37.8713 210.633 36.864C208.822 35.8278 207.398 34.3744 206.363 32.5036C205.356 30.6328 204.853 28.4742 204.853 26.0278C204.853 23.5525 205.356 21.3795 206.363 19.5087C207.369 17.638 208.778 16.1989 210.59 15.1915C212.402 14.1842 214.487 13.6805 216.845 13.6805C219.117 13.6805 221.144 14.1698 222.927 15.1484C224.739 16.1269 226.134 17.5228 227.112 19.3361C228.118 21.1205 228.622 23.1784 228.622 25.5097ZM222.367 23.7828C222.338 22.2286 221.777 20.991 220.684 20.07C219.592 19.1202 218.254 18.6453 216.673 18.6453C215.177 18.6453 213.912 19.1058 212.877 20.0268C211.87 20.919 211.252 22.171 211.022 23.7828H222.367Z" data-dark-mode-color="true"/><path fill="#000" d="M255.245 25.5097C255.245 26.3731 255.188 27.1502 255.073 27.841H237.602C237.746 29.5679 238.35 30.9206 239.414 31.8992C240.478 32.8777 241.787 33.367 243.34 33.367C245.583 33.367 247.179 32.4028 248.128 30.4745H254.641C253.951 32.777 252.628 34.6766 250.673 36.1732C248.717 37.6411 246.316 38.375 243.469 38.375C241.168 38.375 239.098 37.8713 237.257 36.864C235.445 35.8278 234.022 34.3744 232.987 32.5036C231.98 30.6328 231.477 28.4742 231.477 26.0278C231.477 23.5525 231.98 21.3795 232.987 19.5087C233.993 17.638 235.402 16.1989 237.214 15.1915C239.026 14.1842 241.111 13.6805 243.469 13.6805C245.741 13.6805 247.768 14.1698 249.551 15.1484C251.363 16.1269 252.758 17.5228 253.736 19.3361C254.742 21.1205 255.245 23.1784 255.245 25.5097ZM248.99 23.7828C248.962 22.2286 248.401 20.991 247.308 20.07C246.215 19.1202 244.878 18.6453 243.296 18.6453C241.801 18.6453 240.536 19.1058 239.5 20.0268C238.494 20.919 237.875 22.171 237.645 23.7828H248.99Z" data-dark-mode-color="true"/><path fill="#000" d="M266.785 18.9874V30.6615C266.785 31.4674 266.997 31.9999 267.371 32.374C267.774 32.7194 268.435 32.8921 269.356 32.8921H272.16V37.9864H268.364C263.273 37.9864 260.838 35.383 260.838 30.4326V18.9874H257.636V13.9515H260.838V8H266.785V13.9515H272.16V18.9874H266.785Z" data-dark-mode-color="true"/><path fill="#000" d="M286.989 38.375C284.689 38.375 282.618 37.8713 280.778 36.864C278.937 35.8278 277.485 34.3744 276.421 32.5036C275.385 30.6328 274.868 28.4742 274.868 26.0278C274.868 23.5813 275.4 21.4227 276.464 19.5519C277.557 17.6811 279.038 16.2421 280.907 15.2347C282.776 14.1986 284.861 13.6805 287.162 13.6805C289.463 13.6805 291.548 14.1986 293.417 15.2347C295.286 16.2421 296.753 17.6811 297.817 19.5519C298.91 21.4227 299.456 23.5813 299.456 26.0278C299.456 28.4742 298.895 30.6328 297.774 32.5036C296.681 34.3744 295.185 35.8278 293.287 36.864C291.418 37.8713 289.319 38.375 286.989 38.375ZM286.989 33.108C288.082 33.108 289.103 32.849 290.052 32.3309C291.03 31.784 291.806 30.9782 292.382 29.9132C292.957 28.8483 293.244 27.5532 293.244 26.0278C293.244 23.754 292.64 22.0127 291.432 20.8039C290.253 19.5663 288.801 18.9475 287.076 18.9475C285.35 18.9475 283.898 19.5663 282.719 20.8039C281.568 22.0127 280.993 23.754 280.993 26.0278C280.993 28.3015 281.554 30.0572 282.676 31.2948C283.826 32.5036 285.264 33.108 286.989 33.108Z" data-dark-mode-color="true"/><path fill="#000" d="M199.752 8H188.159L199.752 25.3903V8Z" data-dark-mode-color="true"/><path fill="#000" d="M171 38.375L171 8H179.372L199.752 38.375H191.136L177.724 18.666V38.375H171Z" data-dark-mode-color="true"/></g></svg>