<svg width="467" height="73" viewBox="0 0 467 73" fill="none" xmlns="http://www.w3.org/2000/svg">
<path d="M56 32C56 18.7452 45.2548 8 32 8H8V56H56V32Z" fill="url(#paint0_linear_3240_12574)"/>
<g filter="url(#filter0_d_3240_12574)">
<path d="M46.2587 45.3727L42.4785 41.6377C42.0976 42.2497 41.6443 42.8235 41.1204 43.3456C40.5922 43.8743 40.0127 44.3324 39.3937 44.716L43.1957 48.4724C44.0479 49.3154 45.4187 49.308 46.2661 48.4619C46.2696 48.4584 46.2727 48.4554 46.2758 48.4527C47.1262 47.6018 47.1148 46.2187 46.2587 45.3727Z" fill="white"/>
<path fill-rule="evenodd" clip-rule="evenodd" d="M30.8542 43.5351C36.6358 43.5351 41.2911 38.8804 41.2911 33.1773C41.2911 27.4742 36.6358 22.8194 30.8542 22.8194C25.0727 22.8194 20.4173 27.4742 20.4173 33.1773C20.4173 38.8804 25.0727 43.5351 30.8542 43.5351ZM30.8542 46.6978C38.3651 46.6978 44.4538 40.6445 44.4538 33.1773C44.4538 25.7101 38.3651 19.6567 30.8542 19.6567C23.3434 19.6567 17.2546 25.7101 17.2546 33.1773C17.2546 40.6445 23.3434 46.6978 30.8542 46.6978Z" fill="white"/>
<path d="M35.2581 28.4845L33.8586 29.8728L36.4501 33.0985L33.8586 36.328L35.2581 37.7163L38.9209 33.0985L35.2581 28.4845ZM28.1697 29.8689L26.7702 28.4816L23.1074 33.0985L26.7702 37.7124L28.1697 36.3241L25.5783 33.0985L28.1697 29.8689ZM29.0375 38.0007H31.0142L32.9909 28.1963H31.0142L29.0375 38.0007Z" fill="white"/>
</g>
<path d="M80 21.1787V56.3787H87.5283V28.6587H97.7137C103.339 28.6587 107.899 33.1895 107.899 38.7787V56.3787H115.427V38.7787C115.427 29.0585 107.497 21.1787 97.7137 21.1787H80Z" fill="#11243E"/>
<path fill-rule="evenodd" clip-rule="evenodd" d="M146.177 35.8861C145.455 31.3064 142.646 27.9321 137.028 27.9321C131.81 27.9321 128.199 30.8228 127.237 35.8861H146.177ZM137.911 49.5474C142.325 49.5474 145.535 47.7795 147.462 45.9313L152.197 50.9132C149.066 54.0481 144.734 56.3787 137.992 56.3787C126.434 56.3787 118.97 48.9058 118.97 38.7804C118.97 28.7341 126.836 21.1787 136.946 21.1787C148.423 21.1787 154.924 29.6977 154.364 41.512H127.237C128.199 46.4149 131.73 49.5474 137.911 49.5474Z" fill="#11243E"/>
<path fill-rule="evenodd" clip-rule="evenodd" d="M185.148 35.8861C184.426 31.3064 181.616 27.9321 175.998 27.9321C170.78 27.9321 167.169 30.8228 166.207 35.8861H185.148ZM176.881 49.5474C181.295 49.5474 184.505 47.7795 186.432 45.9313L191.167 50.9132C188.036 54.0481 183.704 56.3787 176.962 56.3787C165.404 56.3787 157.94 48.9058 157.94 38.7804C157.94 28.7341 165.807 21.1787 175.916 21.1787C187.393 21.1787 193.894 29.6977 193.334 41.512H166.207C167.169 46.4149 170.7 49.5474 176.881 49.5474Z" fill="#11243E"/>
<path fill-rule="evenodd" clip-rule="evenodd" d="M196.91 21.4821H202.851V12.3787H210.4V21.4821H217.809V28.3058H210.4V42.133C210.4 48.3878 211.378 49.3595 217.809 49.3595V56.3787H216.691C206.066 56.3787 202.851 53.0426 202.851 42.2033V28.3058H196.91V21.4821Z" fill="#11243E"/>
<path fill-rule="evenodd" clip-rule="evenodd" d="M249.544 38.7793C249.544 32.8218 244.9 27.948 239.031 27.948C233.16 27.948 228.587 32.8218 228.587 38.7793C228.587 44.7355 233.16 49.6093 239.031 49.6093C244.9 49.6093 249.544 44.7355 249.544 38.7793ZM221.351 38.7793C221.351 28.8958 229.201 21.1787 239.031 21.1787C248.861 21.1787 256.779 28.8958 256.779 38.7793C256.779 48.5941 248.861 56.3787 239.031 56.3787C229.201 56.3787 221.351 48.5941 221.351 38.7793Z" fill="#11243E"/>
<path d="M291.837 12.8253V18.6533H280.244V56.3787H273.1V18.6533H261.444V12.8253H291.837Z" fill="#11243E"/>
<path d="M330.052 38.268C330.052 39.5631 329.969 40.7329 329.802 41.7773H303.419C303.628 44.5347 304.652 46.7489 306.49 48.42C308.328 50.0911 310.584 50.9267 313.258 50.9267C317.101 50.9267 319.817 49.3182 321.404 46.1013H329.112C328.068 49.2764 326.167 51.8876 323.41 53.9347C320.694 55.94 317.31 56.9427 313.258 56.9427C309.957 56.9427 306.991 56.2116 304.359 54.7493C301.769 53.2453 299.722 51.1564 298.218 48.4827C296.756 45.7671 296.024 42.6338 296.024 39.0827C296.024 35.5316 296.735 32.4191 298.155 29.7453C299.617 27.0298 301.644 24.9409 304.234 23.4787C306.866 22.0164 309.874 21.2853 313.258 21.2853C316.516 21.2853 319.42 21.9956 321.968 23.416C324.517 24.8364 326.501 26.8418 327.922 29.432C329.342 31.9804 330.052 34.9258 330.052 38.268ZM322.595 36.012C322.553 33.38 321.613 31.2702 319.775 29.6827C317.937 28.0951 315.66 27.3013 312.944 27.3013C310.48 27.3013 308.37 28.0951 306.615 29.6827C304.86 31.2284 303.816 33.3382 303.482 36.012H322.595Z" fill="#11243E"/>
<path d="M348.949 56.9427C346.234 56.9427 343.79 56.4622 341.617 55.5013C339.487 54.4987 337.795 53.1618 336.541 51.4907C335.288 49.7778 334.62 47.8769 334.536 45.788H341.931C342.056 47.2502 342.745 48.4827 343.999 49.4853C345.294 50.4462 346.902 50.9267 348.824 50.9267C350.829 50.9267 352.375 50.5507 353.461 49.7987C354.589 49.0049 355.153 48.0022 355.153 46.7907C355.153 45.4956 354.527 44.5347 353.273 43.908C352.062 43.2813 350.119 42.592 347.445 41.84C344.855 41.1298 342.745 40.4404 341.116 39.772C339.487 39.1036 338.066 38.08 336.855 36.7013C335.685 35.3227 335.1 33.5053 335.1 31.2493C335.1 29.4111 335.643 27.74 336.729 26.236C337.816 24.6902 339.361 23.4787 341.367 22.6013C343.414 21.724 345.753 21.2853 348.385 21.2853C352.313 21.2853 355.467 22.288 357.848 24.2933C360.271 26.2569 361.566 28.9516 361.733 32.3773H354.589C354.464 30.8316 353.837 29.5991 352.709 28.68C351.581 27.7609 350.057 27.3013 348.135 27.3013C346.255 27.3013 344.813 27.6564 343.811 28.3667C342.808 29.0769 342.307 30.0169 342.307 31.1867C342.307 32.1058 342.641 32.8787 343.309 33.5053C343.978 34.132 344.793 34.6333 345.753 35.0093C346.714 35.3436 348.135 35.7822 350.015 36.3253C352.521 36.9938 354.569 37.6831 356.156 38.3933C357.785 39.0618 359.185 40.0644 360.355 41.4013C361.525 42.7382 362.13 44.5138 362.172 46.728C362.172 48.6916 361.629 50.4462 360.543 51.992C359.457 53.5378 357.911 54.7493 355.905 55.6267C353.942 56.504 351.623 56.9427 348.949 56.9427Z" fill="#11243E"/>
<path d="M377.559 27.6773V46.7907C377.559 48.0858 377.852 49.0258 378.437 49.6107C379.063 50.1538 380.108 50.4253 381.57 50.4253H385.957V56.3787H380.317C377.1 56.3787 374.635 55.6267 372.922 54.1227C371.209 52.6187 370.353 50.1747 370.353 46.7907V27.6773H366.279V21.8493H370.353V13.264H377.559V21.8493H385.957V27.6773H377.559Z" fill="#11243E"/>
<path d="M395.509 17.2747C394.214 17.2747 393.128 16.836 392.25 15.9587C391.373 15.0813 390.934 13.9951 390.934 12.7C390.934 11.4049 391.373 10.3187 392.25 9.44133C393.128 8.564 394.214 8.12533 395.509 8.12533C396.762 8.12533 397.828 8.564 398.705 9.44133C399.582 10.3187 400.021 11.4049 400.021 12.7C400.021 13.9951 399.582 15.0813 398.705 15.9587C397.828 16.836 396.762 17.2747 395.509 17.2747ZM399.018 21.8493V56.3787H391.874V21.8493H399.018Z" fill="#11243E"/>
<path d="M422.207 27.6773H415.815V56.3787H408.609V27.6773H404.535V21.8493H408.609V19.4053C408.609 15.4364 409.653 12.5538 411.742 10.7573C413.873 8.91911 417.194 8 421.706 8V13.9533C419.533 13.9533 418.009 14.3711 417.131 15.2067C416.254 16.0004 415.815 17.4 415.815 19.4053V21.8493H422.207V27.6773Z" fill="#11243E"/>
<path d="M458.955 21.8493L437.773 72.6093H430.379L437.397 55.8147L423.799 21.8493H431.757L441.471 48.1693L451.56 21.8493H458.955Z" fill="#11243E"/>
<path d="M80 21.1787V56.3787H87.5283V28.6587H97.7137C103.339 28.6587 107.899 33.1895 107.899 38.7787V56.3787H115.427V38.7787C115.427 29.0585 107.497 21.1787 97.7137 21.1787H80Z" stroke="#11243E" stroke-width="0.333333"/>
<path fill-rule="evenodd" clip-rule="evenodd" d="M146.177 35.8861C145.455 31.3064 142.646 27.9321 137.028 27.9321C131.81 27.9321 128.199 30.8228 127.237 35.8861H146.177ZM137.911 49.5474C142.325 49.5474 145.535 47.7795 147.462 45.9313L152.197 50.9132C149.066 54.0481 144.734 56.3787 137.992 56.3787C126.434 56.3787 118.97 48.9058 118.97 38.7804C118.97 28.7341 126.836 21.1787 136.946 21.1787C148.423 21.1787 154.924 29.6977 154.364 41.512H127.237C128.199 46.4149 131.73 49.5474 137.911 49.5474Z" stroke="#11243E" stroke-width="0.333333"/>
<path fill-rule="evenodd" clip-rule="evenodd" d="M185.148 35.8861C184.426 31.3064 181.616 27.9321 175.998 27.9321C170.78 27.9321 167.169 30.8228 166.207 35.8861H185.148ZM176.881 49.5474C181.295 49.5474 184.505 47.7795 186.432 45.9313L191.167 50.9132C188.036 54.0481 183.704 56.3787 176.962 56.3787C165.404 56.3787 157.94 48.9058 157.94 38.7804C157.94 28.7341 165.807 21.1787 175.916 21.1787C187.393 21.1787 193.894 29.6977 193.334 41.512H166.207C167.169 46.4149 170.7 49.5474 176.881 49.5474Z" stroke="#11243E" stroke-width="0.333333"/>
<path fill-rule="evenodd" clip-rule="evenodd" d="M196.91 21.4821H202.851V12.3787H210.4V21.4821H217.809V28.3058H210.4V42.133C210.4 48.3878 211.378 49.3595 217.809 49.3595V56.3787H216.691C206.066 56.3787 202.851 53.0426 202.851 42.2033V28.3058H196.91V21.4821Z" stroke="#11243E" stroke-width="0.333333"/>
<path fill-rule="evenodd" clip-rule="evenodd" d="M249.544 38.7793C249.544 32.8218 244.9 27.948 239.031 27.948C233.16 27.948 228.587 32.8218 228.587 38.7793C228.587 44.7355 233.16 49.6093 239.031 49.6093C244.9 49.6093 249.544 44.7355 249.544 38.7793ZM221.351 38.7793C221.351 28.8958 229.201 21.1787 239.031 21.1787C248.861 21.1787 256.779 28.8958 256.779 38.7793C256.779 48.5941 248.861 56.3787 239.031 56.3787C229.201 56.3787 221.351 48.5941 221.351 38.7793Z" stroke="#11243E" stroke-width="0.333333"/>
<path d="M291.837 12.8253V18.6533H280.244V56.3787H273.1V18.6533H261.444V12.8253H291.837Z" stroke="#11243E" stroke-width="0.333333"/>
<path d="M330.052 38.268C330.052 39.5631 329.969 40.7329 329.802 41.7773H303.419C303.628 44.5347 304.652 46.7489 306.49 48.42C308.328 50.0911 310.584 50.9267 313.258 50.9267C317.101 50.9267 319.817 49.3182 321.404 46.1013H329.112C328.068 49.2764 326.167 51.8876 323.41 53.9347C320.694 55.94 317.31 56.9427 313.258 56.9427C309.957 56.9427 306.991 56.2116 304.359 54.7493C301.769 53.2453 299.722 51.1564 298.218 48.4827C296.756 45.7671 296.024 42.6338 296.024 39.0827C296.024 35.5316 296.735 32.4191 298.155 29.7453C299.617 27.0298 301.644 24.9409 304.234 23.4787C306.866 22.0164 309.874 21.2853 313.258 21.2853C316.516 21.2853 319.42 21.9956 321.968 23.416C324.517 24.8364 326.501 26.8418 327.922 29.432C329.342 31.9804 330.052 34.9258 330.052 38.268ZM322.595 36.012C322.553 33.38 321.613 31.2702 319.775 29.6827C317.937 28.0951 315.66 27.3013 312.944 27.3013C310.48 27.3013 308.37 28.0951 306.615 29.6827C304.86 31.2284 303.816 33.3382 303.482 36.012H322.595Z" stroke="#11243E" stroke-width="0.333333"/>
<path d="M348.949 56.9427C346.234 56.9427 343.79 56.4622 341.617 55.5013C339.487 54.4987 337.795 53.1618 336.541 51.4907C335.288 49.7778 334.62 47.8769 334.536 45.788H341.931C342.056 47.2502 342.745 48.4827 343.999 49.4853C345.294 50.4462 346.902 50.9267 348.824 50.9267C350.829 50.9267 352.375 50.5507 353.461 49.7987C354.589 49.0049 355.153 48.0022 355.153 46.7907C355.153 45.4956 354.527 44.5347 353.273 43.908C352.062 43.2813 350.119 42.592 347.445 41.84C344.855 41.1298 342.745 40.4404 341.116 39.772C339.487 39.1036 338.066 38.08 336.855 36.7013C335.685 35.3227 335.1 33.5053 335.1 31.2493C335.1 29.4111 335.643 27.74 336.729 26.236C337.816 24.6902 339.361 23.4787 341.367 22.6013C343.414 21.724 345.753 21.2853 348.385 21.2853C352.313 21.2853 355.467 22.288 357.848 24.2933C360.271 26.2569 361.566 28.9516 361.733 32.3773H354.589C354.464 30.8316 353.837 29.5991 352.709 28.68C351.581 27.7609 350.057 27.3013 348.135 27.3013C346.255 27.3013 344.813 27.6564 343.811 28.3667C342.808 29.0769 342.307 30.0169 342.307 31.1867C342.307 32.1058 342.641 32.8787 343.309 33.5053C343.978 34.132 344.793 34.6333 345.753 35.0093C346.714 35.3436 348.135 35.7822 350.015 36.3253C352.521 36.9938 354.569 37.6831 356.156 38.3933C357.785 39.0618 359.185 40.0644 360.355 41.4013C361.525 42.7382 362.13 44.5138 362.172 46.728C362.172 48.6916 361.629 50.4462 360.543 51.992C359.457 53.5378 357.911 54.7493 355.905 55.6267C353.942 56.504 351.623 56.9427 348.949 56.9427Z" stroke="#11243E" stroke-width="0.333333"/>
<path d="M377.559 27.6773V46.7907C377.559 48.0858 377.852 49.0258 378.437 49.6107C379.063 50.1538 380.108 50.4253 381.57 50.4253H385.957V56.3787H380.317C377.1 56.3787 374.635 55.6267 372.922 54.1227C371.209 52.6187 370.353 50.1747 370.353 46.7907V27.6773H366.279V21.8493H370.353V13.264H377.559V21.8493H385.957V27.6773H377.559Z" stroke="#11243E" stroke-width="0.333333"/>
<path d="M395.509 17.2747C394.214 17.2747 393.128 16.836 392.25 15.9587C391.373 15.0813 390.934 13.9951 390.934 12.7C390.934 11.4049 391.373 10.3187 392.25 9.44133C393.128 8.564 394.214 8.12533 395.509 8.12533C396.762 8.12533 397.828 8.564 398.705 9.44133C399.582 10.3187 400.021 11.4049 400.021 12.7C400.021 13.9951 399.582 15.0813 398.705 15.9587C397.828 16.836 396.762 17.2747 395.509 17.2747ZM399.018 21.8493V56.3787H391.874V21.8493H399.018Z" stroke="#11243E" stroke-width="0.333333"/>
<path d="M422.207 27.6773H415.815V56.3787H408.609V27.6773H404.535V21.8493H408.609V19.4053C408.609 15.4364 409.653 12.5538 411.742 10.7573C413.873 8.91911 417.194 8 421.706 8V13.9533C419.533 13.9533 418.009 14.3711 417.131 15.2067C416.254 16.0004 415.815 17.4 415.815 19.4053V21.8493H422.207V27.6773Z" stroke="#11243E" stroke-width="0.333333"/>
<path d="M458.955 21.8493L437.773 72.6093H430.379L437.397 55.8147L423.799 21.8493H431.757L441.471 48.1693L451.56 21.8493H458.955Z" stroke="#11243E" stroke-width="0.333333"/>
<defs>
<filter id="filter0_d_3240_12574" x="17.2546" y="19.6567" width="35.6526" height="36.4438" filterUnits="userSpaceOnUse" color-interpolation-filters="sRGB">
<feFlood flood-opacity="0" result="BackgroundImageFix"/>
<feColorMatrix in="SourceAlpha" type="matrix" values="0 0 0 0 0 0 0 0 0 0 0 0 0 0 0 0 0 0 127 0" result="hardAlpha"/>
<feOffset dx="3" dy="4"/>
<feGaussianBlur stdDeviation="1.5"/>
<feComposite in2="hardAlpha" operator="out"/>
<feColorMatrix type="matrix" values="0 0 0 0 0 0 0 0 0 0 0 0 0 0 0 0 0 0 0.05 0"/>
<feBlend mode="normal" in2="BackgroundImageFix" result="effect1_dropShadow_3240_12574"/>
<feBlend mode="normal" in="SourceGraphic" in2="effect1_dropShadow_3240_12574" result="shape"/>
</filter>
<linearGradient id="paint0_linear_3240_12574" x1="56" y1="65.7714" x2="-6.91428" y2="-12.4" gradientUnits="userSpaceOnUse">
<stop stop-color="#FF9E45"/>
<stop offset="1" stop-color="#FFF27A"/>
</linearGradient>
</defs>
</svg>
