<svg width="517" height="74" viewBox="0 0 517 74" fill="none" xmlns="http://www.w3.org/2000/svg">
<path d="M56 32C56 18.7452 45.2548 8 32 8H8V56H56V32Z" fill="url(#paint0_linear_3240_12769)"/>
<g filter="url(#filter0_d_3240_12769)">
<path d="M46.2591 42.9746L42.4788 39.2394C42.0978 39.8514 41.6445 40.4253 41.1207 40.9474C40.5924 41.4762 40.0128 41.9343 39.3938 42.3179L43.196 46.0745C44.0483 46.9176 45.4192 46.9101 46.2666 46.064C46.2701 46.0605 46.2732 46.0574 46.2762 46.0548C47.1267 45.2039 47.1153 43.8207 46.2591 42.9746Z" fill="white"/>
<path fill-rule="evenodd" clip-rule="evenodd" d="M30.8549 41.1374C36.6368 41.1374 41.2924 36.4824 41.2924 30.779C41.2924 25.0756 36.6368 20.4207 30.8549 20.4207C25.0731 20.4207 20.4175 25.0756 20.4175 30.779C20.4175 36.4824 25.0731 41.1374 30.8549 41.1374ZM30.8549 44.3002C38.3662 44.3002 44.4552 38.2466 44.4552 30.779C44.4552 23.3115 38.3662 17.2578 30.8549 17.2578C23.3437 17.2578 17.2546 23.3115 17.2546 30.779C17.2546 38.2466 23.3437 44.3002 30.8549 44.3002Z" fill="white"/>
<path d="M26.2104 33.3568C26.1794 33.137 26.164 32.9152 26.1643 32.6931V32.0294H24.8464V30.702H26.1643V30.0383C26.1643 29.8126 26.1801 29.5916 26.2104 29.3745H24.8464V28.0471H26.6084C27.0123 27.1919 27.665 26.4808 28.4798 26.0082L27.7879 25.3113L28.7209 24.3734L29.8299 25.4911C30.4549 25.3596 31.1 25.3596 31.725 25.4911L32.834 24.3734L33.7664 25.3126L33.0745 26.0095C33.8888 26.4819 34.5412 27.1925 34.9452 28.0471H36.7071V29.3745H35.3432C35.3735 29.5916 35.3893 29.8126 35.3893 30.0383V30.702H36.7071V32.0294H35.3893V32.6931C35.3893 32.9188 35.3735 33.1398 35.3432 33.3568H36.7071V34.6843H34.9452C34.5713 35.4792 33.9811 36.1508 33.2432 36.6211C32.5053 37.0915 31.65 37.3412 30.7768 37.3412C29.9036 37.3412 29.0483 37.0915 28.3104 36.6211C27.5725 36.1508 26.9823 35.4792 26.6084 34.6843H24.8464V33.3568H26.2104ZM28.8 29.3745V30.702H32.7536V29.3745H28.8ZM28.8 32.0294V33.3568H32.7536V32.0294H28.8Z" fill="white"/>
</g>
<path d="M81 20.8V56H88.5283V28.28H98.7137C104.339 28.28 108.899 32.8109 108.899 38.4V56H116.427V38.4C116.427 28.6798 108.497 20.8 98.7137 20.8H81Z" fill="#11243E"/>
<path fill-rule="evenodd" clip-rule="evenodd" d="M147.177 35.5075C146.455 30.9277 143.646 27.5534 138.028 27.5534C132.81 27.5534 129.199 30.4442 128.237 35.5075H147.177ZM138.911 49.1688C143.325 49.1688 146.535 47.4008 148.462 45.5526L153.197 50.5345C150.066 53.6695 145.734 56 138.992 56C127.434 56 119.97 48.5271 119.97 38.4018C119.97 28.3554 127.836 20.8 137.946 20.8C149.423 20.8 155.924 29.319 155.364 41.1333H128.237C129.199 46.0362 132.73 49.1688 138.911 49.1688Z" fill="#11243E"/>
<path fill-rule="evenodd" clip-rule="evenodd" d="M186.148 35.5075C185.426 30.9277 182.616 27.5534 176.998 27.5534C171.78 27.5534 168.169 30.4442 167.207 35.5075H186.148ZM177.881 49.1688C182.295 49.1688 185.505 47.4008 187.432 45.5526L192.167 50.5345C189.036 53.6695 184.704 56 177.962 56C166.404 56 158.94 48.5271 158.94 38.4018C158.94 28.3554 166.807 20.8 176.916 20.8C188.393 20.8 194.894 29.319 194.334 41.1333H167.207C168.169 46.0362 171.7 49.1688 177.881 49.1688Z" fill="#11243E"/>
<path fill-rule="evenodd" clip-rule="evenodd" d="M197.91 21.1034H203.851V12H211.4V21.1034H218.809V27.9271H211.4V41.7543C211.4 48.0092 212.378 48.9809 218.809 48.9809V56H217.691C207.066 56 203.851 52.6639 203.851 41.8247V27.9271H197.91V21.1034Z" fill="#11243E"/>
<path fill-rule="evenodd" clip-rule="evenodd" d="M250.544 38.4006C250.544 32.4431 245.9 27.5694 240.031 27.5694C234.16 27.5694 229.587 32.4431 229.587 38.4006C229.587 44.3569 234.16 49.2306 240.031 49.2306C245.9 49.2306 250.544 44.3569 250.544 38.4006ZM222.351 38.4006C222.351 28.5172 230.201 20.8 240.031 20.8C249.861 20.8 257.779 28.5172 257.779 38.4006C257.779 48.2155 249.861 56 240.031 56C230.201 56 222.351 48.2155 222.351 38.4006Z" fill="#11243E"/>
<path d="M288.012 33.628C290.352 34.0458 292.336 35.2782 293.965 37.3253C295.595 39.3724 296.409 41.6911 296.409 44.2813C296.409 46.4956 295.824 48.5009 294.655 50.2973C293.527 52.052 291.876 53.4516 289.704 54.496C287.532 55.4987 285.004 56 282.121 56H264.7V12.4467H281.307C284.273 12.4467 286.821 12.948 288.952 13.9507C291.083 14.9533 292.691 16.3111 293.777 18.024C294.864 19.6951 295.407 21.5751 295.407 23.664C295.407 26.1707 294.738 28.2596 293.401 29.9307C292.064 31.6018 290.268 32.8342 288.012 33.628ZM271.844 30.7453H280.68C283.02 30.7453 284.837 30.2231 286.132 29.1787C287.469 28.0924 288.137 26.5467 288.137 24.5413C288.137 22.5778 287.469 21.0529 286.132 19.9667C284.837 18.8387 283.02 18.2747 280.68 18.2747H271.844V30.7453ZM281.495 50.172C283.918 50.172 285.819 49.5871 287.197 48.4173C288.576 47.2476 289.265 45.6182 289.265 43.5293C289.265 41.3987 288.534 39.7067 287.072 38.4533C285.61 37.2 283.667 36.5733 281.244 36.5733H271.844V50.172H281.495Z" fill="#11243E"/>
<path d="M334.777 21.4707V56H327.633V51.9267C326.505 53.3471 325.022 54.4751 323.183 55.3107C321.387 56.1044 319.465 56.5013 317.418 56.5013C314.702 56.5013 312.258 55.9373 310.086 54.8093C307.955 53.6813 306.263 52.0102 305.01 49.796C303.798 47.5818 303.193 44.908 303.193 41.7747V21.4707H310.274V40.7093C310.274 43.8009 311.047 46.1822 312.593 47.8533C314.138 49.4827 316.248 50.2973 318.922 50.2973C321.596 50.2973 323.706 49.4827 325.251 47.8533C326.839 46.1822 327.633 43.8009 327.633 40.7093V21.4707H334.777Z" fill="#11243E"/>
<path d="M357.448 20.9067C360.122 20.9067 362.482 21.4498 364.529 22.536C366.618 23.5804 368.247 24.8964 369.417 26.484V21.4707H376.624V56.564C376.624 59.7391 375.956 62.5591 374.619 65.024C373.282 67.5307 371.339 69.4942 368.791 70.9147C366.284 72.3351 363.276 73.0453 359.767 73.0453C355.087 73.0453 351.202 71.9382 348.111 69.724C345.019 67.5516 343.264 64.5853 342.847 60.8253H349.928C350.471 62.6218 351.62 64.0631 353.375 65.1493C355.171 66.2773 357.302 66.8413 359.767 66.8413C362.649 66.8413 364.968 65.964 366.723 64.2093C368.519 62.4547 369.417 59.9062 369.417 56.564V50.7987C368.206 52.428 366.556 53.8067 364.467 54.9347C362.419 56.0209 360.08 56.564 357.448 56.564C354.44 56.564 351.683 55.812 349.176 54.308C346.711 52.7622 344.747 50.6316 343.285 47.916C341.865 45.1587 341.155 42.0462 341.155 38.5787C341.155 35.1111 341.865 32.0404 343.285 29.3667C344.747 26.6929 346.711 24.6249 349.176 23.1627C351.683 21.6587 354.44 20.9067 357.448 20.9067ZM369.417 38.704C369.417 36.3227 368.916 34.2547 367.913 32.5C366.952 30.7453 365.678 29.4084 364.091 28.4893C362.503 27.5702 360.79 27.1107 358.952 27.1107C357.114 27.1107 355.401 27.5702 353.813 28.4893C352.226 29.3667 350.931 30.6827 349.928 32.4373C348.967 34.1502 348.487 36.1973 348.487 38.5787C348.487 40.96 348.967 43.0489 349.928 44.8453C350.931 46.6418 352.226 48.0204 353.813 48.9813C355.443 49.9004 357.155 50.36 358.952 50.36C360.79 50.36 362.503 49.9004 364.091 48.9813C365.678 48.0622 366.952 46.7253 367.913 44.9707C368.916 43.1742 369.417 41.0853 369.417 38.704Z" fill="#11243E"/>
<path d="M393.675 27.2987V46.412C393.675 47.7071 393.968 48.6471 394.553 49.232C395.179 49.7751 396.224 50.0467 397.686 50.0467H402.073V56H396.433C393.216 56 390.751 55.248 389.038 53.744C387.325 52.24 386.469 49.796 386.469 46.412V27.2987H382.395V21.4707H386.469V12.8853H393.675V21.4707H402.073V27.2987H393.675Z" fill="#11243E"/>
<path d="M415.134 26.484C416.179 24.7293 417.557 23.3716 419.27 22.4107C421.025 21.408 423.093 20.9067 425.474 20.9067V28.3013H423.657C420.858 28.3013 418.727 29.0116 417.265 30.432C415.845 31.8524 415.134 34.3173 415.134 37.8267V56H407.99V21.4707H415.134V26.484Z" fill="#11243E"/>
<path d="M428.993 38.5787C428.993 35.1111 429.703 32.0404 431.124 29.3667C432.586 26.6929 434.55 24.6249 437.014 23.1627C439.521 21.6587 442.279 20.9067 445.286 20.9067C448.002 20.9067 450.362 21.4498 452.368 22.536C454.415 23.5804 456.044 24.8964 457.256 26.484V21.4707H464.462V56H457.256V50.8613C456.044 52.4907 454.394 53.8484 452.305 54.9347C450.216 56.0209 447.835 56.564 445.161 56.564C442.195 56.564 439.479 55.812 437.014 54.308C434.55 52.7622 432.586 50.6316 431.124 47.916C429.703 45.1587 428.993 42.0462 428.993 38.5787ZM457.256 38.704C457.256 36.3227 456.754 34.2547 455.752 32.5C454.791 30.7453 453.517 29.4084 451.929 28.4893C450.342 27.5702 448.629 27.1107 446.79 27.1107C444.952 27.1107 443.239 27.5702 441.652 28.4893C440.064 29.3667 438.769 30.6827 437.766 32.4373C436.806 34.1502 436.325 36.1973 436.325 38.5787C436.325 40.96 436.806 43.0489 437.766 44.8453C438.769 46.6418 440.064 48.0204 441.652 48.9813C443.281 49.9004 444.994 50.36 446.79 50.36C448.629 50.36 450.342 49.9004 451.929 48.9813C453.517 48.0622 454.791 46.7253 455.752 44.9707C456.754 43.1742 457.256 41.0853 457.256 38.704Z" fill="#11243E"/>
<path d="M480.323 26.5467C481.535 24.9591 483.185 23.6222 485.274 22.536C487.363 21.4498 489.723 20.9067 492.355 20.9067C495.363 20.9067 498.1 21.6587 500.565 23.1627C503.071 24.6249 505.035 26.6929 506.455 29.3667C507.876 32.0404 508.586 35.1111 508.586 38.5787C508.586 42.0462 507.876 45.1587 506.455 47.916C505.035 50.6316 503.071 52.7622 500.565 54.308C498.1 55.812 495.363 56.564 492.355 56.564C489.723 56.564 487.384 56.0418 485.337 54.9973C483.289 53.9111 481.618 52.5742 480.323 50.9867V72.4187H473.179V21.4707H480.323V26.5467ZM501.316 38.5787C501.316 36.1973 500.815 34.1502 499.812 32.4373C498.852 30.6827 497.557 29.3667 495.927 28.4893C494.34 27.5702 492.627 27.1107 490.789 27.1107C488.992 27.1107 487.279 27.5702 485.65 28.4893C484.062 29.4084 482.767 30.7453 481.764 32.5C480.804 34.2547 480.323 36.3227 480.323 38.704C480.323 41.0853 480.804 43.1742 481.764 44.9707C482.767 46.7253 484.062 48.0622 485.65 48.9813C487.279 49.9004 488.992 50.36 490.789 50.36C492.627 50.36 494.34 49.9004 495.927 48.9813C497.557 48.0204 498.852 46.6418 499.812 44.8453C500.815 43.0489 501.316 40.96 501.316 38.5787Z" fill="#11243E"/>
<path d="M81 20.8V56H88.5283V28.28H98.7137C104.339 28.28 108.899 32.8109 108.899 38.4V56H116.427V38.4C116.427 28.6798 108.497 20.8 98.7137 20.8H81Z" stroke="#11243E" stroke-width="0.333333"/>
<path fill-rule="evenodd" clip-rule="evenodd" d="M147.177 35.5075C146.455 30.9277 143.646 27.5534 138.028 27.5534C132.81 27.5534 129.199 30.4442 128.237 35.5075H147.177ZM138.911 49.1688C143.325 49.1688 146.535 47.4008 148.462 45.5526L153.197 50.5345C150.066 53.6695 145.734 56 138.992 56C127.434 56 119.97 48.5271 119.97 38.4018C119.97 28.3554 127.836 20.8 137.946 20.8C149.423 20.8 155.924 29.319 155.364 41.1333H128.237C129.199 46.0362 132.73 49.1688 138.911 49.1688Z" stroke="#11243E" stroke-width="0.333333"/>
<path fill-rule="evenodd" clip-rule="evenodd" d="M186.148 35.5075C185.426 30.9277 182.616 27.5534 176.998 27.5534C171.78 27.5534 168.169 30.4442 167.207 35.5075H186.148ZM177.881 49.1688C182.295 49.1688 185.505 47.4008 187.432 45.5526L192.167 50.5345C189.036 53.6695 184.704 56 177.962 56C166.404 56 158.94 48.5271 158.94 38.4018C158.94 28.3554 166.807 20.8 176.916 20.8C188.393 20.8 194.894 29.319 194.334 41.1333H167.207C168.169 46.0362 171.7 49.1688 177.881 49.1688Z" stroke="#11243E" stroke-width="0.333333"/>
<path fill-rule="evenodd" clip-rule="evenodd" d="M197.91 21.1034H203.851V12H211.4V21.1034H218.809V27.9271H211.4V41.7543C211.4 48.0092 212.378 48.9809 218.809 48.9809V56H217.691C207.066 56 203.851 52.6639 203.851 41.8247V27.9271H197.91V21.1034Z" stroke="#11243E" stroke-width="0.333333"/>
<path fill-rule="evenodd" clip-rule="evenodd" d="M250.544 38.4006C250.544 32.4431 245.9 27.5694 240.031 27.5694C234.16 27.5694 229.587 32.4431 229.587 38.4006C229.587 44.3569 234.16 49.2306 240.031 49.2306C245.9 49.2306 250.544 44.3569 250.544 38.4006ZM222.351 38.4006C222.351 28.5172 230.201 20.8 240.031 20.8C249.861 20.8 257.779 28.5172 257.779 38.4006C257.779 48.2155 249.861 56 240.031 56C230.201 56 222.351 48.2155 222.351 38.4006Z" stroke="#11243E" stroke-width="0.333333"/>
<path d="M288.012 33.628C290.352 34.0458 292.336 35.2782 293.965 37.3253C295.595 39.3724 296.409 41.6911 296.409 44.2813C296.409 46.4956 295.824 48.5009 294.655 50.2973C293.527 52.052 291.876 53.4516 289.704 54.496C287.532 55.4987 285.004 56 282.121 56H264.7V12.4467H281.307C284.273 12.4467 286.821 12.948 288.952 13.9507C291.083 14.9533 292.691 16.3111 293.777 18.024C294.864 19.6951 295.407 21.5751 295.407 23.664C295.407 26.1707 294.738 28.2596 293.401 29.9307C292.064 31.6018 290.268 32.8342 288.012 33.628ZM271.844 30.7453H280.68C283.02 30.7453 284.837 30.2231 286.132 29.1787C287.469 28.0924 288.137 26.5467 288.137 24.5413C288.137 22.5778 287.469 21.0529 286.132 19.9667C284.837 18.8387 283.02 18.2747 280.68 18.2747H271.844V30.7453ZM281.495 50.172C283.918 50.172 285.819 49.5871 287.197 48.4173C288.576 47.2476 289.265 45.6182 289.265 43.5293C289.265 41.3987 288.534 39.7067 287.072 38.4533C285.61 37.2 283.667 36.5733 281.244 36.5733H271.844V50.172H281.495Z" stroke="#11243E" stroke-width="0.333333"/>
<path d="M334.777 21.4707V56H327.633V51.9267C326.505 53.3471 325.022 54.4751 323.183 55.3107C321.387 56.1044 319.465 56.5013 317.418 56.5013C314.702 56.5013 312.258 55.9373 310.086 54.8093C307.955 53.6813 306.263 52.0102 305.01 49.796C303.798 47.5818 303.193 44.908 303.193 41.7747V21.4707H310.274V40.7093C310.274 43.8009 311.047 46.1822 312.593 47.8533C314.138 49.4827 316.248 50.2973 318.922 50.2973C321.596 50.2973 323.706 49.4827 325.251 47.8533C326.839 46.1822 327.633 43.8009 327.633 40.7093V21.4707H334.777Z" stroke="#11243E" stroke-width="0.333333"/>
<path d="M357.448 20.9067C360.122 20.9067 362.482 21.4498 364.529 22.536C366.618 23.5804 368.247 24.8964 369.417 26.484V21.4707H376.624V56.564C376.624 59.7391 375.956 62.5591 374.619 65.024C373.282 67.5307 371.339 69.4942 368.791 70.9147C366.284 72.3351 363.276 73.0453 359.767 73.0453C355.087 73.0453 351.202 71.9382 348.111 69.724C345.019 67.5516 343.264 64.5853 342.847 60.8253H349.928C350.471 62.6218 351.62 64.0631 353.375 65.1493C355.171 66.2773 357.302 66.8413 359.767 66.8413C362.649 66.8413 364.968 65.964 366.723 64.2093C368.519 62.4547 369.417 59.9062 369.417 56.564V50.7987C368.206 52.428 366.556 53.8067 364.467 54.9347C362.419 56.0209 360.08 56.564 357.448 56.564C354.44 56.564 351.683 55.812 349.176 54.308C346.711 52.7622 344.747 50.6316 343.285 47.916C341.865 45.1587 341.155 42.0462 341.155 38.5787C341.155 35.1111 341.865 32.0404 343.285 29.3667C344.747 26.6929 346.711 24.6249 349.176 23.1627C351.683 21.6587 354.44 20.9067 357.448 20.9067ZM369.417 38.704C369.417 36.3227 368.916 34.2547 367.913 32.5C366.952 30.7453 365.678 29.4084 364.091 28.4893C362.503 27.5702 360.79 27.1107 358.952 27.1107C357.114 27.1107 355.401 27.5702 353.813 28.4893C352.226 29.3667 350.931 30.6827 349.928 32.4373C348.967 34.1502 348.487 36.1973 348.487 38.5787C348.487 40.96 348.967 43.0489 349.928 44.8453C350.931 46.6418 352.226 48.0204 353.813 48.9813C355.443 49.9004 357.155 50.36 358.952 50.36C360.79 50.36 362.503 49.9004 364.091 48.9813C365.678 48.0622 366.952 46.7253 367.913 44.9707C368.916 43.1742 369.417 41.0853 369.417 38.704Z" stroke="#11243E" stroke-width="0.333333"/>
<path d="M393.675 27.2987V46.412C393.675 47.7071 393.968 48.6471 394.553 49.232C395.179 49.7751 396.224 50.0467 397.686 50.0467H402.073V56H396.433C393.216 56 390.751 55.248 389.038 53.744C387.325 52.24 386.469 49.796 386.469 46.412V27.2987H382.395V21.4707H386.469V12.8853H393.675V21.4707H402.073V27.2987H393.675Z" stroke="#11243E" stroke-width="0.333333"/>
<path d="M415.134 26.484C416.179 24.7293 417.557 23.3716 419.27 22.4107C421.025 21.408 423.093 20.9067 425.474 20.9067V28.3013H423.657C420.858 28.3013 418.727 29.0116 417.265 30.432C415.845 31.8524 415.134 34.3173 415.134 37.8267V56H407.99V21.4707H415.134V26.484Z" stroke="#11243E" stroke-width="0.333333"/>
<path d="M428.993 38.5787C428.993 35.1111 429.703 32.0404 431.124 29.3667C432.586 26.6929 434.55 24.6249 437.014 23.1627C439.521 21.6587 442.279 20.9067 445.286 20.9067C448.002 20.9067 450.362 21.4498 452.368 22.536C454.415 23.5804 456.044 24.8964 457.256 26.484V21.4707H464.462V56H457.256V50.8613C456.044 52.4907 454.394 53.8484 452.305 54.9347C450.216 56.0209 447.835 56.564 445.161 56.564C442.195 56.564 439.479 55.812 437.014 54.308C434.55 52.7622 432.586 50.6316 431.124 47.916C429.703 45.1587 428.993 42.0462 428.993 38.5787ZM457.256 38.704C457.256 36.3227 456.754 34.2547 455.752 32.5C454.791 30.7453 453.517 29.4084 451.929 28.4893C450.342 27.5702 448.629 27.1107 446.79 27.1107C444.952 27.1107 443.239 27.5702 441.652 28.4893C440.064 29.3667 438.769 30.6827 437.766 32.4373C436.806 34.1502 436.325 36.1973 436.325 38.5787C436.325 40.96 436.806 43.0489 437.766 44.8453C438.769 46.6418 440.064 48.0204 441.652 48.9813C443.281 49.9004 444.994 50.36 446.79 50.36C448.629 50.36 450.342 49.9004 451.929 48.9813C453.517 48.0622 454.791 46.7253 455.752 44.9707C456.754 43.1742 457.256 41.0853 457.256 38.704Z" stroke="#11243E" stroke-width="0.333333"/>
<path d="M480.323 26.5467C481.535 24.9591 483.185 23.6222 485.274 22.536C487.363 21.4498 489.723 20.9067 492.355 20.9067C495.363 20.9067 498.1 21.6587 500.565 23.1627C503.071 24.6249 505.035 26.6929 506.455 29.3667C507.876 32.0404 508.586 35.1111 508.586 38.5787C508.586 42.0462 507.876 45.1587 506.455 47.916C505.035 50.6316 503.071 52.7622 500.565 54.308C498.1 55.812 495.363 56.564 492.355 56.564C489.723 56.564 487.384 56.0418 485.337 54.9973C483.289 53.9111 481.618 52.5742 480.323 50.9867V72.4187H473.179V21.4707H480.323V26.5467ZM501.316 38.5787C501.316 36.1973 500.815 34.1502 499.812 32.4373C498.852 30.6827 497.557 29.3667 495.927 28.4893C494.34 27.5702 492.627 27.1107 490.789 27.1107C488.992 27.1107 487.279 27.5702 485.65 28.4893C484.062 29.4084 482.767 30.7453 481.764 32.5C480.804 34.2547 480.323 36.3227 480.323 38.704C480.323 41.0853 480.804 43.1742 481.764 44.9707C482.767 46.7253 484.062 48.0622 485.65 48.9813C487.279 49.9004 488.992 50.36 490.789 50.36C492.627 50.36 494.34 49.9004 495.927 48.9813C497.557 48.0204 498.852 46.6418 499.812 44.8453C500.815 43.0489 501.316 40.96 501.316 38.5787Z" stroke="#11243E" stroke-width="0.333333"/>
<defs>
<filter id="filter0_d_3240_12769" x="17.2546" y="17.2578" width="35.6531" height="36.4449" filterUnits="userSpaceOnUse" color-interpolation-filters="sRGB">
<feFlood flood-opacity="0" result="BackgroundImageFix"/>
<feColorMatrix in="SourceAlpha" type="matrix" values="0 0 0 0 0 0 0 0 0 0 0 0 0 0 0 0 0 0 127 0" result="hardAlpha"/>
<feOffset dx="3" dy="4"/>
<feGaussianBlur stdDeviation="1.5"/>
<feComposite in2="hardAlpha" operator="out"/>
<feColorMatrix type="matrix" values="0 0 0 0 0 0 0 0 0 0 0 0 0 0 0 0 0 0 0.05 0"/>
<feBlend mode="normal" in2="BackgroundImageFix" result="effect1_dropShadow_3240_12769"/>
<feBlend mode="normal" in="SourceGraphic" in2="effect1_dropShadow_3240_12769" result="shape"/>
</filter>
<linearGradient id="paint0_linear_3240_12769" x1="82.2286" y1="95.7714" x2="-19.4286" y2="-21.6571" gradientUnits="userSpaceOnUse">
<stop stop-color="#753BF1"/>
<stop offset="0.696114" stop-color="#8BBAFF"/>
</linearGradient>
</defs>
</svg>
