<svg width="501" height="74" viewBox="0 0 501 74" fill="none" xmlns="http://www.w3.org/2000/svg">
<path d="M56 32C56 18.7452 45.2548 8 32 8H8V56H56V32Z" fill="url(#paint0_linear_3239_12348)"/>
<g filter="url(#filter0_d_3239_12348)">
<path fill-rule="evenodd" clip-rule="evenodd" d="M36.2592 20.7319C34.0873 19.8322 31.6974 19.5968 29.3917 20.0555C27.0861 20.5141 24.9682 21.6461 23.3059 23.3084C21.6436 24.9707 20.5115 27.0886 20.0529 29.3943C19.5943 31.7 19.8297 34.0899 20.7293 36.2618C21.6289 38.4337 23.1524 40.29 25.107 41.5961C27.0617 42.9021 29.3598 43.5992 31.7106 43.5992C32.1361 43.5992 32.4811 43.9442 32.4811 44.3697C32.4811 44.7952 32.1361 45.1402 31.7106 45.1402C29.055 45.1402 26.459 44.3527 24.2509 42.8773C22.0429 41.4019 20.3219 39.3049 19.3056 36.8515C18.2894 34.398 18.0235 31.6983 18.5416 29.0937C19.0597 26.4891 20.3385 24.0966 22.2163 22.2188C24.0941 20.341 26.4865 19.0622 29.0911 18.5441C31.6957 18.0261 34.3954 18.292 36.8489 19.3082C39.3024 20.3245 41.3994 22.0454 42.8748 24.2535C44.3501 26.4616 45.1376 29.0575 45.1376 31.7132C45.1376 32.1387 44.7927 32.4836 44.3672 32.4836C43.9416 32.4836 43.5967 32.1387 43.5967 31.7132C43.5967 29.3623 42.8996 27.0643 41.5935 25.1096C40.2875 23.155 38.4311 21.6315 36.2592 20.7319Z" fill="white"/>
<path fill-rule="evenodd" clip-rule="evenodd" d="M19.0054 27.4941C19.0054 27.0686 19.3504 26.7236 19.7759 26.7236H43.4971C43.9226 26.7236 44.2676 27.0686 44.2676 27.4941C44.2676 27.9196 43.9226 28.2646 43.4971 28.2646H19.7759C19.3504 28.2646 19.0054 27.9196 19.0054 27.4941Z" fill="white"/>
<path fill-rule="evenodd" clip-rule="evenodd" d="M19.0054 35.9316C19.0054 35.5061 19.3504 35.1611 19.7759 35.1611H31.7096C32.1351 35.1611 32.4801 35.5061 32.4801 35.9316C32.4801 36.3571 32.1351 36.7021 31.7096 36.7021H19.7759C19.3504 36.7021 19.0054 36.3571 19.0054 35.9316Z" fill="white"/>
<path fill-rule="evenodd" clip-rule="evenodd" d="M29.8386 18.79C30.4082 18.4606 31.0547 18.2871 31.7127 18.2871C32.3708 18.2871 33.0172 18.4606 33.5869 18.79C34.155 19.1185 34.6267 19.5906 34.9548 20.1589C37.0292 23.6562 38.1187 27.6496 38.1076 31.7159C38.1065 32.1414 37.7606 32.4854 37.3351 32.4842C36.9096 32.4831 36.5656 32.1372 36.5667 31.7117C36.577 27.922 35.5612 24.2002 33.6272 20.9411C33.6254 20.9381 33.6237 20.9351 33.622 20.9322C33.4288 20.5966 33.1507 20.3178 32.8155 20.124C32.4803 19.9301 32.0999 19.828 31.7127 19.828C31.3255 19.828 30.9452 19.9301 30.61 20.124C30.2748 20.3178 29.9966 20.5966 29.8035 20.9322L29.7993 20.9393C27.8737 24.2037 26.8581 27.9245 26.8581 31.7145C26.8581 35.5045 27.8737 39.2252 29.7993 42.4896L29.8025 42.4949C29.9968 42.8305 30.2757 43.1092 30.6114 43.3034C30.9471 43.4975 31.3278 43.6002 31.7156 43.6013C32.1411 43.6024 32.4851 43.9483 32.4839 44.3739C32.4827 44.7994 32.1368 45.1434 31.7113 45.1422C31.0541 45.1404 30.4089 44.9663 29.84 44.6373C29.272 44.3089 28.7999 43.8375 28.4707 43.2701C26.4061 39.7691 25.3171 35.7789 25.3171 31.7145C25.3171 27.6504 26.4059 23.6606 28.4701 20.1598C28.7982 19.5911 29.2702 19.1187 29.8386 18.79Z" fill="white"/>
<path fill-rule="evenodd" clip-rule="evenodd" d="M40.088 45.7141C43.1947 45.7141 45.7132 43.1957 45.7132 40.089C45.7132 36.9823 43.1947 34.4639 40.088 34.4639C36.9813 34.4639 34.4629 36.9823 34.4629 40.089C34.4629 43.1957 36.9813 45.7141 40.088 45.7141ZM37.6312 41.3619C37.9639 41.0292 38.4151 40.8423 38.8856 40.8423H41.4944C41.9649 40.8423 42.4161 41.0292 42.7487 41.3619C43.0814 41.6945 43.2683 42.1457 43.2683 42.6162V43.2684C43.2683 43.5278 43.0581 43.738 42.7988 43.738C42.5394 43.738 42.3292 43.5278 42.3292 43.2684V42.6162C42.3292 42.3948 42.2412 42.1825 42.0847 42.0259C41.9281 41.8694 41.7158 41.7814 41.4944 41.7814H38.8856C38.6642 41.7814 38.4519 41.8694 38.2953 42.0259C38.1388 42.1825 38.0508 42.3948 38.0508 42.6162V43.2684C38.0508 43.5278 37.8406 43.738 37.5812 43.738C37.3219 43.738 37.1117 43.5278 37.1117 43.2684V42.6162C37.1117 42.1457 37.2986 41.6945 37.6312 41.3619ZM39.3551 38.5197C39.3551 38.0587 39.7288 37.6849 40.1899 37.6849C40.6509 37.6849 41.0247 38.0587 41.0247 38.5197C41.0247 38.9808 40.6509 39.3545 40.1899 39.3545C39.7288 39.3545 39.3551 38.9808 39.3551 38.5197ZM40.1899 36.7458C39.2101 36.7458 38.4159 37.54 38.4159 38.5197C38.4159 39.4995 39.2101 40.2937 40.1899 40.2937C41.1696 40.2937 41.9638 39.4995 41.9638 38.5197C41.9638 37.54 41.1696 36.7458 40.1899 36.7458Z" fill="white"/>
</g>
<path d="M80 20.8V56H87.5283V28.28H97.7137C103.339 28.28 107.899 32.8109 107.899 38.4V56H115.427V38.4C115.427 28.6798 107.497 20.8 97.7137 20.8H80Z" fill="#11243E"/>
<path fill-rule="evenodd" clip-rule="evenodd" d="M146.177 35.5075C145.455 30.9277 142.646 27.5534 137.028 27.5534C131.81 27.5534 128.199 30.4442 127.237 35.5075H146.177ZM137.911 49.1688C142.325 49.1688 145.535 47.4008 147.462 45.5526L152.197 50.5345C149.066 53.6695 144.734 56 137.992 56C126.434 56 118.97 48.5271 118.97 38.4018C118.97 28.3554 126.836 20.8 136.946 20.8C148.423 20.8 154.924 29.319 154.364 41.1333H127.237C128.199 46.0362 131.73 49.1688 137.911 49.1688Z" fill="#11243E"/>
<path fill-rule="evenodd" clip-rule="evenodd" d="M185.148 35.5075C184.426 30.9277 181.616 27.5534 175.998 27.5534C170.78 27.5534 167.169 30.4442 166.207 35.5075H185.148ZM176.881 49.1688C181.295 49.1688 184.505 47.4008 186.432 45.5526L191.167 50.5345C188.036 53.6695 183.704 56 176.962 56C165.404 56 157.94 48.5271 157.94 38.4018C157.94 28.3554 165.807 20.8 175.916 20.8C187.393 20.8 193.894 29.319 193.334 41.1333H166.207C167.169 46.0362 170.7 49.1688 176.881 49.1688Z" fill="#11243E"/>
<path fill-rule="evenodd" clip-rule="evenodd" d="M196.91 21.1034H202.851V12H210.4V21.1034H217.809V27.9271H210.4V41.7543C210.4 48.0092 211.378 48.9809 217.809 48.9809V56H216.691C206.066 56 202.851 52.6639 202.851 41.8247V27.9271H196.91V21.1034Z" fill="#11243E"/>
<path fill-rule="evenodd" clip-rule="evenodd" d="M249.544 38.4006C249.544 32.4431 244.9 27.5694 239.031 27.5694C233.16 27.5694 228.587 32.4431 228.587 38.4006C228.587 44.3569 233.16 49.2306 239.031 49.2306C244.9 49.2306 249.544 44.3569 249.544 38.4006ZM221.351 38.4006C221.351 28.5172 229.201 20.8 239.031 20.8C248.861 20.8 256.779 28.5172 256.779 38.4006C256.779 48.2155 248.861 56 239.031 56C229.201 56 221.351 48.2155 221.351 38.4006Z" fill="#11243E"/>
<path d="M270.844 18.212V30.996H285.884V36.824H270.844V50.172H287.764V56H263.7V12.384H287.764V18.212H270.844Z" fill="#11243E"/>
<path d="M313.318 20.9067C316.034 20.9067 318.457 21.4707 320.587 22.5987C322.76 23.7267 324.452 25.3978 325.663 27.612C326.875 29.8262 327.481 32.5 327.481 35.6333V56H320.399V36.6987C320.399 33.6071 319.626 31.2467 318.081 29.6173C316.535 27.9462 314.425 27.1107 311.751 27.1107C309.077 27.1107 306.947 27.9462 305.359 29.6173C303.814 31.2467 303.041 33.6071 303.041 36.6987V56H295.897V21.4707H303.041V25.4187C304.21 23.9982 305.693 22.8911 307.49 22.0973C309.328 21.3036 311.271 20.9067 313.318 20.9067Z" fill="#11243E"/>
<path d="M349.839 20.9067C352.512 20.9067 354.873 21.4498 356.92 22.536C359.009 23.5804 360.638 24.8964 361.808 26.484V21.4707H369.015V56.564C369.015 59.7391 368.346 62.5591 367.009 65.024C365.672 67.5307 363.73 69.4942 361.181 70.9147C358.675 72.3351 355.667 73.0453 352.157 73.0453C347.478 73.0453 343.593 71.9382 340.501 69.724C337.41 67.5516 335.655 64.5853 335.237 60.8253H342.319C342.862 62.6218 344.011 64.0631 345.765 65.1493C347.562 66.2773 349.692 66.8413 352.157 66.8413C355.04 66.8413 357.359 65.964 359.113 64.2093C360.91 62.4547 361.808 59.9062 361.808 56.564V50.7987C360.596 52.428 358.946 53.8067 356.857 54.9347C354.81 56.0209 352.471 56.564 349.839 56.564C346.831 56.564 344.073 55.812 341.567 54.308C339.102 52.7622 337.138 50.6316 335.676 47.916C334.255 45.1587 333.545 42.0462 333.545 38.5787C333.545 35.1111 334.255 32.0404 335.676 29.3667C337.138 26.6929 339.102 24.6249 341.567 23.1627C344.073 21.6587 346.831 20.9067 349.839 20.9067ZM361.808 38.704C361.808 36.3227 361.307 34.2547 360.304 32.5C359.343 30.7453 358.069 29.4084 356.481 28.4893C354.894 27.5702 353.181 27.1107 351.343 27.1107C349.504 27.1107 347.791 27.5702 346.204 28.4893C344.616 29.3667 343.321 30.6827 342.319 32.4373C341.358 34.1502 340.877 36.1973 340.877 38.5787C340.877 40.96 341.358 43.0489 342.319 44.8453C343.321 46.6418 344.616 48.0204 346.204 48.9813C347.833 49.9004 349.546 50.36 351.343 50.36C353.181 50.36 354.894 49.9004 356.481 48.9813C358.069 48.0622 359.343 46.7253 360.304 44.9707C361.307 43.1742 361.808 41.0853 361.808 38.704Z" fill="#11243E"/>
<path d="M375.35 38.5787C375.35 35.1111 376.06 32.0404 377.481 29.3667C378.943 26.6929 380.906 24.6249 383.371 23.1627C385.878 21.6587 388.635 20.9067 391.643 20.9067C394.359 20.9067 396.719 21.4498 398.725 22.536C400.772 23.5804 402.401 24.8964 403.613 26.484V21.4707H410.819V56H403.613V50.8613C402.401 52.4907 400.751 53.8484 398.662 54.9347C396.573 56.0209 394.192 56.564 391.518 56.564C388.552 56.564 385.836 55.812 383.371 54.308C380.906 52.7622 378.943 50.6316 377.481 47.916C376.06 45.1587 375.35 42.0462 375.35 38.5787ZM403.613 38.704C403.613 36.3227 403.111 34.2547 402.109 32.5C401.148 30.7453 399.873 29.4084 398.286 28.4893C396.698 27.5702 394.985 27.1107 393.147 27.1107C391.309 27.1107 389.596 27.5702 388.009 28.4893C386.421 29.3667 385.126 30.6827 384.123 32.4373C383.162 34.1502 382.682 36.1973 382.682 38.5787C382.682 40.96 383.162 43.0489 384.123 44.8453C385.126 46.6418 386.421 48.0204 388.009 48.9813C389.638 49.9004 391.351 50.36 393.147 50.36C394.985 50.36 396.698 49.9004 398.286 48.9813C399.873 48.0622 401.148 46.7253 402.109 44.9707C403.111 43.1742 403.613 41.0853 403.613 38.704Z" fill="#11243E"/>
<path d="M433.448 20.9067C436.122 20.9067 438.482 21.4498 440.529 22.536C442.618 23.5804 444.247 24.8964 445.417 26.484V21.4707H452.624V56.564C452.624 59.7391 451.956 62.5591 450.619 65.024C449.282 67.5307 447.339 69.4942 444.791 70.9147C442.284 72.3351 439.276 73.0453 435.767 73.0453C431.087 73.0453 427.202 71.9382 424.111 69.724C421.019 67.5516 419.264 64.5853 418.847 60.8253H425.928C426.471 62.6218 427.62 64.0631 429.375 65.1493C431.171 66.2773 433.302 66.8413 435.767 66.8413C438.649 66.8413 440.968 65.964 442.723 64.2093C444.519 62.4547 445.417 59.9062 445.417 56.564V50.7987C444.206 52.428 442.556 53.8067 440.467 54.9347C438.419 56.0209 436.08 56.564 433.448 56.564C430.44 56.564 427.683 55.812 425.176 54.308C422.711 52.7622 420.747 50.6316 419.285 47.916C417.865 45.1587 417.155 42.0462 417.155 38.5787C417.155 35.1111 417.865 32.0404 419.285 29.3667C420.747 26.6929 422.711 24.6249 425.176 23.1627C427.683 21.6587 430.44 20.9067 433.448 20.9067ZM445.417 38.704C445.417 36.3227 444.916 34.2547 443.913 32.5C442.952 30.7453 441.678 29.4084 440.091 28.4893C438.503 27.5702 436.79 27.1107 434.952 27.1107C433.114 27.1107 431.401 27.5702 429.813 28.4893C428.226 29.3667 426.931 30.6827 425.928 32.4373C424.967 34.1502 424.487 36.1973 424.487 38.5787C424.487 40.96 424.967 43.0489 425.928 44.8453C426.931 46.6418 428.226 48.0204 429.813 48.9813C431.443 49.9004 433.155 50.36 434.952 50.36C436.79 50.36 438.503 49.9004 440.091 48.9813C441.678 48.0622 442.952 46.7253 443.913 44.9707C444.916 43.1742 445.417 41.0853 445.417 38.704Z" fill="#11243E"/>
<path d="M492.987 37.8893C492.987 39.1844 492.904 40.3542 492.737 41.3987H466.354C466.563 44.156 467.586 46.3702 469.425 48.0413C471.263 49.7124 473.519 50.548 476.193 50.548C480.036 50.548 482.752 48.9396 484.339 45.7227H492.047C491.003 48.8978 489.102 51.5089 486.345 53.556C483.629 55.5613 480.245 56.564 476.193 56.564C472.892 56.564 469.926 55.8329 467.294 54.3707C464.704 52.8667 462.657 50.7778 461.153 48.104C459.69 45.3884 458.959 42.2551 458.959 38.704C458.959 35.1529 459.67 32.0404 461.09 29.3667C462.552 26.6511 464.578 24.5622 467.169 23.1C469.801 21.6378 472.809 20.9067 476.193 20.9067C479.451 20.9067 482.355 21.6169 484.903 23.0373C487.452 24.4578 489.436 26.4631 490.857 29.0533C492.277 31.6018 492.987 34.5471 492.987 37.8893ZM485.53 35.6333C485.488 33.0013 484.548 30.8916 482.71 29.304C480.872 27.7164 478.595 26.9227 475.879 26.9227C473.414 26.9227 471.305 27.7164 469.55 29.304C467.795 30.8498 466.751 32.9596 466.417 35.6333H485.53Z" fill="#11243E"/>
<path d="M80 20.8V56H87.5283V28.28H97.7137C103.339 28.28 107.899 32.8109 107.899 38.4V56H115.427V38.4C115.427 28.6798 107.497 20.8 97.7137 20.8H80Z" stroke="#11243E" stroke-width="0.333333"/>
<path fill-rule="evenodd" clip-rule="evenodd" d="M146.177 35.5075C145.455 30.9277 142.646 27.5534 137.028 27.5534C131.81 27.5534 128.199 30.4442 127.237 35.5075H146.177ZM137.911 49.1688C142.325 49.1688 145.535 47.4008 147.462 45.5526L152.197 50.5345C149.066 53.6695 144.734 56 137.992 56C126.434 56 118.97 48.5271 118.97 38.4018C118.97 28.3554 126.836 20.8 136.946 20.8C148.423 20.8 154.924 29.319 154.364 41.1333H127.237C128.199 46.0362 131.73 49.1688 137.911 49.1688Z" stroke="#11243E" stroke-width="0.333333"/>
<path fill-rule="evenodd" clip-rule="evenodd" d="M185.148 35.5075C184.426 30.9277 181.616 27.5534 175.998 27.5534C170.78 27.5534 167.169 30.4442 166.207 35.5075H185.148ZM176.881 49.1688C181.295 49.1688 184.505 47.4008 186.432 45.5526L191.167 50.5345C188.036 53.6695 183.704 56 176.962 56C165.404 56 157.94 48.5271 157.94 38.4018C157.94 28.3554 165.807 20.8 175.916 20.8C187.393 20.8 193.894 29.319 193.334 41.1333H166.207C167.169 46.0362 170.7 49.1688 176.881 49.1688Z" stroke="#11243E" stroke-width="0.333333"/>
<path fill-rule="evenodd" clip-rule="evenodd" d="M196.91 21.1034H202.851V12H210.4V21.1034H217.809V27.9271H210.4V41.7543C210.4 48.0092 211.378 48.9809 217.809 48.9809V56H216.691C206.066 56 202.851 52.6639 202.851 41.8247V27.9271H196.91V21.1034Z" stroke="#11243E" stroke-width="0.333333"/>
<path fill-rule="evenodd" clip-rule="evenodd" d="M249.544 38.4006C249.544 32.4431 244.9 27.5694 239.031 27.5694C233.16 27.5694 228.587 32.4431 228.587 38.4006C228.587 44.3569 233.16 49.2306 239.031 49.2306C244.9 49.2306 249.544 44.3569 249.544 38.4006ZM221.351 38.4006C221.351 28.5172 229.201 20.8 239.031 20.8C248.861 20.8 256.779 28.5172 256.779 38.4006C256.779 48.2155 248.861 56 239.031 56C229.201 56 221.351 48.2155 221.351 38.4006Z" stroke="#11243E" stroke-width="0.333333"/>
<path d="M270.844 18.212V30.996H285.884V36.824H270.844V50.172H287.764V56H263.7V12.384H287.764V18.212H270.844Z" stroke="#11243E" stroke-width="0.333333"/>
<path d="M313.318 20.9067C316.034 20.9067 318.457 21.4707 320.587 22.5987C322.76 23.7267 324.452 25.3978 325.663 27.612C326.875 29.8262 327.481 32.5 327.481 35.6333V56H320.399V36.6987C320.399 33.6071 319.626 31.2467 318.081 29.6173C316.535 27.9462 314.425 27.1107 311.751 27.1107C309.077 27.1107 306.947 27.9462 305.359 29.6173C303.814 31.2467 303.041 33.6071 303.041 36.6987V56H295.897V21.4707H303.041V25.4187C304.21 23.9982 305.693 22.8911 307.49 22.0973C309.328 21.3036 311.271 20.9067 313.318 20.9067Z" stroke="#11243E" stroke-width="0.333333"/>
<path d="M349.839 20.9067C352.512 20.9067 354.873 21.4498 356.92 22.536C359.009 23.5804 360.638 24.8964 361.808 26.484V21.4707H369.015V56.564C369.015 59.7391 368.346 62.5591 367.009 65.024C365.672 67.5307 363.73 69.4942 361.181 70.9147C358.675 72.3351 355.667 73.0453 352.157 73.0453C347.478 73.0453 343.593 71.9382 340.501 69.724C337.41 67.5516 335.655 64.5853 335.237 60.8253H342.319C342.862 62.6218 344.011 64.0631 345.765 65.1493C347.562 66.2773 349.692 66.8413 352.157 66.8413C355.04 66.8413 357.359 65.964 359.113 64.2093C360.91 62.4547 361.808 59.9062 361.808 56.564V50.7987C360.596 52.428 358.946 53.8067 356.857 54.9347C354.81 56.0209 352.471 56.564 349.839 56.564C346.831 56.564 344.073 55.812 341.567 54.308C339.102 52.7622 337.138 50.6316 335.676 47.916C334.255 45.1587 333.545 42.0462 333.545 38.5787C333.545 35.1111 334.255 32.0404 335.676 29.3667C337.138 26.6929 339.102 24.6249 341.567 23.1627C344.073 21.6587 346.831 20.9067 349.839 20.9067ZM361.808 38.704C361.808 36.3227 361.307 34.2547 360.304 32.5C359.343 30.7453 358.069 29.4084 356.481 28.4893C354.894 27.5702 353.181 27.1107 351.343 27.1107C349.504 27.1107 347.791 27.5702 346.204 28.4893C344.616 29.3667 343.321 30.6827 342.319 32.4373C341.358 34.1502 340.877 36.1973 340.877 38.5787C340.877 40.96 341.358 43.0489 342.319 44.8453C343.321 46.6418 344.616 48.0204 346.204 48.9813C347.833 49.9004 349.546 50.36 351.343 50.36C353.181 50.36 354.894 49.9004 356.481 48.9813C358.069 48.0622 359.343 46.7253 360.304 44.9707C361.307 43.1742 361.808 41.0853 361.808 38.704Z" stroke="#11243E" stroke-width="0.333333"/>
<path d="M375.35 38.5787C375.35 35.1111 376.06 32.0404 377.481 29.3667C378.943 26.6929 380.906 24.6249 383.371 23.1627C385.878 21.6587 388.635 20.9067 391.643 20.9067C394.359 20.9067 396.719 21.4498 398.725 22.536C400.772 23.5804 402.401 24.8964 403.613 26.484V21.4707H410.819V56H403.613V50.8613C402.401 52.4907 400.751 53.8484 398.662 54.9347C396.573 56.0209 394.192 56.564 391.518 56.564C388.552 56.564 385.836 55.812 383.371 54.308C380.906 52.7622 378.943 50.6316 377.481 47.916C376.06 45.1587 375.35 42.0462 375.35 38.5787ZM403.613 38.704C403.613 36.3227 403.111 34.2547 402.109 32.5C401.148 30.7453 399.873 29.4084 398.286 28.4893C396.698 27.5702 394.985 27.1107 393.147 27.1107C391.309 27.1107 389.596 27.5702 388.009 28.4893C386.421 29.3667 385.126 30.6827 384.123 32.4373C383.162 34.1502 382.682 36.1973 382.682 38.5787C382.682 40.96 383.162 43.0489 384.123 44.8453C385.126 46.6418 386.421 48.0204 388.009 48.9813C389.638 49.9004 391.351 50.36 393.147 50.36C394.985 50.36 396.698 49.9004 398.286 48.9813C399.873 48.0622 401.148 46.7253 402.109 44.9707C403.111 43.1742 403.613 41.0853 403.613 38.704Z" stroke="#11243E" stroke-width="0.333333"/>
<path d="M433.448 20.9067C436.122 20.9067 438.482 21.4498 440.529 22.536C442.618 23.5804 444.247 24.8964 445.417 26.484V21.4707H452.624V56.564C452.624 59.7391 451.956 62.5591 450.619 65.024C449.282 67.5307 447.339 69.4942 444.791 70.9147C442.284 72.3351 439.276 73.0453 435.767 73.0453C431.087 73.0453 427.202 71.9382 424.111 69.724C421.019 67.5516 419.264 64.5853 418.847 60.8253H425.928C426.471 62.6218 427.62 64.0631 429.375 65.1493C431.171 66.2773 433.302 66.8413 435.767 66.8413C438.649 66.8413 440.968 65.964 442.723 64.2093C444.519 62.4547 445.417 59.9062 445.417 56.564V50.7987C444.206 52.428 442.556 53.8067 440.467 54.9347C438.419 56.0209 436.08 56.564 433.448 56.564C430.44 56.564 427.683 55.812 425.176 54.308C422.711 52.7622 420.747 50.6316 419.285 47.916C417.865 45.1587 417.155 42.0462 417.155 38.5787C417.155 35.1111 417.865 32.0404 419.285 29.3667C420.747 26.6929 422.711 24.6249 425.176 23.1627C427.683 21.6587 430.44 20.9067 433.448 20.9067ZM445.417 38.704C445.417 36.3227 444.916 34.2547 443.913 32.5C442.952 30.7453 441.678 29.4084 440.091 28.4893C438.503 27.5702 436.79 27.1107 434.952 27.1107C433.114 27.1107 431.401 27.5702 429.813 28.4893C428.226 29.3667 426.931 30.6827 425.928 32.4373C424.967 34.1502 424.487 36.1973 424.487 38.5787C424.487 40.96 424.967 43.0489 425.928 44.8453C426.931 46.6418 428.226 48.0204 429.813 48.9813C431.443 49.9004 433.155 50.36 434.952 50.36C436.79 50.36 438.503 49.9004 440.091 48.9813C441.678 48.0622 442.952 46.7253 443.913 44.9707C444.916 43.1742 445.417 41.0853 445.417 38.704Z" stroke="#11243E" stroke-width="0.333333"/>
<path d="M492.987 37.8893C492.987 39.1844 492.904 40.3542 492.737 41.3987H466.354C466.563 44.156 467.586 46.3702 469.425 48.0413C471.263 49.7124 473.519 50.548 476.193 50.548C480.036 50.548 482.752 48.9396 484.339 45.7227H492.047C491.003 48.8978 489.102 51.5089 486.345 53.556C483.629 55.5613 480.245 56.564 476.193 56.564C472.892 56.564 469.926 55.8329 467.294 54.3707C464.704 52.8667 462.657 50.7778 461.153 48.104C459.69 45.3884 458.959 42.2551 458.959 38.704C458.959 35.1529 459.67 32.0404 461.09 29.3667C462.552 26.6511 464.578 24.5622 467.169 23.1C469.801 21.6378 472.809 20.9067 476.193 20.9067C479.451 20.9067 482.355 21.6169 484.903 23.0373C487.452 24.4578 489.436 26.4631 490.857 29.0533C492.277 31.6018 492.987 34.5471 492.987 37.8893ZM485.53 35.6333C485.488 33.0013 484.548 30.8916 482.71 29.304C480.872 27.7164 478.595 26.9227 475.879 26.9227C473.414 26.9227 471.305 27.7164 469.55 29.304C467.795 30.8498 466.751 32.9596 466.417 35.6333H485.53Z" stroke="#11243E" stroke-width="0.333333"/>
<defs>
<filter id="filter0_d_3239_12348" x="18.2836" y="18.2861" width="28.2386" height="28.3718" filterUnits="userSpaceOnUse" color-interpolation-filters="sRGB">
<feFlood flood-opacity="0" result="BackgroundImageFix"/>
<feColorMatrix in="SourceAlpha" type="matrix" values="0 0 0 0 0 0 0 0 0 0 0 0 0 0 0 0 0 0 127 0" result="hardAlpha"/>
<feOffset dx="0.4045" dy="0.539333"/>
<feGaussianBlur stdDeviation="0.20225"/>
<feComposite in2="hardAlpha" operator="out"/>
<feColorMatrix type="matrix" values="0 0 0 0 0 0 0 0 0 0 0 0 0 0 0 0 0 0 0.05 0"/>
<feBlend mode="normal" in2="BackgroundImageFix" result="effect1_dropShadow_3239_12348"/>
<feBlend mode="normal" in="SourceGraphic" in2="effect1_dropShadow_3239_12348" result="shape"/>
</filter>
<linearGradient id="paint0_linear_3239_12348" x1="57.8857" y1="83.2571" x2="11.0857" y2="-2.28571" gradientUnits="userSpaceOnUse">
<stop stop-color="#96BAFF"/>
<stop offset="1" stop-color="#10AADB"/>
</linearGradient>
</defs>
</svg>
