<svg width="95" height="25" viewBox="0 0 95 25" fill="none" xmlns="http://www.w3.org/2000/svg">
  <path d="M9.70273 5.45563H0.665391L5.13703 9.92727H9.70273C12.5803 9.92727 14.9104 12.2459 14.9104 15.1028V24.75H19.4055V15.1028C19.4055 9.77339 15.06 5.45563 9.70273 5.45563Z" fill="#0043AC"/>
  <path d="M4.49505 10.5782L0 6.08317V24.75H4.49505V10.5782Z" fill="#0043AC"/>
  <path fill-rule="evenodd" clip-rule="evenodd" d="M39.1501 21.5956L36.2978 18.5932L36.1268 18.7573C35.137 19.7075 33.4782 20.6253 31.1857 20.6253C29.5739 20.6253 28.3315 20.217 27.4334 19.5105C26.6036 18.8578 26.0491 17.9361 25.774 16.8003H40.2039L40.2146 16.5756C40.3663 13.3728 39.5624 10.5923 37.9185 8.60835C36.2711 6.62014 33.7995 5.45563 30.67 5.45563C25.1429 5.45563 20.8273 9.59543 20.8273 15.1038C20.8273 17.871 21.8478 20.2871 23.6675 22.0106C25.4867 23.7336 28.089 24.75 31.2291 24.75C34.8964 24.75 37.2715 23.4777 38.9878 21.7582L39.1501 21.5956ZM30.714 9.53873C32.1654 9.53873 33.2299 9.97337 33.978 10.6824C34.671 11.3393 35.1115 12.2499 35.3225 13.3202H25.7721C26.0476 12.1478 26.6087 11.2325 27.393 10.5975C28.2392 9.91241 29.3637 9.53873 30.714 9.53873Z" fill="#0043AC"/>
  <path fill-rule="evenodd" clip-rule="evenodd" d="M59.9774 21.5956L57.125 18.5932L56.9541 18.7573C55.9642 19.7075 54.3055 20.6253 52.013 20.6253C50.4012 20.6253 49.1588 20.217 48.2606 19.5105C47.4309 18.8578 46.8764 17.9361 46.6013 16.8003H61.0312L61.0418 16.5756C61.1935 13.3728 60.3896 10.5923 58.7457 8.60835C57.0983 6.62014 54.6268 5.45563 51.4973 5.45563C45.9701 5.45563 41.6545 9.59543 41.6545 15.1038C41.6545 17.871 42.675 20.2871 44.4948 22.0106C46.3139 23.7336 48.9162 24.75 52.0563 24.75C55.7236 24.75 58.0988 23.4777 59.815 21.7582L59.9774 21.5956ZM51.5412 9.53873C52.9926 9.53873 54.0572 9.97337 54.8052 10.6824C55.4983 11.3393 55.9387 12.2499 56.1498 13.3202H46.5993C46.8748 12.1478 47.4359 11.2325 48.2202 10.5975C49.0665 9.91241 50.1909 9.53873 51.5412 9.53873Z" fill="#0043AC"/>
  <path d="M65.6565 5.61789H62.4818V9.73859H65.6565V16.9341C65.6565 19.8395 66.0832 21.8201 67.2924 23.0622C68.5034 24.3063 70.4404 24.75 73.2891 24.75H74.1222V20.5248H73.8864C73.0295 20.5248 72.3711 20.4921 71.8618 20.3955C71.3545 20.2993 71.0173 20.1436 70.7828 19.9141C70.5489 19.6853 70.3912 19.3578 70.2938 18.8655C70.1959 18.3704 70.163 17.7303 70.163 16.8965V9.73859H74.1222V5.61789H70.163V0.75H65.6565V5.61789Z" fill="#0043AC"/>
  <path fill-rule="evenodd" clip-rule="evenodd" d="M85.2286 5.45563C79.8468 5.45563 75.544 9.68602 75.544 15.1031C75.544 20.483 79.8463 24.75 85.2286 24.75C90.6097 24.75 94.9495 20.4842 94.9495 15.1031C94.9495 9.68484 90.6091 5.45563 85.2286 5.45563ZM85.2286 9.54727C88.2274 9.54727 90.6111 12.0398 90.6111 15.1031C90.6111 18.1658 88.2274 20.6584 85.2286 20.6584C82.2311 20.6584 79.8824 18.1679 79.8824 15.1031C79.8824 12.0377 82.2311 9.54727 85.2286 9.54727Z" fill="#0043AC"/>
</svg>
