<svg xmlns="http://www.w3.org/2000/svg" width="343" height="64" fill="none" viewBox="0 0 343 64"><path fill="url(#paint0_linear_3239_11075)" d="M56 32C56 18.7452 45.2548 8 32 8H8V56H56V32Z"/><path fill="#fff" d="M25.0473 22.4593C24.457 22.5829 23.7542 23.0907 23.271 23.7386C23.0569 24.0242 22.8043 24.5485 22.7055 24.8999L22.6313 25.1717V33.8607V42.5498L22.7082 42.7914C23.0349 43.8373 24.0205 44.8119 25.1516 45.2073L25.4041 45.2951L28.9511 45.3033L32.4981 45.3088L33.8104 43.9444C34.5352 43.1922 35.5784 42.1078 36.1302 41.534C36.682 40.9602 37.1295 40.488 37.1268 40.4825C37.1213 40.477 37.0691 40.499 37.0115 40.5264C36.9538 40.5566 36.833 40.6033 36.7424 40.6335C36.5859 40.6802 36.3636 40.6829 31.7734 40.6829C26.5297 40.6829 26.8427 40.6912 26.4886 40.521C26.236 40.4002 25.9505 40.1119 25.8214 39.8456C25.6128 39.4201 25.6183 38.9149 25.8352 38.4729C26.0081 38.116 26.4419 37.7646 26.818 37.6795C26.9004 37.6603 28.5476 37.6493 31.7459 37.6493C37.0307 37.6493 36.682 37.6383 37.0389 37.8168C37.2613 37.9293 37.5715 38.2396 37.6841 38.4619C37.8186 38.7282 37.8625 38.9396 37.8461 39.2416C37.8351 39.4887 37.8186 39.5546 37.6758 39.9142C37.6621 39.9499 37.6621 39.9609 37.6813 39.9417C37.6951 39.9252 38.0657 39.5436 38.5022 39.0906C38.9387 38.6376 39.6635 37.8854 40.1137 37.4215L40.9291 36.5759V32.543V28.5101L38.9469 28.4991C37.0444 28.4908 36.9538 28.4881 36.7671 28.4332C35.8118 28.1587 35.1611 27.3653 34.8838 26.1408C34.8289 25.8992 34.8234 25.7922 34.8152 24.1477L34.8042 22.4126L30.0218 22.4154C25.8983 22.4181 25.212 22.4236 25.0473 22.4593ZM36.715 31.5958C37.1158 31.7002 37.5139 32.0296 37.6978 32.4057C37.9751 32.9713 37.89 33.6246 37.4782 34.0776C37.2915 34.2835 37.0938 34.4153 36.822 34.5114L36.6052 34.5883H31.7459H26.8866L26.6917 34.5169C25.8873 34.2231 25.492 33.4133 25.7501 32.5869C25.8901 32.1339 26.3431 31.7029 26.7988 31.5931C26.9113 31.5656 27.9985 31.5601 31.7459 31.5574C35.9792 31.5547 36.5722 31.5601 36.715 31.5958Z"/><path fill="#fff" d="M36.3505 24.0374C36.3615 25.6105 36.3615 25.6737 36.4219 25.8796C36.5674 26.3984 36.8804 26.8322 37.1714 26.9146C37.2263 26.931 37.9922 26.942 39.1014 26.942H40.9353L40.9243 26.5879C40.9133 26.2474 40.9105 26.2282 40.8145 26.0333C40.5784 25.5584 39.8261 24.7814 38.4837 23.6311C37.3498 22.6593 36.9463 22.4122 36.4878 22.4122H36.3423L36.3505 24.0374Z"/><path fill="#fff" d="M42.6429 37.227C42.5166 37.2709 42.2833 37.4493 41.9401 37.765L41.7095 37.9764L42.7253 38.995C43.2826 39.5523 43.7548 40.0107 43.7712 40.0107C43.7904 40.0107 43.9387 39.8762 44.1007 39.7088C44.4383 39.3711 44.5784 39.1487 44.5784 38.9593C44.5756 38.5008 44.3148 37.9984 43.8756 37.6003C43.6477 37.3944 43.4885 37.3066 43.2167 37.2379C42.9723 37.1748 42.7994 37.1721 42.6429 37.227Z"/><path fill="#fff" d="M39.7728 39.8929C39.1661 40.4941 38.002 41.6636 37.1839 42.4955C35.4653 44.2415 35.5861 44.0795 35.3006 44.98C35.0645 45.724 34.9712 46.1084 34.952 46.3801C34.9382 46.6053 34.941 46.619 35.0069 46.6959C35.07 46.7727 35.092 46.7782 35.2512 46.7755C35.4763 46.7727 36.1023 46.619 36.7364 46.4049C37.3459 46.2044 37.6177 46.0754 37.8675 45.8832C37.9746 45.8009 39.1578 44.6314 40.5031 43.2834L42.9464 40.8345L41.9306 39.8188C41.3733 39.2587 40.9066 38.803 40.8956 38.803C40.8847 38.803 40.3795 39.2944 39.7728 39.8929Z"/><path fill="#11243E" d="M80 20.6334V55.8334H87.5283V28.1134H97.7137C103.339 28.1134 107.899 32.6443 107.899 38.2334V55.8334H115.427V38.2334C115.427 28.5132 107.497 20.6334 97.7137 20.6334H80Z"/><path fill="#11243E" fill-rule="evenodd" d="M146.177 35.3408C145.455 30.7611 142.646 27.3868 137.028 27.3868C131.81 27.3868 128.199 30.2775 127.237 35.3408H146.177ZM137.911 49.0021C142.325 49.0021 145.535 47.2342 147.462 45.386L152.197 50.3679C149.066 53.5028 144.734 55.8334 137.992 55.8334C126.434 55.8334 118.97 48.3605 118.97 38.2351C118.97 28.1888 126.836 20.6334 136.946 20.6334C148.423 20.6334 154.924 29.1524 154.364 40.9667H127.237C128.199 45.8696 131.73 49.0021 137.911 49.0021Z" clip-rule="evenodd"/><path fill="#11243E" fill-rule="evenodd" d="M185.148 35.3408C184.426 30.7611 181.616 27.3868 175.998 27.3868C170.78 27.3868 167.169 30.2775 166.207 35.3408H185.148ZM176.881 49.0021C181.295 49.0021 184.505 47.2342 186.432 45.386L191.167 50.3679C188.036 53.5028 183.704 55.8334 176.962 55.8334C165.404 55.8334 157.94 48.3605 157.94 38.2351C157.94 28.1888 165.807 20.6334 175.916 20.6334C187.393 20.6334 193.894 29.1524 193.334 40.9667H166.207C167.169 45.8696 170.7 49.0021 176.881 49.0021Z" clip-rule="evenodd"/><path fill="#11243E" fill-rule="evenodd" d="M196.91 20.9368H202.851V11.8334H210.4V20.9368H217.809V27.7605H210.4V41.5877C210.4 47.8425 211.378 48.8143 217.809 48.8143V55.8334H216.691C206.066 55.8334 202.851 52.4973 202.851 41.658V27.7605H196.91V20.9368Z" clip-rule="evenodd"/><path fill="#11243E" fill-rule="evenodd" d="M249.544 38.234C249.544 32.2765 244.9 27.4027 239.031 27.4027C233.16 27.4027 228.587 32.2765 228.587 38.234C228.587 44.1903 233.16 49.064 239.031 49.064C244.9 49.064 249.544 44.1903 249.544 38.234ZM221.351 38.234C221.351 28.3505 229.201 20.6334 239.031 20.6334C248.861 20.6334 256.779 28.3505 256.779 38.234C256.779 48.0488 248.861 55.8334 239.031 55.8334C229.201 55.8334 221.351 48.0488 221.351 38.234Z" clip-rule="evenodd"/><path fill="#11243E" d="M287.701 55.8334L270.844 36.344V55.8334H263.7V12.28H270.844V32.1454L287.764 12.28H296.725L277.8 34.088L297.039 55.8334H287.701Z"/><path fill="#11243E" d="M326.002 33.4614C328.341 33.8792 330.326 35.1116 331.955 37.1587C333.584 39.2058 334.399 41.5245 334.399 44.1147C334.399 46.3289 333.814 48.3343 332.644 50.1307C331.516 51.8854 329.866 53.2849 327.694 54.3294C325.521 55.332 322.994 55.8334 320.111 55.8334H302.69V12.28H319.296C322.262 12.28 324.811 12.7814 326.942 13.784C329.072 14.7867 330.681 16.1445 331.767 17.8574C332.853 19.5285 333.396 21.4085 333.396 23.4974C333.396 26.004 332.728 28.0929 331.391 29.764C330.054 31.4352 328.258 32.6676 326.002 33.4614ZM309.834 30.5787H318.67C321.009 30.5787 322.826 30.0565 324.122 29.012C325.458 27.9258 326.127 26.38 326.127 24.3747C326.127 22.4111 325.458 20.8863 324.122 19.8C322.826 18.672 321.009 18.108 318.67 18.108H309.834V30.5787ZM319.484 50.0054C321.907 50.0054 323.808 49.4205 325.187 48.2507C326.566 47.0809 327.255 45.4516 327.255 43.3627C327.255 41.232 326.524 39.54 325.062 38.2867C323.599 37.0334 321.657 36.4067 319.234 36.4067H309.834V50.0054H319.484Z"/><path fill="#11243E" fill-rule="evenodd" d="M263.533 12.1134H271.011V31.6927L287.687 12.1134H297.091L278.022 34.087L297.409 56H287.625L271.011 36.7915V56H263.533V12.1134ZM263.867 12.4467V55.6667H270.677V35.8966L287.778 55.6667H296.669L277.578 34.0891L296.36 12.4467H287.841L270.677 32.5981V12.4467H263.867ZM302.523 12.1134H319.296C322.281 12.1134 324.855 12.6178 327.013 13.6332C329.167 14.647 330.801 16.0239 331.907 17.7671C333.011 19.4664 333.563 21.3781 333.563 23.4974C333.563 26.0351 332.885 28.1626 331.521 29.8682C330.272 31.4298 328.629 32.6118 326.599 33.4161C328.737 33.9303 330.566 35.1464 332.085 37.0549C333.738 39.1312 334.566 41.4864 334.566 44.1147C334.566 46.3601 333.972 48.3972 332.784 50.2217C331.637 52.0057 329.961 53.4241 327.766 54.4796L327.763 54.4807C325.565 55.4953 323.013 56 320.111 56H302.523V12.1134ZM302.856 12.4467V55.6667H320.111C322.974 55.6667 325.476 55.1689 327.623 54.1786C329.771 53.1455 331.395 51.7652 332.504 50.0406C333.656 48.2721 334.232 46.2978 334.232 44.1147C334.232 41.5626 333.431 39.2804 331.825 37.2625C330.218 35.2437 328.268 34.0354 325.972 33.6254L325.349 33.5142L325.946 33.3042C328.176 32.5195 329.946 31.3039 331.261 29.6599C332.57 28.0233 333.23 25.973 333.23 23.4974C333.23 21.4391 332.695 19.5909 331.627 17.9482L331.626 17.9466C330.559 16.2645 328.977 14.9262 326.871 13.9348C324.767 12.945 322.244 12.4467 319.296 12.4467H302.856ZM309.667 17.9414H318.67C321.033 17.9414 322.894 18.5111 324.229 19.6725C325.609 20.7949 326.294 22.3699 326.294 24.3747C326.294 26.421 325.609 28.0181 324.227 29.1414C322.892 30.2178 321.032 30.7454 318.67 30.7454H309.667V17.9414ZM310 18.2747V30.412H318.67C320.986 30.412 322.761 29.8948 324.017 28.8824C325.308 27.8333 325.96 26.3389 325.96 24.3747C325.96 22.4534 325.309 20.9793 324.016 19.9294L324.012 19.9258C322.757 18.8325 320.984 18.2747 318.67 18.2747H310ZM309.667 36.24H319.234C321.686 36.24 323.67 36.8748 325.17 38.1602C326.673 39.4488 327.422 41.1892 327.422 43.3627C327.422 45.4921 326.717 47.1713 325.295 48.3778C323.877 49.5807 321.933 50.172 319.484 50.172H309.667V36.24ZM310 36.5734V49.8387H319.484C321.881 49.8387 323.739 49.2603 325.079 48.1236C326.414 46.9906 327.088 45.4111 327.088 43.3627C327.088 41.2749 326.374 39.6313 324.953 38.4132C323.528 37.192 321.628 36.5734 319.234 36.5734H310Z" clip-rule="evenodd"/><defs><linearGradient id="paint0_linear_3239_11075" x1="32.294" x2="32.294" y1="89.943" y2="-1.511" gradientUnits="userSpaceOnUse"><stop stop-color="#18C0D3"/><stop offset="1" stop-color="#65CDA1"/></linearGradient></defs></svg>