<svg width="501" height="64" viewBox="0 0 501 64" fill="none" xmlns="http://www.w3.org/2000/svg">
<path d="M56 32C56 18.7452 45.2548 8 32 8H8V56H56V32Z" fill="url(#paint0_linear_3240_12811)"/>
<g filter="url(#filter0_d_3240_12811)">
<path fill-rule="evenodd" clip-rule="evenodd" d="M43.3636 29.3892C43.5556 30.2285 43.6571 31.1024 43.6571 32V43.6572H20.547L30.6011 33.6031L33.8862 36.8882C34.4325 37.4345 35.3182 37.4345 35.8645 36.8882L43.3636 29.3892ZM42.4629 26.8547C42.3525 26.912 42.2488 26.987 42.1561 27.0797L34.8753 34.3604L31.5902 31.0753C31.0439 30.529 30.1582 30.529 29.6119 31.0753L20.3428 40.3444V20.3429H31.9999C36.5911 20.3429 40.5623 22.997 42.4629 26.8547Z" fill="white"/>
</g>
<path d="M80 20.236V55.436H87.5283V27.716H97.7137C103.339 27.716 107.899 32.2468 107.899 37.836V55.436H115.427V37.836C115.427 28.1157 107.497 20.236 97.7137 20.236H80Z" fill="#11243E"/>
<path fill-rule="evenodd" clip-rule="evenodd" d="M146.177 34.9434C145.455 30.3637 142.646 26.9894 137.028 26.9894C131.81 26.9894 128.199 29.8801 127.237 34.9434H146.177ZM137.911 48.6047C142.325 48.6047 145.535 46.8368 147.462 44.9886L152.197 49.9705C149.066 53.1054 144.734 55.436 137.992 55.436C126.434 55.436 118.97 47.9631 118.97 37.8377C118.97 27.7914 126.836 20.236 136.946 20.236C148.423 20.236 154.924 28.755 154.364 40.5693H127.237C128.199 45.4722 131.73 48.6047 137.911 48.6047Z" fill="#11243E"/>
<path fill-rule="evenodd" clip-rule="evenodd" d="M185.148 34.9434C184.426 30.3637 181.616 26.9894 175.998 26.9894C170.78 26.9894 167.169 29.8801 166.207 34.9434H185.148ZM176.881 48.6047C181.295 48.6047 184.505 46.8368 186.432 44.9886L191.167 49.9705C188.036 53.1054 183.704 55.436 176.962 55.436C165.404 55.436 157.94 47.9631 157.94 37.8377C157.94 27.7914 165.807 20.236 175.916 20.236C187.393 20.236 193.894 28.755 193.334 40.5693H166.207C167.169 45.4722 170.7 48.6047 176.881 48.6047Z" fill="#11243E"/>
<path fill-rule="evenodd" clip-rule="evenodd" d="M196.91 20.5394H202.851V11.436H210.4V20.5394H217.809V27.3631H210.4V41.1903C210.4 47.4451 211.378 48.4168 217.809 48.4168V55.436H216.691C206.066 55.436 202.851 52.0999 202.851 41.2606V27.3631H196.91V20.5394Z" fill="#11243E"/>
<path fill-rule="evenodd" clip-rule="evenodd" d="M249.544 37.8365C249.544 31.8791 244.9 27.0053 239.031 27.0053C233.16 27.0053 228.587 31.8791 228.587 37.8365C228.587 43.7928 233.16 48.6666 239.031 48.6666C244.9 48.6666 249.544 43.7928 249.544 37.8365ZM221.351 37.8365C221.351 27.9531 229.201 20.236 239.031 20.236C248.861 20.236 256.779 27.9531 256.779 37.8365C256.779 47.6514 248.861 55.436 239.031 55.436C229.201 55.436 221.351 47.6514 221.351 37.8365Z" fill="#11243E"/>
<path d="M309.572 11.8826V55.436H302.428V25.6066L289.143 55.436H284.192L270.844 25.6066V55.436H263.7V11.8826H271.408L286.699 46.036L301.927 11.8826H309.572Z" fill="#11243E"/>
<path d="M333.272 56C330.014 56 327.068 55.2688 324.436 53.8066C321.804 52.3026 319.736 50.2137 318.232 47.54C316.728 44.8244 315.976 41.6911 315.976 38.14C315.976 34.6306 316.749 31.5182 318.295 28.8026C319.841 26.0871 321.951 23.9982 324.624 22.536C327.298 21.0737 330.285 20.3426 333.586 20.3426C336.886 20.3426 339.873 21.0737 342.547 22.536C345.221 23.9982 347.331 26.0871 348.876 28.8026C350.422 31.5182 351.195 34.6306 351.195 38.14C351.195 41.6493 350.401 44.7617 348.814 47.4773C347.226 50.1928 345.054 52.3026 342.296 53.8066C339.581 55.2688 336.573 56 333.272 56ZM333.272 49.796C335.111 49.796 336.823 49.3573 338.411 48.48C340.04 47.6026 341.356 46.2866 342.359 44.532C343.362 42.7773 343.863 40.6466 343.863 38.14C343.863 35.6333 343.383 33.5235 342.422 31.8106C341.461 30.056 340.187 28.74 338.599 27.8626C337.012 26.9853 335.299 26.5466 333.46 26.5466C331.622 26.5466 329.909 26.9853 328.322 27.8626C326.776 28.74 325.544 30.056 324.624 31.8106C323.705 33.5235 323.246 35.6333 323.246 38.14C323.246 41.8582 324.186 44.7408 326.066 46.788C327.988 48.7933 330.39 49.796 333.272 49.796Z" fill="#11243E"/>
<path d="M375.012 20.3426C377.728 20.3426 380.151 20.9066 382.281 22.0346C384.454 23.1626 386.146 24.8337 387.357 27.048C388.569 29.2622 389.175 31.936 389.175 35.0693V55.436H382.093V36.1346C382.093 33.0431 381.32 30.6826 379.775 29.0533C378.229 27.3822 376.119 26.5466 373.445 26.5466C370.772 26.5466 368.641 27.3822 367.053 29.0533C365.508 30.6826 364.735 33.0431 364.735 36.1346V55.436H357.591V20.9066H364.735V24.8546C365.904 23.4342 367.388 22.3271 369.184 21.5333C371.022 20.7395 372.965 20.3426 375.012 20.3426Z" fill="#11243E"/>
<path d="M401.255 16.332C399.96 16.332 398.874 15.8933 397.997 15.016C397.119 14.1386 396.681 13.0524 396.681 11.7573C396.681 10.4622 397.119 9.37595 397.997 8.49862C398.874 7.62128 399.96 7.18262 401.255 7.18262C402.509 7.18262 403.574 7.62128 404.451 8.49862C405.329 9.37595 405.767 10.4622 405.767 11.7573C405.767 13.0524 405.329 14.1386 404.451 15.016C403.574 15.8933 402.509 16.332 401.255 16.332ZM404.765 20.9066V55.436H397.621V20.9066H404.765Z" fill="#11243E"/>
<path d="M421.812 26.7346V45.848C421.812 47.1431 422.104 48.0831 422.689 48.668C423.316 49.2111 424.36 49.4826 425.823 49.4826H430.209V55.436H424.569C421.352 55.436 418.888 54.684 417.175 53.18C415.462 51.676 414.605 49.232 414.605 45.848V26.7346H410.532V20.9066H414.605V12.3213H421.812V20.9066H430.209V26.7346H421.812Z" fill="#11243E"/>
<path d="M451.104 56C447.846 56 444.9 55.2688 442.268 53.8066C439.636 52.3026 437.568 50.2137 436.064 47.54C434.56 44.8244 433.808 41.6911 433.808 38.14C433.808 34.6306 434.581 31.5182 436.127 28.8026C437.673 26.0871 439.783 23.9982 442.456 22.536C445.13 21.0737 448.117 20.3426 451.418 20.3426C454.718 20.3426 457.705 21.0737 460.379 22.536C463.053 23.9982 465.163 26.0871 466.708 28.8026C468.254 31.5182 469.027 34.6306 469.027 38.14C469.027 41.6493 468.233 44.7617 466.646 47.4773C465.058 50.1928 462.886 52.3026 460.128 53.8066C457.413 55.2688 454.405 56 451.104 56ZM451.104 49.796C452.943 49.796 454.656 49.3573 456.243 48.48C457.872 47.6026 459.188 46.2866 460.191 44.532C461.194 42.7773 461.695 40.6466 461.695 38.14C461.695 35.6333 461.215 33.5235 460.254 31.8106C459.293 30.056 458.019 28.74 456.431 27.8626C454.844 26.9853 453.131 26.5466 451.292 26.5466C449.454 26.5466 447.741 26.9853 446.154 27.8626C444.608 28.74 443.376 30.056 442.456 31.8106C441.537 33.5235 441.078 35.6333 441.078 38.14C441.078 41.8582 442.018 44.7408 443.898 46.788C445.82 48.7933 448.222 49.796 451.104 49.796Z" fill="#11243E"/>
<path d="M482.567 25.92C483.611 24.1653 484.99 22.8075 486.703 21.8466C488.457 20.844 490.525 20.3426 492.907 20.3426V27.7373H491.089C488.29 27.7373 486.16 28.4475 484.697 29.868C483.277 31.2884 482.567 33.7533 482.567 37.2626V55.436H475.423V20.9066H482.567V25.92Z" fill="#11243E"/>
<path d="M80 20.236V55.436H87.5283V27.716H97.7137C103.339 27.716 107.899 32.2468 107.899 37.836V55.436H115.427V37.836C115.427 28.1157 107.497 20.236 97.7137 20.236H80Z" stroke="#11243E" stroke-width="0.333333"/>
<path fill-rule="evenodd" clip-rule="evenodd" d="M146.177 34.9434C145.455 30.3637 142.646 26.9894 137.028 26.9894C131.81 26.9894 128.199 29.8801 127.237 34.9434H146.177ZM137.911 48.6047C142.325 48.6047 145.535 46.8368 147.462 44.9886L152.197 49.9705C149.066 53.1054 144.734 55.436 137.992 55.436C126.434 55.436 118.97 47.9631 118.97 37.8377C118.97 27.7914 126.836 20.236 136.946 20.236C148.423 20.236 154.924 28.755 154.364 40.5693H127.237C128.199 45.4722 131.73 48.6047 137.911 48.6047Z" stroke="#11243E" stroke-width="0.333333"/>
<path fill-rule="evenodd" clip-rule="evenodd" d="M185.148 34.9434C184.426 30.3637 181.616 26.9894 175.998 26.9894C170.78 26.9894 167.169 29.8801 166.207 34.9434H185.148ZM176.881 48.6047C181.295 48.6047 184.505 46.8368 186.432 44.9886L191.167 49.9705C188.036 53.1054 183.704 55.436 176.962 55.436C165.404 55.436 157.94 47.9631 157.94 37.8377C157.94 27.7914 165.807 20.236 175.916 20.236C187.393 20.236 193.894 28.755 193.334 40.5693H166.207C167.169 45.4722 170.7 48.6047 176.881 48.6047Z" stroke="#11243E" stroke-width="0.333333"/>
<path fill-rule="evenodd" clip-rule="evenodd" d="M196.91 20.5394H202.851V11.436H210.4V20.5394H217.809V27.3631H210.4V41.1903C210.4 47.4451 211.378 48.4168 217.809 48.4168V55.436H216.691C206.066 55.436 202.851 52.0999 202.851 41.2606V27.3631H196.91V20.5394Z" stroke="#11243E" stroke-width="0.333333"/>
<path fill-rule="evenodd" clip-rule="evenodd" d="M249.544 37.8365C249.544 31.8791 244.9 27.0053 239.031 27.0053C233.16 27.0053 228.587 31.8791 228.587 37.8365C228.587 43.7928 233.16 48.6666 239.031 48.6666C244.9 48.6666 249.544 43.7928 249.544 37.8365ZM221.351 37.8365C221.351 27.9531 229.201 20.236 239.031 20.236C248.861 20.236 256.779 27.9531 256.779 37.8365C256.779 47.6514 248.861 55.436 239.031 55.436C229.201 55.436 221.351 47.6514 221.351 37.8365Z" stroke="#11243E" stroke-width="0.333333"/>
<path d="M309.572 11.8826V55.436H302.428V25.6066L289.143 55.436H284.192L270.844 25.6066V55.436H263.7V11.8826H271.408L286.699 46.036L301.927 11.8826H309.572Z" stroke="#11243E" stroke-width="0.333333"/>
<path d="M333.272 56C330.014 56 327.068 55.2688 324.436 53.8066C321.804 52.3026 319.736 50.2137 318.232 47.54C316.728 44.8244 315.976 41.6911 315.976 38.14C315.976 34.6306 316.749 31.5182 318.295 28.8026C319.841 26.0871 321.951 23.9982 324.624 22.536C327.298 21.0737 330.285 20.3426 333.586 20.3426C336.886 20.3426 339.873 21.0737 342.547 22.536C345.221 23.9982 347.331 26.0871 348.876 28.8026C350.422 31.5182 351.195 34.6306 351.195 38.14C351.195 41.6493 350.401 44.7617 348.814 47.4773C347.226 50.1928 345.054 52.3026 342.296 53.8066C339.581 55.2688 336.573 56 333.272 56ZM333.272 49.796C335.111 49.796 336.823 49.3573 338.411 48.48C340.04 47.6026 341.356 46.2866 342.359 44.532C343.362 42.7773 343.863 40.6466 343.863 38.14C343.863 35.6333 343.383 33.5235 342.422 31.8106C341.461 30.056 340.187 28.74 338.599 27.8626C337.012 26.9853 335.299 26.5466 333.46 26.5466C331.622 26.5466 329.909 26.9853 328.322 27.8626C326.776 28.74 325.544 30.056 324.624 31.8106C323.705 33.5235 323.246 35.6333 323.246 38.14C323.246 41.8582 324.186 44.7408 326.066 46.788C327.988 48.7933 330.39 49.796 333.272 49.796Z" stroke="#11243E" stroke-width="0.333333"/>
<path d="M375.012 20.3426C377.728 20.3426 380.151 20.9066 382.281 22.0346C384.454 23.1626 386.146 24.8337 387.357 27.048C388.569 29.2622 389.175 31.936 389.175 35.0693V55.436H382.093V36.1346C382.093 33.0431 381.32 30.6826 379.775 29.0533C378.229 27.3822 376.119 26.5466 373.445 26.5466C370.772 26.5466 368.641 27.3822 367.053 29.0533C365.508 30.6826 364.735 33.0431 364.735 36.1346V55.436H357.591V20.9066H364.735V24.8546C365.904 23.4342 367.388 22.3271 369.184 21.5333C371.022 20.7395 372.965 20.3426 375.012 20.3426Z" stroke="#11243E" stroke-width="0.333333"/>
<path d="M401.255 16.332C399.96 16.332 398.874 15.8933 397.997 15.016C397.119 14.1386 396.681 13.0524 396.681 11.7573C396.681 10.4622 397.119 9.37595 397.997 8.49862C398.874 7.62128 399.96 7.18262 401.255 7.18262C402.509 7.18262 403.574 7.62128 404.451 8.49862C405.329 9.37595 405.767 10.4622 405.767 11.7573C405.767 13.0524 405.329 14.1386 404.451 15.016C403.574 15.8933 402.509 16.332 401.255 16.332ZM404.765 20.9066V55.436H397.621V20.9066H404.765Z" stroke="#11243E" stroke-width="0.333333"/>
<path d="M421.812 26.7346V45.848C421.812 47.1431 422.104 48.0831 422.689 48.668C423.316 49.2111 424.36 49.4826 425.823 49.4826H430.209V55.436H424.569C421.352 55.436 418.888 54.684 417.175 53.18C415.462 51.676 414.605 49.232 414.605 45.848V26.7346H410.532V20.9066H414.605V12.3213H421.812V20.9066H430.209V26.7346H421.812Z" stroke="#11243E" stroke-width="0.333333"/>
<path d="M451.104 56C447.846 56 444.9 55.2688 442.268 53.8066C439.636 52.3026 437.568 50.2137 436.064 47.54C434.56 44.8244 433.808 41.6911 433.808 38.14C433.808 34.6306 434.581 31.5182 436.127 28.8026C437.673 26.0871 439.783 23.9982 442.456 22.536C445.13 21.0737 448.117 20.3426 451.418 20.3426C454.718 20.3426 457.705 21.0737 460.379 22.536C463.053 23.9982 465.163 26.0871 466.708 28.8026C468.254 31.5182 469.027 34.6306 469.027 38.14C469.027 41.6493 468.233 44.7617 466.646 47.4773C465.058 50.1928 462.886 52.3026 460.128 53.8066C457.413 55.2688 454.405 56 451.104 56ZM451.104 49.796C452.943 49.796 454.656 49.3573 456.243 48.48C457.872 47.6026 459.188 46.2866 460.191 44.532C461.194 42.7773 461.695 40.6466 461.695 38.14C461.695 35.6333 461.215 33.5235 460.254 31.8106C459.293 30.056 458.019 28.74 456.431 27.8626C454.844 26.9853 453.131 26.5466 451.292 26.5466C449.454 26.5466 447.741 26.9853 446.154 27.8626C444.608 28.74 443.376 30.056 442.456 31.8106C441.537 33.5235 441.078 35.6333 441.078 38.14C441.078 41.8582 442.018 44.7408 443.898 46.788C445.82 48.7933 448.222 49.796 451.104 49.796Z" stroke="#11243E" stroke-width="0.333333"/>
<path d="M482.567 25.92C483.611 24.1653 484.99 22.8075 486.703 21.8466C488.457 20.844 490.525 20.3426 492.907 20.3426V27.7373H491.089C488.29 27.7373 486.16 28.4475 484.697 29.868C483.277 31.2884 482.567 33.7533 482.567 37.2626V55.436H475.423V20.9066H482.567V25.92Z" stroke="#11243E" stroke-width="0.333333"/>
<defs>
<filter id="filter0_d_3240_12811" x="20.3428" y="20.3429" width="29.3142" height="30.3143" filterUnits="userSpaceOnUse" color-interpolation-filters="sRGB">
<feFlood flood-opacity="0" result="BackgroundImageFix"/>
<feColorMatrix in="SourceAlpha" type="matrix" values="0 0 0 0 0 0 0 0 0 0 0 0 0 0 0 0 0 0 127 0" result="hardAlpha"/>
<feOffset dx="3" dy="4"/>
<feGaussianBlur stdDeviation="1.5"/>
<feComposite in2="hardAlpha" operator="out"/>
<feColorMatrix type="matrix" values="0 0 0 0 0 0 0 0 0 0 0 0 0 0 0 0 0 0 0.05 0"/>
<feBlend mode="normal" in2="BackgroundImageFix" result="effect1_dropShadow_3240_12811"/>
<feBlend mode="normal" in="SourceGraphic" in2="effect1_dropShadow_3240_12811" result="shape"/>
</filter>
<linearGradient id="paint0_linear_3240_12811" x1="82.2286" y1="95.7714" x2="-19.4286" y2="-21.6571" gradientUnits="userSpaceOnUse">
<stop offset="0.46875" stop-color="#46B5C5"/>
<stop offset="0.880208" stop-color="#17FFD5"/>
</linearGradient>
</defs>
</svg>
