<svg xmlns="http://www.w3.org/2000/svg" width="449" height="144" fill="none" viewBox="0 0 449 144"><g clip-path="url(#clip0_318_35774)" data-logo-icon="neeto-typeface-logo__icon"><path fill="#75DC66" d="M121.38 106.648C121.38 122.928 109.375 136.125 94.5662 136.125H33.5639C18.7549 136.125 6.74979 122.928 6.74979 106.648V86.0139C6.74979 69.7342 18.7549 56.5368 33.5639 56.5368H94.5662C109.375 56.5368 121.38 69.7342 121.38 86.0139V106.648Z"/><path fill="#75DC66" d="M55.0153 34.429L20.492 60.2214L55.0153 57.2737V34.429Z"/><path fill="#5BCC5A" d="M19.802 37.0246C19.802 20.9257 31.8666 7.875 46.7489 7.875H108.053C122.936 7.875 135 20.9257 135 37.0246V57.4293C135 73.5282 122.936 86.5789 108.053 86.5789H46.7489C31.8666 86.5789 19.802 73.5282 19.802 57.4293V37.0246Z"/><path fill="#5BCC5A" d="M86.4956 108.441L121.19 82.9352L86.4956 85.8501V108.441Z"/><path fill="#0DA84C" d="M121.229 82.8627C121.184 82.8897 121.14 82.9164 121.096 82.9431L121.19 82.9352L86.4956 108.441L86.4955 86.5789L46.7489 86.5789C32.8591 86.5789 21.4236 75.2108 19.9601 60.6066C20.1668 60.4725 20.3752 60.3415 20.5854 60.2134L20.492 60.2214L55.0153 34.429L55.0151 56.5368L94.5662 56.5368C108.407 56.5368 119.798 68.0647 121.229 82.8627Z"/></g><g data-logo-text="neeto-typeface-logo__text"><path fill="#000" d="M168.286 95.2033C168.286 87.2852 170.054 80.2127 173.59 73.9858C177.203 67.6821 182.085 62.8005 188.235 59.3411C194.462 55.8049 201.419 54.0368 209.107 54.0368C218.101 54.0368 225.981 56.343 232.746 60.9555C239.511 65.568 244.238 71.9486 246.929 80.0974H228.364C226.519 76.2536 223.905 73.3708 220.523 71.4489C217.217 69.5271 213.373 68.5661 208.991 68.5661C204.302 68.5661 200.112 69.6808 196.422 71.9102C192.809 74.0627 189.965 77.1377 187.889 81.1352C185.89 85.1327 184.891 89.8221 184.891 95.2033C184.891 100.508 185.89 105.197 187.889 109.271C189.965 113.269 192.809 116.382 196.422 118.612C200.112 120.764 204.302 121.841 208.991 121.841C213.373 121.841 217.217 120.88 220.523 118.958C223.905 116.959 226.519 114.038 228.364 110.194H246.929C244.238 118.42 239.511 124.839 232.746 129.451C226.058 133.987 218.178 136.255 209.107 136.255C201.419 136.255 194.462 134.525 188.235 131.066C182.085 127.529 177.203 122.648 173.59 116.421C170.054 110.194 168.286 103.121 168.286 95.2033Z" data-dark-mode-color="true"/><path fill="#000" d="M294.389 70.7571C299.232 70.7571 303.537 71.8333 307.304 73.9858C311.071 76.0614 313.992 79.1749 316.068 83.3261C318.22 87.4005 319.297 92.3205 319.297 98.0861V135.563H303.153V100.277C303.153 95.2033 301.884 91.3211 299.348 88.6305C296.811 85.863 293.351 84.4793 288.969 84.4793C284.511 84.4793 280.974 85.863 278.361 88.6305C275.824 91.3211 274.555 95.2033 274.555 100.277V135.563H258.412V50.2314H274.555V79.6361C276.631 76.8686 279.399 74.7161 282.858 73.1786C286.317 71.5643 290.161 70.7571 294.389 70.7571Z" data-dark-mode-color="true"/><path fill="#000" d="M328.191 103.391C328.191 96.933 329.459 91.2058 331.996 86.2089C334.61 81.2121 338.108 77.3683 342.49 74.6777C346.949 71.9871 351.907 70.6418 357.365 70.6418C362.131 70.6418 366.283 71.6027 369.819 73.5246C373.432 75.4464 376.315 77.868 378.467 80.7893V71.6796H394.726V135.563H378.467V126.222C376.392 129.221 373.509 131.719 369.819 133.718C366.206 135.64 362.016 136.601 357.25 136.601C351.869 136.601 346.949 135.217 342.49 132.449C338.108 129.682 334.61 125.8 331.996 120.803C329.459 115.729 328.191 109.925 328.191 103.391ZM378.467 103.621C378.467 99.7005 377.699 96.3564 376.161 93.5889C374.624 90.7446 372.548 88.5921 369.934 87.1314C367.32 85.5939 364.514 84.8252 361.516 84.8252C358.518 84.8252 355.751 85.5555 353.214 87.0161C350.677 88.4768 348.601 90.6293 346.987 93.4736C345.449 96.2411 344.681 99.5468 344.681 103.391C344.681 107.234 345.449 110.617 346.987 113.538C348.601 116.382 350.677 118.573 353.214 120.111C355.828 121.648 358.595 122.417 361.516 122.417C364.514 122.417 367.32 121.687 369.934 120.226C372.548 118.689 374.624 116.536 376.161 113.769C377.699 110.924 378.467 107.542 378.467 103.621Z" data-dark-mode-color="true"/><path fill="#000" d="M426.983 84.9405V115.844C426.983 117.997 427.483 119.573 428.482 120.572C429.559 121.495 431.327 121.956 433.787 121.956H441.282V135.563H431.134C417.528 135.563 410.724 128.951 410.724 115.729V84.9405H403.114V71.6796H410.724V55.8818H426.983V71.6796H441.282V84.9405H426.983Z" data-dark-mode-color="true"/><path fill="#000" d="M228.622 25.5097C228.622 26.3731 228.564 27.1502 228.449 27.841H210.978C211.122 29.5679 211.726 30.9206 212.79 31.8992C213.854 32.8777 215.163 33.367 216.716 33.367C218.959 33.367 220.555 32.4028 221.504 30.4745H228.018C227.327 32.777 226.005 34.6766 224.049 36.1732C222.094 37.6411 219.692 38.375 216.845 38.375C214.544 38.375 212.474 37.8713 210.633 36.864C208.822 35.8278 207.398 34.3744 206.363 32.5036C205.356 30.6328 204.853 28.4742 204.853 26.0278C204.853 23.5525 205.356 21.3795 206.363 19.5087C207.369 17.638 208.778 16.1989 210.59 15.1915C212.402 14.1842 214.487 13.6805 216.845 13.6805C219.117 13.6805 221.144 14.1698 222.927 15.1484C224.739 16.1269 226.134 17.5228 227.112 19.3361C228.118 21.1205 228.622 23.1784 228.622 25.5097ZM222.367 23.7828C222.338 22.2286 221.777 20.991 220.684 20.07C219.592 19.1202 218.254 18.6453 216.673 18.6453C215.177 18.6453 213.912 19.1058 212.877 20.0268C211.87 20.919 211.252 22.171 211.022 23.7828H222.367Z" data-dark-mode-color="true"/><path fill="#000" d="M255.245 25.5097C255.245 26.3731 255.188 27.1502 255.073 27.841H237.602C237.746 29.5679 238.35 30.9206 239.414 31.8992C240.478 32.8777 241.787 33.367 243.34 33.367C245.583 33.367 247.179 32.4028 248.128 30.4745H254.641C253.951 32.777 252.628 34.6766 250.673 36.1732C248.717 37.6411 246.316 38.375 243.469 38.375C241.168 38.375 239.098 37.8713 237.257 36.864C235.445 35.8278 234.022 34.3744 232.987 32.5036C231.98 30.6328 231.477 28.4742 231.477 26.0278C231.477 23.5525 231.98 21.3795 232.987 19.5087C233.993 17.638 235.402 16.1989 237.214 15.1915C239.026 14.1842 241.111 13.6805 243.469 13.6805C245.741 13.6805 247.768 14.1698 249.551 15.1484C251.363 16.1269 252.758 17.5228 253.736 19.3361C254.742 21.1205 255.245 23.1784 255.245 25.5097ZM248.99 23.7828C248.962 22.2286 248.401 20.991 247.308 20.07C246.215 19.1202 244.878 18.6453 243.296 18.6453C241.801 18.6453 240.536 19.1058 239.5 20.0268C238.494 20.919 237.875 22.171 237.645 23.7828H248.99Z" data-dark-mode-color="true"/><path fill="#000" d="M266.785 18.9874V30.6615C266.785 31.4674 266.997 31.9999 267.371 32.374C267.774 32.7194 268.435 32.8921 269.356 32.8921H272.16V37.9864H268.364C263.273 37.9864 260.838 35.383 260.838 30.4326V18.9874H257.636V13.9515H260.838V8H266.785V13.9515H272.16V18.9874H266.785Z" data-dark-mode-color="true"/><path fill="#000" d="M286.989 38.375C284.689 38.375 282.618 37.8713 280.778 36.864C278.937 35.8278 277.485 34.3744 276.421 32.5036C275.385 30.6328 274.868 28.4742 274.868 26.0278C274.868 23.5813 275.4 21.4227 276.464 19.5519C277.557 17.6811 279.038 16.2421 280.907 15.2347C282.776 14.1986 284.861 13.6805 287.162 13.6805C289.463 13.6805 291.548 14.1986 293.417 15.2347C295.286 16.2421 296.753 17.6811 297.817 19.5519C298.91 21.4227 299.456 23.5813 299.456 26.0278C299.456 28.4742 298.895 30.6328 297.774 32.5036C296.681 34.3744 295.185 35.8278 293.287 36.864C291.418 37.8713 289.319 38.375 286.989 38.375ZM286.989 33.108C288.082 33.108 289.103 32.849 290.052 32.3309C291.03 31.784 291.806 30.9782 292.382 29.9132C292.957 28.8483 293.244 27.5532 293.244 26.0278C293.244 23.754 292.64 22.0127 291.432 20.8039C290.253 19.5663 288.801 18.9475 287.076 18.9475C285.35 18.9475 283.898 19.5663 282.719 20.8039C281.568 22.0127 280.993 23.754 280.993 26.0278C280.993 28.3015 281.554 30.0572 282.676 31.2948C283.826 32.5036 285.264 33.108 286.989 33.108Z" data-dark-mode-color="true"/><path fill="#000" d="M199.752 8H188.159L199.752 25.3903V8Z" data-dark-mode-color="true"/><path fill="#000" d="M171 38.375L171 8H179.372L199.752 38.375H191.136L177.724 18.666V38.375H171Z" data-dark-mode-color="true"/></g><defs><clipPath id="clip0_318_35774"><rect width="128.25" height="128.25" fill="#fff" transform="translate(6.75 7.875)"/></clipPath></defs></svg>