<svg width="398" height="65" viewBox="0 0 398 65" fill="none" xmlns="http://www.w3.org/2000/svg">
<path d="M48 32.9956C48 19.7408 37.2548 8.99561 24 8.99561H0V56.9956H48V32.9956Z" fill="url(#paint0_linear_3688_21456)"/>
<g clip-path="url(#clip0_3688_21456)">
<g filter="url(#filter0_d_3688_21456)">
<path fill-rule="evenodd" clip-rule="evenodd" d="M18.3358 34.0894C17.4257 33.1793 15.9502 33.1793 15.0401 34.0894C14.13 34.9995 14.13 36.475 15.0401 37.3851C15.9502 38.2952 17.4257 38.2952 18.3358 37.3851C19.2459 36.475 19.2459 34.9995 18.3358 34.0894ZM20.2127 32.2125C18.266 30.2658 15.1098 30.2658 13.1631 32.2125C11.2165 34.1591 11.2165 37.3153 13.1631 39.262C15.1098 41.2087 18.266 41.2087 20.2127 39.262C22.1594 37.3153 22.1594 34.1591 20.2127 32.2125Z" fill="white"/>
<path fill-rule="evenodd" clip-rule="evenodd" d="M32.9627 26.7759C32.0526 25.8658 30.5771 25.8658 29.667 26.7759C28.7569 27.686 28.7569 29.1615 29.667 30.0716C30.5771 30.9817 32.0526 30.9817 32.9627 30.0716C33.8728 29.1615 33.8728 27.686 32.9627 26.7759ZM34.8397 24.899C32.893 22.9523 29.7368 22.9523 27.7901 24.899C25.8434 26.8457 25.8434 30.0019 27.7901 31.9485C29.7368 33.8952 32.893 33.8952 34.8397 31.9485C36.7863 30.0019 36.7863 26.8457 34.8397 24.899Z" fill="white"/>
<path fill-rule="evenodd" clip-rule="evenodd" d="M32.9627 41.4029C32.0526 40.4928 30.5771 40.4928 29.667 41.4029C28.7569 42.3129 28.7569 43.7885 29.667 44.6986C30.5771 45.6086 32.0526 45.6086 32.9627 44.6986C33.8728 43.7885 33.8728 42.3129 32.9627 41.4029ZM34.8397 39.5259C32.893 37.5792 29.7368 37.5792 27.7901 39.5259C25.8434 41.4726 25.8434 44.6288 27.7901 46.5755C29.7368 48.5222 32.893 48.5222 34.8397 46.5755C36.7863 44.6288 36.7863 41.4726 34.8397 39.5259Z" fill="white"/>
<path fill-rule="evenodd" clip-rule="evenodd" d="M29.2486 29.4522C29.5764 30.1078 29.3107 30.905 28.6551 31.2328L20.5363 35.2922C19.8806 35.62 19.0834 35.3543 18.7556 34.6987C18.4278 34.0431 18.6936 33.2459 19.3492 32.9181L27.468 28.8587C28.1236 28.5309 28.9208 28.7966 29.2486 29.4522Z" fill="white"/>
<path fill-rule="evenodd" clip-rule="evenodd" d="M18.7556 36.7764C19.0834 36.1208 19.8806 35.8551 20.5363 36.1829L28.6551 40.2423C29.3107 40.5701 29.5764 41.3673 29.2486 42.0229C28.9208 42.6785 28.1236 42.9443 27.468 42.6165L19.3492 38.557C18.6936 38.2292 18.4278 37.432 18.7556 36.7764Z" fill="white"/>
</g>
</g>
<path fill-rule="evenodd" clip-rule="evenodd" d="M90.0873 21.6226H73.2401L81.5759 29.8206H90.0873C95.4515 29.8206 99.7952 34.0714 99.7952 39.3091V56.9956H108.175V39.3091C108.175 29.5385 100.074 21.6226 90.0873 21.6226ZM80.3794 31.0143L72 22.7734V56.9956H80.3794V31.0143ZM144.982 51.2125L139.664 45.7081L139.346 46.009C137.501 47.751 134.408 49.4336 130.135 49.4336C127.13 49.4336 124.814 48.6851 123.14 47.3898C121.593 46.1932 120.559 44.5034 120.047 42.4212H146.946L146.966 42.0092C147.249 36.1373 145.75 31.0399 142.686 27.4026C139.615 23.7575 135.007 21.6226 129.173 21.6226C118.87 21.6226 110.825 29.2122 110.825 39.3108C110.825 44.3842 112.728 48.8137 116.12 51.9734C119.511 55.1321 124.362 56.9956 130.216 56.9956C137.052 56.9956 141.48 54.663 144.679 51.5107L144.982 51.2125ZM183.807 51.2125L178.49 45.7081L178.171 46.009C176.326 47.751 173.233 49.4336 168.96 49.4336C165.955 49.4336 163.639 48.6851 161.965 47.3898C160.418 46.1932 159.385 44.5034 158.872 42.4212H185.771L185.791 42.0092C186.074 36.1373 184.575 31.0399 181.511 27.4026C178.44 23.7575 173.832 21.6226 167.999 21.6226C157.695 21.6226 149.65 29.2122 149.65 39.3108C149.65 44.3842 151.553 48.8137 154.945 51.9734C158.336 55.1321 163.187 56.9956 169.041 56.9956C175.877 56.9956 180.305 54.663 183.504 51.5107L183.807 51.2125ZM194.393 21.9201H188.475V29.4747H194.393V42.6664C194.393 47.9929 195.189 51.6241 197.443 53.9013C199.701 56.1821 203.311 56.9956 208.622 56.9956H210.175V49.2494H209.735C208.138 49.2494 206.91 49.1894 205.961 49.0123C205.015 48.8359 204.387 48.5505 203.95 48.1299C203.514 47.7103 203.22 47.1098 203.038 46.2073C202.856 45.2997 202.794 44.1261 202.794 42.5975V29.4747H210.175V21.9201H202.794V12.9956H194.393V21.9201ZM129.255 29.1083C131.961 29.1083 133.946 29.9051 135.34 31.205C136.632 32.4093 137.453 34.0787 137.846 36.0409H120.043C120.557 33.8916 121.603 32.2136 123.065 31.0494C124.642 29.7934 126.738 29.1083 129.255 29.1083ZM168.081 29.1083C170.786 29.1083 172.771 29.9051 174.165 31.205C175.457 32.4093 176.278 34.0787 176.672 36.0409H158.868C159.382 33.8916 160.428 32.2136 161.89 31.0494C163.467 29.7934 165.563 29.1083 168.081 29.1083ZM230.879 29.1239C236.469 29.1239 240.913 33.6936 240.913 39.3097C240.913 44.9246 236.469 49.4943 230.879 49.4943C225.291 49.4943 220.913 44.9284 220.913 39.3097C220.913 33.6898 225.291 29.1239 230.879 29.1239ZM230.879 21.6226C220.846 21.6226 212.825 29.3783 212.825 39.3097C212.825 49.1728 220.845 56.9956 230.879 56.9956C240.91 56.9956 249 49.175 249 39.3097C249 29.3761 240.909 21.6226 230.879 21.6226Z" fill="#11243E"/>
<path d="M253 34.3676C253 30.0645 253.961 26.2209 255.883 22.8369C257.846 19.4112 260.499 16.7583 263.841 14.8783C267.225 12.9565 271.006 11.9956 275.184 11.9956C280.072 11.9956 284.354 13.2489 288.031 15.7556C291.707 18.2623 294.276 21.7298 295.739 26.1583H285.649C284.647 24.0694 283.226 22.5027 281.388 21.4583C279.592 20.4138 277.503 19.8916 275.121 19.8916C272.573 19.8916 270.296 20.4974 268.291 21.7089C266.327 22.8787 264.781 24.5498 263.653 26.7223C262.567 28.8947 262.024 31.4432 262.024 34.3676C262.024 37.2503 262.567 39.7987 263.653 42.0129C264.781 44.1854 266.327 45.8774 268.291 47.0889C270.296 48.2587 272.573 48.8436 275.121 48.8436C277.503 48.8436 279.592 48.3214 281.388 47.2769C283.226 46.1907 284.647 44.6032 285.649 42.5143H295.739C294.276 46.9845 291.707 50.4729 288.031 52.9796C284.396 55.4445 280.114 56.6769 275.184 56.6769C271.006 56.6769 267.225 55.7369 263.841 53.8569C260.499 51.9352 257.846 49.2823 255.883 45.8983C253.961 42.5143 253 38.6707 253 34.3676Z" fill="#11243E"/>
<path d="M325.126 56.3009L315.475 39.2556H311.339V56.3009H302.566V12.5596H318.984C322.368 12.5596 325.251 13.1654 327.632 14.3769C330.014 15.5467 331.789 17.1552 332.959 19.2023C334.17 21.2076 334.776 23.4636 334.776 25.9703C334.776 28.8529 333.941 31.4641 332.27 33.8036C330.598 36.1014 328.113 37.6889 324.812 38.5663L335.278 56.3009H325.126ZM311.339 32.6756H318.671C321.052 32.6756 322.828 32.1116 323.998 30.9836C325.167 29.8138 325.752 28.2054 325.752 26.1583C325.752 24.1529 325.167 22.6072 323.998 21.5209C322.828 20.3929 321.052 19.8289 318.671 19.8289H311.339V32.6756Z" fill="#11243E"/>
<path d="M389.734 12.5596V56.3009H380.961V27.8503L369.242 56.3009H362.599L350.818 27.8503V56.3009H342.045V12.5596H352.009L365.921 45.0836L379.833 12.5596H389.734Z" fill="#11243E"/>
<defs>
<filter id="filter0_d_3688_21456" x="11.7031" y="23.439" width="26.311" height="26.5966" filterUnits="userSpaceOnUse" color-interpolation-filters="sRGB">
<feFlood flood-opacity="0" result="BackgroundImageFix"/>
<feColorMatrix in="SourceAlpha" type="matrix" values="0 0 0 0 0 0 0 0 0 0 0 0 0 0 0 0 0 0 127 0" result="hardAlpha"/>
<feOffset dx="0.857143" dy="1.14286"/>
<feGaussianBlur stdDeviation="0.428571"/>
<feComposite in2="hardAlpha" operator="out"/>
<feColorMatrix type="matrix" values="0 0 0 0 0 0 0 0 0 0 0 0 0 0 0 0 0 0 0.05 0"/>
<feBlend mode="normal" in2="BackgroundImageFix" result="effect1_dropShadow_3688_21456"/>
<feBlend mode="normal" in="SourceGraphic" in2="effect1_dropShadow_3688_21456" result="shape"/>
</filter>
<linearGradient id="paint0_linear_3688_21456" x1="48" y1="66.767" x2="25.3458" y2="14.6031" gradientUnits="userSpaceOnUse">
<stop stop-color="#609AF0"/>
<stop offset="1" stop-color="#6BD1F1"/>
</linearGradient>
<clipPath id="clip0_3688_21456">
<rect width="32.9143" height="32.9143" fill="white" transform="translate(7.54297 19.2808)"/>
</clipPath>
</defs>
</svg>
