<svg xmlns="http://www.w3.org/2000/svg" width="426" height="64" fill="none" viewBox="0 0 426 64"><path fill="url(#paint0_linear_3239_12179)" d="M56 32C56 18.7452 45.2548 8 32 8H8V56H56V32Z"/><g filter="url(#filter0_d_3239_12179)"><path fill="#fff" fill-rule="evenodd" d="M32.0025 20.3428C38.4405 20.3428 43.6596 25.5619 43.6596 31.9999V43.6571H20.3453V20.3428H32.0025ZM26.874 26.0928C26.874 25.6636 26.5261 25.3156 26.0969 25.3156C25.6677 25.3156 25.3198 25.6636 25.3198 26.0928C25.3198 29.7839 28.312 32.7762 32.0032 32.7762C35.6943 32.7762 38.6866 29.7839 38.6866 26.0928C38.6866 25.6636 38.3387 25.3156 37.9095 25.3156C37.4803 25.3156 37.1323 25.6636 37.1323 26.0928C37.1323 28.9255 34.8359 31.2219 32.0032 31.2219C29.1704 31.2219 26.874 28.9255 26.874 26.0928Z" clip-rule="evenodd"/></g><path fill="#11243E" d="M80 20.2359V55.4359H87.5283V27.7159H97.7137C103.339 27.7159 107.899 32.2468 107.899 37.8359V55.4359H115.427V37.8359C115.427 28.1157 107.497 20.2359 97.7137 20.2359H80Z"/><path fill="#11243E" fill-rule="evenodd" d="M146.177 34.9434C145.455 30.3637 142.646 26.9893 137.028 26.9893C131.81 26.9893 128.199 29.8801 127.237 34.9434H146.177ZM137.911 48.6047C142.325 48.6047 145.535 46.8367 147.462 44.9886L152.197 49.9705C149.066 53.1054 144.734 55.4359 137.992 55.4359C126.434 55.4359 118.97 47.9631 118.97 37.8377C118.97 27.7913 126.836 20.2359 136.946 20.2359C148.423 20.2359 154.924 28.7549 154.364 40.5693H127.237C128.199 45.4721 131.73 48.6047 137.911 48.6047Z" clip-rule="evenodd"/><path fill="#11243E" fill-rule="evenodd" d="M185.148 34.9434C184.426 30.3637 181.616 26.9893 175.998 26.9893C170.78 26.9893 167.169 29.8801 166.207 34.9434H185.148ZM176.881 48.6047C181.295 48.6047 184.505 46.8367 186.432 44.9886L191.167 49.9705C188.036 53.1054 183.704 55.4359 176.962 55.4359C165.404 55.4359 157.94 47.9631 157.94 37.8377C157.94 27.7913 165.807 20.2359 175.916 20.2359C187.393 20.2359 193.894 28.7549 193.334 40.5693H166.207C167.169 45.4721 170.7 48.6047 176.881 48.6047Z" clip-rule="evenodd"/><path fill="#11243E" fill-rule="evenodd" d="M196.91 20.5394H202.851V11.4359H210.4V20.5394H217.809V27.3631H210.4V41.1903C210.4 47.4451 211.378 48.4168 217.809 48.4168V55.4359H216.691C206.066 55.4359 202.851 52.0999 202.851 41.2606V27.3631H196.91V20.5394Z" clip-rule="evenodd"/><path fill="#11243E" fill-rule="evenodd" d="M249.544 37.8365C249.544 31.8791 244.9 27.0053 239.031 27.0053C233.16 27.0053 228.587 31.8791 228.587 37.8365C228.587 43.7928 233.16 48.6666 239.031 48.6666C244.9 48.6666 249.544 43.7928 249.544 37.8365ZM221.351 37.8365C221.351 27.9531 229.201 20.2359 239.031 20.2359C248.861 20.2359 256.779 27.9531 256.779 37.8365C256.779 47.6514 248.861 55.4359 239.031 55.4359C229.201 55.4359 221.351 47.6514 221.351 37.8365Z" clip-rule="evenodd"/><path fill="#11243E" d="M278.051 55.8746C275.126 55.8746 272.494 55.3733 270.155 54.3706C267.815 53.3262 265.977 51.8639 264.64 49.9839C263.303 48.1039 262.635 45.9106 262.635 43.4039H270.28C270.447 45.2839 271.178 46.8297 272.473 48.0413C273.81 49.2528 275.669 49.8586 278.051 49.8586C280.516 49.8586 282.437 49.2737 283.816 48.1039C285.195 46.8924 285.884 45.3466 285.884 43.4666C285.884 42.0044 285.445 40.8137 284.568 39.8946C283.732 38.9755 282.667 38.2653 281.372 37.7639C280.119 37.2626 278.364 36.7195 276.108 36.1346C273.267 35.3826 270.948 34.6306 269.152 33.8786C267.397 33.0848 265.893 31.8733 264.64 30.2439C263.387 28.6146 262.76 26.4422 262.76 23.7266C262.76 21.2199 263.387 19.0266 264.64 17.1466C265.893 15.2666 267.648 13.8253 269.904 12.8226C272.16 11.8199 274.771 11.3186 277.737 11.3186C281.957 11.3186 285.404 12.3839 288.077 14.5146C290.793 16.6035 292.297 19.4862 292.589 23.1626H284.693C284.568 21.575 283.816 20.2173 282.437 19.0893C281.059 17.9613 279.241 17.3973 276.985 17.3973C274.938 17.3973 273.267 17.9195 271.972 18.9639C270.677 20.0084 270.029 21.5124 270.029 23.4759C270.029 24.8128 270.426 25.9199 271.22 26.7973C272.056 27.6328 273.1 28.3013 274.353 28.8026C275.607 29.3039 277.32 29.8471 279.492 30.4319C282.375 31.2257 284.714 32.0195 286.511 32.8133C288.349 33.6071 289.895 34.8395 291.148 36.5106C292.443 38.1399 293.091 40.3333 293.091 43.0906C293.091 45.3048 292.485 47.3937 291.273 49.3573C290.104 51.3208 288.37 52.9084 286.072 54.1199C283.816 55.2897 281.142 55.8746 278.051 55.8746Z"/><path fill="#11243E" d="M309.188 26.7346V45.8479C309.188 47.1431 309.481 48.0831 310.066 48.6679C310.692 49.2111 311.737 49.4826 313.199 49.4826H317.586V55.4359H311.946C308.729 55.4359 306.264 54.6839 304.551 53.1799C302.838 51.6759 301.982 49.2319 301.982 45.8479V26.7346H297.908V20.9066H301.982V12.3213H309.188V20.9066H317.586V26.7346H309.188Z"/><path fill="#11243E" d="M338.481 55.9999C335.222 55.9999 332.277 55.2688 329.645 53.8066C327.013 52.3026 324.945 50.2137 323.441 47.5399C321.937 44.8244 321.185 41.6911 321.185 38.1399C321.185 34.6306 321.958 31.5182 323.503 28.8026C325.049 26.0871 327.159 23.9982 329.833 22.5359C332.507 21.0737 335.494 20.3426 338.794 20.3426C342.095 20.3426 345.082 21.0737 347.755 22.5359C350.429 23.9982 352.539 26.0871 354.085 28.8026C355.63 31.5182 356.403 34.6306 356.403 38.1399C356.403 41.6493 355.61 44.7617 354.022 47.4773C352.435 50.1928 350.262 52.3026 347.505 53.8066C344.789 55.2688 341.781 55.9999 338.481 55.9999ZM338.481 49.7959C340.319 49.7959 342.032 49.3573 343.619 48.4799C345.249 47.6026 346.565 46.2866 347.567 44.5319C348.57 42.7773 349.071 40.6466 349.071 38.1399C349.071 35.6333 348.591 33.5235 347.63 31.8106C346.669 30.0559 345.395 28.7399 343.807 27.8626C342.22 26.9853 340.507 26.5466 338.669 26.5466C336.831 26.5466 335.118 26.9853 333.53 27.8626C331.984 28.7399 330.752 30.0559 329.833 31.8106C328.914 33.5235 328.454 35.6333 328.454 38.1399C328.454 41.8582 329.394 44.7408 331.274 46.7879C333.196 48.7933 335.598 49.7959 338.481 49.7959Z"/><path fill="#11243E" d="M369.943 25.9199C370.987 24.1653 372.366 22.8075 374.079 21.8466C375.834 20.8439 377.902 20.3426 380.283 20.3426V27.7373H378.466C375.667 27.7373 373.536 28.4475 372.074 29.8679C370.653 31.2884 369.943 33.7533 369.943 37.2626V55.4359H362.799V20.9066H369.943V25.9199Z"/><path fill="#11243E" d="M417.83 37.3253C417.83 38.6204 417.746 39.7902 417.579 40.8346H391.196C391.405 43.5919 392.429 45.8062 394.267 47.4773C396.105 49.1484 398.361 49.9839 401.035 49.9839C404.879 49.9839 407.594 48.3755 409.182 45.1586H416.89C415.845 48.3337 413.944 50.9448 411.187 52.9919C408.472 54.9973 405.088 55.9999 401.035 55.9999C397.735 55.9999 394.768 55.2688 392.136 53.8066C389.546 52.3026 387.499 50.2137 385.995 47.5399C384.533 44.8244 383.802 41.6911 383.802 38.1399C383.802 34.5888 384.512 31.4764 385.932 28.8026C387.395 26.0871 389.421 23.9982 392.011 22.5359C394.643 21.0737 397.651 20.3426 401.035 20.3426C404.294 20.3426 407.197 21.0528 409.746 22.4733C412.294 23.8937 414.279 25.8991 415.699 28.4893C417.12 31.0377 417.83 33.9831 417.83 37.3253ZM410.372 35.0693C410.331 32.4373 409.391 30.3275 407.552 28.7399C405.714 27.1524 403.437 26.3586 400.722 26.3586C398.257 26.3586 396.147 27.1524 394.392 28.7399C392.638 30.2857 391.593 32.3955 391.259 35.0693H410.372Z"/><path stroke="#11243E" stroke-width=".333" d="M80 20.2359V55.4359H87.5283V27.7159H97.7137C103.339 27.7159 107.899 32.2468 107.899 37.8359V55.4359H115.427V37.8359C115.427 28.1157 107.497 20.2359 97.7137 20.2359H80Z"/><path fill-rule="evenodd" stroke="#11243E" stroke-width=".333" d="M146.177 34.9434C145.455 30.3637 142.646 26.9893 137.028 26.9893C131.81 26.9893 128.199 29.8801 127.237 34.9434H146.177ZM137.911 48.6047C142.325 48.6047 145.535 46.8367 147.462 44.9886L152.197 49.9705C149.066 53.1054 144.734 55.4359 137.992 55.4359C126.434 55.4359 118.97 47.9631 118.97 37.8377C118.97 27.7913 126.836 20.2359 136.946 20.2359C148.423 20.2359 154.924 28.7549 154.364 40.5693H127.237C128.199 45.4721 131.73 48.6047 137.911 48.6047Z" clip-rule="evenodd"/><path fill-rule="evenodd" stroke="#11243E" stroke-width=".333" d="M185.148 34.9434C184.426 30.3637 181.616 26.9893 175.998 26.9893C170.78 26.9893 167.169 29.8801 166.207 34.9434H185.148ZM176.881 48.6047C181.295 48.6047 184.505 46.8367 186.432 44.9886L191.167 49.9705C188.036 53.1054 183.704 55.4359 176.962 55.4359C165.404 55.4359 157.94 47.9631 157.94 37.8377C157.94 27.7913 165.807 20.2359 175.916 20.2359C187.393 20.2359 193.894 28.7549 193.334 40.5693H166.207C167.169 45.4721 170.7 48.6047 176.881 48.6047Z" clip-rule="evenodd"/><path fill-rule="evenodd" stroke="#11243E" stroke-width=".333" d="M196.91 20.5394H202.851V11.4359H210.4V20.5394H217.809V27.3631H210.4V41.1903C210.4 47.4451 211.378 48.4168 217.809 48.4168V55.4359H216.691C206.066 55.4359 202.851 52.0999 202.851 41.2606V27.3631H196.91V20.5394Z" clip-rule="evenodd"/><path fill-rule="evenodd" stroke="#11243E" stroke-width=".333" d="M249.544 37.8365C249.544 31.8791 244.9 27.0053 239.031 27.0053C233.16 27.0053 228.587 31.8791 228.587 37.8365C228.587 43.7928 233.16 48.6666 239.031 48.6666C244.9 48.6666 249.544 43.7928 249.544 37.8365ZM221.351 37.8365C221.351 27.9531 229.201 20.2359 239.031 20.2359C248.861 20.2359 256.779 27.9531 256.779 37.8365C256.779 47.6514 248.861 55.4359 239.031 55.4359C229.201 55.4359 221.351 47.6514 221.351 37.8365Z" clip-rule="evenodd"/><path stroke="#11243E" stroke-width=".333" d="M278.051 55.8746C275.126 55.8746 272.494 55.3733 270.155 54.3706C267.815 53.3262 265.977 51.8639 264.64 49.9839C263.303 48.1039 262.635 45.9106 262.635 43.4039H270.28C270.447 45.2839 271.178 46.8297 272.473 48.0413C273.81 49.2528 275.669 49.8586 278.051 49.8586C280.516 49.8586 282.437 49.2737 283.816 48.1039C285.195 46.8924 285.884 45.3466 285.884 43.4666C285.884 42.0044 285.445 40.8137 284.568 39.8946C283.732 38.9755 282.667 38.2653 281.372 37.7639C280.119 37.2626 278.364 36.7195 276.108 36.1346C273.267 35.3826 270.948 34.6306 269.152 33.8786C267.397 33.0848 265.893 31.8733 264.64 30.2439C263.387 28.6146 262.76 26.4422 262.76 23.7266C262.76 21.2199 263.387 19.0266 264.64 17.1466C265.893 15.2666 267.648 13.8253 269.904 12.8226C272.16 11.8199 274.771 11.3186 277.737 11.3186C281.957 11.3186 285.404 12.3839 288.077 14.5146C290.793 16.6035 292.297 19.4862 292.589 23.1626H284.693C284.568 21.575 283.816 20.2173 282.437 19.0893C281.059 17.9613 279.241 17.3973 276.985 17.3973C274.938 17.3973 273.267 17.9195 271.972 18.9639C270.677 20.0084 270.029 21.5124 270.029 23.4759C270.029 24.8128 270.426 25.9199 271.22 26.7973C272.056 27.6328 273.1 28.3013 274.353 28.8026C275.607 29.3039 277.32 29.8471 279.492 30.4319C282.375 31.2257 284.714 32.0195 286.511 32.8133C288.349 33.6071 289.895 34.8395 291.148 36.5106C292.443 38.1399 293.091 40.3333 293.091 43.0906C293.091 45.3048 292.485 47.3937 291.273 49.3573C290.104 51.3208 288.37 52.9084 286.072 54.1199C283.816 55.2897 281.142 55.8746 278.051 55.8746Z"/><path stroke="#11243E" stroke-width=".333" d="M309.188 26.7346V45.8479C309.188 47.1431 309.481 48.0831 310.066 48.6679C310.692 49.2111 311.737 49.4826 313.199 49.4826H317.586V55.4359H311.946C308.729 55.4359 306.264 54.6839 304.551 53.1799C302.838 51.6759 301.982 49.2319 301.982 45.8479V26.7346H297.908V20.9066H301.982V12.3213H309.188V20.9066H317.586V26.7346H309.188Z"/><path stroke="#11243E" stroke-width=".333" d="M338.481 55.9999C335.222 55.9999 332.277 55.2688 329.645 53.8066C327.013 52.3026 324.945 50.2137 323.441 47.5399C321.937 44.8244 321.185 41.6911 321.185 38.1399C321.185 34.6306 321.958 31.5182 323.503 28.8026C325.049 26.0871 327.159 23.9982 329.833 22.5359C332.507 21.0737 335.494 20.3426 338.794 20.3426C342.095 20.3426 345.082 21.0737 347.755 22.5359C350.429 23.9982 352.539 26.0871 354.085 28.8026C355.63 31.5182 356.403 34.6306 356.403 38.1399C356.403 41.6493 355.61 44.7617 354.022 47.4773C352.435 50.1928 350.262 52.3026 347.505 53.8066C344.789 55.2688 341.781 55.9999 338.481 55.9999ZM338.481 49.7959C340.319 49.7959 342.032 49.3573 343.619 48.4799C345.249 47.6026 346.565 46.2866 347.567 44.5319C348.57 42.7773 349.071 40.6466 349.071 38.1399C349.071 35.6333 348.591 33.5235 347.63 31.8106C346.669 30.0559 345.395 28.7399 343.807 27.8626C342.22 26.9853 340.507 26.5466 338.669 26.5466C336.831 26.5466 335.118 26.9853 333.53 27.8626C331.984 28.7399 330.752 30.0559 329.833 31.8106C328.914 33.5235 328.454 35.6333 328.454 38.1399C328.454 41.8582 329.394 44.7408 331.274 46.7879C333.196 48.7933 335.598 49.7959 338.481 49.7959Z"/><path stroke="#11243E" stroke-width=".333" d="M369.943 25.9199C370.987 24.1653 372.366 22.8075 374.079 21.8466C375.834 20.8439 377.902 20.3426 380.283 20.3426V27.7373H378.466C375.667 27.7373 373.536 28.4475 372.074 29.8679C370.653 31.2884 369.943 33.7533 369.943 37.2626V55.4359H362.799V20.9066H369.943V25.9199Z"/><path stroke="#11243E" stroke-width=".333" d="M417.83 37.3253C417.83 38.6204 417.746 39.7902 417.579 40.8346H391.196C391.405 43.5919 392.429 45.8062 394.267 47.4773C396.105 49.1484 398.361 49.9839 401.035 49.9839C404.879 49.9839 407.594 48.3755 409.182 45.1586H416.89C415.845 48.3337 413.944 50.9448 411.187 52.9919C408.472 54.9973 405.088 55.9999 401.035 55.9999C397.735 55.9999 394.768 55.2688 392.136 53.8066C389.546 52.3026 387.499 50.2137 385.995 47.5399C384.533 44.8244 383.802 41.6911 383.802 38.1399C383.802 34.5888 384.512 31.4764 385.932 28.8026C387.395 26.0871 389.421 23.9982 392.011 22.5359C394.643 21.0737 397.651 20.3426 401.035 20.3426C404.294 20.3426 407.197 21.0528 409.746 22.4733C412.294 23.8937 414.279 25.8991 415.699 28.4893C417.12 31.0377 417.83 33.9831 417.83 37.3253ZM410.372 35.0693C410.331 32.4373 409.391 30.3275 407.552 28.7399C405.714 27.1524 403.437 26.3586 400.722 26.3586C398.257 26.3586 396.147 27.1524 394.392 28.7399C392.638 30.2857 391.593 32.3955 391.259 35.0693H410.372Z"/><defs><filter id="filter0_d_3239_12179" width="29.314" height="30.314" x="20.345" y="20.343" color-interpolation-filters="sRGB" filterUnits="userSpaceOnUse"><feFlood flood-opacity="0" result="BackgroundImageFix"/><feColorMatrix in="SourceAlpha" result="hardAlpha" type="matrix" values="0 0 0 0 0 0 0 0 0 0 0 0 0 0 0 0 0 0 127 0"/><feOffset dx="3" dy="4"/><feGaussianBlur stdDeviation="1.5"/><feComposite in2="hardAlpha" operator="out"/><feColorMatrix type="matrix" values="0 0 0 0 0 0 0 0 0 0 0 0 0 0 0 0 0 0 0.05 0"/><feBlend in2="BackgroundImageFix" mode="normal" result="effect1_dropShadow_3239_12179"/><feBlend in="SourceGraphic" in2="effect1_dropShadow_3239_12179" mode="normal" result="shape"/></filter><linearGradient id="paint0_linear_3239_12179" x1="59.771" x2="15.543" y1="70.229" y2="3.714" gradientUnits="userSpaceOnUse"><stop stop-color="#3C5BFF"/><stop offset=".699" stop-color="#55ABE9"/></linearGradient></defs></svg>