<svg xmlns="http://www.w3.org/2000/svg" width="417" height="153" fill="none" viewBox="0 0 417 153"><g clip-path="url(#clip0_318_35868)" data-logo-icon="neeto-typeface-logo__icon"><path fill="#5BCC5A" fill-rule="evenodd" d="M70.6196 105.147C90.0508 105.147 105.803 89.3945 105.803 69.9632C105.803 50.532 90.0508 34.7799 70.6196 34.7799C51.1883 34.7799 35.4362 50.532 35.4362 69.9632C35.4362 89.3945 51.1883 105.147 70.6196 105.147ZM70.6196 132.051C104.91 132.051 132.708 104.254 132.708 69.9632C132.708 35.6729 104.91 7.875 70.6196 7.875C36.3291 7.875 8.53125 35.6729 8.53125 69.9632C8.53125 104.254 36.3291 132.051 70.6196 132.051Z" clip-rule="evenodd"/><path fill="#75DC66" d="M75.7705 75.1143C82.2248 68.6599 92.6894 68.6599 99.1438 75.1143L131.282 107.253C137.736 113.707 137.736 124.171 131.282 130.626C124.828 137.08 114.363 137.08 107.909 130.626L75.7705 98.4876C69.3161 92.0332 69.3161 81.5686 75.7705 75.1143Z"/><path fill="#0DA84C" d="M80.9029 103.62L101.26 123.977C111 118.44 119.096 110.344 124.633 100.604L104.276 80.2469C100.87 91.4084 92.0644 100.214 80.9029 103.62Z"/></g><g data-logo-text="neeto-typeface-logo__text"><path fill="#000" d="M232.825 149.622L220.602 134.977C217.22 135.823 213.76 136.245 210.224 136.245C202.69 136.245 195.772 134.477 189.468 130.941C183.164 127.405 178.167 122.523 174.477 116.296C170.787 109.993 168.942 102.882 168.942 94.9635C168.942 87.1223 170.787 80.0882 174.477 73.8613C178.167 67.5576 183.164 62.6376 189.468 59.1013C195.772 55.5651 202.69 53.797 210.224 53.797C217.835 53.797 224.753 55.5651 230.98 59.1013C237.284 62.6376 242.243 67.5576 245.856 73.8613C249.546 80.0882 251.391 87.1223 251.391 94.9635C251.391 102.113 249.853 108.647 246.778 114.567C243.78 120.409 239.667 125.175 234.44 128.865L252.89 149.622H232.825ZM185.547 94.9635C185.547 100.345 186.585 105.073 188.661 109.147C190.736 113.221 193.619 116.373 197.309 118.603C201.076 120.755 205.381 121.831 210.224 121.831C215.067 121.831 219.334 120.755 223.024 118.603C226.714 116.373 229.597 113.221 231.672 109.147C233.748 105.073 234.786 100.345 234.786 94.9635C234.786 89.5823 233.748 84.8929 231.672 80.8954C229.597 76.821 226.714 73.7076 223.024 71.5551C219.334 69.4026 215.067 68.3263 210.224 68.3263C205.381 68.3263 201.076 69.4026 197.309 71.5551C193.619 73.7076 190.736 76.821 188.661 80.8954C186.585 84.8929 185.547 89.5823 185.547 94.9635Z" data-dark-mode-color="true"/><path fill="#000" d="M321.629 71.5551V135.438H305.37V127.366C303.294 130.134 300.565 132.325 297.182 133.939C293.877 135.477 290.264 136.245 286.343 136.245C281.346 136.245 276.926 135.208 273.082 133.132C269.238 130.979 266.202 127.866 263.972 123.792C261.82 119.64 260.744 114.72 260.744 109.032V71.5551H276.887V106.725C276.887 111.799 278.156 115.72 280.693 118.487C283.229 121.178 286.689 122.523 291.071 122.523C295.529 122.523 299.027 121.178 301.564 118.487C304.101 115.72 305.37 111.799 305.37 106.725V71.5551H321.629Z" data-dark-mode-color="true"/><path fill="#000" d="M343.438 63.9445C340.594 63.9445 338.21 63.0604 336.289 61.2923C334.444 59.4473 333.521 57.1795 333.521 54.4888C333.521 51.7982 334.444 49.5688 336.289 47.8007C338.21 45.9557 340.594 45.0332 343.438 45.0332C346.282 45.0332 348.627 45.9557 350.472 47.8007C352.394 49.5688 353.355 51.7982 353.355 54.4888C353.355 57.1795 352.394 59.4473 350.472 61.2923C348.627 63.0604 346.282 63.9445 343.438 63.9445ZM351.395 71.5551V135.438H335.251V71.5551H351.395Z" data-dark-mode-color="true"/><path fill="#000" d="M379.798 122.177H408.281V135.438H361.464V122.408L389.369 84.816H361.579V71.5551H407.935V84.5854L379.798 122.177Z" data-dark-mode-color="true"/><path fill="#000" d="M229.622 25.5097C229.622 26.3731 229.564 27.1502 229.449 27.841H211.978C212.122 29.5679 212.726 30.9206 213.79 31.8992C214.854 32.8777 216.163 33.367 217.716 33.367C219.959 33.367 221.555 32.4028 222.504 30.4745H229.018C228.327 32.777 227.005 34.6766 225.049 36.1732C223.094 37.6411 220.692 38.375 217.845 38.375C215.544 38.375 213.474 37.8713 211.633 36.864C209.822 35.8278 208.398 34.3744 207.363 32.5036C206.356 30.6328 205.853 28.4742 205.853 26.0278C205.853 23.5525 206.356 21.3795 207.363 19.5087C208.369 17.638 209.778 16.1989 211.59 15.1915C213.402 14.1842 215.487 13.6805 217.845 13.6805C220.117 13.6805 222.144 14.1698 223.927 15.1484C225.739 16.1269 227.134 17.5228 228.112 19.3361C229.118 21.1205 229.622 23.1784 229.622 25.5097ZM223.367 23.7828C223.338 22.2286 222.777 20.991 221.684 20.07C220.592 19.1202 219.254 18.6453 217.673 18.6453C216.177 18.6453 214.912 19.1058 213.877 20.0268C212.87 20.919 212.252 22.171 212.022 23.7828H223.367Z" data-dark-mode-color="true"/><path fill="#000" d="M256.245 25.5097C256.245 26.3731 256.188 27.1502 256.073 27.841H238.602C238.746 29.5679 239.35 30.9206 240.414 31.8992C241.478 32.8777 242.787 33.367 244.34 33.367C246.583 33.367 248.179 32.4028 249.128 30.4745H255.641C254.951 32.777 253.628 34.6766 251.673 36.1732C249.717 37.6411 247.316 38.375 244.469 38.375C242.168 38.375 240.098 37.8713 238.257 36.864C236.445 35.8278 235.022 34.3744 233.987 32.5036C232.98 30.6328 232.477 28.4742 232.477 26.0278C232.477 23.5525 232.98 21.3795 233.987 19.5087C234.993 17.638 236.402 16.1989 238.214 15.1915C240.026 14.1842 242.111 13.6805 244.469 13.6805C246.741 13.6805 248.768 14.1698 250.551 15.1484C252.363 16.1269 253.758 17.5228 254.736 19.3361C255.742 21.1205 256.245 23.1784 256.245 25.5097ZM249.99 23.7828C249.962 22.2286 249.401 20.991 248.308 20.07C247.215 19.1202 245.878 18.6453 244.296 18.6453C242.801 18.6453 241.536 19.1058 240.5 20.0268C239.494 20.919 238.875 22.171 238.645 23.7828H249.99Z" data-dark-mode-color="true"/><path fill="#000" d="M267.785 18.9874V30.6615C267.785 31.4674 267.997 31.9999 268.371 32.374C268.774 32.7194 269.435 32.8921 270.356 32.8921H273.16V37.9864H269.364C264.273 37.9864 261.838 35.383 261.838 30.4326V18.9874H258.636V13.9515H261.838V8H267.785V13.9515H273.16V18.9874H267.785Z" data-dark-mode-color="true"/><path fill="#000" d="M287.989 38.375C285.689 38.375 283.618 37.8713 281.778 36.864C279.937 35.8278 278.485 34.3744 277.421 32.5036C276.385 30.6328 275.868 28.4742 275.868 26.0278C275.868 23.5813 276.4 21.4227 277.464 19.5519C278.557 17.6811 280.038 16.2421 281.907 15.2347C283.776 14.1986 285.861 13.6805 288.162 13.6805C290.463 13.6805 292.548 14.1986 294.417 15.2347C296.286 16.2421 297.753 17.6811 298.817 19.5519C299.91 21.4227 300.456 23.5813 300.456 26.0278C300.456 28.4742 299.895 30.6328 298.774 32.5036C297.681 34.3744 296.185 35.8278 294.287 36.864C292.418 37.8713 290.319 38.375 287.989 38.375ZM287.989 33.108C289.082 33.108 290.103 32.849 291.052 32.3309C292.03 31.784 292.806 30.9782 293.382 29.9132C293.957 28.8483 294.244 27.5532 294.244 26.0278C294.244 23.754 293.64 22.0127 292.432 20.8039C291.253 19.5663 289.801 18.9475 288.076 18.9475C286.35 18.9475 284.898 19.5663 283.719 20.8039C282.568 22.0127 281.993 23.754 281.993 26.0278C281.993 28.3015 282.554 30.0572 283.676 31.2948C284.826 32.5036 286.264 33.108 287.989 33.108Z" data-dark-mode-color="true"/><path fill="#000" d="M200.752 8H189.159L200.752 25.3903V8Z" data-dark-mode-color="true"/><path fill="#000" d="M172 38.375L172 8H180.372L200.752 38.375H192.136L178.724 18.666V38.375H172Z" data-dark-mode-color="true"/></g><defs><clipPath id="clip0_318_35868"><rect width="128.25" height="128.25" fill="#fff" transform="translate(7.96875 7.875)"/></clipPath></defs></svg>