<svg width="353" height="64" viewBox="0 0 353 64" fill="none" xmlns="http://www.w3.org/2000/svg">
<path d="M56 32C56 18.7452 45.2548 8 32 8H8V56H56V32Z" fill="url(#paint0_linear_3478_4199)"/>
<g filter="url(#filter0_d_3478_4199)">
<path d="M20.3428 20.3428H27.9589V26.226C26.967 26.555 26.2527 27.4914 26.2556 28.5934C26.2584 29.6908 26.9717 30.6204 27.9589 30.9479V35.4476C26.966 35.7739 26.249 36.7086 26.249 37.8107C26.249 39.1842 27.3624 40.2976 28.7359 40.2976C30.1093 40.2976 31.2227 39.1842 31.2227 37.8107C31.2227 36.7088 30.506 35.7742 29.5132 35.4478V30.952C29.8379 30.8463 30.1332 30.6755 30.3838 30.4552L33.0439 31.991C33.0121 32.1508 32.9957 32.316 32.9961 32.4852C32.9997 33.8587 34.116 34.9692 35.4894 34.9656C36.8629 34.962 37.9734 33.8457 37.9698 32.4723C37.9662 31.0988 36.8499 29.9883 35.4765 29.9919C34.8346 29.9936 34.2502 30.2382 33.8101 30.6386L31.1729 29.116C31.2103 28.9435 31.2297 28.7643 31.2293 28.5805C31.2264 27.4783 30.507 26.5455 29.5132 26.2218V20.3428H31.9999C38.438 20.3428 43.6571 25.5619 43.6571 31.9999V43.6571H20.3428V20.3428Z" fill="white"/>
</g>
<path d="M80 20.2574V55.4574H87.5283V27.7374H97.7137C103.339 27.7374 107.899 32.2682 107.899 37.8574V55.4574H115.427V37.8574C115.427 28.1371 107.497 20.2574 97.7137 20.2574H80Z" fill="#11243E"/>
<path fill-rule="evenodd" clip-rule="evenodd" d="M146.177 34.9648C145.455 30.3851 142.646 27.0108 137.028 27.0108C131.81 27.0108 128.199 29.9015 127.237 34.9648H146.177ZM137.911 48.6261C142.325 48.6261 145.535 46.8582 147.462 45.01L152.197 49.9919C149.066 53.1268 144.734 55.4574 137.992 55.4574C126.434 55.4574 118.97 47.9845 118.97 37.8591C118.97 27.8128 126.836 20.2574 136.946 20.2574C148.423 20.2574 154.924 28.7764 154.364 40.5907H127.237C128.199 45.4936 131.73 48.6261 137.911 48.6261Z" fill="#11243E"/>
<path fill-rule="evenodd" clip-rule="evenodd" d="M185.148 34.9648C184.426 30.3851 181.616 27.0108 175.998 27.0108C170.78 27.0108 167.169 29.9015 166.207 34.9648H185.148ZM176.881 48.6261C181.295 48.6261 184.505 46.8582 186.432 45.01L191.167 49.9919C188.036 53.1268 183.704 55.4574 176.962 55.4574C165.404 55.4574 157.94 47.9845 157.94 37.8591C157.94 27.8128 165.807 20.2574 175.916 20.2574C187.393 20.2574 193.894 28.7764 193.334 40.5907H166.207C167.169 45.4936 170.7 48.6261 176.881 48.6261Z" fill="#11243E"/>
<path fill-rule="evenodd" clip-rule="evenodd" d="M196.91 20.5608H202.851V11.4574H210.4V20.5608H217.809V27.3845H210.4V41.2117C210.4 47.4665 211.378 48.4382 217.809 48.4382V55.4574H216.691C206.066 55.4574 202.851 52.1213 202.851 41.282V27.3845H196.91V20.5608Z" fill="#11243E"/>
<path fill-rule="evenodd" clip-rule="evenodd" d="M249.544 37.8579C249.544 31.9005 244.9 27.0267 239.031 27.0267C233.16 27.0267 228.587 31.9005 228.587 37.8579C228.587 43.8142 233.16 48.688 239.031 48.688C244.9 48.688 249.544 43.8142 249.544 37.8579ZM221.351 37.8579C221.351 27.9745 229.201 20.2574 239.031 20.2574C248.861 20.2574 256.779 27.9745 256.779 37.8579C256.779 47.6728 248.861 55.4574 239.031 55.4574C229.201 55.4574 221.351 47.6728 221.351 37.8579Z" fill="#11243E"/>
<path d="M295.221 24.4374C294.093 22.2649 292.527 20.6356 290.521 19.5494C288.516 18.4214 286.197 17.8574 283.565 17.8574C280.683 17.8574 278.113 18.5049 275.857 19.8C273.601 21.0951 271.826 22.9334 270.531 25.3147C269.277 27.696 268.651 30.4534 268.651 33.5867C268.651 36.72 269.277 39.4982 270.531 41.9214C271.826 44.3027 273.601 46.1409 275.857 47.436C278.113 48.7311 280.683 49.3787 283.565 49.3787C287.451 49.3787 290.605 48.2925 293.028 46.12C295.451 43.9476 296.934 41.0022 297.477 37.284H281.121V31.5814H305.123V37.1587C304.663 40.5427 303.452 43.6551 301.488 46.496C299.566 49.3369 297.039 51.6138 293.905 53.3267C290.814 54.9978 287.367 55.8334 283.565 55.8334C279.471 55.8334 275.732 54.8934 272.348 53.0134C268.964 51.0916 266.269 48.4387 264.264 45.0547C262.3 41.6707 261.319 37.848 261.319 33.5867C261.319 29.3254 262.3 25.5027 264.264 22.1187C266.269 18.7347 268.964 16.1027 272.348 14.2227C275.774 12.3009 279.513 11.34 283.565 11.34C288.203 11.34 292.318 12.4889 295.911 14.7867C299.545 17.0427 302.177 20.2596 303.807 24.4374H295.221Z" fill="#11243E"/>
<path d="M315.137 16.3534C313.842 16.3534 312.755 15.9147 311.878 15.0374C311.001 14.16 310.562 13.0738 310.562 11.7787C310.562 10.4836 311.001 9.39735 311.878 8.52002C312.755 7.64269 313.842 7.20402 315.137 7.20402C316.39 7.20402 317.455 7.64269 318.333 8.52002C319.21 9.39735 319.649 10.4836 319.649 11.7787C319.649 13.0738 319.21 14.16 318.333 15.0374C317.455 15.9147 316.39 16.3534 315.137 16.3534ZM318.646 20.928V55.4574H311.502V20.928H318.646Z" fill="#11243E"/>
<path d="M335.694 26.756V45.8694C335.694 47.1645 335.986 48.1045 336.571 48.6894C337.198 49.2325 338.242 49.504 339.704 49.504H344.091V55.4574H338.451C335.234 55.4574 332.769 54.7054 331.056 53.2014C329.343 51.6974 328.487 49.2534 328.487 45.8694V26.756H324.414V20.928H328.487V12.3427H335.694V20.928H344.091V26.756H335.694Z" fill="#11243E"/>
<path fill-rule="evenodd" clip-rule="evenodd" d="M315.137 7.37069C313.884 7.37069 312.841 7.79329 311.996 8.63787C311.151 9.48245 310.729 10.5256 310.729 11.7787C310.729 13.0318 311.151 14.0749 311.996 14.9195C312.841 15.7641 313.884 16.1867 315.137 16.1867C316.346 16.1867 317.369 15.7652 318.215 14.9195C319.059 14.0749 319.482 13.0318 319.482 11.7787C319.482 10.5256 319.059 9.48245 318.215 8.63787C317.369 7.79215 316.346 7.37069 315.137 7.37069ZM311.76 8.40217C312.67 7.49209 313.8 7.03735 315.137 7.03735C316.434 7.03735 317.542 7.49323 318.451 8.40217C319.361 9.31225 319.815 10.4415 319.815 11.7787C319.815 13.1158 319.361 14.2451 318.451 15.1552C317.542 16.0641 316.434 16.52 315.137 16.52C313.8 16.52 312.67 16.0653 311.76 15.1552C310.85 14.2451 310.395 13.1158 310.395 11.7787C310.395 10.4415 310.85 9.31225 311.76 8.40217ZM283.565 11.5067C279.54 11.5067 275.83 12.4607 272.43 14.368C269.072 16.2333 266.398 18.8443 264.408 22.203C262.461 25.5592 261.485 29.3523 261.485 33.5867C261.485 37.8211 262.461 41.6142 264.408 44.9704C266.398 48.3293 269.072 50.961 272.43 52.8682C275.787 54.7333 279.498 55.6667 283.565 55.6667C287.341 55.6667 290.76 54.8371 293.825 53.1804C296.936 51.4798 299.444 49.2206 301.35 46.4026L301.351 46.4013C303.298 43.5848 304.499 40.5008 304.956 37.1474V31.748H281.288V37.1174H297.67L297.642 37.3081C297.094 41.0586 295.596 44.0417 293.139 46.2441C290.68 48.4491 287.483 49.5454 283.565 49.5454C280.657 49.5454 278.058 48.8917 275.774 47.5806C273.49 46.2694 271.693 44.4082 270.384 42.001L270.383 41.9979C269.115 39.5479 268.484 36.7427 268.484 33.5867C268.484 30.4308 269.115 27.646 270.383 25.2371L270.384 25.2351C271.693 22.8278 273.49 20.9666 275.774 19.6555C278.058 18.3443 280.657 17.6907 283.565 17.6907C286.221 17.6907 288.568 18.2599 290.602 19.4035C292.61 20.4917 294.184 22.1161 295.322 24.2707H303.561C301.938 20.2353 299.359 17.1233 295.823 14.9283L295.821 14.9271C292.257 12.648 288.174 11.5067 283.565 11.5067ZM272.267 14.0772C275.718 12.1411 279.485 11.1734 283.565 11.1734C288.231 11.1734 292.378 12.3296 295.999 14.6456C299.666 16.9216 302.32 20.1675 303.962 24.3768L304.051 24.604H295.12L295.073 24.5142C293.96 22.369 292.416 20.7651 290.442 19.6959L290.44 19.6946C288.463 18.5826 286.173 18.024 283.565 18.024C280.709 18.024 278.168 18.6655 275.94 19.9446C273.713 21.2235 271.959 23.0384 270.678 25.3934C269.439 27.7469 268.817 30.4764 268.817 33.5867C268.817 36.6967 269.439 39.4475 270.678 41.8433C271.959 44.1979 273.713 46.0127 275.94 47.2915C278.168 48.5706 280.709 49.212 283.565 49.212C287.418 49.212 290.53 48.1358 292.917 45.9959C295.265 43.8906 296.723 41.0463 297.284 37.4507H280.955V31.4147H305.289V37.17L305.288 37.1811C304.825 40.5912 303.604 43.7282 301.625 46.5902C299.688 49.4537 297.141 51.748 293.985 53.4729C290.867 55.1583 287.392 56 283.565 56C279.444 56 275.677 55.0536 272.267 53.159L272.266 53.1583C268.856 51.222 266.141 48.5483 264.121 45.1397L264.12 45.1383C262.14 41.7267 261.152 37.8747 261.152 33.5867C261.152 29.2987 262.14 25.4467 264.12 22.035L264.121 22.0337C266.141 18.6248 268.857 15.9717 272.267 14.0772ZM328.32 12.176H335.86V20.7614H344.258V26.9227H335.86V45.8694C335.86 47.1412 336.147 48.027 336.684 48.5673C337.266 49.0679 338.258 49.3374 339.704 49.3374H344.258V55.624H338.451C335.21 55.624 332.7 54.8665 330.946 53.3266C329.183 51.7782 328.32 49.2778 328.32 45.8694V26.9227H324.247V20.7614H328.32V12.176ZM328.654 12.5094V21.0947H324.58V26.5894H328.654V45.8694C328.654 49.2289 329.504 51.6165 331.166 53.0761C332.838 54.5442 335.258 55.2907 338.451 55.2907H343.924V49.6707H339.704C338.23 49.6707 337.135 49.3984 336.462 48.8153L336.453 48.8075C335.823 48.1776 335.527 47.1844 335.527 45.8694V26.5894H343.924V21.0947H335.527V12.5094H328.654ZM311.335 20.7614H318.813V55.624H311.335V20.7614ZM311.669 21.0947V55.2907H318.479V21.0947H311.669Z" fill="#11243E"/>
<defs>
<filter id="filter0_d_3478_4199" x="20.3428" y="20.3428" width="29.3145" height="30.3142" filterUnits="userSpaceOnUse" color-interpolation-filters="sRGB">
<feFlood flood-opacity="0" result="BackgroundImageFix"/>
<feColorMatrix in="SourceAlpha" type="matrix" values="0 0 0 0 0 0 0 0 0 0 0 0 0 0 0 0 0 0 127 0" result="hardAlpha"/>
<feOffset dx="3" dy="4"/>
<feGaussianBlur stdDeviation="1.5"/>
<feComposite in2="hardAlpha" operator="out"/>
<feColorMatrix type="matrix" values="0 0 0 0 0 0 0 0 0 0 0 0 0 0 0 0 0 0 0.05 0"/>
<feBlend mode="normal" in2="BackgroundImageFix" result="effect1_dropShadow_3478_4199"/>
<feBlend mode="normal" in="SourceGraphic" in2="effect1_dropShadow_3478_4199" result="shape"/>
</filter>
<linearGradient id="paint0_linear_3478_4199" x1="82.2286" y1="95.7714" x2="-19.4286" y2="-21.6571" gradientUnits="userSpaceOnUse">
<stop stop-color="#FF4E6E"/>
<stop offset="0.696114" stop-color="#FF8B8B"/>
</linearGradient>
</defs>
</svg>
