<svg width="338" height="65" viewBox="0 0 338 65" fill="none" xmlns="http://www.w3.org/2000/svg">
<path d="M48 32.9956C48 19.7408 37.2548 8.99561 24 8.99561H0V56.9956H48V32.9956Z" fill="url(#paint0_linear_3688_21394)"/>
<path d="M17.0516 23.4529C16.4614 23.5764 15.7586 24.0843 15.2754 24.7322C15.0613 25.0177 14.8087 25.5421 14.7099 25.8935L14.6357 26.1653V34.8543V43.5433L14.7126 43.7849C15.0393 44.8309 16.0249 45.8055 17.156 46.2008L17.4085 46.2886L20.9555 46.2969L24.5025 46.3024L25.8148 44.9379C26.5396 44.1857 27.5828 43.1013 28.1346 42.5275C28.6864 41.9537 29.1339 41.4815 29.1312 41.476C29.1257 41.4706 29.0735 41.4925 29.0159 41.52C28.9582 41.5502 28.8374 41.5968 28.7468 41.627C28.5903 41.6737 28.368 41.6765 23.7777 41.6765C18.5341 41.6765 18.8471 41.6847 18.493 41.5145C18.2404 41.3937 17.9549 41.1054 17.8258 40.8391C17.6172 40.4136 17.6227 39.9085 17.8396 39.4665C18.0125 39.1096 18.4463 38.7582 18.8224 38.6731C18.9048 38.6538 20.552 38.6429 23.7503 38.6429C29.0351 38.6429 28.6864 38.6319 29.0433 38.8103C29.2657 38.9229 29.5759 39.2331 29.6885 39.4555C29.823 39.7218 29.8669 39.9332 29.8505 40.2352C29.8395 40.4822 29.823 40.5481 29.6802 40.9078C29.6665 40.9435 29.6665 40.9544 29.6857 40.9352C29.6995 40.9187 30.0701 40.5371 30.5066 40.0842C30.9431 39.6312 31.6679 38.879 32.1181 38.415L32.9335 37.5694V33.5365V29.5036L30.9513 29.4926C29.0488 29.4844 28.9582 29.4816 28.7715 29.4267C27.8162 29.1522 27.1655 28.3588 26.8882 27.1344C26.8333 26.8928 26.8278 26.7857 26.8196 25.1412L26.8086 23.4062L22.0262 23.4089C17.9027 23.4117 17.2164 23.4172 17.0516 23.4529ZM28.7194 32.5894C29.1202 32.6937 29.5183 33.0231 29.7022 33.3992C29.9795 33.9648 29.8944 34.6182 29.4826 35.0712C29.2959 35.2771 29.0982 35.4088 28.8264 35.5049L28.6096 35.5818H23.7503H18.891L18.6961 35.5104C17.8917 35.2167 17.4964 34.4068 17.7545 33.5804C17.8945 33.1275 18.3475 32.6964 18.8032 32.5866C18.9157 32.5592 20.0029 32.5537 23.7503 32.5509C27.9836 32.5482 28.5766 32.5537 28.7194 32.5894Z" fill="white"/>
<path d="M28.3491 25.0311C28.36 26.6044 28.36 26.6676 28.4204 26.8735C28.566 27.3925 28.879 27.8263 29.1701 27.9087C29.225 27.9252 29.991 27.9362 31.1003 27.9362H32.9345L32.9236 27.5819C32.9126 27.2415 32.9098 27.2222 32.8137 27.0273C32.5776 26.5523 31.8252 25.7752 30.4825 24.6247C29.3485 23.6527 28.9449 23.4056 28.4863 23.4056H28.3408L28.3491 25.0311Z" fill="white"/>
<path d="M34.6445 38.2204C34.5182 38.2643 34.2848 38.4428 33.9416 38.7586L33.7109 38.97L34.7269 39.9887C35.2843 40.5461 35.7566 41.0046 35.773 41.0046C35.7923 41.0046 35.9405 40.8701 36.1025 40.7026C36.4403 40.3649 36.5803 40.1425 36.5803 39.953C36.5776 39.4944 36.3167 38.992 35.8774 38.5938C35.6495 38.3879 35.4902 38.3 35.2184 38.2314C34.974 38.1682 34.801 38.1655 34.6445 38.2204Z" fill="white"/>
<path d="M31.7734 40.8845C31.1665 41.486 30.0021 42.6559 29.1837 43.488C27.4645 45.2346 27.5854 45.0726 27.2998 45.9733C27.0636 46.7176 26.9702 47.102 26.951 47.3739C26.9373 47.5991 26.94 47.6128 27.0059 47.6897C27.0691 47.7666 27.091 47.7721 27.2503 47.7694C27.4755 47.7666 28.1017 47.6128 28.736 47.3986C29.3457 47.1982 29.6176 47.0691 29.8675 46.8768C29.9746 46.7945 31.1582 45.6246 32.5039 44.2761L34.9481 41.8265L33.9319 40.8104C33.3745 40.2502 32.9076 39.7943 32.8966 39.7943C32.8856 39.7943 32.3803 40.2859 31.7734 40.8845Z" fill="white"/>
<path fill-rule="evenodd" clip-rule="evenodd" d="M90.0869 21.6226H73.2396L81.5754 29.8206H90.0869C95.4511 29.8206 99.7948 34.0714 99.7948 39.3091V56.9956H108.174V39.3091C108.174 29.5385 100.074 21.6226 90.0869 21.6226ZM80.379 31.0143L71.9995 22.7734V56.9956H80.379V31.0143ZM144.981 51.2125L139.664 45.7081L139.345 46.009C137.5 47.751 134.408 49.4336 130.134 49.4336C127.13 49.4336 124.814 48.6851 123.139 47.3898C121.593 46.1932 120.559 44.5034 120.046 42.4212H146.946L146.966 42.0092C147.248 36.1373 145.75 31.0399 142.685 27.4026C139.614 23.7575 135.007 21.6226 129.173 21.6226C118.87 21.6226 110.825 29.2122 110.825 39.3108C110.825 44.3842 112.727 48.8137 116.119 51.9734C119.51 55.1321 124.362 56.9956 130.215 56.9956C137.052 56.9956 141.479 54.663 144.679 51.5107L144.981 51.2125ZM183.806 51.2125L178.489 45.7081L178.17 46.009C176.325 47.751 173.233 49.4336 168.959 49.4336C165.955 49.4336 163.639 48.6851 161.964 47.3898C160.418 46.1932 159.384 44.5034 158.871 42.4212H185.771L185.791 42.0092C186.073 36.1373 184.575 31.0399 181.51 27.4026C178.439 23.7575 173.832 21.6226 167.998 21.6226C157.695 21.6226 149.65 29.2122 149.65 39.3108C149.65 44.3842 151.552 48.8137 154.944 51.9734C158.336 55.1321 163.187 56.9956 169.04 56.9956C175.877 56.9956 180.304 54.663 183.504 51.5107L183.806 51.2125ZM194.393 21.9201H188.475V29.4747H194.393V42.6664C194.393 47.9929 195.188 51.6241 197.443 53.9013C199.7 56.1821 203.311 56.9956 208.621 56.9956H210.174V49.2494H209.735C208.137 49.2494 206.91 49.1894 205.961 49.0123C205.015 48.8359 204.386 48.5505 203.949 48.1299C203.513 47.7103 203.219 47.1098 203.038 46.2073C202.855 45.2997 202.794 44.1261 202.794 42.5975V29.4747H210.174V21.9201H202.794V12.9956H194.393V21.9201ZM129.255 29.1083C131.961 29.1083 133.945 29.9051 135.34 31.205C136.631 32.4093 137.452 34.0787 137.846 36.0409H120.043C120.556 33.8916 121.602 32.2136 123.064 31.0494C124.642 29.7934 126.738 29.1083 129.255 29.1083ZM168.08 29.1083C170.786 29.1083 172.77 29.9051 174.165 31.205C175.457 32.4093 176.278 34.0787 176.671 36.0409H158.868C159.381 33.8916 160.427 32.2136 161.889 31.0494C163.467 29.7934 165.563 29.1083 168.08 29.1083ZM230.878 29.1239C236.468 29.1239 240.912 33.6936 240.912 39.3097C240.912 44.9246 236.468 49.4942 230.878 49.4942C225.291 49.4942 220.912 44.9284 220.912 39.3097C220.912 33.6898 225.291 29.1239 230.878 29.1239ZM230.878 21.6226C220.846 21.6226 212.825 29.3783 212.825 39.3097C212.825 49.1728 220.845 56.9956 230.878 56.9956C240.909 56.9956 249 49.175 249 39.3097C249 29.3761 240.908 21.6226 230.878 21.6226Z" fill="#11243E"/>
<path d="M280.015 56.7369L264.098 37.2476V56.7369H255.324V12.9956H264.098V32.6103L280.015 12.9956H290.606L272.558 34.6783L291.107 56.7369H280.015Z" fill="#11243E"/>
<path d="M321.027 34.3023C323.492 34.7618 325.518 35.9943 327.106 37.9996C328.693 40.0049 329.487 42.3027 329.487 44.8929C329.487 47.2325 328.902 49.3005 327.732 51.0969C326.604 52.8516 324.954 54.2303 322.782 55.2329C320.609 56.2356 318.04 56.7369 315.074 56.7369H296.211V12.9956H314.259C317.225 12.9956 319.774 13.476 321.904 14.4369C324.077 15.3978 325.706 16.7347 326.792 18.4476C327.92 20.1605 328.484 22.1032 328.484 24.2756C328.484 26.824 327.795 28.9547 326.416 30.6676C325.079 32.3805 323.283 33.592 321.027 34.3023ZM304.984 31.0436H313.006C315.094 31.0436 316.703 30.584 317.831 29.6649C318.959 28.7041 319.523 27.3463 319.523 25.5916C319.523 23.8369 318.959 22.4792 317.831 21.5183C316.703 20.5574 315.094 20.0769 313.006 20.0769H304.984V31.0436ZM313.82 49.5929C315.951 49.5929 317.601 49.0916 318.771 48.0889C319.982 47.0863 320.588 45.6658 320.588 43.8276C320.588 41.9476 319.962 40.4854 318.708 39.4409C317.455 38.3547 315.763 37.8116 313.632 37.8116H304.984V49.5929H313.82Z" fill="#11243E"/>
<defs>
<linearGradient id="paint0_linear_3688_21394" x1="24.2939" y1="90.9384" x2="24.2939" y2="-0.515609" gradientUnits="userSpaceOnUse">
<stop stop-color="#18C0D3"/>
<stop offset="1" stop-color="#65CDA1"/>
</linearGradient>
</defs>
</svg>
