<svg xmlns="http://www.w3.org/2000/svg" width="389" height="153" fill="none" viewBox="0 0 389 153"><g clip-path="url(#clip0_318_36096)" data-logo-icon="neeto-typeface-logo__icon"><path fill="#5BCC5A" d="M66.1683 94.0922C62.0426 89.9665 62.0426 83.2773 66.1683 79.1516C70.2941 75.0258 76.9832 75.0258 81.109 79.1516L115.11 113.152C119.235 117.278 119.235 123.967 115.11 128.093C110.984 132.219 104.295 132.219 100.169 128.093L66.1683 94.0922Z"/><path fill="#75DC66" d="M111.12 69.5655C111.12 70.8333 110.092 71.8612 108.824 71.8612L86.7403 71.8612L86.7403 9.60821C86.7403 8.34032 87.7681 7.3125 89.036 7.3125L108.824 7.3125C110.092 7.3125 111.12 8.34032 111.12 9.60821L111.12 69.5655Z"/><path fill="#75DC66" d="M86.739 71.8612L64.6548 71.8612C63.3869 71.8612 62.3591 70.8334 62.3591 69.5655L62.3591 27.9512C62.3591 26.6833 63.3869 25.6555 64.6548 25.6555L86.739 25.6555L86.739 71.8612Z"/><path fill="#5BCC5A" d="M102.065 71.8614C102.065 93.7895 84.2888 111.566 62.3606 111.566C40.4325 111.566 22.6562 93.7895 22.6562 71.8614C22.6562 49.9333 40.4325 32.157 62.3606 32.157C84.2888 32.157 102.065 49.9333 102.065 71.8614Z"/><path fill="#0DA84C" d="M62.36 32.1515C62.3599 32.1515 62.3601 32.1515 62.36 32.1515C71.5501 32.1515 80.0112 35.2738 86.7399 40.5156C96.0658 47.7806 102.064 59.1171 102.065 71.8545H64.6819C63.3996 71.8545 62.36 70.8149 62.36 69.5326L62.36 32.1515Z"/></g><g data-logo-text="neeto-typeface-logo__text"><path fill="#000" d="M201.278 136.37C195.666 136.37 190.593 135.409 186.057 133.487C181.598 131.566 178.062 128.798 175.448 125.185C172.834 121.572 171.489 117.305 171.412 112.385H188.709C188.94 115.691 190.093 118.305 192.168 120.227C194.321 122.148 197.242 123.109 200.932 123.109C204.699 123.109 207.659 122.225 209.811 120.457C211.964 118.612 213.04 116.229 213.04 113.308C213.04 110.925 212.31 108.964 210.849 107.427C209.388 105.889 207.543 104.698 205.314 103.852C203.162 102.93 200.163 101.93 196.32 100.854C191.092 99.3166 186.826 97.8175 183.52 96.3569C180.291 94.8194 177.485 92.5516 175.102 89.5534C172.796 86.4784 171.643 82.4041 171.643 77.3303C171.643 72.5641 172.834 68.4128 175.218 64.8766C177.601 61.3403 180.945 58.6497 185.25 56.8047C189.555 54.8828 194.475 53.9219 200.01 53.9219C208.312 53.9219 215.039 55.9591 220.189 60.0334C225.417 64.0309 228.3 69.6428 228.838 76.8691H211.08C210.926 74.1016 209.734 71.8337 207.505 70.0656C205.353 68.2206 202.47 67.2981 198.857 67.2981C195.705 67.2981 193.168 68.1053 191.246 69.7197C189.401 71.3341 188.478 73.6787 188.478 76.7537C188.478 78.9062 189.17 80.7128 190.554 82.1734C192.015 83.5572 193.783 84.7103 195.858 85.6328C198.011 86.4784 201.009 87.4778 204.853 88.6309C210.08 90.1684 214.347 91.7059 217.653 93.2434C220.958 94.7809 223.803 97.0872 226.186 100.162C228.569 103.237 229.76 107.273 229.76 112.27C229.76 116.575 228.646 120.573 226.416 124.263C224.187 127.952 220.92 130.912 216.615 133.142C212.31 135.294 207.198 136.37 201.278 136.37Z" data-dark-mode-color="true"/><path fill="#000" d="M257.594 68.1053V88.285H284.692V101.085H257.594V122.417H288.152V135.563H241.45V54.9597H288.152V68.1053H257.594Z" data-dark-mode-color="true"/><path fill="#000" d="M337.878 136.37C330.344 136.37 323.425 134.602 317.121 131.066C310.818 127.53 305.821 122.648 302.131 116.421C298.441 110.118 296.596 103.007 296.596 95.0884C296.596 87.2472 298.441 80.2131 302.131 73.9862C305.821 67.6825 310.818 62.7625 317.121 59.2262C323.425 55.69 330.344 53.9219 337.878 53.9219C345.488 53.9219 352.407 55.69 358.634 59.2262C364.938 62.7625 369.896 67.6825 373.509 73.9862C377.199 80.2131 379.044 87.2472 379.044 95.0884C379.044 103.007 377.199 110.118 373.509 116.421C369.896 122.648 364.938 127.53 358.634 131.066C352.33 134.602 345.411 136.37 337.878 136.37ZM337.878 121.956C342.721 121.956 346.987 120.88 350.677 118.728C354.367 116.498 357.25 113.346 359.326 109.272C361.401 105.198 362.439 100.47 362.439 95.0884C362.439 89.7072 361.401 85.0178 359.326 81.0203C357.25 76.9459 354.367 73.8325 350.677 71.68C346.987 69.5275 342.721 68.4512 337.878 68.4512C333.034 68.4512 328.729 69.5275 324.963 71.68C321.273 73.8325 318.39 76.9459 316.314 81.0203C314.238 85.0178 313.201 89.7072 313.201 95.0884C313.201 100.47 314.238 105.198 316.314 109.272C318.39 113.346 321.273 116.498 324.963 118.728C328.729 120.88 333.034 121.956 337.878 121.956Z" data-dark-mode-color="true"/><path fill="#000" d="M229.622 25.5097C229.622 26.3731 229.564 27.1502 229.449 27.841H211.978C212.122 29.5679 212.726 30.9206 213.79 31.8992C214.854 32.8777 216.163 33.367 217.716 33.367C219.959 33.367 221.555 32.4028 222.504 30.4745H229.018C228.327 32.777 227.005 34.6766 225.049 36.1732C223.094 37.6411 220.692 38.375 217.845 38.375C215.544 38.375 213.474 37.8713 211.633 36.864C209.822 35.8278 208.398 34.3744 207.363 32.5036C206.356 30.6328 205.853 28.4742 205.853 26.0278C205.853 23.5525 206.356 21.3795 207.363 19.5087C208.369 17.638 209.778 16.1989 211.59 15.1915C213.402 14.1842 215.487 13.6805 217.845 13.6805C220.117 13.6805 222.144 14.1698 223.927 15.1484C225.739 16.1269 227.134 17.5228 228.112 19.3361C229.118 21.1205 229.622 23.1784 229.622 25.5097ZM223.367 23.7828C223.338 22.2286 222.777 20.991 221.684 20.07C220.592 19.1202 219.254 18.6453 217.673 18.6453C216.177 18.6453 214.912 19.1058 213.877 20.0268C212.87 20.919 212.252 22.171 212.022 23.7828H223.367Z" data-dark-mode-color="true"/><path fill="#000" d="M256.245 25.5097C256.245 26.3731 256.188 27.1502 256.073 27.841H238.602C238.746 29.5679 239.35 30.9206 240.414 31.8992C241.478 32.8777 242.787 33.367 244.34 33.367C246.583 33.367 248.179 32.4028 249.128 30.4745H255.641C254.951 32.777 253.628 34.6766 251.673 36.1732C249.717 37.6411 247.316 38.375 244.469 38.375C242.168 38.375 240.098 37.8713 238.257 36.864C236.445 35.8278 235.022 34.3744 233.987 32.5036C232.98 30.6328 232.477 28.4742 232.477 26.0278C232.477 23.5525 232.98 21.3795 233.987 19.5087C234.993 17.638 236.402 16.1989 238.214 15.1915C240.026 14.1842 242.111 13.6805 244.469 13.6805C246.741 13.6805 248.768 14.1698 250.551 15.1484C252.363 16.1269 253.758 17.5228 254.736 19.3361C255.742 21.1205 256.245 23.1784 256.245 25.5097ZM249.99 23.7828C249.962 22.2286 249.401 20.991 248.308 20.07C247.215 19.1202 245.878 18.6453 244.296 18.6453C242.801 18.6453 241.536 19.1058 240.5 20.0268C239.494 20.919 238.875 22.171 238.645 23.7828H249.99Z" data-dark-mode-color="true"/><path fill="#000" d="M267.785 18.9874V30.6615C267.785 31.4674 267.997 31.9999 268.371 32.374C268.774 32.7194 269.435 32.8921 270.356 32.8921H273.16V37.9864H269.364C264.273 37.9864 261.838 35.383 261.838 30.4326V18.9874H258.636V13.9515H261.838V8H267.785V13.9515H273.16V18.9874H267.785Z" data-dark-mode-color="true"/><path fill="#000" d="M287.989 38.375C285.689 38.375 283.618 37.8713 281.778 36.864C279.937 35.8278 278.485 34.3744 277.421 32.5036C276.385 30.6328 275.868 28.4742 275.868 26.0278C275.868 23.5813 276.4 21.4227 277.464 19.5519C278.557 17.6811 280.038 16.2421 281.907 15.2347C283.776 14.1986 285.861 13.6805 288.162 13.6805C290.463 13.6805 292.548 14.1986 294.417 15.2347C296.286 16.2421 297.753 17.6811 298.817 19.5519C299.91 21.4227 300.456 23.5813 300.456 26.0278C300.456 28.4742 299.895 30.6328 298.774 32.5036C297.681 34.3744 296.185 35.8278 294.287 36.864C292.418 37.8713 290.319 38.375 287.989 38.375ZM287.989 33.108C289.082 33.108 290.103 32.849 291.052 32.3309C292.03 31.784 292.806 30.9782 293.382 29.9132C293.957 28.8483 294.244 27.5532 294.244 26.0278C294.244 23.754 293.64 22.0127 292.432 20.8039C291.253 19.5663 289.801 18.9475 288.076 18.9475C286.35 18.9475 284.898 19.5663 283.719 20.8039C282.568 22.0127 281.993 23.754 281.993 26.0278C281.993 28.3015 282.554 30.0572 283.676 31.2948C284.826 32.5036 286.264 33.108 287.989 33.108Z" data-dark-mode-color="true"/><path fill="#000" d="M200.752 8H189.159L200.752 25.3903V8Z" data-dark-mode-color="true"/><path fill="#000" d="M172 38.375L172 8H180.372L200.752 38.375H192.136L178.724 18.666V38.375H172Z" data-dark-mode-color="true"/></g><defs><clipPath id="clip0_318_36096"><rect width="128.25" height="128.25" fill="#fff" transform="translate(8.59375 7.875)"/></clipPath></defs></svg>