<svg width="482" height="71" viewBox="0 0 482 71" fill="none" xmlns="http://www.w3.org/2000/svg">
<path d="M56 32C56 18.7452 45.2548 8 32 8H8V56H56V32Z" fill="url(#paint0_linear_3240_12534)"/>
<g filter="url(#filter0_d_3240_12534)">
<path d="M18.9336 35.5337C21.0621 32.4698 22.3142 30.4958 23.227 29.0371C19.7189 29.3474 16.3563 33.7126 16.3563 33.7126L18.6719 36.028C18.739 35.8568 18.8248 35.6905 18.9336 35.5337Z" fill="white"/>
<path d="M27.9742 45.3318L30.2882 47.6457C30.2882 47.6457 34.6532 44.2834 34.9636 40.7754C33.5053 41.6879 31.532 42.9395 28.4671 45.0685C28.3121 45.1761 28.1468 45.264 27.9742 45.3318Z" fill="white"/>
<path d="M24.4558 44.1347C24.0586 44.2952 23.6682 44.4658 23.2611 44.6018C22.174 44.9652 21.0544 45.2107 19.9192 45.3673C19.4434 45.433 18.9632 45.4887 18.4821 45.5252C18.4867 45.4658 18.4911 45.4063 18.4961 45.347C18.5954 44.1904 18.7714 43.0398 19.0557 41.9135C19.1927 41.3699 19.3675 40.8415 19.5551 40.3139C19.6718 39.9858 19.8174 39.6719 19.9643 39.3579L19.7097 39.1035C19.1435 39.4839 18.6511 39.9644 18.2332 40.5082C17.6146 41.3133 17.1509 42.2254 16.8267 43.1866C16.4784 44.2187 16.2707 45.3117 16.2384 46.4013C16.2338 46.5544 16.2233 46.7108 16.247 46.8627C16.2775 47.0589 16.3637 47.2446 16.4931 47.395C16.6212 47.5439 16.7898 47.6563 16.9767 47.7165C17.1335 47.7671 17.2913 47.768 17.4539 47.7668C18.4431 47.7585 19.4477 47.5866 20.3946 47.3053C22.1264 46.7908 23.8748 45.8228 24.8995 44.2931L24.6518 44.0456C24.5868 44.0761 24.5217 44.106 24.4558 44.1347Z" fill="white"/>
<path d="M43.7203 20.2822C43.7203 20.2822 43.7201 20.2821 43.7199 20.282C43.5397 20.1019 43.2955 20.001 43.0413 20.001C43.035 20.001 43.0286 20.0011 43.0223 20.0012C39.9313 20.0618 32.305 20.6399 28.255 24.6902C26.4165 26.5287 25.8189 27.4857 24.5092 29.5831C23.566 31.0931 22.2747 33.1614 19.9147 36.5582C19.6496 36.94 19.6957 37.4568 20.0244 37.7853L26.2161 43.9772C26.4019 44.163 26.6479 44.2586 26.8956 44.2586C27.086 44.2586 27.2772 44.2022 27.4432 44.0869C30.8413 41.7264 32.9088 40.4354 34.4183 39.4925C36.5154 38.1829 37.4727 37.5852 39.3116 35.7465C43.3688 31.689 43.9429 24.0678 44.0011 20.9794C44.0062 20.7186 43.9047 20.4669 43.7203 20.2822ZM36.5504 31.9652C35.3038 33.2117 33.283 33.2117 32.0364 31.9652C30.7897 30.7186 30.7899 28.6979 32.0366 27.4514C33.283 26.2049 35.3038 26.2047 36.5504 27.4512C37.7966 28.6976 37.7968 30.7188 36.5504 31.9652Z" fill="white"/>
</g>
<path d="M80 19.1733V54.3733H87.5283V26.6533H97.7137C103.339 26.6533 107.899 31.1842 107.899 36.7733V54.3733H115.427V36.7733C115.427 27.0531 107.497 19.1733 97.7137 19.1733H80Z" fill="#11243E"/>
<path fill-rule="evenodd" clip-rule="evenodd" d="M146.177 33.8808C145.455 29.3011 142.646 25.9267 137.028 25.9267C131.81 25.9267 128.199 28.8175 127.237 33.8808H146.177ZM137.911 47.5421C142.325 47.5421 145.535 45.7741 147.462 43.926L152.197 48.9079C149.066 52.0428 144.734 54.3733 137.992 54.3733C126.434 54.3733 118.97 46.9005 118.97 36.7751C118.97 26.7287 126.836 19.1733 136.946 19.1733C148.423 19.1733 154.924 27.6923 154.364 39.5067H127.237C128.199 44.4095 131.73 47.5421 137.911 47.5421Z" fill="#11243E"/>
<path fill-rule="evenodd" clip-rule="evenodd" d="M185.148 33.8808C184.426 29.3011 181.616 25.9267 175.998 25.9267C170.78 25.9267 167.169 28.8175 166.207 33.8808H185.148ZM176.881 47.5421C181.295 47.5421 184.505 45.7741 186.432 43.926L191.167 48.9079C188.036 52.0428 183.704 54.3733 176.962 54.3733C165.404 54.3733 157.94 46.9005 157.94 36.7751C157.94 26.7287 165.807 19.1733 175.916 19.1733C187.393 19.1733 193.894 27.6923 193.334 39.5067H166.207C167.169 44.4095 170.7 47.5421 176.881 47.5421Z" fill="#11243E"/>
<path fill-rule="evenodd" clip-rule="evenodd" d="M196.91 19.4768H202.851V10.3733H210.4V19.4768H217.809V26.3005H210.4V40.1276C210.4 46.3825 211.378 47.3542 217.809 47.3542V54.3733H216.691C206.066 54.3733 202.851 51.0372 202.851 40.198V26.3005H196.91V19.4768Z" fill="#11243E"/>
<path fill-rule="evenodd" clip-rule="evenodd" d="M249.544 36.7739C249.544 30.8165 244.9 25.9427 239.031 25.9427C233.16 25.9427 228.587 30.8165 228.587 36.7739C228.587 42.7302 233.16 47.604 239.031 47.604C244.9 47.604 249.544 42.7302 249.544 36.7739ZM221.351 36.7739C221.351 26.8905 229.201 19.1733 239.031 19.1733C248.861 19.1733 256.779 26.8905 256.779 36.7739C256.779 46.5888 248.861 54.3733 239.031 54.3733C229.201 54.3733 221.351 46.5888 221.351 36.7739Z" fill="#11243E"/>
<path d="M277.925 10.82C282.563 10.82 286.615 11.7182 290.083 13.5147C293.592 15.2693 296.287 17.8178 298.167 21.16C300.088 24.4604 301.049 28.3249 301.049 32.7533C301.049 37.1818 300.088 41.0253 298.167 44.284C296.287 47.5427 293.592 50.0493 290.083 51.804C286.615 53.5169 282.563 54.3733 277.925 54.3733H263.7V10.82H277.925ZM277.925 48.5453C283.022 48.5453 286.928 47.1667 289.644 44.4093C292.36 41.652 293.717 37.7667 293.717 32.7533C293.717 27.6982 292.36 23.7502 289.644 20.9093C286.928 18.0684 283.022 16.648 277.925 16.648H270.844V48.5453H277.925Z" fill="#11243E"/>
<path d="M339.11 36.2627C339.11 37.5578 339.026 38.7276 338.859 39.772H312.476C312.685 42.5293 313.709 44.7436 315.547 46.4147C317.385 48.0858 319.641 48.9213 322.315 48.9213C326.159 48.9213 328.874 47.3129 330.462 44.096H338.17C337.125 47.2711 335.224 49.8822 332.467 51.9293C329.751 53.9347 326.367 54.9373 322.315 54.9373C319.015 54.9373 316.048 54.2062 313.416 52.744C310.826 51.24 308.779 49.1511 307.275 46.4773C305.813 43.7618 305.082 40.6284 305.082 37.0773C305.082 33.5262 305.792 30.4138 307.212 27.74C308.675 25.0244 310.701 22.9356 313.291 21.4733C315.923 20.0111 318.931 19.28 322.315 19.28C325.574 19.28 328.477 19.9902 331.026 21.4107C333.574 22.8311 335.559 24.8364 336.979 27.4267C338.399 29.9751 339.11 32.9204 339.11 36.2627ZM331.652 34.0067C331.611 31.3747 330.671 29.2649 328.832 27.6773C326.994 26.0898 324.717 25.296 322.002 25.296C319.537 25.296 317.427 26.0898 315.672 27.6773C313.918 29.2231 312.873 31.3329 312.539 34.0067H331.652Z" fill="#11243E"/>
<path d="M352.617 24.92C353.829 23.3324 355.479 21.9956 357.568 20.9093C359.657 19.8231 362.017 19.28 364.649 19.28C367.657 19.28 370.394 20.032 372.859 21.536C375.365 22.9982 377.329 25.0662 378.749 27.74C380.17 30.4138 380.88 33.4844 380.88 36.952C380.88 40.4196 380.17 43.532 378.749 46.2893C377.329 49.0049 375.365 51.1356 372.859 52.6813C370.394 54.1853 367.657 54.9373 364.649 54.9373C362.017 54.9373 359.678 54.4151 357.631 53.3707C355.584 52.2844 353.913 50.9476 352.617 49.36V70.792H345.473V19.844H352.617V24.92ZM373.611 36.952C373.611 34.5707 373.109 32.5236 372.107 30.8107C371.146 29.056 369.851 27.74 368.221 26.8627C366.634 25.9436 364.921 25.484 363.083 25.484C361.286 25.484 359.573 25.9436 357.944 26.8627C356.357 27.7818 355.061 29.1187 354.059 30.8733C353.098 32.628 352.617 34.696 352.617 37.0773C352.617 39.4587 353.098 41.5476 354.059 43.344C355.061 45.0987 356.357 46.4356 357.944 47.3547C359.573 48.2738 361.286 48.7333 363.083 48.7333C364.921 48.7333 366.634 48.2738 368.221 47.3547C369.851 46.3938 371.146 45.0151 372.107 43.2187C373.109 41.4222 373.611 39.3333 373.611 36.952Z" fill="#11243E"/>
<path d="M394.422 8V54.3733H387.278V8H394.422Z" fill="#11243E"/>
<path d="M418.112 54.9373C414.854 54.9373 411.908 54.2062 409.276 52.744C406.644 51.24 404.576 49.1511 403.072 46.4773C401.568 43.7618 400.816 40.6284 400.816 37.0773C400.816 33.568 401.589 30.4556 403.135 27.74C404.681 25.0244 406.79 22.9356 409.464 21.4733C412.138 20.0111 415.125 19.28 418.426 19.28C421.726 19.28 424.713 20.0111 427.387 21.4733C430.061 22.9356 432.17 25.0244 433.716 27.74C435.262 30.4556 436.035 33.568 436.035 37.0773C436.035 40.5867 435.241 43.6991 433.654 46.4147C432.066 49.1302 429.894 51.24 427.136 52.744C424.421 54.2062 421.413 54.9373 418.112 54.9373ZM418.112 48.7333C419.95 48.7333 421.663 48.2947 423.251 47.4173C424.88 46.54 426.196 45.224 427.199 43.4693C428.202 41.7147 428.703 39.584 428.703 37.0773C428.703 34.5707 428.222 32.4609 427.262 30.748C426.301 28.9933 425.026 27.6773 423.439 26.8C421.851 25.9227 420.138 25.484 418.3 25.484C416.462 25.484 414.749 25.9227 413.162 26.8C411.616 27.6773 410.383 28.9933 409.464 30.748C408.545 32.4609 408.086 34.5707 408.086 37.0773C408.086 40.7956 409.026 43.6782 410.906 45.7253C412.827 47.7307 415.23 48.7333 418.112 48.7333Z" fill="#11243E"/>
<path d="M473.513 19.844L452.332 70.604H444.937L451.956 53.8093L438.357 19.844H446.316L456.029 46.164L466.118 19.844H473.513Z" fill="#11243E"/>
<path d="M80 19.1733V54.3733H87.5283V26.6533H97.7137C103.339 26.6533 107.899 31.1842 107.899 36.7733V54.3733H115.427V36.7733C115.427 27.0531 107.497 19.1733 97.7137 19.1733H80Z" stroke="#11243E" stroke-width="0.333333"/>
<path fill-rule="evenodd" clip-rule="evenodd" d="M146.177 33.8808C145.455 29.3011 142.646 25.9267 137.028 25.9267C131.81 25.9267 128.199 28.8175 127.237 33.8808H146.177ZM137.911 47.5421C142.325 47.5421 145.535 45.7741 147.462 43.926L152.197 48.9079C149.066 52.0428 144.734 54.3733 137.992 54.3733C126.434 54.3733 118.97 46.9005 118.97 36.7751C118.97 26.7287 126.836 19.1733 136.946 19.1733C148.423 19.1733 154.924 27.6923 154.364 39.5067H127.237C128.199 44.4095 131.73 47.5421 137.911 47.5421Z" stroke="#11243E" stroke-width="0.333333"/>
<path fill-rule="evenodd" clip-rule="evenodd" d="M185.148 33.8808C184.426 29.3011 181.616 25.9267 175.998 25.9267C170.78 25.9267 167.169 28.8175 166.207 33.8808H185.148ZM176.881 47.5421C181.295 47.5421 184.505 45.7741 186.432 43.926L191.167 48.9079C188.036 52.0428 183.704 54.3733 176.962 54.3733C165.404 54.3733 157.94 46.9005 157.94 36.7751C157.94 26.7287 165.807 19.1733 175.916 19.1733C187.393 19.1733 193.894 27.6923 193.334 39.5067H166.207C167.169 44.4095 170.7 47.5421 176.881 47.5421Z" stroke="#11243E" stroke-width="0.333333"/>
<path fill-rule="evenodd" clip-rule="evenodd" d="M196.91 19.4768H202.851V10.3733H210.4V19.4768H217.809V26.3005H210.4V40.1276C210.4 46.3825 211.378 47.3542 217.809 47.3542V54.3733H216.691C206.066 54.3733 202.851 51.0372 202.851 40.198V26.3005H196.91V19.4768Z" stroke="#11243E" stroke-width="0.333333"/>
<path fill-rule="evenodd" clip-rule="evenodd" d="M249.544 36.7739C249.544 30.8165 244.9 25.9427 239.031 25.9427C233.16 25.9427 228.587 30.8165 228.587 36.7739C228.587 42.7302 233.16 47.604 239.031 47.604C244.9 47.604 249.544 42.7302 249.544 36.7739ZM221.351 36.7739C221.351 26.8905 229.201 19.1733 239.031 19.1733C248.861 19.1733 256.779 26.8905 256.779 36.7739C256.779 46.5888 248.861 54.3733 239.031 54.3733C229.201 54.3733 221.351 46.5888 221.351 36.7739Z" stroke="#11243E" stroke-width="0.333333"/>
<path d="M277.925 10.82C282.563 10.82 286.615 11.7182 290.083 13.5147C293.592 15.2693 296.287 17.8178 298.167 21.16C300.088 24.4604 301.049 28.3249 301.049 32.7533C301.049 37.1818 300.088 41.0253 298.167 44.284C296.287 47.5427 293.592 50.0493 290.083 51.804C286.615 53.5169 282.563 54.3733 277.925 54.3733H263.7V10.82H277.925ZM277.925 48.5453C283.022 48.5453 286.928 47.1667 289.644 44.4093C292.36 41.652 293.717 37.7667 293.717 32.7533C293.717 27.6982 292.36 23.7502 289.644 20.9093C286.928 18.0684 283.022 16.648 277.925 16.648H270.844V48.5453H277.925Z" stroke="#11243E" stroke-width="0.333333"/>
<path d="M339.11 36.2627C339.11 37.5578 339.026 38.7276 338.859 39.772H312.476C312.685 42.5293 313.709 44.7436 315.547 46.4147C317.385 48.0858 319.641 48.9213 322.315 48.9213C326.159 48.9213 328.874 47.3129 330.462 44.096H338.17C337.125 47.2711 335.224 49.8822 332.467 51.9293C329.751 53.9347 326.367 54.9373 322.315 54.9373C319.015 54.9373 316.048 54.2062 313.416 52.744C310.826 51.24 308.779 49.1511 307.275 46.4773C305.813 43.7618 305.082 40.6284 305.082 37.0773C305.082 33.5262 305.792 30.4138 307.212 27.74C308.675 25.0244 310.701 22.9356 313.291 21.4733C315.923 20.0111 318.931 19.28 322.315 19.28C325.574 19.28 328.477 19.9902 331.026 21.4107C333.574 22.8311 335.559 24.8364 336.979 27.4267C338.399 29.9751 339.11 32.9204 339.11 36.2627ZM331.652 34.0067C331.611 31.3747 330.671 29.2649 328.832 27.6773C326.994 26.0898 324.717 25.296 322.002 25.296C319.537 25.296 317.427 26.0898 315.672 27.6773C313.918 29.2231 312.873 31.3329 312.539 34.0067H331.652Z" stroke="#11243E" stroke-width="0.333333"/>
<path d="M352.617 24.92C353.829 23.3324 355.479 21.9956 357.568 20.9093C359.657 19.8231 362.017 19.28 364.649 19.28C367.657 19.28 370.394 20.032 372.859 21.536C375.365 22.9982 377.329 25.0662 378.749 27.74C380.17 30.4138 380.88 33.4844 380.88 36.952C380.88 40.4196 380.17 43.532 378.749 46.2893C377.329 49.0049 375.365 51.1356 372.859 52.6813C370.394 54.1853 367.657 54.9373 364.649 54.9373C362.017 54.9373 359.678 54.4151 357.631 53.3707C355.584 52.2844 353.913 50.9476 352.617 49.36V70.792H345.473V19.844H352.617V24.92ZM373.611 36.952C373.611 34.5707 373.109 32.5236 372.107 30.8107C371.146 29.056 369.851 27.74 368.221 26.8627C366.634 25.9436 364.921 25.484 363.083 25.484C361.286 25.484 359.573 25.9436 357.944 26.8627C356.357 27.7818 355.061 29.1187 354.059 30.8733C353.098 32.628 352.617 34.696 352.617 37.0773C352.617 39.4587 353.098 41.5476 354.059 43.344C355.061 45.0987 356.357 46.4356 357.944 47.3547C359.573 48.2738 361.286 48.7333 363.083 48.7333C364.921 48.7333 366.634 48.2738 368.221 47.3547C369.851 46.3938 371.146 45.0151 372.107 43.2187C373.109 41.4222 373.611 39.3333 373.611 36.952Z" stroke="#11243E" stroke-width="0.333333"/>
<path d="M394.422 8V54.3733H387.278V8H394.422Z" stroke="#11243E" stroke-width="0.333333"/>
<path d="M418.112 54.9373C414.854 54.9373 411.908 54.2062 409.276 52.744C406.644 51.24 404.576 49.1511 403.072 46.4773C401.568 43.7618 400.816 40.6284 400.816 37.0773C400.816 33.568 401.589 30.4556 403.135 27.74C404.681 25.0244 406.79 22.9356 409.464 21.4733C412.138 20.0111 415.125 19.28 418.426 19.28C421.726 19.28 424.713 20.0111 427.387 21.4733C430.061 22.9356 432.17 25.0244 433.716 27.74C435.262 30.4556 436.035 33.568 436.035 37.0773C436.035 40.5867 435.241 43.6991 433.654 46.4147C432.066 49.1302 429.894 51.24 427.136 52.744C424.421 54.2062 421.413 54.9373 418.112 54.9373ZM418.112 48.7333C419.95 48.7333 421.663 48.2947 423.251 47.4173C424.88 46.54 426.196 45.224 427.199 43.4693C428.202 41.7147 428.703 39.584 428.703 37.0773C428.703 34.5707 428.222 32.4609 427.262 30.748C426.301 28.9933 425.026 27.6773 423.439 26.8C421.851 25.9227 420.138 25.484 418.3 25.484C416.462 25.484 414.749 25.9227 413.162 26.8C411.616 27.6773 410.383 28.9933 409.464 30.748C408.545 32.4609 408.086 34.5707 408.086 37.0773C408.086 40.7956 409.026 43.6782 410.906 45.7253C412.827 47.7307 415.23 48.7333 418.112 48.7333Z" stroke="#11243E" stroke-width="0.333333"/>
<path d="M473.513 19.844L452.332 70.604H444.937L451.956 53.8093L438.357 19.844H446.316L456.029 46.164L466.118 19.844H473.513Z" stroke="#11243E" stroke-width="0.333333"/>
<defs>
<filter id="filter0_d_3240_12534" x="16.2321" y="19.001" width="37.7693" height="37.7661" filterUnits="userSpaceOnUse" color-interpolation-filters="sRGB">
<feFlood flood-opacity="0" result="BackgroundImageFix"/>
<feColorMatrix in="SourceAlpha" type="matrix" values="0 0 0 0 0 0 0 0 0 0 0 0 0 0 0 0 0 0 127 0" result="hardAlpha"/>
<feOffset dx="5" dy="4"/>
<feGaussianBlur stdDeviation="2.5"/>
<feComposite in2="hardAlpha" operator="out"/>
<feColorMatrix type="matrix" values="0 0 0 0 0 0 0 0 0 0 0 0 0 0 0 0 0 0 0.05 0"/>
<feBlend mode="normal" in2="BackgroundImageFix" result="effect1_dropShadow_3240_12534"/>
<feBlend mode="normal" in="SourceGraphic" in2="effect1_dropShadow_3240_12534" result="shape"/>
</filter>
<linearGradient id="paint0_linear_3240_12534" x1="65.7714" y1="79.8286" x2="-0.228572" y2="-3.65714" gradientUnits="userSpaceOnUse">
<stop stop-color="#67BDE2"/>
<stop offset="1" stop-color="#14D1A4"/>
</linearGradient>
</defs>
</svg>
