<svg width="425" height="153" viewBox="0 0 425 153" fill="none" xmlns="http://www.w3.org/2000/svg">
  <g data-logo-icon="neeto-typeface-logo__icon">
  <path d="M7.3125 111.671V32.2642C7.3125 18.8659 22.1759 10.8112 33.4009 18.1264L102.934 63.4402C109.096 67.4557 109.096 76.4799 102.934 80.4954L33.4009 125.809C22.1759 133.124 7.3125 125.07 7.3125 111.671Z" fill="#5BCC5A"/>
  <path d="M135.562 98.9769V44.9577C135.562 33.6349 122.864 26.9549 113.533 33.3696L69.5912 63.5797C63.7084 67.6242 63.7084 76.3104 69.5912 80.3549L113.533 110.565C122.864 116.98 135.562 110.3 135.562 98.9769Z" fill="#75DC66"/>
  <path d="M85.9215 52.3536L102.935 63.4409C109.096 67.4563 109.096 76.4805 102.935 80.496L85.9222 91.5828L69.5917 80.3555C63.7088 76.3111 63.7088 67.6248 69.5917 63.5804L85.9215 52.3536Z" fill="#0DA84C"/>
  </g>
  <g data-logo-text="neeto-typeface-logo__text">
  <path d="M168.286 95.2037C168.286 87.2855 170.054 80.213 173.59 73.9862C177.203 67.6824 182.085 62.8009 188.235 59.3415C194.462 55.8052 201.419 54.0371 209.106 54.0371C218.101 54.0371 225.98 56.3434 232.745 60.9559C239.51 65.5684 244.238 71.949 246.929 80.0977H228.363C226.518 76.254 223.905 73.3712 220.522 71.4493C217.217 69.5274 213.373 68.5665 208.991 68.5665C204.302 68.5665 200.112 69.6812 196.422 71.9105C192.809 74.063 189.964 77.138 187.889 81.1355C185.89 85.133 184.891 89.8224 184.891 95.2037C184.891 100.508 185.89 105.197 187.889 109.272C189.964 113.269 192.809 116.383 196.422 118.612C200.112 120.765 204.302 121.841 208.991 121.841C213.373 121.841 217.217 120.88 220.522 118.958C223.905 116.959 226.518 114.038 228.363 110.194H246.929C244.238 118.42 239.51 124.839 232.745 129.451C226.057 133.987 218.178 136.255 209.106 136.255C201.419 136.255 194.462 134.525 188.235 131.066C182.085 127.53 177.203 122.648 173.59 116.421C170.054 110.194 168.286 103.122 168.286 95.2037Z" fill="black" data-dark-mode-color="true"/>
  <path d="M299.924 135.563L282.166 104.198H274.555V135.563H258.411V55.0749H288.623C294.85 55.0749 300.154 56.1896 304.536 58.419C308.918 60.5715 312.185 63.5312 314.338 67.298C316.567 70.988 317.682 75.1393 317.682 79.7518C317.682 85.0562 316.145 89.8609 313.07 94.1659C309.995 98.394 305.42 101.315 299.347 102.93L318.604 135.563H299.924ZM274.555 92.0902H288.047C292.429 92.0902 295.696 91.0524 297.848 88.9768C300.001 86.8243 301.077 83.8646 301.077 80.0977C301.077 76.4077 300.001 73.5634 297.848 71.5646C295.696 69.489 292.429 68.4512 288.047 68.4512H274.555V92.0902Z" fill="black" data-dark-mode-color="true"/>
  <path d="M417.73 55.0749V135.563H401.586V83.2112L380.023 135.563H367.8L346.121 83.2112V135.563H329.977V55.0749H348.312L373.911 114.922L399.511 55.0749H417.73Z" fill="black" data-dark-mode-color="true"/>
  <path d="M228.622 25.5097C228.622 26.3731 228.564 27.1502 228.449 27.841H210.978C211.122 29.5679 211.726 30.9206 212.79 31.8992C213.854 32.8777 215.163 33.367 216.716 33.367C218.959 33.367 220.555 32.4028 221.504 30.4745H228.018C227.327 32.777 226.005 34.6766 224.049 36.1732C222.094 37.6411 219.692 38.375 216.845 38.375C214.544 38.375 212.474 37.8713 210.633 36.864C208.822 35.8278 207.398 34.3744 206.363 32.5036C205.356 30.6328 204.853 28.4742 204.853 26.0278C204.853 23.5525 205.356 21.3795 206.363 19.5087C207.369 17.638 208.778 16.1989 210.59 15.1915C212.402 14.1842 214.487 13.6805 216.845 13.6805C219.117 13.6805 221.144 14.1698 222.927 15.1484C224.739 16.1269 226.134 17.5228 227.112 19.3361C228.118 21.1205 228.622 23.1784 228.622 25.5097ZM222.367 23.7828C222.338 22.2286 221.777 20.991 220.684 20.07C219.592 19.1202 218.254 18.6453 216.673 18.6453C215.177 18.6453 213.912 19.1058 212.877 20.0268C211.87 20.919 211.252 22.171 211.022 23.7828H222.367Z" fill="black" data-dark-mode-color="true"/>
  <path d="M255.245 25.5097C255.245 26.3731 255.188 27.1502 255.073 27.841H237.602C237.746 29.5679 238.35 30.9206 239.414 31.8992C240.478 32.8777 241.787 33.367 243.34 33.367C245.583 33.367 247.179 32.4028 248.128 30.4745H254.641C253.951 32.777 252.628 34.6766 250.673 36.1732C248.717 37.6411 246.316 38.375 243.469 38.375C241.168 38.375 239.098 37.8713 237.257 36.864C235.445 35.8278 234.022 34.3744 232.987 32.5036C231.98 30.6328 231.477 28.4742 231.477 26.0278C231.477 23.5525 231.98 21.3795 232.987 19.5087C233.993 17.638 235.402 16.1989 237.214 15.1915C239.026 14.1842 241.111 13.6805 243.469 13.6805C245.741 13.6805 247.768 14.1698 249.551 15.1484C251.363 16.1269 252.758 17.5228 253.736 19.3361C254.742 21.1205 255.245 23.1784 255.245 25.5097ZM248.99 23.7828C248.962 22.2286 248.401 20.991 247.308 20.07C246.215 19.1202 244.878 18.6453 243.296 18.6453C241.801 18.6453 240.536 19.1058 239.5 20.0268C238.494 20.919 237.875 22.171 237.645 23.7828H248.99Z" fill="black" data-dark-mode-color="true"/>
  <path d="M266.785 18.9874V30.6615C266.785 31.4674 266.997 31.9999 267.371 32.374C267.774 32.7194 268.435 32.8921 269.356 32.8921H272.16V37.9864H268.364C263.273 37.9864 260.838 35.383 260.838 30.4326V18.9874H257.636V13.9515H260.838V8H266.785V13.9515H272.16V18.9874H266.785Z" fill="black" data-dark-mode-color="true"/>
  <path d="M286.989 38.375C284.689 38.375 282.618 37.8713 280.778 36.864C278.937 35.8278 277.485 34.3744 276.421 32.5036C275.385 30.6328 274.868 28.4742 274.868 26.0278C274.868 23.5813 275.4 21.4227 276.464 19.5519C277.557 17.6811 279.038 16.2421 280.907 15.2347C282.776 14.1986 284.861 13.6805 287.162 13.6805C289.463 13.6805 291.548 14.1986 293.417 15.2347C295.286 16.2421 296.753 17.6811 297.817 19.5519C298.91 21.4227 299.456 23.5813 299.456 26.0278C299.456 28.4742 298.895 30.6328 297.774 32.5036C296.681 34.3744 295.185 35.8278 293.287 36.864C291.418 37.8713 289.319 38.375 286.989 38.375ZM286.989 33.108C288.082 33.108 289.103 32.849 290.052 32.3309C291.03 31.784 291.806 30.9782 292.382 29.9132C292.957 28.8483 293.244 27.5532 293.244 26.0278C293.244 23.754 292.64 22.0127 291.432 20.8039C290.253 19.5663 288.801 18.9475 287.076 18.9475C285.35 18.9475 283.898 19.5663 282.719 20.8039C281.568 22.0127 280.993 23.754 280.993 26.0278C280.993 28.3015 281.554 30.0572 282.676 31.2948C283.826 32.5036 285.264 33.108 286.989 33.108Z" fill="black" data-dark-mode-color="true"/>
  <path d="M199.752 8H188.159L199.752 25.3903V8Z" fill="black" data-dark-mode-color="true"/>
  <path d="M171 38.375L171 8H179.372L199.752 38.375H191.136L177.724 18.666V38.375H171Z" fill="black" data-dark-mode-color="true"/>
  </g>
</svg>
