<svg width="715" height="134" viewBox="0 0 715 134" fill="none" xmlns="http://www.w3.org/2000/svg">
  <path fill-rule="evenodd" clip-rule="evenodd" d="M241.215 26.153H190.986L215.839 51.0055H241.215C257.208 51.0055 270.158 63.8918 270.158 79.7702V133.387H295.141V79.7702C295.141 50.1503 270.989 26.153 241.215 26.153ZM212.272 54.6242L187.289 29.6416V133.387H212.272V54.6242ZM404.878 115.856L389.025 99.1691L388.075 100.081C382.574 105.362 373.355 110.463 360.613 110.463C351.655 110.463 344.75 108.194 339.758 104.267C335.147 100.64 332.065 95.517 330.536 89.2046H410.735L410.794 87.9555C411.637 70.1549 407.169 54.7019 398.033 43.6752C388.877 32.6251 375.14 26.153 357.747 26.153C327.028 26.153 303.043 49.1612 303.043 79.7754C303.043 95.1553 308.715 108.584 318.829 118.162C328.939 127.738 343.402 133.387 360.854 133.387C381.236 133.387 394.437 126.316 403.976 116.76L404.878 115.856ZM520.632 115.856L504.779 99.1691L503.829 100.081C498.328 105.362 489.108 110.463 476.367 110.463C467.409 110.463 460.504 108.194 455.512 104.267C450.901 100.64 447.819 95.517 446.29 89.2046H526.489L526.548 87.9555C527.391 70.1549 522.923 54.7019 513.787 43.6752C504.631 32.6251 490.894 26.153 473.501 26.153C442.782 26.153 418.797 49.1612 418.797 79.7754C418.797 95.1553 424.469 108.584 434.582 118.162C444.693 127.738 459.156 133.387 476.608 133.387C496.99 133.387 510.191 126.316 519.729 116.76L520.632 115.856ZM552.195 27.0548H534.551V49.9568H552.195V89.948C552.195 106.095 554.567 117.103 561.287 124.007C568.018 130.921 578.783 133.387 594.616 133.387H599.246V109.905H597.936C593.173 109.905 589.514 109.723 586.683 109.186C583.864 108.651 581.99 107.786 580.686 106.511C579.386 105.239 578.51 103.418 577.968 100.682C577.424 97.9308 577.241 94.373 577.241 89.7389V49.9568H599.246V27.0548H577.241V0H552.195V27.0548ZM357.991 48.8461C366.058 48.8461 371.975 51.2617 376.132 55.2022C379.984 58.8532 382.432 63.9141 383.605 69.8625H330.525C332.056 63.3467 335.175 58.2599 339.534 54.7307C344.237 50.9229 350.487 48.8461 357.991 48.8461ZM473.745 48.8461C481.812 48.8461 487.729 51.2617 491.886 55.2022C495.738 58.8532 498.186 63.9141 499.359 69.8625H446.279C447.81 63.3467 450.929 58.2599 455.288 54.7307C459.991 50.9229 466.241 48.8461 473.745 48.8461ZM660.973 48.8935C677.64 48.8935 690.888 62.7465 690.888 79.7719C690.888 96.7937 677.64 110.647 660.973 110.647C644.314 110.647 631.26 96.8051 631.26 79.7719C631.26 62.7351 644.314 48.8935 660.973 48.8935ZM660.973 26.153C631.062 26.153 607.148 49.6646 607.148 79.7719C607.148 109.672 631.059 133.387 660.973 133.387C690.88 133.387 715 109.679 715 79.7719C715 49.6581 690.877 26.153 660.973 26.153Z" fill="#11243E"/>
  <path d="M132.559 67.3413C132.559 30.7363 102.884 1.06201 66.2793 1.06201H0V133.621H132.559V67.3413Z" fill="#0043AC"/>
  <mask id="mask0_4134_5636" style="mask-type:alpha" maskUnits="userSpaceOnUse" x="0" y="1" width="133" height="133">
  <path d="M132.559 67.3413C132.559 30.7363 102.884 1.06201 66.2793 1.06201H0V133.621H132.559V67.3413Z" fill="#0043AC"/>
  </mask>
  <g mask="url(#mask0_4134_5636)">
  <path d="M74.665 112.459C102.959 144.767 129.611 149.644 139.4 148.043V158.422H-2.56563V74.686C11.3886 73.8153 46.3706 80.1508 74.665 112.459Z" fill="url(#paint0_radial_4134_5636)"/>
  </g>
  <path d="M23.9453 32.9356L49.109 58.0993V114.019H23.9453V32.9356Z" fill="white"/>
  <path d="M51.9049 55.3033H65.8847C75.1497 55.3033 82.6605 62.8141 82.6605 72.0791V114.019H107.824V72.0791C107.824 48.9166 89.0472 30.1396 65.8847 30.1396H26.7413L51.9049 55.3033Z" fill="white"/>
  <defs>
  <radialGradient id="paint0_radial_4134_5636" cx="0" cy="0" r="1" gradientUnits="userSpaceOnUse" gradientTransform="translate(27.7708 74.6108) rotate(47.1183) scale(136.703 231.6)">
  <stop stop-color="#0043AC"/>
  <stop offset="1" stop-color="#3DB1CA" stop-opacity="0.8"/>
  </radialGradient>
  </defs>
</svg>
