<svg width="491" height="64" viewBox="0 0 491 64" fill="none" xmlns="http://www.w3.org/2000/svg">
<path d="M48 32C48 18.7452 37.2548 8 24 8H0V56H48V32Z" fill="url(#paint0_linear_3688_21438)"/>
<rect x="10.7993" y="21.1998" width="6.00151" height="6.00151" rx="1.25031" fill="white"/>
<rect x="17.5518" y="21.1998" width="6.00151" height="6.00151" rx="1.25031" fill="white"/>
<rect x="24.3018" y="21.1998" width="6.00151" height="6.00151" rx="1.25031" fill="white"/>
<rect x="31.0542" y="21.1998" width="6.00151" height="6.00151" rx="1.25031" fill="white"/>
<rect x="10.7993" y="27.951" width="6.00151" height="6.00151" rx="1.25031" fill="white"/>
<rect x="17.5518" y="27.951" width="6.00151" height="6.00151" rx="1.25031" fill="white"/>
<rect x="24.3018" y="27.951" width="6.00151" height="6.00151" rx="1.25031" fill="white"/>
<rect x="10.7993" y="34.7021" width="6.00151" height="6.00151" rx="1.25031" fill="white"/>
<rect x="17.5518" y="34.7021" width="6.00151" height="6.00151" rx="1.25031" fill="white"/>
<rect x="10.7993" y="41.4545" width="6.00151" height="6.00151" rx="1.25031" fill="white"/>
<path d="M286.897 25.1724C286.897 27.5119 286.333 29.7053 285.205 31.7524C284.119 33.7995 282.385 35.4497 280.004 36.7031C277.664 37.9564 274.698 38.5831 271.105 38.5831H263.773V55.3777H255V11.6364H271.105C274.489 11.6364 277.372 12.2213 279.753 13.3911C282.135 14.5608 283.91 16.1693 285.08 18.2164C286.292 20.2635 286.897 22.5822 286.897 25.1724ZM270.729 31.5017C273.152 31.5017 274.949 30.9586 276.119 29.8724C277.288 28.7444 277.873 27.1777 277.873 25.1724C277.873 20.9111 275.492 18.7804 270.729 18.7804H263.773V31.5017H270.729Z" fill="#11243E"/>
<path d="M301.233 9.00439V55.3777H292.46V9.00439H301.233Z" fill="#11243E"/>
<path d="M306.978 37.8937C306.978 34.3844 307.668 31.2719 309.046 28.5564C310.467 25.8408 312.368 23.752 314.749 22.2897C317.172 20.8275 319.867 20.0964 322.833 20.0964C325.423 20.0964 327.679 20.6186 329.601 21.6631C331.565 22.7075 333.131 24.0235 334.301 25.6111V20.6604H343.137V55.3777H334.301V50.3017C333.173 51.9311 331.606 53.2888 329.601 54.3751C327.637 55.4195 325.361 55.9417 322.77 55.9417C319.846 55.9417 317.172 55.1897 314.749 53.6857C312.368 52.1817 310.467 50.072 309.046 47.3564C307.668 44.5991 306.978 41.4448 306.978 37.8937ZM334.301 38.0191C334.301 35.8884 333.883 34.0711 333.048 32.5671C332.212 31.0213 331.084 29.8515 329.664 29.0577C328.243 28.2222 326.718 27.8044 325.089 27.8044C323.46 27.8044 321.956 28.2013 320.577 28.9951C319.198 29.7888 318.07 30.9586 317.193 32.5044C316.357 34.0084 315.94 35.8048 315.94 37.8937C315.94 39.9826 316.357 41.8208 317.193 43.4084C318.07 44.9542 319.198 46.1448 320.577 46.9804C321.997 47.816 323.501 48.2337 325.089 48.2337C326.718 48.2337 328.243 47.8368 329.664 47.0431C331.084 46.2075 332.212 45.0377 333.048 43.5337C333.883 41.988 334.301 40.1497 334.301 38.0191Z" fill="#11243E"/>
<path d="M370.278 20.1591C374.414 20.1591 377.756 21.4751 380.304 24.1071C382.853 26.6973 384.127 30.332 384.127 35.0111V55.3777H375.354V36.2017C375.354 33.4444 374.664 31.3346 373.286 29.8724C371.907 28.3684 370.027 27.6164 367.646 27.6164C365.223 27.6164 363.301 28.3684 361.88 29.8724C360.502 31.3346 359.812 33.4444 359.812 36.2017V55.3777H351.039V20.6604H359.812V24.9844C360.982 23.4804 362.465 22.3106 364.262 21.4751C366.1 20.5977 368.105 20.1591 370.278 20.1591Z" fill="#11243E"/>
<path d="M411.042 20.1591C415.178 20.1591 418.52 21.4751 421.069 24.1071C423.617 26.6973 424.891 30.332 424.891 35.0111V55.3777H416.118V36.2017C416.118 33.4444 415.429 31.3346 414.05 29.8724C412.671 28.3684 410.791 27.6164 408.41 27.6164C405.987 27.6164 404.065 28.3684 402.645 29.8724C401.266 31.3346 400.577 33.4444 400.577 36.2017V55.3777H391.803V20.6604H400.577V24.9844C401.747 23.4804 403.23 22.3106 405.026 21.4751C406.864 20.5977 408.87 20.1591 411.042 20.1591Z" fill="#11243E"/>
<path d="M464.841 37.2671C464.841 38.5204 464.758 39.6484 464.59 40.6511H439.21C439.419 43.1577 440.297 45.1213 441.842 46.5417C443.388 47.9622 445.289 48.6724 447.545 48.6724C450.804 48.6724 453.122 47.2728 454.501 44.4737H463.964C462.961 47.816 461.039 50.5733 458.198 52.7457C455.357 54.8764 451.869 55.9417 447.733 55.9417C444.391 55.9417 441.383 55.2106 438.709 53.7484C436.077 52.2444 434.009 50.1346 432.505 47.4191C431.043 44.7035 430.312 41.5702 430.312 38.0191C430.312 34.4262 431.043 31.2719 432.505 28.5564C433.967 25.8408 436.014 23.752 438.646 22.2897C441.278 20.8275 444.307 20.0964 447.733 20.0964C451.033 20.0964 453.979 20.8066 456.569 22.2271C459.201 23.6475 461.227 25.6737 462.648 28.3057C464.11 30.896 464.841 33.8831 464.841 37.2671ZM455.754 34.7604C455.713 32.5044 454.898 30.708 453.31 29.3711C451.723 27.9924 449.78 27.3031 447.482 27.3031C445.31 27.3031 443.472 27.9715 441.968 29.3084C440.505 30.6035 439.607 32.4208 439.273 34.7604H455.754Z" fill="#11243E"/>
<path d="M479.351 26.0497C480.479 24.2115 481.942 22.7702 483.738 21.7257C485.576 20.6813 487.665 20.1591 490.005 20.1591V29.3711H487.686C484.929 29.3711 482.84 30.0186 481.419 31.3137C480.041 32.6088 479.351 34.8648 479.351 38.0817V55.3777H470.578V20.6604H479.351V26.0497Z" fill="#11243E"/>
<path fill-rule="evenodd" clip-rule="evenodd" d="M90.0873 20.627H73.2401L81.5759 28.825H90.0873C95.4515 28.825 99.7952 33.0758 99.7952 38.3135V56H108.175V38.3135C108.175 28.5429 100.074 20.627 90.0873 20.627ZM80.3794 30.0187L72 21.7778V56H80.3794V30.0187ZM144.982 50.2169L139.664 44.7125L139.346 45.0134C137.501 46.7554 134.408 48.438 130.135 48.438C127.13 48.438 124.814 47.6895 123.14 46.3942C121.593 45.1976 120.559 43.5078 120.047 41.4256H146.946L146.966 41.0135C147.249 35.1417 145.75 30.0443 142.686 26.407C139.615 22.7619 135.007 20.627 129.173 20.627C118.87 20.627 110.825 28.2166 110.825 38.3152C110.825 43.3885 112.728 47.8181 116.12 50.9778C119.511 54.1365 124.362 56 130.216 56C137.052 56 141.48 53.6674 144.679 50.5151L144.982 50.2169ZM183.807 50.2169L178.49 44.7125L178.171 45.0134C176.326 46.7554 173.233 48.438 168.96 48.438C165.955 48.438 163.639 47.6895 161.965 46.3942C160.418 45.1976 159.385 43.5078 158.872 41.4256H185.771L185.791 41.0135C186.074 35.1417 184.575 30.0443 181.511 26.407C178.44 22.7619 173.832 20.627 167.999 20.627C157.695 20.627 149.65 28.2166 149.65 38.3152C149.65 43.3885 151.553 47.8181 154.945 50.9778C158.336 54.1365 163.187 56 169.041 56C175.877 56 180.305 53.6674 183.504 50.5151L183.807 50.2169ZM194.393 20.9245H188.475V28.4791H194.393V41.6708C194.393 46.9973 195.189 50.6285 197.443 52.9057C199.701 55.1865 203.311 56 208.622 56H210.175V48.2538H209.735C208.138 48.2538 206.91 48.1938 205.961 48.0167C205.015 47.8403 204.387 47.5548 203.95 47.1343C203.514 46.7147 203.22 46.1142 203.038 45.2117C202.856 44.3041 202.794 43.1305 202.794 41.6019V28.4791H210.175V20.9245H202.794V12H194.393V20.9245ZM129.255 28.1127C131.961 28.1127 133.946 28.9095 135.34 30.2094C136.632 31.4137 137.453 33.0831 137.846 35.0453H120.043C120.557 32.8959 121.603 31.218 123.065 30.0538C124.642 28.7977 126.738 28.1127 129.255 28.1127ZM168.081 28.1127C170.786 28.1127 172.771 28.9095 174.165 30.2094C175.457 31.4137 176.278 33.0831 176.672 35.0453H158.868C159.382 32.8959 160.428 31.218 161.89 30.0538C163.467 28.7977 165.563 28.1127 168.081 28.1127ZM230.879 28.1283C236.469 28.1283 240.913 32.698 240.913 38.3141C240.913 43.929 236.469 48.4986 230.879 48.4986C225.291 48.4986 220.913 43.9328 220.913 38.3141C220.913 32.6942 225.291 28.1283 230.879 28.1283ZM230.879 20.627C220.846 20.627 212.825 28.3827 212.825 38.3141C212.825 48.1772 220.845 56 230.879 56C240.91 56 249 48.1794 249 38.3141C249 28.3805 240.909 20.627 230.879 20.627Z" fill="#11243E"/>
<defs>
<linearGradient id="paint0_linear_3688_21438" x1="24" y1="8" x2="24" y2="56" gradientUnits="userSpaceOnUse">
<stop stop-color="#4DC8C3"/>
<stop offset="1" stop-color="#52A9C6"/>
</linearGradient>
</defs>
</svg>
