<svg width="483" height="64" viewBox="0 0 483 64" fill="none" xmlns="http://www.w3.org/2000/svg">
<path d="M48 32C48 18.7452 37.2548 8 24 8H0V56H48V32Z" fill="url(#paint0_linear_3688_21361)"/>
<path fill-rule="evenodd" clip-rule="evenodd" d="M35.1203 43.5506V25.0867C35.1203 24.1352 34.349 23.3638 33.3974 23.3638H14.8943C13.9428 23.3638 13.1714 24.1352 13.1714 25.0867V43.5506C13.1714 44.0502 13.3883 44.5253 13.7659 44.8525L15.7012 46.5298C16.3487 47.091 17.3104 47.091 17.9579 46.5298L19.3593 45.3152C20.0069 44.754 20.9685 44.754 21.6161 45.3152L23.0175 46.5298C23.6651 47.091 24.6267 47.091 25.2743 46.5298L26.6756 45.3152C27.3232 44.754 28.2848 44.754 28.9324 45.3152L30.3338 46.5298C30.9814 47.091 31.943 47.091 32.5906 46.5298L34.5258 44.8525C34.9034 44.5253 35.1203 44.0502 35.1203 43.5506ZM15.3671 28.4859C15.3671 27.6778 16.0222 27.0226 16.8303 27.0226H26.3415C27.1497 27.0226 27.8048 27.6778 27.8048 28.4859C27.8048 29.294 27.1497 29.9492 26.3415 29.9492H16.8303C16.0222 29.9492 15.3671 29.294 15.3671 28.4859ZM16.8303 32.1436C16.0222 32.1436 15.3671 32.7987 15.3671 33.6068C15.3671 34.415 16.0222 35.0701 16.8303 35.0701H31.463C32.2711 35.0701 32.9262 34.415 32.9262 33.6068C32.9262 32.7987 32.2711 32.1436 31.463 32.1436H16.8303Z" fill="white"/>
<path fill-rule="evenodd" clip-rule="evenodd" d="M90.0869 20.6269H73.2396L81.5754 28.8249H90.0869C95.4511 28.8249 99.7948 33.0757 99.7948 38.3134V55.9999H108.174V38.3134C108.174 28.5428 100.074 20.6269 90.0869 20.6269ZM80.379 30.0186L71.9995 21.7777V55.9999H80.379V30.0186ZM144.981 50.2169L139.664 44.7125L139.345 45.0133C137.5 46.7553 134.408 48.4379 130.134 48.4379C127.13 48.4379 124.814 47.6894 123.139 46.3941C121.593 45.1976 120.559 43.5078 120.046 41.4255H146.946L146.966 41.0135C147.248 35.1417 145.75 30.0442 142.685 26.4069C139.614 22.7619 135.007 20.6269 129.173 20.6269C118.87 20.6269 110.825 28.2166 110.825 38.3152C110.825 43.3885 112.727 47.818 116.119 50.9778C119.51 54.1365 124.362 55.9999 130.215 55.9999C137.052 55.9999 141.479 53.6673 144.679 50.515L144.981 50.2169ZM183.806 50.2169L178.489 44.7125L178.17 45.0133C176.325 46.7553 173.233 48.4379 168.959 48.4379C165.955 48.4379 163.639 47.6894 161.964 46.3941C160.418 45.1976 159.384 43.5078 158.871 41.4255H185.771L185.791 41.0135C186.073 35.1417 184.575 30.0442 181.51 26.4069C178.439 22.7619 173.832 20.6269 167.998 20.6269C157.695 20.6269 149.65 28.2166 149.65 38.3152C149.65 43.3885 151.552 47.818 154.944 50.9778C158.336 54.1365 163.187 55.9999 169.04 55.9999C175.877 55.9999 180.304 53.6673 183.504 50.515L183.806 50.2169ZM194.393 20.9244H188.475V28.479H194.393V41.6708C194.393 46.9973 195.188 50.6284 197.443 52.9057C199.7 55.1864 203.311 55.9999 208.621 55.9999H210.174V48.2537H209.735C208.137 48.2537 206.91 48.1938 205.961 48.0167C205.015 47.8402 204.386 47.5548 203.949 47.1342C203.513 46.7147 203.219 46.1142 203.038 45.2117C202.855 44.304 202.794 43.1304 202.794 41.6018V28.479H210.174V20.9244H202.794V11.9999H194.393V20.9244ZM129.255 28.1126C131.961 28.1126 133.945 28.9094 135.34 30.2093C136.631 31.4136 137.452 33.0831 137.846 35.0452H120.043C120.556 32.8959 121.602 31.2179 123.064 30.0538C124.642 28.7977 126.738 28.1126 129.255 28.1126ZM168.08 28.1126C170.786 28.1126 172.77 28.9094 174.165 30.2093C175.457 31.4136 176.278 33.0831 176.671 35.0452H158.868C159.381 32.8959 160.427 31.2179 161.889 30.0538C163.467 28.7977 165.563 28.1126 168.08 28.1126ZM230.878 28.1283C236.468 28.1283 240.912 32.6979 240.912 38.314C240.912 43.9289 236.468 48.4986 230.878 48.4986C225.291 48.4986 220.912 43.9327 220.912 38.314C220.912 32.6941 225.291 28.1283 230.878 28.1283ZM230.878 20.6269C220.846 20.6269 212.825 28.3826 212.825 38.314C212.825 48.1771 220.845 55.9999 230.878 55.9999C240.909 55.9999 249 48.1793 249 38.314C249 28.3805 240.908 20.6269 230.878 20.6269Z" fill="#11243E"/>
<path d="M264.098 11.389V55.1304H255.324V11.389H264.098Z" fill="#11243E"/>
<path d="M291.338 19.9117C295.474 19.9117 298.816 21.2277 301.364 23.8597C303.913 26.4499 305.187 30.0846 305.187 34.7637V55.1304H296.414V35.9544C296.414 33.197 295.724 31.0873 294.346 29.625C292.967 28.121 291.087 27.369 288.706 27.369C286.283 27.369 284.361 28.121 282.94 29.625C281.562 31.0873 280.872 33.197 280.872 35.9544V55.1304H272.099V20.413H280.872V24.737C282.042 23.233 283.525 22.0633 285.322 21.2277C287.16 20.3504 289.165 19.9117 291.338 19.9117Z" fill="#11243E"/>
<path d="M327.339 47.0464L336.113 20.413H345.45L332.603 55.1304H321.95L309.166 20.413H318.566L327.339 47.0464Z" fill="#11243E"/>
<path d="M365.127 55.6944C361.785 55.6944 358.777 54.9633 356.103 53.501C353.429 51.997 351.319 49.8873 349.774 47.1717C348.27 44.4561 347.518 41.3228 347.518 37.7717C347.518 34.2206 348.291 31.0873 349.836 28.3717C351.424 25.6561 353.575 23.5673 356.291 22.105C359.007 20.601 362.035 19.849 365.378 19.849C368.72 19.849 371.749 20.601 374.464 22.105C377.18 23.5673 379.311 25.6561 380.856 28.3717C382.444 31.0873 383.238 34.2206 383.238 37.7717C383.238 41.3228 382.423 44.4561 380.794 47.1717C379.206 49.8873 377.034 51.997 374.276 53.501C371.561 54.9633 368.511 55.6944 365.127 55.6944ZM365.127 48.049C366.715 48.049 368.198 47.673 369.576 46.921C370.997 46.1273 372.125 44.9575 372.96 43.4117C373.796 41.8659 374.214 39.9859 374.214 37.7717C374.214 34.4713 373.336 31.9437 371.582 30.189C369.869 28.3926 367.759 27.4944 365.252 27.4944C362.746 27.4944 360.636 28.3926 358.923 30.189C357.252 31.9437 356.416 34.4713 356.416 37.7717C356.416 41.0721 357.231 43.6206 358.86 45.417C360.531 47.1717 362.62 48.049 365.127 48.049Z" fill="#11243E"/>
<path d="M393.456 16.277C391.91 16.277 390.615 15.7966 389.571 14.8357C388.568 13.833 388.067 12.6006 388.067 11.1384C388.067 9.67614 388.568 8.46458 389.571 7.50369C390.615 6.50103 391.91 5.99969 393.456 5.99969C395.002 5.99969 396.276 6.50103 397.279 7.50369C398.323 8.46458 398.845 9.67614 398.845 11.1384C398.845 12.6006 398.323 13.833 397.279 14.8357C396.276 15.7966 395.002 16.277 393.456 16.277ZM397.78 20.413V55.1304H389.007V20.413H397.78Z" fill="#11243E"/>
<path d="M403.525 37.7717C403.525 34.1788 404.256 31.0455 405.719 28.3717C407.181 25.6561 409.207 23.5673 411.797 22.105C414.387 20.601 417.354 19.849 420.696 19.849C424.999 19.849 428.55 20.9353 431.349 23.1077C434.19 25.2384 436.091 28.2464 437.052 32.1317H427.589C427.088 30.6277 426.231 29.4579 425.02 28.6224C423.85 27.745 422.388 27.3064 420.633 27.3064C418.127 27.3064 416.142 28.2255 414.68 30.0637C413.218 31.8601 412.487 34.4295 412.487 37.7717C412.487 41.0721 413.218 43.6415 414.68 45.4797C416.142 47.2761 418.127 48.1744 420.633 48.1744C424.184 48.1744 426.503 46.5868 427.589 43.4117H437.052C436.091 47.1717 434.19 50.1588 431.349 52.373C428.508 54.5873 424.957 55.6944 420.696 55.6944C417.354 55.6944 414.387 54.9633 411.797 53.501C409.207 51.997 407.181 49.9081 405.719 47.2344C404.256 44.5188 403.525 41.3646 403.525 37.7717Z" fill="#11243E"/>
<path d="M475.086 37.0197C475.086 38.273 475.002 39.401 474.835 40.4037H449.455C449.664 42.9104 450.541 44.8739 452.087 46.2944C453.633 47.7148 455.534 48.425 457.79 48.425C461.049 48.425 463.367 47.0255 464.746 44.2264H474.209C473.206 47.5686 471.284 50.3259 468.443 52.4984C465.602 54.629 462.114 55.6944 457.978 55.6944C454.636 55.6944 451.628 54.9633 448.954 53.501C446.322 51.997 444.254 49.8873 442.75 47.1717C441.288 44.4561 440.557 41.3228 440.557 37.7717C440.557 34.1788 441.288 31.0246 442.75 28.309C444.212 25.5935 446.259 23.5046 448.891 22.0424C451.523 20.5801 454.552 19.849 457.978 19.849C461.278 19.849 464.224 20.5593 466.814 21.9797C469.446 23.4001 471.472 25.4264 472.893 28.0584C474.355 30.6486 475.086 33.6357 475.086 37.0197ZM465.999 34.513C465.957 32.257 465.143 30.4606 463.555 29.1237C461.968 27.745 460.025 27.0557 457.727 27.0557C455.555 27.0557 453.717 27.7241 452.213 29.061C450.75 30.3561 449.852 32.1735 449.518 34.513H465.999Z" fill="#11243E"/>
<defs>
<linearGradient id="paint0_linear_3688_21361" x1="24.2939" y1="89.9428" x2="24.2939" y2="-1.51121" gradientUnits="userSpaceOnUse">
<stop stop-color="#46A0D3"/>
<stop offset="1" stop-color="#72DAE0"/>
</linearGradient>
</defs>
</svg>
