<svg xmlns="http://www.w3.org/2000/svg" width="479" height="73" fill="none" viewBox="0 0 479 73"><path fill="url(#paint0_linear_3239_11799)" d="M56 32C56 18.7452 45.2548 8 32 8H8V56H56V32Z"/><g filter="url(#filter0_d_3239_11799)"><path fill="#fff" d="M37.1983 33.711C37.5345 33.9051 37.5345 34.3905 37.1982 34.5846L29.2919 39.1493C28.9557 39.3435 28.5354 39.1008 28.5354 38.7125L28.5354 29.5831C28.5354 29.1948 28.9557 28.9522 29.2919 29.1463L37.1983 33.711Z"/><path fill="#fff" d="M43.3165 26.7391C43.3734 27.1058 43.0572 27.422 42.6905 27.3651L38.3828 26.6965C37.9392 26.6277 37.7617 26.0843 38.0791 25.7669L41.7182 22.1277C42.0356 21.8103 42.5791 21.9879 42.6479 22.4314L43.3165 26.7391Z"/><path fill="#fff" fill-rule="evenodd" d="M32.2028 22.7267C26.0378 22.7267 21.04 27.6709 21.04 33.7698C21.04 39.8688 26.0378 44.813 32.2028 44.813C36.6538 44.813 40.4991 42.236 42.2922 38.5019C42.6188 37.8218 43.4409 37.5323 44.1283 37.8554C44.8158 38.1785 45.1084 38.9918 44.7818 39.6719C42.5494 44.3209 37.7575 47.5397 32.2028 47.5397C24.5155 47.5397 18.2837 41.3747 18.2837 33.7698C18.2837 26.165 24.5155 20 32.2028 20C36.0973 20 39.6203 21.584 42.145 24.1329C42.6777 24.6707 42.6689 25.5339 42.1253 26.0609C41.5816 26.5879 40.7091 26.5791 40.1764 26.0413C38.1487 23.9943 35.3266 22.7267 32.2028 22.7267Z" clip-rule="evenodd"/></g><path fill="#11243E" d="M80.166 20.3403V55.5403H87.6943V27.8203H97.8797C103.505 27.8203 108.065 32.3512 108.065 37.9403V55.5403H115.593V37.9403C115.593 28.2201 107.663 20.3403 97.8797 20.3403H80.166Z"/><path fill="#11243E" fill-rule="evenodd" d="M146.343 35.0478C145.621 30.4681 142.812 27.0937 137.194 27.0937C131.976 27.0937 128.365 29.9845 127.403 35.0478H146.343ZM138.077 48.7091C142.491 48.7091 145.701 46.9411 147.628 45.093L152.363 50.0749C149.232 53.2098 144.9 55.5403 138.158 55.5403C126.6 55.5403 119.136 48.0675 119.136 37.9421C119.136 27.8957 127.002 20.3403 137.112 20.3403C148.589 20.3403 155.09 28.8593 154.53 40.6736H127.403C128.365 45.5765 131.896 48.7091 138.077 48.7091Z" clip-rule="evenodd"/><path fill="#11243E" fill-rule="evenodd" d="M185.314 35.0478C184.592 30.4681 181.782 27.0937 176.164 27.0937C170.946 27.0937 167.335 29.9845 166.373 35.0478H185.314ZM177.047 48.7091C181.461 48.7091 184.671 46.9411 186.598 45.093L191.333 50.0749C188.202 53.2098 183.87 55.5403 177.128 55.5403C165.57 55.5403 158.106 48.0675 158.106 37.9421C158.106 27.8957 165.973 20.3403 176.082 20.3403C187.559 20.3403 194.06 28.8593 193.5 40.6736H166.373C167.335 45.5765 170.866 48.7091 177.047 48.7091Z" clip-rule="evenodd"/><path fill="#11243E" fill-rule="evenodd" d="M197.076 20.6438H203.017V11.5403H210.566V20.6438H217.975V27.4675H210.566V41.2946C210.566 47.5495 211.544 48.5212 217.975 48.5212V55.5403H216.857C206.232 55.5403 203.017 52.2042 203.017 41.365V27.4675H197.076V20.6438Z" clip-rule="evenodd"/><path fill="#11243E" fill-rule="evenodd" d="M249.71 37.9409C249.71 31.9834 245.066 27.1097 239.197 27.1097C233.326 27.1097 228.753 31.9834 228.753 37.9409C228.753 43.8972 233.326 48.771 239.197 48.771C245.066 48.771 249.71 43.8972 249.71 37.9409ZM221.517 37.9409C221.517 28.0575 229.367 20.3403 239.197 20.3403C249.027 20.3403 256.945 28.0575 256.945 37.9409C256.945 47.7558 249.027 55.5403 239.197 55.5403C229.367 55.5403 221.517 47.7558 221.517 37.9409Z" clip-rule="evenodd"/><path fill="#11243E" d="M286.489 55.5403L276.462 38.119H271.01V55.5403H263.866V11.987H278.906C282.248 11.987 285.068 12.5719 287.366 13.7417C289.706 14.9114 291.439 16.4781 292.567 18.4417C293.737 20.4052 294.322 22.5985 294.322 25.0217C294.322 27.8625 293.486 30.4528 291.815 32.7923C290.186 35.0901 287.658 36.6568 284.233 37.4923L295.011 55.5403H286.489ZM271.01 32.4163H278.906C281.58 32.4163 283.585 31.7479 284.922 30.411C286.301 29.0741 286.99 27.2777 286.99 25.0217C286.99 22.7657 286.322 21.011 284.985 19.7577C283.648 18.4625 281.622 17.815 278.906 17.815H271.01V32.4163Z"/><path fill="#11243E" d="M334.441 37.4297C334.441 38.7248 334.358 39.8945 334.19 40.939H307.808C308.017 43.6963 309.04 45.9105 310.878 47.5817C312.717 49.2528 314.973 50.0883 317.646 50.0883C321.49 50.0883 324.206 48.4799 325.793 45.263H333.501C332.457 48.4381 330.556 51.0492 327.798 53.0963C325.083 55.1017 321.699 56.1043 317.646 56.1043C314.346 56.1043 311.38 55.3732 308.748 53.911C306.158 52.407 304.11 50.3181 302.606 47.6443C301.144 44.9288 300.413 41.7954 300.413 38.2443C300.413 34.6932 301.123 31.5808 302.544 28.907C304.006 26.1914 306.032 24.1025 308.622 22.6403C311.254 21.1781 314.262 20.447 317.646 20.447C320.905 20.447 323.809 21.1572 326.357 22.5777C328.906 23.9981 330.89 26.0034 332.31 28.5937C333.731 31.1421 334.441 34.0874 334.441 37.4297ZM326.984 35.1737C326.942 32.5417 326.002 30.4319 324.164 28.8443C322.326 27.2568 320.049 26.463 317.333 26.463C314.868 26.463 312.758 27.2568 311.004 28.8443C309.249 30.3901 308.205 32.4999 307.87 35.1737H326.984Z"/><path fill="#11243E" d="M347.949 26.087C349.16 24.4994 350.811 23.1625 352.899 22.0763C354.988 20.9901 357.349 20.447 359.981 20.447C362.989 20.447 365.725 21.199 368.19 22.703C370.697 24.1652 372.66 26.2332 374.081 28.907C375.501 31.5808 376.211 34.6514 376.211 38.119C376.211 41.5865 375.501 44.699 374.081 47.4563C372.66 50.1719 370.697 52.3026 368.19 53.8483C365.725 55.3523 362.989 56.1043 359.981 56.1043C357.349 56.1043 355.009 55.5821 352.962 54.5377C350.915 53.4514 349.244 52.1145 347.949 50.527V71.959H340.805V21.011H347.949V26.087ZM368.942 38.119C368.942 35.7377 368.441 33.6905 367.438 31.9777C366.477 30.223 365.182 28.907 363.553 28.0297C361.965 27.1105 360.252 26.651 358.414 26.651C356.618 26.651 354.905 27.1105 353.275 28.0297C351.688 28.9488 350.393 30.2857 349.39 32.0403C348.429 33.795 347.949 35.863 347.949 38.2443C347.949 40.6257 348.429 42.7146 349.39 44.511C350.393 46.2657 351.688 47.6026 353.275 48.5217C354.905 49.4408 356.618 49.9003 358.414 49.9003C360.252 49.9003 361.965 49.4408 363.553 48.5217C365.182 47.5608 366.477 46.1821 367.438 44.3857C368.441 42.5892 368.942 40.5003 368.942 38.119Z"/><path fill="#11243E" d="M389.754 9.16699V55.5403H382.609V9.16699H389.754Z"/><path fill="#11243E" d="M396.085 38.119C396.085 34.6514 396.795 31.5808 398.216 28.907C399.678 26.2332 401.641 24.1652 404.106 22.703C406.613 21.199 409.37 20.447 412.378 20.447C415.094 20.447 417.454 20.9901 419.46 22.0763C421.507 23.1208 423.136 24.4368 424.348 26.0243V21.011H431.554V55.5403H424.348V50.4017C423.136 52.031 421.486 53.3888 419.397 54.475C417.308 55.5612 414.927 56.1043 412.253 56.1043C409.287 56.1043 406.571 55.3523 404.106 53.8483C401.641 52.3026 399.678 50.1719 398.216 47.4563C396.795 44.699 396.085 41.5865 396.085 38.119ZM424.348 38.2443C424.348 35.863 423.846 33.795 422.844 32.0403C421.883 30.2857 420.608 28.9488 419.021 28.0297C417.433 27.1105 415.721 26.651 413.882 26.651C412.044 26.651 410.331 27.1105 408.744 28.0297C407.156 28.907 405.861 30.223 404.858 31.9777C403.897 33.6905 403.417 35.7377 403.417 38.119C403.417 40.5003 403.897 42.5892 404.858 44.3857C405.861 46.1821 407.156 47.5608 408.744 48.5217C410.373 49.4408 412.086 49.9003 413.882 49.9003C415.721 49.9003 417.433 49.4408 419.021 48.5217C420.608 47.6026 421.883 46.2657 422.844 44.511C423.846 42.7146 424.348 40.6257 424.348 38.2443Z"/><path fill="#11243E" d="M471.354 21.011L450.172 71.771H442.778L449.796 54.9763L436.198 21.011H444.156L453.87 47.331L463.959 21.011H471.354Z"/><path fill="#11243E" fill-rule="evenodd" d="M382.443 9H389.921V55.7067H382.443V9ZM382.777 9.33333V55.3733H389.587V9.33333H382.777ZM202.851 11.3733H210.734V20.4768H218.142V27.6338H210.734V41.2943C210.734 42.8564 210.795 44.0761 210.984 45.0299C211.172 45.9816 211.485 46.6535 211.976 47.134C212.468 47.6149 213.158 47.9221 214.136 48.1076C215.116 48.2933 216.369 48.3542 217.975 48.3542H218.142V55.7067H216.858C211.538 55.7067 208.016 54.8742 205.834 52.6333C203.652 50.3938 202.851 46.7895 202.851 41.3647V27.6338H196.91V20.4768H202.851V11.3733ZM203.184 11.7067V20.8101H197.244V27.3005H203.184V41.3647C203.184 46.7791 203.99 50.2625 206.073 52.4008C208.154 54.5377 211.552 55.3733 216.858 55.3733H217.809V48.6873C216.277 48.6832 215.051 48.6203 214.074 48.4351C213.06 48.2429 212.299 47.9162 211.743 47.3723C211.186 46.8281 210.853 46.0842 210.657 45.0946C210.461 44.107 210.4 42.8597 210.4 41.2943V27.3005H217.809V20.8101H210.4V11.7067H203.184ZM263.7 11.82H278.907C282.267 11.82 285.114 12.4079 287.441 13.5923C289.805 14.7741 291.565 16.3614 292.712 18.3569C293.897 20.3476 294.489 22.5704 294.489 25.0213C294.489 27.8972 293.643 30.5211 291.952 32.8884C290.329 35.1769 287.836 36.7437 284.492 37.5993L295.306 55.7067H286.393L276.366 38.2853H271.177V55.7067H263.7V11.82ZM264.033 12.1533V55.3733H270.844V37.952H276.559L286.586 55.3733H294.718L283.974 37.3836L284.194 37.3301C287.591 36.5016 290.079 34.953 291.68 32.6956C293.331 30.3839 294.156 27.827 294.156 25.0213C294.156 22.6264 293.578 20.4628 292.425 18.5266L292.423 18.5244C291.314 16.5934 289.607 15.0479 287.292 13.8904L287.291 13.8899C285.023 12.735 282.23 12.1533 278.907 12.1533H264.033ZM270.844 17.648H278.907C281.645 17.648 283.721 18.3008 285.101 19.6369C286.478 20.9287 287.157 22.7314 287.157 25.0213C287.157 27.3136 286.456 29.1561 285.039 30.5298C283.66 31.9081 281.605 32.5827 278.907 32.5827H270.844V17.648ZM271.177 17.9813V32.2493H278.907C281.555 32.2493 283.51 31.5874 284.805 30.2928L284.807 30.291C286.147 28.991 286.824 27.2408 286.824 25.0213C286.824 22.8 286.167 21.0937 284.871 19.8789L284.869 19.877C283.575 18.6234 281.599 17.9813 278.907 17.9813H271.177ZM80 20.1733H97.8804C107.754 20.1733 115.761 28.1267 115.761 37.94V55.7067H107.899V37.94C107.899 32.4439 103.415 27.9867 97.8804 27.9867H87.8617V55.7067H80V20.1733ZM80.3333 20.5067V55.3733H87.5283V27.6533H97.8804C103.597 27.6533 108.232 32.2578 108.232 37.94V55.3733H115.427V37.94C115.427 28.3128 107.572 20.5067 97.8804 20.5067H80.3333ZM137.113 20.5067C127.091 20.5067 119.303 27.9916 119.303 37.9418C119.303 42.962 121.153 47.3167 124.428 50.4169C127.703 53.5174 132.416 55.3733 138.159 55.3733C144.772 55.3733 149.039 53.1179 152.131 50.0712L147.622 45.3279C145.656 47.1604 142.447 48.8754 138.078 48.8754C134.959 48.8754 132.492 48.0849 130.681 46.6606C128.868 45.2359 127.727 43.189 127.24 40.7054L127.201 40.5067H154.371C154.616 34.6986 153.138 29.7178 150.207 26.1827C147.252 22.6183 142.807 20.5067 137.113 20.5067ZM118.97 37.9418C118.97 27.7992 126.915 20.1733 137.113 20.1733C142.895 20.1733 147.439 22.3212 150.464 25.9699C153.486 29.6156 154.979 34.7429 154.697 40.6812L154.69 40.84H127.608C128.103 43.1686 129.195 45.069 130.887 46.3986C132.626 47.7664 135.015 48.5421 138.078 48.5421C142.444 48.5421 145.615 46.7936 147.513 44.9724L147.634 44.8565L152.596 50.0774L152.482 50.1923C149.321 53.3577 144.946 55.7067 138.159 55.7067C132.343 55.7067 127.545 53.8261 124.199 50.6589C120.853 47.4914 118.97 43.0469 118.97 37.9418ZM176.083 20.5067C166.061 20.5067 158.274 27.9916 158.274 37.9418C158.274 42.962 160.123 47.3167 163.398 50.4169C166.674 53.5174 171.386 55.3733 177.129 55.3733C183.742 55.3733 188.009 53.1179 191.101 50.0712L186.592 45.3279C184.626 47.1604 181.417 48.8754 177.048 48.8754C173.929 48.8754 171.462 48.0849 169.651 46.6606C167.839 45.2359 166.698 43.189 166.21 40.7054L166.171 40.5067H193.342C193.586 34.6986 192.108 29.7178 189.177 26.1827C186.222 22.6183 181.777 20.5067 176.083 20.5067ZM157.94 37.9418C157.94 27.7992 165.885 20.1733 176.083 20.1733C181.865 20.1733 186.409 22.3212 189.434 25.9699C192.456 29.6156 193.949 34.7429 193.667 40.6812L193.66 40.84H166.578C167.073 43.1686 168.166 45.069 169.857 46.3986C171.597 47.7664 173.985 48.5421 177.048 48.5421C181.414 48.5421 184.585 46.7936 186.483 44.9724L186.604 44.8565L191.567 50.0774L191.452 50.1923C188.291 53.3577 183.916 55.7067 177.129 55.7067C171.313 55.7067 166.515 53.8261 163.169 50.6589C159.823 47.4914 157.94 43.0469 157.94 37.9418ZM239.198 20.5067C229.459 20.5067 221.685 28.1505 221.685 37.9406C221.685 47.6625 229.459 55.3733 239.198 55.3733C248.937 55.3733 256.779 47.6617 256.779 37.9406C256.779 28.1514 248.937 20.5067 239.198 20.5067ZM221.351 37.9406C221.351 27.9638 229.277 20.1733 239.198 20.1733C249.117 20.1733 257.112 27.963 257.112 37.9406C257.112 47.8492 249.118 55.7067 239.198 55.7067C229.277 55.7067 221.351 47.8484 221.351 37.9406ZM317.647 20.6133C314.288 20.6133 311.309 21.3388 308.705 22.7854C306.143 24.2314 304.139 26.2966 302.691 28.985C301.286 31.6308 300.58 34.7155 300.58 38.244C300.58 41.7711 301.306 44.876 302.753 47.5635C304.242 50.2109 306.268 52.2773 308.831 53.7656C311.435 55.2123 314.373 55.9373 317.647 55.9373C321.671 55.9373 325.019 54.9421 327.7 52.9619C330.367 50.982 332.222 48.472 333.27 45.4293H325.897C325.095 47.0166 324.014 48.2179 322.651 49.0251C321.263 49.8475 319.592 50.2547 317.647 50.2547C314.935 50.2547 312.638 49.4059 310.767 47.7047C308.894 46.0016 307.854 43.7458 307.642 40.9513L307.629 40.772H334.048C334.199 39.7736 334.275 38.6595 334.275 37.4293C334.275 34.1113 333.57 31.1947 332.165 28.6745L332.165 28.6735C330.759 26.1104 328.797 24.1279 326.277 22.7229C323.756 21.3179 320.881 20.6133 317.647 20.6133ZM308.542 22.4943C311.202 21.0167 314.238 20.28 317.647 20.28C320.931 20.28 323.863 20.9959 326.439 22.4318C329.015 23.8675 331.021 25.8953 332.457 28.5122C333.893 31.0889 334.608 34.0629 334.608 37.4293C334.608 38.7314 334.524 39.9102 334.356 40.965L334.333 41.1053H307.989C308.225 43.7418 309.228 45.855 310.991 47.458C312.796 49.099 315.011 49.9213 317.647 49.9213C319.545 49.9213 321.154 49.5243 322.481 48.7383C323.808 47.9527 324.863 46.7725 325.644 45.1889L325.69 45.096H333.732L333.66 45.3147C332.605 48.5235 330.683 51.1628 327.898 53.2298C325.149 55.2603 321.728 56.2707 317.647 56.2707C314.321 56.2707 311.327 55.5336 308.667 54.0564L308.665 54.0548C306.048 52.5355 303.98 50.4248 302.462 47.7257L302.46 47.723C300.983 44.9797 300.247 41.8185 300.247 38.244C300.247 34.6703 300.962 31.5302 302.397 28.8285C303.874 26.0863 305.922 23.9732 308.541 22.4949L308.542 22.4943ZM359.981 20.6133C357.373 20.6133 355.039 21.1514 352.977 22.2239C350.906 23.3008 349.276 24.6229 348.082 26.1878L347.783 26.5798V21.1773H340.972V71.792H347.783V50.0587L348.079 50.4213C349.358 51.9893 351.01 53.3125 353.04 54.3895C355.06 55.4199 357.373 55.9373 359.981 55.9373C362.96 55.9373 365.666 55.1932 368.104 53.7059C370.583 52.1767 372.526 50.0692 373.933 47.3797C375.34 44.6486 376.045 41.5628 376.045 38.1187C376.045 34.6744 375.34 31.6313 373.934 28.9849C372.528 26.3372 370.586 24.2925 368.107 22.8466L368.104 22.8449C365.666 21.3576 362.96 20.6133 359.981 20.6133ZM352.823 21.9281C354.939 20.8282 357.326 20.28 359.981 20.28C363.018 20.28 365.785 21.0395 368.276 22.5596C370.81 24.0381 372.795 26.1291 374.229 28.8285C375.664 31.5296 376.379 34.6278 376.379 38.1187C376.379 41.6096 375.664 44.7487 374.23 47.5323L374.229 47.5333C372.795 50.2742 370.812 52.4277 368.278 53.9899C365.786 55.5105 363.019 56.2707 359.981 56.2707C357.327 56.2707 354.961 55.7438 352.887 54.6858L352.885 54.6846C350.973 53.67 349.382 52.4364 348.116 50.9829V72.1253H340.639V20.844H348.116V25.6092C349.312 24.1636 350.883 22.9372 352.823 21.9281ZM412.379 20.6133C409.4 20.6133 406.673 21.3576 404.193 22.8456C401.755 24.2916 399.811 26.3374 398.362 28.9866C396.957 31.6326 396.252 34.6751 396.252 38.1187C396.252 41.562 396.957 44.6471 398.363 47.3777C399.813 50.0687 401.756 52.1769 404.195 53.7063C406.632 55.1935 409.318 55.9373 412.254 55.9373C414.904 55.9373 417.259 55.3991 419.321 54.3268C421.391 53.2504 423.02 51.908 424.215 50.3019L424.515 49.8979V55.3733H431.388V21.1773H424.515V26.5171L424.216 26.1251C423.021 24.5602 421.413 23.2593 419.385 22.2245L419.381 22.2225C417.404 21.1518 415.072 20.6133 412.379 20.6133ZM404.021 22.5597C406.555 21.0397 409.342 20.28 412.379 20.28C415.116 20.28 417.504 20.8274 419.538 21.9284C421.44 22.8991 422.989 24.1045 424.182 25.5465V20.844H431.722V55.7067H424.182V50.8883C422.986 52.3692 421.415 53.6134 419.474 54.6225C417.359 55.7227 414.95 56.2707 412.254 56.2707C409.258 56.2707 406.512 55.5107 404.02 53.9903L404.018 53.9892C401.528 52.4272 399.545 50.2744 398.069 47.535L398.068 47.5323C396.634 44.7487 395.919 41.6096 395.919 38.1187C395.919 34.6278 396.634 31.5296 398.069 28.8285L398.07 28.8267C399.546 26.1287 401.529 24.0382 404.021 22.5597ZM435.952 20.844H444.273L453.873 46.8573L463.845 20.844H471.604L450.284 71.9373H442.528L449.617 54.9746L435.952 20.844ZM436.445 21.1773L449.977 54.9774L443.029 71.604H450.062L471.104 21.1773H464.074L453.867 47.804L444.041 21.1773H436.445ZM310.893 28.7197C312.68 27.1036 314.83 26.296 317.334 26.296C320.084 26.296 322.401 27.101 324.273 28.7179C326.151 30.3393 327.109 32.4957 327.151 35.1707L327.154 35.34H307.682L307.706 35.1527C308.044 32.4455 309.104 30.2964 310.893 28.7197ZM317.334 26.6293C314.908 26.6293 312.839 27.409 311.116 28.9676L311.115 28.9691C309.436 30.4479 308.416 32.4559 308.061 35.0067H326.814C326.736 32.4969 325.815 30.4898 324.055 28.9701C322.251 27.4118 320.014 26.6293 317.334 26.6293ZM353.194 27.8842C354.847 26.9516 356.588 26.484 358.415 26.484C360.281 26.484 362.022 26.9508 363.635 27.8838C365.293 28.7773 366.609 30.1165 367.584 31.8953C368.603 33.638 369.109 35.7146 369.109 38.1187C369.109 40.5233 368.603 42.6405 367.585 44.4651C366.611 46.2858 365.296 47.6875 363.638 48.6649L363.637 48.6656C362.024 49.5994 360.282 50.0667 358.415 50.0667C356.588 50.0667 354.847 49.5991 353.194 48.6665L353.193 48.6656C351.577 47.7302 350.262 46.3709 349.246 44.5934L349.244 44.5893C348.268 42.7649 347.783 40.6481 347.783 38.244C347.783 35.84 348.268 33.7434 349.245 31.9599L349.246 31.9573C350.262 30.1798 351.577 28.8204 353.193 27.8851L353.194 27.8842ZM353.359 28.174C351.8 29.0768 350.525 30.3908 349.536 32.1217C348.592 33.8472 348.116 35.8861 348.116 38.244C348.116 40.6016 348.591 42.662 349.537 44.43C350.526 46.1604 351.8 47.474 353.359 48.3765C354.964 49.2819 356.648 49.7333 358.415 49.7333C360.223 49.7333 361.907 49.2816 363.469 48.3776C365.07 47.4334 366.344 46.0782 367.292 44.3067L367.293 44.3041C368.28 42.5362 368.776 40.4761 368.776 38.1187C368.776 35.761 368.28 33.7442 367.295 32.0615L367.293 32.0574C366.346 30.3286 365.073 29.0369 363.474 28.1761L363.47 28.1736C361.908 27.2692 360.224 26.8173 358.415 26.8173C356.649 26.8173 354.964 27.2687 353.359 28.174ZM408.663 27.884C410.275 26.9509 412.016 26.484 413.883 26.484C415.75 26.484 417.492 26.9513 419.105 27.8851C420.721 28.8205 422.015 30.1802 422.99 31.9582C424.009 33.7421 424.515 35.8392 424.515 38.244C424.515 40.6492 424.008 42.767 422.99 44.5919C422.016 46.3702 420.721 47.73 419.105 48.6656C417.492 49.5994 415.75 50.0667 413.883 50.0667C412.057 50.0667 410.316 49.5991 408.662 48.6665L408.658 48.6639C407.043 47.6865 405.729 46.2854 404.713 44.4666L404.712 44.4639C403.736 42.6395 403.251 40.5228 403.251 38.1187C403.251 35.7148 403.736 33.6384 404.714 31.8958L404.714 31.8946C405.73 30.1169 407.046 28.7777 408.663 27.884ZM413.883 26.8173C412.074 26.8173 410.39 27.2692 408.828 28.1736L408.825 28.1752C407.267 29.0361 405.993 30.3288 405.004 32.06C404.06 33.743 403.584 35.7604 403.584 38.1187C403.584 40.4767 404.06 42.5374 405.005 44.3056C405.995 46.078 407.27 47.4335 408.828 48.3775C410.433 49.2822 412.117 49.7333 413.883 49.7333C415.692 49.7333 417.376 49.2815 418.938 48.3771C420.497 47.4746 421.75 46.1611 422.698 44.4306L422.699 44.4294C423.685 42.6615 424.182 40.6014 424.182 38.244C424.182 35.8865 423.685 33.848 422.7 32.1227L422.698 32.1201C421.75 30.3896 420.497 29.076 418.938 28.1736C417.376 27.2692 415.692 26.8173 413.883 26.8173ZM130.598 29.0421C132.308 27.6584 134.555 26.9267 137.195 26.9267C140.039 26.9267 142.189 27.7819 143.72 29.232C145.249 30.68 146.144 32.7062 146.509 35.0215L146.539 35.2141H127.202L127.24 35.0163C127.727 32.4519 128.888 30.4261 130.598 29.0421ZM127.606 34.8808C128.102 32.4766 129.211 30.5933 130.808 29.3013C132.449 27.9737 134.617 27.2601 137.195 27.2601C139.969 27.2601 142.032 28.092 143.491 29.474C144.91 30.8187 145.772 32.6984 146.148 34.8808H127.606ZM169.569 29.0421C171.279 27.6584 173.525 26.9267 176.165 26.9267C179.009 26.9267 181.16 27.7819 182.69 29.232C184.219 30.68 185.114 32.7062 185.479 35.0215L185.509 35.2141H166.172L166.21 35.0163C166.697 32.4519 167.858 30.4261 169.569 29.0421ZM166.576 34.8808C167.072 32.4766 168.182 30.5933 169.778 29.3013C171.419 27.9737 173.587 27.2601 176.165 27.2601C178.939 27.2601 181.002 28.092 182.461 29.474C183.881 30.8187 184.743 32.6984 185.118 34.8808H166.576ZM228.587 37.9406C228.587 31.8982 233.228 26.9427 239.198 26.9427C245.165 26.9427 249.877 31.8967 249.877 37.9406C249.877 43.9833 245.165 48.9373 239.198 48.9373C233.228 48.9373 228.587 43.9818 228.587 37.9406ZM239.198 27.276C233.426 27.276 228.92 32.0681 228.92 37.9406C228.92 43.8119 233.426 48.604 239.198 48.604C244.97 48.604 249.544 43.8105 249.544 37.9406C249.544 32.0695 244.97 27.276 239.198 27.276Z" clip-rule="evenodd"/><defs><filter id="filter0_d_3239_11799" width="32.632" height="34.54" x="18.284" y="20" color-interpolation-filters="sRGB" filterUnits="userSpaceOnUse"><feFlood flood-opacity="0" result="BackgroundImageFix"/><feColorMatrix in="SourceAlpha" result="hardAlpha" type="matrix" values="0 0 0 0 0 0 0 0 0 0 0 0 0 0 0 0 0 0 127 0"/><feOffset dx="3" dy="4"/><feGaussianBlur stdDeviation="1.5"/><feComposite in2="hardAlpha" operator="out"/><feColorMatrix type="matrix" values="0 0 0 0 0 0 0 0 0 0 0 0 0 0 0 0 0 0 0.05 0"/><feBlend in2="BackgroundImageFix" mode="normal" result="effect1_dropShadow_3239_11799"/><feBlend in="SourceGraphic" in2="effect1_dropShadow_3239_11799" mode="normal" result="shape"/></filter><linearGradient id="paint0_linear_3239_11799" x1="79.486" x2="-2.629" y1="92" y2="-10.514" gradientUnits="userSpaceOnUse"><stop offset=".344" stop-color="#20C7BD"/><stop offset=".699" stop-color="#83D6AE"/></linearGradient></defs></svg>