<svg width="346" height="65" viewBox="0 0 346 65" fill="none" xmlns="http://www.w3.org/2000/svg">
<path d="M48 32.9956C48 19.7408 37.2548 8.99561 24 8.99561H0V56.9956H48V32.9956Z" fill="url(#paint0_linear_3688_21648)"/>
<g filter="url(#filter0_d_3688_21648)">
<path d="M12.3428 21.3384H19.9589V27.2216C18.967 27.5506 18.2527 28.487 18.2556 29.589C18.2584 30.6864 18.9717 31.616 19.9589 31.9435V36.4432C18.966 36.7695 18.249 37.7042 18.249 38.8063C18.249 40.1798 19.3624 41.2932 20.7359 41.2932C22.1093 41.2932 23.2227 40.1798 23.2227 38.8063C23.2227 37.7044 22.506 36.7698 21.5132 36.4434V31.9476C21.8379 31.8419 22.1332 31.6711 22.3838 31.4508L25.0439 32.9866C25.0121 33.1464 24.9957 33.3117 24.9961 33.4808C24.9997 34.8543 26.116 35.9648 27.4894 35.9612C28.8629 35.9576 29.9734 34.8413 29.9698 33.4679C29.9662 32.0944 28.8499 30.9839 27.4765 30.9875C26.8346 30.9892 26.2502 31.2339 25.8101 31.6342L23.1729 30.1117C23.2103 29.9391 23.2297 29.7599 23.2293 29.5761C23.2264 28.4739 22.507 27.5411 21.5132 27.2174V21.3384H23.9999C30.438 21.3384 35.6571 26.5575 35.6571 32.9955V44.6527H12.3428V21.3384Z" fill="white"/>
</g>
<path fill-rule="evenodd" clip-rule="evenodd" d="M90.0873 21.6226H73.2401L81.5759 29.8206H90.0873C95.4515 29.8206 99.7952 34.0714 99.7952 39.3091V56.9956H108.175V39.3091C108.175 29.5385 100.074 21.6226 90.0873 21.6226ZM80.3794 31.0143L72 22.7734V56.9956H80.3794V31.0143ZM144.982 51.2125L139.664 45.7081L139.346 46.009C137.501 47.751 134.408 49.4336 130.135 49.4336C127.13 49.4336 124.814 48.6851 123.14 47.3898C121.593 46.1932 120.559 44.5034 120.047 42.4212H146.946L146.966 42.0092C147.249 36.1373 145.75 31.0399 142.686 27.4026C139.615 23.7575 135.007 21.6226 129.173 21.6226C118.87 21.6226 110.825 29.2122 110.825 39.3108C110.825 44.3842 112.728 48.8137 116.12 51.9734C119.511 55.1321 124.362 56.9956 130.216 56.9956C137.052 56.9956 141.48 54.663 144.679 51.5107L144.982 51.2125ZM183.807 51.2125L178.49 45.7081L178.171 46.009C176.326 47.751 173.233 49.4336 168.96 49.4336C165.955 49.4336 163.639 48.6851 161.965 47.3898C160.418 46.1932 159.385 44.5034 158.872 42.4212H185.771L185.791 42.0092C186.074 36.1373 184.575 31.0399 181.511 27.4026C178.44 23.7575 173.832 21.6226 167.999 21.6226C157.695 21.6226 149.65 29.2122 149.65 39.3108C149.65 44.3842 151.553 48.8137 154.945 51.9734C158.336 55.1321 163.187 56.9956 169.041 56.9956C175.877 56.9956 180.305 54.663 183.504 51.5107L183.807 51.2125ZM194.393 21.9201H188.475V29.4747H194.393V42.6664C194.393 47.9929 195.189 51.6241 197.443 53.9013C199.701 56.1821 203.311 56.9956 208.622 56.9956H210.175V49.2494H209.735C208.138 49.2494 206.91 49.1894 205.961 49.0123C205.015 48.8359 204.387 48.5505 203.95 48.1299C203.514 47.7103 203.22 47.1098 203.038 46.2073C202.856 45.2997 202.794 44.1261 202.794 42.5975V29.4747H210.175V21.9201H202.794V12.9956H194.393V21.9201ZM129.255 29.1083C131.961 29.1083 133.946 29.9051 135.34 31.205C136.632 32.4093 137.453 34.0787 137.846 36.0409H120.043C120.557 33.8916 121.603 32.2136 123.065 31.0494C124.642 29.7934 126.738 29.1083 129.255 29.1083ZM168.081 29.1083C170.786 29.1083 172.771 29.9051 174.165 31.205C175.457 32.4093 176.278 34.0787 176.672 36.0409H158.868C159.382 33.8916 160.428 32.2136 161.89 31.0494C163.467 29.7934 165.563 29.1083 168.081 29.1083ZM230.879 29.1239C236.469 29.1239 240.913 33.6936 240.913 39.3097C240.913 44.9246 236.469 49.4943 230.879 49.4943C225.291 49.4943 220.913 44.9284 220.913 39.3097C220.913 33.6898 225.291 29.1239 230.879 29.1239ZM230.879 21.6226C220.846 21.6226 212.825 29.3783 212.825 39.3097C212.825 49.1728 220.845 56.9956 230.879 56.9956C240.91 56.9956 249 49.175 249 39.3097C249 29.3761 240.909 21.6226 230.879 21.6226Z" fill="#11243E"/>
<path d="M285.78 25.5449C284.777 23.7067 283.399 22.3072 281.644 21.3463C279.889 20.3854 277.842 19.9049 275.503 19.9049C272.912 19.9049 270.615 20.4898 268.609 21.6596C266.604 22.8294 265.037 24.5005 263.909 26.6729C262.781 28.8454 262.217 31.3521 262.217 34.1929C262.217 37.1174 262.781 39.6658 263.909 41.8383C265.079 44.0107 266.688 45.6818 268.735 46.8516C270.782 48.0214 273.163 48.6063 275.879 48.6063C279.221 48.6063 281.957 47.7289 284.088 45.9743C286.219 44.1778 287.618 41.6921 288.287 38.5169H273.247V31.8116H296.935V39.4569C296.35 42.5067 295.096 45.3267 293.175 47.9169C291.253 50.5072 288.767 52.5961 285.717 54.1836C282.709 55.7294 279.325 56.5023 275.565 56.5023C271.346 56.5023 267.523 55.5623 264.097 53.6823C260.713 51.7605 258.04 49.1076 256.076 45.7236C254.154 42.3396 253.193 38.4961 253.193 34.1929C253.193 29.8898 254.154 26.0463 256.076 22.6623C258.04 19.2365 260.713 16.5836 264.097 14.7036C267.523 12.7818 271.325 11.8209 275.503 11.8209C280.432 11.8209 284.715 13.0325 288.349 15.4556C291.984 17.8369 294.491 21.2001 295.869 25.5449H285.78Z" fill="#11243E"/>
<path d="M307.208 17.2729C305.662 17.2729 304.367 16.7925 303.323 15.8316C302.32 14.8289 301.819 13.5965 301.819 12.1343C301.819 10.6721 302.32 9.46049 303.323 8.4996C304.367 7.49694 305.662 6.99561 307.208 6.99561C308.754 6.99561 310.028 7.49694 311.031 8.4996C312.075 9.46049 312.598 10.6721 312.598 12.1343C312.598 13.5965 312.075 14.8289 311.031 15.8316C310.028 16.7925 308.754 17.2729 307.208 17.2729ZM311.532 21.4089V56.1263H302.759V21.4089H311.532Z" fill="#11243E"/>
<path d="M329.748 28.6156V45.4103C329.748 46.5801 330.02 47.4365 330.563 47.9796C331.148 48.4809 332.109 48.7316 333.446 48.7316H337.519V56.1263H332.004C324.61 56.1263 320.912 52.5334 320.912 45.3476V28.6156H316.776V21.4089H320.912V12.8236H329.748V21.4089H337.519V28.6156H329.748Z" fill="#11243E"/>
<defs>
<filter id="filter0_d_3688_21648" x="12.3428" y="21.3384" width="29.3145" height="30.3142" filterUnits="userSpaceOnUse" color-interpolation-filters="sRGB">
<feFlood flood-opacity="0" result="BackgroundImageFix"/>
<feColorMatrix in="SourceAlpha" type="matrix" values="0 0 0 0 0 0 0 0 0 0 0 0 0 0 0 0 0 0 127 0" result="hardAlpha"/>
<feOffset dx="3" dy="4"/>
<feGaussianBlur stdDeviation="1.5"/>
<feComposite in2="hardAlpha" operator="out"/>
<feColorMatrix type="matrix" values="0 0 0 0 0 0 0 0 0 0 0 0 0 0 0 0 0 0 0.05 0"/>
<feBlend mode="normal" in2="BackgroundImageFix" result="effect1_dropShadow_3688_21648"/>
<feBlend mode="normal" in="SourceGraphic" in2="effect1_dropShadow_3688_21648" result="shape"/>
</filter>
<linearGradient id="paint0_linear_3688_21648" x1="74.2286" y1="96.767" x2="-27.4286" y2="-20.6615" gradientUnits="userSpaceOnUse">
<stop stop-color="#FF4E6E"/>
<stop offset="0.696114" stop-color="#FF8B8B"/>
</linearGradient>
</defs>
</svg>
