<svg width="412" height="63" viewBox="0 0 412 63" fill="none" xmlns="http://www.w3.org/2000/svg">
<path d="M48 31C48 17.7452 37.2548 7 24 7H0V55H48V31Z" fill="url(#paint0_linear_3688_21375)"/>
<g filter="url(#filter0_d_3688_21375)">
<path d="M21.9933 22.7968H26.611C29.0604 22.7968 31.4094 23.7422 33.1414 25.4251C34.8734 27.108 35.8464 29.3905 35.8464 31.7705C35.8464 34.1504 34.8734 36.4329 33.1414 38.1158C31.4094 39.7987 29.0604 40.7442 26.611 40.7442V44.6702C20.8388 42.4267 12.7578 39.0616 12.7578 31.7705C12.7578 30.592 12.9967 29.4251 13.4608 28.3364C13.9249 27.2476 14.6052 26.2584 15.4628 25.4251C16.3204 24.5918 17.3385 23.9308 18.459 23.4798C19.5795 23.0289 20.7804 22.7968 21.9933 22.7968Z" fill="white"/>
</g>
<path fill-rule="evenodd" clip-rule="evenodd" d="M90.0873 19.627H73.2401L81.5759 27.825H90.0873C95.4515 27.825 99.7952 32.0758 99.7952 37.3135V55H108.175V37.3135C108.175 27.5429 100.074 19.627 90.0873 19.627ZM80.3794 29.0187L72 20.7778V55H80.3794V29.0187ZM144.982 49.2169L139.664 43.7125L139.346 44.0134C137.501 45.7554 134.408 47.438 130.135 47.438C127.13 47.438 124.814 46.6895 123.14 45.3942C121.593 44.1976 120.559 42.5078 120.047 40.4256H146.946L146.966 40.0135C147.249 34.1417 145.75 29.0443 142.686 25.407C139.615 21.7619 135.007 19.627 129.173 19.627C118.87 19.627 110.825 27.2166 110.825 37.3152C110.825 42.3885 112.728 46.8181 116.12 49.9778C119.511 53.1365 124.362 55 130.216 55C137.052 55 141.48 52.6674 144.679 49.5151L144.982 49.2169ZM183.807 49.2169L178.49 43.7125L178.171 44.0134C176.326 45.7554 173.233 47.438 168.96 47.438C165.955 47.438 163.639 46.6895 161.965 45.3942C160.418 44.1976 159.385 42.5078 158.872 40.4256H185.771L185.791 40.0135C186.074 34.1417 184.575 29.0443 181.511 25.407C178.44 21.7619 173.832 19.627 167.999 19.627C157.695 19.627 149.65 27.2166 149.65 37.3152C149.65 42.3885 151.553 46.8181 154.945 49.9778C158.336 53.1365 163.187 55 169.041 55C175.877 55 180.305 52.6674 183.504 49.5151L183.807 49.2169ZM194.393 19.9245H188.475V27.4791H194.393V40.6708C194.393 45.9973 195.189 49.6285 197.443 51.9057C199.701 54.1865 203.311 55 208.622 55H210.175V47.2538H209.735C208.138 47.2538 206.91 47.1938 205.961 47.0167C205.015 46.8403 204.387 46.5548 203.95 46.1343C203.514 45.7147 203.22 45.1142 203.038 44.2117C202.856 43.3041 202.794 42.1305 202.794 40.6019V27.4791H210.175V19.9245H202.794V11H194.393V19.9245ZM129.255 27.1127C131.961 27.1127 133.946 27.9095 135.34 29.2094C136.632 30.4137 137.453 32.0831 137.846 34.0453H120.043C120.557 31.8959 121.603 30.218 123.065 29.0538C124.642 27.7977 126.738 27.1127 129.255 27.1127ZM168.081 27.1127C170.786 27.1127 172.771 27.9095 174.165 29.2094C175.457 30.4137 176.278 32.0831 176.672 34.0453H158.868C159.382 31.8959 160.428 30.218 161.89 29.0538C163.467 27.7977 165.563 27.1127 168.081 27.1127ZM230.879 27.1283C236.469 27.1283 240.913 31.698 240.913 37.3141C240.913 42.929 236.469 47.4986 230.879 47.4986C225.291 47.4986 220.913 42.9328 220.913 37.3141C220.913 31.6942 225.291 27.1283 230.879 27.1283ZM230.879 19.627C220.846 19.627 212.825 27.3827 212.825 37.3141C212.825 47.1772 220.845 55 230.879 55C240.91 55 249 47.1794 249 37.3141C249 27.3805 240.909 19.627 230.879 19.627Z" fill="#11243E"/>
<path d="M253 32.5027C253 28.1996 253.961 24.356 255.883 20.972C257.846 17.5462 260.499 14.8933 263.841 13.0134C267.225 11.0916 271.006 10.1307 275.184 10.1307C280.072 10.1307 284.354 11.384 288.031 13.8907C291.707 16.3974 294.276 19.8649 295.739 24.2934H285.649C284.647 22.2045 283.226 20.6378 281.388 19.5933C279.592 18.5489 277.503 18.0267 275.121 18.0267C272.573 18.0267 270.296 18.6325 268.291 19.844C266.327 21.0138 264.781 22.6849 263.653 24.8574C262.567 27.0298 262.024 29.5782 262.024 32.5027C262.024 35.3854 262.567 37.9338 263.653 40.148C264.781 42.3205 266.327 44.0125 268.291 45.224C270.296 46.3938 272.573 46.9787 275.121 46.9787C277.503 46.9787 279.592 46.4565 281.388 45.412C283.226 44.3258 284.647 42.7382 285.649 40.6494H295.739C294.276 45.1196 291.707 48.608 288.031 51.1147C284.396 53.5796 280.114 54.812 275.184 54.812C271.006 54.812 267.225 53.872 263.841 51.992C260.499 50.0702 257.846 47.4174 255.883 44.0334C253.961 40.6494 253 36.8058 253 32.5027Z" fill="#11243E"/>
<path d="M322.118 19.2173C324.75 19.2173 327.089 19.8022 329.136 20.972C331.183 22.1 332.771 23.792 333.899 26.048C335.069 28.2622 335.654 30.936 335.654 34.0694V54.436H326.88V35.26C326.88 32.5027 326.191 30.3929 324.812 28.9307C323.434 27.4267 321.554 26.6747 319.172 26.6747C316.749 26.6747 314.827 27.4267 313.407 28.9307C312.028 30.3929 311.339 32.5027 311.339 35.26V54.436H302.566V8.06268H311.339V24.0427C312.467 22.5387 313.971 21.3689 315.851 20.5334C317.731 19.656 319.82 19.2173 322.118 19.2173Z" fill="#11243E"/>
<path d="M341.074 36.952C341.074 33.4427 341.763 30.3302 343.142 27.6147C344.562 24.8991 346.463 22.8102 348.845 21.348C351.268 19.8858 353.962 19.1547 356.929 19.1547C359.519 19.1547 361.775 19.6769 363.697 20.7213C365.66 21.7658 367.227 23.0818 368.397 24.6694V19.7187H377.233V54.436H368.397V49.36C367.269 50.9894 365.702 52.3471 363.697 53.4334C361.733 54.4778 359.456 55 356.866 55C353.941 55 351.268 54.248 348.845 52.744C346.463 51.24 344.562 49.1302 343.142 46.4147C341.763 43.6574 341.074 40.5031 341.074 36.952ZM368.397 37.0774C368.397 34.9467 367.979 33.1294 367.143 31.6254C366.308 30.0796 365.18 28.9098 363.759 28.116C362.339 27.2805 360.814 26.8627 359.185 26.8627C357.555 26.8627 356.051 27.2596 354.673 28.0534C353.294 28.8471 352.166 30.0169 351.289 31.5627C350.453 33.0667 350.035 34.8631 350.035 36.952C350.035 39.0409 350.453 40.8791 351.289 42.4667C352.166 44.0125 353.294 45.2031 354.673 46.0387C356.093 46.8742 357.597 47.292 359.185 47.292C360.814 47.292 362.339 46.8951 363.759 46.1014C365.18 45.2658 366.308 44.096 367.143 42.592C367.979 41.0462 368.397 39.208 368.397 37.0774Z" fill="#11243E"/>
<path d="M395.349 26.9254V43.72C395.349 44.8898 395.621 45.7462 396.164 46.2894C396.749 46.7907 397.71 47.0414 399.047 47.0414H403.12V54.436H397.605C390.211 54.436 386.513 50.8431 386.513 43.6574V26.9254H382.377V19.7187H386.513V11.1333H395.349V19.7187H403.12V26.9254H395.349Z" fill="#11243E"/>
<defs>
<filter id="filter0_d_3688_21375" x="5.46817" y="18.423" width="37.6677" height="36.4527" filterUnits="userSpaceOnUse" color-interpolation-filters="sRGB">
<feFlood flood-opacity="0" result="BackgroundImageFix"/>
<feColorMatrix in="SourceAlpha" type="matrix" values="0 0 0 0 0 0 0 0 0 0 0 0 0 0 0 0 0 0 127 0" result="hardAlpha"/>
<feOffset dy="2.91586"/>
<feGaussianBlur stdDeviation="3.64482"/>
<feComposite in2="hardAlpha" operator="out"/>
<feColorMatrix type="matrix" values="0 0 0 0 0 0 0 0 0 0 0 0 0 0 0 0 0 0 0.1 0"/>
<feBlend mode="normal" in2="BackgroundImageFix" result="effect1_dropShadow_3688_21375"/>
<feBlend mode="normal" in="SourceGraphic" in2="effect1_dropShadow_3688_21375" result="shape"/>
</filter>
<linearGradient id="paint0_linear_3688_21375" x1="25.5701" y1="74.2897" x2="25.3458" y2="12.6075" gradientUnits="userSpaceOnUse">
<stop stop-color="#A368DC"/>
<stop offset="1" stop-color="#8886FF"/>
</linearGradient>
</defs>
</svg>
