<svg xmlns="http://www.w3.org/2000/svg" width="778" height="184" fill="none" viewBox="0 0 778 184"><path fill="#000" d="M348.988 106.048C348.988 111.278 348.64 115.984 347.943 120.168H242.132C243.003 130.627 246.66 138.82 253.105 144.746C259.549 150.673 267.474 153.636 276.88 153.636C290.465 153.636 300.132 147.797 305.88 136.118H345.331C341.15 150.063 333.138 161.568 321.294 170.632C309.45 179.522 294.907 183.968 277.664 183.968C263.73 183.968 251.189 180.917 240.042 174.816C229.069 168.541 220.447 159.738 214.177 148.407C208.081 137.076 205.032 124.003 205.032 109.186C205.032 94.1947 208.081 81.0338 214.177 69.7032C220.273 58.3727 228.807 49.6569 239.78 43.5558C250.753 37.4547 263.381 34.4042 277.664 34.4042C291.423 34.4042 303.703 37.3676 314.502 43.2943C325.475 49.2211 333.922 57.6754 339.844 68.6573C345.94 79.4649 348.988 91.9286 348.988 106.048ZM311.105 95.5892C310.931 86.1761 307.535 78.6805 300.916 73.1024C294.297 67.35 286.198 64.4737 276.618 64.4737C267.561 64.4737 259.898 67.2628 253.627 72.8409C247.531 78.2447 243.786 85.8275 242.393 95.5892H311.105Z" data-dark-mode-color="true"/><path fill="#000" d="M510.236 106.048C510.236 111.278 509.888 115.984 509.191 120.168H403.38C404.251 130.627 407.908 138.82 414.353 144.746C420.797 150.673 428.722 153.636 438.128 153.636C451.714 153.636 461.38 147.797 467.128 136.118H506.579C502.398 150.063 494.386 161.568 482.542 170.632C470.699 179.522 456.155 183.968 438.912 183.968C424.978 183.968 412.437 180.917 401.29 174.816C390.317 168.541 381.695 159.738 375.425 148.407C369.329 137.076 366.281 124.003 366.281 109.186C366.281 94.1947 369.329 81.0338 375.425 69.7032C381.521 58.3727 390.055 49.6569 401.029 43.5558C412.002 37.4547 424.629 34.4042 438.912 34.4042C452.671 34.4042 464.951 37.3676 475.75 43.2943C486.723 49.2211 495.17 57.6754 501.092 68.6573C507.188 79.4649 510.236 91.9286 510.236 106.048ZM472.353 95.5892C472.179 86.1761 468.783 78.6805 462.164 73.1024C455.545 67.35 447.446 64.4737 437.867 64.4737C428.809 64.4737 421.146 67.2628 414.875 72.8409C408.779 78.2447 405.035 85.8275 403.641 95.5892H472.353Z" data-dark-mode-color="true"/><path fill="#000" d="M580.125 66.5457V137.251C580.125 142.131 581.413 145.356 583.678 147.622C586.116 149.714 590.122 150.76 595.696 150.76H612.678V181.614H589.687C558.858 181.614 544.108 165.847 544.108 135.864V66.5457H524.715V36.0456H544.108V0H580.125V36.0456H612.678V66.5457H580.125Z" data-dark-mode-color="true"/><path fill="#000" d="M702.495 183.968C688.561 183.968 676.02 180.917 664.873 174.816C653.726 168.541 644.93 159.738 638.486 148.407C632.215 137.076 629.08 124.003 629.08 109.186C629.08 94.369 632.302 81.2953 638.747 69.9647C645.366 58.6341 654.336 49.9183 665.657 43.8173C676.978 37.5419 689.606 34.4042 703.54 34.4042C717.474 34.4042 730.102 37.5419 741.423 43.8173C752.745 49.9183 761.628 58.6341 768.072 69.9647C774.691 81.2953 778 94.369 778 109.186C778 124.003 774.604 137.076 767.811 148.407C761.192 159.738 752.135 168.541 740.639 174.816C729.318 180.917 716.603 183.968 702.495 183.968ZM702.495 152.068C709.114 152.068 715.297 150.499 721.045 147.361C726.967 144.049 731.669 139.168 735.153 132.719C738.636 126.269 740.378 118.425 740.378 109.186C740.378 95.4149 736.721 84.8687 729.405 77.5475C722.264 70.0519 713.468 66.3041 703.018 66.3041C692.567 66.3041 683.771 70.0519 676.63 77.5475C669.663 84.8687 666.18 95.4149 666.18 109.186C666.18 122.957 669.576 133.59 676.369 141.086C683.336 148.407 692.045 152.068 702.495 152.068Z" data-dark-mode-color="true"/><path fill="#5BCC5A" d="M174.137 0H103.921L174.137 105.325V0Z"/><path fill="#000" d="M0 183.968L0.000732662 0H50.7071L174.138 183.968H121.953L40.7264 64.5993V183.968H0Z" data-dark-mode-color="true"/></svg>