<svg width="553" height="79" viewBox="0 0 553 79" fill="none" xmlns="http://www.w3.org/2000/svg">
<path d="M56 32C56 18.7452 45.2548 8 32 8H8V56H56V32Z" fill="url(#paint0_linear_5484_642)"/>
<path d="M38.2169 31.5864C38.2169 27.9121 35.5864 24.8523 32.1058 24.1874V20.8772C37.3997 21.5733 41.486 26.1027 41.486 31.5865C41.486 37.5522 36.6498 42.3885 30.6841 42.3885C25.1023 42.3885 20.5094 38.1548 19.9412 32.7235H23.2363C23.7845 36.3443 26.9102 39.1193 30.684 39.1193C34.8443 39.1193 38.2169 35.7467 38.2169 31.5864Z" fill="white"/>
<path d="M23.1563 31.3022C23.1563 31.3023 23.1563 31.3022 23.1563 31.3022L19.8858 31.3022C19.8858 31.3022 19.8858 31.3021 19.8858 31.3022L23.1563 31.3022Z" fill="white"/>
<path d="M30.6845 20.7845V20.7909C30.6211 20.7888 30.5578 20.7872 30.4947 20.7861C30.5577 20.785 30.6213 20.7845 30.6845 20.7845Z" fill="white"/>
<path d="M36.7932 36.7444C37.4189 36.0938 38.4536 36.0736 39.1043 36.6993L44.5338 41.921C45.1845 42.5467 45.2047 43.5814 44.5789 44.2321C43.9532 44.8827 42.9185 44.9029 42.2678 44.2772L36.8383 39.0555C36.1876 38.4298 36.1675 37.3951 36.7932 36.7444Z" fill="white"/>
<path d="M30.6887 18.6527C23.7025 18.6527 18.0391 24.3162 18.0391 31.3024H30.6887V18.6527Z" fill="white"/>
<path fill-rule="evenodd" clip-rule="evenodd" d="M98.0873 20.0003H81.2401L89.5759 28.1983H98.0873C103.452 28.1983 107.795 32.4491 107.795 37.6868V55.3733H116.175V37.6868C116.175 27.9162 108.074 20.0003 98.0873 20.0003ZM88.3794 29.392L80 21.1511V55.3733H88.3794V29.392ZM152.982 49.5902L147.664 44.0859L147.346 44.3867C145.501 46.1287 142.408 47.8113 138.135 47.8113C135.13 47.8113 132.814 47.0628 131.14 45.7675C129.593 44.571 128.559 42.8812 128.047 40.7989H154.946L154.966 40.3869C155.249 34.5151 153.75 29.4176 150.686 25.7803C147.615 22.1353 143.007 20.0003 137.173 20.0003C126.87 20.0003 118.825 27.59 118.825 37.6886C118.825 42.7619 120.728 47.1914 124.12 50.3512C127.511 53.5099 132.362 55.3733 138.216 55.3733C145.052 55.3733 149.48 53.0407 152.679 49.8884L152.982 49.5902ZM191.807 49.5902L186.49 44.0859L186.171 44.3867C184.326 46.1287 181.233 47.8113 176.96 47.8113C173.955 47.8113 171.639 47.0628 169.965 45.7675C168.418 44.571 167.385 42.8812 166.872 40.7989H193.771L193.791 40.3869C194.074 34.5151 192.575 29.4176 189.511 25.7803C186.44 22.1353 181.832 20.0003 175.999 20.0003C165.695 20.0003 157.65 27.59 157.65 37.6886C157.65 42.7619 159.553 47.1914 162.945 50.3512C166.336 53.5099 171.187 55.3733 177.041 55.3733C183.877 55.3733 188.305 53.0407 191.504 49.8884L191.807 49.5902ZM202.393 20.2978H196.475V27.8524H202.393V41.0442C202.393 46.3707 203.189 50.0018 205.443 52.2791C207.701 54.5598 211.311 55.3733 216.622 55.3733H218.175V47.6271H217.735C216.138 47.6271 214.91 47.5672 213.961 47.3901C213.015 47.2136 212.387 46.9282 211.95 46.5076C211.514 46.0881 211.22 45.4876 211.038 44.5851C210.856 43.6774 210.794 42.5038 210.794 40.9752V27.8524H218.175V20.2978H210.794V11.3733H202.393V20.2978ZM137.255 27.486C139.961 27.486 141.946 28.2828 143.34 29.5827C144.632 30.787 145.453 32.4564 145.846 34.4186H128.043C128.557 32.2693 129.603 30.5913 131.065 29.4272C132.642 28.1711 134.738 27.486 137.255 27.486ZM176.081 27.486C178.786 27.486 180.771 28.2828 182.165 29.5827C183.457 30.787 184.278 32.4564 184.672 34.4186H166.868C167.382 32.2693 168.428 30.5913 169.89 29.4272C171.467 28.1711 173.563 27.486 176.081 27.486ZM238.879 27.5017C244.469 27.5017 248.913 32.0713 248.913 37.6874C248.913 43.3023 244.469 47.872 238.879 47.872C233.291 47.872 228.913 43.3061 228.913 37.6874C228.913 32.0675 233.291 27.5017 238.879 27.5017ZM238.879 20.0003C228.846 20.0003 220.825 27.756 220.825 37.6874C220.825 47.5505 228.845 55.3733 238.879 55.3733C248.91 55.3733 257 47.5527 257 37.6874C257 27.7539 248.909 20.0003 238.879 20.0003Z" fill="#11243E"/>
<path d="M295.221 24.168C295.221 26.5076 294.657 28.7009 293.529 30.748C292.443 32.7951 290.709 34.4453 288.328 35.6987C285.988 36.952 283.022 37.5787 279.429 37.5787H272.097V54.3733H263.324V10.632H279.429C282.813 10.632 285.696 11.2169 288.077 12.3867C290.459 13.5564 292.234 15.1649 293.404 17.212C294.616 19.2591 295.221 21.5778 295.221 24.168ZM279.053 30.4973C281.476 30.4973 283.273 29.9542 284.443 28.868C285.612 27.74 286.197 26.1733 286.197 24.168C286.197 19.9067 283.816 17.776 279.053 17.776H272.097V30.4973H279.053Z" fill="#11243E"/>
<path d="M309.557 8V54.3733H300.784V8H309.557Z" fill="#11243E"/>
<path d="M315.302 36.8893C315.302 33.38 315.992 30.2676 317.37 27.552C318.791 24.8364 320.692 22.7476 323.073 21.2853C325.496 19.8231 328.191 19.092 331.157 19.092C333.747 19.092 336.003 19.6142 337.925 20.6587C339.889 21.7031 341.455 23.0191 342.625 24.6067V19.656H351.461V54.3733H342.625V49.2973C341.497 50.9267 339.93 52.2844 337.925 53.3707C335.961 54.4151 333.685 54.9373 331.094 54.9373C328.17 54.9373 325.496 54.1853 323.073 52.6813C320.692 51.1773 318.791 49.0676 317.37 46.352C315.992 43.5947 315.302 40.4404 315.302 36.8893ZM342.625 37.0147C342.625 34.884 342.207 33.0667 341.372 31.5627C340.536 30.0169 339.408 28.8471 337.988 28.0533C336.567 27.2178 335.042 26.8 333.413 26.8C331.784 26.8 330.28 27.1969 328.901 27.9907C327.522 28.7844 326.394 29.9542 325.517 31.5C324.681 33.004 324.264 34.8004 324.264 36.8893C324.264 38.9782 324.681 40.8164 325.517 42.404C326.394 43.9498 327.522 45.1404 328.901 45.976C330.321 46.8116 331.825 47.2293 333.413 47.2293C335.042 47.2293 336.567 46.8324 337.988 46.0387C339.408 45.2031 340.536 44.0333 341.372 42.5293C342.207 40.9836 342.625 39.1453 342.625 37.0147Z" fill="#11243E"/>
<path d="M392.576 19.656L371.082 70.792H361.744L369.264 53.496L355.352 19.656H365.191L374.152 43.908L383.239 19.656H392.576Z" fill="#11243E"/>
<path d="M394.383 36.8893C394.383 33.38 395.072 30.2676 396.451 27.552C397.872 24.8364 399.793 22.7476 402.216 21.2853C404.64 19.8231 407.334 19.092 410.3 19.092C412.556 19.092 414.708 19.5933 416.755 20.596C418.802 21.5569 420.432 22.852 421.643 24.4813V8H430.542V54.3733H421.643V49.2347C420.557 50.9476 419.032 52.3262 417.068 53.3707C415.105 54.4151 412.828 54.9373 410.238 54.9373C407.313 54.9373 404.64 54.1853 402.216 52.6813C399.793 51.1773 397.872 49.0676 396.451 46.352C395.072 43.5947 394.383 40.4404 394.383 36.8893ZM421.706 37.0147C421.706 34.884 421.288 33.0667 420.452 31.5627C419.617 30.0169 418.489 28.8471 417.068 28.0533C415.648 27.2178 414.123 26.8 412.494 26.8C410.864 26.8 409.36 27.1969 407.982 27.9907C406.603 28.7844 405.475 29.9542 404.598 31.5C403.762 33.004 403.344 34.8004 403.344 36.8893C403.344 38.9782 403.762 40.8164 404.598 42.404C405.475 43.9498 406.603 45.1404 407.982 45.976C409.402 46.8116 410.906 47.2293 412.494 47.2293C414.123 47.2293 415.648 46.8324 417.068 46.0387C418.489 45.2031 419.617 44.0333 420.452 42.5293C421.288 40.9836 421.706 39.1453 421.706 37.0147Z" fill="#11243E"/>
<path d="M436.188 36.8893C436.188 33.38 436.877 30.2676 438.256 27.552C439.676 24.8364 441.577 22.7476 443.958 21.2853C446.382 19.8231 449.076 19.092 452.042 19.092C454.633 19.092 456.889 19.6142 458.81 20.6587C460.774 21.7031 462.341 23.0191 463.51 24.6067V19.656H472.346V54.3733H463.51V49.2973C462.382 50.9267 460.816 52.2844 458.81 53.3707C456.847 54.4151 454.57 54.9373 451.98 54.9373C449.055 54.9373 446.382 54.1853 443.958 52.6813C441.577 51.1773 439.676 49.0676 438.256 46.352C436.877 43.5947 436.188 40.4404 436.188 36.8893ZM463.51 37.0147C463.51 34.884 463.093 33.0667 462.257 31.5627C461.422 30.0169 460.294 28.8471 458.873 28.0533C457.453 27.2178 455.928 26.8 454.298 26.8C452.669 26.8 451.165 27.1969 449.786 27.9907C448.408 28.7844 447.28 29.9542 446.402 31.5C445.567 33.004 445.149 34.8004 445.149 36.8893C445.149 38.9782 445.567 40.8164 446.402 42.404C447.28 43.9498 448.408 45.1404 449.786 45.976C451.207 46.8116 452.711 47.2293 454.298 47.2293C455.928 47.2293 457.453 46.8324 458.873 46.0387C460.294 45.2031 461.422 44.0333 462.257 42.5293C463.093 40.9836 463.51 39.1453 463.51 37.0147Z" fill="#11243E"/>
<path d="M493.534 54.9373C490.693 54.9373 488.145 54.436 485.888 53.4333C483.632 52.3889 481.836 50.9893 480.499 49.2347C479.204 47.48 478.494 45.5373 478.368 43.4067H487.204C487.372 44.7436 488.019 45.8507 489.147 46.728C490.317 47.6053 491.758 48.044 493.471 48.044C495.142 48.044 496.437 47.7098 497.356 47.0413C498.317 46.3729 498.798 45.5164 498.798 44.472C498.798 43.344 498.213 42.5084 497.043 41.9653C495.915 41.3804 494.098 40.7538 491.591 40.0853C489.001 39.4587 486.87 38.8111 485.199 38.1427C483.57 37.4742 482.149 36.4507 480.938 35.072C479.768 33.6933 479.183 31.8342 479.183 29.4947C479.183 27.5729 479.726 25.8182 480.812 24.2307C481.94 22.6431 483.528 21.3898 485.575 20.4707C487.664 19.5516 490.108 19.092 492.907 19.092C497.043 19.092 500.344 20.1364 502.808 22.2253C505.273 24.2724 506.631 27.0507 506.882 30.56H498.484C498.359 29.1813 497.774 28.0951 496.73 27.3013C495.727 26.4658 494.369 26.048 492.656 26.048C491.069 26.048 489.836 26.3404 488.959 26.9253C488.124 27.5102 487.706 28.3249 487.706 29.3693C487.706 30.5391 488.291 31.4373 489.46 32.064C490.63 32.6489 492.448 33.2547 494.912 33.8813C497.419 34.508 499.487 35.1556 501.116 35.824C502.746 36.4924 504.145 37.5369 505.315 38.9573C506.527 40.336 507.153 42.1742 507.195 44.472C507.195 46.4773 506.631 48.2738 505.503 49.8613C504.417 51.4489 502.829 52.7022 500.74 53.6213C498.693 54.4987 496.291 54.9373 493.534 54.9373Z" fill="#11243E"/>
<path d="M533.282 19.1547C535.914 19.1547 538.254 19.7396 540.301 20.9093C542.348 22.0373 543.936 23.7293 545.064 25.9853C546.233 28.1996 546.818 30.8733 546.818 34.0067V54.3733H538.045V35.1973C538.045 32.44 537.356 30.3302 535.977 28.868C534.598 27.364 532.718 26.612 530.337 26.612C527.914 26.612 525.992 27.364 524.572 28.868C523.193 30.3302 522.504 32.44 522.504 35.1973V54.3733H513.73V8H522.504V23.98C523.632 22.476 525.136 21.3062 527.016 20.4707C528.896 19.5933 530.984 19.1547 533.282 19.1547Z" fill="#11243E"/>
<defs>
<linearGradient id="paint0_linear_5484_642" x1="56" y1="56" x2="14" y2="4.22857" gradientUnits="userSpaceOnUse">
<stop stop-color="#35CABA"/>
<stop offset="1" stop-color="#83D6AE"/>
</linearGradient>
</defs>
</svg>
