<svg width="417" height="64" viewBox="0 0 417 64" fill="none" xmlns="http://www.w3.org/2000/svg">
<path d="M48 32C48 18.7452 37.2548 8 24 8H0V56H48V32Z" fill="url(#paint0_linear_3688_21345)"/>
<rect x="19.0205" y="31.4119" width="16.0959" height="4.38979" rx="2.1949" fill="white"/>
<rect x="19.0205" y="38.728" width="12.4377" height="4.38979" rx="2.1949" fill="white"/>
<rect x="19.0205" y="24.0958" width="11.7061" height="4.38979" rx="2.1949" fill="white"/>
<circle cx="14.6304" cy="26.2907" r="2.1949" fill="white"/>
<circle cx="14.6304" cy="33.6068" r="2.1949" fill="white"/>
<circle cx="14.6304" cy="40.9229" r="2.1949" fill="white"/>
<path fill-rule="evenodd" clip-rule="evenodd" d="M90.0873 20.627H73.2401L81.5759 28.825H90.0873C95.4515 28.825 99.7952 33.0758 99.7952 38.3135V56H108.175V38.3135C108.175 28.5429 100.074 20.627 90.0873 20.627ZM80.3794 30.0187L72 21.7778V56H80.3794V30.0187ZM144.982 50.2169L139.664 44.7125L139.346 45.0134C137.501 46.7554 134.408 48.438 130.135 48.438C127.13 48.438 124.814 47.6895 123.14 46.3942C121.593 45.1976 120.559 43.5078 120.047 41.4256H146.946L146.966 41.0135C147.249 35.1417 145.75 30.0443 142.686 26.407C139.615 22.7619 135.007 20.627 129.173 20.627C118.87 20.627 110.825 28.2166 110.825 38.3152C110.825 43.3885 112.728 47.8181 116.12 50.9778C119.511 54.1365 124.362 56 130.216 56C137.052 56 141.48 53.6674 144.679 50.5151L144.982 50.2169ZM183.807 50.2169L178.49 44.7125L178.171 45.0134C176.326 46.7554 173.233 48.438 168.96 48.438C165.955 48.438 163.639 47.6895 161.965 46.3942C160.418 45.1976 159.385 43.5078 158.872 41.4256H185.771L185.791 41.0135C186.074 35.1417 184.575 30.0443 181.511 26.407C178.44 22.7619 173.832 20.627 167.999 20.627C157.695 20.627 149.65 28.2166 149.65 38.3152C149.65 43.3885 151.553 47.8181 154.945 50.9778C158.336 54.1365 163.187 56 169.041 56C175.877 56 180.305 53.6674 183.504 50.5151L183.807 50.2169ZM194.393 20.9245H188.475V28.4791H194.393V41.6708C194.393 46.9973 195.189 50.6285 197.443 52.9057C199.7 55.1865 203.311 56 208.622 56H210.175V48.2538H209.735C208.138 48.2538 206.91 48.1938 205.961 48.0167C205.015 47.8403 204.387 47.5548 203.95 47.1343C203.514 46.7147 203.22 46.1142 203.038 45.2117C202.856 44.3041 202.794 43.1305 202.794 41.6019V28.4791H210.175V20.9245H202.794V12H194.393V20.9245ZM129.255 28.1127C131.961 28.1127 133.946 28.9095 135.34 30.2094C136.632 31.4137 137.453 33.0831 137.846 35.0453H120.043C120.557 32.8959 121.603 31.218 123.065 30.0538C124.642 28.7977 126.738 28.1127 129.255 28.1127ZM168.081 28.1127C170.786 28.1127 172.771 28.9095 174.165 30.2094C175.457 31.4137 176.278 33.0831 176.672 35.0453H158.868C159.382 32.8959 160.428 31.218 161.89 30.0538C163.467 28.7977 165.563 28.1127 168.081 28.1127ZM230.879 28.1283C236.469 28.1283 240.913 32.698 240.913 38.3141C240.913 43.929 236.469 48.4986 230.879 48.4986C225.291 48.4986 220.913 43.9328 220.913 38.3141C220.913 32.6942 225.291 28.1283 230.879 28.1283ZM230.879 20.627C220.846 20.627 212.825 28.3827 212.825 38.3141C212.825 48.1772 220.845 56 230.879 56C240.91 56 249 48.1793 249 38.3141C249 28.3805 240.909 20.627 230.879 20.627Z" fill="#11243E"/>
<path d="M282.009 11.6946V18.776H263.773V29.9933H277.748V36.9493H263.773V55.436H255V11.6946H282.009Z" fill="#11243E"/>
<path d="M302.98 56C299.638 56 296.63 55.2689 293.956 53.8066C291.282 52.3026 289.172 50.1929 287.626 47.4773C286.122 44.7618 285.37 41.6284 285.37 38.0773C285.37 34.5262 286.143 31.3929 287.689 28.6773C289.277 25.9618 291.428 23.8729 294.144 22.4106C296.859 20.9066 299.888 20.1546 303.23 20.1546C306.573 20.1546 309.602 20.9066 312.317 22.4106C315.033 23.8729 317.163 25.9618 318.709 28.6773C320.297 31.3929 321.09 34.5262 321.09 38.0773C321.09 41.6284 320.276 44.7618 318.646 47.4773C317.059 50.1929 314.886 52.3026 312.129 53.8066C309.414 55.2689 306.364 56 302.98 56ZM302.98 48.3546C304.567 48.3546 306.05 47.9786 307.429 47.2266C308.85 46.4329 309.978 45.2631 310.813 43.7173C311.649 42.1715 312.066 40.2915 312.066 38.0773C312.066 34.7769 311.189 32.2493 309.434 30.4946C307.722 28.6982 305.612 27.8 303.105 27.8C300.598 27.8 298.489 28.6982 296.776 30.4946C295.105 32.2493 294.269 34.7769 294.269 38.0773C294.269 41.3778 295.084 43.9262 296.713 45.7226C298.384 47.4773 300.473 48.3546 302.98 48.3546Z" fill="#11243E"/>
<path d="M335.633 26.108C336.761 24.2698 338.223 22.8284 340.019 21.784C341.858 20.7395 343.946 20.2173 346.286 20.2173V29.4293H343.967C341.21 29.4293 339.121 30.0769 337.701 31.372C336.322 32.6671 335.633 34.9231 335.633 38.14V55.436H326.859V20.7186H335.633V26.108Z" fill="#11243E"/>
<path d="M394.643 20.2173C398.905 20.2173 402.33 21.5333 404.921 24.1653C407.553 26.7555 408.869 30.3902 408.869 35.0693V55.436H400.095V36.26C400.095 33.5444 399.406 31.4764 398.027 30.056C396.649 28.5938 394.769 27.8626 392.387 27.8626C390.006 27.8626 388.105 28.5938 386.685 30.056C385.306 31.4764 384.617 33.5444 384.617 36.26V55.436H375.843V36.26C375.843 33.5444 375.154 31.4764 373.775 30.056C372.397 28.5938 370.517 27.8626 368.135 27.8626C365.712 27.8626 363.79 28.5938 362.37 30.056C360.991 31.4764 360.302 33.5444 360.302 36.26V55.436H351.529V20.7186H360.302V24.9173C361.43 23.4551 362.871 22.3062 364.626 21.4706C366.422 20.6351 368.386 20.2173 370.517 20.2173C373.232 20.2173 375.655 20.8022 377.786 21.972C379.917 23.1 381.567 24.7293 382.737 26.86C383.865 24.8546 385.494 23.2462 387.625 22.0346C389.797 20.8231 392.137 20.2173 394.643 20.2173Z" fill="#11243E"/>
<defs>
<linearGradient id="paint0_linear_3688_21345" x1="25.5701" y1="75.2897" x2="25.3458" y2="13.6075" gradientUnits="userSpaceOnUse">
<stop stop-color="#E26682"/>
<stop offset="1" stop-color="#FE8072"/>
</linearGradient>
</defs>
</svg>
