<svg width="570" height="144" viewBox="0 0 570 144" fill="none" xmlns="http://www.w3.org/2000/svg">
  <g clip-path="url(#clip0_318_35662)">
  <path d="M21.9375 93.375L21.9375 7.875L77.625 7.875C101.235 7.875 120.375 27.0148 120.375 50.625C120.375 74.2352 101.235 93.375 77.625 93.375H21.9375Z" fill="#5BCC5A"/>
  <path d="M21.9375 7.875L120.349 136.125H54.7415L21.9375 93.375L21.9375 7.875Z" fill="#75DC66"/>
  <path d="M21.9375 7.875L86.7899 92.3903C83.8374 93.0352 80.7709 93.375 77.625 93.375H21.9375L21.9375 7.875Z" fill="#0DA84C"/>
  </g>
  <path d="M213.719 135.438L195.961 104.073H188.35V135.438H172.207V54.9496H202.418C208.645 54.9496 213.95 56.0643 218.332 58.2936C222.713 60.4461 225.981 63.4058 228.133 67.1727C230.362 70.8627 231.477 75.0139 231.477 79.6264C231.477 84.9308 229.94 89.7355 226.865 94.0405C223.79 98.2686 219.216 101.19 213.142 102.804L232.4 135.438H213.719ZM188.35 91.9649H201.842C206.224 91.9649 209.491 90.9271 211.643 88.8514C213.796 86.6989 214.872 83.7393 214.872 79.9724C214.872 76.2824 213.796 73.438 211.643 71.4393C209.491 69.3636 206.224 68.3258 201.842 68.3258H188.35V91.9649Z" fill="black"/>
  <path d="M303.158 102.112C303.158 104.419 303.005 106.494 302.697 108.339H255.995C256.38 112.952 257.994 116.565 260.839 119.179C263.683 121.792 267.181 123.099 271.332 123.099C277.328 123.099 281.595 120.524 284.132 115.373H301.544C299.699 121.523 296.163 126.597 290.935 130.595C285.708 134.515 279.289 136.476 271.678 136.476C265.528 136.476 259.993 135.13 255.073 132.44C250.23 129.672 246.425 125.79 243.657 120.793C240.966 115.796 239.621 110.031 239.621 103.496C239.621 96.8849 240.966 91.0808 243.657 86.0839C246.348 81.0871 250.115 77.2433 254.958 74.5527C259.801 71.8621 265.374 70.5168 271.678 70.5168C277.751 70.5168 283.171 71.8236 287.937 74.4374C292.78 77.0511 296.509 80.7796 299.122 85.6227C301.813 90.3889 303.158 95.8855 303.158 102.112ZM286.438 97.4999C286.361 93.3486 284.862 90.043 281.941 87.583C279.02 85.0461 275.445 83.7777 271.217 83.7777C267.219 83.7777 263.837 85.0077 261.069 87.4677C258.379 89.8508 256.726 93.1949 256.111 97.4999H286.438Z" fill="black"/>
  <path d="M308.484 103.496C308.484 96.8849 309.83 91.1193 312.52 86.1993C315.211 81.2024 318.939 77.3586 323.706 74.668C328.472 71.9005 333.93 70.5168 340.08 70.5168C347.998 70.5168 354.532 72.5155 359.683 76.513C364.911 80.4336 368.408 85.9686 370.176 93.118H352.764C351.842 90.3505 350.266 88.198 348.036 86.6605C345.884 85.0461 343.193 84.2389 339.965 84.2389C335.352 84.2389 331.701 85.9302 329.01 89.3127C326.319 92.6183 324.974 97.3461 324.974 103.496C324.974 109.569 326.319 114.297 329.01 117.68C331.701 120.985 335.352 122.638 339.965 122.638C346.499 122.638 350.766 119.717 352.764 113.874H370.176C368.408 120.793 364.911 126.29 359.683 130.364C354.456 134.438 347.921 136.476 340.08 136.476C333.93 136.476 328.472 135.13 323.706 132.44C318.939 129.672 315.211 125.828 312.52 120.908C309.83 115.911 308.484 110.107 308.484 103.496Z" fill="black"/>
  <path d="M408.064 136.476C401.914 136.476 396.379 135.13 391.459 132.44C386.539 129.672 382.657 125.79 379.812 120.793C377.045 115.796 375.661 110.031 375.661 103.496C375.661 96.9618 377.083 91.1961 379.928 86.1993C382.849 81.2024 386.808 77.3586 391.805 74.668C396.802 71.9005 402.375 70.5168 408.525 70.5168C414.675 70.5168 420.249 71.9005 425.245 74.668C430.242 77.3586 434.163 81.2024 437.007 86.1993C439.929 91.1961 441.389 96.9618 441.389 103.496C441.389 110.031 439.89 115.796 436.892 120.793C433.971 125.79 429.973 129.672 424.899 132.44C419.903 135.13 414.291 136.476 408.064 136.476ZM408.064 122.407C410.985 122.407 413.714 121.716 416.251 120.332C418.865 118.871 420.94 116.719 422.478 113.874C424.015 111.03 424.784 107.571 424.784 103.496C424.784 97.423 423.17 92.7721 419.941 89.5433C416.789 86.2377 412.907 84.5849 408.294 84.5849C403.682 84.5849 399.8 86.2377 396.648 89.5433C393.573 92.7721 392.035 97.423 392.035 103.496C392.035 109.569 393.534 114.259 396.533 117.564C399.608 120.793 403.451 122.407 408.064 122.407Z" fill="black"/>
  <path d="M467.069 81.4714C469.144 78.0889 471.835 75.4368 475.141 73.5149C478.523 71.593 482.367 70.6321 486.672 70.6321V87.583H482.405C477.332 87.583 473.488 88.7746 470.874 91.1577C468.337 93.5408 467.069 97.6921 467.069 103.611V135.438H450.925V71.5546H467.069V81.4714Z" fill="black"/>
  <path d="M491.088 103.266C491.088 96.808 492.356 91.0808 494.893 86.0839C497.507 81.0871 501.043 77.2433 505.502 74.5527C509.961 71.8621 514.919 70.5168 520.377 70.5168C524.529 70.5168 528.488 71.4393 532.255 73.2843C536.021 75.0524 539.02 77.4355 541.249 80.4336V50.1064H557.623V135.438H541.249V125.982C539.25 129.134 536.444 131.671 532.831 133.593C529.218 135.515 525.028 136.476 520.262 136.476C514.881 136.476 509.961 135.092 505.502 132.324C501.043 129.557 497.507 125.675 494.893 120.678C492.356 115.604 491.088 109.8 491.088 103.266ZM541.364 103.496C541.364 99.5755 540.595 96.2314 539.058 93.4639C537.52 90.6196 535.445 88.4671 532.831 87.0064C530.217 85.4689 527.411 84.7002 524.413 84.7002C521.415 84.7002 518.648 85.4305 516.111 86.8911C513.574 88.3518 511.498 90.5043 509.884 93.3486C508.346 96.1161 507.578 99.4218 507.578 103.266C507.578 107.109 508.346 110.492 509.884 113.413C511.498 116.257 513.574 118.448 516.111 119.986C518.724 121.523 521.492 122.292 524.413 122.292C527.411 122.292 530.217 121.562 532.831 120.101C535.445 118.564 537.52 116.411 539.058 113.644C540.595 110.799 541.364 107.417 541.364 103.496Z" fill="black"/>
  <path d="M228.622 25.5097C228.622 26.3731 228.564 27.1502 228.449 27.841H210.978C211.122 29.5679 211.726 30.9206 212.79 31.8992C213.854 32.8777 215.163 33.367 216.716 33.367C218.959 33.367 220.555 32.4028 221.504 30.4745H228.018C227.327 32.777 226.005 34.6766 224.049 36.1732C222.094 37.6411 219.692 38.375 216.845 38.375C214.544 38.375 212.474 37.8713 210.633 36.864C208.822 35.8278 207.398 34.3744 206.363 32.5036C205.356 30.6328 204.853 28.4742 204.853 26.0278C204.853 23.5525 205.356 21.3795 206.363 19.5087C207.369 17.638 208.778 16.1989 210.59 15.1915C212.402 14.1842 214.487 13.6805 216.845 13.6805C219.117 13.6805 221.144 14.1698 222.927 15.1484C224.739 16.1269 226.134 17.5228 227.112 19.3361C228.118 21.1205 228.622 23.1784 228.622 25.5097ZM222.367 23.7828C222.338 22.2286 221.777 20.991 220.684 20.07C219.592 19.1202 218.254 18.6453 216.673 18.6453C215.177 18.6453 213.912 19.1058 212.877 20.0268C211.87 20.919 211.252 22.171 211.022 23.7828H222.367Z" fill="black"/>
  <path d="M255.245 25.5097C255.245 26.3731 255.188 27.1502 255.073 27.841H237.602C237.746 29.5679 238.35 30.9206 239.414 31.8992C240.478 32.8777 241.787 33.367 243.34 33.367C245.583 33.367 247.179 32.4028 248.128 30.4745H254.641C253.951 32.777 252.628 34.6766 250.673 36.1732C248.717 37.6411 246.316 38.375 243.469 38.375C241.168 38.375 239.098 37.8713 237.257 36.864C235.445 35.8278 234.022 34.3744 232.987 32.5036C231.98 30.6328 231.477 28.4742 231.477 26.0278C231.477 23.5525 231.98 21.3795 232.987 19.5087C233.993 17.638 235.402 16.1989 237.214 15.1915C239.026 14.1842 241.111 13.6805 243.469 13.6805C245.741 13.6805 247.768 14.1698 249.551 15.1484C251.363 16.1269 252.758 17.5228 253.736 19.3361C254.742 21.1205 255.245 23.1784 255.245 25.5097ZM248.99 23.7828C248.962 22.2286 248.401 20.991 247.308 20.07C246.215 19.1202 244.878 18.6453 243.296 18.6453C241.801 18.6453 240.536 19.1058 239.5 20.0268C238.494 20.919 237.875 22.171 237.645 23.7828H248.99Z" fill="black"/>
  <path d="M266.785 18.9874V30.6615C266.785 31.4674 266.997 31.9999 267.371 32.374C267.774 32.7194 268.435 32.8921 269.356 32.8921H272.16V37.9864H268.364C263.273 37.9864 260.838 35.383 260.838 30.4326V18.9874H257.636V13.9515H260.838V8H266.785V13.9515H272.16V18.9874H266.785Z" fill="black"/>
  <path d="M286.989 38.375C284.689 38.375 282.618 37.8713 280.778 36.864C278.937 35.8278 277.485 34.3744 276.421 32.5036C275.385 30.6328 274.868 28.4742 274.868 26.0278C274.868 23.5813 275.4 21.4227 276.464 19.5519C277.557 17.6811 279.038 16.2421 280.907 15.2347C282.776 14.1986 284.861 13.6805 287.162 13.6805C289.463 13.6805 291.548 14.1986 293.417 15.2347C295.286 16.2421 296.753 17.6811 297.817 19.5519C298.91 21.4227 299.456 23.5813 299.456 26.0278C299.456 28.4742 298.895 30.6328 297.774 32.5036C296.681 34.3744 295.185 35.8278 293.287 36.864C291.418 37.8713 289.319 38.375 286.989 38.375ZM286.989 33.108C288.082 33.108 289.103 32.849 290.052 32.3309C291.03 31.784 291.806 30.9782 292.382 29.9132C292.957 28.8483 293.244 27.5532 293.244 26.0278C293.244 23.754 292.64 22.0127 291.432 20.8039C290.253 19.5663 288.801 18.9475 287.076 18.9475C285.35 18.9475 283.898 19.5663 282.719 20.8039C281.568 22.0127 280.993 23.754 280.993 26.0278C280.993 28.3015 281.554 30.0572 282.676 31.2948C283.826 32.5036 285.264 33.108 286.989 33.108Z" fill="black"/>
  <path d="M199.752 8H188.159L199.752 25.3903V8Z" fill="black"/>
  <path d="M171 38.375L171 8H179.372L199.752 38.375H191.136L177.724 18.666V38.375H171Z" fill="black"/>
  <defs>
  <clipPath id="clip0_318_35662">
  <rect width="128.25" height="128.25" fill="white" transform="translate(7.3125 7.875)"/>
  </clipPath>
  </defs>
</svg>
