<svg width="578" height="64" viewBox="0 0 578 64" fill="none" xmlns="http://www.w3.org/2000/svg">
<path d="M56 32C56 18.7452 45.2548 8 32 8H8V56H56V32Z" fill="url(#paint0_linear_5273_1411)"/>
<g filter="url(#filter0_d_5273_1411)">
<path d="M40.0127 25.3448C37.8004 22.1173 34.0864 20 29.8779 20C23.0968 20 17.5996 25.4972 17.5996 32.2783C17.5996 33.2649 17.716 34.2242 17.9357 35.1435L24.1883 28.8909C24.7877 28.2915 25.7594 28.2915 26.3588 28.8909L31.4127 33.9448L40.0127 25.3448Z" fill="white"/>
<path d="M41.472 28.2265L32.498 37.2006C31.8986 37.7999 30.9268 37.7999 30.3275 37.2006L25.2736 32.1467L19.1554 38.2648C21.2558 42.0188 25.2705 44.5566 29.8779 44.5566C36.6591 44.5566 42.1562 39.0595 42.1562 32.2783C42.1562 30.8586 41.9153 29.4951 41.472 28.2265Z" fill="white"/>
<path d="M38.1435 43.0991C39.4345 42.1225 40.5445 40.9212 41.4163 39.555C41.4258 39.5631 41.4351 39.5716 41.4442 39.5805L46.0575 44.0767C46.6356 44.6401 46.6475 45.5656 46.0841 46.1437L44.7578 47.5045C44.1943 48.0826 43.2689 48.0945 42.6908 47.5311L38.1435 43.0991Z" fill="white"/>
</g>
<path fill-rule="evenodd" clip-rule="evenodd" d="M98.0873 20.627H81.2401L89.5759 28.825H98.0873C103.452 28.825 107.795 33.0758 107.795 38.3135V56H116.175V38.3135C116.175 28.5429 108.074 20.627 98.0873 20.627ZM88.3794 30.0187L80 21.7778V56H88.3794V30.0187ZM152.982 50.2169L147.664 44.7125L147.346 45.0134C145.501 46.7554 142.408 48.438 138.135 48.438C135.13 48.438 132.814 47.6895 131.14 46.3942C129.593 45.1976 128.559 43.5078 128.047 41.4256H154.946L154.966 41.0135C155.249 35.1417 153.75 30.0443 150.686 26.407C147.615 22.7619 143.007 20.627 137.173 20.627C126.87 20.627 118.825 28.2166 118.825 38.3152C118.825 43.3885 120.728 47.8181 124.12 50.9778C127.511 54.1365 132.362 56 138.216 56C145.052 56 149.48 53.6674 152.679 50.5151L152.982 50.2169ZM191.807 50.2169L186.49 44.7125L186.171 45.0134C184.326 46.7554 181.233 48.438 176.96 48.438C173.955 48.438 171.639 47.6895 169.965 46.3942C168.418 45.1976 167.385 43.5078 166.872 41.4256H193.771L193.791 41.0135C194.074 35.1417 192.575 30.0443 189.511 26.407C186.44 22.7619 181.832 20.627 175.999 20.627C165.695 20.627 157.65 28.2166 157.65 38.3152C157.65 43.3885 159.553 47.8181 162.945 50.9778C166.336 54.1365 171.187 56 177.041 56C183.877 56 188.305 53.6674 191.504 50.5151L191.807 50.2169ZM202.393 20.9245H196.475V28.4791H202.393V41.6708C202.393 46.9973 203.189 50.6285 205.443 52.9057C207.701 55.1865 211.311 56 216.622 56H218.175V48.2538H217.735C216.138 48.2538 214.91 48.1938 213.961 48.0167C213.015 47.8403 212.387 47.5548 211.95 47.1343C211.514 46.7147 211.22 46.1142 211.038 45.2117C210.856 44.3041 210.794 43.1305 210.794 41.6019V28.4791H218.175V20.9245H210.794V12H202.393V20.9245ZM137.255 28.1127C139.961 28.1127 141.946 28.9095 143.34 30.2094C144.632 31.4137 145.453 33.0831 145.846 35.0453H128.043C128.557 32.8959 129.603 31.218 131.065 30.0538C132.642 28.7977 134.738 28.1127 137.255 28.1127ZM176.081 28.1127C178.786 28.1127 180.771 28.9095 182.165 30.2094C183.457 31.4137 184.278 33.0831 184.672 35.0453H166.868C167.382 32.8959 168.428 31.218 169.89 30.0538C171.467 28.7977 173.563 28.1127 176.081 28.1127ZM238.879 28.1283C244.469 28.1283 248.913 32.698 248.913 38.3141C248.913 43.929 244.469 48.4986 238.879 48.4986C233.291 48.4986 228.913 43.9328 228.913 38.3141C228.913 32.6942 233.291 28.1283 238.879 28.1283ZM238.879 20.627C228.846 20.627 220.825 28.3827 220.825 38.3141C220.825 48.1772 228.845 56 238.879 56C248.91 56 257 48.1794 257 38.3141C257 28.3805 248.909 20.627 238.879 20.627Z" fill="#11243E"/>
<path d="M278.427 55.4387C275.377 55.4387 272.62 54.9164 270.155 53.872C267.732 52.8276 265.81 51.3236 264.389 49.36C262.969 47.3964 262.238 45.0778 262.196 42.404H271.596C271.721 44.2004 272.348 45.6209 273.476 46.6653C274.646 47.7098 276.233 48.232 278.239 48.232C280.286 48.232 281.894 47.7516 283.064 46.7907C284.234 45.788 284.819 44.4929 284.819 42.9053C284.819 41.6102 284.422 40.5449 283.628 39.7093C282.834 38.8738 281.832 38.2262 280.62 37.7667C279.45 37.2653 277.821 36.7222 275.732 36.1373C272.891 35.3018 270.572 34.4871 268.776 33.6933C267.021 32.8578 265.496 31.6253 264.201 29.996C262.948 28.3249 262.321 26.1107 262.321 23.3533C262.321 20.7631 262.969 18.5071 264.264 16.5853C265.559 14.6636 267.376 13.2013 269.716 12.1987C272.056 11.1542 274.729 10.632 277.737 10.632C282.249 10.632 285.905 11.7391 288.704 13.9533C291.545 16.1258 293.112 19.1756 293.404 23.1027H283.753C283.67 21.5987 283.022 20.3662 281.811 19.4053C280.641 18.4027 279.074 17.9013 277.111 17.9013C275.398 17.9013 274.019 18.34 272.975 19.2173C271.972 20.0947 271.471 21.3689 271.471 23.04C271.471 24.2098 271.847 25.1916 272.599 25.9853C273.392 26.7373 274.353 27.364 275.481 27.8653C276.651 28.3249 278.28 28.868 280.369 29.4947C283.21 30.3302 285.529 31.1658 287.325 32.0013C289.122 32.8369 290.668 34.0902 291.963 35.7613C293.258 37.4324 293.905 39.6258 293.905 42.3413C293.905 44.6809 293.3 46.8533 292.088 48.8587C290.876 50.864 289.101 52.4724 286.761 53.684C284.422 54.8538 281.644 55.4387 278.427 55.4387ZM309.618 18.34V29.3067H324.345V36.2627H309.618V47.856H326.225V55H300.845V11.196H326.225V18.34H309.618ZM353.835 55.4387C349.741 55.4387 345.981 54.4778 342.555 52.556C339.129 50.6342 336.414 47.9813 334.408 44.5973C332.403 41.1716 331.4 37.3071 331.4 33.004C331.4 28.7427 332.403 24.92 334.408 21.536C336.414 18.1102 339.129 15.4364 342.555 13.5147C345.981 11.5929 349.741 10.632 353.835 10.632C357.971 10.632 361.731 11.5929 365.115 13.5147C368.541 15.4364 371.235 18.1102 373.199 21.536C375.204 24.92 376.207 28.7427 376.207 33.004C376.207 37.3071 375.204 41.1716 373.199 44.5973C371.235 47.9813 368.541 50.6342 365.115 52.556C361.689 54.4778 357.929 55.4387 353.835 55.4387ZM353.835 47.6053C356.467 47.6053 358.786 47.0204 360.791 45.8507C362.796 44.6391 364.363 42.9262 365.491 40.712C366.619 38.4978 367.183 35.9284 367.183 33.004C367.183 30.0796 366.619 27.5311 365.491 25.3587C364.363 23.1444 362.796 21.4524 360.791 20.2827C358.786 19.1129 356.467 18.528 353.835 18.528C351.203 18.528 348.863 19.1129 346.816 20.2827C344.811 21.4524 343.244 23.1444 342.116 25.3587C340.988 27.5311 340.424 30.0796 340.424 33.004C340.424 35.9284 340.988 38.4978 342.116 40.712C343.244 42.9262 344.811 44.6391 346.816 45.8507C348.863 47.0204 351.203 47.6053 353.835 47.6053ZM408.889 46.6653H391.467L388.585 55H379.373L395.102 11.196H405.317L421.046 55H411.771L408.889 46.6653ZM406.507 39.6467L400.178 21.348L393.849 39.6467H406.507ZM459.034 20.2827V55H450.198V50.6133C449.07 52.1173 447.586 53.308 445.748 54.1853C443.952 55.0209 441.988 55.4387 439.858 55.4387C437.142 55.4387 434.74 54.8747 432.651 53.7467C430.562 52.5769 428.912 50.8849 427.7 48.6707C426.53 46.4147 425.946 43.7409 425.946 40.6493V20.2827H434.719V39.396C434.719 42.1533 435.408 44.284 436.787 45.788C438.166 47.2502 440.046 47.9813 442.427 47.9813C444.85 47.9813 446.751 47.2502 448.13 45.788C449.508 44.284 450.198 42.1533 450.198 39.396V20.2827H459.034ZM464.767 37.516C464.767 34.0067 465.457 30.8942 466.835 28.1787C468.256 25.4631 470.177 23.3742 472.601 21.912C475.024 20.4498 477.718 19.7187 480.685 19.7187C482.941 19.7187 485.092 20.22 487.139 21.2227C489.186 22.1836 490.816 23.4787 492.027 25.108V8.62667H500.926V55H492.027V49.8613C490.941 51.5742 489.416 52.9529 487.453 53.9973C485.489 55.0418 483.212 55.564 480.622 55.564C477.697 55.564 475.024 54.812 472.601 53.308C470.177 51.804 468.256 49.6942 466.835 46.9787C465.457 44.2213 464.767 41.0671 464.767 37.516ZM492.09 37.6413C492.09 35.5107 491.672 33.6933 490.837 32.1893C490.001 30.6436 488.873 29.4738 487.453 28.68C486.032 27.8444 484.507 27.4267 482.878 27.4267C481.249 27.4267 479.745 27.8236 478.366 28.6173C476.987 29.4111 475.859 30.5809 474.982 32.1267C474.146 33.6307 473.729 35.4271 473.729 37.516C473.729 39.6049 474.146 41.4431 474.982 43.0307C475.859 44.5764 476.987 45.7671 478.366 46.6027C479.786 47.4382 481.29 47.856 482.878 47.856C484.507 47.856 486.032 47.4591 487.453 46.6653C488.873 45.8298 490.001 44.66 490.837 43.156C491.672 41.6102 492.09 39.772 492.09 37.6413ZM513.277 16.1467C511.731 16.1467 510.436 15.6662 509.392 14.7053C508.389 13.7027 507.888 12.4702 507.888 11.008C507.888 9.54577 508.389 8.33422 509.392 7.37333C510.436 6.37066 511.731 5.86933 513.277 5.86933C514.823 5.86933 516.097 6.37066 517.1 7.37333C518.144 8.33422 518.667 9.54577 518.667 11.008C518.667 12.4702 518.144 13.7027 517.1 14.7053C516.097 15.6662 514.823 16.1467 513.277 16.1467ZM517.601 20.2827V55H508.828V20.2827H517.601ZM535.817 27.4893V44.284C535.817 45.4538 536.089 46.3102 536.632 46.8533C537.217 47.3547 538.178 47.6053 539.515 47.6053H543.588V55H538.073C530.679 55 526.981 51.4071 526.981 44.2213V27.4893H522.845V20.2827H526.981V11.6973H535.817V20.2827H543.588V27.4893H535.817Z" fill="#11243E"/>
<defs>
<filter id="filter0_d_5273_1411" x="17.5996" y="20" width="34.8984" height="34.946" filterUnits="userSpaceOnUse" color-interpolation-filters="sRGB">
<feFlood flood-opacity="0" result="BackgroundImageFix"/>
<feColorMatrix in="SourceAlpha" type="matrix" values="0 0 0 0 0 0 0 0 0 0 0 0 0 0 0 0 0 0 127 0" result="hardAlpha"/>
<feOffset dx="3" dy="4"/>
<feGaussianBlur stdDeviation="1.5"/>
<feComposite in2="hardAlpha" operator="out"/>
<feColorMatrix type="matrix" values="0 0 0 0 0 0 0 0 0 0 0 0 0 0 0 0 0 0 0.05 0"/>
<feBlend mode="normal" in2="BackgroundImageFix" result="effect1_dropShadow_5273_1411"/>
<feBlend mode="normal" in="SourceGraphic" in2="effect1_dropShadow_5273_1411" result="shape"/>
</filter>
<linearGradient id="paint0_linear_5273_1411" x1="56" y1="78.8" x2="14" y2="4.22857" gradientUnits="userSpaceOnUse">
<stop stop-color="#8669FB"/>
<stop offset="1" stop-color="#71BCFF"/>
</linearGradient>
</defs>
</svg>
