<svg width="493" height="64" viewBox="0 0 493 64" fill="none" xmlns="http://www.w3.org/2000/svg">
<path d="M56 32C56 18.7452 45.2548 8 32 8H8V56H56V32Z" fill="url(#paint0_linear_3239_11885)"/>
<g filter="url(#filter0_d_3239_11885)">
<path fill-rule="evenodd" clip-rule="evenodd" d="M30.9459 19.3146L29.2036 21.0605L21.0839 29.197L18.2866 32.0002L21.0839 34.8033L29.2036 42.9398L30.9459 44.6857V39.0794L23.8813 32.0002L30.9459 24.9209V19.3146ZM33.0558 39.0796L40.1205 32.0002L33.0558 24.9207V19.3145L34.7982 21.0605L42.9179 29.197L45.7152 32.0002L42.9179 34.8033L34.7982 42.9398L33.0558 44.6859V39.0796Z" fill="white"/>
</g>
<path d="M80 20.8V56H87.5283V28.28H97.7137C103.339 28.28 107.899 32.8109 107.899 38.4V56H115.427V38.4C115.427 28.6798 107.497 20.8 97.7137 20.8H80Z" fill="#11243E"/>
<path fill-rule="evenodd" clip-rule="evenodd" d="M146.177 35.5075C145.455 30.9277 142.646 27.5534 137.028 27.5534C131.81 27.5534 128.199 30.4442 127.237 35.5075H146.177ZM137.911 49.1688C142.325 49.1688 145.535 47.4008 147.462 45.5526L152.197 50.5345C149.066 53.6695 144.734 56 137.992 56C126.434 56 118.97 48.5271 118.97 38.4018C118.97 28.3554 126.836 20.8 136.946 20.8C148.423 20.8 154.924 29.319 154.364 41.1333H127.237C128.199 46.0362 131.73 49.1688 137.911 49.1688Z" fill="#11243E"/>
<path fill-rule="evenodd" clip-rule="evenodd" d="M185.148 35.5075C184.426 30.9277 181.616 27.5534 175.998 27.5534C170.78 27.5534 167.169 30.4442 166.207 35.5075H185.148ZM176.881 49.1688C181.295 49.1688 184.505 47.4008 186.432 45.5526L191.167 50.5345C188.036 53.6695 183.704 56 176.962 56C165.404 56 157.94 48.5271 157.94 38.4018C157.94 28.3554 165.807 20.8 175.916 20.8C187.393 20.8 193.894 29.319 193.334 41.1333H166.207C167.169 46.0362 170.7 49.1688 176.881 49.1688Z" fill="#11243E"/>
<path fill-rule="evenodd" clip-rule="evenodd" d="M196.91 21.1034H202.851V12H210.4V21.1034H217.809V27.9271H210.4V41.7543C210.4 48.0092 211.378 48.9809 217.809 48.9809V56H216.691C206.066 56 202.851 52.6639 202.851 41.8247V27.9271H196.91V21.1034Z" fill="#11243E"/>
<path fill-rule="evenodd" clip-rule="evenodd" d="M249.544 38.4006C249.544 32.4431 244.9 27.5694 239.031 27.5694C233.16 27.5694 228.587 32.4431 228.587 38.4006C228.587 44.3569 233.16 49.2306 239.031 49.2306C244.9 49.2306 249.544 44.3569 249.544 38.4006ZM221.351 38.4006C221.351 28.5172 229.201 20.8 239.031 20.8C248.861 20.8 256.779 28.5172 256.779 38.4006C256.779 48.2155 248.861 56 239.031 56C229.201 56 221.351 48.2155 221.351 38.4006Z" fill="#11243E"/>
<path d="M286.323 56L276.296 38.5787H270.844V56H263.7V12.4467H278.74C282.082 12.4467 284.902 13.0316 287.2 14.2013C289.54 15.3711 291.273 16.9378 292.401 18.9013C293.571 20.8649 294.156 23.0582 294.156 25.4813C294.156 28.3222 293.32 30.9124 291.649 33.252C290.02 35.5498 287.492 37.1164 284.067 37.952L294.845 56H286.323ZM270.844 32.876H278.74C281.414 32.876 283.419 32.2076 284.756 30.8707C286.135 29.5338 286.824 27.7373 286.824 25.4813C286.824 23.2253 286.156 21.4707 284.819 20.2173C283.482 18.9222 281.456 18.2747 278.74 18.2747H270.844V32.876ZM333.899 21.4707V56H326.755V51.9267C325.627 53.3471 324.144 54.4751 322.306 55.3107C320.509 56.1044 318.587 56.5013 316.54 56.5013C313.825 56.5013 311.381 55.9373 309.208 54.8093C307.078 53.6813 305.386 52.0102 304.132 49.796C302.921 47.5818 302.315 44.908 302.315 41.7747V21.4707H309.396V40.7093C309.396 43.8009 310.169 46.1822 311.715 47.8533C313.261 49.4827 315.371 50.2973 318.044 50.2973C320.718 50.2973 322.828 49.4827 324.374 47.8533C325.961 46.1822 326.755 43.8009 326.755 40.7093V21.4707H333.899ZM360.08 20.9067C362.795 20.9067 365.218 21.4707 367.349 22.5987C369.521 23.7267 371.213 25.3978 372.425 27.612C373.637 29.8262 374.242 32.5 374.242 35.6333V56H367.161V36.6987C367.161 33.6071 366.388 31.2467 364.842 29.6173C363.297 27.9462 361.187 27.1107 358.513 27.1107C355.839 27.1107 353.709 27.9462 352.121 29.6173C350.575 31.2467 349.802 33.6071 349.802 36.6987V56H342.658V21.4707H349.802V25.4187C350.972 23.9982 352.455 22.8911 354.252 22.0973C356.09 21.3036 358.033 20.9067 360.08 20.9067ZM400.11 20.9067C402.825 20.9067 405.248 21.4707 407.379 22.5987C409.551 23.7267 411.243 25.3978 412.455 27.612C413.667 29.8262 414.272 32.5 414.272 35.6333V56H407.191V36.6987C407.191 33.6071 406.418 31.2467 404.872 29.6173C403.327 27.9462 401.217 27.1107 398.543 27.1107C395.869 27.1107 393.739 27.9462 392.151 29.6173C390.605 31.2467 389.832 33.6071 389.832 36.6987V56H382.688V21.4707H389.832V25.4187C391.002 23.9982 392.485 22.8911 394.282 22.0973C396.12 21.3036 398.063 20.9067 400.11 20.9067ZM454.365 37.8893C454.365 39.1844 454.281 40.3542 454.114 41.3987H427.732C427.94 44.156 428.964 46.3702 430.802 48.0413C432.64 49.7124 434.896 50.548 437.57 50.548C441.414 50.548 444.129 48.9396 445.717 45.7227H453.425C452.38 48.8978 450.48 51.5089 447.722 53.556C445.007 55.5613 441.623 56.564 437.57 56.564C434.27 56.564 431.304 55.8329 428.672 54.3707C426.081 52.8667 424.034 50.7778 422.53 48.104C421.068 45.3884 420.337 42.2551 420.337 38.704C420.337 35.1529 421.047 32.0404 422.468 29.3667C423.93 26.6511 425.956 24.5622 428.546 23.1C431.178 21.6378 434.186 20.9067 437.57 20.9067C440.829 20.9067 443.732 21.6169 446.281 23.0373C448.829 24.4578 450.814 26.4631 452.234 29.0533C453.655 31.6018 454.365 34.5471 454.365 37.8893ZM446.908 35.6333C446.866 33.0013 445.926 30.8916 444.088 29.304C442.249 27.7164 439.972 26.9227 437.257 26.9227C434.792 26.9227 432.682 27.7164 430.928 29.304C429.173 30.8498 428.128 32.9596 427.794 35.6333H446.908ZM467.873 26.484C468.917 24.7293 470.296 23.3716 472.009 22.4107C473.763 21.408 475.831 20.9067 478.213 20.9067V28.3013H476.395C473.596 28.3013 471.466 29.0116 470.003 30.432C468.583 31.8524 467.873 34.3173 467.873 37.8267V56H460.729V21.4707H467.873V26.484Z" fill="#11243E"/>
<path d="M286.323 56L286.178 56.0831L286.226 56.1667H286.323V56ZM276.296 38.5787L276.44 38.4955L276.392 38.412H276.296V38.5787ZM270.844 38.5787V38.412H270.677V38.5787H270.844ZM270.844 56V56.1667H271.011V56H270.844ZM263.7 56H263.533V56.1667H263.7V56ZM263.7 12.4467V12.28H263.533V12.4467H263.7ZM287.2 14.2013L287.124 14.3499L287.125 14.3504L287.2 14.2013ZM292.401 18.9013L292.257 18.9844L292.258 18.9866L292.401 18.9013ZM291.649 33.252L291.514 33.1551L291.513 33.1556L291.649 33.252ZM284.067 37.952L284.027 37.7901L283.808 37.8436L283.924 38.0375L284.067 37.952ZM294.845 56V56.1667H295.139L294.988 55.9145L294.845 56ZM270.844 32.876H270.677V33.0427H270.844V32.876ZM284.756 30.8707L284.64 30.751L284.638 30.7528L284.756 30.8707ZM284.819 20.2173L284.703 20.3371L284.705 20.3389L284.819 20.2173ZM270.844 18.2747V18.108H270.677V18.2747H270.844ZM286.467 55.9169L276.44 38.4955L276.152 38.6618L286.178 56.0831L286.467 55.9169ZM276.296 38.412H270.844V38.7453H276.296V38.412ZM270.677 38.5787V56H271.011V38.5787H270.677ZM270.844 55.8333H263.7V56.1667H270.844V55.8333ZM263.867 56V12.4467H263.533V56H263.867ZM263.7 12.6133H278.74V12.28H263.7V12.6133ZM278.74 12.6133C282.063 12.6133 284.856 13.195 287.124 14.3499L287.276 14.0528C284.949 12.8681 282.101 12.28 278.74 12.28V12.6133ZM287.125 14.3504C289.44 15.5079 291.148 17.0534 292.257 18.9844L292.546 18.8183C291.399 16.8221 289.639 15.2344 287.275 14.0523L287.125 14.3504ZM292.258 18.9866C293.412 20.9228 293.989 23.0864 293.989 25.4813H294.323C294.323 23.0301 293.731 20.807 292.545 18.816L292.258 18.9866ZM293.989 25.4813C293.989 28.287 293.165 30.8435 291.514 33.1551L291.785 33.3489C293.476 30.9814 294.323 28.3574 294.323 25.4813H293.989ZM291.513 33.1556C289.913 35.413 287.424 36.9616 284.027 37.7901L284.106 38.1139C287.561 37.2713 290.127 35.6865 291.785 33.3484L291.513 33.1556ZM283.924 38.0375L294.702 56.0855L294.988 55.9145L284.21 37.8665L283.924 38.0375ZM294.845 55.8333H286.323V56.1667H294.845V55.8333ZM270.844 33.0427H278.74V32.7093H270.844V33.0427ZM278.74 33.0427C281.439 33.0427 283.495 32.3677 284.874 30.9885L284.638 30.7528C283.344 32.0474 281.388 32.7093 278.74 32.7093V33.0427ZM284.872 30.9903C286.289 29.6166 286.991 27.7739 286.991 25.4813H286.657C286.657 27.7008 285.981 29.451 284.64 30.751L284.872 30.9903ZM286.991 25.4813C286.991 23.1907 286.311 21.3876 284.933 20.0957L284.705 20.3389C286 21.5537 286.657 23.26 286.657 25.4813H286.991ZM284.935 20.0976C283.555 18.761 281.479 18.108 278.74 18.108V18.4413C281.432 18.4413 283.409 19.0834 284.703 20.337L284.935 20.0976ZM278.74 18.108H270.844V18.4413H278.74V18.108ZM270.677 18.2747V32.876H271.011V18.2747H270.677ZM333.899 21.4707H334.066V21.304H333.899V21.4707ZM333.899 56V56.1667H334.066V56H333.899ZM326.755 56H326.588V56.1667H326.755V56ZM326.755 51.9267H326.922V51.4488L326.625 51.823L326.755 51.9267ZM322.306 55.3107L322.373 55.4631L322.375 55.4624L322.306 55.3107ZM309.208 54.8093L309.13 54.9566L309.132 54.9572L309.208 54.8093ZM304.132 49.796L303.986 49.876L303.987 49.8781L304.132 49.796ZM302.315 21.4707V21.304H302.148V21.4707H302.315ZM309.396 21.4707H309.563V21.304H309.396V21.4707ZM311.715 47.8533L311.593 47.9665L311.594 47.968L311.715 47.8533ZM324.374 47.8533L324.253 47.7385L324.253 47.7386L324.374 47.8533ZM326.755 21.4707V21.304H326.588V21.4707H326.755ZM333.732 21.4707V56H334.066V21.4707H333.732ZM333.899 55.8333H326.755V56.1667H333.899V55.8333ZM326.922 56V51.9267H326.588V56H326.922ZM326.625 51.823C325.515 53.2205 324.054 54.3331 322.237 55.1589L322.375 55.4624C324.234 54.6172 325.739 53.4737 326.886 52.0303L326.625 51.823ZM322.238 55.1582C320.464 55.9422 318.565 56.3347 316.54 56.3347V56.668C318.61 56.668 320.555 56.2667 322.373 55.4631L322.238 55.1582ZM316.54 56.3347C313.849 56.3347 311.431 55.7758 309.285 54.6614L309.132 54.9572C311.33 56.0989 313.801 56.668 316.54 56.668V56.3347ZM309.286 54.662C307.185 53.5498 305.516 51.902 304.277 49.7139L303.987 49.8781C305.255 52.1184 306.97 53.8129 309.13 54.9566L309.286 54.662ZM304.279 49.716C303.083 47.5315 302.482 44.8867 302.482 41.7747H302.148C302.148 44.9293 302.758 47.632 303.986 49.876L304.279 49.716ZM302.482 41.7747V21.4707H302.148V41.7747H302.482ZM302.315 21.6373H309.396V21.304H302.315V21.6373ZM309.23 21.4707V40.7093H309.563V21.4707H309.23ZM309.23 40.7093C309.23 43.8276 310.01 46.255 311.593 47.9665L311.837 47.7402C310.329 46.1095 309.563 43.7742 309.563 40.7093H309.23ZM311.594 47.968C313.177 49.6368 315.334 50.464 318.044 50.464V50.1307C315.407 50.1307 313.344 49.3285 311.836 47.7386L311.594 47.968ZM318.044 50.464C320.754 50.464 322.911 49.6368 324.495 47.968L324.253 47.7386C322.744 49.3285 320.682 50.1307 318.044 50.1307V50.464ZM324.495 47.9681C326.12 46.2567 326.922 43.8287 326.922 40.7093H326.588C326.588 43.7731 325.802 46.1077 324.253 47.7385L324.495 47.9681ZM326.922 40.7093V21.4707H326.588V40.7093H326.922ZM326.755 21.6373H333.899V21.304H326.755V21.6373ZM367.349 22.5987L367.271 22.746L367.272 22.7466L367.349 22.5987ZM372.425 27.612L372.279 27.692L372.425 27.612ZM374.242 56V56.1667H374.409V56H374.242ZM367.161 56H366.994V56.1667H367.161V56ZM364.842 29.6173L364.72 29.7305L364.721 29.732L364.842 29.6173ZM352.121 29.6173L352 29.5025L352 29.5026L352.121 29.6173ZM349.802 56V56.1667H349.969V56H349.802ZM342.658 56H342.492V56.1667H342.658V56ZM342.658 21.4707V21.304H342.492V21.4707H342.658ZM349.802 21.4707H349.969V21.304H349.802V21.4707ZM349.802 25.4187H349.636V25.8832L349.931 25.5246L349.802 25.4187ZM354.252 22.0973L354.186 21.9443L354.184 21.9449L354.252 22.0973ZM360.08 21.0733C362.772 21.0733 365.167 21.6322 367.271 22.746L367.427 22.4514C365.269 21.3091 362.819 20.74 360.08 20.74V21.0733ZM367.272 22.7466C369.414 23.8588 371.083 25.5058 372.279 27.692L372.571 27.532C371.344 25.2897 369.629 23.5945 367.426 22.4507L367.272 22.7466ZM372.279 27.692C373.474 29.8765 374.076 32.5213 374.076 35.6333H374.409C374.409 32.4787 373.799 29.776 372.571 27.532L372.279 27.692ZM374.076 35.6333V56H374.409V35.6333H374.076ZM374.242 55.8333H367.161V56.1667H374.242V55.8333ZM367.328 56V36.6987H366.994V56H367.328ZM367.328 36.6987C367.328 33.5807 366.548 31.173 364.963 29.5026L364.721 29.732C366.228 31.3203 366.994 33.6335 366.994 36.6987H367.328ZM364.965 29.5042C363.382 27.7929 361.224 26.944 358.513 26.944V27.2773C361.149 27.2773 363.211 28.0995 364.72 29.7305L364.965 29.5042ZM358.513 26.944C355.802 26.944 353.624 27.7929 352 29.5025L352.242 29.7321C353.793 28.0995 355.877 27.2773 358.513 27.2773V26.944ZM352 29.5026C350.415 31.173 349.636 33.5807 349.636 36.6987H349.969C349.969 33.6335 350.735 31.3203 352.242 29.732L352 29.5026ZM349.636 36.6987V56H349.969V36.6987H349.636ZM349.802 55.8333H342.658V56.1667H349.802V55.8333ZM342.825 56V21.4707H342.492V56H342.825ZM342.658 21.6373H349.802V21.304H342.658V21.6373ZM349.636 21.4707V25.4187H349.969V21.4707H349.636ZM349.931 25.5246C351.083 24.1256 352.545 23.0338 354.319 22.2498L354.184 21.9449C352.366 22.7484 350.861 23.8709 349.674 25.3127L349.931 25.5246ZM354.318 22.2503C356.135 21.4658 358.055 21.0733 360.08 21.0733V20.74C358.01 20.74 356.045 21.1413 354.186 21.9443L354.318 22.2503ZM407.379 22.5987L407.301 22.746L407.302 22.7466L407.379 22.5987ZM412.455 27.612L412.309 27.692L412.455 27.612ZM414.272 56V56.1667H414.439V56H414.272ZM407.191 56H407.024V56.1667H407.191V56ZM404.872 29.6173L404.75 29.7305L404.751 29.732L404.872 29.6173ZM392.151 29.6173L392.03 29.5025L392.03 29.5026L392.151 29.6173ZM389.832 56V56.1667H389.999V56H389.832ZM382.688 56H382.522V56.1667H382.688V56ZM382.688 21.4707V21.304H382.522V21.4707H382.688ZM389.832 21.4707H389.999V21.304H389.832V21.4707ZM389.832 25.4187H389.666V25.8832L389.961 25.5246L389.832 25.4187ZM394.282 22.0973L394.216 21.9443L394.214 21.9449L394.282 22.0973ZM400.11 21.0733C402.801 21.0733 405.197 21.6322 407.301 22.746L407.457 22.4514C405.299 21.3091 402.849 20.74 400.11 20.74V21.0733ZM407.302 22.7466C409.444 23.8588 411.113 25.5058 412.309 27.692L412.601 27.532C411.374 25.2897 409.659 23.5945 407.456 22.4507L407.302 22.7466ZM412.309 27.692C413.504 29.8765 414.106 32.5213 414.106 35.6333H414.439C414.439 32.4787 413.829 29.776 412.601 27.532L412.309 27.692ZM414.106 35.6333V56H414.439V35.6333H414.106ZM414.272 55.8333H407.191V56.1667H414.272V55.8333ZM407.358 56V36.6987H407.024V56H407.358ZM407.358 36.6987C407.358 33.5807 406.578 31.173 404.993 29.5026L404.751 29.732C406.258 31.3203 407.024 33.6335 407.024 36.6987H407.358ZM404.995 29.5042C403.412 27.7929 401.254 26.944 398.543 26.944V27.2773C401.179 27.2773 403.241 28.0995 404.75 29.7305L404.995 29.5042ZM398.543 26.944C395.831 26.944 393.654 27.7929 392.03 29.5025L392.272 29.7321C393.823 28.0995 395.907 27.2773 398.543 27.2773V26.944ZM392.03 29.5026C390.445 31.173 389.666 33.5807 389.666 36.6987H389.999C389.999 33.6335 390.765 31.3203 392.272 29.732L392.03 29.5026ZM389.666 36.6987V56H389.999V36.6987H389.666ZM389.832 55.8333H382.688V56.1667H389.832V55.8333ZM382.855 56V21.4707H382.522V56H382.855ZM382.688 21.6373H389.832V21.304H382.688V21.6373ZM389.666 21.4707V25.4187H389.999V21.4707H389.666ZM389.961 25.5246C391.113 24.1256 392.575 23.0338 394.349 22.2498L394.214 21.9449C392.396 22.7484 390.891 23.8709 389.704 25.3127L389.961 25.5246ZM394.348 22.2503C396.165 21.4658 398.085 21.0733 400.11 21.0733V20.74C398.04 20.74 396.075 21.1413 394.216 21.9443L394.348 22.2503ZM454.114 41.3987V41.5653H454.256L454.279 41.425L454.114 41.3987ZM427.732 41.3987V41.232H427.552L427.565 41.4113L427.732 41.3987ZM430.802 48.0413L430.69 48.1647L430.802 48.0413ZM445.717 45.7227V45.556H445.613L445.567 45.6489L445.717 45.7227ZM453.425 45.7227L453.583 45.7747L453.655 45.556H453.425V45.7227ZM447.722 53.556L447.821 53.6901L447.822 53.6898L447.722 53.556ZM428.672 54.3707L428.588 54.5148L428.591 54.5164L428.672 54.3707ZM422.53 48.104L422.383 48.183L422.385 48.1857L422.53 48.104ZM422.468 29.3667L422.321 29.2876L422.32 29.2885L422.468 29.3667ZM428.546 23.1L428.465 22.9543L428.464 22.9549L428.546 23.1ZM446.281 23.0373L446.362 22.8918L446.281 23.0373ZM452.234 29.0533L452.088 29.1335L452.089 29.1345L452.234 29.0533ZM446.908 35.6333V35.8H447.077L447.074 35.6307L446.908 35.6333ZM444.088 29.304L444.197 29.1779L444.088 29.304ZM430.928 29.304L431.038 29.4291L431.039 29.4276L430.928 29.304ZM427.794 35.6333L427.629 35.6127L427.605 35.8H427.794V35.6333ZM454.198 37.8893C454.198 39.1775 454.115 40.3383 453.95 41.3723L454.279 41.425C454.448 40.3702 454.532 39.1914 454.532 37.8893H454.198ZM454.114 41.232H427.732V41.5653H454.114V41.232ZM427.565 41.4113C427.777 44.2058 428.817 46.4616 430.69 48.1647L430.914 47.918C429.111 46.2789 428.104 44.1062 427.898 41.3861L427.565 41.4113ZM430.69 48.1647C432.561 49.8659 434.858 50.7147 437.57 50.7147V50.3813C434.934 50.3813 432.719 49.559 430.914 47.918L430.69 48.1647ZM437.57 50.7147C439.515 50.7147 441.186 50.3075 442.575 49.4851C443.964 48.6622 445.06 47.4298 445.866 45.7964L445.567 45.6489C444.786 47.2324 443.731 48.4127 442.405 49.1983C441.078 49.9843 439.469 50.3813 437.57 50.3813V50.7147ZM445.717 45.8893H453.425V45.556H445.717V45.8893ZM453.267 45.6706C452.233 48.8121 450.353 51.395 447.623 53.4222L447.822 53.6898C450.606 51.6228 452.528 48.9835 453.583 45.7747L453.267 45.6706ZM447.623 53.4219C444.942 55.4021 441.594 56.3973 437.57 56.3973V56.7307C441.651 56.7307 445.072 55.7206 447.821 53.6901L447.623 53.4219ZM437.57 56.3973C434.295 56.3973 431.357 55.6721 428.753 54.225L428.591 54.5164C431.25 55.9936 434.244 56.7307 437.57 56.7307V56.3973ZM428.755 54.2265C426.191 52.7379 424.165 50.6708 422.675 48.0223L422.385 48.1857C423.903 50.8848 425.971 52.9955 428.588 54.5148L428.755 54.2265ZM422.677 48.025C421.23 45.3372 420.504 42.2317 420.504 38.704H420.17C420.17 42.2785 420.906 45.4397 422.383 48.183L422.677 48.025ZM420.504 38.704C420.504 35.1754 421.209 32.0907 422.615 29.4449L422.32 29.2885C420.885 31.9902 420.17 35.1303 420.17 38.704H420.504ZM422.614 29.4457C424.062 26.7568 426.066 24.6913 428.628 23.2451L428.464 22.9549C425.846 24.4332 423.797 26.5455 422.321 29.2876L422.614 29.4457ZM428.627 23.2457C431.231 21.7989 434.211 21.0733 437.57 21.0733V20.74C434.161 20.74 431.125 21.4767 428.465 22.9543L428.627 23.2457ZM437.57 21.0733C440.804 21.0733 443.679 21.7779 446.2 23.1829L446.362 22.8918C443.786 21.4559 440.854 20.74 437.57 20.74V21.0733ZM446.2 23.1829C448.72 24.5879 450.683 26.5704 452.088 29.1335L452.38 28.9732C450.945 26.3558 448.938 24.3277 446.362 22.8918L446.2 23.1829ZM452.089 29.1345C453.493 31.6547 454.198 34.5713 454.198 37.8893H454.532C454.532 34.5229 453.816 31.5489 452.38 28.9722L452.089 29.1345ZM447.074 35.6307C447.032 32.9557 446.074 30.7993 444.197 29.1779L443.979 29.4301C445.778 30.9838 446.7 33.047 446.741 35.636L447.074 35.6307ZM444.197 29.1779C442.324 27.561 440.007 26.756 437.257 26.756V27.0893C439.938 27.0893 442.174 27.8718 443.979 29.4301L444.197 29.1779ZM437.257 26.756C434.753 26.756 432.602 27.5639 430.816 29.1804L431.039 29.4276C432.762 27.869 434.831 27.0893 437.257 27.0893V26.756ZM430.817 29.1789C429.028 30.7557 427.967 32.9051 427.629 35.6127L427.96 35.654C428.29 33.0141 429.318 30.9439 431.038 29.4291L430.817 29.1789ZM427.794 35.8H446.908V35.4667H427.794V35.8ZM467.873 26.484H467.706V27.0898L468.016 26.5692L467.873 26.484ZM472.009 22.4107L472.09 22.556L472.091 22.5554L472.009 22.4107ZM478.213 20.9067H478.379V20.74H478.213V20.9067ZM478.213 28.3013V28.468H478.379V28.3013H478.213ZM470.003 30.432L469.887 30.3124L469.885 30.3141L470.003 30.432ZM467.873 56V56.1667H468.039V56H467.873ZM460.729 56H460.562V56.1667H460.729V56ZM460.729 21.4707V21.304H460.562V21.4707H460.729ZM467.873 21.4707H468.039V21.304H467.873V21.4707ZM468.016 26.5692C469.046 24.8386 470.404 23.502 472.09 22.556L471.927 22.2653C470.188 23.2411 468.788 24.62 467.729 26.3988L468.016 26.5692ZM472.091 22.5554C473.817 21.5695 475.855 21.0733 478.213 21.0733V20.74C475.808 20.74 473.71 21.2465 471.926 22.266L472.091 22.5554ZM478.046 20.9067V28.3013H478.379V20.9067H478.046ZM478.213 28.1347H476.395V28.468H478.213V28.1347ZM476.395 28.1347C473.569 28.1347 471.391 28.852 469.887 30.3125L470.119 30.5515C471.54 29.1711 473.623 28.468 476.395 28.468V28.1347ZM469.885 30.3141C468.417 31.7823 467.706 34.3037 467.706 37.8267H468.039C468.039 34.331 468.748 31.9226 470.121 30.5498L469.885 30.3141ZM467.706 37.8267V56H468.039V37.8267H467.706ZM467.873 55.8333H460.729V56.1667H467.873V55.8333ZM460.895 56V21.4707H460.562V56H460.895ZM460.729 21.6373H467.873V21.304H460.729V21.6373ZM467.706 21.4707V26.484H468.039V21.4707H467.706Z" fill="#11243E"/>
<defs>
<filter id="filter0_d_3239_11885" x="18.2866" y="19.3145" width="33.4285" height="32.3714" filterUnits="userSpaceOnUse" color-interpolation-filters="sRGB">
<feFlood flood-opacity="0" result="BackgroundImageFix"/>
<feColorMatrix in="SourceAlpha" type="matrix" values="0 0 0 0 0 0 0 0 0 0 0 0 0 0 0 0 0 0 127 0" result="hardAlpha"/>
<feOffset dx="3" dy="4"/>
<feGaussianBlur stdDeviation="1.5"/>
<feComposite in2="hardAlpha" operator="out"/>
<feColorMatrix type="matrix" values="0 0 0 0 0 0 0 0 0 0 0 0 0 0 0 0 0 0 0.05 0"/>
<feBlend mode="normal" in2="BackgroundImageFix" result="effect1_dropShadow_3239_11885"/>
<feBlend mode="normal" in="SourceGraphic" in2="effect1_dropShadow_3239_11885" result="shape"/>
</filter>
<linearGradient id="paint0_linear_3239_11885" x1="59.7714" y1="70.2286" x2="15.5429" y2="3.71429" gradientUnits="userSpaceOnUse">
<stop stop-color="#4B47FF"/>
<stop offset="0.6986" stop-color="#79B3F6"/>
</linearGradient>
</defs>
</svg>
