<svg width="474" height="153" viewBox="0 0 474 153" fill="none" xmlns="http://www.w3.org/2000/svg">
  <g clip-path="url(#clip0_425_14811)">
  <path d="M71.7682 9.63974L19.6875 43.3081V100.979L118.277 42.1348C121.132 40.4309 121.134 36.2964 118.28 34.5904L76.4084 9.55837C74.9723 8.69986 73.1733 8.73141 71.7682 9.63974Z" fill="#5BCC5A"/>
  <path d="M71.7682 134.645L19.6875 100.977V43.3061L118.277 102.15C121.132 103.854 121.134 107.989 118.28 109.695L76.4084 134.727C74.9723 135.585 73.1733 135.554 71.7682 134.645Z" fill="#75DC66"/>
  <path fill-rule="evenodd" clip-rule="evenodd" d="M67.9972 72.1426L19.6875 43.3086V100.977L67.9972 72.1426Z" fill="#0DA84C"/>
  </g>
  <path d="M168.848 95.0773C168.848 87.1592 170.617 80.0867 174.153 73.8598C177.766 67.5561 182.648 62.6745 188.798 59.2152C195.024 55.6789 201.982 53.9108 209.669 53.9108C218.663 53.9108 226.543 56.217 233.308 60.8295C240.073 65.442 244.801 71.8227 247.492 79.9714H228.926C227.081 76.1277 224.468 73.2448 221.085 71.323C217.779 69.4011 213.936 68.4402 209.554 68.4402C204.864 68.4402 200.675 69.5548 196.985 71.7842C193.372 73.9367 190.527 77.0117 188.452 81.0092C186.453 85.0067 185.453 89.6961 185.453 95.0773C185.453 100.382 186.453 105.071 188.452 109.145C190.527 113.143 193.372 116.256 196.985 118.486C200.675 120.638 204.864 121.715 209.554 121.715C213.936 121.715 217.779 120.754 221.085 118.832C224.468 116.833 227.081 113.912 228.926 110.068H247.492C244.801 118.294 240.073 124.713 233.308 129.325C226.62 133.861 218.74 136.129 209.669 136.129C201.982 136.129 195.024 134.399 188.798 130.94C182.648 127.403 177.766 122.522 174.153 116.295C170.617 110.068 168.848 102.995 168.848 95.0773Z" fill="black"/>
  <path d="M287.341 136.475C281.191 136.475 275.656 135.129 270.736 132.439C265.816 129.671 261.934 125.789 259.089 120.792C256.322 115.795 254.938 110.03 254.938 103.495C254.938 96.9608 256.36 91.1952 259.205 86.1983C262.126 81.2014 266.085 77.3577 271.082 74.667C276.079 71.8995 281.652 70.5158 287.802 70.5158C293.952 70.5158 299.526 71.8995 304.523 74.667C309.519 77.3577 313.44 81.2014 316.285 86.1983C319.206 91.1952 320.666 96.9608 320.666 103.495C320.666 110.03 319.167 115.795 316.169 120.792C313.248 125.789 309.25 129.671 304.177 132.439C299.18 135.129 293.568 136.475 287.341 136.475ZM287.341 122.406C290.262 122.406 292.991 121.715 295.528 120.331C298.142 118.87 300.218 116.718 301.755 113.873C303.293 111.029 304.061 107.57 304.061 103.495C304.061 97.422 302.447 92.7711 299.218 89.5423C296.066 86.2367 292.184 84.5839 287.572 84.5839C282.959 84.5839 279.077 86.2367 275.925 89.5423C272.85 92.7711 271.313 97.422 271.313 103.495C271.313 109.568 272.812 114.258 275.81 117.563C278.885 120.792 282.729 122.406 287.341 122.406Z" fill="black"/>
  <path d="M326.051 103.265C326.051 96.807 327.319 91.0798 329.856 86.083C332.47 81.0861 336.006 77.2423 340.465 74.5517C344.924 71.8611 349.882 70.5158 355.34 70.5158C359.492 70.5158 363.451 71.4383 367.217 73.2833C370.984 75.0514 373.982 77.4345 376.212 80.4327V50.1055H392.586V135.437H376.212V125.981C374.213 129.133 371.407 131.67 367.794 133.592C364.181 135.514 359.991 136.475 355.225 136.475C349.844 136.475 344.924 135.091 340.465 132.323C336.006 129.556 332.47 125.674 329.856 120.677C327.319 115.603 326.051 109.799 326.051 103.265ZM376.327 103.495C376.327 99.5745 375.558 96.2305 374.021 93.463C372.483 90.6186 370.408 88.4661 367.794 87.0055C365.18 85.468 362.374 84.6992 359.376 84.6992C356.378 84.6992 353.611 85.4295 351.074 86.8902C348.537 88.3508 346.461 90.5033 344.847 93.3477C343.309 96.1152 342.541 99.4208 342.541 103.265C342.541 107.108 343.309 110.491 344.847 113.412C346.461 116.256 348.537 118.447 351.074 119.985C353.687 121.522 356.455 122.291 359.376 122.291C362.374 122.291 365.18 121.561 367.794 120.1C370.408 118.563 372.483 116.41 374.021 113.643C375.558 110.798 376.327 107.416 376.327 103.495Z" fill="black"/>
  <path d="M465.433 102.111C465.433 104.418 465.279 106.493 464.972 108.338H418.27C418.655 112.951 420.269 116.564 423.113 119.178C425.958 121.791 429.456 123.098 433.607 123.098C439.603 123.098 443.87 120.523 446.407 115.372H463.819C461.974 121.522 458.438 126.596 453.21 130.594C447.982 134.514 441.563 136.475 433.953 136.475C427.803 136.475 422.268 135.129 417.348 132.439C412.505 129.671 408.699 125.789 405.932 120.792C403.241 115.795 401.896 110.03 401.896 103.495C401.896 96.8839 403.241 91.0798 405.932 86.083C408.622 81.0861 412.389 77.2423 417.232 74.5517C422.076 71.8611 427.649 70.5158 433.953 70.5158C440.026 70.5158 445.446 71.8227 450.212 74.4364C455.055 77.0502 458.783 80.7786 461.397 85.6217C464.088 90.388 465.433 95.8845 465.433 102.111ZM448.713 97.4989C448.636 93.3477 447.137 90.042 444.216 87.582C441.294 85.0452 437.72 83.7767 433.492 83.7767C429.494 83.7767 426.112 85.0067 423.344 87.4667C420.653 89.8498 419.001 93.1939 418.386 97.4989H448.713Z" fill="black"/>
  <path d="M229.747 25.3847C229.747 26.2481 229.689 27.0252 229.574 27.716H212.103C212.247 29.4429 212.851 30.7956 213.915 31.7742C214.979 32.7527 216.288 33.242 217.841 33.242C220.084 33.242 221.68 32.2778 222.629 30.3495H229.143C228.452 32.652 227.13 34.5516 225.174 36.0482C223.219 37.5161 220.817 38.25 217.97 38.25C215.669 38.25 213.599 37.7463 211.758 36.739C209.947 35.7028 208.523 34.2494 207.488 32.3786C206.481 30.5078 205.978 28.3492 205.978 25.9028C205.978 23.4275 206.481 21.2545 207.488 19.3837C208.494 17.513 209.903 16.0739 211.715 15.0665C213.527 14.0592 215.612 13.5555 217.97 13.5555C220.242 13.5555 222.269 14.0448 224.052 15.0234C225.864 16.0019 227.259 17.3978 228.237 19.2111C229.243 20.9955 229.747 23.0534 229.747 25.3847ZM223.492 23.6578C223.463 22.1036 222.902 20.866 221.809 19.945C220.717 18.9952 219.379 18.5203 217.798 18.5203C216.302 18.5203 215.037 18.9808 214.002 19.9018C212.995 20.794 212.377 22.046 212.147 23.6578H223.492Z" fill="black"/>
  <path d="M256.37 25.3847C256.37 26.2481 256.313 27.0252 256.198 27.716H238.727C238.871 29.4429 239.475 30.7956 240.539 31.7742C241.603 32.7527 242.912 33.242 244.465 33.242C246.708 33.242 248.304 32.2778 249.253 30.3495H255.766C255.076 32.652 253.753 34.5516 251.798 36.0482C249.842 37.5161 247.441 38.25 244.594 38.25C242.293 38.25 240.223 37.7463 238.382 36.739C236.57 35.7028 235.147 34.2494 234.112 32.3786C233.105 30.5078 232.602 28.3492 232.602 25.9028C232.602 23.4275 233.105 21.2545 234.112 19.3837C235.118 17.513 236.527 16.0739 238.339 15.0665C240.151 14.0592 242.236 13.5555 244.594 13.5555C246.866 13.5555 248.893 14.0448 250.676 15.0234C252.488 16.0019 253.883 17.3978 254.861 19.2111C255.867 20.9955 256.37 23.0534 256.37 25.3847ZM250.115 23.6578C250.087 22.1036 249.526 20.866 248.433 19.945C247.34 18.9952 246.003 18.5203 244.421 18.5203C242.926 18.5203 241.661 18.9808 240.625 19.9018C239.619 20.794 239 22.046 238.77 23.6578H250.115Z" fill="black"/>
  <path d="M267.91 18.8624V30.5365C267.91 31.3424 268.122 31.8749 268.496 32.249C268.899 32.5944 269.56 32.7671 270.481 32.7671H273.285V37.8614H269.489C264.398 37.8614 261.963 35.258 261.963 30.3076V18.8624H258.761V13.8265H261.963V7.875H267.91V13.8265H273.285V18.8624H267.91Z" fill="black"/>
  <path d="M288.114 38.25C285.814 38.25 283.743 37.7463 281.903 36.739C280.062 35.7028 278.61 34.2494 277.546 32.3786C276.51 30.5078 275.993 28.3492 275.993 25.9028C275.993 23.4563 276.525 21.2977 277.589 19.4269C278.682 17.5561 280.163 16.1171 282.032 15.1097C283.901 14.0736 285.986 13.5555 288.287 13.5555C290.588 13.5555 292.673 14.0736 294.542 15.1097C296.411 16.1171 297.878 17.5561 298.942 19.4269C300.035 21.2977 300.581 23.4563 300.581 25.9028C300.581 28.3492 300.02 30.5078 298.899 32.3786C297.806 34.2494 296.31 35.7028 294.412 36.739C292.543 37.7463 290.444 38.25 288.114 38.25ZM288.114 32.983C289.207 32.983 290.228 32.724 291.177 32.2059C292.155 31.659 292.931 30.8532 293.507 29.7882C294.082 28.7233 294.369 27.4282 294.369 25.9028C294.369 23.629 293.765 21.8877 292.557 20.6789C291.378 19.4413 289.926 18.8225 288.201 18.8225C286.475 18.8225 285.023 19.4413 283.844 20.6789C282.693 21.8877 282.118 23.629 282.118 25.9028C282.118 28.1765 282.679 29.9322 283.801 31.1698C284.951 32.3786 286.389 32.983 288.114 32.983Z" fill="black"/>
  <path d="M200.877 7.875H189.284L200.877 25.2653V7.875Z" fill="black"/>
  <path d="M172.125 38.25L172.125 7.875H180.497L200.877 38.25H192.261L178.849 18.541V38.25H172.125Z" fill="black"/>
  <defs>
  <clipPath id="clip0_425_14811">
  <rect width="128.25" height="128.25" fill="white" transform="translate(7.875 7.875)"/>
  </clipPath>
  </defs>
</svg>
