<svg width="487" height="64" viewBox="0 0 487 64" fill="none" xmlns="http://www.w3.org/2000/svg">
<path d="M56 32C56 18.7452 45.2548 8 32 8H8V56H56V32Z" fill="url(#paint0_linear_3239_10776)"/>
<path fill-rule="evenodd" clip-rule="evenodd" d="M43.1179 43.55V25.0862C43.1179 24.1347 42.3465 23.3633 41.395 23.3633H22.8919C21.9403 23.3633 21.1689 24.1347 21.1689 25.0862V43.55C21.1689 44.0497 21.3859 44.5247 21.7635 44.852L23.6987 46.5292C24.3463 47.0904 25.3079 47.0904 25.9555 46.5292L27.3569 45.3147C28.0045 44.7534 28.9661 44.7534 29.6137 45.3147L31.015 46.5292C31.6626 47.0904 32.6242 47.0904 33.2718 46.5292L34.6732 45.3147C35.3208 44.7534 36.2824 44.7534 36.93 45.3147L38.3314 46.5292C38.9789 47.0904 39.9406 47.0904 40.5881 46.5292L42.5234 44.852C42.901 44.5247 43.1179 44.0497 43.1179 43.55ZM23.365 28.4851C23.365 27.677 24.0202 27.0219 24.8283 27.0219H34.3395C35.1477 27.0219 35.8028 27.677 35.8028 28.4851C35.8028 29.2933 35.1477 29.9484 34.3395 29.9484H24.8283C24.0202 29.9484 23.365 29.2933 23.365 28.4851ZM24.8283 32.143C24.0202 32.143 23.365 32.7981 23.365 33.6062C23.365 34.4144 24.0202 35.0695 24.8283 35.0695H39.4609C40.2691 35.0695 40.9242 34.4144 40.9242 33.6062C40.9242 32.7981 40.2691 32.143 39.4609 32.143H24.8283Z" fill="white"/>
<path d="M80 21.0533V56.2533H87.5283V28.5333H97.7137C103.339 28.5333 107.899 33.0642 107.899 38.6533V56.2533H115.427V38.6533C115.427 28.9331 107.497 21.0533 97.7137 21.0533H80Z" fill="#11243E"/>
<path fill-rule="evenodd" clip-rule="evenodd" d="M146.177 35.7608C145.455 31.1811 142.646 27.8067 137.028 27.8067C131.81 27.8067 128.199 30.6975 127.237 35.7608H146.177ZM137.911 49.4221C142.325 49.4221 145.535 47.6541 147.462 45.806L152.197 50.7879C149.066 53.9228 144.734 56.2533 137.992 56.2533C126.434 56.2533 118.97 48.7805 118.97 38.6551C118.97 28.6087 126.836 21.0533 136.946 21.0533C148.423 21.0533 154.924 29.5723 154.364 41.3867H127.237C128.199 46.2895 131.73 49.4221 137.911 49.4221Z" fill="#11243E"/>
<path fill-rule="evenodd" clip-rule="evenodd" d="M185.148 35.7608C184.426 31.1811 181.616 27.8067 175.998 27.8067C170.78 27.8067 167.169 30.6975 166.207 35.7608H185.148ZM176.881 49.4221C181.295 49.4221 184.505 47.6541 186.432 45.806L191.167 50.7879C188.036 53.9228 183.704 56.2533 176.962 56.2533C165.404 56.2533 157.94 48.7805 157.94 38.6551C157.94 28.6087 165.807 21.0533 175.916 21.0533C187.393 21.0533 193.894 29.5723 193.334 41.3867H166.207C167.169 46.2895 170.7 49.4221 176.881 49.4221Z" fill="#11243E"/>
<path fill-rule="evenodd" clip-rule="evenodd" d="M196.91 21.3568H202.851V12.2533H210.4V21.3568H217.809V28.1805H210.4V42.0076C210.4 48.2625 211.378 49.2342 217.809 49.2342V56.2533H216.691C206.066 56.2533 202.851 52.9172 202.851 42.078V28.1805H196.91V21.3568Z" fill="#11243E"/>
<path fill-rule="evenodd" clip-rule="evenodd" d="M249.544 38.6539C249.544 32.6965 244.9 27.8227 239.031 27.8227C233.16 27.8227 228.587 32.6965 228.587 38.6539C228.587 44.6102 233.16 49.484 239.031 49.484C244.9 49.484 249.544 44.6102 249.544 38.6539ZM221.351 38.6539C221.351 28.7705 229.201 21.0533 239.031 21.0533C248.861 21.0533 256.779 28.7705 256.779 38.6539C256.779 48.4688 248.861 56.2533 239.031 56.2533C229.201 56.2533 221.351 48.4688 221.351 38.6539Z" fill="#11243E"/>
<path d="M270.844 12.7V56.2533H263.7V12.7H270.844Z" fill="#11243E"/>
<path d="M296.978 21.16C299.694 21.16 302.117 21.724 304.247 22.852C306.42 23.98 308.112 25.6511 309.323 27.8653C310.535 30.0796 311.141 32.7533 311.141 35.8867V56.2533H304.059V36.952C304.059 33.8604 303.287 31.5 301.741 29.8707C300.195 28.1996 298.085 27.364 295.411 27.364C292.738 27.364 290.607 28.1996 289.019 29.8707C287.474 31.5 286.701 33.8604 286.701 36.952V56.2533H279.557V21.724H286.701V25.672C287.871 24.2516 289.354 23.1444 291.15 22.3507C292.988 21.5569 294.931 21.16 296.978 21.16Z" fill="#11243E"/>
<path d="M332.935 49.8613L342.711 21.724H350.293L337.133 56.2533H328.611L315.513 21.724H323.159L332.935 49.8613Z" fill="#11243E"/>
<path d="M370.004 56.8173C366.745 56.8173 363.8 56.0862 361.168 54.624C358.536 53.12 356.468 51.0311 354.964 48.3573C353.46 45.6418 352.708 42.5084 352.708 38.9573C352.708 35.448 353.481 32.3356 355.027 29.62C356.573 26.9044 358.682 24.8156 361.356 23.3533C364.03 21.8911 367.017 21.16 370.318 21.16C373.618 21.16 376.605 21.8911 379.279 23.3533C381.953 24.8156 384.062 26.9044 385.608 29.62C387.154 32.3356 387.927 35.448 387.927 38.9573C387.927 42.4667 387.133 45.5791 385.546 48.2947C383.958 51.0102 381.785 53.12 379.028 54.624C376.313 56.0862 373.305 56.8173 370.004 56.8173ZM370.004 50.6133C371.842 50.6133 373.555 50.1747 375.143 49.2973C376.772 48.42 378.088 47.104 379.091 45.3493C380.093 43.5947 380.595 41.464 380.595 38.9573C380.595 36.4507 380.114 34.3409 379.154 32.628C378.193 30.8733 376.918 29.5573 375.331 28.68C373.743 27.8027 372.03 27.364 370.192 27.364C368.354 27.364 366.641 27.8027 365.053 28.68C363.508 29.5573 362.275 30.8733 361.356 32.628C360.437 34.3409 359.978 36.4507 359.978 38.9573C359.978 42.6756 360.917 45.5582 362.797 47.6053C364.719 49.6107 367.121 50.6133 370.004 50.6133Z" fill="#11243E"/>
<path d="M397.957 17.1493C396.662 17.1493 395.576 16.7107 394.698 15.8333C393.821 14.956 393.382 13.8698 393.382 12.5747C393.382 11.2796 393.821 10.1933 394.698 9.316C395.576 8.43867 396.662 8 397.957 8C399.21 8 400.276 8.43867 401.153 9.316C402.03 10.1933 402.469 11.2796 402.469 12.5747C402.469 13.8698 402.03 14.956 401.153 15.8333C400.276 16.7107 399.21 17.1493 397.957 17.1493ZM401.466 21.724V56.2533H394.322V21.724H401.466Z" fill="#11243E"/>
<path d="M407.798 38.9573C407.798 35.4062 408.508 32.2938 409.928 29.62C411.391 26.9044 413.396 24.8156 415.945 23.3533C418.493 21.8911 421.417 21.16 424.718 21.16C428.896 21.16 432.342 22.1627 435.058 24.168C437.815 26.1316 439.674 28.9516 440.635 32.628H432.927C432.301 30.9151 431.298 29.5782 429.919 28.6173C428.54 27.6564 426.807 27.176 424.718 27.176C421.793 27.176 419.454 28.2204 417.699 30.3093C415.986 32.3564 415.13 35.2391 415.13 38.9573C415.13 42.6756 415.986 45.5791 417.699 47.668C419.454 49.7569 421.793 50.8013 424.718 50.8013C428.854 50.8013 431.59 48.984 432.927 45.3493H440.635C439.633 48.8587 437.753 51.6578 434.995 53.7467C432.238 55.7938 428.812 56.8173 424.718 56.8173C421.417 56.8173 418.493 56.0862 415.945 54.624C413.396 53.12 411.391 51.0311 409.928 48.3573C408.508 45.6418 407.798 42.5084 407.798 38.9573Z" fill="#11243E"/>
<path d="M478.735 38.1427C478.735 39.4378 478.651 40.6076 478.484 41.652H452.101C452.31 44.4093 453.334 46.6236 455.172 48.2947C457.01 49.9658 459.266 50.8013 461.94 50.8013C465.784 50.8013 468.499 49.1929 470.087 45.976H477.795C476.75 49.1511 474.849 51.7622 472.092 53.8093C469.376 55.8147 465.992 56.8173 461.94 56.8173C458.64 56.8173 455.673 56.0862 453.041 54.624C450.451 53.12 448.404 51.0311 446.9 48.3573C445.438 45.6418 444.707 42.5084 444.707 38.9573C444.707 35.4062 445.417 32.2938 446.837 29.62C448.3 26.9044 450.326 24.8156 452.916 23.3533C455.548 21.8911 458.556 21.16 461.94 21.16C465.199 21.16 468.102 21.8702 470.651 23.2907C473.199 24.7111 475.184 26.7164 476.604 29.3067C478.024 31.8551 478.735 34.8004 478.735 38.1427ZM471.277 35.8867C471.236 33.2547 470.296 31.1449 468.457 29.5573C466.619 27.9698 464.342 27.176 461.627 27.176C459.162 27.176 457.052 27.9698 455.297 29.5573C453.543 31.1031 452.498 33.2129 452.164 35.8867H471.277Z" fill="#11243E"/>
<path d="M80 21.0533V56.2533H87.5283V28.5333H97.7137C103.339 28.5333 107.899 33.0642 107.899 38.6533V56.2533H115.427V38.6533C115.427 28.9331 107.497 21.0533 97.7137 21.0533H80Z" stroke="#11243E" stroke-width="0.333333"/>
<path fill-rule="evenodd" clip-rule="evenodd" d="M146.177 35.7608C145.455 31.1811 142.646 27.8067 137.028 27.8067C131.81 27.8067 128.199 30.6975 127.237 35.7608H146.177ZM137.911 49.4221C142.325 49.4221 145.535 47.6541 147.462 45.806L152.197 50.7879C149.066 53.9228 144.734 56.2533 137.992 56.2533C126.434 56.2533 118.97 48.7805 118.97 38.6551C118.97 28.6087 126.836 21.0533 136.946 21.0533C148.423 21.0533 154.924 29.5723 154.364 41.3867H127.237C128.199 46.2895 131.73 49.4221 137.911 49.4221Z" stroke="#11243E" stroke-width="0.333333"/>
<path fill-rule="evenodd" clip-rule="evenodd" d="M185.148 35.7608C184.426 31.1811 181.616 27.8067 175.998 27.8067C170.78 27.8067 167.169 30.6975 166.207 35.7608H185.148ZM176.881 49.4221C181.295 49.4221 184.505 47.6541 186.432 45.806L191.167 50.7879C188.036 53.9228 183.704 56.2533 176.962 56.2533C165.404 56.2533 157.94 48.7805 157.94 38.6551C157.94 28.6087 165.807 21.0533 175.916 21.0533C187.393 21.0533 193.894 29.5723 193.334 41.3867H166.207C167.169 46.2895 170.7 49.4221 176.881 49.4221Z" stroke="#11243E" stroke-width="0.333333"/>
<path fill-rule="evenodd" clip-rule="evenodd" d="M196.91 21.3568H202.851V12.2533H210.4V21.3568H217.809V28.1805H210.4V42.0076C210.4 48.2625 211.378 49.2342 217.809 49.2342V56.2533H216.691C206.066 56.2533 202.851 52.9172 202.851 42.078V28.1805H196.91V21.3568Z" stroke="#11243E" stroke-width="0.333333"/>
<path fill-rule="evenodd" clip-rule="evenodd" d="M249.544 38.6539C249.544 32.6965 244.9 27.8227 239.031 27.8227C233.16 27.8227 228.587 32.6965 228.587 38.6539C228.587 44.6102 233.16 49.484 239.031 49.484C244.9 49.484 249.544 44.6102 249.544 38.6539ZM221.351 38.6539C221.351 28.7705 229.201 21.0533 239.031 21.0533C248.861 21.0533 256.779 28.7705 256.779 38.6539C256.779 48.4688 248.861 56.2533 239.031 56.2533C229.201 56.2533 221.351 48.4688 221.351 38.6539Z" stroke="#11243E" stroke-width="0.333333"/>
<path d="M270.844 12.7V56.2533H263.7V12.7H270.844Z" stroke="#11243E" stroke-width="0.333333"/>
<path d="M296.978 21.16C299.694 21.16 302.117 21.724 304.247 22.852C306.42 23.98 308.112 25.6511 309.323 27.8653C310.535 30.0796 311.141 32.7533 311.141 35.8867V56.2533H304.059V36.952C304.059 33.8604 303.287 31.5 301.741 29.8707C300.195 28.1996 298.085 27.364 295.411 27.364C292.738 27.364 290.607 28.1996 289.019 29.8707C287.474 31.5 286.701 33.8604 286.701 36.952V56.2533H279.557V21.724H286.701V25.672C287.871 24.2516 289.354 23.1444 291.15 22.3507C292.988 21.5569 294.931 21.16 296.978 21.16Z" stroke="#11243E" stroke-width="0.333333"/>
<path d="M332.935 49.8613L342.711 21.724H350.293L337.133 56.2533H328.611L315.513 21.724H323.159L332.935 49.8613Z" stroke="#11243E" stroke-width="0.333333"/>
<path d="M370.004 56.8173C366.745 56.8173 363.8 56.0862 361.168 54.624C358.536 53.12 356.468 51.0311 354.964 48.3573C353.46 45.6418 352.708 42.5084 352.708 38.9573C352.708 35.448 353.481 32.3356 355.027 29.62C356.573 26.9044 358.682 24.8156 361.356 23.3533C364.03 21.8911 367.017 21.16 370.318 21.16C373.618 21.16 376.605 21.8911 379.279 23.3533C381.953 24.8156 384.062 26.9044 385.608 29.62C387.154 32.3356 387.927 35.448 387.927 38.9573C387.927 42.4667 387.133 45.5791 385.546 48.2947C383.958 51.0102 381.785 53.12 379.028 54.624C376.313 56.0862 373.305 56.8173 370.004 56.8173ZM370.004 50.6133C371.842 50.6133 373.555 50.1747 375.143 49.2973C376.772 48.42 378.088 47.104 379.091 45.3493C380.093 43.5947 380.595 41.464 380.595 38.9573C380.595 36.4507 380.114 34.3409 379.154 32.628C378.193 30.8733 376.918 29.5573 375.331 28.68C373.743 27.8027 372.03 27.364 370.192 27.364C368.354 27.364 366.641 27.8027 365.053 28.68C363.508 29.5573 362.275 30.8733 361.356 32.628C360.437 34.3409 359.978 36.4507 359.978 38.9573C359.978 42.6756 360.917 45.5582 362.797 47.6053C364.719 49.6107 367.121 50.6133 370.004 50.6133Z" stroke="#11243E" stroke-width="0.333333"/>
<path d="M397.957 17.1493C396.662 17.1493 395.576 16.7107 394.698 15.8333C393.821 14.956 393.382 13.8698 393.382 12.5747C393.382 11.2796 393.821 10.1933 394.698 9.316C395.576 8.43867 396.662 8 397.957 8C399.21 8 400.276 8.43867 401.153 9.316C402.03 10.1933 402.469 11.2796 402.469 12.5747C402.469 13.8698 402.03 14.956 401.153 15.8333C400.276 16.7107 399.21 17.1493 397.957 17.1493ZM401.466 21.724V56.2533H394.322V21.724H401.466Z" stroke="#11243E" stroke-width="0.333333"/>
<path d="M407.798 38.9573C407.798 35.4062 408.508 32.2938 409.928 29.62C411.391 26.9044 413.396 24.8156 415.945 23.3533C418.493 21.8911 421.417 21.16 424.718 21.16C428.896 21.16 432.342 22.1627 435.058 24.168C437.815 26.1316 439.674 28.9516 440.635 32.628H432.927C432.301 30.9151 431.298 29.5782 429.919 28.6173C428.54 27.6564 426.807 27.176 424.718 27.176C421.793 27.176 419.454 28.2204 417.699 30.3093C415.986 32.3564 415.13 35.2391 415.13 38.9573C415.13 42.6756 415.986 45.5791 417.699 47.668C419.454 49.7569 421.793 50.8013 424.718 50.8013C428.854 50.8013 431.59 48.984 432.927 45.3493H440.635C439.633 48.8587 437.753 51.6578 434.995 53.7467C432.238 55.7938 428.812 56.8173 424.718 56.8173C421.417 56.8173 418.493 56.0862 415.945 54.624C413.396 53.12 411.391 51.0311 409.928 48.3573C408.508 45.6418 407.798 42.5084 407.798 38.9573Z" stroke="#11243E" stroke-width="0.333333"/>
<path d="M478.735 38.1427C478.735 39.4378 478.651 40.6076 478.484 41.652H452.101C452.31 44.4093 453.334 46.6236 455.172 48.2947C457.01 49.9658 459.266 50.8013 461.94 50.8013C465.784 50.8013 468.499 49.1929 470.087 45.976H477.795C476.75 49.1511 474.849 51.7622 472.092 53.8093C469.376 55.8147 465.992 56.8173 461.94 56.8173C458.64 56.8173 455.673 56.0862 453.041 54.624C450.451 53.12 448.404 51.0311 446.9 48.3573C445.438 45.6418 444.707 42.5084 444.707 38.9573C444.707 35.4062 445.417 32.2938 446.837 29.62C448.3 26.9044 450.326 24.8156 452.916 23.3533C455.548 21.8911 458.556 21.16 461.94 21.16C465.199 21.16 468.102 21.8702 470.651 23.2907C473.199 24.7111 475.184 26.7164 476.604 29.3067C478.024 31.8551 478.735 34.8004 478.735 38.1427ZM471.277 35.8867C471.236 33.2547 470.296 31.1449 468.457 29.5573C466.619 27.9698 464.342 27.176 461.627 27.176C459.162 27.176 457.052 27.9698 455.297 29.5573C453.543 31.1031 452.498 33.2129 452.164 35.8867H471.277Z" stroke="#11243E" stroke-width="0.333333"/>
<defs>
<linearGradient id="paint0_linear_3239_10776" x1="32.2939" y1="89.9428" x2="32.2939" y2="-1.51121" gradientUnits="userSpaceOnUse">
<stop stop-color="#46A0D3"/>
<stop offset="1" stop-color="#72DAE0"/>
</linearGradient>
</defs>
</svg>
