<svg xmlns="http://www.w3.org/2000/svg" width="578" height="144" fill="none" viewBox="0 0 578 144"><g clip-path="url(#clip0_318_35714)" data-logo-icon="neeto-typeface-logo__icon"><path fill="#5BCC5A" d="M124.181 136.125L18.5626 136.125L18.5626 110.115C18.5626 80.949 42.206 57.3055 71.3716 57.3056C100.537 57.3056 124.181 80.949 124.181 110.115V136.125Z"/><path fill="#75DC66" d="M18.5625 8.4375H124.181V34.4479C124.181 63.6135 100.537 87.2569 71.3715 87.2569C42.2059 87.2569 18.5625 63.6135 18.5625 34.4479V8.4375Z"/><path fill="#0DA84C" d="M108.215 72.2812C98.7003 81.5484 85.7026 87.2569 71.3715 87.2569C57.0405 87.2569 44.0427 81.5484 34.5281 72.2813C44.0427 63.014 57.0406 57.3056 71.3716 57.3056C85.7026 57.3056 98.7003 63.014 108.215 72.2812Z"/></g><g data-logo-text="neeto-typeface-logo__text"><path fill="#000" d="M188.35 54.9491V135.437H172.207V54.9491H188.35Z" data-dark-mode-color="true"/><path fill="#000" d="M237.395 70.6316C245.006 70.6316 251.156 73.0532 255.845 77.8963C260.534 82.6625 262.879 89.3507 262.879 97.9607V135.437H246.735V100.152C246.735 95.0779 245.467 91.1957 242.93 88.505C240.393 85.7375 236.934 84.3538 232.552 84.3538C228.093 84.3538 224.557 85.7375 221.943 88.505C219.406 91.1957 218.138 95.0779 218.138 100.152V135.437H201.994V71.5541H218.138V79.5107C220.29 76.7432 223.019 74.5907 226.325 73.0532C229.708 71.4388 233.398 70.6316 237.395 70.6316Z" data-dark-mode-color="true"/><path fill="#000" d="M302.562 120.562L318.706 71.5541H335.887L312.248 135.437H292.645L269.121 71.5541H286.418L302.562 120.562Z" data-dark-mode-color="true"/><path fill="#000" d="M371.015 136.475C364.865 136.475 359.33 135.13 354.41 132.439C349.49 129.672 345.608 125.789 342.764 120.793C339.996 115.796 338.612 110.03 338.612 103.496C338.612 96.9613 340.035 91.1957 342.879 86.1988C345.8 81.2019 349.759 77.3582 354.756 74.6675C359.753 71.9 365.326 70.5163 371.476 70.5163C377.626 70.5163 383.2 71.9 388.197 74.6675C393.194 77.3582 397.114 81.2019 399.959 86.1988C402.88 91.1957 404.341 96.9613 404.341 103.496C404.341 110.03 402.841 115.796 399.843 120.793C396.922 125.789 392.925 129.672 387.851 132.439C382.854 135.13 377.242 136.475 371.015 136.475ZM371.015 122.407C373.936 122.407 376.666 121.715 379.202 120.331C381.816 118.871 383.892 116.718 385.429 113.874C386.967 111.029 387.736 107.57 387.736 103.496C387.736 97.4225 386.121 92.7716 382.892 89.5429C379.741 86.2372 375.858 84.5844 371.246 84.5844C366.633 84.5844 362.751 86.2372 359.599 89.5429C356.524 92.7716 354.987 97.4225 354.987 103.496C354.987 109.569 356.486 114.258 359.484 117.564C362.559 120.793 366.403 122.407 371.015 122.407Z" data-dark-mode-color="true"/><path fill="#000" d="M422.063 63.9435C419.219 63.9435 416.836 63.0594 414.914 61.2913C413.069 59.4463 412.147 57.1785 412.147 54.4879C412.147 51.7972 413.069 49.5679 414.914 47.7997C416.836 45.9547 419.219 45.0322 422.063 45.0322C424.908 45.0322 427.253 45.9547 429.098 47.7997C431.019 49.5679 431.98 51.7972 431.98 54.4879C431.98 57.1785 431.019 59.4463 429.098 61.2913C427.253 63.0594 424.908 63.9435 422.063 63.9435ZM430.02 71.5541V135.437H413.876V71.5541H430.02Z" data-dark-mode-color="true"/><path fill="#000" d="M439.513 103.496C439.513 96.8844 440.858 91.1188 443.549 86.1988C446.239 81.2019 449.968 77.3582 454.734 74.6675C459.5 71.9 464.958 70.5163 471.108 70.5163C479.026 70.5163 485.561 72.515 490.711 76.5125C495.939 80.4332 499.437 85.9682 501.205 93.1175H483.793C482.87 90.35 481.294 88.1975 479.065 86.66C476.912 85.0457 474.222 84.2385 470.993 84.2385C466.38 84.2385 462.729 85.9297 460.038 89.3122C457.348 92.6179 456.002 97.3457 456.002 103.496C456.002 109.569 457.348 114.297 460.038 117.679C462.729 120.985 466.38 122.638 470.993 122.638C477.527 122.638 481.794 119.716 483.793 113.874H501.205C499.437 120.793 495.939 126.289 490.711 130.363C485.484 134.438 478.949 136.475 471.108 136.475C464.958 136.475 459.5 135.13 454.734 132.439C449.968 129.672 446.239 125.828 443.549 120.908C440.858 115.911 439.513 110.107 439.513 103.496Z" data-dark-mode-color="true"/><path fill="#000" d="M570.111 102.112C570.111 104.418 569.957 106.494 569.65 108.339H522.948C523.333 112.951 524.947 116.564 527.792 119.178C530.636 121.792 534.134 123.099 538.285 123.099C544.281 123.099 548.548 120.523 551.085 115.373H568.497C566.652 121.523 563.116 126.597 557.888 130.594C552.661 134.515 546.242 136.475 538.631 136.475C532.481 136.475 526.946 135.13 522.026 132.439C517.183 129.672 513.377 125.789 510.61 120.793C507.919 115.796 506.574 110.03 506.574 103.496C506.574 96.8844 507.919 91.0804 510.61 86.0835C513.301 81.0866 517.067 77.2429 521.911 74.5522C526.754 71.8616 532.327 70.5163 538.631 70.5163C544.704 70.5163 550.124 71.8232 554.89 74.4369C559.733 77.0507 563.462 80.7791 566.075 85.6222C568.766 90.3885 570.111 95.885 570.111 102.112ZM553.391 97.4994C553.314 93.3482 551.815 90.0425 548.894 87.5825C545.973 85.0457 542.398 83.7772 538.17 83.7772C534.172 83.7772 530.79 85.0072 528.022 87.4672C525.332 89.8504 523.679 93.1944 523.064 97.4994H553.391Z" data-dark-mode-color="true"/><path fill="#000" d="M228.622 25.5097C228.622 26.3731 228.564 27.1502 228.449 27.841H210.978C211.122 29.5679 211.726 30.9206 212.79 31.8992C213.854 32.8777 215.163 33.367 216.716 33.367C218.959 33.367 220.555 32.4028 221.504 30.4745H228.018C227.327 32.777 226.005 34.6766 224.049 36.1732C222.094 37.6411 219.692 38.375 216.845 38.375C214.544 38.375 212.474 37.8713 210.633 36.864C208.822 35.8278 207.398 34.3744 206.363 32.5036C205.356 30.6328 204.853 28.4742 204.853 26.0278C204.853 23.5525 205.356 21.3795 206.363 19.5087C207.369 17.638 208.778 16.1989 210.59 15.1915C212.402 14.1842 214.487 13.6805 216.845 13.6805C219.117 13.6805 221.144 14.1698 222.927 15.1484C224.739 16.1269 226.134 17.5228 227.112 19.3361C228.118 21.1205 228.622 23.1784 228.622 25.5097ZM222.367 23.7828C222.338 22.2286 221.777 20.991 220.684 20.07C219.592 19.1202 218.254 18.6453 216.673 18.6453C215.177 18.6453 213.912 19.1058 212.877 20.0268C211.87 20.919 211.252 22.171 211.022 23.7828H222.367Z" data-dark-mode-color="true"/><path fill="#000" d="M255.245 25.5097C255.245 26.3731 255.188 27.1502 255.073 27.841H237.602C237.746 29.5679 238.35 30.9206 239.414 31.8992C240.478 32.8777 241.787 33.367 243.34 33.367C245.583 33.367 247.179 32.4028 248.128 30.4745H254.641C253.951 32.777 252.628 34.6766 250.673 36.1732C248.717 37.6411 246.316 38.375 243.469 38.375C241.168 38.375 239.098 37.8713 237.257 36.864C235.445 35.8278 234.022 34.3744 232.987 32.5036C231.98 30.6328 231.477 28.4742 231.477 26.0278C231.477 23.5525 231.98 21.3795 232.987 19.5087C233.993 17.638 235.402 16.1989 237.214 15.1915C239.026 14.1842 241.111 13.6805 243.469 13.6805C245.741 13.6805 247.768 14.1698 249.551 15.1484C251.363 16.1269 252.758 17.5228 253.736 19.3361C254.742 21.1205 255.245 23.1784 255.245 25.5097ZM248.99 23.7828C248.962 22.2286 248.401 20.991 247.308 20.07C246.215 19.1202 244.878 18.6453 243.296 18.6453C241.801 18.6453 240.536 19.1058 239.5 20.0268C238.494 20.919 237.875 22.171 237.645 23.7828H248.99Z" data-dark-mode-color="true"/><path fill="#000" d="M266.785 18.9874V30.6615C266.785 31.4674 266.997 31.9999 267.371 32.374C267.774 32.7194 268.435 32.8921 269.356 32.8921H272.16V37.9864H268.364C263.273 37.9864 260.838 35.383 260.838 30.4326V18.9874H257.636V13.9515H260.838V8H266.785V13.9515H272.16V18.9874H266.785Z" data-dark-mode-color="true"/><path fill="#000" d="M286.989 38.375C284.689 38.375 282.618 37.8713 280.778 36.864C278.937 35.8278 277.485 34.3744 276.421 32.5036C275.385 30.6328 274.868 28.4742 274.868 26.0278C274.868 23.5813 275.4 21.4227 276.464 19.5519C277.557 17.6811 279.038 16.2421 280.907 15.2347C282.776 14.1986 284.861 13.6805 287.162 13.6805C289.463 13.6805 291.548 14.1986 293.417 15.2347C295.286 16.2421 296.753 17.6811 297.817 19.5519C298.91 21.4227 299.456 23.5813 299.456 26.0278C299.456 28.4742 298.895 30.6328 297.774 32.5036C296.681 34.3744 295.185 35.8278 293.287 36.864C291.418 37.8713 289.319 38.375 286.989 38.375ZM286.989 33.108C288.082 33.108 289.103 32.849 290.052 32.3309C291.03 31.784 291.806 30.9782 292.382 29.9132C292.957 28.8483 293.244 27.5532 293.244 26.0278C293.244 23.754 292.64 22.0127 291.432 20.8039C290.253 19.5663 288.801 18.9475 287.076 18.9475C285.35 18.9475 283.898 19.5663 282.719 20.8039C281.568 22.0127 280.993 23.754 280.993 26.0278C280.993 28.3015 281.554 30.0572 282.676 31.2948C283.826 32.5036 285.264 33.108 286.989 33.108Z" data-dark-mode-color="true"/><path fill="#000" d="M199.752 8H188.159L199.752 25.3903V8Z" data-dark-mode-color="true"/><path fill="#000" d="M171 38.375L171 8H179.372L199.752 38.375H191.136L177.724 18.666V38.375H171Z" data-dark-mode-color="true"/></g><defs><clipPath id="clip0_318_35714"><rect width="128.25" height="128.25" fill="#fff" transform="translate(7.3125 7.875)"/></clipPath></defs></svg>