<svg xmlns="http://www.w3.org/2000/svg" width="399" height="74" fill="none" viewBox="0 0 399 74"><path fill="url(#paint0_linear_3240_12735)" d="M56 32C56 18.7452 45.2548 8 32 8H8V56H56V32Z"/><g filter="url(#filter0_d_3240_12735)"><path fill="#fff" d="M34.7771 39.8562L35.0783 39.854C36.4391 39.854 37.1539 40.4181 38.0358 41.7545L38.4749 42.4328C38.8173 42.9397 39.031 43.152 39.3001 43.2629C39.7827 43.4618 40.1826 43.364 41.6512 42.6568L42.1009 42.4379C43.0195 41.987 43.6462 41.7288 44.3544 41.5518C44.8026 41.4397 45.2567 41.7122 45.3687 42.1603C45.4807 42.6085 45.2083 43.0626 44.7601 43.1746C44.3199 43.2846 43.8982 43.4425 43.3464 43.6968L42.0543 44.3184C40.3058 45.1441 39.7129 45.2423 38.6627 44.8095C37.9656 44.5222 37.5693 44.1065 36.9892 43.2197L36.7721 42.8807C36.1009 41.823 35.7631 41.5268 35.0783 41.5268L34.9013 41.531C34.4183 41.5602 34.1056 41.7816 32.022 43.3278C30.0791 44.7697 28.5973 45.4583 26.713 45.4583C24.4159 45.4583 22.2513 45.0363 20.2259 44.1927L23.4401 43.4496C24.4928 43.6736 25.5834 43.7856 26.713 43.7856C28.1523 43.7856 29.3454 43.2311 31.0251 41.9845L32.3188 41.03C33.7366 39.9996 34.0519 39.8719 34.7771 39.8562ZM41.7996 20.0286C43.666 21.895 43.666 24.921 41.7997 26.7874L40.6449 27.9423C41.9295 29.5052 41.8833 31.1617 40.6889 32.3596L37.3422 35.7063C37.0154 36.0327 36.4859 36.0325 36.1594 35.7057C35.8329 35.3789 35.8332 34.8493 36.16 34.5229L39.5043 31.1785C40.0453 30.636 40.1078 29.9625 39.4598 29.1282L27.6452 40.9426C27.3127 41.2751 26.8934 41.5075 26.4351 41.6133L19.654 43.1781C19.0517 43.3171 18.512 42.7774 18.651 42.1751L20.2159 35.3939C20.3216 34.9357 20.554 34.5165 20.8865 34.1839L35.041 20.0287C36.9073 18.1623 39.9332 18.1623 41.7996 20.0286Z"/></g><path fill="#11243E" d="M80 20.0533V55.2533H87.5283V27.5333H97.7137C103.339 27.5333 107.899 32.0642 107.899 37.6533V55.2533H115.427V37.6533C115.427 27.9331 107.497 20.0533 97.7137 20.0533H80Z"/><path fill="#11243E" fill-rule="evenodd" d="M146.177 34.7608C145.455 30.1811 142.646 26.8067 137.028 26.8067C131.81 26.8067 128.199 29.6975 127.237 34.7608H146.177ZM137.911 48.4221C142.325 48.4221 145.535 46.6541 147.462 44.806L152.197 49.7879C149.066 52.9228 144.734 55.2533 137.992 55.2533C126.434 55.2533 118.97 47.7805 118.97 37.6551C118.97 27.6087 126.836 20.0533 136.946 20.0533C148.423 20.0533 154.924 28.5723 154.364 40.3867H127.237C128.199 45.2895 131.73 48.4221 137.911 48.4221Z" clip-rule="evenodd"/><path fill="#11243E" fill-rule="evenodd" d="M185.148 34.7608C184.426 30.1811 181.616 26.8067 175.998 26.8067C170.78 26.8067 167.169 29.6975 166.207 34.7608H185.148ZM176.881 48.4221C181.295 48.4221 184.505 46.6541 186.432 44.806L191.167 49.7879C188.036 52.9228 183.704 55.2533 176.962 55.2533C165.404 55.2533 157.94 47.7805 157.94 37.6551C157.94 27.6087 165.807 20.0533 175.916 20.0533C187.393 20.0533 193.894 28.5723 193.334 40.3867H166.207C167.169 45.2895 170.7 48.4221 176.881 48.4221Z" clip-rule="evenodd"/><path fill="#11243E" fill-rule="evenodd" d="M196.91 20.3568H202.851V11.2533H210.4V20.3568H217.809V27.1805H210.4V41.0076C210.4 47.2625 211.378 48.2342 217.809 48.2342V55.2533H216.691C206.066 55.2533 202.851 51.9172 202.851 41.078V27.1805H196.91V20.3568Z" clip-rule="evenodd"/><path fill="#11243E" fill-rule="evenodd" d="M249.544 37.6539C249.544 31.6965 244.9 26.8227 239.031 26.8227C233.16 26.8227 228.587 31.6965 228.587 37.6539C228.587 43.6102 233.16 48.484 239.031 48.484C244.9 48.484 249.544 43.6102 249.544 37.6539ZM221.351 37.6539C221.351 27.7705 229.201 20.0533 239.031 20.0533C248.861 20.0533 256.779 27.7705 256.779 37.6539C256.779 47.4688 248.861 55.2533 239.031 55.2533C229.201 55.2533 221.351 47.4688 221.351 37.6539Z" clip-rule="evenodd"/><path fill="#11243E" d="M278.051 56.692C275.126 56.692 272.494 56.1907 270.155 55.188C267.815 54.1436 265.977 52.6813 264.64 50.8013C263.303 48.9213 262.635 46.728 262.635 44.2213H270.28C270.447 46.1013 271.178 47.6471 272.473 48.8587C273.81 50.0702 275.669 50.676 278.051 50.676C280.516 50.676 282.437 50.0911 283.816 48.9213C285.195 47.7098 285.884 46.164 285.884 44.284C285.884 42.8218 285.445 41.6311 284.568 40.712C283.732 39.7929 282.667 39.0827 281.372 38.5813C280.119 38.08 278.364 37.5369 276.108 36.952C273.267 36.2 270.948 35.448 269.152 34.696C267.397 33.9022 265.893 32.6907 264.64 31.0613C263.387 29.432 262.76 27.2596 262.76 24.544C262.76 22.0373 263.387 19.844 264.64 17.964C265.893 16.084 267.648 14.6427 269.904 13.64C272.16 12.6373 274.771 12.136 277.737 12.136C281.957 12.136 285.404 13.2013 288.077 15.332C290.793 17.4209 292.297 20.3036 292.589 23.98H284.693C284.568 22.3924 283.816 21.0347 282.437 19.9067C281.059 18.7787 279.241 18.2147 276.985 18.2147C274.938 18.2147 273.267 18.7369 271.972 19.7813C270.677 20.8258 270.029 22.3298 270.029 24.2933C270.029 25.6302 270.426 26.7373 271.22 27.6147C272.056 28.4502 273.1 29.1187 274.353 29.62C275.607 30.1213 277.32 30.6644 279.492 31.2493C282.375 32.0431 284.714 32.8369 286.511 33.6307C288.349 34.4244 289.895 35.6569 291.148 37.328C292.443 38.9573 293.091 41.1507 293.091 43.908C293.091 46.1222 292.485 48.2111 291.273 50.1747C290.104 52.1382 288.37 53.7258 286.072 54.9373C283.816 56.1071 281.142 56.692 278.051 56.692Z"/><path fill="#11243E" d="M304.488 17.1493C303.193 17.1493 302.107 16.7107 301.23 15.8333C300.352 14.956 299.914 13.8698 299.914 12.5747C299.914 11.2796 300.352 10.1933 301.23 9.316C302.107 8.43867 303.193 8 304.488 8C305.742 8 306.807 8.43867 307.684 9.316C308.562 10.1933 309 11.2796 309 12.5747C309 13.8698 308.562 14.956 307.684 15.8333C306.807 16.7107 305.742 17.1493 304.488 17.1493ZM307.998 21.724V56.2533H300.854V21.724H307.998Z"/><path fill="#11243E" d="M330.622 21.16C333.296 21.16 335.657 21.7031 337.704 22.7893C339.793 23.8338 341.422 25.1498 342.592 26.7373V21.724H349.798V56.8173C349.798 59.9924 349.13 62.8124 347.793 65.2773C346.456 67.784 344.514 69.7476 341.965 71.168C339.458 72.5884 336.45 73.2987 332.941 73.2987C328.262 73.2987 324.377 72.1916 321.285 69.9773C318.194 67.8049 316.439 64.8387 316.021 61.0787H323.102C323.646 62.8751 324.794 64.3164 326.549 65.4027C328.346 66.5307 330.476 67.0947 332.941 67.0947C335.824 67.0947 338.142 66.2173 339.897 64.4627C341.694 62.708 342.592 60.1596 342.592 56.8173V51.052C341.38 52.6813 339.73 54.06 337.641 55.188C335.594 56.2742 333.254 56.8173 330.622 56.8173C327.614 56.8173 324.857 56.0653 322.35 54.5613C319.886 53.0156 317.922 50.8849 316.46 48.1693C315.039 45.412 314.329 42.2996 314.329 38.832C314.329 35.3644 315.039 32.2938 316.46 29.62C317.922 26.9462 319.886 24.8782 322.35 23.416C324.857 21.912 327.614 21.16 330.622 21.16ZM342.592 38.9573C342.592 36.576 342.09 34.508 341.088 32.7533C340.127 30.9987 338.853 29.6618 337.265 28.7427C335.678 27.8236 333.965 27.364 332.126 27.364C330.288 27.364 328.575 27.8236 326.988 28.7427C325.4 29.62 324.105 30.936 323.102 32.6907C322.142 34.4036 321.661 36.4507 321.661 38.832C321.661 41.2133 322.142 43.3022 323.102 45.0987C324.105 46.8951 325.4 48.2738 326.988 49.2347C328.617 50.1538 330.33 50.6133 332.126 50.6133C333.965 50.6133 335.678 50.1538 337.265 49.2347C338.853 48.3156 340.127 46.9787 341.088 45.224C342.09 43.4276 342.592 41.3387 342.592 38.9573Z"/><path fill="#11243E" d="M375.936 21.16C378.652 21.16 381.075 21.724 383.206 22.852C385.378 23.98 387.07 25.6511 388.282 27.8653C389.493 30.0796 390.099 32.7533 390.099 35.8867V56.2533H383.018V36.952C383.018 33.8604 382.245 31.5 380.699 29.8707C379.153 28.1996 377.044 27.364 374.37 27.364C371.696 27.364 369.565 28.1996 367.978 29.8707C366.432 31.5 365.659 33.8604 365.659 36.952V56.2533H358.515V21.724H365.659V25.672C366.829 24.2516 368.312 23.1444 370.108 22.3507C371.947 21.5569 373.889 21.16 375.936 21.16Z"/><path stroke="#11243E" stroke-width=".333" d="M80 20.0533V55.2533H87.5283V27.5333H97.7137C103.339 27.5333 107.899 32.0642 107.899 37.6533V55.2533H115.427V37.6533C115.427 27.9331 107.497 20.0533 97.7137 20.0533H80Z"/><path fill-rule="evenodd" stroke="#11243E" stroke-width=".333" d="M146.177 34.7608C145.455 30.1811 142.646 26.8067 137.028 26.8067C131.81 26.8067 128.199 29.6975 127.237 34.7608H146.177ZM137.911 48.4221C142.325 48.4221 145.535 46.6541 147.462 44.806L152.197 49.7879C149.066 52.9228 144.734 55.2533 137.992 55.2533C126.434 55.2533 118.97 47.7805 118.97 37.6551C118.97 27.6087 126.836 20.0533 136.946 20.0533C148.423 20.0533 154.924 28.5723 154.364 40.3867H127.237C128.199 45.2895 131.73 48.4221 137.911 48.4221Z" clip-rule="evenodd"/><path fill-rule="evenodd" stroke="#11243E" stroke-width=".333" d="M185.148 34.7608C184.426 30.1811 181.616 26.8067 175.998 26.8067C170.78 26.8067 167.169 29.6975 166.207 34.7608H185.148ZM176.881 48.4221C181.295 48.4221 184.505 46.6541 186.432 44.806L191.167 49.7879C188.036 52.9228 183.704 55.2533 176.962 55.2533C165.404 55.2533 157.94 47.7805 157.94 37.6551C157.94 27.6087 165.807 20.0533 175.916 20.0533C187.393 20.0533 193.894 28.5723 193.334 40.3867H166.207C167.169 45.2895 170.7 48.4221 176.881 48.4221Z" clip-rule="evenodd"/><path fill-rule="evenodd" stroke="#11243E" stroke-width=".333" d="M196.91 20.3568H202.851V11.2533H210.4V20.3568H217.809V27.1805H210.4V41.0076C210.4 47.2625 211.378 48.2342 217.809 48.2342V55.2533H216.691C206.066 55.2533 202.851 51.9172 202.851 41.078V27.1805H196.91V20.3568Z" clip-rule="evenodd"/><path fill-rule="evenodd" stroke="#11243E" stroke-width=".333" d="M249.544 37.6539C249.544 31.6965 244.9 26.8227 239.031 26.8227C233.16 26.8227 228.587 31.6965 228.587 37.6539C228.587 43.6102 233.16 48.484 239.031 48.484C244.9 48.484 249.544 43.6102 249.544 37.6539ZM221.351 37.6539C221.351 27.7705 229.201 20.0533 239.031 20.0533C248.861 20.0533 256.779 27.7705 256.779 37.6539C256.779 47.4688 248.861 55.2533 239.031 55.2533C229.201 55.2533 221.351 47.4688 221.351 37.6539Z" clip-rule="evenodd"/><path stroke="#11243E" stroke-width=".333" d="M278.051 56.692C275.126 56.692 272.494 56.1907 270.155 55.188C267.815 54.1436 265.977 52.6813 264.64 50.8013C263.303 48.9213 262.635 46.728 262.635 44.2213H270.28C270.447 46.1013 271.178 47.6471 272.473 48.8587C273.81 50.0702 275.669 50.676 278.051 50.676C280.516 50.676 282.437 50.0911 283.816 48.9213C285.195 47.7098 285.884 46.164 285.884 44.284C285.884 42.8218 285.445 41.6311 284.568 40.712C283.732 39.7929 282.667 39.0827 281.372 38.5813C280.119 38.08 278.364 37.5369 276.108 36.952C273.267 36.2 270.948 35.448 269.152 34.696C267.397 33.9022 265.893 32.6907 264.64 31.0613C263.387 29.432 262.76 27.2596 262.76 24.544C262.76 22.0373 263.387 19.844 264.64 17.964C265.893 16.084 267.648 14.6427 269.904 13.64C272.16 12.6373 274.771 12.136 277.737 12.136C281.957 12.136 285.404 13.2013 288.077 15.332C290.793 17.4209 292.297 20.3036 292.589 23.98H284.693C284.568 22.3924 283.816 21.0347 282.437 19.9067C281.059 18.7787 279.241 18.2147 276.985 18.2147C274.938 18.2147 273.267 18.7369 271.972 19.7813C270.677 20.8258 270.029 22.3298 270.029 24.2933C270.029 25.6302 270.426 26.7373 271.22 27.6147C272.056 28.4502 273.1 29.1187 274.353 29.62C275.607 30.1213 277.32 30.6644 279.492 31.2493C282.375 32.0431 284.714 32.8369 286.511 33.6307C288.349 34.4244 289.895 35.6569 291.148 37.328C292.443 38.9573 293.091 41.1507 293.091 43.908C293.091 46.1222 292.485 48.2111 291.273 50.1747C290.104 52.1382 288.37 53.7258 286.072 54.9373C283.816 56.1071 281.142 56.692 278.051 56.692Z"/><path stroke="#11243E" stroke-width=".333" d="M304.488 17.1493C303.193 17.1493 302.107 16.7107 301.23 15.8333C300.352 14.956 299.914 13.8698 299.914 12.5747C299.914 11.2796 300.352 10.1933 301.23 9.316C302.107 8.43867 303.193 8 304.488 8C305.742 8 306.807 8.43867 307.684 9.316C308.562 10.1933 309 11.2796 309 12.5747C309 13.8698 308.562 14.956 307.684 15.8333C306.807 16.7107 305.742 17.1493 304.488 17.1493ZM307.998 21.724V56.2533H300.854V21.724H307.998Z"/><path stroke="#11243E" stroke-width=".333" d="M330.622 21.16C333.296 21.16 335.657 21.7031 337.704 22.7893C339.793 23.8338 341.422 25.1498 342.592 26.7373V21.724H349.798V56.8173C349.798 59.9924 349.13 62.8124 347.793 65.2773C346.456 67.784 344.514 69.7476 341.965 71.168C339.458 72.5884 336.45 73.2987 332.941 73.2987C328.262 73.2987 324.377 72.1916 321.285 69.9773C318.194 67.8049 316.439 64.8387 316.021 61.0787H323.102C323.646 62.8751 324.794 64.3164 326.549 65.4027C328.346 66.5307 330.476 67.0947 332.941 67.0947C335.824 67.0947 338.142 66.2173 339.897 64.4627C341.694 62.708 342.592 60.1596 342.592 56.8173V51.052C341.38 52.6813 339.73 54.06 337.641 55.188C335.594 56.2742 333.254 56.8173 330.622 56.8173C327.614 56.8173 324.857 56.0653 322.35 54.5613C319.886 53.0156 317.922 50.8849 316.46 48.1693C315.039 45.412 314.329 42.2996 314.329 38.832C314.329 35.3644 315.039 32.2938 316.46 29.62C317.922 26.9462 319.886 24.8782 322.35 23.416C324.857 21.912 327.614 21.16 330.622 21.16ZM342.592 38.9573C342.592 36.576 342.09 34.508 341.088 32.7533C340.127 30.9987 338.853 29.6618 337.265 28.7427C335.678 27.8236 333.965 27.364 332.126 27.364C330.288 27.364 328.575 27.8236 326.988 28.7427C325.4 29.62 324.105 30.936 323.102 32.6907C322.142 34.4036 321.661 36.4507 321.661 38.832C321.661 41.2133 322.142 43.3022 323.102 45.0987C324.105 46.8951 325.4 48.2738 326.988 49.2347C328.617 50.1538 330.33 50.6133 332.126 50.6133C333.965 50.6133 335.678 50.1538 337.265 49.2347C338.853 48.3156 340.127 46.9787 341.088 45.224C342.09 43.4276 342.592 41.3387 342.592 38.9573Z"/><path stroke="#11243E" stroke-width=".333" d="M375.936 21.16C378.652 21.16 381.075 21.724 383.206 22.852C385.378 23.98 387.07 25.6511 388.282 27.8653C389.493 30.0796 390.099 32.7533 390.099 35.8867V56.2533H383.018V36.952C383.018 33.8604 382.245 31.5 380.699 29.8707C379.153 28.1996 377.044 27.364 374.37 27.364C371.696 27.364 369.565 28.1996 367.978 29.8707C366.432 31.5 365.659 33.8604 365.659 36.952V56.2533H358.515V21.724H365.659V25.672C366.829 24.2516 368.312 23.1444 370.108 22.3507C371.947 21.5569 373.889 21.16 375.936 21.16Z"/><defs><filter id="filter0_d_3240_12735" width="32.765" height="33.829" x="18.629" y="18.629" color-interpolation-filters="sRGB" filterUnits="userSpaceOnUse"><feFlood flood-opacity="0" result="BackgroundImageFix"/><feColorMatrix in="SourceAlpha" result="hardAlpha" type="matrix" values="0 0 0 0 0 0 0 0 0 0 0 0 0 0 0 0 0 0 127 0"/><feOffset dx="3" dy="4"/><feGaussianBlur stdDeviation="1.5"/><feComposite in2="hardAlpha" operator="out"/><feColorMatrix type="matrix" values="0 0 0 0 0 0 0 0 0 0 0 0 0 0 0 0 0 0 0.05 0"/><feBlend in2="BackgroundImageFix" mode="normal" result="effect1_dropShadow_3240_12735"/><feBlend in="SourceGraphic" in2="effect1_dropShadow_3240_12735" mode="normal" result="shape"/></filter><linearGradient id="paint0_linear_3240_12735" x1="56" x2="-.229" y1="65.771" y2="-3.657" gradientUnits="userSpaceOnUse"><stop stop-color="#698EEF"/><stop offset="1" stop-color="#59CBEF"/></linearGradient></defs></svg>