<svg xmlns="http://www.w3.org/2000/svg" width="450" height="64" fill="none" viewBox="0 0 450 64"><path fill="url(#paint0_linear_3240_12621)" d="M56 32C56 18.7452 45.2548 8 32 8H8V56H56V32Z"/><g filter="url(#filter0_d_3240_12621)"><path fill="#fff" d="M45.3105 26.8432C45.3018 24.1932 43.152 22.0566 40.502 22.0566H23.78C22.502 22.0566 21.2767 22.5585 20.3747 23.4639C19.4721 24.3688 18.9674 25.5924 18.9715 26.8703L19.0125 39.6686C19.0205 42.3179 21.171 44.4534 23.821 44.4534H28.5607L30.8163 47.6877C31.1195 48.1225 31.6155 48.3812 32.145 48.3824C32.6746 48.3841 33.1717 48.1272 33.4772 47.6929L35.7576 44.4545H40.5424C41.8203 44.4545 43.0457 43.9527 43.9471 43.0473C44.8497 42.1418 45.355 40.9211 45.3509 39.6431L45.3105 26.8432ZM32.1606 24.9093C34.6379 24.9093 36.6463 26.9177 36.6463 29.3938C36.6463 31.8717 34.6373 33.879 32.1606 33.879C29.6839 33.879 27.6761 31.8717 27.6761 29.3938C27.6766 26.9177 29.6845 24.9093 32.1606 24.9093ZM39.3038 40.585C39.3038 41.1382 38.8557 41.5863 38.3025 41.5863H26.017C25.4632 41.5863 25.0146 41.1382 25.0146 40.5844C25.0146 38.073 27.0397 36.0323 29.5511 36.0323H34.7719C35.9782 36.0323 37.1273 36.5145 37.9802 37.3674C38.8331 38.2203 39.3038 39.3798 39.3038 40.585Z"/></g><path fill="#11243E" d="M80 21.0533V56.2533H87.5283V28.5333H97.7137C103.339 28.5333 107.899 33.0642 107.899 38.6533V56.2533H115.427V38.6533C115.427 28.9331 107.497 21.0533 97.7137 21.0533H80Z"/><path fill="#11243E" fill-rule="evenodd" d="M146.177 35.7608C145.455 31.1811 142.646 27.8067 137.028 27.8067C131.81 27.8067 128.199 30.6975 127.237 35.7608H146.177ZM137.911 49.4221C142.325 49.4221 145.535 47.6541 147.462 45.806L152.197 50.7879C149.066 53.9228 144.734 56.2533 137.992 56.2533C126.434 56.2533 118.97 48.7805 118.97 38.6551C118.97 28.6087 126.836 21.0533 136.946 21.0533C148.423 21.0533 154.924 29.5723 154.364 41.3867H127.237C128.199 46.2895 131.73 49.4221 137.911 49.4221Z" clip-rule="evenodd"/><path fill="#11243E" fill-rule="evenodd" d="M185.148 35.7608C184.426 31.1811 181.616 27.8067 175.998 27.8067C170.78 27.8067 167.169 30.6975 166.207 35.7608H185.148ZM176.881 49.4221C181.295 49.4221 184.505 47.6541 186.432 45.806L191.167 50.7879C188.036 53.9228 183.704 56.2533 176.962 56.2533C165.404 56.2533 157.94 48.7805 157.94 38.6551C157.94 28.6087 165.807 21.0533 175.916 21.0533C187.393 21.0533 193.894 29.5723 193.334 41.3867H166.207C167.169 46.2895 170.7 49.4221 176.881 49.4221Z" clip-rule="evenodd"/><path fill="#11243E" fill-rule="evenodd" d="M196.91 21.3568H202.851V12.2533H210.4V21.3568H217.809V28.1805H210.4V42.0076C210.4 48.2625 211.378 49.2342 217.809 49.2342V56.2533H216.691C206.066 56.2533 202.851 52.9172 202.851 42.078V28.1805H196.91V21.3568Z" clip-rule="evenodd"/><path fill="#11243E" fill-rule="evenodd" d="M249.544 38.6539C249.544 32.6965 244.9 27.8227 239.031 27.8227C233.16 27.8227 228.587 32.6965 228.587 38.6539C228.587 44.6102 233.16 49.484 239.031 49.484C244.9 49.484 249.544 44.6102 249.544 38.6539ZM221.351 38.6539C221.351 28.7705 229.201 21.0533 239.031 21.0533C248.861 21.0533 256.779 28.7705 256.779 38.6539C256.779 48.4688 248.861 56.2533 239.031 56.2533C229.201 56.2533 221.351 48.4688 221.351 38.6539Z" clip-rule="evenodd"/><path fill="#11243E" d="M278.051 56.692C275.126 56.692 272.494 56.1907 270.155 55.188C267.815 54.1436 265.977 52.6813 264.64 50.8013C263.303 48.9213 262.635 46.728 262.635 44.2213H270.28C270.447 46.1013 271.178 47.6471 272.473 48.8587C273.81 50.0702 275.669 50.676 278.051 50.676C280.516 50.676 282.437 50.0911 283.816 48.9213C285.195 47.7098 285.884 46.164 285.884 44.284C285.884 42.8218 285.445 41.6311 284.568 40.712C283.732 39.7929 282.667 39.0827 281.372 38.5813C280.119 38.08 278.364 37.5369 276.108 36.952C273.267 36.2 270.948 35.448 269.152 34.696C267.397 33.9022 265.893 32.6907 264.64 31.0613C263.387 29.432 262.76 27.2596 262.76 24.544C262.76 22.0373 263.387 19.844 264.64 17.964C265.893 16.084 267.648 14.6427 269.904 13.64C272.16 12.6373 274.771 12.136 277.737 12.136C281.957 12.136 285.404 13.2013 288.077 15.332C290.793 17.4209 292.297 20.3036 292.589 23.98H284.693C284.568 22.3924 283.816 21.0347 282.437 19.9067C281.059 18.7787 279.241 18.2147 276.985 18.2147C274.938 18.2147 273.267 18.7369 271.972 19.7813C270.677 20.8258 270.029 22.3298 270.029 24.2933C270.029 25.6302 270.426 26.7373 271.22 27.6147C272.056 28.4502 273.1 29.1187 274.353 29.62C275.607 30.1213 277.32 30.6644 279.492 31.2493C282.375 32.0431 284.714 32.8369 286.511 33.6307C288.349 34.4244 289.895 35.6569 291.148 37.328C292.443 38.9573 293.091 41.1507 293.091 43.908C293.091 46.1222 292.485 48.2111 291.273 50.1747C290.104 52.1382 288.37 53.7258 286.072 54.9373C283.816 56.1071 281.142 56.692 278.051 56.692Z"/><path fill="#11243E" d="M315.831 56.8173C312.572 56.8173 309.627 56.0862 306.995 54.624C304.363 53.12 302.295 51.0311 300.791 48.3573C299.287 45.6418 298.535 42.5084 298.535 38.9573C298.535 35.448 299.308 32.3356 300.854 29.62C302.399 26.9044 304.509 24.8156 307.183 23.3533C309.857 21.8911 312.844 21.16 316.144 21.16C319.445 21.16 322.432 21.8911 325.106 23.3533C327.779 24.8156 329.889 26.9044 331.435 29.62C332.981 32.3356 333.754 35.448 333.754 38.9573C333.754 42.4667 332.96 45.5791 331.372 48.2947C329.785 51.0102 327.612 53.12 324.855 54.624C322.139 56.0862 319.131 56.8173 315.831 56.8173ZM315.831 50.6133C317.669 50.6133 319.382 50.1747 320.97 49.2973C322.599 48.42 323.915 47.104 324.918 45.3493C325.92 43.5947 326.422 41.464 326.422 38.9573C326.422 36.4507 325.941 34.3409 324.98 32.628C324.019 30.8733 322.745 29.5573 321.158 28.68C319.57 27.8027 317.857 27.364 316.019 27.364C314.181 27.364 312.468 27.8027 310.88 28.68C309.335 29.5573 308.102 30.8733 307.183 32.628C306.264 34.3409 305.804 36.4507 305.804 38.9573C305.804 42.6756 306.744 45.5582 308.624 47.6053C310.546 49.6107 312.948 50.6133 315.831 50.6133Z"/><path fill="#11243E" d="M337.768 38.9573C337.768 35.4062 338.478 32.2938 339.899 29.62C341.361 26.9044 343.366 24.8156 345.915 23.3533C348.463 21.8911 351.387 21.16 354.688 21.16C358.866 21.16 362.312 22.1627 365.028 24.168C367.785 26.1316 369.644 28.9516 370.605 32.628H362.897C362.271 30.9151 361.268 29.5782 359.889 28.6173C358.511 27.6564 356.777 27.176 354.688 27.176C351.763 27.176 349.424 28.2204 347.669 30.3093C345.956 32.3564 345.1 35.2391 345.1 38.9573C345.1 42.6756 345.956 45.5791 347.669 47.668C349.424 49.7569 351.763 50.8013 354.688 50.8013C358.824 50.8013 361.56 48.984 362.897 45.3493H370.605C369.603 48.8587 367.723 51.6578 364.965 53.7467C362.208 55.7938 358.782 56.8173 354.688 56.8173C351.387 56.8173 348.463 56.0862 345.915 54.624C343.366 53.12 341.361 51.0311 339.899 48.3573C338.478 45.6418 337.768 42.5084 337.768 38.9573Z"/><path fill="#11243E" d="M380.693 17.1493C379.398 17.1493 378.311 16.7107 377.434 15.8333C376.557 14.956 376.118 13.8698 376.118 12.5747C376.118 11.2796 376.557 10.1933 377.434 9.316C378.311 8.43867 379.398 8 380.693 8C381.946 8 383.011 8.43867 383.889 9.316C384.766 10.1933 385.205 11.2796 385.205 12.5747C385.205 13.8698 384.766 14.956 383.889 15.8333C383.011 16.7107 381.946 17.1493 380.693 17.1493ZM384.202 21.724V56.2533H377.058V21.724H384.202Z"/><path fill="#11243E" d="M390.534 38.832C390.534 35.3644 391.244 32.2938 392.664 29.62C394.126 26.9462 396.09 24.8782 398.555 23.416C401.061 21.912 403.819 21.16 406.827 21.16C409.542 21.16 411.903 21.7031 413.908 22.7893C415.955 23.8338 417.585 25.1498 418.796 26.7373V21.724H426.003V56.2533H418.796V51.1147C417.585 52.744 415.934 54.1018 413.846 55.188C411.757 56.2742 409.375 56.8173 406.702 56.8173C403.735 56.8173 401.02 56.0653 398.555 54.5613C396.09 53.0156 394.126 50.8849 392.664 48.1693C391.244 45.412 390.534 42.2996 390.534 38.832ZM418.796 38.9573C418.796 36.576 418.295 34.508 417.292 32.7533C416.331 30.9987 415.057 29.6618 413.47 28.7427C411.882 27.8236 410.169 27.364 408.331 27.364C406.493 27.364 404.78 27.8236 403.192 28.7427C401.605 29.62 400.31 30.936 399.307 32.6907C398.346 34.4036 397.866 36.4507 397.866 38.832C397.866 41.2133 398.346 43.3022 399.307 45.0987C400.31 46.8951 401.605 48.2738 403.192 49.2347C404.822 50.1538 406.534 50.6133 408.331 50.6133C410.169 50.6133 411.882 50.1538 413.47 49.2347C415.057 48.3156 416.331 46.9787 417.292 45.224C418.295 43.4276 418.796 41.3387 418.796 38.9573Z"/><path fill="#11243E" d="M441.864 9.88V56.2533H434.72V9.88H441.864Z"/><path stroke="#11243E" stroke-width=".333" d="M80 21.0533V56.2533H87.5283V28.5333H97.7137C103.339 28.5333 107.899 33.0642 107.899 38.6533V56.2533H115.427V38.6533C115.427 28.9331 107.497 21.0533 97.7137 21.0533H80Z"/><path fill-rule="evenodd" stroke="#11243E" stroke-width=".333" d="M146.177 35.7608C145.455 31.1811 142.646 27.8067 137.028 27.8067C131.81 27.8067 128.199 30.6975 127.237 35.7608H146.177ZM137.911 49.4221C142.325 49.4221 145.535 47.6541 147.462 45.806L152.197 50.7879C149.066 53.9228 144.734 56.2533 137.992 56.2533C126.434 56.2533 118.97 48.7805 118.97 38.6551C118.97 28.6087 126.836 21.0533 136.946 21.0533C148.423 21.0533 154.924 29.5723 154.364 41.3867H127.237C128.199 46.2895 131.73 49.4221 137.911 49.4221Z" clip-rule="evenodd"/><path fill-rule="evenodd" stroke="#11243E" stroke-width=".333" d="M185.148 35.7608C184.426 31.1811 181.616 27.8067 175.998 27.8067C170.78 27.8067 167.169 30.6975 166.207 35.7608H185.148ZM176.881 49.4221C181.295 49.4221 184.505 47.6541 186.432 45.806L191.167 50.7879C188.036 53.9228 183.704 56.2533 176.962 56.2533C165.404 56.2533 157.94 48.7805 157.94 38.6551C157.94 28.6087 165.807 21.0533 175.916 21.0533C187.393 21.0533 193.894 29.5723 193.334 41.3867H166.207C167.169 46.2895 170.7 49.4221 176.881 49.4221Z" clip-rule="evenodd"/><path fill-rule="evenodd" stroke="#11243E" stroke-width=".333" d="M196.91 21.3568H202.851V12.2533H210.4V21.3568H217.809V28.1805H210.4V42.0076C210.4 48.2625 211.378 49.2342 217.809 49.2342V56.2533H216.691C206.066 56.2533 202.851 52.9172 202.851 42.078V28.1805H196.91V21.3568Z" clip-rule="evenodd"/><path fill-rule="evenodd" stroke="#11243E" stroke-width=".333" d="M249.544 38.6539C249.544 32.6965 244.9 27.8227 239.031 27.8227C233.16 27.8227 228.587 32.6965 228.587 38.6539C228.587 44.6102 233.16 49.484 239.031 49.484C244.9 49.484 249.544 44.6102 249.544 38.6539ZM221.351 38.6539C221.351 28.7705 229.201 21.0533 239.031 21.0533C248.861 21.0533 256.779 28.7705 256.779 38.6539C256.779 48.4688 248.861 56.2533 239.031 56.2533C229.201 56.2533 221.351 48.4688 221.351 38.6539Z" clip-rule="evenodd"/><path stroke="#11243E" stroke-width=".333" d="M278.051 56.692C275.126 56.692 272.494 56.1907 270.155 55.188C267.815 54.1436 265.977 52.6813 264.64 50.8013C263.303 48.9213 262.635 46.728 262.635 44.2213H270.28C270.447 46.1013 271.178 47.6471 272.473 48.8587C273.81 50.0702 275.669 50.676 278.051 50.676C280.516 50.676 282.437 50.0911 283.816 48.9213C285.195 47.7098 285.884 46.164 285.884 44.284C285.884 42.8218 285.445 41.6311 284.568 40.712C283.732 39.7929 282.667 39.0827 281.372 38.5813C280.119 38.08 278.364 37.5369 276.108 36.952C273.267 36.2 270.948 35.448 269.152 34.696C267.397 33.9022 265.893 32.6907 264.64 31.0613C263.387 29.432 262.76 27.2596 262.76 24.544C262.76 22.0373 263.387 19.844 264.64 17.964C265.893 16.084 267.648 14.6427 269.904 13.64C272.16 12.6373 274.771 12.136 277.737 12.136C281.957 12.136 285.404 13.2013 288.077 15.332C290.793 17.4209 292.297 20.3036 292.589 23.98H284.693C284.568 22.3924 283.816 21.0347 282.437 19.9067C281.059 18.7787 279.241 18.2147 276.985 18.2147C274.938 18.2147 273.267 18.7369 271.972 19.7813C270.677 20.8258 270.029 22.3298 270.029 24.2933C270.029 25.6302 270.426 26.7373 271.22 27.6147C272.056 28.4502 273.1 29.1187 274.353 29.62C275.607 30.1213 277.32 30.6644 279.492 31.2493C282.375 32.0431 284.714 32.8369 286.511 33.6307C288.349 34.4244 289.895 35.6569 291.148 37.328C292.443 38.9573 293.091 41.1507 293.091 43.908C293.091 46.1222 292.485 48.2111 291.273 50.1747C290.104 52.1382 288.37 53.7258 286.072 54.9373C283.816 56.1071 281.142 56.692 278.051 56.692Z"/><path stroke="#11243E" stroke-width=".333" d="M315.831 56.8173C312.572 56.8173 309.627 56.0862 306.995 54.624C304.363 53.12 302.295 51.0311 300.791 48.3573C299.287 45.6418 298.535 42.5084 298.535 38.9573C298.535 35.448 299.308 32.3356 300.854 29.62C302.399 26.9044 304.509 24.8156 307.183 23.3533C309.857 21.8911 312.844 21.16 316.144 21.16C319.445 21.16 322.432 21.8911 325.106 23.3533C327.779 24.8156 329.889 26.9044 331.435 29.62C332.981 32.3356 333.754 35.448 333.754 38.9573C333.754 42.4667 332.96 45.5791 331.372 48.2947C329.785 51.0102 327.612 53.12 324.855 54.624C322.139 56.0862 319.131 56.8173 315.831 56.8173ZM315.831 50.6133C317.669 50.6133 319.382 50.1747 320.97 49.2973C322.599 48.42 323.915 47.104 324.918 45.3493C325.92 43.5947 326.422 41.464 326.422 38.9573C326.422 36.4507 325.941 34.3409 324.98 32.628C324.019 30.8733 322.745 29.5573 321.158 28.68C319.57 27.8027 317.857 27.364 316.019 27.364C314.181 27.364 312.468 27.8027 310.88 28.68C309.335 29.5573 308.102 30.8733 307.183 32.628C306.264 34.3409 305.804 36.4507 305.804 38.9573C305.804 42.6756 306.744 45.5582 308.624 47.6053C310.546 49.6107 312.948 50.6133 315.831 50.6133Z"/><path stroke="#11243E" stroke-width=".333" d="M337.768 38.9573C337.768 35.4062 338.478 32.2938 339.899 29.62C341.361 26.9044 343.366 24.8156 345.915 23.3533C348.463 21.8911 351.387 21.16 354.688 21.16C358.866 21.16 362.312 22.1627 365.028 24.168C367.785 26.1316 369.644 28.9516 370.605 32.628H362.897C362.271 30.9151 361.268 29.5782 359.889 28.6173C358.511 27.6564 356.777 27.176 354.688 27.176C351.763 27.176 349.424 28.2204 347.669 30.3093C345.956 32.3564 345.1 35.2391 345.1 38.9573C345.1 42.6756 345.956 45.5791 347.669 47.668C349.424 49.7569 351.763 50.8013 354.688 50.8013C358.824 50.8013 361.56 48.984 362.897 45.3493H370.605C369.603 48.8587 367.723 51.6578 364.965 53.7467C362.208 55.7938 358.782 56.8173 354.688 56.8173C351.387 56.8173 348.463 56.0862 345.915 54.624C343.366 53.12 341.361 51.0311 339.899 48.3573C338.478 45.6418 337.768 42.5084 337.768 38.9573Z"/><path stroke="#11243E" stroke-width=".333" d="M380.693 17.1493C379.398 17.1493 378.311 16.7107 377.434 15.8333C376.557 14.956 376.118 13.8698 376.118 12.5747C376.118 11.2796 376.557 10.1933 377.434 9.316C378.311 8.43867 379.398 8 380.693 8C381.946 8 383.011 8.43867 383.889 9.316C384.766 10.1933 385.205 11.2796 385.205 12.5747C385.205 13.8698 384.766 14.956 383.889 15.8333C383.011 16.7107 381.946 17.1493 380.693 17.1493ZM384.202 21.724V56.2533H377.058V21.724H384.202Z"/><path stroke="#11243E" stroke-width=".333" d="M390.534 38.832C390.534 35.3644 391.244 32.2938 392.664 29.62C394.126 26.9462 396.09 24.8782 398.555 23.416C401.061 21.912 403.819 21.16 406.827 21.16C409.542 21.16 411.903 21.7031 413.908 22.7893C415.955 23.8338 417.585 25.1498 418.796 26.7373V21.724H426.003V56.2533H418.796V51.1147C417.585 52.744 415.934 54.1018 413.846 55.188C411.757 56.2742 409.375 56.8173 406.702 56.8173C403.735 56.8173 401.02 56.0653 398.555 54.5613C396.09 53.0156 394.126 50.8849 392.664 48.1693C391.244 45.412 390.534 42.2996 390.534 38.832ZM418.796 38.9573C418.796 36.576 418.295 34.508 417.292 32.7533C416.331 30.9987 415.057 29.6618 413.47 28.7427C411.882 27.8236 410.169 27.364 408.331 27.364C406.493 27.364 404.78 27.8236 403.192 28.7427C401.605 29.62 400.31 30.936 399.307 32.6907C398.346 34.4036 397.866 36.4507 397.866 38.832C397.866 41.2133 398.346 43.3022 399.307 45.0987C400.31 46.8951 401.605 48.2738 403.192 49.2347C404.822 50.1538 406.534 50.6133 408.331 50.6133C410.169 50.6133 411.882 50.1538 413.47 49.2347C415.057 48.3156 416.331 46.9787 417.292 45.224C418.295 43.4276 418.796 41.3387 418.796 38.9573Z"/><path stroke="#11243E" stroke-width=".333" d="M441.864 9.88V56.2533H434.72V9.88H441.864Z"/><defs><filter id="filter0_d_3240_12621" width="32.379" height="33.326" x="18.971" y="22.057" color-interpolation-filters="sRGB" filterUnits="userSpaceOnUse"><feFlood flood-opacity="0" result="BackgroundImageFix"/><feColorMatrix in="SourceAlpha" result="hardAlpha" type="matrix" values="0 0 0 0 0 0 0 0 0 0 0 0 0 0 0 0 0 0 127 0"/><feOffset dx="3" dy="4"/><feGaussianBlur stdDeviation="1.5"/><feComposite in2="hardAlpha" operator="out"/><feColorMatrix type="matrix" values="0 0 0 0 0 0 0 0 0 0 0 0 0 0 0 0 0 0 0.05 0"/><feBlend in2="BackgroundImageFix" mode="normal" result="effect1_dropShadow_3240_12621"/><feBlend in="SourceGraphic" in2="effect1_dropShadow_3240_12621" mode="normal" result="shape"/></filter><linearGradient id="paint0_linear_3240_12621" x1="65.771" x2="-.229" y1="79.829" y2="-3.657" gradientUnits="userSpaceOnUse"><stop stop-color="#81D2F4"/><stop offset="1" stop-color="#4A9CE9"/></linearGradient></defs></svg>