<svg xmlns="http://www.w3.org/2000/svg" width="485" height="64" fill="none" viewBox="0 0 485 64"><path fill="url(#paint0_linear_3239_12310)" d="M56 32C56 18.7452 45.2548 8 32 8H8V56H56V32Z"/><g filter="url(#filter0_d_3239_12310)"><path fill="#fff" fill-rule="evenodd" d="M41.062 34.6522C39.5917 33.1819 37.2078 33.1819 35.7376 34.6522C34.2673 36.1225 34.2673 38.5063 35.7376 39.9766C37.1795 41.4186 39.5 41.4464 40.9759 40.0601C40.9924 40.0406 41.0098 40.0216 41.0282 40.0031C41.0506 39.9808 41.0739 39.9598 41.0979 39.9402C42.5322 38.4673 42.5202 36.1104 41.062 34.6522ZM42.9129 40.6023C44.5079 38.4186 44.3194 35.3386 42.3475 33.3667C40.1672 31.1864 36.6323 31.1864 34.452 33.3667C32.2717 35.547 32.2717 39.0819 34.452 41.2622C36.4029 43.2131 39.4384 43.4183 41.6175 41.878L44.5037 44.7642C44.8587 45.1192 45.4343 45.1192 45.7893 44.7642C46.1443 44.4092 46.1443 43.8337 45.7893 43.4787L42.9129 40.6023Z" clip-rule="evenodd"/><path fill="#fff" fill-rule="evenodd" d="M25.1551 39.7456L29.2783 43.8687L32.8896 40.2574C31.5451 37.891 31.8817 34.8286 33.8995 32.8108C35.6235 31.0868 38.11 30.59 40.2734 31.3204V27.3761C40.2734 26.2826 39.839 25.2338 39.0657 24.4606C38.2925 23.6873 37.2437 23.2529 36.1502 23.2529H22.4064C21.3128 23.2529 20.2641 23.6873 19.4908 24.4606C18.7176 25.2338 18.2832 26.2826 18.2832 27.3761V35.6224C18.2832 36.7159 18.7176 37.7647 19.4908 38.5379C20.2641 39.3112 21.3128 39.7456 22.4064 39.7456H25.1551ZM22.7597 28.6383C22.7597 28.1364 23.1666 27.7295 23.6685 27.7295H33.0929C33.5948 27.7295 34.0017 28.1364 34.0017 28.6383C34.0017 29.1402 33.5948 29.5471 33.0929 29.5471H23.6685C23.1666 29.5471 22.7597 29.1402 22.7597 28.6383ZM23.6685 31.0954C23.1666 31.0954 22.7597 31.5022 22.7597 32.0041C22.7597 32.506 23.1666 32.9129 23.6685 32.9129H27.7075C28.2094 32.9129 28.6163 32.506 28.6163 32.0041C28.6163 31.5022 28.2094 31.0954 27.7075 31.0954H23.6685Z" clip-rule="evenodd"/></g><path fill="#11243E" d="M80 21.0533V56.2533H87.5283V28.5333H97.7137C103.339 28.5333 107.899 33.0642 107.899 38.6533V56.2533H115.427V38.6533C115.427 28.9331 107.497 21.0533 97.7137 21.0533H80Z"/><path fill="#11243E" fill-rule="evenodd" d="M146.177 35.7608C145.455 31.1811 142.646 27.8067 137.028 27.8067C131.81 27.8067 128.199 30.6975 127.237 35.7608H146.177ZM137.911 49.4221C142.325 49.4221 145.535 47.6541 147.462 45.806L152.197 50.7879C149.066 53.9228 144.734 56.2533 137.992 56.2533C126.434 56.2533 118.97 48.7805 118.97 38.6551C118.97 28.6087 126.836 21.0533 136.946 21.0533C148.423 21.0533 154.924 29.5723 154.364 41.3867H127.237C128.199 46.2895 131.73 49.4221 137.911 49.4221Z" clip-rule="evenodd"/><path fill="#11243E" fill-rule="evenodd" d="M185.148 35.7608C184.426 31.1811 181.616 27.8067 175.998 27.8067C170.78 27.8067 167.169 30.6975 166.207 35.7608H185.148ZM176.881 49.4221C181.295 49.4221 184.505 47.6541 186.432 45.806L191.167 50.7879C188.036 53.9228 183.704 56.2533 176.962 56.2533C165.404 56.2533 157.94 48.7805 157.94 38.6551C157.94 28.6087 165.807 21.0533 175.916 21.0533C187.393 21.0533 193.894 29.5723 193.334 41.3867H166.207C167.169 46.2895 170.7 49.4221 176.881 49.4221Z" clip-rule="evenodd"/><path fill="#11243E" fill-rule="evenodd" d="M196.91 21.3568H202.851V12.2533H210.4V21.3568H217.809V28.1805H210.4V42.0076C210.4 48.2625 211.378 49.2342 217.809 49.2342V56.2533H216.691C206.066 56.2533 202.851 52.9172 202.851 42.078V28.1805H196.91V21.3568Z" clip-rule="evenodd"/><path fill="#11243E" fill-rule="evenodd" d="M249.544 38.6539C249.544 32.6965 244.9 27.8227 239.031 27.8227C233.16 27.8227 228.587 32.6965 228.587 38.6539C228.587 44.6102 233.16 49.484 239.031 49.484C244.9 49.484 249.544 44.6102 249.544 38.6539ZM221.351 38.6539C221.351 28.7705 229.201 21.0533 239.031 21.0533C248.861 21.0533 256.779 28.7705 256.779 38.6539C256.779 48.4688 248.861 56.2533 239.031 56.2533C229.201 56.2533 221.351 48.4688 221.351 38.6539Z" clip-rule="evenodd"/><path fill="#11243E" d="M286.323 56.2533L276.296 38.832H270.844V56.2533H263.7V12.7H278.74C282.082 12.7 284.902 13.2849 287.2 14.4547C289.54 15.6244 291.273 17.1911 292.401 19.1547C293.571 21.1182 294.156 23.3116 294.156 25.7347C294.156 28.5756 293.32 31.1658 291.649 33.5053C290.02 35.8031 287.492 37.3698 284.067 38.2053L294.845 56.2533H286.323ZM270.844 33.1293H278.74C281.414 33.1293 283.419 32.4609 284.756 31.124C286.135 29.7871 286.824 27.9907 286.824 25.7347C286.824 23.4787 286.156 21.724 284.819 20.4707C283.482 19.1756 281.456 18.528 278.74 18.528H270.844V33.1293Z"/><path fill="#11243E" d="M334.275 38.1427C334.275 39.4378 334.191 40.6076 334.024 41.652H307.642C307.851 44.4093 308.874 46.6236 310.712 48.2947C312.551 49.9658 314.807 50.8013 317.48 50.8013C321.324 50.8013 324.04 49.1929 325.627 45.976H333.335C332.291 49.1511 330.39 51.7622 327.632 53.8093C324.917 55.8147 321.533 56.8173 317.48 56.8173C314.18 56.8173 311.214 56.0862 308.582 54.624C305.992 53.12 303.944 51.0311 302.44 48.3573C300.978 45.6418 300.247 42.5084 300.247 38.9573C300.247 35.4062 300.957 32.2938 302.378 29.62C303.84 26.9044 305.866 24.8156 308.456 23.3533C311.088 21.8911 314.096 21.16 317.48 21.16C320.739 21.16 323.643 21.8702 326.191 23.2907C328.74 24.7111 330.724 26.7164 332.144 29.3067C333.565 31.8551 334.275 34.8004 334.275 38.1427ZM326.818 35.8867C326.776 33.2547 325.836 31.1449 323.998 29.5573C322.16 27.9698 319.883 27.176 317.167 27.176C314.702 27.176 312.592 27.9698 310.838 29.5573C309.083 31.1031 308.039 33.2129 307.704 35.8867H326.818Z"/><path fill="#11243E" d="M353.987 49.8613L363.763 21.724H371.345L358.185 56.2533H349.663L336.565 21.724H344.211L353.987 49.8613Z"/><path fill="#11243E" d="M379.714 17.1493C378.418 17.1493 377.332 16.7107 376.455 15.8333C375.578 14.956 375.139 13.8698 375.139 12.5747C375.139 11.2796 375.578 10.1933 376.455 9.316C377.332 8.43867 378.418 8 379.714 8C380.967 8 382.032 8.43867 382.91 9.316C383.787 10.1933 384.226 11.2796 384.226 12.5747C384.226 13.8698 383.787 14.956 382.91 15.8333C382.032 16.7107 380.967 17.1493 379.714 17.1493ZM383.223 21.724V56.2533H376.079V21.724H383.223Z"/><path fill="#11243E" d="M423.582 38.1427C423.582 39.4378 423.499 40.6076 423.332 41.652H396.949C397.158 44.4093 398.181 46.6236 400.02 48.2947C401.858 49.9658 404.114 50.8013 406.788 50.8013C410.631 50.8013 413.347 49.1929 414.934 45.976H422.642C421.598 49.1511 419.697 51.7622 416.94 53.8093C414.224 55.8147 410.84 56.8173 406.788 56.8173C403.487 56.8173 400.521 56.0862 397.889 54.624C395.299 53.12 393.252 51.0311 391.748 48.3573C390.285 45.6418 389.554 42.5084 389.554 38.9573C389.554 35.4062 390.265 32.2938 391.685 29.62C393.147 26.9044 395.173 24.8156 397.764 23.3533C400.396 21.8911 403.404 21.16 406.788 21.16C410.046 21.16 412.95 21.8702 415.498 23.2907C418.047 24.7111 420.031 26.7164 421.452 29.3067C422.872 31.8551 423.582 34.8004 423.582 38.1427ZM416.125 35.8867C416.083 33.2547 415.143 31.1449 413.305 29.5573C411.467 27.9698 409.19 27.176 406.474 27.176C404.009 27.176 401.9 27.9698 400.145 29.5573C398.39 31.1031 397.346 33.2129 397.012 35.8867H416.125Z"/><path fill="#11243E" d="M476.319 21.724L465.603 56.2533H458.083L451.127 30.748L444.171 56.2533H436.651L425.873 21.724H433.142L440.349 49.4853L447.681 21.724H455.138L462.157 49.36L469.301 21.724H476.319Z"/><path stroke="#11243E" stroke-width=".333" d="M80 21.0533V56.2533H87.5283V28.5333H97.7137C103.339 28.5333 107.899 33.0642 107.899 38.6533V56.2533H115.427V38.6533C115.427 28.9331 107.497 21.0533 97.7137 21.0533H80Z"/><path fill-rule="evenodd" stroke="#11243E" stroke-width=".333" d="M146.177 35.7608C145.455 31.1811 142.646 27.8067 137.028 27.8067C131.81 27.8067 128.199 30.6975 127.237 35.7608H146.177ZM137.911 49.4221C142.325 49.4221 145.535 47.6541 147.462 45.806L152.197 50.7879C149.066 53.9228 144.734 56.2533 137.992 56.2533C126.434 56.2533 118.97 48.7805 118.97 38.6551C118.97 28.6087 126.836 21.0533 136.946 21.0533C148.423 21.0533 154.924 29.5723 154.364 41.3867H127.237C128.199 46.2895 131.73 49.4221 137.911 49.4221Z" clip-rule="evenodd"/><path fill-rule="evenodd" stroke="#11243E" stroke-width=".333" d="M185.148 35.7608C184.426 31.1811 181.616 27.8067 175.998 27.8067C170.78 27.8067 167.169 30.6975 166.207 35.7608H185.148ZM176.881 49.4221C181.295 49.4221 184.505 47.6541 186.432 45.806L191.167 50.7879C188.036 53.9228 183.704 56.2533 176.962 56.2533C165.404 56.2533 157.94 48.7805 157.94 38.6551C157.94 28.6087 165.807 21.0533 175.916 21.0533C187.393 21.0533 193.894 29.5723 193.334 41.3867H166.207C167.169 46.2895 170.7 49.4221 176.881 49.4221Z" clip-rule="evenodd"/><path fill-rule="evenodd" stroke="#11243E" stroke-width=".333" d="M196.91 21.3568H202.851V12.2533H210.4V21.3568H217.809V28.1805H210.4V42.0076C210.4 48.2625 211.378 49.2342 217.809 49.2342V56.2533H216.691C206.066 56.2533 202.851 52.9172 202.851 42.078V28.1805H196.91V21.3568Z" clip-rule="evenodd"/><path fill-rule="evenodd" stroke="#11243E" stroke-width=".333" d="M249.544 38.6539C249.544 32.6965 244.9 27.8227 239.031 27.8227C233.16 27.8227 228.587 32.6965 228.587 38.6539C228.587 44.6102 233.16 49.484 239.031 49.484C244.9 49.484 249.544 44.6102 249.544 38.6539ZM221.351 38.6539C221.351 28.7705 229.201 21.0533 239.031 21.0533C248.861 21.0533 256.779 28.7705 256.779 38.6539C256.779 48.4688 248.861 56.2533 239.031 56.2533C229.201 56.2533 221.351 48.4688 221.351 38.6539Z" clip-rule="evenodd"/><path stroke="#11243E" stroke-width=".333" d="M286.323 56.2533L276.296 38.832H270.844V56.2533H263.7V12.7H278.74C282.082 12.7 284.902 13.2849 287.2 14.4547C289.54 15.6244 291.273 17.1911 292.401 19.1547C293.571 21.1182 294.156 23.3116 294.156 25.7347C294.156 28.5756 293.32 31.1658 291.649 33.5053C290.02 35.8031 287.492 37.3698 284.067 38.2053L294.845 56.2533H286.323ZM270.844 33.1293H278.74C281.414 33.1293 283.419 32.4609 284.756 31.124C286.135 29.7871 286.824 27.9907 286.824 25.7347C286.824 23.4787 286.156 21.724 284.819 20.4707C283.482 19.1756 281.456 18.528 278.74 18.528H270.844V33.1293Z"/><path stroke="#11243E" stroke-width=".333" d="M334.275 38.1427C334.275 39.4378 334.191 40.6076 334.024 41.652H307.642C307.851 44.4093 308.874 46.6236 310.712 48.2947C312.551 49.9658 314.807 50.8013 317.48 50.8013C321.324 50.8013 324.04 49.1929 325.627 45.976H333.335C332.291 49.1511 330.39 51.7622 327.632 53.8093C324.917 55.8147 321.533 56.8173 317.48 56.8173C314.18 56.8173 311.214 56.0862 308.582 54.624C305.992 53.12 303.944 51.0311 302.44 48.3573C300.978 45.6418 300.247 42.5084 300.247 38.9573C300.247 35.4062 300.957 32.2938 302.378 29.62C303.84 26.9044 305.866 24.8156 308.456 23.3533C311.088 21.8911 314.096 21.16 317.48 21.16C320.739 21.16 323.643 21.8702 326.191 23.2907C328.74 24.7111 330.724 26.7164 332.144 29.3067C333.565 31.8551 334.275 34.8004 334.275 38.1427ZM326.818 35.8867C326.776 33.2547 325.836 31.1449 323.998 29.5573C322.16 27.9698 319.883 27.176 317.167 27.176C314.702 27.176 312.592 27.9698 310.838 29.5573C309.083 31.1031 308.039 33.2129 307.704 35.8867H326.818Z"/><path stroke="#11243E" stroke-width=".333" d="M353.987 49.8613L363.763 21.724H371.345L358.185 56.2533H349.663L336.565 21.724H344.211L353.987 49.8613Z"/><path stroke="#11243E" stroke-width=".333" d="M379.714 17.1493C378.418 17.1493 377.332 16.7107 376.455 15.8333C375.578 14.956 375.139 13.8698 375.139 12.5747C375.139 11.2796 375.578 10.1933 376.455 9.316C377.332 8.43867 378.418 8 379.714 8C380.967 8 382.032 8.43867 382.91 9.316C383.787 10.1933 384.226 11.2796 384.226 12.5747C384.226 13.8698 383.787 14.956 382.91 15.8333C382.032 16.7107 380.967 17.1493 379.714 17.1493ZM383.223 21.724V56.2533H376.079V21.724H383.223Z"/><path stroke="#11243E" stroke-width=".333" d="M423.582 38.1427C423.582 39.4378 423.499 40.6076 423.332 41.652H396.949C397.158 44.4093 398.181 46.6236 400.02 48.2947C401.858 49.9658 404.114 50.8013 406.788 50.8013C410.631 50.8013 413.347 49.1929 414.934 45.976H422.642C421.598 49.1511 419.697 51.7622 416.94 53.8093C414.224 55.8147 410.84 56.8173 406.788 56.8173C403.487 56.8173 400.521 56.0862 397.889 54.624C395.299 53.12 393.252 51.0311 391.748 48.3573C390.285 45.6418 389.554 42.5084 389.554 38.9573C389.554 35.4062 390.265 32.2938 391.685 29.62C393.147 26.9044 395.173 24.8156 397.764 23.3533C400.396 21.8911 403.404 21.16 406.788 21.16C410.046 21.16 412.95 21.8702 415.498 23.2907C418.047 24.7111 420.031 26.7164 421.452 29.3067C422.872 31.8551 423.582 34.8004 423.582 38.1427ZM416.125 35.8867C416.083 33.2547 415.143 31.1449 413.305 29.5573C411.467 27.9698 409.19 27.176 406.474 27.176C404.009 27.176 401.9 27.9698 400.145 29.5573C398.39 31.1031 397.346 33.2129 397.012 35.8867H416.125Z"/><path stroke="#11243E" stroke-width=".333" d="M476.319 21.724L465.603 56.2533H458.083L451.127 30.748L444.171 56.2533H436.651L425.873 21.724H433.142L440.349 49.4853L447.681 21.724H455.138L462.157 49.36L469.301 21.724H476.319Z"/><defs><filter id="filter0_d_3239_12310" width="33.772" height="28.778" x="18.283" y="23.253" color-interpolation-filters="sRGB" filterUnits="userSpaceOnUse"><feFlood flood-opacity="0" result="BackgroundImageFix"/><feColorMatrix in="SourceAlpha" result="hardAlpha" type="matrix" values="0 0 0 0 0 0 0 0 0 0 0 0 0 0 0 0 0 0 127 0"/><feOffset dx="3" dy="4"/><feGaussianBlur stdDeviation="1.5"/><feComposite in2="hardAlpha" operator="out"/><feColorMatrix type="matrix" values="0 0 0 0 0 0 0 0 0 0 0 0 0 0 0 0 0 0 0.05 0"/><feBlend in2="BackgroundImageFix" mode="normal" result="effect1_dropShadow_3239_12310"/><feBlend in="SourceGraphic" in2="effect1_dropShadow_3239_12310" mode="normal" result="shape"/></filter><linearGradient id="paint0_linear_3239_12310" x1="56" x2="-.229" y1="65.771" y2="-3.657" gradientUnits="userSpaceOnUse"><stop stop-color="#59CBEF"/><stop offset="1" stop-color="#54CCAF"/></linearGradient></defs></svg>