<svg width="517" height="64" viewBox="0 0 517 64" fill="none" xmlns="http://www.w3.org/2000/svg">
<path d="M56 32C56 18.7452 45.2548 8 32 8H8V56H56V32Z" fill="url(#paint0_linear_3239_12161)"/>
<g filter="url(#filter0_d_3239_12161)">
<path fill-rule="evenodd" clip-rule="evenodd" d="M26.7573 21.5056C22.3422 21.5056 18.7631 25.0847 18.7631 29.4997C18.7631 33.9148 22.3422 37.4939 26.7573 37.4939V38.6567C21.7 38.6567 17.6003 34.557 17.6003 29.4997C17.6003 24.4425 21.7 20.3428 26.7573 20.3428C31.8145 20.3428 35.9142 24.4425 35.9142 29.4997H34.7515C34.7515 25.0847 31.1724 21.5056 26.7573 21.5056Z" fill="white"/>
<path fill-rule="evenodd" clip-rule="evenodd" d="M26.7563 25.2849C24.4284 25.2849 22.5412 27.172 22.5412 29.5C22.5412 31.8279 24.4284 33.7151 26.7563 33.7151V34.8779C23.7862 34.8779 21.3784 32.4701 21.3784 29.5C21.3784 26.5298 23.7862 24.1221 26.7563 24.1221C29.7264 24.1221 32.1342 26.5298 32.1342 29.5H30.9714C30.9714 27.172 29.0842 25.2849 26.7563 25.2849Z" fill="white"/>
<path d="M26.5967 30.095C26.4915 29.8056 26.772 29.5251 27.0614 29.6303L45.973 36.508C46.2924 36.6241 46.2908 37.0763 45.9707 37.1903L37.3281 40.2677C37.2245 40.3046 37.1433 40.3864 37.1072 40.4903L34.1535 48.9902C34.0415 49.3125 33.5868 49.3158 33.4702 48.9951L26.5967 30.095Z" fill="white"/>
</g>
<path d="M80 21.0533V56.2533H87.5283V28.5333H97.7137C103.339 28.5333 107.899 33.0642 107.899 38.6533V56.2533H115.427V38.6533C115.427 28.9331 107.497 21.0533 97.7137 21.0533H80Z" fill="#11243E"/>
<path fill-rule="evenodd" clip-rule="evenodd" d="M146.177 35.7608C145.455 31.1811 142.646 27.8067 137.028 27.8067C131.81 27.8067 128.199 30.6975 127.237 35.7608H146.177ZM137.911 49.4221C142.325 49.4221 145.535 47.6541 147.462 45.806L152.197 50.7879C149.066 53.9228 144.734 56.2533 137.992 56.2533C126.434 56.2533 118.97 48.7805 118.97 38.6551C118.97 28.6087 126.836 21.0533 136.946 21.0533C148.423 21.0533 154.924 29.5723 154.364 41.3867H127.237C128.199 46.2895 131.73 49.4221 137.911 49.4221Z" fill="#11243E"/>
<path fill-rule="evenodd" clip-rule="evenodd" d="M185.148 35.7608C184.426 31.1811 181.616 27.8067 175.998 27.8067C170.78 27.8067 167.169 30.6975 166.207 35.7608H185.148ZM176.881 49.4221C181.295 49.4221 184.505 47.6541 186.432 45.806L191.167 50.7879C188.036 53.9228 183.704 56.2533 176.962 56.2533C165.404 56.2533 157.94 48.7805 157.94 38.6551C157.94 28.6087 165.807 21.0533 175.916 21.0533C187.393 21.0533 193.894 29.5723 193.334 41.3867H166.207C167.169 46.2895 170.7 49.4221 176.881 49.4221Z" fill="#11243E"/>
<path fill-rule="evenodd" clip-rule="evenodd" d="M196.91 21.3568H202.851V12.2533H210.4V21.3568H217.809V28.1805H210.4V42.0076C210.4 48.2625 211.378 49.2342 217.809 49.2342V56.2533H216.691C206.066 56.2533 202.851 52.9172 202.851 42.078V28.1805H196.91V21.3568Z" fill="#11243E"/>
<path fill-rule="evenodd" clip-rule="evenodd" d="M249.544 38.6539C249.544 32.6965 244.9 27.8227 239.031 27.8227C233.16 27.8227 228.587 32.6965 228.587 38.6539C228.587 44.6102 233.16 49.484 239.031 49.484C244.9 49.484 249.544 44.6102 249.544 38.6539ZM221.351 38.6539C221.351 28.7705 229.201 21.0533 239.031 21.0533C248.861 21.0533 256.779 28.7705 256.779 38.6539C256.779 48.4688 248.861 56.2533 239.031 56.2533C229.201 56.2533 221.351 48.4688 221.351 38.6539Z" fill="#11243E"/>
<path d="M270.844 12.7V56.2533H263.7V12.7H270.844Z" fill="#11243E"/>
<path d="M296.978 21.16C299.694 21.16 302.117 21.724 304.247 22.852C306.42 23.98 308.112 25.6511 309.323 27.8653C310.535 30.0796 311.141 32.7533 311.141 35.8867V56.2533H304.059V36.952C304.059 33.8604 303.287 31.5 301.741 29.8707C300.195 28.1996 298.085 27.364 295.411 27.364C292.738 27.364 290.607 28.1996 289.019 29.8707C287.474 31.5 286.701 33.8604 286.701 36.952V56.2533H279.557V21.724H286.701V25.672C287.871 24.2516 289.354 23.1444 291.15 22.3507C292.988 21.5569 294.931 21.16 296.978 21.16Z" fill="#11243E"/>
<path d="M332.935 49.8613L342.711 21.724H350.293L337.133 56.2533H328.611L315.513 21.724H323.159L332.935 49.8613Z" fill="#11243E"/>
<path d="M358.661 17.1493C357.366 17.1493 356.28 16.7107 355.403 15.8333C354.526 14.956 354.087 13.8698 354.087 12.5747C354.087 11.2796 354.526 10.1933 355.403 9.316C356.28 8.43867 357.366 8 358.661 8C359.915 8 360.98 8.43867 361.857 9.316C362.735 10.1933 363.173 11.2796 363.173 12.5747C363.173 13.8698 362.735 14.956 361.857 15.8333C360.98 16.7107 359.915 17.1493 358.661 17.1493ZM362.171 21.724V56.2533H355.027V21.724H362.171Z" fill="#11243E"/>
<path d="M383.417 56.8173C380.701 56.8173 378.257 56.3369 376.085 55.376C373.954 54.3733 372.262 53.0364 371.009 51.3653C369.756 49.6524 369.087 47.7516 369.004 45.6627H376.398C376.524 47.1249 377.213 48.3573 378.466 49.36C379.761 50.3209 381.37 50.8013 383.292 50.8013C385.297 50.8013 386.843 50.4253 387.929 49.6733C389.057 48.8796 389.621 47.8769 389.621 46.6653C389.621 45.3702 388.994 44.4093 387.741 43.7827C386.529 43.156 384.587 42.4667 381.913 41.7147C379.323 41.0044 377.213 40.3151 375.584 39.6467C373.954 38.9782 372.534 37.9547 371.322 36.576C370.152 35.1973 369.568 33.38 369.568 31.124C369.568 29.2858 370.111 27.6147 371.197 26.1107C372.283 24.5649 373.829 23.3533 375.834 22.476C377.881 21.5987 380.221 21.16 382.853 21.16C386.78 21.16 389.934 22.1627 392.316 24.168C394.739 26.1316 396.034 28.8262 396.201 32.252H389.057C388.932 30.7062 388.305 29.4738 387.177 28.5547C386.049 27.6356 384.524 27.176 382.602 27.176C380.722 27.176 379.281 27.5311 378.278 28.2413C377.276 28.9516 376.774 29.8916 376.774 31.0613C376.774 31.9804 377.108 32.7533 377.777 33.38C378.445 34.0067 379.26 34.508 380.221 34.884C381.182 35.2182 382.602 35.6569 384.482 36.2C386.989 36.8684 389.036 37.5578 390.624 38.268C392.253 38.9364 393.652 39.9391 394.822 41.276C395.992 42.6129 396.598 44.3884 396.64 46.6027C396.64 48.5662 396.096 50.3209 395.01 51.8667C393.924 53.4124 392.378 54.624 390.373 55.5013C388.409 56.3787 386.091 56.8173 383.417 56.8173Z" fill="#11243E"/>
<path d="M407.327 17.1493C406.032 17.1493 404.945 16.7107 404.068 15.8333C403.191 14.956 402.752 13.8698 402.752 12.5747C402.752 11.2796 403.191 10.1933 404.068 9.316C404.945 8.43867 406.032 8 407.327 8C408.58 8 409.646 8.43867 410.523 9.316C411.4 10.1933 411.839 11.2796 411.839 12.5747C411.839 13.8698 411.4 14.956 410.523 15.8333C409.646 16.7107 408.58 17.1493 407.327 17.1493ZM410.836 21.724V56.2533H403.692V21.724H410.836Z" fill="#11243E"/>
<path d="M426.693 26.8627C427.905 25.1916 429.555 23.8338 431.644 22.7893C433.774 21.7031 436.135 21.16 438.725 21.16C441.775 21.16 444.532 21.8911 446.997 23.3533C449.462 24.8156 451.405 26.9044 452.825 29.62C454.245 32.2938 454.956 35.3644 454.956 38.832C454.956 42.2996 454.245 45.412 452.825 48.1693C451.405 50.8849 449.441 53.0156 446.934 54.5613C444.469 56.0653 441.733 56.8173 438.725 56.8173C436.051 56.8173 433.67 56.2951 431.581 55.2507C429.534 54.2062 427.905 52.8693 426.693 51.24V56.2533H419.549V9.88H426.693V26.8627ZM447.686 38.832C447.686 36.4507 447.185 34.4036 446.182 32.6907C445.221 30.936 443.926 29.62 442.297 28.7427C440.709 27.8236 438.997 27.364 437.158 27.364C435.362 27.364 433.649 27.8236 432.02 28.7427C430.432 29.6618 429.137 30.9987 428.134 32.7533C427.173 34.508 426.693 36.576 426.693 38.9573C426.693 41.3387 427.173 43.4276 428.134 45.224C429.137 46.9787 430.432 48.3156 432.02 49.2347C433.649 50.1538 435.362 50.6133 437.158 50.6133C438.997 50.6133 440.709 50.1538 442.297 49.2347C443.926 48.2738 445.221 46.8951 446.182 45.0987C447.185 43.3022 447.686 41.2133 447.686 38.832Z" fill="#11243E"/>
<path d="M468.498 9.88V56.2533H461.354V9.88H468.498Z" fill="#11243E"/>
<path d="M508.857 38.1427C508.857 39.4378 508.774 40.6076 508.606 41.652H482.224C482.433 44.4093 483.456 46.6236 485.294 48.2947C487.133 49.9658 489.389 50.8013 492.062 50.8013C495.906 50.8013 498.622 49.1929 500.209 45.976H507.917C506.873 49.1511 504.972 51.7622 502.214 53.8093C499.499 55.8147 496.115 56.8173 492.062 56.8173C488.762 56.8173 485.796 56.0862 483.164 54.624C480.574 53.12 478.526 51.0311 477.022 48.3573C475.56 45.6418 474.829 42.5084 474.829 38.9573C474.829 35.4062 475.539 32.2938 476.96 29.62C478.422 26.9044 480.448 24.8156 483.038 23.3533C485.67 21.8911 488.678 21.16 492.062 21.16C495.321 21.16 498.225 21.8702 500.773 23.2907C503.322 24.7111 505.306 26.7164 506.726 29.3067C508.147 31.8551 508.857 34.8004 508.857 38.1427ZM501.4 35.8867C501.358 33.2547 500.418 31.1449 498.58 29.5573C496.742 27.9698 494.465 27.176 491.749 27.176C489.284 27.176 487.174 27.9698 485.42 29.5573C483.665 31.1031 482.621 33.2129 482.286 35.8867H501.4Z" fill="#11243E"/>
<path d="M80 21.0533V56.2533H87.5283V28.5333H97.7137C103.339 28.5333 107.899 33.0642 107.899 38.6533V56.2533H115.427V38.6533C115.427 28.9331 107.497 21.0533 97.7137 21.0533H80Z" stroke="#11243E" stroke-width="0.333333"/>
<path fill-rule="evenodd" clip-rule="evenodd" d="M146.177 35.7608C145.455 31.1811 142.646 27.8067 137.028 27.8067C131.81 27.8067 128.199 30.6975 127.237 35.7608H146.177ZM137.911 49.4221C142.325 49.4221 145.535 47.6541 147.462 45.806L152.197 50.7879C149.066 53.9228 144.734 56.2533 137.992 56.2533C126.434 56.2533 118.97 48.7805 118.97 38.6551C118.97 28.6087 126.836 21.0533 136.946 21.0533C148.423 21.0533 154.924 29.5723 154.364 41.3867H127.237C128.199 46.2895 131.73 49.4221 137.911 49.4221Z" stroke="#11243E" stroke-width="0.333333"/>
<path fill-rule="evenodd" clip-rule="evenodd" d="M185.148 35.7608C184.426 31.1811 181.616 27.8067 175.998 27.8067C170.78 27.8067 167.169 30.6975 166.207 35.7608H185.148ZM176.881 49.4221C181.295 49.4221 184.505 47.6541 186.432 45.806L191.167 50.7879C188.036 53.9228 183.704 56.2533 176.962 56.2533C165.404 56.2533 157.94 48.7805 157.94 38.6551C157.94 28.6087 165.807 21.0533 175.916 21.0533C187.393 21.0533 193.894 29.5723 193.334 41.3867H166.207C167.169 46.2895 170.7 49.4221 176.881 49.4221Z" stroke="#11243E" stroke-width="0.333333"/>
<path fill-rule="evenodd" clip-rule="evenodd" d="M196.91 21.3568H202.851V12.2533H210.4V21.3568H217.809V28.1805H210.4V42.0076C210.4 48.2625 211.378 49.2342 217.809 49.2342V56.2533H216.691C206.066 56.2533 202.851 52.9172 202.851 42.078V28.1805H196.91V21.3568Z" stroke="#11243E" stroke-width="0.333333"/>
<path fill-rule="evenodd" clip-rule="evenodd" d="M249.544 38.6539C249.544 32.6965 244.9 27.8227 239.031 27.8227C233.16 27.8227 228.587 32.6965 228.587 38.6539C228.587 44.6102 233.16 49.484 239.031 49.484C244.9 49.484 249.544 44.6102 249.544 38.6539ZM221.351 38.6539C221.351 28.7705 229.201 21.0533 239.031 21.0533C248.861 21.0533 256.779 28.7705 256.779 38.6539C256.779 48.4688 248.861 56.2533 239.031 56.2533C229.201 56.2533 221.351 48.4688 221.351 38.6539Z" stroke="#11243E" stroke-width="0.333333"/>
<path d="M270.844 12.7V56.2533H263.7V12.7H270.844Z" stroke="#11243E" stroke-width="0.333333"/>
<path d="M296.978 21.16C299.694 21.16 302.117 21.724 304.247 22.852C306.42 23.98 308.112 25.6511 309.323 27.8653C310.535 30.0796 311.141 32.7533 311.141 35.8867V56.2533H304.059V36.952C304.059 33.8604 303.287 31.5 301.741 29.8707C300.195 28.1996 298.085 27.364 295.411 27.364C292.738 27.364 290.607 28.1996 289.019 29.8707C287.474 31.5 286.701 33.8604 286.701 36.952V56.2533H279.557V21.724H286.701V25.672C287.871 24.2516 289.354 23.1444 291.15 22.3507C292.988 21.5569 294.931 21.16 296.978 21.16Z" stroke="#11243E" stroke-width="0.333333"/>
<path d="M332.935 49.8613L342.711 21.724H350.293L337.133 56.2533H328.611L315.513 21.724H323.159L332.935 49.8613Z" stroke="#11243E" stroke-width="0.333333"/>
<path d="M358.661 17.1493C357.366 17.1493 356.28 16.7107 355.403 15.8333C354.526 14.956 354.087 13.8698 354.087 12.5747C354.087 11.2796 354.526 10.1933 355.403 9.316C356.28 8.43867 357.366 8 358.661 8C359.915 8 360.98 8.43867 361.857 9.316C362.735 10.1933 363.173 11.2796 363.173 12.5747C363.173 13.8698 362.735 14.956 361.857 15.8333C360.98 16.7107 359.915 17.1493 358.661 17.1493ZM362.171 21.724V56.2533H355.027V21.724H362.171Z" stroke="#11243E" stroke-width="0.333333"/>
<path d="M383.417 56.8173C380.701 56.8173 378.257 56.3369 376.085 55.376C373.954 54.3733 372.262 53.0364 371.009 51.3653C369.756 49.6524 369.087 47.7516 369.004 45.6627H376.398C376.524 47.1249 377.213 48.3573 378.466 49.36C379.761 50.3209 381.37 50.8013 383.292 50.8013C385.297 50.8013 386.843 50.4253 387.929 49.6733C389.057 48.8796 389.621 47.8769 389.621 46.6653C389.621 45.3702 388.994 44.4093 387.741 43.7827C386.529 43.156 384.587 42.4667 381.913 41.7147C379.323 41.0044 377.213 40.3151 375.584 39.6467C373.954 38.9782 372.534 37.9547 371.322 36.576C370.152 35.1973 369.568 33.38 369.568 31.124C369.568 29.2858 370.111 27.6147 371.197 26.1107C372.283 24.5649 373.829 23.3533 375.834 22.476C377.881 21.5987 380.221 21.16 382.853 21.16C386.78 21.16 389.934 22.1627 392.316 24.168C394.739 26.1316 396.034 28.8262 396.201 32.252H389.057C388.932 30.7062 388.305 29.4738 387.177 28.5547C386.049 27.6356 384.524 27.176 382.602 27.176C380.722 27.176 379.281 27.5311 378.278 28.2413C377.276 28.9516 376.774 29.8916 376.774 31.0613C376.774 31.9804 377.108 32.7533 377.777 33.38C378.445 34.0067 379.26 34.508 380.221 34.884C381.182 35.2182 382.602 35.6569 384.482 36.2C386.989 36.8684 389.036 37.5578 390.624 38.268C392.253 38.9364 393.652 39.9391 394.822 41.276C395.992 42.6129 396.598 44.3884 396.64 46.6027C396.64 48.5662 396.096 50.3209 395.01 51.8667C393.924 53.4124 392.378 54.624 390.373 55.5013C388.409 56.3787 386.091 56.8173 383.417 56.8173Z" stroke="#11243E" stroke-width="0.333333"/>
<path d="M407.327 17.1493C406.032 17.1493 404.945 16.7107 404.068 15.8333C403.191 14.956 402.752 13.8698 402.752 12.5747C402.752 11.2796 403.191 10.1933 404.068 9.316C404.945 8.43867 406.032 8 407.327 8C408.58 8 409.646 8.43867 410.523 9.316C411.4 10.1933 411.839 11.2796 411.839 12.5747C411.839 13.8698 411.4 14.956 410.523 15.8333C409.646 16.7107 408.58 17.1493 407.327 17.1493ZM410.836 21.724V56.2533H403.692V21.724H410.836Z" stroke="#11243E" stroke-width="0.333333"/>
<path d="M426.693 26.8627C427.905 25.1916 429.555 23.8338 431.644 22.7893C433.774 21.7031 436.135 21.16 438.725 21.16C441.775 21.16 444.532 21.8911 446.997 23.3533C449.462 24.8156 451.405 26.9044 452.825 29.62C454.245 32.2938 454.956 35.3644 454.956 38.832C454.956 42.2996 454.245 45.412 452.825 48.1693C451.405 50.8849 449.441 53.0156 446.934 54.5613C444.469 56.0653 441.733 56.8173 438.725 56.8173C436.051 56.8173 433.67 56.2951 431.581 55.2507C429.534 54.2062 427.905 52.8693 426.693 51.24V56.2533H419.549V9.88H426.693V26.8627ZM447.686 38.832C447.686 36.4507 447.185 34.4036 446.182 32.6907C445.221 30.936 443.926 29.62 442.297 28.7427C440.709 27.8236 438.997 27.364 437.158 27.364C435.362 27.364 433.649 27.8236 432.02 28.7427C430.432 29.6618 429.137 30.9987 428.134 32.7533C427.173 34.508 426.693 36.576 426.693 38.9573C426.693 41.3387 427.173 43.4276 428.134 45.224C429.137 46.9787 430.432 48.3156 432.02 49.2347C433.649 50.1538 435.362 50.6133 437.158 50.6133C438.997 50.6133 440.709 50.1538 442.297 49.2347C443.926 48.2738 445.221 46.8951 446.182 45.0987C447.185 43.3022 447.686 41.2133 447.686 38.832Z" stroke="#11243E" stroke-width="0.333333"/>
<path d="M468.498 9.88V56.2533H461.354V9.88H468.498Z" stroke="#11243E" stroke-width="0.333333"/>
<path d="M508.857 38.1427C508.857 39.4378 508.774 40.6076 508.606 41.652H482.224C482.433 44.4093 483.456 46.6236 485.294 48.2947C487.133 49.9658 489.389 50.8013 492.062 50.8013C495.906 50.8013 498.622 49.1929 500.209 45.976H507.917C506.873 49.1511 504.972 51.7622 502.214 53.8093C499.499 55.8147 496.115 56.8173 492.062 56.8173C488.762 56.8173 485.796 56.0862 483.164 54.624C480.574 53.12 478.526 51.0311 477.022 48.3573C475.56 45.6418 474.829 42.5084 474.829 38.9573C474.829 35.4062 475.539 32.2938 476.96 29.62C478.422 26.9044 480.448 24.8156 483.038 23.3533C485.67 21.8911 488.678 21.16 492.062 21.16C495.321 21.16 498.225 21.8702 500.773 23.2907C503.322 24.7111 505.306 26.7164 506.726 29.3067C508.147 31.8551 508.857 34.8004 508.857 38.1427ZM501.4 35.8867C501.358 33.2547 500.418 31.1449 498.58 29.5573C496.742 27.9698 494.465 27.176 491.749 27.176C489.284 27.176 487.174 27.9698 485.42 29.5573C483.665 31.1031 482.621 33.2129 482.286 35.8867H501.4Z" stroke="#11243E" stroke-width="0.333333"/>
<defs>
<filter id="filter0_d_3239_12161" x="17.6003" y="20.3428" width="34.6113" height="35.891" filterUnits="userSpaceOnUse" color-interpolation-filters="sRGB">
<feFlood flood-opacity="0" result="BackgroundImageFix"/>
<feColorMatrix in="SourceAlpha" type="matrix" values="0 0 0 0 0 0 0 0 0 0 0 0 0 0 0 0 0 0 127 0" result="hardAlpha"/>
<feOffset dx="3" dy="4"/>
<feGaussianBlur stdDeviation="1.5"/>
<feComposite in2="hardAlpha" operator="out"/>
<feColorMatrix type="matrix" values="0 0 0 0 0 0 0 0 0 0 0 0 0 0 0 0 0 0 0.05 0"/>
<feBlend mode="normal" in2="BackgroundImageFix" result="effect1_dropShadow_3239_12161"/>
<feBlend mode="normal" in="SourceGraphic" in2="effect1_dropShadow_3239_12161" result="shape"/>
</filter>
<linearGradient id="paint0_linear_3239_12161" x1="59.7714" y1="70.2286" x2="-7.6" y2="-17.7143" gradientUnits="userSpaceOnUse">
<stop stop-color="#28CCF0"/>
<stop offset="0.6986" stop-color="#799DFA"/>
</linearGradient>
</defs>
</svg>
