<svg width="578" height="144" viewBox="0 0 578 144" fill="none" xmlns="http://www.w3.org/2000/svg">
  <g clip-path="url(#clip0_318_35740)" data-logo-icon="neeto-typeface-logo__icon">
  <path d="M36.7364 23.0625C36.7364 14.6747 43.536 7.875 51.9239 7.875H110.741C119.129 7.875 125.928 14.6747 125.928 23.0625V99.9511C125.928 108.339 119.129 115.139 110.741 115.139H51.9238C43.536 115.139 36.7364 108.339 36.7364 99.9511V23.0625Z" fill="#5BCC5A"/>
  <path d="M15.75 44.0489C15.75 35.661 22.5497 28.8614 30.9375 28.8614H89.7546C98.1424 28.8614 104.942 35.661 104.942 44.0489V120.937C104.942 129.325 98.1424 136.125 89.7545 136.125H30.9375C22.5497 136.125 15.75 129.325 15.75 120.937V44.0489Z" fill="#75DC66"/>
  <path d="M104.942 115.139L51.9238 115.139C43.536 115.139 36.7364 108.339 36.7364 99.9511V28.8614H89.7546C98.1424 28.8614 104.942 35.661 104.942 44.0489V115.139Z" fill="#0DA84C"/>
  </g>
  <g data-logo-text="neeto-typeface-logo__text">
  <path d="M221.906 54.9492V67.9795H188.35V88.6205H214.065V101.42H188.35V135.437H172.207V54.9492H221.906Z" fill="black" data-dark-mode-color="true"/>
  <path d="M259.414 136.475C253.264 136.475 247.729 135.13 242.809 132.439C237.889 129.672 234.007 125.79 231.163 120.793C228.395 115.796 227.012 110.03 227.012 103.496C227.012 96.9614 228.434 91.1958 231.278 86.1989C234.199 81.202 238.158 77.3583 243.155 74.6677C248.152 71.9002 253.726 70.5164 259.876 70.5164C266.026 70.5164 271.599 71.9002 276.596 74.6677C281.593 77.3583 285.513 81.202 288.358 86.1989C291.279 91.1958 292.74 96.9614 292.74 103.496C292.74 110.03 291.241 115.796 288.242 120.793C285.321 125.79 281.324 129.672 276.25 132.439C271.253 135.13 265.641 136.475 259.414 136.475ZM259.414 122.407C262.336 122.407 265.065 121.715 267.602 120.331C270.215 118.871 272.291 116.718 273.828 113.874C275.366 111.03 276.135 107.57 276.135 103.496C276.135 97.4227 274.52 92.7717 271.292 89.543C268.14 86.2373 264.257 84.5845 259.645 84.5845C255.032 84.5845 251.15 86.2373 247.998 89.543C244.923 92.7717 243.386 97.4227 243.386 103.496C243.386 109.569 244.885 114.258 247.883 117.564C250.958 120.793 254.802 122.407 259.414 122.407Z" fill="black" data-dark-mode-color="true"/>
  <path d="M318.419 81.4711C320.495 78.0886 323.185 75.4364 326.491 73.5145C329.874 71.5927 333.717 70.6317 338.022 70.6317V87.5827H333.756C328.682 87.5827 324.838 88.7742 322.225 91.1573C319.688 93.5405 318.419 97.6917 318.419 103.611V135.437H302.275V71.5542H318.419V81.4711Z" fill="black" data-dark-mode-color="true"/>
  <path d="M425.925 70.6317C433.766 70.6317 440.07 73.0533 444.836 77.8964C449.679 82.6627 452.101 89.3508 452.101 97.9608V135.437H435.957V100.152C435.957 95.1548 434.688 91.3495 432.152 88.7358C429.615 86.0452 426.155 84.6998 421.773 84.6998C417.392 84.6998 413.894 86.0452 411.28 88.7358C408.743 91.3495 407.475 95.1548 407.475 100.152V135.437H391.331V100.152C391.331 95.1548 390.062 91.3495 387.526 88.7358C384.989 86.0452 381.529 84.6998 377.147 84.6998C372.689 84.6998 369.152 86.0452 366.539 88.7358C364.002 91.3495 362.733 95.1548 362.733 100.152V135.437H346.59V71.5542H362.733V79.2802C364.809 76.5895 367.461 74.4755 370.69 72.938C373.996 71.4005 377.609 70.6317 381.529 70.6317C386.526 70.6317 390.985 71.708 394.906 73.8605C398.826 75.9361 401.863 78.9342 404.015 82.8548C406.091 79.1648 409.089 76.2052 413.01 73.9758C417.007 71.7464 421.312 70.6317 425.925 70.6317Z" fill="black" data-dark-mode-color="true"/>
  <path d="M228.622 25.5097C228.622 26.3731 228.564 27.1502 228.449 27.841H210.978C211.122 29.5679 211.726 30.9206 212.79 31.8992C213.854 32.8777 215.163 33.367 216.716 33.367C218.959 33.367 220.555 32.4028 221.504 30.4745H228.018C227.327 32.777 226.005 34.6766 224.049 36.1732C222.094 37.6411 219.692 38.375 216.845 38.375C214.544 38.375 212.474 37.8713 210.633 36.864C208.822 35.8278 207.398 34.3744 206.363 32.5036C205.356 30.6328 204.853 28.4742 204.853 26.0278C204.853 23.5525 205.356 21.3795 206.363 19.5087C207.369 17.638 208.778 16.1989 210.59 15.1915C212.402 14.1842 214.487 13.6805 216.845 13.6805C219.117 13.6805 221.144 14.1698 222.927 15.1484C224.739 16.1269 226.134 17.5228 227.112 19.3361C228.118 21.1205 228.622 23.1784 228.622 25.5097ZM222.367 23.7828C222.338 22.2286 221.777 20.991 220.684 20.07C219.592 19.1202 218.254 18.6453 216.673 18.6453C215.177 18.6453 213.912 19.1058 212.877 20.0268C211.87 20.919 211.252 22.171 211.022 23.7828H222.367Z" fill="black" data-dark-mode-color="true"/>
  <path d="M255.245 25.5097C255.245 26.3731 255.188 27.1502 255.073 27.841H237.602C237.746 29.5679 238.35 30.9206 239.414 31.8992C240.478 32.8777 241.787 33.367 243.34 33.367C245.583 33.367 247.179 32.4028 248.128 30.4745H254.641C253.951 32.777 252.628 34.6766 250.673 36.1732C248.717 37.6411 246.316 38.375 243.469 38.375C241.168 38.375 239.098 37.8713 237.257 36.864C235.445 35.8278 234.022 34.3744 232.987 32.5036C231.98 30.6328 231.477 28.4742 231.477 26.0278C231.477 23.5525 231.98 21.3795 232.987 19.5087C233.993 17.638 235.402 16.1989 237.214 15.1915C239.026 14.1842 241.111 13.6805 243.469 13.6805C245.741 13.6805 247.768 14.1698 249.551 15.1484C251.363 16.1269 252.758 17.5228 253.736 19.3361C254.742 21.1205 255.245 23.1784 255.245 25.5097ZM248.99 23.7828C248.962 22.2286 248.401 20.991 247.308 20.07C246.215 19.1202 244.878 18.6453 243.296 18.6453C241.801 18.6453 240.536 19.1058 239.5 20.0268C238.494 20.919 237.875 22.171 237.645 23.7828H248.99Z" fill="black" data-dark-mode-color="true"/>
  <path d="M266.785 18.9874V30.6615C266.785 31.4674 266.997 31.9999 267.371 32.374C267.774 32.7194 268.435 32.8921 269.356 32.8921H272.16V37.9864H268.364C263.273 37.9864 260.838 35.383 260.838 30.4326V18.9874H257.636V13.9515H260.838V8H266.785V13.9515H272.16V18.9874H266.785Z" fill="black" data-dark-mode-color="true"/>
  <path d="M286.989 38.375C284.689 38.375 282.618 37.8713 280.778 36.864C278.937 35.8278 277.485 34.3744 276.421 32.5036C275.385 30.6328 274.868 28.4742 274.868 26.0278C274.868 23.5813 275.4 21.4227 276.464 19.5519C277.557 17.6811 279.038 16.2421 280.907 15.2347C282.776 14.1986 284.861 13.6805 287.162 13.6805C289.463 13.6805 291.548 14.1986 293.417 15.2347C295.286 16.2421 296.753 17.6811 297.817 19.5519C298.91 21.4227 299.456 23.5813 299.456 26.0278C299.456 28.4742 298.895 30.6328 297.774 32.5036C296.681 34.3744 295.185 35.8278 293.287 36.864C291.418 37.8713 289.319 38.375 286.989 38.375ZM286.989 33.108C288.082 33.108 289.103 32.849 290.052 32.3309C291.03 31.784 291.806 30.9782 292.382 29.9132C292.957 28.8483 293.244 27.5532 293.244 26.0278C293.244 23.754 292.64 22.0127 291.432 20.8039C290.253 19.5663 288.801 18.9475 287.076 18.9475C285.35 18.9475 283.898 19.5663 282.719 20.8039C281.568 22.0127 280.993 23.754 280.993 26.0278C280.993 28.3015 281.554 30.0572 282.676 31.2948C283.826 32.5036 285.264 33.108 286.989 33.108Z" fill="black" data-dark-mode-color="true"/>
  <path d="M199.752 8H188.159L199.752 25.3903V8Z" fill="black" data-dark-mode-color="true"/>
  <path d="M171 38.375L171 8H179.372L199.752 38.375H191.136L177.724 18.666V38.375H171Z" fill="black" data-dark-mode-color="true"/>
  </g>
  <defs>
  <clipPath id="clip0_318_35740">
  <rect width="128.25" height="128.25" fill="white" transform="translate(6.75 7.875)"/>
  </clipPath>
  </defs>
</svg>
