<svg width="369" height="64" viewBox="0 0 369 64" fill="none" xmlns="http://www.w3.org/2000/svg">
<path d="M47.9813 31.9876C47.9813 18.7379 37.2403 7.99689 23.9907 7.99689H0V55.9782H47.9813V31.9876Z" fill="url(#paint0_linear_3688_21317)"/>
<g filter="url(#filter0_d_3688_21317)">
<rect x="16.937" y="34.652" width="2.87719" height="2.87719" rx="0.239766" fill="white"/>
<rect x="16.937" y="38.394" width="2.87719" height="2.87719" rx="0.239766" fill="white"/>
<rect x="20.6763" y="30.9133" width="2.87719" height="2.87719" rx="0.239766" fill="white"/>
<rect x="20.6763" y="34.652" width="2.87719" height="2.87719" rx="0.239766" fill="white"/>
<rect x="20.6763" y="38.394" width="2.87719" height="2.87719" rx="0.239766" fill="white"/>
<rect x="24.4194" y="30.9133" width="2.87719" height="2.87719" rx="0.239766" fill="white"/>
<rect x="28.1611" y="30.9133" width="2.87719" height="2.87719" rx="0.239766" fill="white"/>
<rect x="24.4194" y="34.652" width="2.87719" height="2.87719" rx="0.239766" fill="white"/>
<rect x="24.4194" y="38.394" width="2.87719" height="2.87719" rx="0.239766" fill="white"/>
<rect x="28.1611" y="34.652" width="2.87719" height="2.87719" rx="0.239766" fill="white"/>
<rect x="17.9463" y="21.7059" width="2.15789" height="4.02806" rx="1.07895" fill="white"/>
<rect x="27.8701" y="21.7059" width="2.15789" height="4.02806" rx="1.07895" fill="white"/>
<path fill-rule="evenodd" clip-rule="evenodd" d="M27.4416 23.4328H20.5372V24.6548C20.5372 25.489 19.8609 26.1653 19.0267 26.1653C18.1924 26.1653 17.5161 25.489 17.5161 24.6548V23.4328H15.4519C13.7305 23.4328 12.335 24.8283 12.335 26.5498V42.7579C12.335 44.4794 13.7305 45.8749 15.4519 45.8749H32.5232C34.2447 45.8749 35.6402 44.4794 35.6402 42.7579V26.5498C35.6402 24.8283 34.2447 23.4328 32.5232 23.4328H30.4627V24.6548C30.4627 25.489 29.7864 26.1653 28.9521 26.1653C28.1179 26.1653 27.4416 25.489 27.4416 24.6548V23.4328ZM15.6927 29.1864C15.4279 29.1864 15.2132 29.4011 15.2132 29.6659V42.5173C15.2132 42.7822 15.4279 42.9969 15.6927 42.9969H32.2845C32.5494 42.9969 32.7641 42.7822 32.7641 42.5173V29.6659C32.7641 29.4011 32.5494 29.1864 32.2845 29.1864H15.6927Z" fill="white"/>
</g>
<path fill-rule="evenodd" clip-rule="evenodd" d="M90.0525 20.6376H73.2118L81.5443 28.8324H90.0525C95.4146 28.8324 99.7566 33.0815 99.7566 38.3172V55.9969H108.133V38.3172C108.133 28.5504 100.035 20.6376 90.0525 20.6376ZM80.3484 30.0257L71.9722 21.7879V55.9969H80.3484V30.0257ZM144.925 50.216L139.61 44.7138L139.292 45.0145C137.447 46.7558 134.356 48.4378 130.084 48.4378C127.081 48.4378 124.766 47.6896 123.092 46.3948C121.546 45.1987 120.513 43.5096 120 41.4281H146.889L146.909 41.0162C147.192 35.1467 145.694 30.0513 142.63 26.4153C139.561 22.7717 134.955 20.6376 129.123 20.6376C118.824 20.6376 110.782 28.2243 110.782 38.319C110.782 43.3903 112.684 47.8181 116.075 50.9766C119.465 54.1341 124.314 55.9969 130.165 55.9969C136.999 55.9969 141.425 53.6652 144.623 50.5141L144.925 50.216ZM183.735 50.216L178.42 44.7138L178.102 45.0145C176.257 46.7558 173.166 48.4378 168.894 48.4378C165.891 48.4378 163.576 47.6896 161.902 46.3948C160.356 45.1987 159.323 43.5096 158.81 41.4281H185.699L185.719 41.0162C186.002 35.1467 184.504 30.0513 181.44 26.4153C178.371 22.7717 173.765 20.6376 167.933 20.6376C157.634 20.6376 149.592 28.2243 149.592 38.319C149.592 43.3903 151.494 47.8181 154.885 50.9766C158.275 54.1341 163.124 55.9969 168.975 55.9969C175.809 55.9969 180.235 53.6652 183.433 50.5141L183.735 50.216ZM194.318 20.935H188.402V28.4867H194.318V41.6733C194.318 46.9977 195.113 50.6274 197.366 52.9038C199.623 55.1837 203.233 55.9969 208.541 55.9969H210.093V48.2537H209.654C208.057 48.2537 206.83 48.1937 205.881 48.0167C204.936 47.8403 204.308 47.555 203.871 47.1346C203.435 46.7152 203.141 46.1149 202.959 45.2128C202.777 44.3055 202.716 43.1324 202.716 41.6043V28.4867H210.093V20.935H202.716V12.014H194.318V20.935ZM129.205 28.1204C131.91 28.1204 133.894 28.9169 135.288 30.2163C136.579 31.4201 137.4 33.0889 137.793 35.0503H119.996C120.51 32.9018 121.555 31.2245 123.017 30.0608C124.594 28.8052 126.689 28.1204 129.205 28.1204ZM168.015 28.1204C170.72 28.1204 172.704 28.9169 174.098 30.2163C175.389 31.4201 176.21 33.0889 176.603 35.0503H158.807C159.32 32.9018 160.365 31.2245 161.827 30.0608C163.404 28.8052 165.499 28.1204 168.015 28.1204ZM230.789 28.136C236.377 28.136 240.819 32.7039 240.819 38.3178C240.819 43.9305 236.377 48.4984 230.789 48.4984C225.204 48.4984 220.827 43.9343 220.827 38.3178C220.827 32.7001 225.204 28.136 230.789 28.136ZM230.789 20.6376C220.761 20.6376 212.743 28.3903 212.743 38.3178C212.743 48.1771 220.76 55.9969 230.789 55.9969C240.816 55.9969 248.903 48.1793 248.903 38.3178C248.903 28.3881 240.815 20.6376 230.789 20.6376Z" fill="#11243E"/>
<path d="M252.901 33.5083C252.901 29.2069 253.862 25.3648 255.783 21.9821C257.746 18.5577 260.398 15.9058 263.738 14.0266C267.121 12.1055 270.901 11.145 275.077 11.145C279.963 11.145 284.243 12.3979 287.918 14.9036C291.593 17.4092 294.162 20.8755 295.623 25.3022H285.538C284.536 23.2141 283.116 21.648 281.278 20.604C279.483 19.56 277.395 19.0379 275.014 19.0379C272.467 19.0379 270.191 19.6435 268.186 20.8546C266.223 22.0239 264.678 23.6944 263.551 25.866C262.465 28.0376 261.922 30.585 261.922 33.5083C261.922 36.3899 262.465 38.9373 263.551 41.1507C264.678 43.3223 266.223 45.0136 268.186 46.2247C270.191 47.394 272.467 47.9787 275.014 47.9787C277.395 47.9787 279.483 47.4567 281.278 46.4126C283.116 45.3268 284.536 43.7399 285.538 41.6518H295.623C294.162 46.1203 291.593 49.6074 287.918 52.1131C284.285 54.577 280.005 55.809 275.077 55.809C270.901 55.809 267.121 54.8693 263.738 52.9901C260.398 51.069 257.746 48.4172 255.783 45.0345C253.862 41.6518 252.901 37.8098 252.901 33.5083Z" fill="#11243E"/>
<path d="M300.193 37.9559C300.193 34.448 300.882 31.3367 302.26 28.6222C303.68 25.9077 305.58 23.8196 307.96 22.358C310.382 20.8963 313.076 20.1655 316.041 20.1655C318.63 20.1655 320.885 20.6875 322.806 21.7316C324.769 22.7756 326.335 24.0911 327.505 25.678V20.7293H336.337V55.4331H327.505V50.3591C326.377 51.9878 324.811 53.345 322.806 54.4308C320.844 55.4749 318.568 55.9969 315.978 55.9969C313.055 55.9969 310.382 55.2452 307.96 53.7418C305.58 52.2384 303.68 50.1294 302.26 47.4149C300.882 44.6586 300.193 41.5057 300.193 37.9559ZM327.505 38.0812C327.505 35.9514 327.087 34.1347 326.252 32.6313C325.417 31.0861 324.289 29.9168 322.869 29.1234C321.449 28.2881 319.925 27.8705 318.296 27.8705C316.667 27.8705 315.164 28.2672 313.786 29.0607C312.408 29.8542 311.28 31.0235 310.403 32.5687C309.568 34.0721 309.15 35.8678 309.15 37.9559C309.15 40.044 309.568 41.8815 310.403 43.4684C311.28 45.0136 312.408 46.2038 313.786 47.0391C315.206 47.8743 316.709 48.2919 318.296 48.2919C319.925 48.2919 321.449 47.8952 322.869 47.1017C324.289 46.2665 325.417 45.0971 326.252 43.5937C327.087 42.0486 327.505 40.211 327.505 38.0812Z" fill="#11243E"/>
<path d="M353.006 9.07782V55.4331H344.236V9.07782H353.006Z" fill="#11243E"/>
<defs>
<filter id="filter0_d_3688_21317" x="12.335" y="21.7059" width="29.3028" height="31.1662" filterUnits="userSpaceOnUse" color-interpolation-filters="sRGB">
<feFlood flood-opacity="0" result="BackgroundImageFix"/>
<feColorMatrix in="SourceAlpha" type="matrix" values="0 0 0 0 0 0 0 0 0 0 0 0 0 0 0 0 0 0 127 0" result="hardAlpha"/>
<feOffset dx="2.99883" dy="3.99844"/>
<feGaussianBlur stdDeviation="1.49942"/>
<feComposite in2="hardAlpha" operator="out"/>
<feColorMatrix type="matrix" values="0 0 0 0 0 0 0 0 0 0 0 0 0 0 0 0 0 0 0.05 0"/>
<feBlend mode="normal" in2="BackgroundImageFix" result="effect1_dropShadow_3688_21317"/>
<feBlend mode="normal" in="SourceGraphic" in2="effect1_dropShadow_3688_21317" result="shape"/>
</filter>
<linearGradient id="paint0_linear_3688_21317" x1="47.9813" y1="65.7459" x2="25.3359" y2="13.6022" gradientUnits="userSpaceOnUse">
<stop stop-color="#EE4D5F"/>
<stop offset="1" stop-color="#FFCDA5"/>
</linearGradient>
</defs>
</svg>
