<svg width="411" height="64" viewBox="0 0 411 64" fill="none" xmlns="http://www.w3.org/2000/svg">
<path d="M47.9967 31.9977C47.9967 18.7438 37.2523 7.99939 23.9983 7.99939H0V55.9961H47.9967V31.9977Z" fill="url(#paint0_linear_3688_21385)"/>
<g filter="url(#filter0_d_3688_21385)">
<path d="M11.4092 32.406H16.4863C17.8884 32.406 19.0249 33.532 19.0249 34.921V38.6935C19.0249 40.777 17.3201 42.466 15.217 42.466C13.114 42.466 11.4092 40.777 11.4092 38.6935V32.406Z" fill="white"/>
<path d="M29.1792 34.921C29.1792 33.532 30.3158 32.406 31.7178 32.406H36.795V38.6935C36.795 40.777 35.0901 42.466 32.9871 42.466C30.8841 42.466 29.1792 40.777 29.1792 38.6935V34.921Z" fill="white"/>
<path d="M11.4719 32.406C12.1087 26.0514 17.5204 21.0885 24.1021 21.0885C30.6838 21.0885 36.0955 26.0514 36.7323 32.406H34.1778C33.5532 27.4435 29.2803 23.6035 24.1021 23.6035C18.9239 23.6035 14.6509 27.4435 14.0263 32.406H11.4719Z" fill="white"/>
</g>
<path fill-rule="evenodd" clip-rule="evenodd" d="M90.0807 20.0008H73.2346L81.5699 28.1982H90.0807C95.4445 28.1982 99.7879 32.4487 99.7879 37.6861V55.3713H108.167V37.6861C108.167 27.9161 100.067 20.0008 90.0807 20.0008ZM80.3735 29.3918L71.9946 21.1515V55.3713H80.3735V29.3918ZM144.971 49.5886L139.654 44.0847L139.336 44.3855C137.491 46.1273 134.399 47.8099 130.125 47.8099C127.121 47.8099 124.805 47.0614 123.131 45.7662C121.584 44.5697 120.551 42.88 120.038 40.798H146.936L146.955 40.3859C147.238 34.5145 145.74 29.4174 142.675 25.7804C139.605 22.1356 134.998 20.0008 129.164 20.0008C118.861 20.0008 110.817 27.5899 110.817 37.6878C110.817 42.7608 112.719 47.19 116.111 50.3495C119.502 53.508 124.353 55.3713 130.206 55.3713C137.042 55.3713 141.469 53.0389 144.669 49.8868L144.971 49.5886ZM183.794 49.5886L178.477 44.0847L178.158 44.3855C176.313 46.1273 173.221 47.8099 168.948 47.8099C165.943 47.8099 163.628 47.0614 161.953 45.7662C160.407 44.5697 159.373 42.88 158.86 40.798H185.758L185.778 40.3859C186.061 34.5145 184.562 29.4174 181.498 25.7804C178.427 22.1356 173.82 20.0008 167.987 20.0008C157.684 20.0008 149.639 27.5899 149.639 37.6878C149.639 42.7608 151.542 47.19 154.934 50.3495C158.325 53.508 163.175 55.3713 169.029 55.3713C175.865 55.3713 180.292 53.0389 183.491 49.8868L183.794 49.5886ZM194.38 20.2982H188.462V27.8523H194.38V41.0432C194.38 46.3693 195.175 50.0002 197.429 52.2773C199.686 54.5579 203.297 55.3713 208.607 55.3713H210.16V47.6257H209.72C208.123 47.6257 206.896 47.5657 205.946 47.3886C205.001 47.2122 204.372 46.9268 203.935 46.5062C203.499 46.0867 203.205 45.4863 203.024 44.5838C202.841 43.6762 202.78 42.5027 202.78 40.9742V27.8523H210.16V20.2982H202.78V11.3744H194.38V20.2982ZM129.246 27.486C131.952 27.486 133.936 28.2827 135.33 29.5825C136.622 30.7867 137.443 32.456 137.836 34.4181H120.034C120.548 32.2689 121.594 30.591 123.056 29.427C124.633 28.171 126.729 27.486 129.246 27.486ZM168.068 27.486C170.774 27.486 172.758 28.2827 174.153 29.5825C175.445 30.7867 176.265 32.456 176.659 34.4181H158.857C159.37 32.2689 160.416 30.591 161.878 29.427C163.455 28.171 165.552 27.486 168.068 27.486ZM230.862 27.5016C236.452 27.5016 240.895 32.0709 240.895 37.6866C240.895 43.3012 236.452 47.8705 230.862 47.8705C225.275 47.8705 220.897 43.3049 220.897 37.6866C220.897 32.0671 225.275 27.5016 230.862 27.5016ZM230.862 20.0008C220.831 20.0008 212.81 27.7559 212.81 37.6866C212.81 47.5491 220.83 55.3713 230.862 55.3713C240.893 55.3713 248.982 47.5512 248.982 37.6866C248.982 27.7538 240.892 20.0008 230.862 20.0008Z" fill="#11243E"/>
<path d="M270.596 11.0062C275.191 11.0062 279.223 11.9044 282.69 13.7007C286.199 15.497 288.894 18.0662 290.774 21.4082C292.695 24.7084 293.656 28.5517 293.656 32.938C293.656 37.3244 292.695 41.1677 290.774 44.4679C288.894 47.7263 286.199 50.2537 282.69 52.05C279.223 53.8464 275.191 54.7445 270.596 54.7445H255.307V11.0062H270.596ZM270.283 47.2877C274.878 47.2877 278.429 46.0344 280.936 43.528C283.442 41.0215 284.695 37.4915 284.695 32.938C284.695 28.3846 283.442 24.8337 280.936 22.2854C278.429 19.6954 274.878 18.4004 270.283 18.4004H264.079V47.2877H270.283Z" fill="#11243E"/>
<path d="M331.827 36.6351C331.827 37.8883 331.744 39.0163 331.577 40.0189H306.198C306.407 42.5254 307.285 44.4888 308.83 45.9091C310.376 47.3295 312.277 48.0396 314.532 48.0396C317.791 48.0396 320.109 46.6402 321.488 43.8413H330.95C329.947 47.1833 328.026 49.9404 325.185 52.1127C322.344 54.2432 318.856 55.3085 314.72 55.3085C311.378 55.3085 308.371 54.5774 305.697 53.1153C303.065 51.6114 300.997 49.5018 299.494 46.7864C298.031 44.071 297.3 40.9379 297.3 37.387C297.3 33.7944 298.031 30.6404 299.494 27.925C300.956 25.2097 303.003 23.1209 305.634 21.6588C308.266 20.1967 311.295 19.4656 314.72 19.4656C318.021 19.4656 320.966 20.1758 323.556 21.5961C326.188 23.0165 328.214 25.0426 329.634 27.6744C331.096 30.2644 331.827 33.2513 331.827 36.6351ZM322.741 34.1286C322.699 31.8728 321.885 30.0764 320.297 28.7396C318.71 27.3611 316.767 26.6718 314.47 26.6718C312.298 26.6718 310.459 27.3402 308.956 28.677C307.493 29.972 306.595 31.7892 306.261 34.1286H322.741Z" fill="#11243E"/>
<path d="M350.848 55.3085C348.008 55.3085 345.459 54.8072 343.204 53.8046C340.948 52.7602 339.151 51.3607 337.815 49.6062C336.52 47.8517 335.809 45.9091 335.684 43.7786H344.519C344.687 45.1154 345.334 46.2224 346.462 47.0997C347.632 47.977 349.073 48.4156 350.786 48.4156C352.457 48.4156 353.752 48.0814 354.671 47.413C355.632 46.7446 356.112 45.8882 356.112 44.8439C356.112 43.7159 355.527 42.8804 354.357 42.3374C353.23 41.7525 351.412 41.1259 348.906 40.4575C346.316 39.8309 344.185 39.1834 342.514 38.515C340.885 37.8466 339.465 36.8231 338.253 35.4445C337.084 34.0659 336.499 32.207 336.499 29.8676C336.499 27.9459 337.042 26.1914 338.128 24.6039C339.256 23.0165 340.843 21.7632 342.89 20.8442C344.979 19.9251 347.423 19.4656 350.222 19.4656C354.357 19.4656 357.658 20.51 360.122 22.5987C362.587 24.6457 363.945 27.4237 364.195 30.9328H355.799C355.673 29.5543 355.089 28.4681 354.044 27.6744C353.042 26.8389 351.684 26.4211 349.971 26.4211C348.384 26.4211 347.151 26.7136 346.274 27.2984C345.439 27.8833 345.021 28.6979 345.021 29.7422C345.021 30.9119 345.606 31.8101 346.775 32.4367C347.945 33.0216 349.762 33.6273 352.227 34.2539C354.733 34.8806 356.801 35.5281 358.431 36.1965C360.06 36.8649 361.459 37.9092 362.629 39.3296C363.84 40.7081 364.467 42.5462 364.509 44.8439C364.509 46.8491 363.945 48.6454 362.817 50.2328C361.731 51.8203 360.143 53.0735 358.055 53.9926C356.008 54.8698 353.606 55.3085 350.848 55.3085Z" fill="#11243E"/>
<path d="M391.597 54.7445L379.816 39.9562V54.7445H371.043V8.37439H379.816V34.7552L391.471 20.0296H402.876L387.586 37.4497L403.001 54.7445H391.597Z" fill="#11243E"/>
<defs>
<filter id="filter0_d_3688_21385" x="11.4092" y="21.0885" width="27.3679" height="23.3596" filterUnits="userSpaceOnUse" color-interpolation-filters="sRGB">
<feFlood flood-opacity="0" result="BackgroundImageFix"/>
<feColorMatrix in="SourceAlpha" type="matrix" values="0 0 0 0 0 0 0 0 0 0 0 0 0 0 0 0 0 0 127 0" result="hardAlpha"/>
<feOffset dx="0.991061" dy="0.991061"/>
<feGaussianBlur stdDeviation="0.495531"/>
<feComposite in2="hardAlpha" operator="out"/>
<feColorMatrix type="matrix" values="0 0 0 0 0 0 0 0 0 0 0 0 0 0 0 0 0 0 0.08 0"/>
<feBlend mode="normal" in2="BackgroundImageFix" result="effect1_dropShadow_3688_21385"/>
<feBlend mode="normal" in="SourceGraphic" in2="effect1_dropShadow_3688_21385" result="shape"/>
</filter>
<linearGradient id="paint0_linear_3688_21385" x1="25.5683" y1="75.2844" x2="25.344" y2="13.6065" gradientUnits="userSpaceOnUse">
<stop stop-color="#FD9437"/>
<stop offset="1" stop-color="#FFD55C"/>
</linearGradient>
</defs>
</svg>
