<svg width="409" height="64" viewBox="0 0 409 64" fill="none" xmlns="http://www.w3.org/2000/svg">
<path d="M56 32C56 18.7452 45.2548 8 32 8H8V56H56V32Z" fill="url(#paint0_linear_3239_11510)"/>
<g clip-path="url(#clip0_3239_11510)">
<g filter="url(#filter0_d_3239_11510)">
<path fill-rule="evenodd" clip-rule="evenodd" d="M26.3358 33.0938C25.4257 32.1837 23.9502 32.1837 23.0401 33.0938C22.13 34.0039 22.13 35.4794 23.0401 36.3895C23.9502 37.2996 25.4257 37.2996 26.3358 36.3895C27.2459 35.4794 27.2459 34.0039 26.3358 33.0938ZM28.2127 31.2168C26.266 29.2702 23.1098 29.2702 21.1631 31.2168C19.2165 33.1635 19.2165 36.3197 21.1631 38.2664C23.1098 40.2131 26.266 40.2131 28.2127 38.2664C30.1594 36.3197 30.1594 33.1635 28.2127 31.2168Z" fill="white"/>
<path fill-rule="evenodd" clip-rule="evenodd" d="M40.9627 25.7803C40.0526 24.8702 38.5771 24.8702 37.667 25.7803C36.7569 26.6904 36.7569 28.1659 37.667 29.076C38.5771 29.9861 40.0526 29.9861 40.9627 29.076C41.8728 28.1659 41.8728 26.6904 40.9627 25.7803ZM42.8397 23.9034C40.893 21.9567 37.7368 21.9567 35.7901 23.9034C33.8434 25.8501 33.8434 29.0062 35.7901 30.9529C37.7368 32.8996 40.893 32.8996 42.8397 30.9529C44.7863 29.0062 44.7863 25.8501 42.8397 23.9034Z" fill="white"/>
<path fill-rule="evenodd" clip-rule="evenodd" d="M40.9627 40.4073C40.0526 39.4972 38.5771 39.4972 37.667 40.4073C36.7569 41.3173 36.7569 42.7929 37.667 43.703C38.5771 44.613 40.0526 44.613 40.9627 43.703C41.8728 42.7929 41.8728 41.3173 40.9627 40.4073ZM42.8397 38.5303C40.893 36.5836 37.7368 36.5836 35.7901 38.5303C33.8434 40.477 33.8434 43.6332 35.7901 45.5799C37.7368 47.5266 40.893 47.5266 42.8397 45.5799C44.7863 43.6332 44.7863 40.477 42.8397 38.5303Z" fill="white"/>
<path fill-rule="evenodd" clip-rule="evenodd" d="M37.2486 28.4566C37.5764 29.1122 37.3107 29.9094 36.6551 30.2372L28.5363 34.2966C27.8806 34.6244 27.0834 34.3587 26.7556 33.7031C26.4278 33.0475 26.6936 32.2503 27.3492 31.9225L35.468 27.8631C36.1236 27.5353 36.9208 27.801 37.2486 28.4566Z" fill="white"/>
<path fill-rule="evenodd" clip-rule="evenodd" d="M26.7556 35.7808C27.0834 35.1252 27.8806 34.8595 28.5363 35.1873L36.6551 39.2467C37.3107 39.5745 37.5764 40.3717 37.2486 41.0273C36.9208 41.6829 36.1236 41.9487 35.468 41.6209L27.3492 37.5614C26.6936 37.2336 26.4278 36.4364 26.7556 35.7808Z" fill="white"/>
</g>
</g>
<path d="M80 20.8V56H87.5283V28.28H97.7137C103.339 28.28 107.899 32.8109 107.899 38.4V56H115.427V38.4C115.427 28.6798 107.497 20.8 97.7137 20.8H80Z" fill="#11243E"/>
<path fill-rule="evenodd" clip-rule="evenodd" d="M146.177 35.5075C145.455 30.9277 142.646 27.5534 137.028 27.5534C131.81 27.5534 128.199 30.4442 127.237 35.5075H146.177ZM137.911 49.1688C142.325 49.1688 145.535 47.4008 147.462 45.5526L152.197 50.5345C149.066 53.6695 144.734 56 137.992 56C126.434 56 118.97 48.5271 118.97 38.4018C118.97 28.3554 126.836 20.8 136.946 20.8C148.423 20.8 154.924 29.319 154.364 41.1333H127.237C128.199 46.0362 131.73 49.1688 137.911 49.1688Z" fill="#11243E"/>
<path fill-rule="evenodd" clip-rule="evenodd" d="M185.148 35.5075C184.426 30.9277 181.616 27.5534 175.998 27.5534C170.78 27.5534 167.169 30.4442 166.207 35.5075H185.148ZM176.881 49.1688C181.295 49.1688 184.505 47.4008 186.432 45.5526L191.167 50.5345C188.036 53.6695 183.704 56 176.962 56C165.404 56 157.94 48.5271 157.94 38.4018C157.94 28.3554 165.807 20.8 175.916 20.8C187.393 20.8 193.894 29.319 193.334 41.1333H166.207C167.169 46.0362 170.7 49.1688 176.881 49.1688Z" fill="#11243E"/>
<path fill-rule="evenodd" clip-rule="evenodd" d="M196.91 21.1034H202.851V12H210.4V21.1034H217.809V27.9271H210.4V41.7543C210.4 48.0092 211.378 48.9809 217.809 48.9809V56H216.691C206.066 56 202.851 52.6639 202.851 41.8247V27.9271H196.91V21.1034Z" fill="#11243E"/>
<path fill-rule="evenodd" clip-rule="evenodd" d="M249.544 38.4006C249.544 32.4431 244.9 27.5694 239.031 27.5694C233.16 27.5694 228.587 32.4431 228.587 38.4006C228.587 44.3569 233.16 49.2306 239.031 49.2306C244.9 49.2306 249.544 44.3569 249.544 38.4006ZM221.351 38.4006C221.351 28.5172 229.201 20.8 239.031 20.8C248.861 20.8 256.779 28.5172 256.779 38.4006C256.779 48.2155 248.861 56 239.031 56C229.201 56 221.351 48.2155 221.351 38.4006Z" fill="#11243E"/>
<path d="M261.319 34.1293C261.319 29.868 262.3 26.0453 264.264 22.6613C266.269 19.2773 268.964 16.6453 272.348 14.7653C275.774 12.8436 279.513 11.8827 283.565 11.8827C288.203 11.8827 292.318 13.0316 295.911 15.3293C299.545 17.5853 302.177 20.8022 303.807 24.98H295.221C294.093 22.6822 292.527 20.9693 290.521 19.8413C288.516 18.7133 286.197 18.1493 283.565 18.1493C280.683 18.1493 278.113 18.7969 275.857 20.092C273.601 21.3871 271.826 23.2462 270.531 25.6693C269.277 28.0924 268.651 30.9124 268.651 34.1293C268.651 37.3462 269.277 40.1662 270.531 42.5893C271.826 45.0124 273.601 46.8924 275.857 48.2293C278.113 49.5244 280.683 50.172 283.565 50.172C286.197 50.172 288.516 49.608 290.521 48.48C292.527 47.352 294.093 45.6391 295.221 43.3413H303.807C302.177 47.5191 299.545 50.736 295.911 52.992C292.318 55.248 288.203 56.376 283.565 56.376C279.471 56.376 275.732 55.436 272.348 53.556C268.964 51.6342 266.269 48.9813 264.264 45.5973C262.3 42.2133 261.319 38.3907 261.319 34.1293ZM334.125 56L324.098 38.5787H318.646V56H311.502V12.4467H326.542C329.884 12.4467 332.704 13.0316 335.002 14.2013C337.342 15.3711 339.075 16.9378 340.203 18.9013C341.373 20.8649 341.958 23.0582 341.958 25.4813C341.958 28.3222 341.123 30.9124 339.451 33.252C337.822 35.5498 335.295 37.1164 331.869 37.952L342.647 56H334.125ZM318.646 32.876H326.542C329.216 32.876 331.221 32.2076 332.558 30.8707C333.937 29.5338 334.626 27.7373 334.626 25.4813C334.626 23.2253 333.958 21.4707 332.621 20.2173C331.284 18.9222 329.258 18.2747 326.542 18.2747H318.646V32.876ZM396.302 12.4467V56H389.158V26.1707L375.873 56H370.922L357.574 26.1707V56H350.43V12.4467H358.138L373.429 46.6L388.657 12.4467H396.302Z" fill="#11243E"/>
<path d="M264.264 22.6613L264.121 22.5764L264.12 22.5777L264.264 22.6613ZM272.348 14.7653L272.429 14.911L272.43 14.9107L272.348 14.7653ZM295.911 15.3293L295.821 15.4698L295.823 15.4709L295.911 15.3293ZM303.807 24.98V25.1467H304.051L303.962 24.9194L303.807 24.98ZM295.221 24.98L295.072 25.0534L295.117 25.1467H295.221V24.98ZM290.521 19.8413L290.603 19.6961L290.521 19.8413ZM275.857 20.092L275.94 20.2365L275.857 20.092ZM270.531 25.6693L270.384 25.5908L270.383 25.5928L270.531 25.6693ZM270.531 42.5893L270.383 42.6659L270.384 42.6679L270.531 42.5893ZM275.857 48.2293L275.772 48.3727L275.774 48.3739L275.857 48.2293ZM290.521 48.48L290.603 48.6253L290.521 48.48ZM295.221 43.3413V43.1747H295.117L295.072 43.2679L295.221 43.3413ZM303.807 43.3413L303.962 43.4019L304.051 43.1747H303.807V43.3413ZM295.911 52.992L295.823 52.8504L295.822 52.8509L295.911 52.992ZM272.348 53.556L272.266 53.7009L272.267 53.7017L272.348 53.556ZM264.264 45.5973L264.12 45.681L264.121 45.6823L264.264 45.5973ZM261.485 34.1293C261.485 29.8947 262.461 26.1013 264.408 22.745L264.12 22.5777C262.14 25.9893 261.152 29.8413 261.152 34.1293H261.485ZM264.407 22.7463C266.398 19.3873 269.071 16.7764 272.429 14.911L272.267 14.6196C268.857 16.5142 266.141 19.1674 264.121 22.5764L264.407 22.7463ZM272.43 14.9107C275.83 13.0033 279.541 12.0493 283.565 12.0493V11.716C279.485 11.716 275.718 12.6838 272.266 14.62L272.43 14.9107ZM283.565 12.0493C288.174 12.0493 292.257 13.1906 295.821 15.4697L296 15.1889C292.378 12.8725 288.232 11.716 283.565 11.716V12.0493ZM295.823 15.4709C299.425 17.707 302.034 20.8946 303.651 25.0406L303.962 24.9194C302.32 20.7098 299.665 17.4637 295.999 15.1877L295.823 15.4709ZM303.807 24.8133H295.221V25.1467H303.807V24.8133ZM295.371 24.9066C294.23 22.5821 292.641 20.8424 290.603 19.6961L290.44 19.9866C292.412 21.0962 293.957 22.7824 295.072 25.0534L295.371 24.9066ZM290.603 19.6961C288.569 18.5521 286.222 17.9827 283.565 17.9827V18.316C286.173 18.316 288.463 18.8745 290.44 19.9866L290.603 19.6961ZM283.565 17.9827C280.657 17.9827 278.058 18.6363 275.774 19.9475L275.94 20.2365C278.168 18.9575 280.709 18.316 283.565 18.316V17.9827ZM275.774 19.9475C273.49 21.259 271.693 23.1417 270.384 25.5908L270.678 25.7479C271.959 23.3507 273.713 21.5152 275.94 20.2365L275.774 19.9475ZM270.383 25.5928C269.115 28.0434 268.484 30.8906 268.484 34.1293H268.817C268.817 30.9343 269.44 28.1414 270.679 25.7459L270.383 25.5928ZM268.484 34.1293C268.484 37.3681 269.115 40.2152 270.383 42.6659L270.679 42.5128C269.44 40.1172 268.817 37.3243 268.817 34.1293H268.484ZM270.384 42.6679C271.692 45.1165 273.489 47.0195 275.772 48.3727L275.942 48.086C273.714 46.7654 271.959 44.9084 270.678 42.5108L270.384 42.6679ZM275.774 48.3739C278.058 49.685 280.657 50.3387 283.565 50.3387V50.0053C280.709 50.0053 278.168 49.3639 275.94 48.0848L275.774 48.3739ZM283.565 50.3387C286.222 50.3387 288.569 49.7692 290.603 48.6253L290.44 48.3347C288.463 49.4468 286.173 50.0053 283.565 50.0053V50.3387ZM290.603 48.6253C292.641 47.4789 294.23 45.7393 295.371 43.4148L295.072 43.2679C293.957 45.539 292.412 47.2251 290.44 48.3347L290.603 48.6253ZM295.221 43.508H303.807V43.1747H295.221V43.508ZM303.651 43.2808C302.034 47.4267 299.425 50.6144 295.823 52.8504L295.999 53.1336C299.665 50.8576 302.32 47.6115 303.962 43.4019L303.651 43.2808ZM295.822 52.8509C292.258 55.0886 288.174 56.2093 283.565 56.2093V56.5427C288.231 56.5427 292.377 55.4074 295.999 53.1331L295.822 52.8509ZM283.565 56.2093C279.498 56.2093 275.787 55.2758 272.429 53.4103L272.267 53.7017C275.677 55.5962 279.444 56.5427 283.565 56.5427V56.2093ZM272.43 53.4111C269.072 51.5038 266.398 48.8717 264.407 45.5124L264.121 45.6823C266.141 49.091 268.856 51.7647 272.266 53.7009L272.43 53.4111ZM264.408 45.5137C262.461 42.1573 261.485 38.364 261.485 34.1293H261.152C261.152 38.4173 262.14 42.2693 264.12 45.681L264.408 45.5137ZM334.125 56L333.98 56.0831L334.028 56.1667H334.125V56ZM324.098 38.5787L324.243 38.4955L324.194 38.412H324.098V38.5787ZM318.646 38.5787V38.412H318.479V38.5787H318.646ZM318.646 56V56.1667H318.813V56H318.646ZM311.502 56H311.335V56.1667H311.502V56ZM311.502 12.4467V12.28H311.335V12.4467H311.502ZM335.002 14.2013L334.926 14.3499L334.928 14.3504L335.002 14.2013ZM340.203 18.9013L340.059 18.9844L340.06 18.9866L340.203 18.9013ZM339.451 33.252L339.316 33.1551L339.315 33.1556L339.451 33.252ZM331.869 37.952L331.829 37.7901L331.61 37.8436L331.726 38.0375L331.869 37.952ZM342.647 56V56.1667H342.941L342.791 55.9145L342.647 56ZM318.646 32.876H318.479V33.0427H318.646V32.876ZM332.558 30.8707L332.442 30.751L332.44 30.7528L332.558 30.8707ZM332.621 20.2173L332.505 20.3371L332.507 20.3389L332.621 20.2173ZM318.646 18.2747V18.108H318.479V18.2747H318.646ZM334.269 55.9169L324.243 38.4955L323.954 38.6618L333.98 56.0831L334.269 55.9169ZM324.098 38.412H318.646V38.7453H324.098V38.412ZM318.479 38.5787V56H318.813V38.5787H318.479ZM318.646 55.8333H311.502V56.1667H318.646V55.8333ZM311.669 56V12.4467H311.335V56H311.669ZM311.502 12.6133H326.542V12.28H311.502V12.6133ZM326.542 12.6133C329.866 12.6133 332.658 13.195 334.926 14.3499L335.078 14.0528C332.751 12.8681 329.903 12.28 326.542 12.28V12.6133ZM334.928 14.3504C337.242 15.5079 338.95 17.0534 340.059 18.9844L340.348 18.8183C339.201 16.8221 337.441 15.2344 335.077 14.0523L334.928 14.3504ZM340.06 18.9866C341.214 20.9228 341.791 23.0864 341.791 25.4813H342.125C342.125 23.0301 341.533 20.807 340.347 18.816L340.06 18.9866ZM341.791 25.4813C341.791 28.287 340.967 30.8435 339.316 33.1551L339.587 33.3489C341.278 30.9814 342.125 28.3574 342.125 25.4813H341.791ZM339.315 33.1556C337.715 35.413 335.226 36.9616 331.829 37.7901L331.908 38.1139C335.363 37.2713 337.929 35.6865 339.587 33.3484L339.315 33.1556ZM331.726 38.0375L342.504 56.0855L342.791 55.9145L332.012 37.8665L331.726 38.0375ZM342.647 55.8333H334.125V56.1667H342.647V55.8333ZM318.646 33.0427H326.542V32.7093H318.646V33.0427ZM326.542 33.0427C329.242 33.0427 331.297 32.3677 332.676 30.9885L332.44 30.7528C331.146 32.0474 329.19 32.7093 326.542 32.7093V33.0427ZM332.674 30.9903C334.091 29.6166 334.793 27.7739 334.793 25.4813H334.459C334.459 27.7008 333.783 29.451 332.442 30.751L332.674 30.9903ZM334.793 25.4813C334.793 23.1907 334.113 21.3876 332.735 20.0957L332.507 20.3389C333.803 21.5537 334.459 23.26 334.459 25.4813H334.793ZM332.737 20.0976C331.357 18.761 329.281 18.108 326.542 18.108V18.4413C329.234 18.4413 331.211 19.0834 332.505 20.337L332.737 20.0976ZM326.542 18.108H318.646V18.4413H326.542V18.108ZM318.479 18.2747V32.876H318.813V18.2747H318.479ZM396.302 12.4467H396.469V12.28H396.302V12.4467ZM396.302 56V56.1667H396.469V56H396.302ZM389.158 56H388.992V56.1667H389.158V56ZM389.158 26.1707H389.325L389.006 26.1029L389.158 26.1707ZM375.873 56V56.1667H375.981L376.025 56.0678L375.873 56ZM370.922 56L370.77 56.0681L370.814 56.1667H370.922V56ZM357.574 26.1707L357.727 26.1026L357.408 26.1707H357.574ZM357.574 56V56.1667H357.741V56H357.574ZM350.43 56H350.264V56.1667H350.43V56ZM350.43 12.4467V12.28H350.264V12.4467H350.43ZM358.138 12.4467L358.291 12.3786L358.246 12.28H358.138V12.4467ZM373.429 46.6L373.277 46.6681L373.429 47.0086L373.581 46.6679L373.429 46.6ZM388.657 12.4467V12.28H388.549L388.505 12.3788L388.657 12.4467ZM396.136 12.4467V56H396.469V12.4467H396.136ZM396.302 55.8333H389.158V56.1667H396.302V55.8333ZM389.325 56V26.1707H388.992V56H389.325ZM389.006 26.1029L375.721 55.9322L376.025 56.0678L389.311 26.2385L389.006 26.1029ZM375.873 55.8333H370.922V56.1667H375.873V55.8333ZM371.075 55.9319L357.727 26.1026L357.422 26.2387L370.77 56.0681L371.075 55.9319ZM357.408 26.1707V56H357.741V26.1707H357.408ZM357.574 55.8333H350.43V56.1667H357.574V55.8333ZM350.597 56V12.4467H350.264V56H350.597ZM350.43 12.6133H358.138V12.28H350.43V12.6133ZM357.986 12.5148L373.277 46.6681L373.581 46.5319L358.291 12.3786L357.986 12.5148ZM373.581 46.6679L388.809 12.5145L388.505 12.3788L373.277 46.5321L373.581 46.6679ZM388.657 12.6133H396.302V12.28H388.657V12.6133Z" fill="#11243E"/>
<defs>
<filter id="filter0_d_3239_11510" x="19.7031" y="22.4434" width="26.311" height="26.5965" filterUnits="userSpaceOnUse" color-interpolation-filters="sRGB">
<feFlood flood-opacity="0" result="BackgroundImageFix"/>
<feColorMatrix in="SourceAlpha" type="matrix" values="0 0 0 0 0 0 0 0 0 0 0 0 0 0 0 0 0 0 127 0" result="hardAlpha"/>
<feOffset dx="0.857143" dy="1.14286"/>
<feGaussianBlur stdDeviation="0.428571"/>
<feComposite in2="hardAlpha" operator="out"/>
<feColorMatrix type="matrix" values="0 0 0 0 0 0 0 0 0 0 0 0 0 0 0 0 0 0 0.05 0"/>
<feBlend mode="normal" in2="BackgroundImageFix" result="effect1_dropShadow_3239_11510"/>
<feBlend mode="normal" in="SourceGraphic" in2="effect1_dropShadow_3239_11510" result="shape"/>
</filter>
<linearGradient id="paint0_linear_3239_11510" x1="56" y1="65.7714" x2="33.3458" y2="13.6075" gradientUnits="userSpaceOnUse">
<stop stop-color="#609AF0"/>
<stop offset="1" stop-color="#6BD1F1"/>
</linearGradient>
<clipPath id="clip0_3239_11510">
<rect width="32.9143" height="32.9143" fill="white" transform="translate(15.543 18.2852)"/>
</clipPath>
</defs>
</svg>
