<svg width="374" height="65" viewBox="0 0 374 65" fill="none" xmlns="http://www.w3.org/2000/svg">
<path d="M48 32.9956C48 19.7408 37.2548 8.99561 24 8.99561H0V56.9956H48V32.9956Z" fill="url(#paint0_linear_3688_21491)"/>
<g filter="url(#filter0_d_3688_21491)">
<path fill-rule="evenodd" clip-rule="evenodd" d="M34.1366 22.4019L34.1705 22.3667H11.1196C10.4697 22.3667 9.94287 22.8935 9.94287 23.5435V25.3481H29.3997V25.6619H9.94287V42.6853C9.94287 43.3352 10.4697 43.8621 11.1196 43.8621H36.5375C37.1874 43.8621 37.7143 43.3352 37.7143 42.6853V25.8473L34.1366 22.4019ZM33.3699 23.1977L26.4726 30.3599L30.1863 33.9363L37.0836 26.7741L33.3699 23.1977ZM25.7258 31.1747L24.4981 36.1277L29.4014 34.7144L25.7258 31.1747ZM12.2968 23.9351C12.2968 24.195 12.086 24.4058 11.8261 24.4058C11.5661 24.4058 11.3554 24.195 11.3554 23.9351C11.3554 23.6751 11.5661 23.4644 11.8261 23.4644C12.086 23.4644 12.2968 23.6751 12.2968 23.9351ZM13.2394 24.4058C13.4993 24.4058 13.7101 24.195 13.7101 23.9351C13.7101 23.6751 13.4993 23.4644 13.2394 23.4644C12.9794 23.4644 12.7687 23.6751 12.7687 23.9351C12.7687 24.195 12.9794 24.4058 13.2394 24.4058ZM15.121 23.9351C15.121 24.195 14.9103 24.4058 14.6503 24.4058C14.3903 24.4058 14.1796 24.195 14.1796 23.9351C14.1796 23.6751 14.3903 23.4644 14.6503 23.4644C14.9103 23.4644 15.121 23.6751 15.121 23.9351Z" fill="white"/>
</g>
<path fill-rule="evenodd" clip-rule="evenodd" d="M90.0873 21.6226H73.2401L81.5759 29.8206H90.0873C95.4515 29.8206 99.7952 34.0714 99.7952 39.3091V56.9956H108.175V39.3091C108.175 29.5385 100.074 21.6226 90.0873 21.6226ZM80.3794 31.0143L72 22.7734V56.9956H80.3794V31.0143ZM144.982 51.2125L139.664 45.7081L139.346 46.009C137.501 47.751 134.408 49.4336 130.135 49.4336C127.13 49.4336 124.814 48.6851 123.14 47.3898C121.593 46.1932 120.559 44.5034 120.047 42.4212H146.946L146.966 42.0092C147.249 36.1373 145.75 31.0399 142.686 27.4026C139.615 23.7575 135.007 21.6226 129.173 21.6226C118.87 21.6226 110.825 29.2122 110.825 39.3108C110.825 44.3842 112.728 48.8137 116.12 51.9734C119.511 55.1321 124.362 56.9956 130.216 56.9956C137.052 56.9956 141.48 54.663 144.679 51.5107L144.982 51.2125ZM183.807 51.2125L178.49 45.7081L178.171 46.009C176.326 47.751 173.233 49.4336 168.96 49.4336C165.955 49.4336 163.639 48.6851 161.965 47.3898C160.418 46.1932 159.385 44.5034 158.872 42.4212H185.771L185.791 42.0092C186.074 36.1373 184.575 31.0399 181.511 27.4026C178.44 23.7575 173.832 21.6226 167.999 21.6226C157.695 21.6226 149.65 29.2122 149.65 39.3108C149.65 44.3842 151.553 48.8137 154.945 51.9734C158.336 55.1321 163.187 56.9956 169.041 56.9956C175.877 56.9956 180.305 54.663 183.504 51.5107L183.807 51.2125ZM194.393 21.9201H188.475V29.4747H194.393V42.6664C194.393 47.9929 195.189 51.6241 197.443 53.9013C199.701 56.1821 203.311 56.9956 208.622 56.9956H210.175V49.2494H209.735C208.138 49.2494 206.91 49.1894 205.961 49.0123C205.015 48.8359 204.387 48.5505 203.95 48.1299C203.514 47.7103 203.22 47.1098 203.038 46.2073C202.856 45.2997 202.794 44.1261 202.794 42.5975V29.4747H210.175V21.9201H202.794V12.9956H194.393V21.9201ZM129.255 29.1083C131.961 29.1083 133.946 29.9051 135.34 31.205C136.632 32.4093 137.453 34.0787 137.846 36.0409H120.043C120.557 33.8916 121.603 32.2136 123.065 31.0494C124.642 29.7934 126.738 29.1083 129.255 29.1083ZM168.081 29.1083C170.786 29.1083 172.771 29.9051 174.165 31.205C175.457 32.4093 176.278 34.0787 176.672 36.0409H158.868C159.382 33.8916 160.428 32.2136 161.89 31.0494C163.467 29.7934 165.563 29.1083 168.081 29.1083ZM230.879 29.1239C236.469 29.1239 240.913 33.6936 240.913 39.3097C240.913 44.9246 236.469 49.4943 230.879 49.4943C225.291 49.4943 220.913 44.9284 220.913 39.3097C220.913 33.6898 225.291 29.1239 230.879 29.1239ZM230.879 21.6226C220.846 21.6226 212.825 29.3783 212.825 39.3097C212.825 49.1728 220.845 56.9956 230.879 56.9956C240.91 56.9956 249 49.175 249 39.3097C249 29.3761 240.909 21.6226 230.879 21.6226Z" fill="#11243E"/>
<path d="M270.231 56.8702C267.181 56.8702 264.424 56.348 261.959 55.3036C259.536 54.2591 257.614 52.7551 256.193 50.7916C254.773 48.828 254.042 46.5093 254 43.8356H263.4C263.525 45.632 264.152 47.0525 265.28 48.0969C266.45 49.1413 268.037 49.6636 270.043 49.6636C272.09 49.6636 273.698 49.1831 274.868 48.2222C276.038 47.2196 276.623 45.9245 276.623 44.3369C276.623 43.0418 276.226 41.9765 275.432 41.1409C274.638 40.3053 273.636 39.6578 272.424 39.1982C271.254 38.6969 269.625 38.1538 267.536 37.5689C264.695 36.7334 262.376 35.9187 260.58 35.1249C258.825 34.2894 257.3 33.0569 256.005 31.4276C254.752 29.7565 254.125 27.5422 254.125 24.7849C254.125 22.1947 254.773 19.9387 256.068 18.0169C257.363 16.0951 259.18 14.6329 261.52 13.6302C263.86 12.5858 266.533 12.0636 269.541 12.0636C274.053 12.0636 277.709 13.1707 280.508 15.3849C283.349 17.5573 284.916 20.6071 285.208 24.5342H275.557C275.474 23.0302 274.826 21.7978 273.615 20.8369C272.445 19.8342 270.878 19.3329 268.915 19.3329C267.202 19.3329 265.823 19.7716 264.779 20.6489C263.776 21.5262 263.275 22.8005 263.275 24.4716C263.275 25.6413 263.651 26.6231 264.403 27.4169C265.196 28.1689 266.157 28.7956 267.285 29.2969C268.455 29.7565 270.084 30.2996 272.173 30.9262C275.014 31.7618 277.333 32.5973 279.129 33.4329C280.926 34.2685 282.472 35.5218 283.767 37.1929C285.062 38.864 285.709 41.0574 285.709 43.7729C285.709 46.1125 285.104 48.2849 283.892 50.2902C282.68 52.2956 280.905 53.904 278.565 55.1156C276.226 56.2854 273.448 56.8702 270.231 56.8702Z" fill="#11243E"/>
<path d="M297.098 17.5782C295.552 17.5782 294.257 17.0978 293.213 16.1369C292.21 15.1342 291.709 13.9018 291.709 12.4396C291.709 10.9773 292.21 9.76579 293.213 8.8049C294.257 7.80224 295.552 7.3009 297.098 7.3009C298.644 7.3009 299.918 7.80224 300.921 8.8049C301.965 9.76579 302.487 10.9773 302.487 12.4396C302.487 13.9018 301.965 15.1342 300.921 16.1369C299.918 17.0978 298.644 17.5782 297.098 17.5782ZM301.422 21.7142V56.4316H292.649V21.7142H301.422Z" fill="#11243E"/>
<path d="M319.638 28.9209V45.7156C319.638 46.8853 319.91 47.7418 320.453 48.2849C321.038 48.7862 321.999 49.0369 323.336 49.0369H327.409V56.4316H321.894C314.5 56.4316 310.802 52.8387 310.802 45.6529V28.9209H306.666V21.7142H310.802V13.1289H319.638V21.7142H327.409V28.9209H319.638Z" fill="#11243E"/>
<path d="M365.326 38.3209C365.326 39.5742 365.242 40.7022 365.075 41.7049H339.695C339.904 44.2116 340.781 46.1751 342.327 47.5956C343.873 49.016 345.774 49.7262 348.03 49.7262C351.288 49.7262 353.607 48.3267 354.986 45.5276H364.448C363.446 48.8698 361.524 51.6271 358.683 53.7996C355.842 55.9302 352.354 56.9956 348.218 56.9956C344.876 56.9956 341.868 56.2645 339.194 54.8022C336.562 53.2982 334.494 51.1885 332.99 48.4729C331.528 45.7574 330.796 42.624 330.796 39.0729C330.796 35.48 331.528 32.3258 332.99 29.6102C334.452 26.8947 336.499 24.8058 339.131 23.3436C341.763 21.8813 344.792 21.1502 348.218 21.1502C351.518 21.1502 354.464 21.8605 357.054 23.2809C359.686 24.7013 361.712 26.7276 363.132 29.3596C364.595 31.9498 365.326 34.9369 365.326 38.3209ZM356.239 35.8142C356.197 33.5582 355.383 31.7618 353.795 30.4249C352.208 29.0462 350.265 28.3569 347.967 28.3569C345.795 28.3569 343.956 29.0254 342.452 30.3622C340.99 31.6574 340.092 33.4747 339.758 35.8142H356.239Z" fill="#11243E"/>
<defs>
<filter id="filter0_d_3688_21491" x="9.94287" y="22.3667" width="33.7715" height="28.4954" filterUnits="userSpaceOnUse" color-interpolation-filters="sRGB">
<feFlood flood-opacity="0" result="BackgroundImageFix"/>
<feColorMatrix in="SourceAlpha" type="matrix" values="0 0 0 0 0 0 0 0 0 0 0 0 0 0 0 0 0 0 127 0" result="hardAlpha"/>
<feOffset dx="3" dy="4"/>
<feGaussianBlur stdDeviation="1.5"/>
<feComposite in2="hardAlpha" operator="out"/>
<feColorMatrix type="matrix" values="0 0 0 0 0 0 0 0 0 0 0 0 0 0 0 0 0 0 0.05 0"/>
<feBlend mode="normal" in2="BackgroundImageFix" result="effect1_dropShadow_3688_21491"/>
<feBlend mode="normal" in="SourceGraphic" in2="effect1_dropShadow_3688_21491" result="shape"/>
</filter>
<linearGradient id="paint0_linear_3688_21491" x1="-5.14286" y1="-4.2044" x2="69.4286" y2="94.0242" gradientUnits="userSpaceOnUse">
<stop offset="0.373525" stop-color="#8176FF"/>
<stop offset="1" stop-color="#41BBFF"/>
</linearGradient>
</defs>
</svg>
