<svg width="437" height="64" viewBox="0 0 437 64" fill="none" xmlns="http://www.w3.org/2000/svg">
<path d="M55.9961 31.998C55.9961 18.7443 45.2518 8 31.998 8H8V55.9961H55.9961V31.998Z" fill="url(#paint0_linear_5716_1777)"/>
<g filter="url(#filter0_d_5716_1777)">
<path fill-rule="evenodd" clip-rule="evenodd" d="M43.3103 31.9982C43.3103 25.75 38.2452 20.6848 31.997 20.6848H20.6836V43.3115H43.3103V31.9982ZM32.5859 26.8827L24.8264 32.3631L27.0596 34.5962L32.5859 30.6931V26.8827ZM28.3957 35.932L27.0599 34.5962L28.3957 33.6529V35.932ZM37.0053 31.3229L35.6695 29.9872V32.2663L37.0053 31.3229ZM39.2388 33.556L31.4794 39.0364V35.226L37.0056 31.3229L39.2388 33.556Z" fill="white"/>
</g>
<path fill-rule="evenodd" clip-rule="evenodd" d="M98.0834 17.627H81.2362L89.572 25.825H98.0834C103.448 25.825 107.791 30.0758 107.791 35.3135V53H116.171V35.3135C116.171 25.5429 108.07 17.627 98.0834 17.627ZM88.3755 27.0187L79.9961 18.7778V53H88.3755V27.0187ZM152.978 47.2169L147.661 41.7125L147.342 42.0134C145.497 43.7554 142.404 45.438 138.131 45.438C135.126 45.438 132.81 44.6895 131.136 43.3942C129.589 42.1976 128.556 40.5078 128.043 38.4256H154.942L154.962 38.0135C155.245 32.1417 153.746 27.0443 150.682 23.407C147.611 19.7619 143.003 17.627 137.17 17.627C126.866 17.627 118.821 25.2166 118.821 35.3152C118.821 40.3885 120.724 44.8181 124.116 47.9778C127.507 51.1365 132.358 53 138.212 53C145.048 53 149.476 50.6674 152.675 47.5151L152.978 47.2169ZM191.803 47.2169L186.486 41.7125L186.167 42.0134C184.322 43.7554 181.23 45.438 176.956 45.438C173.951 45.438 171.635 44.6895 169.961 43.3942C168.414 42.1976 167.381 40.5078 166.868 38.4256H193.767L193.787 38.0135C194.07 32.1417 192.571 27.0443 189.507 23.407C186.436 19.7619 181.829 17.627 175.995 17.627C165.691 17.627 157.646 25.2166 157.646 35.3152C157.646 40.3885 159.549 44.8181 162.941 47.9778C166.332 51.1365 171.183 53 177.037 53C183.873 53 188.301 50.6674 191.5 47.5151L191.803 47.2169ZM202.39 17.9245H196.471V25.4791H202.39V38.6708C202.39 43.9973 203.185 47.6285 205.439 49.9057C207.697 52.1865 211.308 53 216.618 53H218.171V45.2538H217.731C216.134 45.2538 214.907 45.1938 213.957 45.0167C213.012 44.8403 212.383 44.5548 211.946 44.1343C211.51 43.7147 211.216 43.1142 211.034 42.2117C210.852 41.3041 210.79 40.1305 210.79 38.6019V25.4791H218.171V17.9245H210.79V9H202.39V17.9245ZM137.252 25.1127C139.957 25.1127 141.942 25.9095 143.336 27.2094C144.628 28.4137 145.449 30.0831 145.843 32.0453H128.039C128.553 29.8959 129.599 28.218 131.061 27.0538C132.638 25.7977 134.734 25.1127 137.252 25.1127ZM176.077 25.1127C178.782 25.1127 180.767 25.9095 182.161 27.2094C183.453 28.4137 184.274 30.0831 184.668 32.0453H166.864C167.378 29.8959 168.424 28.218 169.886 27.0538C171.463 25.7977 173.559 25.1127 176.077 25.1127ZM238.875 25.1283C244.465 25.1283 248.909 29.698 248.909 35.3141C248.909 40.929 244.465 45.4986 238.875 45.4986C233.287 45.4986 228.909 40.9328 228.909 35.3141C228.909 29.6942 233.287 25.1283 238.875 25.1283ZM238.875 17.627C228.843 17.627 220.821 25.3827 220.821 35.3141C220.821 45.1772 228.841 53 238.875 53C248.906 53 256.996 45.1794 256.996 35.3141C256.996 25.3805 248.905 17.627 238.875 17.627Z" fill="#11243E"/>
<path d="M261.189 33.0667C261.189 28.7636 262.15 24.92 264.072 21.536C266.036 18.1102 268.689 15.4573 272.031 13.5773C275.415 11.6556 279.196 10.6947 283.373 10.6947C288.261 10.6947 292.544 11.948 296.22 14.4547C299.897 16.9613 302.466 20.4289 303.928 24.8573H293.839C292.836 22.7684 291.416 21.2018 289.577 20.1573C287.781 19.1129 285.692 18.5907 283.311 18.5907C280.762 18.5907 278.485 19.1964 276.48 20.408C274.517 21.5778 272.971 23.2489 271.843 25.4213C270.757 27.5938 270.213 30.1422 270.213 33.0667C270.213 35.9493 270.757 38.4978 271.843 40.712C272.971 42.8844 274.517 44.5764 276.48 45.788C278.485 46.9578 280.762 47.5427 283.311 47.5427C285.692 47.5427 287.781 47.0204 289.577 45.976C291.416 44.8898 292.836 43.3022 293.839 41.2133H303.928C302.466 45.6836 299.897 49.172 296.22 51.6787C292.585 54.1436 288.303 55.376 283.373 55.376C279.196 55.376 275.415 54.436 272.031 52.556C268.689 50.6342 266.036 47.9813 264.072 44.5973C262.15 41.2133 261.189 37.3698 261.189 33.0667ZM326.171 55.564C322.829 55.564 319.821 54.8329 317.147 53.3707C314.473 51.8667 312.363 49.7569 310.818 47.0413C309.314 44.3258 308.562 41.1924 308.562 37.6413C308.562 34.0902 309.335 30.9569 310.88 28.2413C312.468 25.5258 314.619 23.4369 317.335 21.9747C320.051 20.4707 323.079 19.7187 326.422 19.7187C329.764 19.7187 332.793 20.4707 335.508 21.9747C338.224 23.4369 340.355 25.5258 341.9 28.2413C343.488 30.9569 344.282 34.0902 344.282 37.6413C344.282 41.1924 343.467 44.3258 341.838 47.0413C340.25 49.7569 338.078 51.8667 335.32 53.3707C332.605 54.8329 329.555 55.564 326.171 55.564ZM326.171 47.9187C327.759 47.9187 329.242 47.5427 330.62 46.7907C332.041 45.9969 333.169 44.8271 334.004 43.2813C334.84 41.7356 335.258 39.8556 335.258 37.6413C335.258 34.3409 334.38 31.8133 332.626 30.0587C330.913 28.2622 328.803 27.364 326.296 27.364C323.79 27.364 321.68 28.2622 319.967 30.0587C318.296 31.8133 317.46 34.3409 317.46 37.6413C317.46 40.9418 318.275 43.4902 319.904 45.2867C321.575 47.0413 323.664 47.9187 326.171 47.9187ZM347.795 37.516C347.795 34.0067 348.484 30.8942 349.863 28.1787C351.283 25.4631 353.205 23.3742 355.628 21.912C358.051 20.4498 360.746 19.7187 363.712 19.7187C365.968 19.7187 368.119 20.22 370.167 21.2227C372.214 22.1836 373.843 23.4787 375.055 25.108V8.62667H383.953V55H375.055V49.8613C373.968 51.5742 372.443 52.9529 370.48 53.9973C368.516 55.0418 366.239 55.564 363.649 55.564C360.725 55.564 358.051 54.812 355.628 53.308C353.205 51.804 351.283 49.6942 349.863 46.9787C348.484 44.2213 347.795 41.0671 347.795 37.516ZM375.117 37.6413C375.117 35.5107 374.699 33.6933 373.864 32.1893C373.028 30.6436 371.9 29.4738 370.48 28.68C369.059 27.8444 367.535 27.4267 365.905 27.4267C364.276 27.4267 362.772 27.8236 361.393 28.6173C360.015 29.4111 358.887 30.5809 358.009 32.1267C357.174 33.6307 356.756 35.4271 356.756 37.516C356.756 39.6049 357.174 41.4431 358.009 43.0307C358.887 44.5764 360.015 45.7671 361.393 46.6027C362.814 47.4382 364.318 47.856 365.905 47.856C367.535 47.856 369.059 47.4591 370.48 46.6653C371.9 45.8298 373.028 44.66 373.864 43.156C374.699 41.6102 375.117 39.772 375.117 37.6413ZM424.129 36.8893C424.129 38.1427 424.045 39.2707 423.878 40.2733H398.498C398.707 42.78 399.584 44.7436 401.13 46.164C402.676 47.5844 404.577 48.2947 406.833 48.2947C410.091 48.2947 412.41 46.8951 413.789 44.096H423.251C422.249 47.4382 420.327 50.1956 417.486 52.368C414.645 54.4987 411.157 55.564 407.021 55.564C403.678 55.564 400.67 54.8329 397.997 53.3707C395.365 51.8667 393.297 49.7569 391.793 47.0413C390.33 44.3258 389.599 41.1924 389.599 37.6413C389.599 34.0484 390.33 30.8942 391.793 28.1787C393.255 25.4631 395.302 23.3742 397.934 21.912C400.566 20.4498 403.595 19.7187 407.021 19.7187C410.321 19.7187 413.266 20.4289 415.857 21.8493C418.489 23.2698 420.515 25.296 421.935 27.928C423.397 30.5182 424.129 33.5053 424.129 36.8893ZM415.042 34.3827C415 32.1267 414.185 30.3302 412.598 28.9933C411.01 27.6147 409.068 26.9253 406.77 26.9253C404.597 26.9253 402.759 27.5938 401.255 28.9307C399.793 30.2258 398.895 32.0431 398.561 34.3827H415.042Z" fill="#11243E"/>
<defs>
<filter id="filter0_d_5716_1777" x="20.6836" y="20.6848" width="23.5301" height="23.6826" filterUnits="userSpaceOnUse" color-interpolation-filters="sRGB">
<feFlood flood-opacity="0" result="BackgroundImageFix"/>
<feColorMatrix in="SourceAlpha" type="matrix" values="0 0 0 0 0 0 0 0 0 0 0 0 0 0 0 0 0 0 127 0" result="hardAlpha"/>
<feOffset dx="0.452535" dy="0.603379"/>
<feGaussianBlur stdDeviation="0.226267"/>
<feComposite in2="hardAlpha" operator="out"/>
<feColorMatrix type="matrix" values="0 0 0 0 0 0 0 0 0 0 0 0 0 0 0 0 0 0 0.05 0"/>
<feBlend mode="normal" in2="BackgroundImageFix" result="effect1_dropShadow_5716_1777"/>
<feBlend mode="normal" in="SourceGraphic" in2="effect1_dropShadow_5716_1777" result="shape"/>
</filter>
<linearGradient id="paint0_linear_5716_1777" x1="2.85756" y1="-5.19893" x2="77.4229" y2="93.0217" gradientUnits="userSpaceOnUse">
<stop offset="0.373525" stop-color="#8176FF"/>
<stop offset="1" stop-color="#41BBFF"/>
</linearGradient>
</defs>
</svg>
