<svg width="476" height="74" viewBox="0 0 476 74" fill="none" xmlns="http://www.w3.org/2000/svg">
<path d="M48 32.9956C48 19.7408 37.2548 8.99561 24 8.99561H0V56.9956H48V32.9956Z" fill="url(#paint0_linear_3688_21557)"/>
<g filter="url(#filter0_d_3688_21557)">
<path d="M10.9333 36.5293C13.0618 33.4654 14.3138 31.4915 15.2266 30.0327C11.7185 30.343 8.35596 34.7082 8.35596 34.7082L10.6715 37.0236C10.7387 36.8524 10.8245 36.6861 10.9333 36.5293Z" fill="white"/>
<path d="M19.9741 46.3274L22.2881 48.6413C22.2881 48.6413 26.6531 45.279 26.9635 41.771C25.5052 42.6835 23.5319 43.9351 20.467 46.0641C20.312 46.1717 20.1467 46.2596 19.9741 46.3274Z" fill="white"/>
<path d="M16.4557 45.1303C16.0584 45.2908 15.668 45.4614 15.261 45.5974C14.1739 45.9608 13.0543 46.2063 11.9191 46.3629C11.4433 46.4286 10.963 46.4843 10.482 46.5208C10.4866 46.4614 10.491 46.4019 10.496 46.3426C10.5953 45.186 10.7713 44.0354 11.0556 42.9091C11.1926 42.3655 11.3674 41.8371 11.555 41.3095C11.6717 40.9814 11.8173 40.6675 11.9642 40.3535L11.7096 40.0991C11.1434 40.4795 10.651 40.96 10.2331 41.5038C9.61443 42.3089 9.15073 43.2211 8.82654 44.1822C8.47827 45.2143 8.27058 46.3073 8.23824 47.397C8.23366 47.55 8.22315 47.7064 8.24687 47.8583C8.27741 48.0545 8.36356 48.2402 8.493 48.3906C8.6211 48.5395 8.78971 48.6519 8.97655 48.7121C9.13339 48.7627 9.29114 48.7636 9.45382 48.7624C10.443 48.7541 11.4476 48.5823 12.3945 48.3009C14.1263 47.7864 15.8746 46.8184 16.8994 45.2887L16.6517 45.0412C16.5867 45.0717 16.5216 45.1016 16.4557 45.1303Z" fill="white"/>
<path d="M35.7199 21.2778C35.7199 21.2778 35.7197 21.2777 35.7196 21.2776C35.5394 21.0975 35.2951 20.9966 35.0409 20.9966C35.0346 20.9966 35.0282 20.9967 35.022 20.9968C31.9309 21.0574 24.3047 21.6355 20.2546 25.6858C18.4161 27.5243 17.8185 28.4814 16.5088 30.5787C15.5656 32.0887 14.2743 34.157 11.9143 37.5539C11.6492 37.9356 11.6953 38.4524 12.024 38.7809L18.2158 44.9728C18.4015 45.1586 18.6476 45.2542 18.8952 45.2542C19.0856 45.2542 19.2768 45.1978 19.4428 45.0825C22.8409 42.722 24.9084 41.431 26.4179 40.4881C28.5151 39.1785 29.4723 38.5808 31.3112 36.7421C35.3684 32.6846 35.9425 25.0634 36.0007 21.975C36.0059 21.7142 35.9043 21.4625 35.7199 21.2778ZM28.55 32.9608C27.3034 34.2073 25.2826 34.2073 24.0361 32.9608C22.7893 31.7142 22.7895 29.6935 24.0363 28.447C25.2826 27.2005 27.3034 27.2003 28.55 28.4468C29.7962 29.6932 29.7964 31.7144 28.55 32.9608Z" fill="white"/>
</g>
<path fill-rule="evenodd" clip-rule="evenodd" d="M90.0873 21.6226H73.2401L81.5759 29.8206H90.0873C95.4515 29.8206 99.7952 34.0714 99.7952 39.3091V56.9956H108.175V39.3091C108.175 29.5385 100.074 21.6226 90.0873 21.6226ZM80.3794 31.0143L72 22.7734V56.9956H80.3794V31.0143ZM144.982 51.2125L139.664 45.7081L139.346 46.009C137.501 47.751 134.408 49.4336 130.135 49.4336C127.13 49.4336 124.814 48.6851 123.14 47.3898C121.593 46.1932 120.559 44.5034 120.047 42.4212H146.946L146.966 42.0092C147.249 36.1373 145.75 31.0399 142.686 27.4026C139.615 23.7575 135.007 21.6226 129.173 21.6226C118.87 21.6226 110.825 29.2122 110.825 39.3108C110.825 44.3842 112.728 48.8137 116.12 51.9734C119.511 55.1321 124.362 56.9956 130.216 56.9956C137.052 56.9956 141.48 54.663 144.679 51.5107L144.982 51.2125ZM183.807 51.2125L178.49 45.7081L178.171 46.009C176.326 47.751 173.233 49.4336 168.96 49.4336C165.955 49.4336 163.639 48.6851 161.965 47.3898C160.418 46.1932 159.385 44.5034 158.872 42.4212H185.771L185.791 42.0092C186.074 36.1373 184.575 31.0399 181.511 27.4026C178.44 23.7575 173.832 21.6226 167.999 21.6226C157.695 21.6226 149.65 29.2122 149.65 39.3108C149.65 44.3842 151.553 48.8137 154.945 51.9734C158.336 55.1321 163.187 56.9956 169.041 56.9956C175.877 56.9956 180.305 54.663 183.504 51.5107L183.807 51.2125ZM194.393 21.9201H188.475V29.4747H194.393V42.6664C194.393 47.9929 195.189 51.6241 197.443 53.9013C199.701 56.1821 203.311 56.9956 208.622 56.9956H210.175V49.2494H209.735C208.138 49.2494 206.91 49.1894 205.961 49.0123C205.015 48.8359 204.387 48.5505 203.95 48.1299C203.514 47.7103 203.22 47.1098 203.038 46.2073C202.856 45.2997 202.794 44.1261 202.794 42.5975V29.4747H210.175V21.9201H202.794V12.9956H194.393V21.9201ZM129.255 29.1083C131.961 29.1083 133.946 29.9051 135.34 31.205C136.632 32.4093 137.453 34.0787 137.846 36.0409H120.043C120.557 33.8916 121.603 32.2136 123.065 31.0494C124.642 29.7934 126.738 29.1083 129.255 29.1083ZM168.081 29.1083C170.786 29.1083 172.771 29.9051 174.165 31.205C175.457 32.4093 176.278 34.0787 176.672 36.0409H158.868C159.382 33.8916 160.428 32.2136 161.89 31.0494C163.467 29.7934 165.563 29.1083 168.081 29.1083ZM230.879 29.1239C236.469 29.1239 240.913 33.6936 240.913 39.3097C240.913 44.9246 236.469 49.4943 230.879 49.4943C225.291 49.4943 220.913 44.9284 220.913 39.3097C220.913 33.6898 225.291 29.1239 230.879 29.1239ZM230.879 21.6226C220.846 21.6226 212.825 29.3783 212.825 39.3097C212.825 49.1728 220.845 56.9956 230.879 56.9956C240.91 56.9956 249 49.175 249 39.3097C249 29.3761 240.909 21.6226 230.879 21.6226Z" fill="#11243E"/>
<path d="M270.291 13.6276C274.886 13.6276 278.918 14.5258 282.385 16.3223C285.895 18.1187 288.589 20.688 290.469 24.0303C292.391 27.3307 293.352 31.1743 293.352 35.5609C293.352 39.9476 292.391 43.7912 290.469 47.0916C288.589 50.3503 285.895 52.8778 282.385 54.6743C278.918 56.4707 274.886 57.3689 270.291 57.3689H255V13.6276H270.291ZM269.977 49.9116C274.573 49.9116 278.124 48.6583 280.631 46.1516C283.137 43.6449 284.391 40.1147 284.391 35.5609C284.391 31.0072 283.137 27.4561 280.631 24.9076C278.124 22.3174 274.573 21.0223 269.977 21.0223H263.773V49.9116H269.977Z" fill="#11243E"/>
<path d="M331.526 39.2583C331.526 40.5116 331.442 41.6396 331.275 42.6423H305.895C306.104 45.1489 306.981 47.1125 308.527 48.5329C310.073 49.9534 311.974 50.6636 314.23 50.6636C317.489 50.6636 319.807 49.264 321.186 46.4649H330.649C329.646 49.8072 327.724 52.5645 324.883 54.7369C322.042 56.8676 318.554 57.9329 314.418 57.9329C311.076 57.9329 308.068 57.2018 305.394 55.7396C302.762 54.2356 300.694 52.1258 299.19 49.4103C297.728 46.6947 296.997 43.5614 296.997 40.0103C296.997 36.4174 297.728 33.2632 299.19 30.5476C300.652 27.832 302.699 25.7432 305.331 24.2809C307.963 22.8187 310.992 22.0876 314.418 22.0876C317.718 22.0876 320.664 22.7978 323.254 24.2183C325.886 25.6387 327.912 27.6649 329.333 30.2969C330.795 32.8872 331.526 35.8743 331.526 39.2583ZM322.439 36.7516C322.397 34.4956 321.583 32.6992 319.995 31.3623C318.408 29.9836 316.465 29.2943 314.167 29.2943C311.995 29.2943 310.157 29.9627 308.653 31.2996C307.19 32.5947 306.292 34.412 305.958 36.7516H322.439Z" fill="#11243E"/>
<path d="M346.036 27.6649C347.164 26.0774 348.71 24.7614 350.674 23.7169C352.679 22.6307 354.956 22.0876 357.504 22.0876C360.471 22.0876 363.144 22.8187 365.526 24.2809C367.949 25.7432 369.85 27.832 371.228 30.5476C372.649 33.2214 373.359 36.3338 373.359 39.8849C373.359 43.4361 372.649 46.5903 371.228 49.3476C369.85 52.0632 367.949 54.1729 365.526 55.6769C363.144 57.1809 360.471 57.9329 357.504 57.9329C354.956 57.9329 352.7 57.4107 350.736 56.3663C348.815 55.3218 347.248 54.0058 346.036 52.4183V73.9129H337.263V22.6516H346.036V27.6649ZM364.398 39.8849C364.398 37.796 363.959 35.9996 363.082 34.4956C362.246 32.9498 361.118 31.7801 359.698 30.9863C358.319 30.1925 356.815 29.7956 355.186 29.7956C353.598 29.7956 352.094 30.2134 350.674 31.0489C349.295 31.8427 348.167 33.0125 347.29 34.5583C346.454 36.104 346.036 37.9214 346.036 40.0103C346.036 42.0992 346.454 43.9165 347.29 45.4623C348.167 47.008 349.295 48.1987 350.674 49.0343C352.094 49.8281 353.598 50.2249 355.186 50.2249C356.815 50.2249 358.319 49.8072 359.698 48.9716C361.118 48.1361 362.246 46.9454 363.082 45.3996C363.959 43.8538 364.398 42.0156 364.398 39.8849Z" fill="#11243E"/>
<path d="M387.841 10.9956V57.3689H379.068V10.9956H387.841Z" fill="#11243E"/>
<path d="M411.258 57.9329C407.916 57.9329 404.908 57.2018 402.234 55.7396C399.561 54.2356 397.451 52.1258 395.905 49.4103C394.401 46.6947 393.649 43.5614 393.649 40.0103C393.649 36.4592 394.422 33.3258 395.968 30.6103C397.555 27.8947 399.707 25.8058 402.422 24.3436C405.138 22.8396 408.167 22.0876 411.509 22.0876C414.851 22.0876 417.88 22.8396 420.596 24.3436C423.311 25.8058 425.442 27.8947 426.988 30.6103C428.575 33.3258 429.369 36.4592 429.369 40.0103C429.369 43.5614 428.554 46.6947 426.925 49.4103C425.338 52.1258 423.165 54.2356 420.408 55.7396C417.692 57.2018 414.642 57.9329 411.258 57.9329ZM411.258 50.2876C412.846 50.2876 414.329 49.9116 415.708 49.1596C417.128 48.3658 418.256 47.196 419.092 45.6503C419.927 44.1045 420.345 42.2245 420.345 40.0103C420.345 36.7098 419.468 34.1823 417.713 32.4276C416 30.6312 413.89 29.7329 411.384 29.7329C408.877 29.7329 406.767 30.6312 405.054 32.4276C403.383 34.1823 402.548 36.7098 402.548 40.0103C402.548 43.3107 403.362 45.8592 404.992 47.6556C406.663 49.4103 408.752 50.2876 411.258 50.2876Z" fill="#11243E"/>
<path d="M468.351 22.6516L446.857 73.7876H437.519L445.039 56.4916L431.127 22.6516H440.966L449.927 46.9036L459.014 22.6516H468.351Z" fill="#11243E"/>
<defs>
<filter id="filter0_d_3688_21557" x="8.23193" y="19.9966" width="37.769" height="37.7661" filterUnits="userSpaceOnUse" color-interpolation-filters="sRGB">
<feFlood flood-opacity="0" result="BackgroundImageFix"/>
<feColorMatrix in="SourceAlpha" type="matrix" values="0 0 0 0 0 0 0 0 0 0 0 0 0 0 0 0 0 0 127 0" result="hardAlpha"/>
<feOffset dx="5" dy="4"/>
<feGaussianBlur stdDeviation="2.5"/>
<feComposite in2="hardAlpha" operator="out"/>
<feColorMatrix type="matrix" values="0 0 0 0 0 0 0 0 0 0 0 0 0 0 0 0 0 0 0.05 0"/>
<feBlend mode="normal" in2="BackgroundImageFix" result="effect1_dropShadow_3688_21557"/>
<feBlend mode="normal" in="SourceGraphic" in2="effect1_dropShadow_3688_21557" result="shape"/>
</filter>
<linearGradient id="paint0_linear_3688_21557" x1="57.7714" y1="80.8242" x2="-8.22857" y2="-2.66154" gradientUnits="userSpaceOnUse">
<stop stop-color="#67BDE2"/>
<stop offset="1" stop-color="#14D1A4"/>
</linearGradient>
</defs>
</svg>
