<svg xmlns="http://www.w3.org/2000/svg" width="502" height="64" fill="none" viewBox="0 0 502 64"><path fill="url(#paint0_linear_3239_11247)" d="M56 32C56 18.7452 45.2548 8 32 8H8V56H56V32Z"/><rect width="6.002" height="6.002" x="18.799" y="21.2" fill="#fff" rx="1.25"/><rect width="6.002" height="6.002" x="25.552" y="21.2" fill="#fff" rx="1.25"/><rect width="6.002" height="6.002" x="32.302" y="21.2" fill="#fff" rx="1.25"/><rect width="6.002" height="6.002" x="39.054" y="21.2" fill="#fff" rx="1.25"/><rect width="6.002" height="6.002" x="18.799" y="27.951" fill="#fff" rx="1.25"/><rect width="6.002" height="6.002" x="25.552" y="27.951" fill="#fff" rx="1.25"/><rect width="6.002" height="6.002" x="32.302" y="27.951" fill="#fff" rx="1.25"/><rect width="6.002" height="6.002" x="18.799" y="34.702" fill="#fff" rx="1.25"/><rect width="6.002" height="6.002" x="25.552" y="34.702" fill="#fff" rx="1.25"/><rect width="6.002" height="6.002" x="18.799" y="41.455" fill="#fff" rx="1.25"/><path fill="#11243E" d="M80 20.236V55.436H87.5283V27.716H97.7137C103.339 27.716 107.899 32.2468 107.899 37.836V55.436H115.427V37.836C115.427 28.1157 107.497 20.236 97.7137 20.236H80Z"/><path fill="#11243E" fill-rule="evenodd" d="M146.177 34.9434C145.455 30.3637 142.646 26.9894 137.028 26.9894C131.81 26.9894 128.199 29.8801 127.237 34.9434H146.177ZM137.911 48.6047C142.325 48.6047 145.535 46.8368 147.462 44.9886L152.197 49.9705C149.066 53.1054 144.734 55.436 137.992 55.436C126.434 55.436 118.97 47.9631 118.97 37.8377C118.97 27.7914 126.836 20.236 136.946 20.236C148.423 20.236 154.924 28.755 154.364 40.5693H127.237C128.199 45.4722 131.73 48.6047 137.911 48.6047Z" clip-rule="evenodd"/><path fill="#11243E" fill-rule="evenodd" d="M185.148 34.9434C184.426 30.3637 181.616 26.9894 175.998 26.9894C170.78 26.9894 167.169 29.8801 166.207 34.9434H185.148ZM176.881 48.6047C181.295 48.6047 184.505 46.8368 186.432 44.9886L191.167 49.9705C188.036 53.1054 183.704 55.436 176.962 55.436C165.404 55.436 157.94 47.9631 157.94 37.8377C157.94 27.7914 165.807 20.236 175.916 20.236C187.393 20.236 193.894 28.755 193.334 40.5693H166.207C167.169 45.4722 170.7 48.6047 176.881 48.6047Z" clip-rule="evenodd"/><path fill="#11243E" fill-rule="evenodd" d="M196.91 20.5394H202.851V11.436H210.4V20.5394H217.809V27.3631H210.4V41.1903C210.4 47.4451 211.378 48.4168 217.809 48.4168V55.436H216.691C206.066 55.436 202.851 52.0999 202.851 41.2606V27.3631H196.91V20.5394Z" clip-rule="evenodd"/><path fill="#11243E" fill-rule="evenodd" d="M249.544 37.8365C249.544 31.8791 244.9 27.0053 239.031 27.0053C233.16 27.0053 228.587 31.8791 228.587 37.8365C228.587 43.7928 233.16 48.6666 239.031 48.6666C244.9 48.6666 249.544 43.7928 249.544 37.8365ZM221.351 37.8365C221.351 27.9531 229.201 20.236 239.031 20.236C248.861 20.236 256.779 27.9531 256.779 37.8365C256.779 47.6514 248.861 55.436 239.031 55.436C229.201 55.436 221.351 47.6514 221.351 37.8365Z" clip-rule="evenodd"/><path fill="#11243E" d="M294.156 24.8546C294.156 27.0688 293.634 29.1577 292.589 31.1213C291.545 33.0848 289.874 34.6933 287.576 35.9466C285.278 37.1582 282.333 37.764 278.74 37.764H270.844V55.436H263.7V11.8826H278.74C282.082 11.8826 284.902 12.4675 287.2 13.6373C289.54 14.7653 291.273 16.3111 292.401 18.2746C293.571 20.2382 294.156 22.4315 294.156 24.8546ZM278.74 31.936C281.456 31.936 283.482 31.3302 284.819 30.1186C286.156 28.8653 286.824 27.1106 286.824 24.8546C286.824 20.092 284.129 17.7106 278.74 17.7106H270.844V31.936H278.74Z"/><path fill="#11243E" d="M307.447 9.06262V55.436H300.303V9.06262H307.447Z"/><path fill="#11243E" d="M313.778 38.0146C313.778 34.5471 314.489 31.4764 315.909 28.8026C317.371 26.1288 319.335 24.0608 321.8 22.5986C324.306 21.0946 327.064 20.3426 330.072 20.3426C332.787 20.3426 335.148 20.8857 337.153 21.972C339.2 23.0164 340.829 24.3324 342.041 25.92V20.9066H349.248V55.436H342.041V50.2973C340.829 51.9266 339.179 53.2844 337.09 54.3706C335.001 55.4568 332.62 56 329.946 56C326.98 56 324.265 55.248 321.8 53.744C319.335 52.1982 317.371 50.0675 315.909 47.352C314.489 44.5946 313.778 41.4822 313.778 38.0146ZM342.041 38.14C342.041 35.7586 341.54 33.6906 340.537 31.936C339.576 30.1813 338.302 28.8444 336.714 27.9253C335.127 27.0062 333.414 26.5466 331.576 26.5466C329.737 26.5466 328.025 27.0062 326.437 27.9253C324.849 28.8026 323.554 30.1186 322.552 31.8733C321.591 33.5862 321.11 35.6333 321.11 38.0146C321.11 40.396 321.591 42.4848 322.552 44.2813C323.554 46.0777 324.849 47.4564 326.437 48.4173C328.066 49.3364 329.779 49.796 331.576 49.796C333.414 49.796 335.127 49.3364 336.714 48.4173C338.302 47.4982 339.576 46.1613 340.537 44.4066C341.54 42.6102 342.041 40.5213 342.041 38.14Z"/><path fill="#11243E" d="M375.386 20.3426C378.101 20.3426 380.524 20.9066 382.655 22.0346C384.827 23.1626 386.519 24.8337 387.731 27.048C388.943 29.2622 389.548 31.936 389.548 35.0693V55.436H382.467V36.1346C382.467 33.0431 381.694 30.6826 380.148 29.0533C378.603 27.3822 376.493 26.5466 373.819 26.5466C371.145 26.5466 369.015 27.3822 367.427 29.0533C365.881 30.6826 365.108 33.0431 365.108 36.1346V55.436H357.964V20.9066H365.108V24.8546C366.278 23.4342 367.761 22.3271 369.558 21.5333C371.396 20.7395 373.339 20.3426 375.386 20.3426Z"/><path fill="#11243E" d="M415.416 20.3426C418.131 20.3426 420.554 20.9066 422.685 22.0346C424.857 23.1626 426.549 24.8337 427.761 27.048C428.973 29.2622 429.578 31.936 429.578 35.0693V55.436H422.497V36.1346C422.497 33.0431 421.724 30.6826 420.178 29.0533C418.633 27.3822 416.523 26.5466 413.849 26.5466C411.175 26.5466 409.044 27.3822 407.457 29.0533C405.911 30.6826 405.138 33.0431 405.138 36.1346V55.436H397.994V20.9066H405.138V24.8546C406.308 23.4342 407.791 22.3271 409.588 21.5333C411.426 20.7395 413.368 20.3426 415.416 20.3426Z"/><path fill="#11243E" d="M469.671 37.3253C469.671 38.6204 469.587 39.7902 469.42 40.8346H443.038C443.246 43.592 444.27 45.8062 446.108 47.4773C447.946 49.1484 450.202 49.984 452.876 49.984C456.72 49.984 459.435 48.3755 461.023 45.1586H468.731C467.686 48.3337 465.786 50.9448 463.028 52.992C460.313 54.9973 456.929 56 452.876 56C449.576 56 446.61 55.2688 443.978 53.8066C441.387 52.3026 439.34 50.2137 437.836 47.54C436.374 44.8244 435.643 41.6911 435.643 38.14C435.643 34.5888 436.353 31.4764 437.774 28.8026C439.236 26.0871 441.262 23.9982 443.852 22.536C446.484 21.0737 449.492 20.3426 452.876 20.3426C456.135 20.3426 459.038 21.0528 461.587 22.4733C464.135 23.8937 466.12 25.8991 467.54 28.4893C468.961 31.0377 469.671 33.9831 469.671 37.3253ZM462.214 35.0693C462.172 32.4373 461.232 30.3275 459.394 28.74C457.555 27.1524 455.278 26.3586 452.563 26.3586C450.098 26.3586 447.988 27.1524 446.234 28.74C444.479 30.2857 443.434 32.3955 443.1 35.0693H462.214Z"/><path fill="#11243E" d="M483.179 25.92C484.223 24.1653 485.602 22.8075 487.315 21.8466C489.069 20.844 491.137 20.3426 493.519 20.3426V27.7373H491.701C488.902 27.7373 486.772 28.4475 485.309 29.868C483.889 31.2884 483.179 33.7533 483.179 37.2626V55.436H476.035V20.9066H483.179V25.92Z"/><path stroke="#11243E" stroke-width=".333" d="M80 20.236V55.436H87.5283V27.716H97.7137C103.339 27.716 107.899 32.2468 107.899 37.836V55.436H115.427V37.836C115.427 28.1157 107.497 20.236 97.7137 20.236H80Z"/><path fill-rule="evenodd" stroke="#11243E" stroke-width=".333" d="M146.177 34.9434C145.455 30.3637 142.646 26.9894 137.028 26.9894C131.81 26.9894 128.199 29.8801 127.237 34.9434H146.177ZM137.911 48.6047C142.325 48.6047 145.535 46.8368 147.462 44.9886L152.197 49.9705C149.066 53.1054 144.734 55.436 137.992 55.436C126.434 55.436 118.97 47.9631 118.97 37.8377C118.97 27.7914 126.836 20.236 136.946 20.236C148.423 20.236 154.924 28.755 154.364 40.5693H127.237C128.199 45.4722 131.73 48.6047 137.911 48.6047Z" clip-rule="evenodd"/><path fill-rule="evenodd" stroke="#11243E" stroke-width=".333" d="M185.148 34.9434C184.426 30.3637 181.616 26.9894 175.998 26.9894C170.78 26.9894 167.169 29.8801 166.207 34.9434H185.148ZM176.881 48.6047C181.295 48.6047 184.505 46.8368 186.432 44.9886L191.167 49.9705C188.036 53.1054 183.704 55.436 176.962 55.436C165.404 55.436 157.94 47.9631 157.94 37.8377C157.94 27.7914 165.807 20.236 175.916 20.236C187.393 20.236 193.894 28.755 193.334 40.5693H166.207C167.169 45.4722 170.7 48.6047 176.881 48.6047Z" clip-rule="evenodd"/><path fill-rule="evenodd" stroke="#11243E" stroke-width=".333" d="M196.91 20.5394H202.851V11.436H210.4V20.5394H217.809V27.3631H210.4V41.1903C210.4 47.4451 211.378 48.4168 217.809 48.4168V55.436H216.691C206.066 55.436 202.851 52.0999 202.851 41.2606V27.3631H196.91V20.5394Z" clip-rule="evenodd"/><path fill-rule="evenodd" stroke="#11243E" stroke-width=".333" d="M249.544 37.8365C249.544 31.8791 244.9 27.0053 239.031 27.0053C233.16 27.0053 228.587 31.8791 228.587 37.8365C228.587 43.7928 233.16 48.6666 239.031 48.6666C244.9 48.6666 249.544 43.7928 249.544 37.8365ZM221.351 37.8365C221.351 27.9531 229.201 20.236 239.031 20.236C248.861 20.236 256.779 27.9531 256.779 37.8365C256.779 47.6514 248.861 55.436 239.031 55.436C229.201 55.436 221.351 47.6514 221.351 37.8365Z" clip-rule="evenodd"/><path stroke="#11243E" stroke-width=".333" d="M294.156 24.8546C294.156 27.0688 293.634 29.1577 292.589 31.1213C291.545 33.0848 289.874 34.6933 287.576 35.9466C285.278 37.1582 282.333 37.764 278.74 37.764H270.844V55.436H263.7V11.8826H278.74C282.082 11.8826 284.902 12.4675 287.2 13.6373C289.54 14.7653 291.273 16.3111 292.401 18.2746C293.571 20.2382 294.156 22.4315 294.156 24.8546ZM278.74 31.936C281.456 31.936 283.482 31.3302 284.819 30.1186C286.156 28.8653 286.824 27.1106 286.824 24.8546C286.824 20.092 284.129 17.7106 278.74 17.7106H270.844V31.936H278.74Z"/><path stroke="#11243E" stroke-width=".333" d="M307.447 9.06262V55.436H300.303V9.06262H307.447Z"/><path stroke="#11243E" stroke-width=".333" d="M313.778 38.0146C313.778 34.5471 314.489 31.4764 315.909 28.8026C317.371 26.1288 319.335 24.0608 321.8 22.5986C324.306 21.0946 327.064 20.3426 330.072 20.3426C332.787 20.3426 335.148 20.8857 337.153 21.972C339.2 23.0164 340.829 24.3324 342.041 25.92V20.9066H349.248V55.436H342.041V50.2973C340.829 51.9266 339.179 53.2844 337.09 54.3706C335.001 55.4568 332.62 56 329.946 56C326.98 56 324.265 55.248 321.8 53.744C319.335 52.1982 317.371 50.0675 315.909 47.352C314.489 44.5946 313.778 41.4822 313.778 38.0146ZM342.041 38.14C342.041 35.7586 341.54 33.6906 340.537 31.936C339.576 30.1813 338.302 28.8444 336.714 27.9253C335.127 27.0062 333.414 26.5466 331.576 26.5466C329.737 26.5466 328.025 27.0062 326.437 27.9253C324.849 28.8026 323.554 30.1186 322.552 31.8733C321.591 33.5862 321.11 35.6333 321.11 38.0146C321.11 40.396 321.591 42.4848 322.552 44.2813C323.554 46.0777 324.849 47.4564 326.437 48.4173C328.066 49.3364 329.779 49.796 331.576 49.796C333.414 49.796 335.127 49.3364 336.714 48.4173C338.302 47.4982 339.576 46.1613 340.537 44.4066C341.54 42.6102 342.041 40.5213 342.041 38.14Z"/><path stroke="#11243E" stroke-width=".333" d="M375.386 20.3426C378.101 20.3426 380.524 20.9066 382.655 22.0346C384.827 23.1626 386.519 24.8337 387.731 27.048C388.943 29.2622 389.548 31.936 389.548 35.0693V55.436H382.467V36.1346C382.467 33.0431 381.694 30.6826 380.148 29.0533C378.603 27.3822 376.493 26.5466 373.819 26.5466C371.145 26.5466 369.015 27.3822 367.427 29.0533C365.881 30.6826 365.108 33.0431 365.108 36.1346V55.436H357.964V20.9066H365.108V24.8546C366.278 23.4342 367.761 22.3271 369.558 21.5333C371.396 20.7395 373.339 20.3426 375.386 20.3426Z"/><path stroke="#11243E" stroke-width=".333" d="M415.416 20.3426C418.131 20.3426 420.554 20.9066 422.685 22.0346C424.857 23.1626 426.549 24.8337 427.761 27.048C428.973 29.2622 429.578 31.936 429.578 35.0693V55.436H422.497V36.1346C422.497 33.0431 421.724 30.6826 420.178 29.0533C418.633 27.3822 416.523 26.5466 413.849 26.5466C411.175 26.5466 409.044 27.3822 407.457 29.0533C405.911 30.6826 405.138 33.0431 405.138 36.1346V55.436H397.994V20.9066H405.138V24.8546C406.308 23.4342 407.791 22.3271 409.588 21.5333C411.426 20.7395 413.368 20.3426 415.416 20.3426Z"/><path stroke="#11243E" stroke-width=".333" d="M469.671 37.3253C469.671 38.6204 469.587 39.7902 469.42 40.8346H443.038C443.246 43.592 444.27 45.8062 446.108 47.4773C447.946 49.1484 450.202 49.984 452.876 49.984C456.72 49.984 459.435 48.3755 461.023 45.1586H468.731C467.686 48.3337 465.786 50.9448 463.028 52.992C460.313 54.9973 456.929 56 452.876 56C449.576 56 446.61 55.2688 443.978 53.8066C441.387 52.3026 439.34 50.2137 437.836 47.54C436.374 44.8244 435.643 41.6911 435.643 38.14C435.643 34.5888 436.353 31.4764 437.774 28.8026C439.236 26.0871 441.262 23.9982 443.852 22.536C446.484 21.0737 449.492 20.3426 452.876 20.3426C456.135 20.3426 459.038 21.0528 461.587 22.4733C464.135 23.8937 466.12 25.8991 467.54 28.4893C468.961 31.0377 469.671 33.9831 469.671 37.3253ZM462.214 35.0693C462.172 32.4373 461.232 30.3275 459.394 28.74C457.555 27.1524 455.278 26.3586 452.563 26.3586C450.098 26.3586 447.988 27.1524 446.234 28.74C444.479 30.2857 443.434 32.3955 443.1 35.0693H462.214Z"/><path stroke="#11243E" stroke-width=".333" d="M483.179 25.92C484.223 24.1653 485.602 22.8075 487.315 21.8466C489.069 20.844 491.137 20.3426 493.519 20.3426V27.7373H491.701C488.902 27.7373 486.772 28.4475 485.309 29.868C483.889 31.2884 483.179 33.7533 483.179 37.2626V55.436H476.035V20.9066H483.179V25.92Z"/><defs><linearGradient id="paint0_linear_3239_11247" x1="32" x2="32" y1="8" y2="56" gradientUnits="userSpaceOnUse"><stop stop-color="#4DC8C3"/><stop offset="1" stop-color="#52A9C6"/></linearGradient></defs></svg>