<svg width="399" height="65" viewBox="0 0 399 65" fill="none" xmlns="http://www.w3.org/2000/svg">
<path d="M56 32C56 18.7452 45.2548 8 32 8H8V56H56V32Z" fill="url(#paint0_linear_3239_11417)"/>
<g filter="url(#filter0_d_3239_11417)">
<path fill-rule="evenodd" clip-rule="evenodd" d="M23.8972 21.7137H28.0758C29.1733 21.7137 30.26 21.9267 31.2739 22.3406C32.2879 22.7544 33.2092 23.361 33.9852 24.1258C34.7612 24.8905 35.3768 25.7983 35.7968 26.7975C36.0177 27.3231 36.1823 27.8685 36.2886 28.425C35.3903 28.4863 34.5067 28.6895 33.6725 29.0277C32.6585 29.4388 31.7372 30.0412 30.9612 30.8008C30.1852 31.5603 29.5696 32.4619 29.1496 33.4543C28.7296 34.4467 28.5134 35.5103 28.5134 36.5844C28.5134 37.6511 28.7019 38.6257 29.0398 39.5186C27.3104 40.4224 25.5049 41.1536 23.8972 41.7873V38.1843C21.6808 38.1843 19.5551 37.3167 17.9878 35.7723C16.4205 34.2278 15.54 32.1332 15.54 29.949C15.54 27.7649 16.4205 25.6702 17.9878 24.1258C19.5551 22.5813 21.6808 21.7137 23.8972 21.7137ZM36.3378 31.2427C35.8953 34.1864 33.9563 36.3619 31.5167 38.0419C31.3903 37.5781 31.3262 37.0936 31.3262 36.5844C31.3262 35.8881 31.4662 35.1972 31.7399 34.5506C32.0137 33.9038 32.4166 33.3121 32.9286 32.811C33.4408 32.3097 34.0521 31.9089 34.7292 31.6344C35.2424 31.4264 35.7847 31.2944 36.3378 31.2427Z" fill="white"/>
<path fill-rule="evenodd" clip-rule="evenodd" d="M40.9069 29.2602H37.1183C36.1232 29.2602 35.1379 29.451 34.2186 29.8217C33.2993 30.1924 32.464 30.7357 31.7603 31.4207C31.0567 32.1057 30.4986 32.9188 30.1178 33.8138C29.737 34.7087 29.541 35.6679 29.541 36.6366C29.541 42.6299 36.1711 45.3961 40.9069 47.2402V44.013C42.9165 44.013 44.8439 43.2358 46.2649 41.8525C47.6859 40.4692 48.4842 38.5929 48.4842 36.6366C48.4842 34.6803 47.6859 32.804 46.2649 31.4207C44.8439 30.0373 42.9165 29.2602 40.9069 29.2602ZM36.7532 34.5824C36.5466 34.9108 36.4434 35.2359 36.4434 35.5576C36.4434 35.7134 36.5077 35.859 36.6364 35.9945C36.7684 36.1265 36.9293 36.1925 37.1189 36.1925C37.4406 36.1925 37.659 36.0012 37.7742 35.6186C37.8961 35.2529 38.0451 34.9769 38.2212 34.7906C38.3973 34.601 38.6715 34.5062 39.044 34.5062C39.3623 34.5062 39.6214 34.5993 39.8212 34.7855C40.0244 34.9718 40.126 35.2004 40.126 35.4713C40.126 35.6101 40.0921 35.7388 40.0244 35.8573C39.96 35.9758 39.8788 36.0842 39.7806 36.1824C39.6857 36.2772 39.53 36.4194 39.3132 36.6091C39.066 36.8258 38.8696 37.0137 38.724 37.1729C38.5784 37.3287 38.4616 37.5115 38.3735 37.7215C38.2855 37.928 38.2415 38.1735 38.2415 38.458C38.2415 38.6849 38.3007 38.8559 38.4193 38.971C38.5412 39.0861 38.6902 39.1437 38.8663 39.1437C39.2049 39.1437 39.4064 38.9676 39.4707 38.6154C39.508 38.4495 39.535 38.3344 39.552 38.27C39.5723 38.2023 39.5994 38.1363 39.6333 38.0719C39.6671 38.0042 39.7179 37.9314 39.7856 37.8535C39.8567 37.7723 39.9499 37.6791 40.065 37.5742C40.4815 37.2017 40.7694 36.9375 40.9285 36.7818C41.0911 36.6226 41.2299 36.4347 41.345 36.2179C41.4635 36.0012 41.5228 35.7489 41.5228 35.4611C41.5228 35.0954 41.4195 34.7568 41.213 34.4452C41.0098 34.1337 40.7203 33.8882 40.3444 33.7087C39.9685 33.5258 39.535 33.4344 39.044 33.4344C38.5158 33.4344 38.0535 33.5428 37.6573 33.7595C37.2611 33.9762 36.9598 34.2505 36.7532 34.5824ZM38.3786 40.9266C38.5344 41.0587 38.7156 41.1247 38.9221 41.1247C39.1219 41.1247 39.298 41.057 39.4504 40.9215C39.6028 40.7861 39.679 40.5998 39.679 40.3628C39.679 40.1494 39.6062 39.97 39.4605 39.8244C39.3149 39.6787 39.1355 39.6059 38.9221 39.6059C38.7054 39.6059 38.5225 39.6787 38.3735 39.8244C38.2246 39.97 38.1501 40.1494 38.1501 40.3628C38.1501 40.6032 38.2262 40.7911 38.3786 40.9266Z" fill="white"/>
</g>
<path d="M80 21.0533V56.2533H87.5283V28.5333H97.7137C103.339 28.5333 107.899 33.0642 107.899 38.6533V56.2533H115.427V38.6533C115.427 28.9331 107.497 21.0533 97.7137 21.0533H80Z" fill="#11243E"/>
<path fill-rule="evenodd" clip-rule="evenodd" d="M146.177 35.7608C145.455 31.1811 142.646 27.8067 137.028 27.8067C131.81 27.8067 128.199 30.6975 127.237 35.7608H146.177ZM137.911 49.4221C142.325 49.4221 145.535 47.6541 147.462 45.806L152.197 50.7879C149.066 53.9228 144.734 56.2533 137.992 56.2533C126.434 56.2533 118.97 48.7805 118.97 38.6551C118.97 28.6087 126.836 21.0533 136.946 21.0533C148.423 21.0533 154.924 29.5723 154.364 41.3867H127.237C128.199 46.2895 131.73 49.4221 137.911 49.4221Z" fill="#11243E"/>
<path fill-rule="evenodd" clip-rule="evenodd" d="M185.148 35.7608C184.426 31.1811 181.616 27.8067 175.998 27.8067C170.78 27.8067 167.169 30.6975 166.207 35.7608H185.148ZM176.881 49.4221C181.295 49.4221 184.505 47.6541 186.432 45.806L191.167 50.7879C188.036 53.9228 183.704 56.2533 176.962 56.2533C165.404 56.2533 157.94 48.7805 157.94 38.6551C157.94 28.6087 165.807 21.0533 175.916 21.0533C187.393 21.0533 193.894 29.5723 193.334 41.3867H166.207C167.169 46.2895 170.7 49.4221 176.881 49.4221Z" fill="#11243E"/>
<path fill-rule="evenodd" clip-rule="evenodd" d="M196.91 21.3568H202.851V12.2533H210.4V21.3568H217.809V28.1805H210.4V42.0076C210.4 48.2625 211.378 49.2342 217.809 49.2342V56.2533H216.691C206.066 56.2533 202.851 52.9172 202.851 42.078V28.1805H196.91V21.3568Z" fill="#11243E"/>
<path fill-rule="evenodd" clip-rule="evenodd" d="M249.544 38.6539C249.544 32.6965 244.9 27.8227 239.031 27.8227C233.16 27.8227 228.587 32.6965 228.587 38.6539C228.587 44.6102 233.16 49.484 239.031 49.484C244.9 49.484 249.544 44.6102 249.544 38.6539ZM221.351 38.6539C221.351 28.7705 229.201 21.0533 239.031 21.0533C248.861 21.0533 256.779 28.7705 256.779 38.6539C256.779 48.4688 248.861 56.2533 239.031 56.2533C229.201 56.2533 221.351 48.4688 221.351 38.6539Z" fill="#11243E"/>
<path d="M297.415 64.1493L289.769 55.8773C287.889 56.4204 285.821 56.692 283.565 56.692C279.513 56.692 275.774 55.752 272.348 53.872C268.964 51.9502 266.269 49.2973 264.264 45.9133C262.3 42.4876 261.319 38.644 261.319 34.3827C261.319 30.1213 262.3 26.2987 264.264 22.9147C266.269 19.5307 268.964 16.8987 272.348 15.0187C275.774 13.0969 279.513 12.136 283.565 12.136C287.66 12.136 291.399 13.0969 294.783 15.0187C298.208 16.8987 300.903 19.5307 302.867 22.9147C304.83 26.2987 305.812 30.1213 305.812 34.3827C305.812 38.3933 304.935 42.028 303.18 45.2867C301.467 48.5036 299.086 51.0938 296.036 53.0573L306.501 64.1493H297.415ZM268.651 34.3827C268.651 37.5996 269.277 40.4404 270.531 42.9053C271.826 45.3284 273.601 47.2085 275.857 48.5453C278.113 49.8405 280.683 50.488 283.565 50.488C286.448 50.488 289.017 49.8405 291.273 48.5453C293.529 47.2085 295.284 45.3284 296.537 42.9053C297.832 40.4404 298.48 37.5996 298.48 34.3827C298.48 31.1658 297.832 28.3458 296.537 25.9227C295.284 23.4996 293.529 21.6404 291.273 20.3453C289.017 19.0502 286.448 18.4027 283.565 18.4027C280.683 18.4027 278.113 19.0502 275.857 20.3453C273.601 21.6404 271.826 23.4996 270.531 25.9227C269.277 28.3458 268.651 31.1658 268.651 34.3827Z" fill="#11243E"/>
<path d="M343.63 21.724V56.2533H336.486V52.18C335.358 53.6004 333.874 54.7284 332.036 55.564C330.24 56.3578 328.318 56.7547 326.271 56.7547C323.555 56.7547 321.111 56.1907 318.939 55.0627C316.808 53.9347 315.116 52.2636 313.863 50.0493C312.651 47.8351 312.046 45.1613 312.046 42.028V21.724H319.127V40.9627C319.127 44.0542 319.9 46.4356 321.446 48.1067C322.991 49.736 325.101 50.5507 327.775 50.5507C330.449 50.5507 332.558 49.736 334.104 48.1067C335.692 46.4356 336.486 44.0542 336.486 40.9627V21.724H343.63Z" fill="#11243E"/>
<path d="M356.023 17.1493C354.728 17.1493 353.642 16.7107 352.765 15.8333C351.887 14.956 351.449 13.8698 351.449 12.5747C351.449 11.2796 351.887 10.1933 352.765 9.316C353.642 8.43867 354.728 8 356.023 8C357.277 8 358.342 8.43867 359.219 9.316C360.097 10.1933 360.535 11.2796 360.535 12.5747C360.535 13.8698 360.097 14.956 359.219 15.8333C358.342 16.7107 357.277 17.1493 356.023 17.1493ZM359.533 21.724V56.2533H352.389V21.724H359.533Z" fill="#11243E"/>
<path d="M374.575 50.4253H390.242V56.2533H366.303V50.4253L382.032 27.552H366.303V21.724H390.242V27.552L374.575 50.4253Z" fill="#11243E"/>
<path d="M80 21.0533V56.2533H87.5283V28.5333H97.7137C103.339 28.5333 107.899 33.0642 107.899 38.6533V56.2533H115.427V38.6533C115.427 28.9331 107.497 21.0533 97.7137 21.0533H80Z" stroke="#11243E" stroke-width="0.333333"/>
<path fill-rule="evenodd" clip-rule="evenodd" d="M146.177 35.7608C145.455 31.1811 142.646 27.8067 137.028 27.8067C131.81 27.8067 128.199 30.6975 127.237 35.7608H146.177ZM137.911 49.4221C142.325 49.4221 145.535 47.6541 147.462 45.806L152.197 50.7879C149.066 53.9228 144.734 56.2533 137.992 56.2533C126.434 56.2533 118.97 48.7805 118.97 38.6551C118.97 28.6087 126.836 21.0533 136.946 21.0533C148.423 21.0533 154.924 29.5723 154.364 41.3867H127.237C128.199 46.2895 131.73 49.4221 137.911 49.4221Z" stroke="#11243E" stroke-width="0.333333"/>
<path fill-rule="evenodd" clip-rule="evenodd" d="M185.148 35.7608C184.426 31.1811 181.616 27.8067 175.998 27.8067C170.78 27.8067 167.169 30.6975 166.207 35.7608H185.148ZM176.881 49.4221C181.295 49.4221 184.505 47.6541 186.432 45.806L191.167 50.7879C188.036 53.9228 183.704 56.2533 176.962 56.2533C165.404 56.2533 157.94 48.7805 157.94 38.6551C157.94 28.6087 165.807 21.0533 175.916 21.0533C187.393 21.0533 193.894 29.5723 193.334 41.3867H166.207C167.169 46.2895 170.7 49.4221 176.881 49.4221Z" stroke="#11243E" stroke-width="0.333333"/>
<path fill-rule="evenodd" clip-rule="evenodd" d="M196.91 21.3568H202.851V12.2533H210.4V21.3568H217.809V28.1805H210.4V42.0076C210.4 48.2625 211.378 49.2342 217.809 49.2342V56.2533H216.691C206.066 56.2533 202.851 52.9172 202.851 42.078V28.1805H196.91V21.3568Z" stroke="#11243E" stroke-width="0.333333"/>
<path fill-rule="evenodd" clip-rule="evenodd" d="M249.544 38.6539C249.544 32.6965 244.9 27.8227 239.031 27.8227C233.16 27.8227 228.587 32.6965 228.587 38.6539C228.587 44.6102 233.16 49.484 239.031 49.484C244.9 49.484 249.544 44.6102 249.544 38.6539ZM221.351 38.6539C221.351 28.7705 229.201 21.0533 239.031 21.0533C248.861 21.0533 256.779 28.7705 256.779 38.6539C256.779 48.4688 248.861 56.2533 239.031 56.2533C229.201 56.2533 221.351 48.4688 221.351 38.6539Z" stroke="#11243E" stroke-width="0.333333"/>
<path d="M297.415 64.1493L289.769 55.8773C287.889 56.4204 285.821 56.692 283.565 56.692C279.513 56.692 275.774 55.752 272.348 53.872C268.964 51.9502 266.269 49.2973 264.264 45.9133C262.3 42.4876 261.319 38.644 261.319 34.3827C261.319 30.1213 262.3 26.2987 264.264 22.9147C266.269 19.5307 268.964 16.8987 272.348 15.0187C275.774 13.0969 279.513 12.136 283.565 12.136C287.66 12.136 291.399 13.0969 294.783 15.0187C298.208 16.8987 300.903 19.5307 302.867 22.9147C304.83 26.2987 305.812 30.1213 305.812 34.3827C305.812 38.3933 304.935 42.028 303.18 45.2867C301.467 48.5036 299.086 51.0938 296.036 53.0573L306.501 64.1493H297.415ZM268.651 34.3827C268.651 37.5996 269.277 40.4404 270.531 42.9053C271.826 45.3284 273.601 47.2085 275.857 48.5453C278.113 49.8405 280.683 50.488 283.565 50.488C286.448 50.488 289.017 49.8405 291.273 48.5453C293.529 47.2085 295.284 45.3284 296.537 42.9053C297.832 40.4404 298.48 37.5996 298.48 34.3827C298.48 31.1658 297.832 28.3458 296.537 25.9227C295.284 23.4996 293.529 21.6404 291.273 20.3453C289.017 19.0502 286.448 18.4027 283.565 18.4027C280.683 18.4027 278.113 19.0502 275.857 20.3453C273.601 21.6404 271.826 23.4996 270.531 25.9227C269.277 28.3458 268.651 31.1658 268.651 34.3827Z" stroke="#11243E" stroke-width="0.333333"/>
<path d="M343.63 21.724V56.2533H336.486V52.18C335.358 53.6004 333.874 54.7284 332.036 55.564C330.24 56.3578 328.318 56.7547 326.271 56.7547C323.555 56.7547 321.111 56.1907 318.939 55.0627C316.808 53.9347 315.116 52.2636 313.863 50.0493C312.651 47.8351 312.046 45.1613 312.046 42.028V21.724H319.127V40.9627C319.127 44.0542 319.9 46.4356 321.446 48.1067C322.991 49.736 325.101 50.5507 327.775 50.5507C330.449 50.5507 332.558 49.736 334.104 48.1067C335.692 46.4356 336.486 44.0542 336.486 40.9627V21.724H343.63Z" stroke="#11243E" stroke-width="0.333333"/>
<path d="M356.023 17.1493C354.728 17.1493 353.642 16.7107 352.765 15.8333C351.887 14.956 351.449 13.8698 351.449 12.5747C351.449 11.2796 351.887 10.1933 352.765 9.316C353.642 8.43867 354.728 8 356.023 8C357.277 8 358.342 8.43867 359.219 9.316C360.097 10.1933 360.535 11.2796 360.535 12.5747C360.535 13.8698 360.097 14.956 359.219 15.8333C358.342 16.7107 357.277 17.1493 356.023 17.1493ZM359.533 21.724V56.2533H352.389V21.724H359.533Z" stroke="#11243E" stroke-width="0.333333"/>
<path d="M374.575 50.4253H390.242V56.2533H366.303V50.4253L382.032 27.552H366.303V21.724H390.242V27.552L374.575 50.4253Z" stroke="#11243E" stroke-width="0.333333"/>
<defs>
<filter id="filter0_d_3239_11417" x="15.54" y="21.7137" width="38.9443" height="32.5265" filterUnits="userSpaceOnUse" color-interpolation-filters="sRGB">
<feFlood flood-opacity="0" result="BackgroundImageFix"/>
<feColorMatrix in="SourceAlpha" type="matrix" values="0 0 0 0 0 0 0 0 0 0 0 0 0 0 0 0 0 0 127 0" result="hardAlpha"/>
<feOffset dx="3" dy="4"/>
<feGaussianBlur stdDeviation="1.5"/>
<feComposite in2="hardAlpha" operator="out"/>
<feColorMatrix type="matrix" values="0 0 0 0 0 0 0 0 0 0 0 0 0 0 0 0 0 0 0.05 0"/>
<feBlend mode="normal" in2="BackgroundImageFix" result="effect1_dropShadow_3239_11417"/>
<feBlend mode="normal" in="SourceGraphic" in2="effect1_dropShadow_3239_11417" result="shape"/>
</filter>
<linearGradient id="paint0_linear_3239_11417" x1="56" y1="78.8" x2="14" y2="4.22857" gradientUnits="userSpaceOnUse">
<stop stop-color="#FA9E9E"/>
<stop offset="1" stop-color="#FE6363"/>
</linearGradient>
</defs>
</svg>
