<svg width="409" height="64" viewBox="0 0 409 64" fill="none" xmlns="http://www.w3.org/2000/svg">
<path d="M56 32C56 18.7452 45.2547 8 32 8H8V56H56V32Z" fill="url(#paint0_linear_3239_12508)"/>
<path d="M44.0001 11.216C51.253 15.3448 55.994 23.0492 55.994 31.9918V51.8638C55.586 48.7438 53.138 46.1518 44.786 37.0558C38.1044 29.779 41.5281 16.8293 44.0001 11.216Z" fill="url(#paint1_linear_3239_12508)"/>
<path d="M44.0001 11.216C51.253 15.3448 55.994 23.0492 55.994 31.9918V51.8638C55.586 48.7438 53.138 46.1518 44.786 37.0558C38.1044 29.779 41.5281 16.8293 44.0001 11.216Z" fill="url(#paint2_linear_3239_12508)"/>
<path d="M8 8H32C36.2924 8 40.4961 9.152 44.0001 11.216C45.6001 13.9104 47.0912 21.392 41.024 30.224C33.44 41.264 32.6 43.328 29.144 56H8V8Z" fill="url(#paint3_linear_3239_12508)"/>
<path d="M8 8H32C36.2924 8 40.1601 9.08 44.0001 11.216C45.6001 13.9104 47.0912 21.392 41.024 30.224C33.44 41.264 32.6 43.328 29.144 56H8V8Z" fill="url(#paint4_linear_3239_12508)"/>
<path d="M31.904 56C27.944 41.312 15.192 37.9236 8 34.736V56H31.904Z" fill="url(#paint5_linear_3239_12508)" fill-opacity="0.4"/>
<path d="M80 20.2986V55.4986H87.5283V27.7786H97.7137C103.339 27.7786 107.899 32.3095 107.899 37.8986V55.4986H115.427V37.8986C115.427 28.1784 107.497 20.2986 97.7137 20.2986H80Z" fill="#11243E"/>
<path fill-rule="evenodd" clip-rule="evenodd" d="M146.177 35.0061C145.455 30.4264 142.646 27.052 137.028 27.052C131.81 27.052 128.199 29.9428 127.237 35.0061H146.177ZM137.911 48.6674C142.325 48.6674 145.535 46.8994 147.462 45.0513L152.197 50.0332C149.066 53.1681 144.734 55.4986 137.992 55.4986C126.434 55.4986 118.97 48.0258 118.97 37.9004C118.97 27.854 126.836 20.2986 136.946 20.2986C148.423 20.2986 154.924 28.8176 154.364 40.632H127.237C128.199 45.5348 131.73 48.6674 137.911 48.6674Z" fill="#11243E"/>
<path fill-rule="evenodd" clip-rule="evenodd" d="M185.148 35.0061C184.426 30.4264 181.616 27.052 175.998 27.052C170.78 27.052 167.169 29.9428 166.207 35.0061H185.148ZM176.881 48.6674C181.295 48.6674 184.505 46.8994 186.432 45.0513L191.167 50.0332C188.036 53.1681 183.704 55.4986 176.962 55.4986C165.404 55.4986 157.94 48.0258 157.94 37.9004C157.94 27.854 165.807 20.2986 175.916 20.2986C187.393 20.2986 193.894 28.8176 193.334 40.632H166.207C167.169 45.5348 170.7 48.6674 176.881 48.6674Z" fill="#11243E"/>
<path fill-rule="evenodd" clip-rule="evenodd" d="M196.91 20.6021H202.851V11.4986H210.4V20.6021H217.809V27.4258H210.4V41.253C210.4 47.5078 211.378 48.4795 217.809 48.4795V55.4986H216.691C206.066 55.4986 202.851 52.1626 202.851 41.3233V27.4258H196.91V20.6021Z" fill="#11243E"/>
<path fill-rule="evenodd" clip-rule="evenodd" d="M249.544 37.8992C249.544 31.9418 244.9 27.068 239.031 27.068C233.16 27.068 228.587 31.9418 228.587 37.8992C228.587 43.8555 233.16 48.7293 239.031 48.7293C244.9 48.7293 249.544 43.8555 249.544 37.8992ZM221.351 37.8992C221.351 28.0158 229.201 20.2986 239.031 20.2986C248.861 20.2986 256.779 28.0158 256.779 37.8992C256.779 47.7141 248.861 55.4986 239.031 55.4986C229.201 55.4986 221.351 47.7141 221.351 37.8992Z" fill="#11243E"/>
<path d="M289.957 46.6H271.721L268.588 55.4986H261.131L276.735 11.8826H285.007L300.611 55.4986H293.091L289.957 46.6ZM287.952 40.772L280.871 20.5306L273.727 40.772H287.952Z" fill="#11243E"/>
<path d="M337.999 20.9693V55.4986H330.855V51.4253C329.727 52.8457 328.244 53.9738 326.406 54.8093C324.61 55.6031 322.688 56 320.641 56C317.925 56 315.481 55.436 313.309 54.308C311.178 53.18 309.486 51.5089 308.233 49.2946C307.021 47.0804 306.415 44.4066 306.415 41.2733V20.9693H313.497V40.208C313.497 43.2995 314.27 45.6809 315.815 47.352C317.361 48.9813 319.471 49.796 322.145 49.796C324.818 49.796 326.928 48.9813 328.474 47.352C330.062 45.6809 330.855 43.2995 330.855 40.208V20.9693H337.999Z" fill="#11243E"/>
<path d="M355.093 26.7973V45.9106C355.093 47.2058 355.386 48.1458 355.971 48.7306C356.597 49.2738 357.642 49.5453 359.104 49.5453H363.491V55.4986H357.851C354.634 55.4986 352.169 54.7466 350.456 53.2426C348.743 51.7386 347.887 49.2946 347.887 45.9106V26.7973H343.813V20.9693H347.887V12.384H355.093V20.9693H363.491V26.7973H355.093Z" fill="#11243E"/>
<path d="M387.268 20.4053C389.9 20.4053 392.24 20.9693 394.287 22.0973C396.376 23.2253 398.005 24.8964 399.175 27.1106C400.387 29.3249 400.992 31.9986 400.992 35.132V55.4986H393.911V36.1973C393.911 33.1057 393.138 30.7453 391.592 29.116C390.047 27.4449 387.937 26.6093 385.263 26.6093C382.589 26.6093 380.459 27.4449 378.871 29.116C377.325 30.7453 376.552 33.1057 376.552 36.1973V55.4986H369.408V9.12531H376.552V24.98C377.764 23.5177 379.289 22.3897 381.127 21.596C383.007 20.8022 385.054 20.4053 387.268 20.4053Z" fill="#11243E"/>
<path d="M80 20.2986V55.4986H87.5283V27.7786H97.7137C103.339 27.7786 107.899 32.3095 107.899 37.8986V55.4986H115.427V37.8986C115.427 28.1784 107.497 20.2986 97.7137 20.2986H80Z" stroke="#11243E" stroke-width="0.333333"/>
<path fill-rule="evenodd" clip-rule="evenodd" d="M146.177 35.0061C145.455 30.4264 142.646 27.052 137.028 27.052C131.81 27.052 128.199 29.9428 127.237 35.0061H146.177ZM137.911 48.6674C142.325 48.6674 145.535 46.8994 147.462 45.0513L152.197 50.0332C149.066 53.1681 144.734 55.4986 137.992 55.4986C126.434 55.4986 118.97 48.0258 118.97 37.9004C118.97 27.854 126.836 20.2986 136.946 20.2986C148.423 20.2986 154.924 28.8176 154.364 40.632H127.237C128.199 45.5348 131.73 48.6674 137.911 48.6674Z" stroke="#11243E" stroke-width="0.333333"/>
<path fill-rule="evenodd" clip-rule="evenodd" d="M185.148 35.0061C184.426 30.4264 181.616 27.052 175.998 27.052C170.78 27.052 167.169 29.9428 166.207 35.0061H185.148ZM176.881 48.6674C181.295 48.6674 184.505 46.8994 186.432 45.0513L191.167 50.0332C188.036 53.1681 183.704 55.4986 176.962 55.4986C165.404 55.4986 157.94 48.0258 157.94 37.9004C157.94 27.854 165.807 20.2986 175.916 20.2986C187.393 20.2986 193.894 28.8176 193.334 40.632H166.207C167.169 45.5348 170.7 48.6674 176.881 48.6674Z" stroke="#11243E" stroke-width="0.333333"/>
<path fill-rule="evenodd" clip-rule="evenodd" d="M196.91 20.6021H202.851V11.4986H210.4V20.6021H217.809V27.4258H210.4V41.253C210.4 47.5078 211.378 48.4795 217.809 48.4795V55.4986H216.691C206.066 55.4986 202.851 52.1626 202.851 41.3233V27.4258H196.91V20.6021Z" stroke="#11243E" stroke-width="0.333333"/>
<path fill-rule="evenodd" clip-rule="evenodd" d="M249.544 37.8992C249.544 31.9418 244.9 27.068 239.031 27.068C233.16 27.068 228.587 31.9418 228.587 37.8992C228.587 43.8555 233.16 48.7293 239.031 48.7293C244.9 48.7293 249.544 43.8555 249.544 37.8992ZM221.351 37.8992C221.351 28.0158 229.201 20.2986 239.031 20.2986C248.861 20.2986 256.779 28.0158 256.779 37.8992C256.779 47.7141 248.861 55.4986 239.031 55.4986C229.201 55.4986 221.351 47.7141 221.351 37.8992Z" stroke="#11243E" stroke-width="0.333333"/>
<path d="M289.957 46.6H271.721L268.588 55.4986H261.131L276.735 11.8826H285.007L300.611 55.4986H293.091L289.957 46.6ZM287.952 40.772L280.871 20.5306L273.727 40.772H287.952Z" stroke="#11243E" stroke-width="0.333333"/>
<path d="M337.999 20.9693V55.4986H330.855V51.4253C329.727 52.8457 328.244 53.9738 326.406 54.8093C324.61 55.6031 322.688 56 320.641 56C317.925 56 315.481 55.436 313.309 54.308C311.178 53.18 309.486 51.5089 308.233 49.2946C307.021 47.0804 306.415 44.4066 306.415 41.2733V20.9693H313.497V40.208C313.497 43.2995 314.27 45.6809 315.815 47.352C317.361 48.9813 319.471 49.796 322.145 49.796C324.818 49.796 326.928 48.9813 328.474 47.352C330.062 45.6809 330.855 43.2995 330.855 40.208V20.9693H337.999Z" stroke="#11243E" stroke-width="0.333333"/>
<path d="M355.093 26.7973V45.9106C355.093 47.2058 355.386 48.1458 355.971 48.7306C356.597 49.2738 357.642 49.5453 359.104 49.5453H363.491V55.4986H357.851C354.634 55.4986 352.169 54.7466 350.456 53.2426C348.743 51.7386 347.887 49.2946 347.887 45.9106V26.7973H343.813V20.9693H347.887V12.384H355.093V20.9693H363.491V26.7973H355.093Z" stroke="#11243E" stroke-width="0.333333"/>
<path d="M387.268 20.4053C389.9 20.4053 392.24 20.9693 394.287 22.0973C396.376 23.2253 398.005 24.8964 399.175 27.1106C400.387 29.3249 400.992 31.9986 400.992 35.132V55.4986H393.911V36.1973C393.911 33.1057 393.138 30.7453 391.592 29.116C390.047 27.4449 387.937 26.6093 385.263 26.6093C382.589 26.6093 380.459 27.4449 378.871 29.116C377.325 30.7453 376.552 33.1057 376.552 36.1973V55.4986H369.408V9.12531H376.552V24.98C377.764 23.5177 379.289 22.3897 381.127 21.596C383.007 20.8022 385.054 20.4053 387.268 20.4053Z" stroke="#11243E" stroke-width="0.333333"/>
<defs>
<linearGradient id="paint0_linear_3239_12508" x1="8" y1="10.088" x2="52.136" y2="59.24" gradientUnits="userSpaceOnUse">
<stop stop-color="#8BBEFF"/>
<stop offset="0.612688" stop-color="#8C9CF5"/>
<stop offset="0.779469" stop-color="#8FA1F2"/>
<stop offset="1" stop-color="#98ACF4"/>
</linearGradient>
<linearGradient id="paint1_linear_3239_12508" x1="15.5111" y1="7.88664" x2="15.0793" y2="69.8871" gradientUnits="userSpaceOnUse">
<stop stop-color="#6565E3"/>
<stop offset="0.489583" stop-color="#8A99EE"/>
</linearGradient>
<linearGradient id="paint2_linear_3239_12508" x1="34.7573" y1="33.2225" x2="38.8953" y2="59.3773" gradientUnits="userSpaceOnUse">
<stop stop-color="#6C6CDE" stop-opacity="0"/>
<stop offset="1" stop-color="#8C96EB"/>
</linearGradient>
<linearGradient id="paint3_linear_3239_12508" x1="51.5983" y1="12.152" x2="39.1146" y2="57.958" gradientUnits="userSpaceOnUse">
<stop stop-color="#8684ED"/>
<stop offset="0.510809" stop-color="#8C9DF6"/>
<stop offset="0.767213" stop-color="#8B94F2" stop-opacity="0"/>
</linearGradient>
<linearGradient id="paint4_linear_3239_12508" x1="4.18207" y1="1.232" x2="16.9253" y2="28.6308" gradientUnits="userSpaceOnUse">
<stop offset="0.197917" stop-color="#AF84FF"/>
<stop offset="0.9375" stop-color="#8B94F2" stop-opacity="0"/>
</linearGradient>
<linearGradient id="paint5_linear_3239_12508" x1="18.56" y1="36.224" x2="18.608" y2="50.408" gradientUnits="userSpaceOnUse">
<stop stop-color="#8CA7F8"/>
<stop offset="0.287723" stop-color="#8CA4F8"/>
<stop offset="0.614583" stop-color="#8BBFFE"/>
<stop offset="1" stop-color="#84CAFF"/>
</linearGradient>
</defs>
</svg>
