<svg xmlns="http://www.w3.org/2000/svg" width="369" height="64" fill="none" viewBox="0 0 369 64"><path fill="url(#paint0_linear_3239_11619)" d="M56 32C56 18.7452 45.2548 8 32 8H8V56H56V32Z"/><g filter="url(#filter0_d_3239_11619)"><rect width="2.878" height="2.878" x="24.949" y="34.665" fill="#fff" rx=".24"/><rect width="2.878" height="2.878" x="24.949" y="38.408" fill="#fff" rx=".24"/><rect width="2.878" height="2.878" x="28.689" y="30.925" fill="#fff" rx=".24"/><rect width="2.878" height="2.878" x="28.689" y="34.665" fill="#fff" rx=".24"/><rect width="2.878" height="2.878" x="28.689" y="38.408" fill="#fff" rx=".24"/><rect width="2.878" height="2.878" x="32.432" y="30.925" fill="#fff" rx=".24"/><rect width="2.878" height="2.878" x="36.176" y="30.925" fill="#fff" rx=".24"/><rect width="2.878" height="2.878" x="32.432" y="34.665" fill="#fff" rx=".24"/><rect width="2.878" height="2.878" x="32.432" y="38.408" fill="#fff" rx=".24"/><rect width="2.878" height="2.878" x="36.176" y="34.665" fill="#fff" rx=".24"/><rect width="2.159" height="4.03" x="25.957" y="21.714" fill="#fff" rx="1.079"/><rect width="2.159" height="4.03" x="35.887" y="21.714" fill="#fff" rx="1.079"/><path fill="#fff" fill-rule="evenodd" d="M35.4551 23.4414H28.5476V24.664C28.5476 25.4985 27.8711 26.1751 27.0365 26.1751C26.2019 26.1751 25.5254 25.4985 25.5254 24.664V23.4414H23.4619C21.7398 23.4414 20.3438 24.8375 20.3438 26.5596V42.774C20.3438 44.4962 21.7398 45.8922 23.4619 45.8922H40.5399C42.262 45.8922 43.658 44.4962 43.658 42.774V26.5596C43.658 24.8375 42.262 23.4414 40.5399 23.4414H38.4773V24.664C38.4773 25.4985 37.8008 26.1751 36.9662 26.1751C36.1316 26.1751 35.4551 25.4985 35.4551 24.664V23.4414ZM23.7024 29.1973C23.4374 29.1973 23.2227 29.412 23.2227 29.677V42.5334C23.2227 42.7984 23.4374 43.0131 23.7024 43.0131H40.3006C40.5656 43.0131 40.7803 42.7984 40.7803 42.5334V29.677C40.7803 29.412 40.5656 29.1973 40.3006 29.1973H23.7024Z" clip-rule="evenodd"/></g><path fill="#11243E" d="M80 20.236V55.436H87.5283V27.716H97.7137C103.339 27.716 107.899 32.2468 107.899 37.836V55.436H115.427V37.836C115.427 28.1157 107.497 20.236 97.7137 20.236H80Z"/><path fill="#11243E" fill-rule="evenodd" d="M146.177 34.9434C145.455 30.3637 142.646 26.9894 137.028 26.9894C131.81 26.9894 128.199 29.8801 127.237 34.9434H146.177ZM137.911 48.6047C142.325 48.6047 145.535 46.8368 147.462 44.9886L152.197 49.9705C149.066 53.1054 144.734 55.436 137.992 55.436C126.434 55.436 118.97 47.9631 118.97 37.8377C118.97 27.7914 126.836 20.236 136.946 20.236C148.423 20.236 154.924 28.755 154.364 40.5693H127.237C128.199 45.4722 131.73 48.6047 137.911 48.6047Z" clip-rule="evenodd"/><path fill="#11243E" fill-rule="evenodd" d="M185.148 34.9434C184.426 30.3637 181.616 26.9894 175.998 26.9894C170.78 26.9894 167.169 29.8801 166.207 34.9434H185.148ZM176.881 48.6047C181.295 48.6047 184.505 46.8368 186.432 44.9886L191.167 49.9705C188.036 53.1054 183.704 55.436 176.962 55.436C165.404 55.436 157.94 47.9631 157.94 37.8377C157.94 27.7914 165.807 20.236 175.916 20.236C187.393 20.236 193.894 28.755 193.334 40.5693H166.207C167.169 45.4722 170.7 48.6047 176.881 48.6047Z" clip-rule="evenodd"/><path fill="#11243E" fill-rule="evenodd" d="M196.91 20.5394H202.851V11.436H210.4V20.5394H217.809V27.3631H210.4V41.1903C210.4 47.4451 211.378 48.4168 217.809 48.4168V55.436H216.691C206.066 55.436 202.851 52.0999 202.851 41.2606V27.3631H196.91V20.5394Z" clip-rule="evenodd"/><path fill="#11243E" fill-rule="evenodd" d="M249.544 37.8365C249.544 31.8791 244.9 27.0053 239.031 27.0053C233.16 27.0053 228.587 31.8791 228.587 37.8365C228.587 43.7928 233.16 48.6666 239.031 48.6666C244.9 48.6666 249.544 43.7928 249.544 37.8365ZM221.351 37.8365C221.351 27.9531 229.201 20.236 239.031 20.236C248.861 20.236 256.779 27.9531 256.779 37.8365C256.779 47.6514 248.861 55.436 239.031 55.436C229.201 55.436 221.351 47.6514 221.351 37.8365Z" clip-rule="evenodd"/><path fill="#11243E" d="M261.319 33.5653C261.319 29.304 262.3 25.4813 264.264 22.0973C266.269 18.7133 268.964 16.0813 272.348 14.2013C275.774 12.2795 279.513 11.3186 283.565 11.3186C288.203 11.3186 292.318 12.4675 295.911 14.7653C299.545 17.0213 302.177 20.2382 303.807 24.416H295.221C294.093 22.1182 292.527 20.4053 290.521 19.2773C288.516 18.1493 286.197 17.5853 283.565 17.5853C280.683 17.5853 278.113 18.2328 275.857 19.528C273.601 20.8231 271.826 22.6822 270.531 25.1053C269.277 27.5284 268.651 30.3484 268.651 33.5653C268.651 36.7822 269.277 39.6022 270.531 42.0253C271.826 44.4484 273.601 46.3284 275.857 47.6653C278.113 48.9604 280.683 49.608 283.565 49.608C286.197 49.608 288.516 49.044 290.521 47.916C292.527 46.788 294.093 45.0751 295.221 42.7773H303.807C302.177 46.9551 299.545 50.172 295.911 52.428C292.318 54.684 288.203 55.812 283.565 55.812C279.471 55.812 275.732 54.872 272.348 52.992C268.964 51.0702 266.269 48.4173 264.264 45.0333C262.3 41.6493 261.319 37.8266 261.319 33.5653Z"/><path fill="#11243E" d="M309.121 38.0146C309.121 34.5471 309.831 31.4764 311.251 28.8026C312.714 26.1288 314.677 24.0608 317.142 22.5986C319.649 21.0946 322.406 20.3426 325.414 20.3426C328.13 20.3426 330.49 20.8857 332.495 21.972C334.543 23.0164 336.172 24.3324 337.383 25.92V20.9066H344.59V55.436H337.383V50.2973C336.172 51.9266 334.522 53.2844 332.433 54.3706C330.344 55.4568 327.963 56 325.289 56C322.323 56 319.607 55.248 317.142 53.744C314.677 52.1982 312.714 50.0675 311.251 47.352C309.831 44.5946 309.121 41.4822 309.121 38.0146ZM337.383 38.14C337.383 35.7586 336.882 33.6906 335.879 31.936C334.919 30.1813 333.644 28.8444 332.057 27.9253C330.469 27.0062 328.756 26.5466 326.918 26.5466C325.08 26.5466 323.367 27.0062 321.779 27.9253C320.192 28.8026 318.897 30.1186 317.894 31.8733C316.933 33.5862 316.453 35.6333 316.453 38.0146C316.453 40.396 316.933 42.4848 317.894 44.2813C318.897 46.0777 320.192 47.4564 321.779 48.4173C323.409 49.3364 325.122 49.796 326.918 49.796C328.756 49.796 330.469 49.3364 332.057 48.4173C333.644 47.4982 334.919 46.1613 335.879 44.4066C336.882 42.6102 337.383 40.5213 337.383 38.14Z"/><path fill="#11243E" d="M360.451 9.06262V55.436H353.307V9.06262H360.451Z"/><path stroke="#11243E" stroke-width=".333" d="M80 20.236V55.436H87.5283V27.716H97.7137C103.339 27.716 107.899 32.2468 107.899 37.836V55.436H115.427V37.836C115.427 28.1157 107.497 20.236 97.7137 20.236H80Z"/><path fill-rule="evenodd" stroke="#11243E" stroke-width=".333" d="M146.177 34.9434C145.455 30.3637 142.646 26.9894 137.028 26.9894C131.81 26.9894 128.199 29.8801 127.237 34.9434H146.177ZM137.911 48.6047C142.325 48.6047 145.535 46.8368 147.462 44.9886L152.197 49.9705C149.066 53.1054 144.734 55.436 137.992 55.436C126.434 55.436 118.97 47.9631 118.97 37.8377C118.97 27.7914 126.836 20.236 136.946 20.236C148.423 20.236 154.924 28.755 154.364 40.5693H127.237C128.199 45.4722 131.73 48.6047 137.911 48.6047Z" clip-rule="evenodd"/><path fill-rule="evenodd" stroke="#11243E" stroke-width=".333" d="M185.148 34.9434C184.426 30.3637 181.616 26.9894 175.998 26.9894C170.78 26.9894 167.169 29.8801 166.207 34.9434H185.148ZM176.881 48.6047C181.295 48.6047 184.505 46.8368 186.432 44.9886L191.167 49.9705C188.036 53.1054 183.704 55.436 176.962 55.436C165.404 55.436 157.94 47.9631 157.94 37.8377C157.94 27.7914 165.807 20.236 175.916 20.236C187.393 20.236 193.894 28.755 193.334 40.5693H166.207C167.169 45.4722 170.7 48.6047 176.881 48.6047Z" clip-rule="evenodd"/><path fill-rule="evenodd" stroke="#11243E" stroke-width=".333" d="M196.91 20.5394H202.851V11.436H210.4V20.5394H217.809V27.3631H210.4V41.1903C210.4 47.4451 211.378 48.4168 217.809 48.4168V55.436H216.691C206.066 55.436 202.851 52.0999 202.851 41.2606V27.3631H196.91V20.5394Z" clip-rule="evenodd"/><path fill-rule="evenodd" stroke="#11243E" stroke-width=".333" d="M249.544 37.8365C249.544 31.8791 244.9 27.0053 239.031 27.0053C233.16 27.0053 228.587 31.8791 228.587 37.8365C228.587 43.7928 233.16 48.6666 239.031 48.6666C244.9 48.6666 249.544 43.7928 249.544 37.8365ZM221.351 37.8365C221.351 27.9531 229.201 20.236 239.031 20.236C248.861 20.236 256.779 27.9531 256.779 37.8365C256.779 47.6514 248.861 55.436 239.031 55.436C229.201 55.436 221.351 47.6514 221.351 37.8365Z" clip-rule="evenodd"/><path stroke="#11243E" stroke-width=".333" d="M261.319 33.5653C261.319 29.304 262.3 25.4813 264.264 22.0973C266.269 18.7133 268.964 16.0813 272.348 14.2013C275.774 12.2795 279.513 11.3186 283.565 11.3186C288.203 11.3186 292.318 12.4675 295.911 14.7653C299.545 17.0213 302.177 20.2382 303.807 24.416H295.221C294.093 22.1182 292.527 20.4053 290.521 19.2773C288.516 18.1493 286.197 17.5853 283.565 17.5853C280.683 17.5853 278.113 18.2328 275.857 19.528C273.601 20.8231 271.826 22.6822 270.531 25.1053C269.277 27.5284 268.651 30.3484 268.651 33.5653C268.651 36.7822 269.277 39.6022 270.531 42.0253C271.826 44.4484 273.601 46.3284 275.857 47.6653C278.113 48.9604 280.683 49.608 283.565 49.608C286.197 49.608 288.516 49.044 290.521 47.916C292.527 46.788 294.093 45.0751 295.221 42.7773H303.807C302.177 46.9551 299.545 50.172 295.911 52.428C292.318 54.684 288.203 55.812 283.565 55.812C279.471 55.812 275.732 54.872 272.348 52.992C268.964 51.0702 266.269 48.4173 264.264 45.0333C262.3 41.6493 261.319 37.8266 261.319 33.5653Z"/><path stroke="#11243E" stroke-width=".333" d="M309.121 38.0146C309.121 34.5471 309.831 31.4764 311.251 28.8026C312.714 26.1288 314.677 24.0608 317.142 22.5986C319.649 21.0946 322.406 20.3426 325.414 20.3426C328.13 20.3426 330.49 20.8857 332.495 21.972C334.543 23.0164 336.172 24.3324 337.383 25.92V20.9066H344.59V55.436H337.383V50.2973C336.172 51.9266 334.522 53.2844 332.433 54.3706C330.344 55.4568 327.963 56 325.289 56C322.323 56 319.607 55.248 317.142 53.744C314.677 52.1982 312.714 50.0675 311.251 47.352C309.831 44.5946 309.121 41.4822 309.121 38.0146ZM337.383 38.14C337.383 35.7586 336.882 33.6906 335.879 31.936C334.919 30.1813 333.644 28.8444 332.057 27.9253C330.469 27.0062 328.756 26.5466 326.918 26.5466C325.08 26.5466 323.367 27.0062 321.779 27.9253C320.192 28.8026 318.897 30.1186 317.894 31.8733C316.933 33.5862 316.453 35.6333 316.453 38.0146C316.453 40.396 316.933 42.4848 317.894 44.2813C318.897 46.0777 320.192 47.4564 321.779 48.4173C323.409 49.3364 325.122 49.796 326.918 49.796C328.756 49.796 330.469 49.3364 332.057 48.4173C333.644 47.4982 334.919 46.1613 335.879 44.4066C336.882 42.6102 337.383 40.5213 337.383 38.14Z"/><path stroke="#11243E" stroke-width=".333" d="M360.451 9.06262V55.436H353.307V9.06262H360.451Z"/><defs><filter id="filter0_d_3239_11619" width="29.314" height="31.178" x="20.344" y="21.714" color-interpolation-filters="sRGB" filterUnits="userSpaceOnUse"><feFlood flood-opacity="0" result="BackgroundImageFix"/><feColorMatrix in="SourceAlpha" result="hardAlpha" type="matrix" values="0 0 0 0 0 0 0 0 0 0 0 0 0 0 0 0 0 0 127 0"/><feOffset dx="3" dy="4"/><feGaussianBlur stdDeviation="1.5"/><feComposite in2="hardAlpha" operator="out"/><feColorMatrix type="matrix" values="0 0 0 0 0 0 0 0 0 0 0 0 0 0 0 0 0 0 0.05 0"/><feBlend in2="BackgroundImageFix" mode="normal" result="effect1_dropShadow_3239_11619"/><feBlend in="SourceGraphic" in2="effect1_dropShadow_3239_11619" mode="normal" result="shape"/></filter><linearGradient id="paint0_linear_3239_11619" x1="56" x2="33.346" y1="65.771" y2="13.607" gradientUnits="userSpaceOnUse"><stop stop-color="#EE4D5F"/><stop offset="1" stop-color="#FFCDA5"/></linearGradient></defs></svg>