<svg width="604" height="74" viewBox="0 0 604 74" fill="none" xmlns="http://www.w3.org/2000/svg">
<path d="M48 32.9956C48 19.7408 37.2548 8.99561 24 8.99561H0V56.9956H48V32.9956Z" fill="url(#paint0_linear_3688_21601)"/>
<rect x="30.2505" y="25.1099" width="2.91609" height="18.8985" rx="1.45805" fill="white"/>
<path fill-rule="evenodd" clip-rule="evenodd" d="M34.9043 36.9902C35.1066 37.068 35.3264 37.1106 35.5561 37.1106C36.5592 37.1106 37.3724 36.2974 37.3724 35.2943V33.936C37.3724 32.9328 36.5592 32.1196 35.5561 32.1196C35.3264 32.1196 35.1066 32.1623 34.9043 32.2401V36.9902Z" fill="white"/>
<path d="M14.6648 36.8932C14.6264 36.559 14.6855 36.221 14.8349 35.9197C15.6535 34.2696 18.1389 34.8522 18.1389 36.6941V44.8642C18.1389 45.5682 17.5682 46.139 16.8642 46.139C16.2164 46.139 15.6717 45.6532 15.5977 45.0098L14.6648 36.8932Z" fill="white"/>
<path fill-rule="evenodd" clip-rule="evenodd" d="M11.0269 30.7004C10.595 30.792 10.2861 31.1732 10.2861 31.6147V37.9355C10.2861 38.384 10.6048 38.7694 11.0454 38.8535L18.1085 40.2026L18.1085 29.1985L11.0269 30.7004ZM19.7629 28.8477L19.7629 40.5186L30.2501 42.5218V26.6235L19.7629 28.8477Z" fill="white"/>
<path fill-rule="evenodd" clip-rule="evenodd" d="M90.0873 20.9956H73.2401L81.5759 29.1936H90.0873C95.4515 29.1936 99.7952 33.4444 99.7952 38.6821V56.3687H108.175V38.6821C108.175 28.9115 100.074 20.9956 90.0873 20.9956ZM80.3794 30.3874L72 22.1464V56.3687H80.3794V30.3874ZM144.982 50.5856L139.664 45.0812L139.346 45.382C137.501 47.124 134.408 48.8066 130.135 48.8066C127.13 48.8066 124.814 48.0582 123.14 46.7629C121.593 45.5663 120.559 43.8765 120.047 41.7943H146.946L146.966 41.3822C147.249 35.5104 145.75 30.413 142.686 26.7756C139.615 23.1306 135.007 20.9956 129.173 20.9956C118.87 20.9956 110.825 28.5853 110.825 38.6839C110.825 43.7572 112.728 48.1867 116.12 51.3465C119.511 54.5052 124.362 56.3687 130.216 56.3687C137.052 56.3687 141.48 54.036 144.679 50.8838L144.982 50.5856ZM183.807 50.5856L178.49 45.0812L178.171 45.382C176.326 47.124 173.233 48.8066 168.96 48.8066C165.955 48.8066 163.639 48.0582 161.965 46.7629C160.418 45.5663 159.385 43.8765 158.872 41.7943H185.771L185.791 41.3822C186.074 35.5104 184.575 30.413 181.511 26.7756C178.44 23.1306 173.832 20.9956 167.999 20.9956C157.695 20.9956 149.65 28.5853 149.65 38.6839C149.65 43.7572 151.553 48.1867 154.945 51.3465C158.336 54.5052 163.187 56.3687 169.041 56.3687C175.877 56.3687 180.305 54.036 183.504 50.8838L183.807 50.5856ZM194.393 21.2931H188.475V28.8477H194.393V42.0395C194.393 47.366 195.189 50.9971 197.443 53.2744C199.701 55.5551 203.311 56.3687 208.622 56.3687H210.175V48.6225H209.735C208.138 48.6225 206.91 48.5625 205.961 48.3854C205.015 48.209 204.387 47.9235 203.95 47.5029C203.514 47.0834 203.22 46.4829 203.038 45.5804C202.856 44.6727 202.794 43.4991 202.794 41.9705V28.8477H210.175V21.2931H202.794V12.3687H194.393V21.2931ZM129.255 28.4813C131.961 28.4813 133.946 29.2782 135.34 30.578C136.632 31.7823 137.453 33.4518 137.846 35.4139H120.043C120.557 33.2646 121.603 31.5866 123.065 30.4225C124.642 29.1664 126.738 28.4813 129.255 28.4813ZM168.081 28.4813C170.786 28.4813 172.771 29.2782 174.165 30.578C175.457 31.7823 176.278 33.4518 176.672 35.4139H158.868C159.382 33.2646 160.428 31.5866 161.89 30.4225C163.467 29.1664 165.563 28.4813 168.081 28.4813ZM230.879 28.497C236.469 28.497 240.913 33.0666 240.913 38.6827C240.913 44.2976 236.469 48.8673 230.879 48.8673C225.291 48.8673 220.913 44.3014 220.913 38.6827C220.913 33.0628 225.291 28.497 230.879 28.497ZM230.879 20.9956C220.846 20.9956 212.825 28.7513 212.825 38.6827C212.825 48.5458 220.845 56.3687 230.879 56.3687C240.91 56.3687 249 48.548 249 38.6827C249 28.7492 240.909 20.9956 230.879 20.9956Z" fill="#11243E"/>
<path d="M253.193 34.4356C253.193 30.1325 254.154 26.2889 256.076 22.9049C258.04 19.4792 260.692 16.8263 264.035 14.9463C267.419 13.0245 271.2 12.0636 275.377 12.0636C280.265 12.0636 284.548 13.3169 288.224 15.8236C291.9 18.3303 294.47 21.7978 295.932 26.2263H285.843C284.84 24.1374 283.42 22.5707 281.581 21.5263C279.785 20.4818 277.696 19.9596 275.315 19.9596C272.766 19.9596 270.489 20.5654 268.484 21.7769C266.52 22.9467 264.975 24.6178 263.847 26.7903C262.76 28.9627 262.217 31.5112 262.217 34.4356C262.217 37.3183 262.76 39.8667 263.847 42.0809C264.975 44.2534 266.52 45.9454 268.484 47.1569C270.489 48.3267 272.766 48.9116 275.315 48.9116C277.696 48.9116 279.785 48.3894 281.581 47.3449C283.42 46.2587 284.84 44.6712 285.843 42.5823H295.932C294.47 47.0525 291.9 50.5409 288.224 53.0476C284.589 55.5125 280.307 56.7449 275.377 56.7449C271.2 56.7449 267.419 55.8049 264.035 53.9249C260.692 52.0032 258.04 49.3503 256.076 45.9663C254.154 42.5823 253.193 38.7387 253.193 34.4356Z" fill="#11243E"/>
<path d="M322.311 21.1503C324.943 21.1503 327.282 21.7352 329.33 22.9049C331.377 24.0329 332.964 25.7249 334.092 27.9809C335.262 30.1952 335.847 32.8689 335.847 36.0023V56.3689H327.074V37.1929C327.074 34.4356 326.384 32.3258 325.006 30.8636C323.627 29.3596 321.747 28.6076 319.366 28.6076C316.942 28.6076 315.021 29.3596 313.6 30.8636C312.222 32.3258 311.532 34.4356 311.532 37.1929V56.3689H302.759V9.99561H311.532V25.9756C312.66 24.4716 314.164 23.3018 316.044 22.4663C317.924 21.5889 320.013 21.1503 322.311 21.1503Z" fill="#11243E"/>
<path d="M341.267 38.8849C341.267 35.3756 341.957 32.2632 343.335 29.5476C344.756 26.832 346.657 24.7432 349.038 23.2809C351.461 21.8187 354.156 21.0876 357.122 21.0876C359.712 21.0876 361.968 21.6098 363.89 22.6543C365.853 23.6987 367.42 25.0147 368.59 26.6023V21.6516H377.426V56.3689H368.59V51.2929C367.462 52.9223 365.895 54.28 363.89 55.3663C361.926 56.4107 359.649 56.9329 357.059 56.9329C354.135 56.9329 351.461 56.1809 349.038 54.6769C346.657 53.1729 344.756 51.0632 343.335 48.3476C341.957 45.5903 341.267 42.4361 341.267 38.8849ZM368.59 39.0103C368.59 36.8796 368.172 35.0623 367.337 33.5583C366.501 32.0125 365.373 30.8427 363.953 30.0489C362.532 29.2134 361.007 28.7956 359.378 28.7956C357.749 28.7956 356.245 29.1925 354.866 29.9863C353.487 30.7801 352.359 31.9498 351.482 33.4956C350.646 34.9996 350.229 36.796 350.229 38.8849C350.229 40.9738 350.646 42.812 351.482 44.3996C352.359 45.9454 353.487 47.1361 354.866 47.9716C356.286 48.8072 357.79 49.2249 359.378 49.2249C361.007 49.2249 362.532 48.8281 363.953 48.0343C365.373 47.1987 366.501 46.0289 367.337 44.5249C368.172 42.9792 368.59 41.1409 368.59 39.0103Z" fill="#11243E"/>
<path d="M404.567 21.1503C408.703 21.1503 412.045 22.4663 414.593 25.0983C417.142 27.6885 418.416 31.3232 418.416 36.0023V56.3689H409.643V37.1929C409.643 34.4356 408.953 32.3258 407.575 30.8636C406.196 29.3596 404.316 28.6076 401.935 28.6076C399.511 28.6076 397.59 29.3596 396.169 30.8636C394.791 32.3258 394.101 34.4356 394.101 37.1929V56.3689H385.328V21.6516H394.101V25.9756C395.271 24.4716 396.754 23.3018 398.551 22.4663C400.389 21.5889 402.394 21.1503 404.567 21.1503Z" fill="#11243E"/>
<path d="M439.691 21.0876C442.281 21.0876 444.558 21.6098 446.522 22.6543C448.485 23.6569 450.031 24.9729 451.159 26.6023V21.6516H459.995V56.6196C459.995 59.8365 459.347 62.6983 458.052 65.2049C456.757 67.7534 454.814 69.7587 452.224 71.2209C449.634 72.7249 446.501 73.4769 442.824 73.4769C437.894 73.4769 433.842 72.3281 430.667 70.0303C427.534 67.7325 425.758 64.5992 425.34 60.6303H434.051C434.51 62.2178 435.492 63.4712 436.996 64.3903C438.542 65.3512 440.401 65.8316 442.574 65.8316C445.122 65.8316 447.19 65.0587 448.778 63.5129C450.365 62.0089 451.159 59.7112 451.159 56.6196V51.2303C450.031 52.8596 448.464 54.2174 446.459 55.3036C444.495 56.3898 442.239 56.9329 439.691 56.9329C436.766 56.9329 434.093 56.1809 431.67 54.6769C429.246 53.1729 427.325 51.0632 425.904 48.3476C424.526 45.5903 423.836 42.4361 423.836 38.8849C423.836 35.3756 424.526 32.2632 425.904 29.5476C427.325 26.832 429.226 24.7432 431.607 23.2809C434.03 21.8187 436.725 21.0876 439.691 21.0876ZM451.159 39.0103C451.159 36.8796 450.741 35.0623 449.906 33.5583C449.07 32.0125 447.942 30.8427 446.522 30.0489C445.101 29.2134 443.576 28.7956 441.947 28.7956C440.318 28.7956 438.814 29.1925 437.435 29.9863C436.056 30.7801 434.928 31.9498 434.051 33.4956C433.215 34.9996 432.798 36.796 432.798 38.8849C432.798 40.9738 433.215 42.812 434.051 44.3996C434.928 45.9454 436.056 47.1361 437.435 47.9716C438.855 48.8072 440.359 49.2249 441.947 49.2249C443.576 49.2249 445.101 48.8281 446.522 48.0343C447.942 47.1987 449.07 46.0289 449.906 44.5249C450.741 42.9792 451.159 41.1409 451.159 39.0103Z" fill="#11243E"/>
<path d="M500.17 38.2583C500.17 39.5116 500.087 40.6396 499.92 41.6423H474.54C474.749 44.1489 475.626 46.1125 477.172 47.5329C478.717 48.9534 480.618 49.6636 482.874 49.6636C486.133 49.6636 488.452 48.264 489.83 45.4649H499.293C498.29 48.8072 496.368 51.5645 493.528 53.7369C490.687 55.8676 487.198 56.9329 483.062 56.9329C479.72 56.9329 476.712 56.2018 474.038 54.7396C471.406 53.2356 469.338 51.1258 467.834 48.4103C466.372 45.6947 465.641 42.5614 465.641 39.0103C465.641 35.4174 466.372 32.2632 467.834 29.5476C469.296 26.832 471.344 24.7432 473.976 23.2809C476.608 21.8187 479.637 21.0876 483.062 21.0876C486.363 21.0876 489.308 21.7978 491.898 23.2183C494.53 24.6387 496.557 26.6649 497.977 29.2969C499.439 31.8872 500.17 34.8743 500.17 38.2583ZM491.084 35.7516C491.042 33.4956 490.227 31.6992 488.64 30.3623C487.052 28.9836 485.109 28.2943 482.812 28.2943C480.639 28.2943 478.801 28.9627 477.297 30.2996C475.835 31.5947 474.937 33.412 474.602 35.7516H491.084Z" fill="#11243E"/>
<path d="M514.681 9.99561V56.3689H505.907V9.99561H514.681Z" fill="#11243E"/>
<path d="M538.098 56.9329C534.756 56.9329 531.748 56.2018 529.074 54.7396C526.4 53.2356 524.291 51.1258 522.745 48.4103C521.241 45.6947 520.489 42.5614 520.489 39.0103C520.489 35.4592 521.262 32.3258 522.807 29.6103C524.395 26.8947 526.547 24.8058 529.262 23.3436C531.978 21.8396 535.007 21.0876 538.349 21.0876C541.691 21.0876 544.72 21.8396 547.435 23.3436C550.151 24.8058 552.282 26.8947 553.827 29.6103C555.415 32.3258 556.209 35.4592 556.209 39.0103C556.209 42.5614 555.394 45.6947 553.765 48.4103C552.177 51.1258 550.005 53.2356 547.247 54.7396C544.532 56.2018 541.482 56.9329 538.098 56.9329ZM538.098 49.2876C539.686 49.2876 541.169 48.9116 542.547 48.1596C543.968 47.3658 545.096 46.196 545.931 44.6503C546.767 43.1045 547.185 41.2245 547.185 39.0103C547.185 35.7098 546.307 33.1823 544.553 31.4276C542.84 29.6312 540.73 28.7329 538.223 28.7329C535.717 28.7329 533.607 29.6312 531.894 31.4276C530.223 33.1823 529.387 35.7098 529.387 39.0103C529.387 42.3107 530.202 44.8592 531.831 46.6556C533.503 48.4103 535.591 49.2876 538.098 49.2876Z" fill="#11243E"/>
<path d="M575.576 21.0876C578.167 21.0876 580.443 21.6098 582.407 22.6543C584.371 23.6569 585.916 24.9729 587.044 26.6023V21.6516H595.88V56.6196C595.88 59.8365 595.233 62.6983 593.938 65.2049C592.643 67.7534 590.7 69.7587 588.11 71.2209C585.519 72.7249 582.386 73.4769 578.71 73.4769C573.78 73.4769 569.727 72.3281 566.552 70.0303C563.419 67.7325 561.643 64.5992 561.226 60.6303H569.936C570.396 62.2178 571.378 63.4712 572.882 64.3903C574.427 65.3512 576.287 65.8316 578.459 65.8316C581.007 65.8316 583.075 65.0587 584.663 63.5129C586.251 62.0089 587.044 59.7112 587.044 56.6196V51.2303C585.916 52.8596 584.35 54.2174 582.344 55.3036C580.381 56.3898 578.125 56.9329 575.576 56.9329C572.652 56.9329 569.978 56.1809 567.555 54.6769C565.132 53.1729 563.21 51.0632 561.79 48.3476C560.411 45.5903 559.722 42.4361 559.722 38.8849C559.722 35.3756 560.411 32.2632 561.79 29.5476C563.21 26.832 565.111 24.7432 567.492 23.2809C569.915 21.8187 572.61 21.0876 575.576 21.0876ZM587.044 39.0103C587.044 36.8796 586.627 35.0623 585.791 33.5583C584.955 32.0125 583.827 30.8427 582.407 30.0489C580.987 29.2134 579.462 28.7956 577.832 28.7956C576.203 28.7956 574.699 29.1925 573.32 29.9863C571.942 30.7801 570.814 31.9498 569.936 33.4956C569.101 34.9996 568.683 36.796 568.683 38.8849C568.683 40.9738 569.101 42.812 569.936 44.3996C570.814 45.9454 571.942 47.1361 573.32 47.9716C574.741 48.8072 576.245 49.2249 577.832 49.2249C579.462 49.2249 580.987 48.8281 582.407 48.0343C583.827 47.1987 584.955 46.0289 585.791 44.5249C586.627 42.9792 587.044 41.1409 587.044 39.0103Z" fill="#11243E"/>
<defs>
<linearGradient id="paint0_linear_3688_21601" x1="51.7714" y1="71.2242" x2="7.54286" y2="4.70989" gradientUnits="userSpaceOnUse">
<stop stop-color="#FFA768"/>
<stop offset="0.6986" stop-color="#FF8787"/>
</linearGradient>
</defs>
</svg>
