<svg width="393" height="65" viewBox="0 0 393 65" fill="none" xmlns="http://www.w3.org/2000/svg">
<path d="M48 32.9956C48 19.7408 37.2548 8.99561 24 8.99561H0V56.9956H48V32.9956Z" fill="url(#paint0_linear_3688_21474)"/>
<g filter="url(#filter0_d_3688_21474)">
<path fill-rule="evenodd" clip-rule="evenodd" d="M15.8972 22.7092H20.0758C21.1733 22.7092 22.26 22.9222 23.2739 23.3361C24.2879 23.75 25.2092 24.3566 25.9852 25.1213C26.7612 25.886 27.3768 26.7939 27.7968 27.793C28.0177 28.3186 28.1823 28.8641 28.2886 29.4205C27.3903 29.4819 26.5067 29.685 25.6725 30.0232C24.6585 30.4343 23.7372 31.0368 22.9612 31.7963C22.1852 32.5558 21.5696 33.4575 21.1496 34.4499C20.7296 35.4422 20.5134 36.5058 20.5134 37.5799C20.5134 38.6467 20.7019 39.6213 21.0398 40.5142C19.3104 41.4179 17.5049 42.1491 15.8972 42.7828V39.1799C13.6808 39.1799 11.5551 38.3122 9.9878 36.7678C8.42052 35.2234 7.54004 33.1287 7.54004 30.9446C7.54004 28.7604 8.42052 26.6657 9.9878 25.1213C11.5551 23.5769 13.6808 22.7092 15.8972 22.7092ZM28.3378 32.2382C27.8953 35.182 25.9563 37.3575 23.5167 39.0375C23.3903 38.5736 23.3262 38.0891 23.3262 37.5799C23.3262 36.8837 23.4662 36.1928 23.7399 35.5461C24.0137 34.8993 24.4166 34.3077 24.9286 33.8065C25.4408 33.3052 26.0521 32.9044 26.7292 32.63C27.2424 32.4219 27.7847 32.2899 28.3378 32.2382Z" fill="white"/>
<path fill-rule="evenodd" clip-rule="evenodd" d="M32.9069 30.2557H29.1183C28.1232 30.2557 27.1379 30.4465 26.2186 30.8172C25.2993 31.1879 24.464 31.7313 23.7603 32.4162C23.0567 33.1012 22.4986 33.9144 22.1178 34.8093C21.737 35.7043 21.541 36.6635 21.541 37.6321C21.541 43.6255 28.1711 46.3916 32.9069 48.2357V45.0085C34.9165 45.0085 36.8439 44.2314 38.2649 42.848C39.6859 41.4647 40.4842 39.5885 40.4842 37.6321C40.4842 35.6758 39.6859 33.7996 38.2649 32.4162C36.8439 31.0329 34.9165 30.2557 32.9069 30.2557ZM28.7532 35.5779C28.5466 35.9064 28.4434 36.2315 28.4434 36.5532C28.4434 36.7089 28.5077 36.8545 28.6364 36.99C28.7684 37.1221 28.9293 37.1881 29.1189 37.1881C29.4406 37.1881 29.659 36.9968 29.7742 36.6141C29.8961 36.2484 30.0451 35.9724 30.2212 35.7862C30.3973 35.5965 30.6715 35.5017 31.044 35.5017C31.3623 35.5017 31.6214 35.5948 31.8212 35.7811C32.0244 35.9673 32.126 36.1959 32.126 36.4668C32.126 36.6057 32.0921 36.7343 32.0244 36.8529C31.96 36.9714 31.8788 37.0797 31.7806 37.1779C31.6857 37.2728 31.53 37.415 31.3132 37.6046C31.066 37.8213 30.8696 38.0093 30.724 38.1684C30.5784 38.3242 30.4616 38.5071 30.3735 38.717C30.2855 38.9236 30.2415 39.1691 30.2415 39.4535C30.2415 39.6804 30.3007 39.8514 30.4193 39.9665C30.5412 40.0817 30.6902 40.1393 30.8663 40.1393C31.2049 40.1393 31.4064 39.9632 31.4707 39.611C31.508 39.4451 31.535 39.3299 31.552 39.2656C31.5723 39.1979 31.5994 39.1318 31.6333 39.0675C31.6671 38.9998 31.7179 38.927 31.7856 38.8491C31.8567 38.7678 31.9499 38.6747 32.065 38.5697C32.4815 38.1972 32.7694 37.9331 32.9285 37.7773C33.0911 37.6182 33.2299 37.4302 33.345 37.2135C33.4635 36.9968 33.5228 36.7445 33.5228 36.4567C33.5228 36.0909 33.4195 35.7523 33.213 35.4408C33.0098 35.1292 32.7203 34.8837 32.3444 34.7042C31.9685 34.5214 31.535 34.43 31.044 34.43C30.5158 34.43 30.0535 34.5383 29.6573 34.755C29.2611 34.9718 28.9598 35.2461 28.7532 35.5779ZM30.3786 41.9221C30.5344 42.0542 30.7156 42.1202 30.9221 42.1202C31.1219 42.1202 31.298 42.0525 31.4504 41.9171C31.6028 41.7816 31.679 41.5954 31.679 41.3583C31.679 41.145 31.6062 40.9655 31.4605 40.8199C31.3149 40.6743 31.1355 40.6015 30.9221 40.6015C30.7054 40.6015 30.5225 40.6743 30.3735 40.8199C30.2246 40.9655 30.1501 41.145 30.1501 41.3583C30.1501 41.5987 30.2262 41.7867 30.3786 41.9221Z" fill="white"/>
</g>
<path fill-rule="evenodd" clip-rule="evenodd" d="M90.0873 21.6226H73.2401L81.5759 29.8206H90.0873C95.4515 29.8206 99.7952 34.0714 99.7952 39.3091V56.9956H108.175V39.3091C108.175 29.5385 100.074 21.6226 90.0873 21.6226ZM80.3794 31.0143L72 22.7734V56.9956H80.3794V31.0143ZM144.982 51.2125L139.664 45.7081L139.346 46.009C137.501 47.751 134.408 49.4336 130.135 49.4336C127.13 49.4336 124.814 48.6851 123.14 47.3898C121.593 46.1932 120.559 44.5034 120.047 42.4212H146.946L146.966 42.0092C147.249 36.1373 145.75 31.0399 142.686 27.4026C139.615 23.7575 135.007 21.6226 129.173 21.6226C118.87 21.6226 110.825 29.2122 110.825 39.3108C110.825 44.3842 112.728 48.8137 116.12 51.9734C119.511 55.1321 124.362 56.9956 130.216 56.9956C137.052 56.9956 141.48 54.663 144.679 51.5107L144.982 51.2125ZM183.807 51.2125L178.49 45.7081L178.171 46.009C176.326 47.751 173.233 49.4336 168.96 49.4336C165.955 49.4336 163.639 48.6851 161.965 47.3898C160.418 46.1932 159.385 44.5034 158.872 42.4212H185.771L185.791 42.0092C186.074 36.1373 184.575 31.0399 181.511 27.4026C178.44 23.7575 173.832 21.6226 167.999 21.6226C157.695 21.6226 149.65 29.2122 149.65 39.3108C149.65 44.3842 151.553 48.8137 154.945 51.9734C158.336 55.1321 163.187 56.9956 169.041 56.9956C175.877 56.9956 180.305 54.663 183.504 51.5107L183.807 51.2125ZM194.393 21.9201H188.475V29.4747H194.393V42.6664C194.393 47.9929 195.189 51.6241 197.443 53.9013C199.701 56.1821 203.311 56.9956 208.622 56.9956H210.175V49.2494H209.735C208.138 49.2494 206.91 49.1894 205.961 49.0123C205.015 48.8359 204.387 48.5505 203.95 48.1299C203.514 47.7103 203.22 47.1098 203.038 46.2073C202.856 45.2997 202.794 44.1261 202.794 42.5975V29.4747H210.175V21.9201H202.794V12.9956H194.393V21.9201ZM129.255 29.1083C131.961 29.1083 133.946 29.9051 135.34 31.205C136.632 32.4093 137.453 34.0787 137.846 36.0409H120.043C120.557 33.8916 121.603 32.2136 123.065 31.0494C124.642 29.7934 126.738 29.1083 129.255 29.1083ZM168.081 29.1083C170.786 29.1083 172.771 29.9051 174.165 31.205C175.457 32.4093 176.278 34.0787 176.672 36.0409H158.868C159.382 33.8916 160.428 32.2136 161.89 31.0494C163.467 29.7934 165.563 29.1083 168.081 29.1083ZM230.879 29.1239C236.469 29.1239 240.913 33.6936 240.913 39.3097C240.913 44.9246 236.469 49.4943 230.879 49.4943C225.291 49.4943 220.913 44.9284 220.913 39.3097C220.913 33.6898 225.291 29.1239 230.879 29.1239ZM230.879 21.6226C220.846 21.6226 212.825 29.3783 212.825 39.3097C212.825 49.1728 220.845 56.9956 230.879 56.9956C240.91 56.9956 249 49.175 249 39.3097C249 29.3761 240.909 21.6226 230.879 21.6226Z" fill="#11243E"/>
<path d="M287.717 64.8343L281.075 56.8756C279.236 57.3352 277.356 57.5649 275.435 57.5649C271.34 57.5649 267.58 56.6041 264.155 54.6823C260.729 52.7605 258.013 50.1076 256.008 46.7236C254.003 43.2978 253 39.4334 253 35.1303C253 30.8689 254.003 27.0463 256.008 23.6623C258.013 20.2365 260.729 17.5627 264.155 15.6409C267.58 13.7192 271.34 12.7583 275.435 12.7583C279.571 12.7583 283.331 13.7192 286.715 15.6409C290.14 17.5627 292.835 20.2365 294.799 23.6623C296.804 27.0463 297.807 30.8689 297.807 35.1303C297.807 39.0156 296.971 42.5667 295.3 45.7836C293.671 48.9587 291.436 51.5489 288.595 53.5543L298.621 64.8343H287.717ZM262.024 35.1303C262.024 38.0547 262.588 40.6241 263.716 42.8383C264.844 45.0525 266.411 46.7654 268.416 47.9769C270.463 49.1467 272.803 49.7316 275.435 49.7316C278.067 49.7316 280.385 49.1467 282.391 47.9769C284.396 46.7654 285.963 45.0525 287.091 42.8383C288.219 40.6241 288.783 38.0547 288.783 35.1303C288.783 32.2058 288.219 29.6574 287.091 27.4849C285.963 25.2707 284.396 23.5787 282.391 22.4089C280.385 21.2392 278.067 20.6543 275.435 20.6543C272.803 20.6543 270.463 21.2392 268.416 22.4089C266.411 23.5787 264.844 25.2707 263.716 27.4849C262.588 29.6574 262.024 32.2058 262.024 35.1303Z" fill="#11243E"/>
<path d="M336.564 22.4089V57.1263H327.728V52.7396C326.6 54.2436 325.117 55.4343 323.279 56.3116C321.482 57.1472 319.519 57.5649 317.388 57.5649C314.673 57.5649 312.27 57.0009 310.182 55.8729C308.093 54.7032 306.442 53.0112 305.231 50.7969C304.061 48.5409 303.476 45.8672 303.476 42.7756V22.4089H312.25V41.5223C312.25 44.2796 312.939 46.4103 314.318 47.9143C315.696 49.3765 317.576 50.1076 319.958 50.1076C322.381 50.1076 324.282 49.3765 325.66 47.9143C327.039 46.4103 327.728 44.2796 327.728 41.5223V22.4089H336.564Z" fill="#11243E"/>
<path d="M349.003 18.2729C347.457 18.2729 346.162 17.7925 345.118 16.8316C344.115 15.8289 343.614 14.5965 343.614 13.1343C343.614 11.6721 344.115 10.4605 345.118 9.4996C346.162 8.49694 347.457 7.99561 349.003 7.99561C350.549 7.99561 351.823 8.49694 352.826 9.4996C353.87 10.4605 354.393 11.6721 354.393 13.1343C354.393 14.5965 353.87 15.8289 352.826 16.8316C351.823 17.7925 350.549 18.2729 349.003 18.2729ZM353.327 22.4089V57.1263H344.554V22.4089H353.327Z" fill="#11243E"/>
<path d="M369.35 49.9196H384.829V57.1263H359.386V50.0449L374.551 29.6156H359.449V22.4089H384.641V29.4903L369.35 49.9196Z" fill="#11243E"/>
<defs>
<filter id="filter0_d_3688_21474" x="7.54004" y="22.7092" width="38.9443" height="32.5265" filterUnits="userSpaceOnUse" color-interpolation-filters="sRGB">
<feFlood flood-opacity="0" result="BackgroundImageFix"/>
<feColorMatrix in="SourceAlpha" type="matrix" values="0 0 0 0 0 0 0 0 0 0 0 0 0 0 0 0 0 0 127 0" result="hardAlpha"/>
<feOffset dx="3" dy="4"/>
<feGaussianBlur stdDeviation="1.5"/>
<feComposite in2="hardAlpha" operator="out"/>
<feColorMatrix type="matrix" values="0 0 0 0 0 0 0 0 0 0 0 0 0 0 0 0 0 0 0.05 0"/>
<feBlend mode="normal" in2="BackgroundImageFix" result="effect1_dropShadow_3688_21474"/>
<feBlend mode="normal" in="SourceGraphic" in2="effect1_dropShadow_3688_21474" result="shape"/>
</filter>
<linearGradient id="paint0_linear_3688_21474" x1="48" y1="79.7956" x2="6" y2="5.22417" gradientUnits="userSpaceOnUse">
<stop stop-color="#FA9E9E"/>
<stop offset="1" stop-color="#FE6363"/>
</linearGradient>
</defs>
</svg>
