<svg xmlns="http://www.w3.org/2000/svg" width="568" height="166" fill="none" viewBox="0 0 568 166"><g data-logo-icon="neeto-typeface-logo__icon"><path fill="#75DC66" d="M75.1284 11.3225L125.205 127.268C127.211 131.914 122.541 136.64 117.872 134.688L64.5171 112.386C62.2717 111.448 60.8845 109.172 61.0795 106.746L68.6659 12.3902C68.9478 8.88439 73.7338 8.09365 75.1284 11.3225Z"/><path fill="#5BCC5A" d="M66.2926 11.3225L16.2162 127.268C14.2096 131.914 18.8801 136.64 23.5495 134.688L76.9039 112.386C79.1494 111.448 80.5366 109.172 80.3415 106.746L72.7551 12.3902C72.4733 8.88439 67.6872 8.09365 66.2926 11.3225Z"/><path fill="#0DA84C" d="M70.7093 9.54917C69.6373 9.98968 68.7792 10.9659 68.6647 12.3903L61.0783 106.746C60.8833 109.172 62.2705 111.448 64.5159 112.387L70.7093 114.975L76.9027 112.387C79.1482 111.448 80.5354 109.172 80.3403 106.746L72.754 12.3903C72.6394 10.9659 71.7814 9.98968 70.7093 9.54917Z"/></g><g clip-path="url(#clip0_318_35840)" data-logo-text="neeto-typeface-logo__text"><path fill="#000" d="M200.343 55.0736C208.8 55.0736 216.218 56.7264 222.599 60.032C229.056 63.3377 234.015 68.0655 237.474 74.2155C241.01 80.2886 242.778 87.3611 242.778 95.433C242.778 103.505 241.01 110.577 237.474 116.65C234.015 122.647 229.056 127.298 222.599 130.603C216.218 133.909 208.8 135.562 200.343 135.562H172.207V55.0736H200.343ZM199.767 121.84C208.223 121.84 214.757 119.533 219.37 114.921C223.982 110.308 226.289 103.812 226.289 95.433C226.289 87.0536 223.982 80.5192 219.37 75.8298C214.757 71.0636 208.223 68.6805 199.767 68.6805H188.351V121.84H199.767Z" data-dark-mode-color="true"/><path fill="#000" d="M311.942 102.236C311.942 104.543 311.789 106.618 311.481 108.463H264.78C265.164 113.076 266.778 116.689 269.623 119.303C272.467 121.916 275.965 123.223 280.116 123.223C286.112 123.223 290.379 120.648 292.916 115.497H310.328C308.483 121.647 304.947 126.721 299.719 130.719C294.492 134.639 288.073 136.6 280.462 136.6C274.312 136.6 268.777 135.254 263.857 132.564C259.014 129.796 255.209 125.914 252.441 120.917C249.75 115.92 248.405 110.155 248.405 103.62C248.405 97.0089 249.75 91.2048 252.441 86.208C255.132 81.2111 258.899 77.3673 263.742 74.6767C268.585 71.9861 274.158 70.6408 280.462 70.6408C286.535 70.6408 291.955 71.9477 296.721 74.5614C301.564 77.1752 305.293 80.9036 307.906 85.7467C310.597 90.513 311.942 96.0095 311.942 102.236ZM295.222 97.6239C295.145 93.4727 293.646 90.167 290.725 87.707C287.804 85.1702 284.229 83.9017 280.001 83.9017C276.003 83.9017 272.621 85.1317 269.853 87.5917C267.163 89.9748 265.51 93.3189 264.895 97.6239H295.222Z" data-dark-mode-color="true"/><path fill="#000" d="M337.563 80.9036C339.639 77.9823 342.483 75.5608 346.096 73.6389C349.786 71.6402 353.976 70.6408 358.666 70.6408C364.124 70.6408 369.044 71.9861 373.426 74.6767C377.884 77.3673 381.382 81.2111 383.919 86.208C386.533 91.128 387.84 96.8552 387.84 103.39C387.84 109.924 386.533 115.728 383.919 120.802C381.382 125.799 377.884 129.681 373.426 132.448C369.044 135.216 364.124 136.6 358.666 136.6C353.976 136.6 349.825 135.639 346.212 133.717C342.676 131.795 339.793 129.373 337.563 126.452V166.004H321.42V71.6786H337.563V80.9036ZM371.35 103.39C371.35 99.5458 370.543 96.2402 368.928 93.4727C367.391 90.6283 365.315 88.4758 362.702 87.0152C360.165 85.5545 357.397 84.8242 354.399 84.8242C351.478 84.8242 348.71 85.593 346.096 87.1305C343.56 88.5911 341.484 90.7436 339.87 93.588C338.332 96.4323 337.563 99.7764 337.563 103.62C337.563 107.464 338.332 110.808 339.87 113.652C341.484 116.497 343.56 118.688 346.096 120.225C348.71 121.686 351.478 122.416 354.399 122.416C357.397 122.416 360.165 121.647 362.702 120.11C365.315 118.572 367.391 116.381 368.928 113.537C370.543 110.693 371.35 107.31 371.35 103.39Z" data-dark-mode-color="true"/><path fill="#000" d="M413.408 50.2305V135.562H397.265V50.2305H413.408Z" data-dark-mode-color="true"/><path fill="#000" d="M455.419 136.6C449.269 136.6 443.734 135.254 438.814 132.564C433.894 129.796 430.012 125.914 427.167 120.917C424.4 115.92 423.016 110.155 423.016 103.62C423.016 97.0858 424.438 91.3202 427.283 86.3233C430.204 81.3264 434.163 77.4827 439.16 74.792C444.157 72.0245 449.73 70.6408 455.88 70.6408C462.03 70.6408 467.604 72.0245 472.601 74.792C477.598 77.4827 481.518 81.3264 484.362 86.3233C487.284 91.3202 488.744 97.0858 488.744 103.62C488.744 110.155 487.245 115.92 484.247 120.917C481.326 125.914 477.328 129.796 472.255 132.564C467.258 135.254 461.646 136.6 455.419 136.6ZM455.419 122.531C458.34 122.531 461.069 121.84 463.606 120.456C466.22 118.995 468.296 116.843 469.833 113.998C471.371 111.154 472.139 107.695 472.139 103.62C472.139 97.547 470.525 92.8961 467.296 89.6673C464.144 86.3617 460.262 84.7089 455.65 84.7089C451.037 84.7089 447.155 86.3617 444.003 89.6673C440.928 92.8961 439.391 97.547 439.391 103.62C439.391 109.693 440.89 114.383 443.888 117.688C446.963 120.917 450.807 122.531 455.419 122.531Z" data-dark-mode-color="true"/><path fill="#000" d="M559.396 71.6786L519.844 165.774H502.662L516.5 133.947L490.9 71.6786H509.004L525.494 116.305L542.214 71.6786H559.396Z" data-dark-mode-color="true"/><path fill="#000" d="M229.184 25.3847C229.184 26.2481 229.127 27.0252 229.012 27.716H211.541C211.685 29.4429 212.289 30.7956 213.353 31.7742C214.417 32.7527 215.725 33.242 217.278 33.242C219.521 33.242 221.117 32.2778 222.066 30.3495H228.58C227.89 32.652 226.567 34.5516 224.612 36.0482C222.656 37.5161 220.255 38.25 217.408 38.25C215.107 38.25 213.036 37.7463 211.196 36.739C209.384 35.7028 207.961 34.2494 206.925 32.3786C205.919 30.5078 205.415 28.3492 205.415 25.9028C205.415 23.4275 205.919 21.2545 206.925 19.3837C207.932 17.513 209.341 16.0739 211.153 15.0665C212.964 14.0592 215.049 13.5555 217.408 13.5555C219.68 13.5555 221.707 14.0448 223.49 15.0234C225.302 16.0019 226.697 17.3978 227.674 19.2111C228.681 20.9955 229.184 23.0534 229.184 25.3847ZM222.929 23.6578C222.9 22.1036 222.34 20.866 221.247 19.945C220.154 18.9952 218.817 18.5203 217.235 18.5203C215.74 18.5203 214.474 18.9808 213.439 19.9018C212.432 20.794 211.814 22.046 211.584 23.6578H222.929Z" data-dark-mode-color="true"/><path fill="#000" d="M255.808 25.3847C255.808 26.2481 255.75 27.0252 255.635 27.716H238.165C238.309 29.4429 238.912 30.7956 239.977 31.7742C241.041 32.7527 242.349 33.242 243.902 33.242C246.145 33.242 247.741 32.2778 248.69 30.3495H255.204C254.514 32.652 253.191 34.5516 251.235 36.0482C249.28 37.5161 246.878 38.25 244.031 38.25C241.731 38.25 239.66 37.7463 237.82 36.739C236.008 35.7028 234.584 34.2494 233.549 32.3786C232.543 30.5078 232.039 28.3492 232.039 25.9028C232.039 23.4275 232.543 21.2545 233.549 19.3837C234.556 17.513 235.965 16.0739 237.777 15.0665C239.588 14.0592 241.673 13.5555 244.031 13.5555C246.303 13.5555 248.331 14.0448 250.114 15.0234C251.926 16.0019 253.32 17.3978 254.298 19.2111C255.305 20.9955 255.808 23.0534 255.808 25.3847ZM249.553 23.6578C249.524 22.1036 248.963 20.866 247.871 19.945C246.778 18.9952 245.441 18.5203 243.859 18.5203C242.363 18.5203 241.098 18.9808 240.063 19.9018C239.056 20.794 238.438 22.046 238.208 23.6578H249.553Z" data-dark-mode-color="true"/><path fill="#000" d="M267.347 18.8624V30.5365C267.347 31.3424 267.56 31.8749 267.934 32.249C268.336 32.5944 268.998 32.7671 269.918 32.7671H272.722V37.8614H268.926C263.836 37.8614 261.4 35.258 261.4 30.3076V18.8624H258.198V13.8265H261.4V7.875H267.347V13.8265H272.722V18.8624H267.347Z" data-dark-mode-color="true"/><path fill="#000" d="M287.552 38.25C285.251 38.25 283.181 37.7463 281.34 36.739C279.5 35.7028 278.047 34.2494 276.983 32.3786C275.948 30.5078 275.43 28.3492 275.43 25.9028C275.43 23.4563 275.962 21.2977 277.026 19.4269C278.119 17.5561 279.6 16.1171 281.469 15.1097C283.339 14.0736 285.424 13.5555 287.724 13.5555C290.025 13.5555 292.11 14.0736 293.979 15.1097C295.849 16.1171 297.315 17.5561 298.379 19.4269C299.472 21.2977 300.019 23.4563 300.019 25.9028C300.019 28.3492 299.458 30.5078 298.336 32.3786C297.243 34.2494 295.748 35.7028 293.85 36.739C291.981 37.7463 289.881 38.25 287.552 38.25ZM287.552 32.983C288.645 32.983 289.666 32.724 290.615 32.2059C291.592 31.659 292.369 30.8532 292.944 29.7882C293.519 28.7233 293.807 27.4282 293.807 25.9028C293.807 23.629 293.203 21.8877 291.995 20.6789C290.816 19.4413 289.364 18.8225 287.638 18.8225C285.913 18.8225 284.46 19.4413 283.281 20.6789C282.131 21.8877 281.556 23.629 281.556 25.9028C281.556 28.1765 282.117 29.9322 283.238 31.1698C284.388 32.3786 285.826 32.983 287.552 32.983Z" data-dark-mode-color="true"/><path fill="#000" d="M200.315 7.875H188.721L200.315 25.2653V7.875Z" data-dark-mode-color="true"/><path fill="#000" d="M171.562 38.25L171.563 7.875H179.935L200.315 38.25H191.698L178.287 18.541V38.25H171.562Z" data-dark-mode-color="true"/></g><defs><clipPath id="clip0_318_35840"><rect width="397.125" height="165.938" fill="#fff" transform="translate(163.125)"/></clipPath></defs></svg>