<svg xmlns="http://www.w3.org/2000/svg" width="457" height="64" fill="none" viewBox="0 0 457 64"><path fill="url(#paint0_linear_3239_12455)" d="M56 32C56 18.7452 45.2547 8 32 8H8V56H56V32Z"/><path fill="url(#paint1_linear_3239_12455)" d="M44.0001 11.216C51.253 15.3448 55.994 23.0492 55.994 31.9918V51.8638C55.586 48.7438 53.138 46.1518 44.786 37.0558C38.1044 29.779 41.5281 16.8293 44.0001 11.216Z"/><path fill="url(#paint2_linear_3239_12455)" d="M44.0001 11.216C51.253 15.3448 55.994 23.0492 55.994 31.9918V51.8638C55.586 48.7438 53.138 46.1518 44.786 37.0558C38.1044 29.779 41.5281 16.8293 44.0001 11.216Z"/><path fill="url(#paint3_linear_3239_12455)" d="M8 8H32C36.2924 8 40.496 9.152 44 11.216C45.6 13.9104 47.0912 21.392 41.024 30.224C33.44 41.264 32.6 43.328 29.144 56H8V8Z"/><path fill="url(#paint4_linear_3239_12455)" d="M8 8H32C36.2924 8 40.16 9.08 44 11.216C45.6 13.9104 47.0912 21.392 41.024 30.224C33.44 41.264 32.6 43.328 29.144 56H8V8Z"/><path fill="url(#paint5_linear_3239_12455)" fill-opacity=".4" d="M31.904 56C27.944 41.312 15.192 37.9236 8 34.736V56H31.904Z"/><path fill="#11243E" d="M80 20.236V55.436H87.5283V27.716H97.7137C103.339 27.716 107.899 32.2468 107.899 37.836V55.436H115.427V37.836C115.427 28.1157 107.497 20.236 97.7137 20.236H80Z"/><path fill="#11243E" fill-rule="evenodd" d="M146.177 34.9434C145.455 30.3637 142.646 26.9894 137.028 26.9894C131.81 26.9894 128.199 29.8801 127.237 34.9434H146.177ZM137.911 48.6047C142.325 48.6047 145.535 46.8368 147.462 44.9886L152.197 49.9705C149.066 53.1054 144.734 55.436 137.992 55.436C126.434 55.436 118.97 47.9631 118.97 37.8377C118.97 27.7914 126.836 20.236 136.946 20.236C148.423 20.236 154.924 28.755 154.364 40.5693H127.237C128.199 45.4722 131.73 48.6047 137.911 48.6047Z" clip-rule="evenodd"/><path fill="#11243E" fill-rule="evenodd" d="M185.148 34.9434C184.426 30.3637 181.616 26.9894 175.998 26.9894C170.78 26.9894 167.169 29.8801 166.207 34.9434H185.148ZM176.881 48.6047C181.295 48.6047 184.505 46.8368 186.432 44.9886L191.167 49.9705C188.036 53.1054 183.704 55.436 176.962 55.436C165.404 55.436 157.94 47.9631 157.94 37.8377C157.94 27.7914 165.807 20.236 175.916 20.236C187.393 20.236 193.894 28.755 193.334 40.5693H166.207C167.169 45.4722 170.7 48.6047 176.881 48.6047Z" clip-rule="evenodd"/><path fill="#11243E" fill-rule="evenodd" d="M196.91 20.5394H202.851V11.436H210.4V20.5394H217.809V27.3631H210.4V41.1903C210.4 47.4451 211.378 48.4168 217.809 48.4168V55.436H216.691C206.066 55.436 202.851 52.0999 202.851 41.2606V27.3631H196.91V20.5394Z" clip-rule="evenodd"/><path fill="#11243E" fill-rule="evenodd" d="M249.544 37.8365C249.544 31.8791 244.9 27.0053 239.031 27.0053C233.16 27.0053 228.587 31.8791 228.587 37.8365C228.587 43.7928 233.16 48.6666 239.031 48.6666C244.9 48.6666 249.544 43.7928 249.544 37.8365ZM221.351 37.8365C221.351 27.9531 229.201 20.236 239.031 20.236C248.861 20.236 256.779 27.9531 256.779 37.8365C256.779 47.6514 248.861 55.436 239.031 55.436C229.201 55.436 221.351 47.6514 221.351 37.8365Z" clip-rule="evenodd"/><path fill="#11243E" d="M320.413 11.8826L307.504 55.436H299.42L290.271 22.4733L280.557 55.436L272.536 55.4986L260.191 11.8826H267.773L276.797 47.352L286.573 11.8826H294.595L303.681 47.164L312.768 11.8826H320.413Z"/><path fill="#11243E" d="M343.499 20.3426C346.131 20.3426 348.47 20.9066 350.517 22.0346C352.606 23.1626 354.236 24.8337 355.405 27.048C356.617 29.2622 357.223 31.936 357.223 35.0693V55.436H350.141V36.1346C350.141 33.0431 349.369 30.6826 347.823 29.0533C346.277 27.3822 344.167 26.5466 341.493 26.5466C338.82 26.5466 336.689 27.3822 335.101 29.0533C333.556 30.6826 332.783 33.0431 332.783 36.1346V55.436H325.639V9.06262H332.783V24.9173C333.994 23.4551 335.519 22.3271 337.357 21.5333C339.237 20.7395 341.285 20.3426 343.499 20.3426Z"/><path fill="#11243E" d="M397.315 37.3253C397.315 38.6204 397.232 39.7902 397.065 40.8346H370.682C370.891 43.592 371.915 45.8062 373.753 47.4773C375.591 49.1484 377.847 49.984 380.521 49.984C384.364 49.984 387.08 48.3755 388.667 45.1586H396.375C395.331 48.3337 393.43 50.9448 390.673 52.992C387.957 54.9973 384.573 56 380.521 56C377.22 56 374.254 55.2688 371.622 53.8066C369.032 52.3026 366.985 50.2137 365.481 47.54C364.019 44.8244 363.287 41.6911 363.287 38.14C363.287 34.5888 363.998 31.4764 365.418 28.8026C366.88 26.0871 368.907 23.9982 371.497 22.536C374.129 21.0737 377.137 20.3426 380.521 20.3426C383.779 20.3426 386.683 21.0528 389.231 22.4733C391.78 23.8937 393.764 25.8991 395.185 28.4893C396.605 31.0377 397.315 33.9831 397.315 37.3253ZM389.858 35.0693C389.816 32.4373 388.876 30.3275 387.038 28.74C385.2 27.1524 382.923 26.3586 380.207 26.3586C377.743 26.3586 375.633 27.1524 373.878 28.74C372.123 30.2857 371.079 32.3955 370.745 35.0693H389.858Z"/><path fill="#11243E" d="M435.326 37.3253C435.326 38.6204 435.242 39.7902 435.075 40.8346H408.693C408.901 43.592 409.925 45.8062 411.763 47.4773C413.601 49.1484 415.857 49.984 418.531 49.984C422.375 49.984 425.09 48.3755 426.678 45.1586H434.386C433.341 48.3337 431.44 50.9448 428.683 52.992C425.968 54.9973 422.584 56 418.531 56C415.231 56 412.264 55.2688 409.633 53.8066C407.042 52.3026 404.995 50.2137 403.491 47.54C402.029 44.8244 401.298 41.6911 401.298 38.14C401.298 34.5888 402.008 31.4764 403.428 28.8026C404.891 26.0871 406.917 23.9982 409.507 22.536C412.139 21.0737 415.147 20.3426 418.531 20.3426C421.79 20.3426 424.693 21.0528 427.242 22.4733C429.79 23.8937 431.775 25.8991 433.195 28.4893C434.616 31.0377 435.326 33.9831 435.326 37.3253ZM427.868 35.0693C427.827 32.4373 426.887 30.3275 425.048 28.74C423.21 27.1524 420.933 26.3586 418.218 26.3586C415.753 26.3586 413.643 27.1524 411.889 28.74C410.134 30.2857 409.089 32.3955 408.755 35.0693H427.868Z"/><path fill="#11243E" d="M448.834 9.06262V55.436H441.69V9.06262H448.834Z"/><path stroke="#11243E" stroke-width=".333" d="M80 20.236V55.436H87.5283V27.716H97.7137C103.339 27.716 107.899 32.2468 107.899 37.836V55.436H115.427V37.836C115.427 28.1157 107.497 20.236 97.7137 20.236H80Z"/><path fill-rule="evenodd" stroke="#11243E" stroke-width=".333" d="M146.177 34.9434C145.455 30.3637 142.646 26.9894 137.028 26.9894C131.81 26.9894 128.199 29.8801 127.237 34.9434H146.177ZM137.911 48.6047C142.325 48.6047 145.535 46.8368 147.462 44.9886L152.197 49.9705C149.066 53.1054 144.734 55.436 137.992 55.436C126.434 55.436 118.97 47.9631 118.97 37.8377C118.97 27.7914 126.836 20.236 136.946 20.236C148.423 20.236 154.924 28.755 154.364 40.5693H127.237C128.199 45.4722 131.73 48.6047 137.911 48.6047Z" clip-rule="evenodd"/><path fill-rule="evenodd" stroke="#11243E" stroke-width=".333" d="M185.148 34.9434C184.426 30.3637 181.616 26.9894 175.998 26.9894C170.78 26.9894 167.169 29.8801 166.207 34.9434H185.148ZM176.881 48.6047C181.295 48.6047 184.505 46.8368 186.432 44.9886L191.167 49.9705C188.036 53.1054 183.704 55.436 176.962 55.436C165.404 55.436 157.94 47.9631 157.94 37.8377C157.94 27.7914 165.807 20.236 175.916 20.236C187.393 20.236 193.894 28.755 193.334 40.5693H166.207C167.169 45.4722 170.7 48.6047 176.881 48.6047Z" clip-rule="evenodd"/><path fill-rule="evenodd" stroke="#11243E" stroke-width=".333" d="M196.91 20.5394H202.851V11.436H210.4V20.5394H217.809V27.3631H210.4V41.1903C210.4 47.4451 211.378 48.4168 217.809 48.4168V55.436H216.691C206.066 55.436 202.851 52.0999 202.851 41.2606V27.3631H196.91V20.5394Z" clip-rule="evenodd"/><path fill-rule="evenodd" stroke="#11243E" stroke-width=".333" d="M249.544 37.8365C249.544 31.8791 244.9 27.0053 239.031 27.0053C233.16 27.0053 228.587 31.8791 228.587 37.8365C228.587 43.7928 233.16 48.6666 239.031 48.6666C244.9 48.6666 249.544 43.7928 249.544 37.8365ZM221.351 37.8365C221.351 27.9531 229.201 20.236 239.031 20.236C248.861 20.236 256.779 27.9531 256.779 37.8365C256.779 47.6514 248.861 55.436 239.031 55.436C229.201 55.436 221.351 47.6514 221.351 37.8365Z" clip-rule="evenodd"/><path stroke="#11243E" stroke-width=".333" d="M320.413 11.8826L307.504 55.436H299.42L290.271 22.4733L280.557 55.436L272.536 55.4986L260.191 11.8826H267.773L276.797 47.352L286.573 11.8826H294.595L303.681 47.164L312.768 11.8826H320.413Z"/><path stroke="#11243E" stroke-width=".333" d="M343.499 20.3426C346.131 20.3426 348.47 20.9066 350.517 22.0346C352.606 23.1626 354.236 24.8337 355.405 27.048C356.617 29.2622 357.223 31.936 357.223 35.0693V55.436H350.141V36.1346C350.141 33.0431 349.369 30.6826 347.823 29.0533C346.277 27.3822 344.167 26.5466 341.493 26.5466C338.82 26.5466 336.689 27.3822 335.101 29.0533C333.556 30.6826 332.783 33.0431 332.783 36.1346V55.436H325.639V9.06262H332.783V24.9173C333.994 23.4551 335.519 22.3271 337.357 21.5333C339.237 20.7395 341.285 20.3426 343.499 20.3426Z"/><path stroke="#11243E" stroke-width=".333" d="M397.315 37.3253C397.315 38.6204 397.232 39.7902 397.065 40.8346H370.682C370.891 43.592 371.915 45.8062 373.753 47.4773C375.591 49.1484 377.847 49.984 380.521 49.984C384.364 49.984 387.08 48.3755 388.667 45.1586H396.375C395.331 48.3337 393.43 50.9448 390.673 52.992C387.957 54.9973 384.573 56 380.521 56C377.22 56 374.254 55.2688 371.622 53.8066C369.032 52.3026 366.985 50.2137 365.481 47.54C364.019 44.8244 363.287 41.6911 363.287 38.14C363.287 34.5888 363.998 31.4764 365.418 28.8026C366.88 26.0871 368.907 23.9982 371.497 22.536C374.129 21.0737 377.137 20.3426 380.521 20.3426C383.779 20.3426 386.683 21.0528 389.231 22.4733C391.78 23.8937 393.764 25.8991 395.185 28.4893C396.605 31.0377 397.315 33.9831 397.315 37.3253ZM389.858 35.0693C389.816 32.4373 388.876 30.3275 387.038 28.74C385.2 27.1524 382.923 26.3586 380.207 26.3586C377.743 26.3586 375.633 27.1524 373.878 28.74C372.123 30.2857 371.079 32.3955 370.745 35.0693H389.858Z"/><path stroke="#11243E" stroke-width=".333" d="M435.326 37.3253C435.326 38.6204 435.242 39.7902 435.075 40.8346H408.693C408.901 43.592 409.925 45.8062 411.763 47.4773C413.601 49.1484 415.857 49.984 418.531 49.984C422.375 49.984 425.09 48.3755 426.678 45.1586H434.386C433.341 48.3337 431.44 50.9448 428.683 52.992C425.968 54.9973 422.584 56 418.531 56C415.231 56 412.264 55.2688 409.633 53.8066C407.042 52.3026 404.995 50.2137 403.491 47.54C402.029 44.8244 401.298 41.6911 401.298 38.14C401.298 34.5888 402.008 31.4764 403.428 28.8026C404.891 26.0871 406.917 23.9982 409.507 22.536C412.139 21.0737 415.147 20.3426 418.531 20.3426C421.79 20.3426 424.693 21.0528 427.242 22.4733C429.79 23.8937 431.775 25.8991 433.195 28.4893C434.616 31.0377 435.326 33.9831 435.326 37.3253ZM427.868 35.0693C427.827 32.4373 426.887 30.3275 425.048 28.74C423.21 27.1524 420.933 26.3586 418.218 26.3586C415.753 26.3586 413.643 27.1524 411.889 28.74C410.134 30.2857 409.089 32.3955 408.755 35.0693H427.868Z"/><path stroke="#11243E" stroke-width=".333" d="M448.834 9.06262V55.436H441.69V9.06262H448.834Z"/><defs><linearGradient id="paint0_linear_3239_12455" x1="8" x2="52.136" y1="10.088" y2="59.24" gradientUnits="userSpaceOnUse"><stop stop-color="#8BBEFF"/><stop offset=".613" stop-color="#8C9CF5"/><stop offset=".779" stop-color="#8FA1F2"/><stop offset="1" stop-color="#98ACF4"/></linearGradient><linearGradient id="paint1_linear_3239_12455" x1="15.511" x2="15.079" y1="7.887" y2="69.887" gradientUnits="userSpaceOnUse"><stop stop-color="#6565E3"/><stop offset=".49" stop-color="#8A99EE"/></linearGradient><linearGradient id="paint2_linear_3239_12455" x1="34.757" x2="38.895" y1="33.222" y2="59.377" gradientUnits="userSpaceOnUse"><stop stop-color="#6C6CDE" stop-opacity="0"/><stop offset="1" stop-color="#8C96EB"/></linearGradient><linearGradient id="paint3_linear_3239_12455" x1="51.598" x2="39.115" y1="12.152" y2="57.958" gradientUnits="userSpaceOnUse"><stop stop-color="#8684ED"/><stop offset=".511" stop-color="#8C9DF6"/><stop offset=".767" stop-color="#8B94F2" stop-opacity="0"/></linearGradient><linearGradient id="paint4_linear_3239_12455" x1="4.182" x2="16.925" y1="1.232" y2="28.631" gradientUnits="userSpaceOnUse"><stop offset=".198" stop-color="#AF84FF"/><stop offset=".938" stop-color="#8B94F2" stop-opacity="0"/></linearGradient><linearGradient id="paint5_linear_3239_12455" x1="18.56" x2="18.608" y1="36.224" y2="50.408" gradientUnits="userSpaceOnUse"><stop stop-color="#8CA7F8"/><stop offset=".288" stop-color="#8CA4F8"/><stop offset=".615" stop-color="#8BBFFE"/><stop offset="1" stop-color="#84CAFF"/></linearGradient></defs></svg>