<svg width="483" height="65" viewBox="0 0 483 65" fill="none" xmlns="http://www.w3.org/2000/svg">
<path d="M48 32.9956C48 19.7408 37.2548 8.99561 24 8.99561H0V56.9956H48V32.9956Z" fill="url(#paint0_linear_3688_21426)"/>
<g filter="url(#filter0_d_3688_21426)">
<path fill-rule="evenodd" clip-rule="evenodd" d="M22.9459 20.3102L21.2036 22.0562L13.0839 30.1926L10.2866 32.9958L13.0839 35.7989L21.2036 43.9354L22.9459 45.6813V40.075L15.8813 32.9958L22.9459 25.9165V20.3102ZM25.0558 40.0752L32.1205 32.9958L25.0558 25.9163V20.3101L26.7982 22.0562L34.9179 30.1926L37.7152 32.9958L34.9179 35.7989L26.7982 43.9354L25.0558 45.6815V40.0752Z" fill="white"/>
</g>
<path fill-rule="evenodd" clip-rule="evenodd" d="M90.0873 21.6226H73.2401L81.5759 29.8206H90.0873C95.4515 29.8206 99.7952 34.0714 99.7952 39.3091V56.9956H108.175V39.3091C108.175 29.5385 100.074 21.6226 90.0873 21.6226ZM80.3794 31.0143L72 22.7734V56.9956H80.3794V31.0143ZM144.982 51.2125L139.664 45.7081L139.346 46.009C137.501 47.751 134.408 49.4336 130.135 49.4336C127.13 49.4336 124.814 48.6851 123.14 47.3898C121.593 46.1932 120.559 44.5034 120.047 42.4212H146.946L146.966 42.0092C147.249 36.1373 145.75 31.0399 142.686 27.4026C139.615 23.7575 135.007 21.6226 129.173 21.6226C118.87 21.6226 110.825 29.2122 110.825 39.3108C110.825 44.3842 112.728 48.8137 116.12 51.9734C119.511 55.1321 124.362 56.9956 130.216 56.9956C137.052 56.9956 141.48 54.663 144.679 51.5107L144.982 51.2125ZM183.807 51.2125L178.49 45.7081L178.171 46.009C176.326 47.751 173.233 49.4336 168.96 49.4336C165.955 49.4336 163.639 48.6851 161.965 47.3898C160.418 46.1932 159.385 44.5034 158.872 42.4212H185.771L185.791 42.0092C186.074 36.1373 184.575 31.0399 181.511 27.4026C178.44 23.7575 173.832 21.6226 167.999 21.6226C157.695 21.6226 149.65 29.2122 149.65 39.3108C149.65 44.3842 151.553 48.8137 154.945 51.9734C158.336 55.1321 163.187 56.9956 169.041 56.9956C175.877 56.9956 180.305 54.663 183.504 51.5107L183.807 51.2125ZM194.393 21.9201H188.475V29.4747H194.393V42.6664C194.393 47.9929 195.189 51.6241 197.443 53.9013C199.701 56.1821 203.311 56.9956 208.622 56.9956H210.175V49.2494H209.735C208.138 49.2494 206.91 49.1894 205.961 49.0123C205.015 48.8359 204.387 48.5505 203.95 48.1299C203.514 47.7103 203.22 47.1098 203.038 46.2073C202.856 45.2997 202.794 44.1261 202.794 42.5975V29.4747H210.175V21.9201H202.794V12.9956H194.393V21.9201ZM129.255 29.1083C131.961 29.1083 133.946 29.9051 135.34 31.205C136.632 32.4093 137.453 34.0787 137.846 36.0409H120.043C120.557 33.8916 121.603 32.2136 123.065 31.0494C124.642 29.7934 126.738 29.1083 129.255 29.1083ZM168.081 29.1083C170.786 29.1083 172.771 29.9051 174.165 31.205C175.457 32.4093 176.278 34.0787 176.672 36.0409H158.868C159.382 33.8916 160.428 32.2136 161.89 31.0494C163.467 29.7934 165.563 29.1083 168.081 29.1083ZM230.879 29.1239C236.469 29.1239 240.913 33.6936 240.913 39.3097C240.913 44.9246 236.469 49.4943 230.879 49.4943C225.291 49.4943 220.913 44.9284 220.913 39.3097C220.913 33.6898 225.291 29.1239 230.879 29.1239ZM230.879 21.6226C220.846 21.6226 212.825 29.3783 212.825 39.3097C212.825 49.1728 220.845 56.9956 230.879 56.9956C240.91 56.9956 249 49.175 249 39.3097C249 29.3761 240.909 21.6226 230.879 21.6226Z" fill="#11243E"/>
<path d="M277.56 56.4316L267.909 39.3863H263.773V56.4316H255V12.6903H271.419C274.803 12.6903 277.685 13.2961 280.067 14.5076C282.448 15.6774 284.224 17.2859 285.393 19.333C286.605 21.3383 287.211 23.5943 287.211 26.101C287.211 28.9836 286.375 31.5948 284.704 33.9343C283.033 36.2321 280.547 37.8196 277.247 38.697L287.712 56.4316H277.56ZM263.773 32.8063H271.105C273.487 32.8063 275.262 32.2423 276.432 31.1143C277.602 29.9445 278.187 28.3361 278.187 26.289C278.187 24.2836 277.602 22.7379 276.432 21.6516C275.262 20.5236 273.487 19.9596 271.105 19.9596H263.773V32.8063Z" fill="#11243E"/>
<path d="M327.254 21.7143V56.4316H318.418V52.045C317.29 53.549 315.807 54.7396 313.969 55.617C312.172 56.4525 310.209 56.8703 308.078 56.8703C305.362 56.8703 302.96 56.3063 300.871 55.1783C298.782 54.0085 297.132 52.3165 295.921 50.1023C294.751 47.8463 294.166 45.1725 294.166 42.081V21.7143H302.939V40.8276C302.939 43.585 303.629 45.7156 305.007 47.2196C306.386 48.6819 308.266 49.413 310.647 49.413C313.07 49.413 314.971 48.6819 316.35 47.2196C317.729 45.7156 318.418 43.585 318.418 40.8276V21.7143H327.254Z" fill="#11243E"/>
<path d="M354.482 21.213C358.618 21.213 361.96 22.529 364.509 25.161C367.057 27.7512 368.331 31.3859 368.331 36.065V56.4316H359.558V37.2556C359.558 34.4983 358.869 32.3885 357.49 30.9263C356.111 29.4223 354.231 28.6703 351.85 28.6703C349.427 28.6703 347.505 29.4223 346.085 30.9263C344.706 32.3885 344.017 34.4983 344.017 37.2556V56.4316H335.243V21.7143H344.017V26.0383C345.187 24.5343 346.67 23.3645 348.466 22.529C350.304 21.6516 352.31 21.213 354.482 21.213Z" fill="#11243E"/>
<path d="M395.246 21.213C399.382 21.213 402.725 22.529 405.273 25.161C407.822 27.7512 409.096 31.3859 409.096 36.065V56.4316H400.322V37.2556C400.322 34.4983 399.633 32.3885 398.254 30.9263C396.876 29.4223 394.996 28.6703 392.614 28.6703C390.191 28.6703 388.27 29.4223 386.849 30.9263C385.47 32.3885 384.781 34.4983 384.781 37.2556V56.4316H376.008V21.7143H384.781V26.0383C385.951 24.5343 387.434 23.3645 389.23 22.529C391.069 21.6516 393.074 21.213 395.246 21.213Z" fill="#11243E"/>
<path d="M449.045 38.321C449.045 39.5743 448.962 40.7023 448.795 41.705H423.415C423.624 44.2116 424.501 46.1752 426.047 47.5956C427.593 49.0161 429.493 49.7263 431.749 49.7263C435.008 49.7263 437.327 48.3268 438.705 45.5276H448.168C447.165 48.8699 445.244 51.6272 442.403 53.7996C439.562 55.9303 436.073 56.9956 431.937 56.9956C428.595 56.9956 425.587 56.2645 422.913 54.8023C420.281 53.2983 418.213 51.1885 416.709 48.473C415.247 45.7574 414.516 42.6241 414.516 39.073C414.516 35.4801 415.247 32.3259 416.709 29.6103C418.172 26.8948 420.219 24.8059 422.851 23.3436C425.483 21.8814 428.512 21.1503 431.937 21.1503C435.238 21.1503 438.183 21.8605 440.773 23.281C443.405 24.7014 445.432 26.7276 446.852 29.3596C448.314 31.9499 449.045 34.937 449.045 38.321ZM439.959 35.8143C439.917 33.5583 439.102 31.7619 437.515 30.425C435.927 29.0463 433.985 28.357 431.687 28.357C429.514 28.357 427.676 29.0254 426.172 30.3623C424.71 31.6574 423.812 33.4748 423.477 35.8143H439.959Z" fill="#11243E"/>
<path d="M463.556 27.1036C464.684 25.2654 466.146 23.8241 467.943 22.7796C469.781 21.7352 471.87 21.213 474.209 21.213V30.425H471.891C469.133 30.425 467.044 31.0725 465.624 32.3676C464.245 33.6628 463.556 35.9188 463.556 39.1356V56.4316H454.783V21.7143H463.556V27.1036Z" fill="#11243E"/>
<defs>
<filter id="filter0_d_3688_21426" x="10.2866" y="20.3101" width="33.4287" height="32.3715" filterUnits="userSpaceOnUse" color-interpolation-filters="sRGB">
<feFlood flood-opacity="0" result="BackgroundImageFix"/>
<feColorMatrix in="SourceAlpha" type="matrix" values="0 0 0 0 0 0 0 0 0 0 0 0 0 0 0 0 0 0 127 0" result="hardAlpha"/>
<feOffset dx="3" dy="4"/>
<feGaussianBlur stdDeviation="1.5"/>
<feComposite in2="hardAlpha" operator="out"/>
<feColorMatrix type="matrix" values="0 0 0 0 0 0 0 0 0 0 0 0 0 0 0 0 0 0 0.05 0"/>
<feBlend mode="normal" in2="BackgroundImageFix" result="effect1_dropShadow_3688_21426"/>
<feBlend mode="normal" in="SourceGraphic" in2="effect1_dropShadow_3688_21426" result="shape"/>
</filter>
<linearGradient id="paint0_linear_3688_21426" x1="51.7714" y1="71.2242" x2="7.54286" y2="4.70989" gradientUnits="userSpaceOnUse">
<stop stop-color="#4B47FF"/>
<stop offset="0.6986" stop-color="#79B3F6"/>
</linearGradient>
</defs>
</svg>
