<svg xmlns="http://www.w3.org/2000/svg" width="351" height="144" fill="none" viewBox="0 0 351 144"><g clip-path="url(#clip0_318_35800)" data-logo-icon="neeto-typeface-logo__icon"><path fill="#5BCC5A" d="M29.8125 13.7208C29.8125 10.4922 32.4297 7.875 35.6583 7.875H106.315C109.543 7.875 112.161 10.4922 112.161 13.7208V96.4282C112.161 99.6567 109.543 102.274 106.315 102.274H29.8125V13.7208Z"/><path fill="#5BCC5A" fill-rule="evenodd" d="M46.3826 102.274C42.2228 102.274 38.8507 105.646 38.8507 109.806C38.8507 113.966 42.2228 117.338 46.3826 117.338H108.144C110.362 117.338 112.161 119.136 112.161 121.355C112.161 123.573 110.362 125.372 108.144 125.372H46.3826C37.7858 125.372 30.8168 118.403 30.8168 109.806C30.8168 101.209 37.7858 94.2402 46.3826 94.2402H88.5705V102.274H46.3826Z" clip-rule="evenodd"/><path fill="#5BCC5A" d="M29.8125 102.274H35.0308L37.8465 114.827L49.8974 125.372L46.6798 125.371C37.363 125.366 29.8125 117.812 29.8125 108.496V102.274Z"/><path fill="#75DC66" d="M50.9016 89.4798C50.9016 88.6188 51.5995 87.9209 52.4605 87.9209H73.4446C74.3055 87.9209 75.0035 88.6188 75.0035 89.4798V136.125L62.9525 130.023L50.9016 136.125V89.4798Z"/><path fill="#0DA84C" fill-rule="evenodd" d="M75.0032 102.274H50.9014V88.7688C50.9014 87.9079 51.5993 87.21 52.4602 87.21H73.4444C74.3053 87.21 75.0032 87.9079 75.0032 88.7688V102.274Z" clip-rule="evenodd"/></g><g data-logo-text="neeto-typeface-logo__text"><path fill="#000" d="M217.64 135.437L188.35 99.5752V135.437H172.207V54.9492H188.35V91.042L217.64 54.9492H237.127L203.917 94.8473L238.05 135.437H217.64Z" data-dark-mode-color="true"/><path fill="#000" d="M292.026 94.1555C296.562 95.0011 300.29 97.2689 303.211 100.959C306.133 104.649 307.593 108.877 307.593 113.643C307.593 117.948 306.517 121.754 304.365 125.059C302.289 128.288 299.252 130.825 295.255 132.67C291.257 134.515 286.53 135.437 281.071 135.437H246.362V54.9492H279.572C285.031 54.9492 289.72 55.8333 293.641 57.6014C297.638 59.3695 300.636 61.8295 302.635 64.9814C304.711 68.1333 305.748 71.708 305.748 75.7055C305.748 80.3948 304.48 84.3155 301.943 87.4673C299.483 90.6192 296.177 92.8486 292.026 94.1555ZM262.506 88.1592H277.266C281.11 88.1592 284.07 87.3136 286.145 85.6223C288.221 83.8542 289.259 81.3558 289.259 78.127C289.259 74.8983 288.221 72.3998 286.145 70.6317C284.07 68.8636 281.11 67.9795 277.266 67.9795H262.506V88.1592ZM278.765 122.292C282.686 122.292 285.722 121.369 287.875 119.524C290.104 117.679 291.219 115.065 291.219 111.683C291.219 108.224 290.066 105.533 287.76 103.611C285.453 101.612 282.34 100.613 278.419 100.613H262.506V122.292H278.765Z" data-dark-mode-color="true"/><path fill="#000" d="M228.622 25.5097C228.622 26.3731 228.564 27.1502 228.449 27.841H210.978C211.122 29.5679 211.726 30.9206 212.79 31.8992C213.854 32.8777 215.163 33.367 216.716 33.367C218.959 33.367 220.555 32.4028 221.504 30.4745H228.018C227.327 32.777 226.005 34.6766 224.049 36.1732C222.094 37.6411 219.692 38.375 216.845 38.375C214.544 38.375 212.474 37.8713 210.633 36.864C208.822 35.8278 207.398 34.3744 206.363 32.5036C205.356 30.6328 204.853 28.4742 204.853 26.0278C204.853 23.5525 205.356 21.3795 206.363 19.5087C207.369 17.638 208.778 16.1989 210.59 15.1915C212.402 14.1842 214.487 13.6805 216.845 13.6805C219.117 13.6805 221.144 14.1698 222.927 15.1484C224.739 16.1269 226.134 17.5228 227.112 19.3361C228.118 21.1205 228.622 23.1784 228.622 25.5097ZM222.367 23.7828C222.338 22.2286 221.777 20.991 220.684 20.07C219.592 19.1202 218.254 18.6453 216.673 18.6453C215.177 18.6453 213.912 19.1058 212.877 20.0268C211.87 20.919 211.252 22.171 211.022 23.7828H222.367Z" data-dark-mode-color="true"/><path fill="#000" d="M255.245 25.5097C255.245 26.3731 255.188 27.1502 255.073 27.841H237.602C237.746 29.5679 238.35 30.9206 239.414 31.8992C240.478 32.8777 241.787 33.367 243.34 33.367C245.583 33.367 247.179 32.4028 248.128 30.4745H254.641C253.951 32.777 252.628 34.6766 250.673 36.1732C248.717 37.6411 246.316 38.375 243.469 38.375C241.168 38.375 239.098 37.8713 237.257 36.864C235.445 35.8278 234.022 34.3744 232.987 32.5036C231.98 30.6328 231.477 28.4742 231.477 26.0278C231.477 23.5525 231.98 21.3795 232.987 19.5087C233.993 17.638 235.402 16.1989 237.214 15.1915C239.026 14.1842 241.111 13.6805 243.469 13.6805C245.741 13.6805 247.768 14.1698 249.551 15.1484C251.363 16.1269 252.758 17.5228 253.736 19.3361C254.742 21.1205 255.245 23.1784 255.245 25.5097ZM248.99 23.7828C248.962 22.2286 248.401 20.991 247.308 20.07C246.215 19.1202 244.878 18.6453 243.296 18.6453C241.801 18.6453 240.536 19.1058 239.5 20.0268C238.494 20.919 237.875 22.171 237.645 23.7828H248.99Z" data-dark-mode-color="true"/><path fill="#000" d="M266.785 18.9874V30.6615C266.785 31.4674 266.997 31.9999 267.371 32.374C267.774 32.7194 268.435 32.8921 269.356 32.8921H272.16V37.9864H268.364C263.273 37.9864 260.838 35.383 260.838 30.4326V18.9874H257.636V13.9515H260.838V8H266.785V13.9515H272.16V18.9874H266.785Z" data-dark-mode-color="true"/><path fill="#000" d="M286.989 38.375C284.689 38.375 282.618 37.8713 280.778 36.864C278.937 35.8278 277.485 34.3744 276.421 32.5036C275.385 30.6328 274.868 28.4742 274.868 26.0278C274.868 23.5813 275.4 21.4227 276.464 19.5519C277.557 17.6811 279.038 16.2421 280.907 15.2347C282.776 14.1986 284.861 13.6805 287.162 13.6805C289.463 13.6805 291.548 14.1986 293.417 15.2347C295.286 16.2421 296.753 17.6811 297.817 19.5519C298.91 21.4227 299.456 23.5813 299.456 26.0278C299.456 28.4742 298.895 30.6328 297.774 32.5036C296.681 34.3744 295.185 35.8278 293.287 36.864C291.418 37.8713 289.319 38.375 286.989 38.375ZM286.989 33.108C288.082 33.108 289.103 32.849 290.052 32.3309C291.03 31.784 291.806 30.9782 292.382 29.9132C292.957 28.8483 293.244 27.5532 293.244 26.0278C293.244 23.754 292.64 22.0127 291.432 20.8039C290.253 19.5663 288.801 18.9475 287.076 18.9475C285.35 18.9475 283.898 19.5663 282.719 20.8039C281.568 22.0127 280.993 23.754 280.993 26.0278C280.993 28.3015 281.554 30.0572 282.676 31.2948C283.826 32.5036 285.264 33.108 286.989 33.108Z" data-dark-mode-color="true"/><path fill="#000" d="M199.752 8H188.159L199.752 25.3903V8Z" data-dark-mode-color="true"/><path fill="#000" d="M171 38.375L171 8H179.372L199.752 38.375H191.136L177.724 18.666V38.375H171Z" data-dark-mode-color="true"/></g><defs><clipPath id="clip0_318_35800"><rect width="128.25" height="128.25" fill="#fff" transform="translate(6.75 7.875)"/></clipPath></defs></svg>