<svg xmlns="http://www.w3.org/2000/svg" width="352" height="144" fill="none" viewBox="0 0 352 144"><g data-logo-icon="neeto-typeface-logo__icon"><path fill="#5BCC5A" d="M101.456 89.0526C101.456 114.739 80.6331 135.562 54.9468 135.562C29.2604 135.562 8.4375 114.739 8.4375 89.0526C8.4375 63.3663 29.2604 42.5434 54.9468 42.5434C80.6331 42.5434 101.456 63.3663 101.456 89.0526Z"/><path fill="#75DC66" d="M135.562 54.9468C135.562 80.6331 114.74 101.456 89.0532 101.456C63.3668 101.456 42.5439 80.6331 42.5439 54.9468C42.5439 29.2604 63.3668 8.4375 89.0532 8.4375C114.74 8.4375 135.562 29.2604 135.562 54.9468Z"/><path fill="#0DA84C" d="M43.8714 43.8723C47.421 43.0051 51.1304 42.5454 54.9472 42.5454C80.6335 42.5454 101.456 63.3683 101.456 89.0546C101.456 92.8717 100.997 96.5813 100.129 100.131C96.5797 100.998 92.8704 101.458 89.0536 101.458C63.3672 101.458 42.5443 80.6351 42.5443 54.9488C42.5443 51.1317 43.0041 47.4221 43.8714 43.8723Z"/></g><g data-logo-text="neeto-typeface-logo__text"><path fill="#000" d="M170.536 95.2037C170.536 87.2855 172.304 80.213 175.84 73.9862C179.453 67.6824 184.335 62.8009 190.485 59.3415C196.712 55.8052 203.669 54.0371 211.356 54.0371C220.351 54.0371 228.23 56.3434 234.995 60.9559C241.76 65.5684 246.488 71.949 249.179 80.0977H230.613C228.768 76.254 226.155 73.3712 222.772 71.4493C219.467 69.5274 215.623 68.5665 211.241 68.5665C206.552 68.5665 202.362 69.6812 198.672 71.9105C195.059 74.063 192.214 77.138 190.139 81.1355C188.14 85.133 187.141 89.8224 187.141 95.2037C187.141 100.508 188.14 105.197 190.139 109.272C192.214 113.269 195.059 116.383 198.672 118.612C202.362 120.765 206.552 121.841 211.241 121.841C215.623 121.841 219.467 120.88 222.772 118.958C226.155 116.959 228.768 114.038 230.613 110.194H249.179C246.488 118.42 241.76 124.839 234.995 129.451C228.307 133.987 220.428 136.255 211.356 136.255C203.669 136.255 196.712 134.525 190.485 131.066C184.335 127.53 179.453 122.648 175.84 116.421C172.304 110.194 170.536 103.122 170.536 95.2037Z" data-dark-mode-color="true"/><path fill="#000" d="M276.805 55.0749V135.563H260.661V55.0749H276.805Z" data-dark-mode-color="true"/><path fill="#000" d="M229.622 25.5097C229.622 26.3731 229.564 27.1502 229.449 27.841H211.978C212.122 29.5679 212.726 30.9206 213.79 31.8992C214.854 32.8777 216.163 33.367 217.716 33.367C219.959 33.367 221.555 32.4028 222.504 30.4745H229.018C228.327 32.777 227.005 34.6766 225.049 36.1732C223.094 37.6411 220.692 38.375 217.845 38.375C215.544 38.375 213.474 37.8713 211.633 36.864C209.822 35.8278 208.398 34.3744 207.363 32.5036C206.356 30.6328 205.853 28.4742 205.853 26.0278C205.853 23.5525 206.356 21.3795 207.363 19.5087C208.369 17.638 209.778 16.1989 211.59 15.1915C213.402 14.1842 215.487 13.6805 217.845 13.6805C220.117 13.6805 222.144 14.1698 223.927 15.1484C225.739 16.1269 227.134 17.5228 228.112 19.3361C229.118 21.1205 229.622 23.1784 229.622 25.5097ZM223.367 23.7828C223.338 22.2286 222.777 20.991 221.684 20.07C220.592 19.1202 219.254 18.6453 217.673 18.6453C216.177 18.6453 214.912 19.1058 213.877 20.0268C212.87 20.919 212.252 22.171 212.022 23.7828H223.367Z" data-dark-mode-color="true"/><path fill="#000" d="M256.245 25.5097C256.245 26.3731 256.188 27.1502 256.073 27.841H238.602C238.746 29.5679 239.35 30.9206 240.414 31.8992C241.478 32.8777 242.787 33.367 244.34 33.367C246.583 33.367 248.179 32.4028 249.128 30.4745H255.641C254.951 32.777 253.628 34.6766 251.673 36.1732C249.717 37.6411 247.316 38.375 244.469 38.375C242.168 38.375 240.098 37.8713 238.257 36.864C236.445 35.8278 235.022 34.3744 233.987 32.5036C232.98 30.6328 232.477 28.4742 232.477 26.0278C232.477 23.5525 232.98 21.3795 233.987 19.5087C234.993 17.638 236.402 16.1989 238.214 15.1915C240.026 14.1842 242.111 13.6805 244.469 13.6805C246.741 13.6805 248.768 14.1698 250.551 15.1484C252.363 16.1269 253.758 17.5228 254.736 19.3361C255.742 21.1205 256.245 23.1784 256.245 25.5097ZM249.99 23.7828C249.962 22.2286 249.401 20.991 248.308 20.07C247.215 19.1202 245.878 18.6453 244.296 18.6453C242.801 18.6453 241.536 19.1058 240.5 20.0268C239.494 20.919 238.875 22.171 238.645 23.7828H249.99Z" data-dark-mode-color="true"/><path fill="#000" d="M267.785 18.9874V30.6615C267.785 31.4674 267.997 31.9999 268.371 32.374C268.774 32.7194 269.435 32.8921 270.356 32.8921H273.16V37.9864H269.364C264.273 37.9864 261.838 35.383 261.838 30.4326V18.9874H258.636V13.9515H261.838V8H267.785V13.9515H273.16V18.9874H267.785Z" data-dark-mode-color="true"/><path fill="#000" d="M287.989 38.375C285.689 38.375 283.618 37.8713 281.778 36.864C279.937 35.8278 278.485 34.3744 277.421 32.5036C276.385 30.6328 275.868 28.4742 275.868 26.0278C275.868 23.5813 276.4 21.4227 277.464 19.5519C278.557 17.6811 280.038 16.2421 281.907 15.2347C283.776 14.1986 285.861 13.6805 288.162 13.6805C290.463 13.6805 292.548 14.1986 294.417 15.2347C296.286 16.2421 297.753 17.6811 298.817 19.5519C299.91 21.4227 300.456 23.5813 300.456 26.0278C300.456 28.4742 299.895 30.6328 298.774 32.5036C297.681 34.3744 296.185 35.8278 294.287 36.864C292.418 37.8713 290.319 38.375 287.989 38.375ZM287.989 33.108C289.082 33.108 290.103 32.849 291.052 32.3309C292.03 31.784 292.806 30.9782 293.382 29.9132C293.957 28.8483 294.244 27.5532 294.244 26.0278C294.244 23.754 293.64 22.0127 292.432 20.8039C291.253 19.5663 289.801 18.9475 288.076 18.9475C286.35 18.9475 284.898 19.5663 283.719 20.8039C282.568 22.0127 281.993 23.754 281.993 26.0278C281.993 28.3015 282.554 30.0572 283.676 31.2948C284.826 32.5036 286.264 33.108 287.989 33.108Z" data-dark-mode-color="true"/><path fill="#000" d="M200.752 8H189.159L200.752 25.3903V8Z" data-dark-mode-color="true"/><path fill="#000" d="M172 38.375L172 8H180.372L200.752 38.375H192.136L178.724 18.666V38.375H172Z" data-dark-mode-color="true"/></g></svg>