<svg width="498" height="65" viewBox="0 0 498 65" fill="none" xmlns="http://www.w3.org/2000/svg">
<path d="M48 32.9956C48 19.7408 37.2548 8.99561 24 8.99561H0V56.9956H48V32.9956Z" fill="url(#paint0_linear_3688_21589)"/>
<g filter="url(#filter0_d_3688_21589)">
<path fill-rule="evenodd" clip-rule="evenodd" d="M35.3636 30.3846C35.5556 31.224 35.6571 32.0979 35.6571 32.9955V44.6527H12.547L22.6011 34.5986L25.8862 37.8837C26.4325 38.43 27.3182 38.43 27.8645 37.8837L35.3636 30.3846ZM34.4629 27.8502C34.3525 27.9075 34.2488 27.9825 34.1561 28.0751L26.8753 35.3559L23.5902 32.0708C23.0439 31.5245 22.1582 31.5245 21.6119 32.0708L12.3428 41.3399V21.3384H23.9999C28.5911 21.3384 32.5623 23.9925 34.4629 27.8502Z" fill="white"/>
</g>
<path fill-rule="evenodd" clip-rule="evenodd" d="M90.0873 21.6226H73.2401L81.5759 29.8206H90.0873C95.4515 29.8206 99.7952 34.0714 99.7952 39.3091V56.9956H108.175V39.3091C108.175 29.5385 100.074 21.6226 90.0873 21.6226ZM80.3794 31.0143L72 22.7734V56.9956H80.3794V31.0143ZM144.982 51.2125L139.664 45.7081L139.346 46.009C137.501 47.751 134.408 49.4336 130.135 49.4336C127.13 49.4336 124.814 48.6851 123.14 47.3898C121.593 46.1932 120.559 44.5034 120.047 42.4212H146.946L146.966 42.0092C147.249 36.1373 145.75 31.0399 142.686 27.4026C139.615 23.7575 135.007 21.6226 129.173 21.6226C118.87 21.6226 110.825 29.2122 110.825 39.3108C110.825 44.3842 112.728 48.8137 116.12 51.9734C119.511 55.1321 124.362 56.9956 130.216 56.9956C137.052 56.9956 141.48 54.663 144.679 51.5107L144.982 51.2125ZM183.807 51.2125L178.49 45.7081L178.171 46.009C176.326 47.751 173.233 49.4336 168.96 49.4336C165.955 49.4336 163.639 48.6851 161.965 47.3898C160.418 46.1932 159.385 44.5034 158.872 42.4212H185.771L185.791 42.0092C186.074 36.1373 184.575 31.0399 181.511 27.4026C178.44 23.7575 173.832 21.6226 167.999 21.6226C157.695 21.6226 149.65 29.2122 149.65 39.3108C149.65 44.3842 151.553 48.8137 154.945 51.9734C158.336 55.1321 163.187 56.9956 169.041 56.9956C175.877 56.9956 180.305 54.663 183.504 51.5107L183.807 51.2125ZM194.393 21.9201H188.475V29.4747H194.393V42.6664C194.393 47.9929 195.189 51.6241 197.443 53.9013C199.701 56.1821 203.311 56.9956 208.622 56.9956H210.175V49.2494H209.735C208.138 49.2494 206.91 49.1894 205.961 49.0123C205.015 48.8359 204.387 48.5505 203.95 48.1299C203.514 47.7103 203.22 47.1098 203.038 46.2073C202.856 45.2997 202.794 44.1261 202.794 42.5975V29.4747H210.175V21.9201H202.794V12.9956H194.393V21.9201ZM129.255 29.1083C131.961 29.1083 133.946 29.9051 135.34 31.205C136.632 32.4093 137.453 34.0787 137.846 36.0409H120.043C120.557 33.8916 121.603 32.2136 123.065 31.0494C124.642 29.7934 126.738 29.1083 129.255 29.1083ZM168.081 29.1083C170.786 29.1083 172.771 29.9051 174.165 31.205C175.457 32.4093 176.278 34.0787 176.672 36.0409H158.868C159.382 33.8916 160.428 32.2136 161.89 31.0494C163.467 29.7934 165.563 29.1083 168.081 29.1083ZM230.879 29.1239C236.469 29.1239 240.913 33.6936 240.913 39.3097C240.913 44.9246 236.469 49.4943 230.879 49.4943C225.291 49.4943 220.913 44.9284 220.913 39.3097C220.913 33.6898 225.291 29.1239 230.879 29.1239ZM230.879 21.6226C220.846 21.6226 212.825 29.3783 212.825 39.3097C212.825 49.1728 220.845 56.9956 230.879 56.9956C240.91 56.9956 249 49.175 249 39.3097C249 29.3761 240.909 21.6226 230.879 21.6226Z" fill="#11243E"/>
<path d="M303.014 13.3849V57.1263H294.24V28.6756L282.522 57.1263H275.879L264.098 28.6756V57.1263H255.324V13.3849H265.288L279.2 45.9089L293.112 13.3849H303.014Z" fill="#11243E"/>
<path d="M326.437 57.6903C323.095 57.6903 320.087 56.9592 317.413 55.4969C314.739 53.9929 312.629 51.8832 311.083 49.1676C309.579 46.4521 308.827 43.3187 308.827 39.7676C308.827 36.2165 309.6 33.0832 311.146 30.3676C312.734 27.6521 314.885 25.5632 317.601 24.1009C320.316 22.5969 323.345 21.8449 326.688 21.8449C330.03 21.8449 333.059 22.5969 335.774 24.1009C338.49 25.5632 340.62 27.6521 342.166 30.3676C343.754 33.0832 344.548 36.2165 344.548 39.7676C344.548 43.3187 343.733 46.4521 342.104 49.1676C340.516 51.8832 338.343 53.9929 335.586 55.4969C332.871 56.9592 329.821 57.6903 326.437 57.6903ZM326.437 50.0449C328.024 50.0449 329.507 49.6689 330.886 48.9169C332.307 48.1232 333.435 46.9534 334.27 45.4076C335.106 43.8618 335.523 41.9818 335.523 39.7676C335.523 36.4672 334.646 33.9396 332.892 32.1849C331.179 30.3885 329.069 29.4903 326.562 29.4903C324.055 29.4903 321.946 30.3885 320.233 32.1849C318.562 33.9396 317.726 36.4672 317.726 39.7676C317.726 43.0681 318.541 45.6165 320.17 47.4129C321.841 49.1676 323.93 50.0449 326.437 50.0449Z" fill="#11243E"/>
<path d="M369.555 21.9076C373.691 21.9076 377.033 23.2236 379.582 25.8556C382.13 28.4458 383.404 32.0805 383.404 36.7596V57.1263H374.631V37.9503C374.631 35.1929 373.942 33.0832 372.563 31.6209C371.184 30.1169 369.304 29.3649 366.923 29.3649C364.5 29.3649 362.578 30.1169 361.158 31.6209C359.779 33.0832 359.09 35.1929 359.09 37.9503V57.1263H350.316V22.4089H359.09V26.7329C360.26 25.2289 361.743 24.0592 363.539 23.2236C365.377 22.3463 367.383 21.9076 369.555 21.9076Z" fill="#11243E"/>
<path d="M395.53 18.2729C393.984 18.2729 392.689 17.7925 391.645 16.8316C390.642 15.8289 390.141 14.5965 390.141 13.1343C390.141 11.6721 390.642 10.4605 391.645 9.4996C392.689 8.49694 393.984 7.99561 395.53 7.99561C397.076 7.99561 398.35 8.49694 399.353 9.4996C400.397 10.4605 400.919 11.6721 400.919 13.1343C400.919 14.5965 400.397 15.8289 399.353 16.8316C398.35 17.7925 397.076 18.2729 395.53 18.2729ZM399.854 22.4089V57.1263H391.081V22.4089H399.854Z" fill="#11243E"/>
<path d="M418.07 29.6156V46.4103C418.07 47.5801 418.342 48.4365 418.885 48.9796C419.47 49.4809 420.431 49.7316 421.767 49.7316H425.841V57.1263H420.326C412.931 57.1263 409.234 53.5334 409.234 46.3476V29.6156H405.098V22.4089H409.234V13.8236H418.07V22.4089H425.841V29.6156H418.07Z" fill="#11243E"/>
<path d="M446.9 57.6903C443.558 57.6903 440.55 56.9592 437.876 55.4969C435.203 53.9929 433.093 51.8832 431.547 49.1676C430.043 46.4521 429.291 43.3187 429.291 39.7676C429.291 36.2165 430.064 33.0832 431.61 30.3676C433.197 27.6521 435.349 25.5632 438.064 24.1009C440.78 22.5969 443.809 21.8449 447.151 21.8449C450.493 21.8449 453.522 22.5969 456.238 24.1009C458.953 25.5632 461.084 27.6521 462.63 30.3676C464.217 33.0832 465.011 36.2165 465.011 39.7676C465.011 43.3187 464.196 46.4521 462.567 49.1676C460.979 51.8832 458.807 53.9929 456.05 55.4969C453.334 56.9592 450.284 57.6903 446.9 57.6903ZM446.9 50.0449C448.488 50.0449 449.971 49.6689 451.35 48.9169C452.77 48.1232 453.898 46.9534 454.734 45.4076C455.569 43.8618 455.987 41.9818 455.987 39.7676C455.987 36.4672 455.11 33.9396 453.355 32.1849C451.642 30.3885 449.532 29.4903 447.026 29.4903C444.519 29.4903 442.409 30.3885 440.696 32.1849C439.025 33.9396 438.19 36.4672 438.19 39.7676C438.19 43.0681 439.004 45.6165 440.634 47.4129C442.305 49.1676 444.394 50.0449 446.9 50.0449Z" fill="#11243E"/>
<path d="M479.553 27.7983C480.681 25.9601 482.144 24.5187 483.94 23.4743C485.778 22.4298 487.867 21.9076 490.207 21.9076V31.1196H487.888C485.131 31.1196 483.042 31.7672 481.621 33.0623C480.243 34.3574 479.553 36.6134 479.553 39.8303V57.1263H470.78V22.4089H479.553V27.7983Z" fill="#11243E"/>
<defs>
<filter id="filter0_d_3688_21589" x="12.3428" y="21.3384" width="29.3145" height="30.3142" filterUnits="userSpaceOnUse" color-interpolation-filters="sRGB">
<feFlood flood-opacity="0" result="BackgroundImageFix"/>
<feColorMatrix in="SourceAlpha" type="matrix" values="0 0 0 0 0 0 0 0 0 0 0 0 0 0 0 0 0 0 127 0" result="hardAlpha"/>
<feOffset dx="3" dy="4"/>
<feGaussianBlur stdDeviation="1.5"/>
<feComposite in2="hardAlpha" operator="out"/>
<feColorMatrix type="matrix" values="0 0 0 0 0 0 0 0 0 0 0 0 0 0 0 0 0 0 0.05 0"/>
<feBlend mode="normal" in2="BackgroundImageFix" result="effect1_dropShadow_3688_21589"/>
<feBlend mode="normal" in="SourceGraphic" in2="effect1_dropShadow_3688_21589" result="shape"/>
</filter>
<linearGradient id="paint0_linear_3688_21589" x1="74.2286" y1="96.767" x2="-27.4286" y2="-20.6615" gradientUnits="userSpaceOnUse">
<stop offset="0.46875" stop-color="#46B5C5"/>
<stop offset="0.880208" stop-color="#17FFD5"/>
</linearGradient>
</defs>
</svg>
