<svg width="445" height="69" viewBox="0 0 445 69" fill="none" xmlns="http://www.w3.org/2000/svg">
<path d="M48 32.9956C48 19.7408 37.2548 8.99561 24 8.99561H0V56.9956H48V32.9956Z" fill="url(#paint0_linear_3688_21544)"/>
<g filter="url(#filter0_d_3688_21544)">
<path d="M37.3107 27.8388C37.3021 25.1888 35.1522 23.0522 32.5022 23.0522H15.7802C14.5023 23.0522 13.2769 23.5541 12.3749 24.4595C11.4724 25.3644 10.9677 26.588 10.9717 27.8659L11.0127 40.6642C11.0208 43.3135 13.1712 45.449 15.8212 45.449H20.561L22.8165 48.6833C23.1197 49.1181 23.6157 49.3769 24.1453 49.378C24.6748 49.3797 25.172 49.1228 25.4775 48.6885L27.7578 45.4501H32.5427C33.8206 45.4501 35.046 44.9483 35.9474 44.0429C36.8499 43.1374 37.3552 41.9167 37.3512 40.6387L37.3107 27.8388ZM24.1609 25.9049C26.6382 25.9049 28.6466 27.9133 28.6466 30.3894C28.6466 32.8673 26.6376 34.8746 24.1609 34.8746C21.6841 34.8746 19.6763 32.8673 19.6763 30.3894C19.6769 27.9133 21.6847 25.9049 24.1609 25.9049ZM31.304 41.5806C31.304 42.1338 30.8559 42.5819 30.3027 42.5819H18.0173C17.4635 42.5819 17.0148 42.1338 17.0148 41.58C17.0148 39.0686 19.04 37.0279 21.5513 37.0279H26.7721C27.9784 37.0279 29.1276 37.5101 29.9805 38.363C30.8334 39.2159 31.304 40.3754 31.304 41.5806Z" fill="white"/>
</g>
<path fill-rule="evenodd" clip-rule="evenodd" d="M90.0873 21.627H73.2401L81.5759 29.825H90.0873C95.4515 29.825 99.7952 34.0758 99.7952 39.3135V57H108.175V39.3135C108.175 29.5429 100.074 21.627 90.0873 21.627ZM80.3794 31.0187L72 22.7778V57H80.3794V31.0187ZM144.982 51.2169L139.664 45.7125L139.346 46.0134C137.501 47.7554 134.408 49.438 130.135 49.438C127.13 49.438 124.814 48.6895 123.14 47.3942C121.593 46.1976 120.559 44.5078 120.047 42.4256H146.946L146.966 42.0135C147.249 36.1417 145.75 31.0443 142.686 27.407C139.615 23.7619 135.007 21.627 129.173 21.627C118.87 21.627 110.825 29.2166 110.825 39.3152C110.825 44.3885 112.728 48.8181 116.12 51.9778C119.511 55.1365 124.362 57 130.216 57C137.052 57 141.48 54.6674 144.679 51.5151L144.982 51.2169ZM183.807 51.2169L178.49 45.7125L178.171 46.0134C176.326 47.7554 173.233 49.438 168.96 49.438C165.955 49.438 163.639 48.6895 161.965 47.3942C160.418 46.1976 159.385 44.5078 158.872 42.4256H185.771L185.791 42.0135C186.074 36.1417 184.575 31.0443 181.511 27.407C178.44 23.7619 173.832 21.627 167.999 21.627C157.695 21.627 149.65 29.2166 149.65 39.3152C149.65 44.3885 151.553 48.8181 154.945 51.9778C158.336 55.1365 163.187 57 169.041 57C175.877 57 180.305 54.6674 183.504 51.5151L183.807 51.2169ZM194.393 21.9245H188.475V29.4791H194.393V42.6708C194.393 47.9973 195.189 51.6285 197.443 53.9057C199.701 56.1865 203.311 57 208.622 57H210.175V49.2538H209.735C208.138 49.2538 206.91 49.1938 205.961 49.0167C205.015 48.8403 204.387 48.5548 203.95 48.1343C203.514 47.7147 203.22 47.1142 203.038 46.2117C202.856 45.3041 202.794 44.1305 202.794 42.6019V29.4791H210.175V21.9245H202.794V13H194.393V21.9245ZM129.255 29.1127C131.961 29.1127 133.946 29.9095 135.34 31.2094C136.632 32.4137 137.453 34.0831 137.846 36.0453H120.043C120.557 33.8959 121.603 32.218 123.065 31.0538C124.642 29.7977 126.738 29.1127 129.255 29.1127ZM168.081 29.1127C170.786 29.1127 172.771 29.9095 174.165 31.2094C175.457 32.4137 176.278 34.0831 176.672 36.0453H158.868C159.382 33.8959 160.428 32.218 161.89 31.0538C163.467 29.7977 165.563 29.1127 168.081 29.1127ZM230.879 29.1283C236.469 29.1283 240.913 33.698 240.913 39.3141C240.913 44.929 236.469 49.4986 230.879 49.4986C225.291 49.4986 220.913 44.9328 220.913 39.3141C220.913 33.6942 225.291 29.1283 230.879 29.1283ZM230.879 21.627C220.846 21.627 212.825 29.3827 212.825 39.3141C212.825 49.1772 220.845 57 230.879 57C240.91 57 249 49.1794 249 39.3141C249 29.3805 240.909 21.627 230.879 21.627Z" fill="#11243E"/>
<path d="M271.231 56.5693C268.181 56.5693 265.424 56.0471 262.959 55.0027C260.536 53.9582 258.614 52.4542 257.193 50.4907C255.773 48.5271 255.042 46.2084 255 43.5347H264.4C264.525 45.3311 265.152 46.7516 266.28 47.796C267.45 48.8404 269.037 49.3627 271.043 49.3627C273.09 49.3627 274.698 48.8822 275.868 47.9213C277.038 46.9187 277.623 45.6236 277.623 44.036C277.623 42.7409 277.226 41.6756 276.432 40.84C275.638 40.0044 274.636 39.3569 273.424 38.8973C272.254 38.396 270.625 37.8529 268.536 37.268C265.695 36.4324 263.376 35.6178 261.58 34.824C259.825 33.9884 258.3 32.756 257.005 31.1267C255.752 29.4556 255.125 27.2413 255.125 24.484C255.125 21.8938 255.773 19.6378 257.068 17.716C258.363 15.7942 260.18 14.332 262.52 13.3293C264.86 12.2849 267.533 11.7627 270.541 11.7627C275.053 11.7627 278.709 12.8698 281.508 15.084C284.349 17.2564 285.916 20.3062 286.208 24.2333H276.557C276.474 22.7293 275.826 21.4969 274.615 20.536C273.445 19.5333 271.878 19.032 269.915 19.032C268.202 19.032 266.823 19.4707 265.779 20.348C264.776 21.2253 264.275 22.4996 264.275 24.1707C264.275 25.3404 264.651 26.3222 265.403 27.116C266.196 27.868 267.157 28.4947 268.285 28.996C269.455 29.4556 271.084 29.9987 273.173 30.6253C276.014 31.4609 278.333 32.2964 280.129 33.132C281.926 33.9676 283.472 35.2209 284.767 36.892C286.062 38.5631 286.709 40.7564 286.709 43.472C286.709 45.8116 286.104 47.984 284.892 49.9893C283.68 51.9947 281.905 53.6031 279.565 54.8147C277.226 55.9844 274.448 56.5693 271.231 56.5693Z" fill="#11243E"/>
<path d="M309.065 56.6947C305.723 56.6947 302.715 55.9636 300.041 54.5013C297.367 52.9973 295.257 50.8876 293.711 48.172C292.207 45.4564 291.455 42.3231 291.455 38.772C291.455 35.2209 292.228 32.0876 293.774 29.372C295.362 26.6564 297.513 24.5676 300.229 23.1053C302.944 21.6013 305.973 20.8493 309.315 20.8493C312.658 20.8493 315.687 21.6013 318.402 23.1053C321.118 24.5676 323.248 26.6564 324.794 29.372C326.382 32.0876 327.175 35.2209 327.175 38.772C327.175 42.3231 326.361 45.4564 324.731 48.172C323.144 50.8876 320.972 52.9973 318.214 54.5013C315.499 55.9636 312.449 56.6947 309.065 56.6947ZM309.065 49.0493C310.652 49.0493 312.136 48.6733 313.514 47.9213C314.935 47.1276 316.063 45.9578 316.898 44.412C317.734 42.8662 318.152 40.9862 318.152 38.772C318.152 35.4716 317.274 32.944 315.52 31.1893C313.807 29.3929 311.697 28.4947 309.19 28.4947C306.683 28.4947 304.574 29.3929 302.861 31.1893C301.19 32.944 300.354 35.4716 300.354 38.772C300.354 42.0724 301.169 44.6209 302.798 46.4173C304.469 48.172 306.558 49.0493 309.065 49.0493Z" fill="#11243E"/>
<path d="M330.688 38.772C330.688 35.1791 331.42 32.0458 332.882 29.372C334.344 26.6564 336.37 24.5676 338.96 23.1053C341.551 21.6013 344.517 20.8493 347.859 20.8493C352.162 20.8493 355.713 21.9356 358.512 24.108C361.353 26.2387 363.254 29.2467 364.215 33.132H354.752C354.251 31.628 353.395 30.4582 352.183 29.6227C351.013 28.7453 349.551 28.3067 347.796 28.3067C345.29 28.3067 343.305 29.2258 341.843 31.064C340.381 32.8604 339.65 35.4298 339.65 38.772C339.65 42.0724 340.381 44.6418 341.843 46.48C343.305 48.2764 345.29 49.1747 347.796 49.1747C351.348 49.1747 353.666 47.5871 354.752 44.412H364.215C363.254 48.172 361.353 51.1591 358.512 53.3733C355.672 55.5876 352.12 56.6947 347.859 56.6947C344.517 56.6947 341.551 55.9636 338.96 54.5013C336.37 52.9973 334.344 50.9084 332.882 48.2347C331.42 45.5191 330.688 42.3649 330.688 38.772Z" fill="#11243E"/>
<path d="M374.425 17.2773C372.879 17.2773 371.584 16.7969 370.54 15.836C369.537 14.8333 369.036 13.6009 369.036 12.1387C369.036 10.6764 369.537 9.46489 370.54 8.504C371.584 7.50133 372.879 7 374.425 7C375.971 7 377.245 7.50133 378.248 8.504C379.292 9.46489 379.814 10.6764 379.814 12.1387C379.814 13.6009 379.292 14.8333 378.248 15.836C377.245 16.7969 375.971 17.2773 374.425 17.2773ZM378.749 21.4133V56.1307H369.976V21.4133H378.749Z" fill="#11243E"/>
<path d="M384.494 38.6467C384.494 35.1373 385.184 32.0249 386.562 29.3093C387.983 26.5938 389.884 24.5049 392.265 23.0427C394.688 21.5804 397.383 20.8493 400.349 20.8493C402.939 20.8493 405.195 21.3716 407.117 22.416C409.081 23.4604 410.647 24.7764 411.817 26.364V21.4133H420.653V56.1307H411.817V51.0547C410.689 52.684 409.122 54.0418 407.117 55.128C405.154 56.1724 402.877 56.6947 400.286 56.6947C397.362 56.6947 394.688 55.9427 392.265 54.4387C389.884 52.9347 387.983 50.8249 386.562 48.1093C385.184 45.352 384.494 42.1978 384.494 38.6467ZM411.817 38.772C411.817 36.6413 411.399 34.824 410.564 33.32C409.728 31.7742 408.6 30.6044 407.18 29.8107C405.759 28.9751 404.234 28.5573 402.605 28.5573C400.976 28.5573 399.472 28.9542 398.093 29.748C396.714 30.5418 395.586 31.7116 394.709 33.2573C393.874 34.7613 393.456 36.5578 393.456 38.6467C393.456 40.7356 393.874 42.5738 394.709 44.1613C395.586 45.7071 396.714 46.8978 398.093 47.7333C399.514 48.5689 401.018 48.9867 402.605 48.9867C404.234 48.9867 405.759 48.5898 407.18 47.796C408.6 46.9604 409.728 45.7907 410.564 44.2867C411.399 42.7409 411.817 40.9027 411.817 38.772Z" fill="#11243E"/>
<path d="M437.328 9.75734V56.1307H428.555V9.75734H437.328Z" fill="#11243E"/>
<defs>
<filter id="filter0_d_3688_21544" x="10.9717" y="23.0522" width="32.3794" height="33.3257" filterUnits="userSpaceOnUse" color-interpolation-filters="sRGB">
<feFlood flood-opacity="0" result="BackgroundImageFix"/>
<feColorMatrix in="SourceAlpha" type="matrix" values="0 0 0 0 0 0 0 0 0 0 0 0 0 0 0 0 0 0 127 0" result="hardAlpha"/>
<feOffset dx="3" dy="4"/>
<feGaussianBlur stdDeviation="1.5"/>
<feComposite in2="hardAlpha" operator="out"/>
<feColorMatrix type="matrix" values="0 0 0 0 0 0 0 0 0 0 0 0 0 0 0 0 0 0 0.05 0"/>
<feBlend mode="normal" in2="BackgroundImageFix" result="effect1_dropShadow_3688_21544"/>
<feBlend mode="normal" in="SourceGraphic" in2="effect1_dropShadow_3688_21544" result="shape"/>
</filter>
<linearGradient id="paint0_linear_3688_21544" x1="57.7714" y1="80.8242" x2="-8.22857" y2="-2.66154" gradientUnits="userSpaceOnUse">
<stop stop-color="#81D2F4"/>
<stop offset="1" stop-color="#4A9CE9"/>
</linearGradient>
</defs>
</svg>
