<svg width="490" height="64" viewBox="0 0 490 64" fill="none" xmlns="http://www.w3.org/2000/svg">
<path d="M56 32C56 18.7452 45.2548 8 32 8H8V56H56V32Z" fill="url(#paint0_linear_5021_2857)"/>
<path d="M40.9993 33.5993C40.9993 33.3534 41.1372 33.1282 41.3563 33.0164L45.7896 30.7546C46.225 30.5325 46.7414 30.8487 46.7414 31.3375V42.9654C46.7414 43.4497 46.2336 43.7662 45.7988 43.5529L41.3655 41.3781C41.1413 41.2682 40.9993 41.0403 40.9993 40.7906V33.5993Z" fill="white"/>
<path d="M31.6369 36.2722C31.6369 38.0689 30.1804 39.5254 28.3837 39.5254C26.587 39.5254 25.1305 38.0689 25.1305 36.2722C25.1305 34.4755 26.587 33.019 28.3837 33.019C30.1804 33.019 31.6369 34.4755 31.6369 36.2722Z" fill="white"/>
<path fill-rule="evenodd" clip-rule="evenodd" d="M28.3838 24.0049C34.7744 24.0049 39.9551 29.1855 39.9551 35.5762V47.1475H16.8125V24.0049H28.3838ZM34.9089 36.2722C34.9089 39.876 31.9875 42.7974 28.3837 42.7974C24.78 42.7974 21.8586 39.876 21.8586 36.2722C21.8586 32.6685 24.78 29.7471 28.3837 29.7471C31.9875 29.7471 34.9089 32.6685 34.9089 36.2722Z" fill="white"/>
<path fill-rule="evenodd" clip-rule="evenodd" d="M98.0873 17.627H81.2401L89.5759 25.825H98.0873C103.452 25.825 107.795 30.0758 107.795 35.3135V53H116.175V35.3135C116.175 25.5429 108.074 17.627 98.0873 17.627ZM88.3794 27.0187L80 18.7778V53H88.3794V27.0187ZM152.982 47.2169L147.664 41.7125L147.346 42.0134C145.501 43.7554 142.408 45.438 138.135 45.438C135.13 45.438 132.814 44.6895 131.14 43.3942C129.593 42.1976 128.559 40.5078 128.047 38.4256H154.946L154.966 38.0135C155.249 32.1417 153.75 27.0443 150.686 23.407C147.615 19.7619 143.007 17.627 137.173 17.627C126.87 17.627 118.825 25.2166 118.825 35.3152C118.825 40.3885 120.728 44.8181 124.12 47.9778C127.511 51.1365 132.362 53 138.216 53C145.052 53 149.48 50.6674 152.679 47.5151L152.982 47.2169ZM191.807 47.2169L186.49 41.7125L186.171 42.0134C184.326 43.7554 181.233 45.438 176.96 45.438C173.955 45.438 171.639 44.6895 169.965 43.3942C168.418 42.1976 167.385 40.5078 166.872 38.4256H193.771L193.791 38.0135C194.074 32.1417 192.575 27.0443 189.511 23.407C186.44 19.7619 181.832 17.627 175.999 17.627C165.695 17.627 157.65 25.2166 157.65 35.3152C157.65 40.3885 159.553 44.8181 162.945 47.9778C166.336 51.1365 171.187 53 177.041 53C183.877 53 188.305 50.6674 191.504 47.5151L191.807 47.2169ZM202.393 17.9245H196.475V25.4791H202.393V38.6708C202.393 43.9973 203.189 47.6285 205.443 49.9057C207.701 52.1865 211.311 53 216.622 53H218.175V45.2538H217.735C216.138 45.2538 214.91 45.1938 213.961 45.0167C213.015 44.8403 212.387 44.5548 211.95 44.1343C211.514 43.7147 211.22 43.1142 211.038 42.2117C210.856 41.3041 210.794 40.1305 210.794 38.6019V25.4791H218.175V17.9245H210.794V9H202.393V17.9245ZM137.255 25.1127C139.961 25.1127 141.946 25.9095 143.34 27.2094C144.632 28.4137 145.453 30.0831 145.846 32.0453H128.043C128.557 29.8959 129.603 28.218 131.065 27.0538C132.642 25.7977 134.738 25.1127 137.255 25.1127ZM176.081 25.1127C178.786 25.1127 180.771 25.9095 182.165 27.2094C183.457 28.4137 184.278 30.0831 184.672 32.0453H166.868C167.382 29.8959 168.428 28.218 169.89 27.0538C171.467 25.7977 173.563 25.1127 176.081 25.1127ZM238.879 25.1283C244.469 25.1283 248.913 29.698 248.913 35.3141C248.913 40.929 244.469 45.4986 238.879 45.4986C233.291 45.4986 228.913 40.9328 228.913 35.3141C228.913 29.6942 233.291 25.1283 238.879 25.1283ZM238.879 17.627C228.846 17.627 220.825 25.3827 220.825 35.3141C220.825 45.1772 228.845 53 238.879 53C248.91 53 257 45.1794 257 35.3141C257 25.3805 248.909 17.627 238.879 17.627Z" fill="#11243E"/>
<path d="M285.884 55L276.233 37.9547H272.097V55H263.324V11.2587H279.743C283.127 11.2587 286.009 11.8644 288.391 13.076C290.772 14.2458 292.548 15.8542 293.717 17.9013C294.929 19.9067 295.535 22.1627 295.535 24.6693C295.535 27.552 294.699 30.1631 293.028 32.5027C291.357 34.8004 288.871 36.388 285.571 37.2653L296.036 55H285.884ZM272.097 31.3747H279.429C281.811 31.3747 283.586 30.8107 284.756 29.6827C285.926 28.5129 286.511 26.9044 286.511 24.8573C286.511 22.852 285.926 21.3062 284.756 20.22C283.586 19.092 281.811 18.528 279.429 18.528H272.097V31.3747ZM335.077 36.8893C335.077 38.1427 334.993 39.2707 334.826 40.2733H309.446C309.655 42.78 310.532 44.7436 312.078 46.164C313.624 47.5844 315.525 48.2947 317.781 48.2947C321.039 48.2947 323.358 46.8951 324.737 44.096H334.199C333.197 47.4382 331.275 50.1956 328.434 52.368C325.593 54.4987 322.105 55.564 317.969 55.564C314.626 55.564 311.618 54.8329 308.945 53.3707C306.313 51.8667 304.245 49.7569 302.741 47.0413C301.278 44.3258 300.547 41.1924 300.547 37.6413C300.547 34.0484 301.278 30.8942 302.741 28.1787C304.203 25.4631 306.25 23.3742 308.882 21.912C311.514 20.4498 314.543 19.7187 317.969 19.7187C321.269 19.7187 324.214 20.4289 326.805 21.8493C329.437 23.2698 331.463 25.296 332.883 27.928C334.345 30.5182 335.077 33.5053 335.077 36.8893ZM325.99 34.3827C325.948 32.1267 325.133 30.3302 323.546 28.9933C321.958 27.6147 320.016 26.9253 317.718 26.9253C315.545 26.9253 313.707 27.5938 312.203 28.9307C310.741 30.2258 309.843 32.0431 309.509 34.3827H325.99ZM338.558 37.6413C338.558 34.0484 339.289 30.9151 340.751 28.2413C342.213 25.5258 344.239 23.4369 346.83 21.9747C349.42 20.4707 352.386 19.7187 355.728 19.7187C360.031 19.7187 363.582 20.8049 366.382 22.9773C369.222 25.108 371.123 28.116 372.084 32.0013H362.622C362.12 30.4973 361.264 29.3276 360.052 28.492C358.882 27.6147 357.42 27.176 355.666 27.176C353.159 27.176 351.174 28.0951 349.712 29.9333C348.25 31.7298 347.519 34.2991 347.519 37.6413C347.519 40.9418 348.25 43.5111 349.712 45.3493C351.174 47.1458 353.159 48.044 355.666 48.044C359.217 48.044 361.535 46.4564 362.622 43.2813H372.084C371.123 47.0413 369.222 50.0284 366.382 52.2427C363.541 54.4569 359.99 55.564 355.728 55.564C352.386 55.564 349.42 54.8329 346.83 53.3707C344.239 51.8667 342.213 49.7778 340.751 47.104C339.289 44.3884 338.558 41.2342 338.558 37.6413ZM393.261 55.564C389.919 55.564 386.911 54.8329 384.237 53.3707C381.563 51.8667 379.453 49.7569 377.908 47.0413C376.404 44.3258 375.652 41.1924 375.652 37.6413C375.652 34.0902 376.424 30.9569 377.97 28.2413C379.558 25.5258 381.709 23.4369 384.425 21.9747C387.14 20.4707 390.169 19.7187 393.512 19.7187C396.854 19.7187 399.883 20.4707 402.598 21.9747C405.314 23.4369 407.444 25.5258 408.99 28.2413C410.578 30.9569 411.372 34.0902 411.372 37.6413C411.372 41.1924 410.557 44.3258 408.928 47.0413C407.34 49.7569 405.168 51.8667 402.41 53.3707C399.695 54.8329 396.645 55.564 393.261 55.564ZM393.261 47.9187C394.848 47.9187 396.332 47.5427 397.71 46.7907C399.131 45.9969 400.259 44.8271 401.094 43.2813C401.93 41.7356 402.348 39.8556 402.348 37.6413C402.348 34.3409 401.47 31.8133 399.716 30.0587C398.003 28.2622 395.893 27.364 393.386 27.364C390.88 27.364 388.77 28.2622 387.057 30.0587C385.386 31.8133 384.55 34.3409 384.55 37.6413C384.55 40.9418 385.365 43.4902 386.994 45.2867C388.665 47.0413 390.754 47.9187 393.261 47.9187ZM425.914 25.672C427.042 23.8338 428.504 22.3924 430.3 21.348C432.139 20.3036 434.228 19.7813 436.567 19.7813V28.9933H434.248C431.491 28.9933 429.402 29.6409 427.982 30.936C426.603 32.2311 425.914 34.4871 425.914 37.704V55H417.14V20.2827H425.914V25.672ZM439.554 37.516C439.554 34.0067 440.243 30.8942 441.622 28.1787C443.042 25.4631 444.964 23.3742 447.387 21.912C449.81 20.4498 452.505 19.7187 455.471 19.7187C457.727 19.7187 459.879 20.22 461.926 21.2227C463.973 22.1836 465.602 23.4787 466.814 25.108V8.62667H475.712V55H466.814V49.8613C465.727 51.5742 464.203 52.9529 462.239 53.9973C460.275 55.0418 457.999 55.564 455.408 55.564C452.484 55.564 449.81 54.812 447.387 53.308C444.964 51.804 443.042 49.6942 441.622 46.9787C440.243 44.2213 439.554 41.0671 439.554 37.516ZM466.876 37.6413C466.876 35.5107 466.459 33.6933 465.623 32.1893C464.787 30.6436 463.659 29.4738 462.239 28.68C460.819 27.8444 459.294 27.4267 457.664 27.4267C456.035 27.4267 454.531 27.8236 453.152 28.6173C451.774 29.4111 450.646 30.5809 449.768 32.1267C448.933 33.6307 448.515 35.4271 448.515 37.516C448.515 39.6049 448.933 41.4431 449.768 43.0307C450.646 44.5764 451.774 45.7671 453.152 46.6027C454.573 47.4382 456.077 47.856 457.664 47.856C459.294 47.856 460.819 47.4591 462.239 46.6653C463.659 45.8298 464.787 44.66 465.623 43.156C466.459 41.6102 466.876 39.772 466.876 37.6413Z" fill="#11243E"/>
<defs>
<linearGradient id="paint0_linear_5021_2857" x1="82.2286" y1="95.7714" x2="-19.4286" y2="-21.6571" gradientUnits="userSpaceOnUse">
<stop offset="0.252913" stop-color="#5268FF"/>
<stop offset="0.675904" stop-color="#2896FF"/>
</linearGradient>
</defs>
</svg>
