<svg xmlns="http://www.w3.org/2000/svg" width="799" height="169" fill="none" viewBox="0 0 799 169"><g data-logo-icon="neeto-typeface-logo__icon"><path fill="#75DC66" d="M84.6542 104.455C84.6542 120.246 71.8529 133.047 56.0618 133.047C40.2706 133.047 27.4694 120.246 27.4694 104.455C27.4694 88.664 40.2706 75.8627 56.0618 75.8627C71.8529 75.8627 84.6542 88.664 84.6542 104.455Z"/><path fill="#5BCC5A" d="M10.6875 68.7156C10.6875 51.0363 25.0193 36.7045 42.6985 36.7045H60.4134V100.727H42.6986C25.0193 100.727 10.6875 86.3948 10.6875 68.7156Z"/><path fill="#5BCC5A" d="M60.4129 36.7036L124.479 9.32508C128.58 7.57258 133.137 10.5811 133.137 15.0408V122.389C133.137 126.848 128.58 129.857 124.479 128.104L60.4129 100.726V36.7036Z"/><path fill="#0DA84C" d="M60.4132 76.1911L60.4129 100.726L42.6986 100.727C37.5444 100.727 32.6745 99.508 28.3615 97.3439C31.5225 84.9928 42.7263 75.8622 56.0627 75.8622C57.5417 75.8622 58.9946 75.9745 60.4132 76.1911Z"/><path fill="#0DA84C" d="M83.9517 110.784L60.4129 100.726L60.4132 76.1911C74.1392 78.2868 84.6542 90.1433 84.6542 104.455C84.6542 106.63 84.4118 108.748 83.9517 110.784Z"/></g><g data-logo-text="neeto-typeface-logo__text"><path fill="#000" d="M168.848 95.0773C168.848 87.1592 170.617 80.0867 174.153 73.8598C177.766 67.5561 182.648 62.6745 188.798 59.2152C195.024 55.6789 201.982 53.9108 209.669 53.9108C218.663 53.9108 226.543 56.217 233.308 60.8295C240.073 65.442 244.801 71.8227 247.492 79.9714H228.926C227.081 76.1277 224.468 73.2448 221.085 71.323C217.779 69.4011 213.936 68.4402 209.554 68.4402C204.864 68.4402 200.675 69.5548 196.985 71.7842C193.372 73.9367 190.527 77.0117 188.452 81.0092C186.453 85.0067 185.453 89.6961 185.453 95.0773C185.453 100.382 186.453 105.071 188.452 109.145C190.527 113.143 193.372 116.256 196.985 118.486C200.675 120.638 204.864 121.715 209.554 121.715C213.936 121.715 217.779 120.754 221.085 118.832C224.468 116.833 227.081 113.912 228.926 110.068H247.492C244.801 118.294 240.073 124.713 233.308 129.325C226.62 133.861 218.74 136.129 209.669 136.129C201.982 136.129 195.024 134.399 188.798 130.94C182.648 127.403 177.766 122.522 174.153 116.295C170.617 110.068 168.848 102.995 168.848 95.0773Z" data-dark-mode-color="true"/><path fill="#000" d="M294.952 70.6311C299.795 70.6311 304.1 71.7073 307.867 73.8598C311.634 75.9355 314.555 79.0489 316.63 83.2002C318.783 87.2745 319.859 92.1945 319.859 97.9602V135.437H303.715V100.151C303.715 95.0773 302.447 91.1952 299.91 88.5045C297.373 85.737 293.914 84.3533 289.532 84.3533C285.073 84.3533 281.537 85.737 278.923 88.5045C276.386 91.1952 275.118 95.0773 275.118 100.151V135.437H258.974V50.1055H275.118V79.5102C277.194 76.7427 279.961 74.5902 283.42 73.0527C286.88 71.4383 290.724 70.6311 294.952 70.6311Z" data-dark-mode-color="true"/><path fill="#000" d="M328.754 103.265C328.754 96.807 330.022 91.0798 332.559 86.083C335.173 81.0861 338.67 77.2423 343.052 74.5517C347.511 71.8611 352.469 70.5158 357.928 70.5158C362.694 70.5158 366.845 71.4767 370.381 73.3986C373.994 75.3205 376.877 77.742 379.03 80.6633V71.5536H395.289V135.437H379.03V126.096C376.954 129.095 374.071 131.593 370.381 133.592C366.768 135.514 362.579 136.475 357.812 136.475C352.431 136.475 347.511 135.091 343.052 132.323C338.67 129.556 335.173 125.674 332.559 120.677C330.022 115.603 328.754 109.799 328.754 103.265ZM379.03 103.495C379.03 99.5745 378.261 96.2305 376.724 93.463C375.186 90.6186 373.11 88.4661 370.497 87.0055C367.883 85.468 365.077 84.6992 362.079 84.6992C359.081 84.6992 356.313 85.4295 353.776 86.8902C351.239 88.3508 349.164 90.5033 347.549 93.3477C346.012 96.1152 345.243 99.4208 345.243 103.265C345.243 107.108 346.012 110.491 347.549 113.412C349.164 116.256 351.239 118.447 353.776 119.985C356.39 121.522 359.158 122.291 362.079 122.291C365.077 122.291 367.883 121.561 370.497 120.1C373.11 118.563 375.186 116.41 376.724 113.643C378.261 110.798 379.03 107.416 379.03 103.495Z" data-dark-mode-color="true"/><path fill="#000" d="M444.151 70.6311C451.761 70.6311 457.911 73.0527 462.601 77.8958C467.29 82.662 469.635 89.3502 469.635 97.9602V135.437H453.491V100.151C453.491 95.0773 452.223 91.1952 449.686 88.5045C447.149 85.737 443.689 84.3533 439.308 84.3533C434.849 84.3533 431.313 85.737 428.699 88.5045C426.162 91.1952 424.894 95.0773 424.894 100.151V135.437H408.75V71.5536H424.894V79.5102C427.046 76.7427 429.775 74.5902 433.081 73.0527C436.463 71.4383 440.153 70.6311 444.151 70.6311Z" data-dark-mode-color="true"/><path fill="#000" d="M507.703 70.5158C512.469 70.5158 516.659 71.4767 520.272 73.3986C523.885 75.2436 526.73 77.6652 528.805 80.6633V71.5536H545.064V135.898C545.064 141.817 543.873 147.083 541.49 151.696C539.107 156.385 535.532 160.075 530.766 162.766C526 165.533 520.234 166.917 513.469 166.917C504.398 166.917 496.941 164.803 491.098 160.575C485.333 156.347 482.065 150.581 481.297 143.278H497.325C498.171 146.199 499.977 148.505 502.745 150.197C505.589 151.965 509.01 152.849 513.008 152.849C517.697 152.849 521.502 151.427 524.424 148.582C527.345 145.815 528.805 141.587 528.805 135.898V125.981C526.73 128.979 523.847 131.478 520.157 133.476C516.544 135.475 512.393 136.475 507.703 136.475C502.322 136.475 497.402 135.091 492.943 132.323C488.484 129.556 484.948 125.674 482.334 120.677C479.798 115.603 478.529 109.799 478.529 103.265C478.529 96.807 479.798 91.0798 482.334 86.083C484.948 81.0861 488.446 77.2423 492.828 74.5517C497.287 71.8611 502.245 70.5158 507.703 70.5158ZM528.805 103.495C528.805 99.5745 528.037 96.2305 526.499 93.463C524.962 90.6186 522.886 88.4661 520.272 87.0055C517.659 85.468 514.853 84.6992 511.854 84.6992C508.856 84.6992 506.089 85.4295 503.552 86.8902C501.015 88.3508 498.939 90.5033 497.325 93.3477C495.788 96.1152 495.019 99.4208 495.019 103.265C495.019 107.108 495.788 110.491 497.325 113.412C498.939 116.256 501.015 118.447 503.552 119.985C506.166 121.522 508.933 122.291 511.854 122.291C514.853 122.291 517.659 121.561 520.272 120.1C522.886 118.563 524.962 116.41 526.499 113.643C528.037 110.798 528.805 107.416 528.805 103.495Z" data-dark-mode-color="true"/><path fill="#000" d="M617.911 102.111C617.911 104.418 617.758 106.493 617.45 108.338H570.749C571.133 112.951 572.747 116.564 575.592 119.178C578.436 121.791 581.934 123.098 586.085 123.098C592.081 123.098 596.348 120.523 598.885 115.372H616.297C614.452 121.522 610.916 126.596 605.688 130.594C600.461 134.514 594.042 136.475 586.431 136.475C580.281 136.475 574.746 135.129 569.826 132.439C564.983 129.671 561.178 125.789 558.41 120.792C555.719 115.795 554.374 110.03 554.374 103.495C554.374 96.8839 555.719 91.0798 558.41 86.083C561.101 81.0861 564.868 77.2423 569.711 74.5517C574.554 71.8611 580.127 70.5158 586.431 70.5158C592.504 70.5158 597.924 71.8227 602.69 74.4364C607.533 77.0502 611.262 80.7786 613.875 85.6217C616.566 90.388 617.911 95.8845 617.911 102.111ZM601.191 97.4989C601.114 93.3477 599.615 90.042 596.694 87.582C593.773 85.0452 590.198 83.7767 585.97 83.7767C581.972 83.7767 578.59 85.0067 575.822 87.4667C573.132 89.8498 571.479 93.1939 570.864 97.4989H601.191Z" data-dark-mode-color="true"/><path fill="#000" d="M643.532 50.1055V135.437H627.389V50.1055H643.532Z" data-dark-mode-color="true"/><path fill="#000" d="M685.543 136.475C679.393 136.475 673.858 135.129 668.938 132.439C664.018 129.671 660.136 125.789 657.292 120.792C654.524 115.795 653.14 110.03 653.14 103.495C653.14 96.9608 654.562 91.1952 657.407 86.1983C660.328 81.2014 664.287 77.3577 669.284 74.667C674.281 71.8995 679.854 70.5158 686.004 70.5158C692.154 70.5158 697.728 71.8995 702.725 74.667C707.721 77.3577 711.642 81.2014 714.487 86.1983C717.408 91.1952 718.868 96.9608 718.868 103.495C718.868 110.03 717.369 115.795 714.371 120.792C711.45 125.789 707.452 129.671 702.379 132.439C697.382 135.129 691.77 136.475 685.543 136.475ZM685.543 122.406C688.464 122.406 691.193 121.715 693.73 120.331C696.344 118.87 698.42 116.718 699.957 113.873C701.495 111.029 702.263 107.57 702.263 103.495C702.263 97.422 700.649 92.7711 697.42 89.5423C694.268 86.2367 690.386 84.5839 685.774 84.5839C681.161 84.5839 677.279 86.2367 674.127 89.5423C671.052 92.7711 669.515 97.422 669.515 103.495C669.515 109.568 671.014 114.258 674.012 117.563C677.087 120.792 680.931 122.406 685.543 122.406Z" data-dark-mode-color="true"/><path fill="#000" d="M753.427 70.5158C758.193 70.5158 762.383 71.4767 765.996 73.3986C769.609 75.2436 772.454 77.6652 774.529 80.6633V71.5536H790.788V135.898C790.788 141.817 789.597 147.083 787.214 151.696C784.83 156.385 781.256 160.075 776.489 162.766C771.723 165.533 765.958 166.917 759.193 166.917C750.121 166.917 742.664 164.803 736.822 160.575C731.056 156.347 727.789 150.581 727.02 143.278H743.049C743.894 146.199 745.701 148.505 748.469 150.197C751.313 151.965 754.734 152.849 758.731 152.849C763.421 152.849 767.226 151.427 770.147 148.582C773.069 145.815 774.529 141.587 774.529 135.898V125.981C772.454 128.979 769.571 131.478 765.881 133.476C762.268 135.475 758.116 136.475 753.427 136.475C748.046 136.475 743.126 135.091 738.667 132.323C734.208 129.556 730.672 125.674 728.058 120.677C725.521 115.603 724.253 109.799 724.253 103.265C724.253 96.807 725.521 91.0798 728.058 86.083C730.672 81.0861 734.17 77.2423 738.552 74.5517C743.01 71.8611 747.969 70.5158 753.427 70.5158ZM774.529 103.495C774.529 99.5745 773.76 96.2305 772.223 93.463C770.685 90.6186 768.61 88.4661 765.996 87.0055C763.382 85.468 760.576 84.6992 757.578 84.6992C754.58 84.6992 751.813 85.4295 749.276 86.8902C746.739 88.3508 744.663 90.5033 743.049 93.3477C741.511 96.1152 740.743 99.4208 740.743 103.265C740.743 107.108 741.511 110.491 743.049 113.412C744.663 116.256 746.739 118.447 749.276 119.985C751.889 121.522 754.657 122.291 757.578 122.291C760.576 122.291 763.382 121.561 765.996 120.1C768.61 118.563 770.685 116.41 772.223 113.643C773.76 110.798 774.529 107.416 774.529 103.495Z" data-dark-mode-color="true"/><path fill="#000" d="M229.622 25.5097C229.622 26.3731 229.564 27.1502 229.449 27.841H211.978C212.122 29.5679 212.726 30.9206 213.79 31.8992C214.854 32.8777 216.163 33.367 217.716 33.367C219.959 33.367 221.555 32.4028 222.504 30.4745H229.018C228.327 32.777 227.005 34.6766 225.049 36.1732C223.094 37.6411 220.692 38.375 217.845 38.375C215.544 38.375 213.474 37.8713 211.633 36.864C209.822 35.8278 208.398 34.3744 207.363 32.5036C206.356 30.6328 205.853 28.4742 205.853 26.0278C205.853 23.5525 206.356 21.3795 207.363 19.5087C208.369 17.638 209.778 16.1989 211.59 15.1915C213.402 14.1842 215.487 13.6805 217.845 13.6805C220.117 13.6805 222.144 14.1698 223.927 15.1484C225.739 16.1269 227.134 17.5228 228.112 19.3361C229.118 21.1205 229.622 23.1784 229.622 25.5097ZM223.367 23.7828C223.338 22.2286 222.777 20.991 221.684 20.07C220.592 19.1202 219.254 18.6453 217.673 18.6453C216.177 18.6453 214.912 19.1058 213.877 20.0268C212.87 20.919 212.252 22.171 212.022 23.7828H223.367Z" data-dark-mode-color="true"/><path fill="#000" d="M256.245 25.5097C256.245 26.3731 256.188 27.1502 256.073 27.841H238.602C238.746 29.5679 239.35 30.9206 240.414 31.8992C241.478 32.8777 242.787 33.367 244.34 33.367C246.583 33.367 248.179 32.4028 249.128 30.4745H255.641C254.951 32.777 253.628 34.6766 251.673 36.1732C249.717 37.6411 247.316 38.375 244.469 38.375C242.168 38.375 240.098 37.8713 238.257 36.864C236.445 35.8278 235.022 34.3744 233.987 32.5036C232.98 30.6328 232.477 28.4742 232.477 26.0278C232.477 23.5525 232.98 21.3795 233.987 19.5087C234.993 17.638 236.402 16.1989 238.214 15.1915C240.026 14.1842 242.111 13.6805 244.469 13.6805C246.741 13.6805 248.768 14.1698 250.551 15.1484C252.363 16.1269 253.758 17.5228 254.736 19.3361C255.742 21.1205 256.245 23.1784 256.245 25.5097ZM249.99 23.7828C249.962 22.2286 249.401 20.991 248.308 20.07C247.215 19.1202 245.878 18.6453 244.296 18.6453C242.801 18.6453 241.536 19.1058 240.5 20.0268C239.494 20.919 238.875 22.171 238.645 23.7828H249.99Z" data-dark-mode-color="true"/><path fill="#000" d="M267.785 18.9874V30.6615C267.785 31.4674 267.997 31.9999 268.371 32.374C268.774 32.7194 269.435 32.8921 270.356 32.8921H273.16V37.9864H269.364C264.273 37.9864 261.838 35.383 261.838 30.4326V18.9874H258.636V13.9515H261.838V8H267.785V13.9515H273.16V18.9874H267.785Z" data-dark-mode-color="true"/><path fill="#000" d="M287.989 38.375C285.689 38.375 283.618 37.8713 281.778 36.864C279.937 35.8278 278.485 34.3744 277.421 32.5036C276.385 30.6328 275.868 28.4742 275.868 26.0278C275.868 23.5813 276.4 21.4227 277.464 19.5519C278.557 17.6811 280.038 16.2421 281.907 15.2347C283.776 14.1986 285.861 13.6805 288.162 13.6805C290.463 13.6805 292.548 14.1986 294.417 15.2347C296.286 16.2421 297.753 17.6811 298.817 19.5519C299.91 21.4227 300.456 23.5813 300.456 26.0278C300.456 28.4742 299.895 30.6328 298.774 32.5036C297.681 34.3744 296.185 35.8278 294.287 36.864C292.418 37.8713 290.319 38.375 287.989 38.375ZM287.989 33.108C289.082 33.108 290.103 32.849 291.052 32.3309C292.03 31.784 292.806 30.9782 293.382 29.9132C293.957 28.8483 294.244 27.5532 294.244 26.0278C294.244 23.754 293.64 22.0127 292.432 20.8039C291.253 19.5663 289.801 18.9475 288.076 18.9475C286.35 18.9475 284.898 19.5663 283.719 20.8039C282.568 22.0127 281.993 23.754 281.993 26.0278C281.993 28.3015 282.554 30.0572 283.676 31.2948C284.826 32.5036 286.264 33.108 287.989 33.108Z" data-dark-mode-color="true"/><path fill="#000" d="M200.752 8H189.159L200.752 25.3903V8Z" data-dark-mode-color="true"/><path fill="#000" d="M172 38.375L172 8H180.372L200.752 38.375H192.136L178.724 18.666V38.375H172Z" data-dark-mode-color="true"/></g></svg>