<svg width="449" height="144" viewBox="0 0 449 144" fill="none" xmlns="http://www.w3.org/2000/svg">
  <g clip-path="url(#clip0_318_35688)" data-logo-icon="neeto-typeface-logo__icon">
  <path d="M46.5095 103.679C46.5095 113.543 38.3523 121.527 28.5097 121.527C18.667 121.527 10.688 113.531 10.688 103.667C10.688 97.8898 13.4254 92.7532 17.6713 89.4887C22.3539 87.0753 24.6103 85.8196 28.6878 85.8196C38.5305 85.8196 46.5095 93.8156 46.5095 103.679Z" fill="#75DC66"/>
  <path fill-rule="evenodd" clip-rule="evenodd" d="M71.8488 15.993C43.8867 15.993 21.219 38.7089 21.219 66.7303C21.219 79.5474 25.9561 91.2457 33.7774 100.178L30.7329 102.855L25.1705 86C21.0978 87.7501 22.5 87 17.6713 89.4887C14.7391 82.4868 13.1182 74.7968 13.1182 66.7303C13.1182 34.2254 39.4128 7.875 71.8488 7.875C85.0656 7.875 97.2734 12.255 107.09 19.6438L102.224 26.1347C93.7629 19.7655 83.2513 15.993 71.8488 15.993Z" fill="#75DC66"/>
  <path d="M132.187 80.1178C132.187 111.05 107.165 136.125 76.2987 136.125C45.4323 136.125 20.5883 111.062 20.5883 80.1298C20.5883 49.1978 45.4323 24.1105 76.2987 24.1105C107.165 24.1105 132.187 49.1858 132.187 80.1178Z" fill="#5BCC5A"/>
  <path d="M21.5 70C21.8596 75.6918 23.1549 81.1272 25.2342 86.1548C26.3516 85.9349 27.5061 85.8196 28.6878 85.8196C38.5305 85.8196 46.5095 93.8156 46.5095 103.679C46.5095 110.612 42.5678 116.622 36.8074 119.582C26.7819 109.459 20.5883 95.5191 20.5883 80.1298C20.5883 76.671 20.9011 73.2855 21.5 70Z" fill="#0DA84C"/>
  </g>
  <g clip-path="url(#clip1_318_35688)" data-logo-text="neeto-typeface-logo__text">
  <path d="M200.343 54.9496C208.799 54.9496 216.217 56.6024 222.598 59.908C229.056 63.2136 234.014 67.9414 237.473 74.0914C241.01 80.1646 242.778 87.2371 242.778 95.3089C242.778 103.381 241.01 110.453 237.473 116.526C234.014 122.523 229.056 127.174 222.598 130.479C216.217 133.785 208.799 135.438 200.343 135.438H172.207V54.9496H200.343ZM199.766 121.716C208.222 121.716 214.757 119.409 219.369 114.797C223.982 110.184 226.288 103.688 226.288 95.3089C226.288 86.9296 223.982 80.3952 219.369 75.7058C214.757 70.9396 208.222 68.5564 199.766 68.5564H188.35V121.716H199.766Z" fill="black" data-dark-mode-color="true"/>
  <path d="M311.942 102.112C311.942 104.419 311.788 106.494 311.481 108.339H264.779C265.163 112.952 266.778 116.565 269.622 119.179C272.467 121.792 275.964 123.099 280.116 123.099C286.112 123.099 290.378 120.524 292.915 115.373H310.327C308.482 121.523 304.946 126.597 299.719 130.595C294.491 134.515 288.072 136.476 280.462 136.476C274.312 136.476 268.777 135.13 263.857 132.44C259.013 129.672 255.208 125.79 252.441 120.793C249.75 115.796 248.405 110.031 248.405 103.496C248.405 96.8849 249.75 91.0808 252.441 86.0839C255.131 81.0871 258.898 77.2433 263.741 74.5527C268.584 71.8621 274.158 70.5168 280.462 70.5168C286.535 70.5168 291.954 71.8236 296.721 74.4374C301.564 77.0511 305.292 80.7796 307.906 85.6227C310.597 90.3889 311.942 95.8855 311.942 102.112ZM295.222 97.4999C295.145 93.3486 293.646 90.043 290.724 87.583C287.803 85.0461 284.228 83.7777 280 83.7777C276.003 83.7777 272.62 85.0077 269.853 87.4677C267.162 89.8508 265.509 93.1949 264.894 97.4999H295.222Z" fill="black" data-dark-mode-color="true"/>
  <path d="M345.865 136.476C340.638 136.476 335.948 135.553 331.797 133.708C327.646 131.786 324.34 129.211 321.88 125.982C319.497 122.753 318.19 119.179 317.96 115.258H334.219C334.526 117.718 335.718 119.755 337.793 121.37C339.946 122.984 342.598 123.791 345.75 123.791C348.825 123.791 351.208 123.176 352.899 121.946C354.668 120.716 355.552 119.14 355.552 117.218C355.552 115.143 354.475 113.605 352.323 112.606C350.247 111.53 346.903 110.376 342.291 109.146C337.524 107.993 333.604 106.802 330.529 105.572C327.531 104.342 324.917 102.458 322.688 99.9214C320.535 97.3846 319.459 93.9636 319.459 89.6586C319.459 86.1224 320.458 82.8936 322.457 79.9724C324.533 77.0511 327.454 74.7449 331.221 73.0536C335.064 71.3624 339.562 70.5168 344.712 70.5168C352.323 70.5168 358.396 72.4386 362.932 76.2824C367.467 80.0493 369.966 85.1614 370.427 91.6189H354.975C354.744 89.0821 353.668 87.0833 351.746 85.6227C349.901 84.0852 347.403 83.3164 344.251 83.3164C341.33 83.3164 339.062 83.8546 337.448 84.9308C335.91 86.0071 335.141 87.5061 335.141 89.428C335.141 91.5805 336.218 93.2333 338.37 94.3864C340.523 95.4627 343.867 96.5774 348.402 97.7305C353.015 98.8836 356.82 100.075 359.818 101.305C362.816 102.535 365.392 104.457 367.544 107.071C369.773 109.608 370.927 112.99 371.003 117.218C371.003 120.908 369.966 124.214 367.89 127.135C365.891 130.056 362.97 132.363 359.126 134.054C355.359 135.668 350.939 136.476 345.865 136.476Z" fill="black" data-dark-mode-color="true"/>
  <path d="M419.772 135.438L398.093 108.224V135.438H381.949V50.1064H398.093V98.653L419.541 71.5546H440.528L412.392 103.611L440.759 135.438H419.772Z" fill="black" data-dark-mode-color="true"/>
  <path d="M228.622 25.5097C228.622 26.3731 228.564 27.1502 228.449 27.841H210.978C211.122 29.5679 211.726 30.9206 212.79 31.8992C213.854 32.8777 215.163 33.367 216.716 33.367C218.959 33.367 220.555 32.4028 221.504 30.4745H228.018C227.327 32.777 226.005 34.6766 224.049 36.1732C222.094 37.6411 219.692 38.375 216.845 38.375C214.544 38.375 212.474 37.8713 210.633 36.864C208.822 35.8278 207.398 34.3744 206.363 32.5036C205.356 30.6328 204.853 28.4742 204.853 26.0278C204.853 23.5525 205.356 21.3795 206.363 19.5087C207.369 17.638 208.778 16.1989 210.59 15.1915C212.402 14.1842 214.487 13.6805 216.845 13.6805C219.117 13.6805 221.144 14.1698 222.927 15.1484C224.739 16.1269 226.134 17.5228 227.112 19.3361C228.118 21.1205 228.622 23.1784 228.622 25.5097ZM222.367 23.7828C222.338 22.2286 221.777 20.991 220.684 20.07C219.592 19.1202 218.254 18.6453 216.673 18.6453C215.177 18.6453 213.912 19.1058 212.877 20.0268C211.87 20.919 211.252 22.171 211.022 23.7828H222.367Z" fill="black" data-dark-mode-color="true"/>
  <path d="M255.245 25.5097C255.245 26.3731 255.188 27.1502 255.073 27.841H237.602C237.746 29.5679 238.35 30.9206 239.414 31.8992C240.478 32.8777 241.787 33.367 243.34 33.367C245.583 33.367 247.179 32.4028 248.128 30.4745H254.641C253.951 32.777 252.628 34.6766 250.673 36.1732C248.717 37.6411 246.316 38.375 243.469 38.375C241.168 38.375 239.098 37.8713 237.257 36.864C235.445 35.8278 234.022 34.3744 232.987 32.5036C231.98 30.6328 231.477 28.4742 231.477 26.0278C231.477 23.5525 231.98 21.3795 232.987 19.5087C233.993 17.638 235.402 16.1989 237.214 15.1915C239.026 14.1842 241.111 13.6805 243.469 13.6805C245.741 13.6805 247.768 14.1698 249.551 15.1484C251.363 16.1269 252.758 17.5228 253.736 19.3361C254.742 21.1205 255.245 23.1784 255.245 25.5097ZM248.99 23.7828C248.962 22.2286 248.401 20.991 247.308 20.07C246.215 19.1202 244.878 18.6453 243.296 18.6453C241.801 18.6453 240.536 19.1058 239.5 20.0268C238.494 20.919 237.875 22.171 237.645 23.7828H248.99Z" fill="black" data-dark-mode-color="true"/>
  <path d="M266.785 18.9874V30.6615C266.785 31.4674 266.997 31.9999 267.371 32.374C267.774 32.7194 268.435 32.8921 269.356 32.8921H272.16V37.9864H268.364C263.273 37.9864 260.838 35.383 260.838 30.4326V18.9874H257.636V13.9515H260.838V8H266.785V13.9515H272.16V18.9874H266.785Z" fill="black" data-dark-mode-color="true"/>
  <path d="M286.989 38.375C284.689 38.375 282.618 37.8713 280.778 36.864C278.937 35.8278 277.485 34.3744 276.421 32.5036C275.385 30.6328 274.868 28.4742 274.868 26.0278C274.868 23.5813 275.4 21.4227 276.464 19.5519C277.557 17.6811 279.038 16.2421 280.907 15.2347C282.776 14.1986 284.861 13.6805 287.162 13.6805C289.463 13.6805 291.548 14.1986 293.417 15.2347C295.286 16.2421 296.753 17.6811 297.817 19.5519C298.91 21.4227 299.456 23.5813 299.456 26.0278C299.456 28.4742 298.895 30.6328 297.774 32.5036C296.681 34.3744 295.185 35.8278 293.287 36.864C291.418 37.8713 289.319 38.375 286.989 38.375ZM286.989 33.108C288.082 33.108 289.103 32.849 290.052 32.3309C291.03 31.784 291.806 30.9782 292.382 29.9132C292.957 28.8483 293.244 27.5532 293.244 26.0278C293.244 23.754 292.64 22.0127 291.432 20.8039C290.253 19.5663 288.801 18.9475 287.076 18.9475C285.35 18.9475 283.898 19.5663 282.719 20.8039C281.568 22.0127 280.993 23.754 280.993 26.0278C280.993 28.3015 281.554 30.0572 282.676 31.2948C283.826 32.5036 285.264 33.108 286.989 33.108Z" fill="black" data-dark-mode-color="true"/>
  <path d="M199.752 8H188.159L199.752 25.3903V8Z" fill="black" data-dark-mode-color="true"/>
  <path d="M171 38.375L171 8H179.372L199.752 38.375H191.136L177.724 18.666V38.375H171Z" fill="black" data-dark-mode-color="true"/>
  </g>
  <defs>
  <clipPath id="clip0_318_35688">
  <rect width="128.25" height="128.25" fill="white" transform="translate(7.3125 7.875)"/>
  </clipPath>
  <clipPath id="clip1_318_35688">
  <rect width="277.312" height="144" fill="white" transform="translate(163.125)"/>
  </clipPath>
  </defs>
</svg>
