<svg width="465" height="74" viewBox="0 0 465 74" fill="none" xmlns="http://www.w3.org/2000/svg">
<path d="M48 32.9956C48 19.7408 37.2548 8.99561 24 8.99561H0V56.9956H48V32.9956Z" fill="url(#paint0_linear_3688_21527)"/>
<g filter="url(#filter0_d_3688_21527)">
<path d="M38.259 46.3683L34.4789 42.6333C34.098 43.2453 33.6447 43.8191 33.1208 44.3412C32.5926 44.8699 32.013 45.328 31.394 45.7116L35.1961 49.4681C36.0483 50.3111 37.4191 50.3036 38.2665 49.4575C38.27 49.454 38.2731 49.451 38.2761 49.4483C39.1266 48.5974 39.1152 47.2144 38.259 46.3683Z" fill="white"/>
<path fill-rule="evenodd" clip-rule="evenodd" d="M22.8545 44.5307C28.636 44.5307 33.2914 39.876 33.2914 34.1729C33.2914 28.4698 28.636 23.815 22.8545 23.815C17.0729 23.815 12.4176 28.4698 12.4176 34.1729C12.4176 39.876 17.0729 44.5307 22.8545 44.5307ZM22.8545 47.6934C30.3653 47.6934 36.4541 41.6401 36.4541 34.1729C36.4541 26.7057 30.3653 20.6523 22.8545 20.6523C15.3436 20.6523 9.25488 26.7057 9.25488 34.1729C9.25488 41.6401 15.3436 47.6934 22.8545 47.6934Z" fill="white"/>
<path d="M27.2581 29.4801L25.8586 30.8684L28.4501 34.0941L25.8586 37.3236L27.2581 38.7119L30.9209 34.0941L27.2581 29.4801ZM20.1697 30.8645L18.7702 29.4772L15.1074 34.0941L18.7702 38.708L20.1697 37.3197L17.5783 34.0941L20.1697 30.8645ZM21.0375 38.9963H23.0142L24.9909 29.1919H23.0142L21.0375 38.9963Z" fill="white"/>
</g>
<path fill-rule="evenodd" clip-rule="evenodd" d="M90.0873 21.7535H73.2401L81.5759 29.9515H90.0873C95.4515 29.9515 99.7952 34.2022 99.7952 39.44V57.1265H108.175V39.44C108.175 29.6693 100.074 21.7535 90.0873 21.7535ZM80.3794 31.1452L72 22.9042V57.1265H80.3794V31.1452ZM144.982 51.3434L139.664 45.839L139.346 46.1398C137.501 47.8818 134.408 49.5645 130.135 49.5645C127.13 49.5645 124.814 48.816 123.14 47.5207C121.593 46.3241 120.559 44.6343 120.047 42.5521H146.946L146.966 42.14C147.249 36.2682 145.75 31.1708 142.686 27.5334C139.615 23.8884 135.007 21.7535 129.173 21.7535C118.87 21.7535 110.825 29.3431 110.825 39.4417C110.825 44.515 112.728 48.9446 116.12 52.1043C119.511 55.263 124.362 57.1265 130.216 57.1265C137.052 57.1265 141.48 54.7938 144.679 51.6416L144.982 51.3434ZM183.807 51.3434L178.49 45.839L178.171 46.1398C176.326 47.8818 173.233 49.5645 168.96 49.5645C165.955 49.5645 163.639 48.816 161.965 47.5207C160.418 46.3241 159.385 44.6343 158.872 42.5521H185.771L185.791 42.14C186.074 36.2682 184.575 31.1708 181.511 27.5334C178.44 23.8884 173.832 21.7535 167.999 21.7535C157.695 21.7535 149.65 29.3431 149.65 39.4417C149.65 44.515 151.553 48.9446 154.945 52.1043C158.336 55.263 163.187 57.1265 169.041 57.1265C175.877 57.1265 180.305 54.7938 183.504 51.6416L183.807 51.3434ZM194.393 22.0509H188.475V29.6055H194.393V42.7973C194.393 48.1238 195.189 51.7549 197.443 54.0322C199.701 56.313 203.311 57.1265 208.622 57.1265H210.175V49.3803H209.735C208.138 49.3803 206.91 49.3203 205.961 49.1432C205.015 48.9668 204.387 48.6813 203.95 48.2607C203.514 47.8412 203.22 47.2407 203.038 46.3382C202.856 45.4306 202.794 44.2569 202.794 42.7283V29.6055H210.175V22.0509H202.794V13.1265H194.393V22.0509ZM129.255 29.2391C131.961 29.2391 133.946 30.036 135.34 31.3358C136.632 32.5401 137.453 34.2096 137.846 36.1717H120.043C120.557 34.0224 121.603 32.3444 123.065 31.1803C124.642 29.9242 126.738 29.2391 129.255 29.2391ZM168.081 29.2391C170.786 29.2391 172.771 30.036 174.165 31.3358C175.457 32.5401 176.278 34.2096 176.672 36.1717H158.868C159.382 34.0224 160.428 32.3444 161.89 31.1803C163.467 29.9242 165.563 29.2391 168.081 29.2391ZM230.879 29.2548C236.469 29.2548 240.913 33.8244 240.913 39.4405C240.913 45.0554 236.469 49.6251 230.879 49.6251C225.291 49.6251 220.913 45.0592 220.913 39.4405C220.913 33.8207 225.291 29.2548 230.879 29.2548ZM230.879 21.7535C220.846 21.7535 212.825 29.5092 212.825 39.4405C212.825 49.3037 220.845 57.1265 230.879 57.1265C240.91 57.1265 249 49.3058 249 39.4405C249 29.507 240.909 21.7535 230.879 21.7535Z" fill="#11243E"/>
<path d="M285.091 13.3849V20.4663H273.435V57.1263H264.662V20.4663H253.006V13.3849H285.091Z" fill="#11243E"/>
<path d="M323.099 39.0156C323.099 40.2689 323.016 41.3969 322.848 42.3996H297.468C297.677 44.9063 298.555 46.8698 300.1 48.2903C301.646 49.7107 303.547 50.4209 305.803 50.4209C309.062 50.4209 311.38 49.0214 312.759 46.2223H322.222C321.219 49.5645 319.297 52.3218 316.456 54.4943C313.616 56.6249 310.127 57.6903 305.991 57.6903C302.649 57.6903 299.641 56.9592 296.967 55.4969C294.335 53.9929 292.267 51.8832 290.763 49.1676C289.301 46.4521 288.57 43.3187 288.57 39.7676C288.57 36.1747 289.301 33.0205 290.763 30.3049C292.225 27.5894 294.272 25.5005 296.904 24.0383C299.536 22.5761 302.565 21.8449 305.991 21.8449C309.292 21.8449 312.237 22.5552 314.827 23.9756C317.459 25.3961 319.485 27.4223 320.906 30.0543C322.368 32.6445 323.099 35.6316 323.099 39.0156ZM314.012 36.5089C313.971 34.2529 313.156 32.4565 311.568 31.1196C309.981 29.7409 308.038 29.0516 305.74 29.0516C303.568 29.0516 301.73 29.7201 300.226 31.0569C298.764 32.3521 297.865 34.1694 297.531 36.5089H314.012Z" fill="#11243E"/>
<path d="M342.122 57.6903C339.281 57.6903 336.732 57.1889 334.476 56.1863C332.22 55.1418 330.424 53.7423 329.087 51.9876C327.792 50.2329 327.082 48.2903 326.956 46.1596H335.792C335.959 47.4965 336.607 48.6036 337.735 49.4809C338.905 50.3583 340.346 50.7969 342.059 50.7969C343.73 50.7969 345.025 50.4627 345.944 49.7943C346.905 49.1258 347.386 48.2694 347.386 47.2249C347.386 46.0969 346.801 45.2614 345.631 44.7183C344.503 44.1334 342.686 43.5067 340.179 42.8383C337.589 42.2116 335.458 41.5641 333.787 40.8956C332.158 40.2272 330.737 39.2036 329.526 37.8249C328.356 36.4463 327.771 34.5872 327.771 32.2476C327.771 30.3258 328.314 28.5712 329.4 26.9836C330.528 25.396 332.116 24.1427 334.163 23.2236C336.252 22.3045 338.696 21.8449 341.495 21.8449C345.631 21.8449 348.931 22.8894 351.396 24.9783C353.861 27.0254 355.219 29.8036 355.47 33.3129H347.072C346.947 31.9343 346.362 30.8481 345.318 30.0543C344.315 29.2187 342.957 28.8009 341.244 28.8009C339.657 28.8009 338.424 29.0934 337.547 29.6783C336.711 30.2632 336.294 31.0778 336.294 32.1223C336.294 33.2921 336.878 34.1903 338.048 34.8169C339.218 35.4018 341.035 36.0076 343.5 36.6343C346.007 37.2609 348.075 37.9085 349.704 38.5769C351.334 39.2454 352.733 40.2898 353.903 41.7103C355.114 43.0889 355.741 44.9272 355.783 47.2249C355.783 49.2303 355.219 51.0267 354.091 52.6143C353.005 54.2018 351.417 55.4552 349.328 56.3743C347.281 57.2516 344.879 57.6903 342.122 57.6903Z" fill="#11243E"/>
<path d="M372.533 29.6156V46.4103C372.533 47.5801 372.804 48.4365 373.347 48.9796C373.932 49.4809 374.893 49.7316 376.23 49.7316H380.303V57.1263H374.789C367.394 57.1263 363.697 53.5334 363.697 46.3476V29.6156H359.561V22.4089H363.697V13.8236H372.533V22.4089H380.303V29.6156H372.533Z" fill="#11243E"/>
<path d="M390.396 18.2729C388.85 18.2729 387.555 17.7925 386.511 16.8316C385.508 15.8289 385.007 14.5965 385.007 13.1343C385.007 11.6721 385.508 10.4605 386.511 9.4996C387.555 8.49694 388.85 7.99561 390.396 7.99561C391.942 7.99561 393.216 8.49694 394.219 9.4996C395.263 10.4605 395.786 11.6721 395.786 13.1343C395.786 14.5965 395.263 15.8289 394.219 16.8316C393.216 17.7925 391.942 18.2729 390.396 18.2729ZM394.72 22.4089V57.1263H385.947V22.4089H394.72Z" fill="#11243E"/>
<path d="M418.639 29.6156H412.56V57.1263H403.662V29.6156H399.714V22.4089H403.662V20.6543C403.662 16.3929 404.873 13.2596 407.296 11.2543C409.719 9.24894 413.375 8.30894 418.263 8.43427V15.8289C416.132 15.7872 414.649 16.1423 413.814 16.8943C412.978 17.6463 412.56 19.0041 412.56 20.9676V22.4089H418.639V29.6156Z" fill="#11243E"/>
<path d="M456.871 22.4089L435.377 73.5449H426.039L433.559 56.2489L419.647 22.4089H429.486L438.447 46.6609L447.534 22.4089H456.871Z" fill="#11243E"/>
<defs>
<filter id="filter0_d_3688_21527" x="9.25488" y="20.6523" width="35.6528" height="36.4438" filterUnits="userSpaceOnUse" color-interpolation-filters="sRGB">
<feFlood flood-opacity="0" result="BackgroundImageFix"/>
<feColorMatrix in="SourceAlpha" type="matrix" values="0 0 0 0 0 0 0 0 0 0 0 0 0 0 0 0 0 0 127 0" result="hardAlpha"/>
<feOffset dx="3" dy="4"/>
<feGaussianBlur stdDeviation="1.5"/>
<feComposite in2="hardAlpha" operator="out"/>
<feColorMatrix type="matrix" values="0 0 0 0 0 0 0 0 0 0 0 0 0 0 0 0 0 0 0.05 0"/>
<feBlend mode="normal" in2="BackgroundImageFix" result="effect1_dropShadow_3688_21527"/>
<feBlend mode="normal" in="SourceGraphic" in2="effect1_dropShadow_3688_21527" result="shape"/>
</filter>
<linearGradient id="paint0_linear_3688_21527" x1="48" y1="66.767" x2="-14.9143" y2="-11.4044" gradientUnits="userSpaceOnUse">
<stop stop-color="#FF9E45"/>
<stop offset="1" stop-color="#FFF27A"/>
</linearGradient>
</defs>
</svg>
