<svg width="800" height="800" viewBox="0 0 800 800" fill="none" xmlns="http://www.w3.org/2000/svg">
  <rect width="800" height="800" rx="160" fill="black"/>
  <path d="M572.797 413.294V542.485C572.797 559.227 559.225 572.8 542.482 572.8H257.515C240.772 572.8 227.2 559.227 227.2 542.485L227.2 413.294H572.797Z" fill="#5BCC5A"/>
  <path d="M386.706 227.2L386.706 386.707L227.2 386.707L227.2 257.516C227.2 240.773 240.773 227.2 257.515 227.2L386.706 227.2Z" fill="#5BCC5A"/>
  <path d="M542.482 227.2C559.225 227.2 572.797 240.773 572.797 257.516V542.485C572.797 559.227 559.225 572.8 542.482 572.8L413.291 572.798V227.2L542.482 227.2Z" fill="#75DC66"/>
  <path d="M413.291 572.798L413.291 413.291L572.797 413.294V542.485C572.797 559.125 559.39 572.633 542.788 572.798L413.291 572.798Z" fill="#0DA84C"/>
</svg>
