<svg xmlns="http://www.w3.org/2000/svg" width="40" height="40" fill="none" viewBox="0 0 40 40"><path fill="url(#paint0_linear_3502_441)" d="M0 10.7731C0 4.82328 4.82328 0 10.7731 0H29.2269C35.1767 0 40 4.82328 40 10.7731V29.2269C40 35.1767 35.1767 40 29.2269 40H10.7731C4.82328 40 0 35.1767 0 29.2269V10.7731Z"/><mask id="mask0_3502_441" style="maskType:alpha" width="40" height="40" x="0" y="0" maskUnits="userSpaceOnUse"><rect width="40" height="40" fill="url(#paint1_linear_3502_441)" rx="10.773"/></mask><g mask="url(#mask0_3502_441)"><path fill="url(#paint2_linear_3502_441)" d="M37.4194 22.3657C37.4194 12.1514 29.1391 3.87109 18.9248 3.87109H0.430176V40.8603H37.4194V22.3657Z"/></g><g filter="url(#filter0_d_3502_441)"><path fill="#fff" fill-rule="evenodd" d="M28.3113 20.7727C27.0047 19.4662 24.8864 19.4662 23.5799 20.7727C22.2734 22.0792 22.2734 24.1975 23.5799 25.5041C24.8612 26.7854 26.9233 26.8101 28.2348 25.5782C28.2494 25.5609 28.2649 25.544 28.2813 25.5276C28.3012 25.5077 28.3218 25.4891 28.3432 25.4717C29.6177 24.1628 29.6071 22.0685 28.3113 20.7727ZM29.9561 26.06C31.3734 24.1195 31.2059 21.3826 29.4536 19.6303C27.5162 17.6929 24.375 17.6929 22.4375 19.6303C20.5001 21.5678 20.5001 24.709 22.4375 26.6464C24.1711 28.38 26.8685 28.5624 28.8049 27.1936L31.3697 29.7584C31.6852 30.0738 32.1966 30.0738 32.5121 29.7584C32.8275 29.4429 32.8275 28.9315 32.5121 28.616L29.9561 26.06Z" clip-rule="evenodd"/><path fill="#fff" fill-rule="evenodd" d="M14.1767 25.2989L17.8406 28.9628L21.0497 25.7537C19.8549 23.6509 20.154 20.9296 21.9471 19.1366C23.479 17.6046 25.6885 17.1632 27.611 17.8122V14.3072C27.611 13.3355 27.225 12.4036 26.5379 11.7164C25.8507 11.0293 24.9188 10.6433 23.9471 10.6433H11.7341C10.7623 10.6433 9.83042 11.0293 9.14331 11.7164C8.45619 12.4036 8.07018 13.3355 8.07018 14.3072V21.635C8.07018 22.6067 8.45619 23.5387 9.14331 24.2258C9.83042 24.9129 10.7623 25.2989 11.7341 25.2989H14.1767ZM12.0481 15.4288C12.0481 14.9828 12.4097 14.6213 12.8557 14.6213H21.2303C21.6763 14.6213 22.0378 14.9828 22.0378 15.4288C22.0378 15.8748 21.6763 16.2364 21.2303 16.2364H12.8557C12.4097 16.2364 12.0481 15.8748 12.0481 15.4288ZM12.8557 17.6122C12.4097 17.6122 12.0481 17.9738 12.0481 18.4198C12.0481 18.8658 12.4097 19.2273 12.8557 19.2273H16.4448C16.8908 19.2273 17.2523 18.8658 17.2523 18.4198C17.2523 17.9738 16.8908 17.6122 16.4448 17.6122H12.8557Z" clip-rule="evenodd"/></g><defs><filter id="filter0_d_3502_441" width="25.38" height="20.17" x="8.07" y="10.643" color-interpolation-filters="sRGB" filterUnits="userSpaceOnUse"><feFlood flood-opacity="0" result="BackgroundImageFix"/><feColorMatrix in="SourceAlpha" result="hardAlpha" type="matrix" values="0 0 0 0 0 0 0 0 0 0 0 0 0 0 0 0 0 0 127 0"/><feOffset dx=".351" dy=".468"/><feGaussianBlur stdDeviation=".175"/><feComposite in2="hardAlpha" operator="out"/><feColorMatrix type="matrix" values="0 0 0 0 0 0 0 0 0 0 0 0 0 0 0 0 0 0 0.05 0"/><feBlend in2="BackgroundImageFix" mode="normal" result="effect1_dropShadow_3502_441"/><feBlend in="SourceGraphic" in2="effect1_dropShadow_3502_441" mode="normal" result="shape"/></filter><linearGradient id="paint0_linear_3502_441" x1="-15.876" x2="54.282" y1="-21.829" y2="58.309" gradientUnits="userSpaceOnUse"><stop stop-color="#54CCAF"/><stop offset="1" stop-color="#59CBEF"/></linearGradient><linearGradient id="paint1_linear_3502_441" x1="-2.802" x2="37.239" y1="-2.276" y2="61.111" gradientUnits="userSpaceOnUse"><stop offset="1" stop-color="#FFD55C"/></linearGradient><linearGradient id="paint2_linear_3502_441" x1="32.249" x2=".43" y1="9.638" y2="40.86" gradientUnits="userSpaceOnUse"><stop stop-color="#fff" stop-opacity=".16"/><stop offset=".531" stop-color="#fff" stop-opacity="0"/></linearGradient></defs></svg>