<svg xmlns="http://www.w3.org/2000/svg" width="800" height="800" fill="none" viewBox="0 0 800 800"><rect width="800" height="800" fill="#000" rx="160"/><g clip-path="url(#clip0_511_16500)"><path fill="#5BCC5A" d="M226.844 317.023C226.844 299.418 241.115 285.147 258.72 285.147H542.423C560.028 285.147 574.3 299.418 574.3 317.023V345.713H226.844V317.023Z"/><path fill="#5BCC5A" d="M226.844 350.494H574.3V525.816C574.3 543.421 560.028 557.693 542.423 557.693H258.72C241.115 557.693 226.844 543.421 226.844 525.816V350.494Z"/><path fill="#0DA84C" d="M454.762 259.645C454.762 250.843 461.898 243.707 470.701 243.707H502.577C511.38 243.707 518.516 250.843 518.516 259.645V453.695L486.639 490.752L454.762 453.695V259.645Z"/><path fill="#75DC66" d="M454.762 259.645C454.762 250.843 461.898 243.707 470.701 243.707H502.577C511.38 243.707 518.516 250.843 518.516 259.645V350.494H454.762V259.645Z"/></g><defs><clipPath id="clip0_511_16500"><rect width="348.3" height="348.3" fill="#fff" transform="translate(226 226)"/></clipPath></defs></svg>