<svg width="40" height="40" viewBox="0 0 40 40" fill="none" xmlns="http://www.w3.org/2000/svg">
<path d="M0 10.7731C0 4.82328 4.82328 0 10.7731 0H29.2269C35.1767 0 40 4.82328 40 10.7731V29.2269C40 35.1767 35.1767 40 29.2269 40H10.7731C4.82328 40 0 35.1767 0 29.2269V10.7731Z" fill="url(#paint0_linear_3502_435)"/>
<mask id="mask0_3502_435" style="maskType:alpha" maskUnits="userSpaceOnUse" x="0" y="0" width="40" height="40">
<rect width="40" height="40" rx="10.7731" fill="url(#paint1_linear_3502_435)"/>
</mask>
<g mask="url(#mask0_3502_435)">
<path d="M37.4194 22.3657C37.4194 12.1514 29.1391 3.87109 18.9248 3.87109H0.430176V40.8603H37.4194V22.3657Z" fill="url(#paint2_linear_3502_435)"/>
</g>
<g filter="url(#filter0_d_3502_435)">
<path fill-rule="evenodd" clip-rule="evenodd" d="M19.1452 9.70779L17.7336 11.1194L11.1552 17.6978L8.88889 19.9641L11.1552 22.2305L17.7336 28.8089L19.1452 30.2205V25.6878L13.4216 19.9641L19.1452 14.2405V9.70779ZM20.8546 25.6879L26.5784 19.9641L20.8546 14.2403V9.70764L22.2663 11.1194L28.8448 17.6978L31.1111 19.9641L28.8448 22.2305L22.2663 28.8089L20.8546 30.2206V25.6879Z" fill="white"/>
</g>
<defs>
<filter id="filter0_d_3502_435" x="8.88889" y="9.70764" width="22.924" height="21.3317" filterUnits="userSpaceOnUse" color-interpolation-filters="sRGB">
<feFlood flood-opacity="0" result="BackgroundImageFix"/>
<feColorMatrix in="SourceAlpha" type="matrix" values="0 0 0 0 0 0 0 0 0 0 0 0 0 0 0 0 0 0 127 0" result="hardAlpha"/>
<feOffset dx="0.350877" dy="0.467836"/>
<feGaussianBlur stdDeviation="0.175439"/>
<feComposite in2="hardAlpha" operator="out"/>
<feColorMatrix type="matrix" values="0 0 0 0 0 0 0 0 0 0 0 0 0 0 0 0 0 0 0.05 0"/>
<feBlend mode="normal" in2="BackgroundImageFix" result="effect1_dropShadow_3502_435"/>
<feBlend mode="normal" in="SourceGraphic" in2="effect1_dropShadow_3502_435" result="shape"/>
</filter>
<linearGradient id="paint0_linear_3502_435" x1="-2.82529" y1="-3.81944" x2="44.0936" y2="45.2632" gradientUnits="userSpaceOnUse">
<stop offset="0.159672" stop-color="#79B3F7"/>
<stop offset="1" stop-color="#4B47FF"/>
</linearGradient>
<linearGradient id="paint1_linear_3502_435" x1="-2.80164" y1="-2.27633" x2="37.2385" y2="61.1108" gradientUnits="userSpaceOnUse">
<stop offset="1" stop-color="#FFD55C"/>
</linearGradient>
<linearGradient id="paint2_linear_3502_435" x1="32.2489" y1="9.63823" x2="0.430175" y2="40.8603" gradientUnits="userSpaceOnUse">
<stop stop-color="white" stop-opacity="0.16"/>
<stop offset="0.53125" stop-color="white" stop-opacity="0"/>
</linearGradient>
</defs>
</svg>
