<svg width="800" height="800" viewBox="0 0 800 800" fill="none" xmlns="http://www.w3.org/2000/svg">
  <rect width="800" height="800" rx="160" fill="black"/>
  <g clip-path="url(#clip0_511_16521)">
  <path d="M331.397 485.786C331.397 512.599 309.222 534.303 282.465 534.303C255.709 534.303 234.019 512.567 234.019 485.753C234.019 470.048 241.46 456.085 253.002 447.211C265.732 440.65 271.865 437.236 282.95 437.236C309.706 437.236 331.397 458.973 331.397 485.786Z" fill="#75DC66"/>
  <path fill-rule="evenodd" clip-rule="evenodd" d="M400.279 247.418C324.267 247.418 262.646 309.17 262.646 385.344C262.646 420.186 275.524 451.987 296.785 476.269L288.509 483.547L273.388 437.727C262.317 442.484 266.129 440.445 253.002 447.211C245.031 428.176 240.625 407.272 240.625 385.344C240.625 296.982 312.105 225.35 400.279 225.35C436.208 225.35 469.394 237.257 496.079 257.343L482.853 274.988C459.851 257.673 431.276 247.418 400.279 247.418Z" fill="#75DC66"/>
  <path d="M564.305 421.736C564.305 505.822 496.284 573.988 412.376 573.988C328.468 573.988 260.932 505.855 260.932 421.769C260.932 337.683 328.468 269.485 412.376 269.485C496.284 269.485 564.305 337.65 564.305 421.736Z" fill="#5BCC5A"/>
  <path d="M263.41 394.232C264.388 409.705 267.909 424.48 273.561 438.148C276.599 437.55 279.737 437.236 282.95 437.236C309.706 437.236 331.397 458.973 331.397 485.786C331.397 504.633 320.681 520.971 305.022 529.016C277.769 501.497 260.932 463.604 260.932 421.769C260.932 412.367 261.782 403.163 263.41 394.232Z" fill="#0DA84C"/>
  </g>
  <defs>
  <clipPath id="clip0_511_16521">
  <rect width="348.3" height="348.3" fill="white" transform="translate(225.35 225.35)"/>
  </clipPath>
  </defs>
</svg>
