<svg xmlns="http://www.w3.org/2000/svg" width="40" height="40" fill="none" viewBox="0 0 40 40"><path fill="url(#paint0_linear_3502_436)" d="M0 10.7731C0 4.82328 4.82328 0 10.7731 0H29.2269C35.1767 0 40 4.82328 40 10.7731V29.2269C40 35.1767 35.1767 40 29.2269 40H10.7731C4.82328 40 0 35.1767 0 29.2269V10.7731Z"/><mask id="mask0_3502_436" style="maskType:alpha" width="40" height="40" x="0" y="0" maskUnits="userSpaceOnUse"><rect width="40" height="40" fill="url(#paint1_linear_3502_436)" rx="10.773"/></mask><g mask="url(#mask0_3502_436)"><path fill="url(#paint2_linear_3502_436)" d="M37.4194 22.3656C37.4194 12.1513 29.1391 3.87097 18.9248 3.87097H0.430176V40.8602H37.4194V22.3656Z"/></g><g filter="url(#filter0_d_3502_436)"><rect width="2.027" height="13.138" x="24.522" y="13.333" fill="#fff" rx="1.014"/><path fill="#fff" fill-rule="evenodd" d="M27.6024 21.7469C27.7461 21.8021 27.9022 21.8323 28.0653 21.8323C28.7785 21.8323 29.3567 21.2541 29.3567 20.5409V19.6539C29.3567 18.9407 28.7785 18.3625 28.0653 18.3625C27.9022 18.3625 27.7461 18.3928 27.6024 18.448V21.7469Z" clip-rule="evenodd"/><path fill="#fff" d="M13.6121 21.7973C13.5828 21.555 13.6241 21.3093 13.7309 21.0898V21.0898C14.3201 19.8796 16.1404 20.2991 16.1404 21.6452V27.2562C16.1404 27.7704 15.7235 28.1872 15.2094 28.1872V28.1872C14.7384 28.1872 14.3416 27.8354 14.2851 27.3679L13.6121 21.7973Z"/><path fill="#fff" fill-rule="evenodd" d="M11.2612 17.1983C10.901 17.2747 10.6433 17.5927 10.6433 17.961V22.1425C10.6433 22.5167 10.9091 22.8382 11.2767 22.9084L16.1404 23.8374V16.1635L11.2612 17.1983ZM17.193 15.9403V24.0385L24.5223 25.4384V14.3859L17.193 15.9403Z" clip-rule="evenodd"/></g><defs><filter id="filter0_d_3502_436" width="19.415" height="15.672" x="10.643" y="13.333" color-interpolation-filters="sRGB" filterUnits="userSpaceOnUse"><feFlood flood-opacity="0" result="BackgroundImageFix"/><feColorMatrix in="SourceAlpha" result="hardAlpha" type="matrix" values="0 0 0 0 0 0 0 0 0 0 0 0 0 0 0 0 0 0 127 0"/><feOffset dx=".351" dy=".468"/><feGaussianBlur stdDeviation=".175"/><feComposite in2="hardAlpha" operator="out"/><feColorMatrix type="matrix" values="0 0 0 0 0 0 0 0 0 0 0 0 0 0 0 0 0 0 0.05 0"/><feBlend in2="BackgroundImageFix" mode="normal" result="effect1_dropShadow_3502_436"/><feBlend in="SourceGraphic" in2="effect1_dropShadow_3502_436" mode="normal" result="shape"/></filter><linearGradient id="paint0_linear_3502_436" x1="-2.825" x2="44.094" y1="-3.819" y2="45.263" gradientUnits="userSpaceOnUse"><stop offset=".16" stop-color="#FF8787"/><stop offset=".79" stop-color="#FFA768"/></linearGradient><linearGradient id="paint1_linear_3502_436" x1="-2.802" x2="37.239" y1="-2.276" y2="61.111" gradientUnits="userSpaceOnUse"><stop offset="1" stop-color="#FFD55C"/></linearGradient><linearGradient id="paint2_linear_3502_436" x1="32.249" x2=".43" y1="9.638" y2="40.86" gradientUnits="userSpaceOnUse"><stop stop-color="#fff" stop-opacity=".16"/><stop offset=".531" stop-color="#fff" stop-opacity="0"/></linearGradient></defs></svg>