<svg width="458" height="458" viewBox="0 0 458 458" fill="none" xmlns="http://www.w3.org/2000/svg">
  <rect width="458" height="458" rx="110" fill="black"/>
  <path d="M220.19 278.975C211.88 270.665 211.88 257.192 220.19 248.882C228.5 240.572 241.973 240.572 250.283 248.882L318.767 317.366C327.078 325.676 327.078 339.149 318.767 347.459C310.457 355.769 296.984 355.769 288.674 347.459L220.19 278.975Z" fill="#5BCC5A"/>
  <path d="M310.732 229.573C310.732 232.127 308.661 234.197 306.108 234.197H261.626L261.626 108.808C261.626 106.254 263.696 104.184 266.25 104.184L306.108 104.184C308.661 104.184 310.732 106.254 310.732 108.808L310.732 229.573Z" fill="#75DC66"/>
  <path d="M261.623 234.197H217.141C214.587 234.197 212.517 232.127 212.517 229.573L212.517 145.754C212.517 143.2 214.587 141.13 217.141 141.13L261.623 141.13L261.623 234.197Z" fill="#75DC66"/>
  <path d="M292.493 234.198C292.493 278.365 256.688 314.17 212.52 314.17C168.353 314.17 132.548 278.365 132.548 234.198C132.548 190.03 168.353 154.225 212.52 154.225C256.688 154.225 292.493 190.03 292.493 234.198Z" fill="#5BCC5A"/>
  <path d="M212.519 154.214C212.519 154.214 212.519 154.214 212.519 154.214C231.03 154.214 248.072 160.503 261.625 171.061C280.409 185.694 292.491 208.528 292.492 234.184H217.196C214.613 234.184 212.519 232.09 212.519 229.507L212.519 154.214Z" fill="#0DA84C"/>
</svg>
