<svg width="40" height="40" viewBox="0 0 40 40" fill="none" xmlns="http://www.w3.org/2000/svg">
<path d="M0 10.7731C0 4.82328 4.82328 0 10.7731 0H29.2269C35.1767 0 40 4.82328 40 10.7731V29.2269C40 35.1767 35.1767 40 29.2269 40H10.7731C4.82328 40 0 35.1767 0 29.2269V10.7731Z" fill="url(#paint0_linear_3502_442)"/>
<mask id="mask0_3502_442" style="maskType:alpha" maskUnits="userSpaceOnUse" x="0" y="0" width="40" height="40">
<rect width="40" height="40" rx="10.7731" fill="url(#paint1_linear_3502_442)"/>
</mask>
<g mask="url(#mask0_3502_442)">
<path d="M37.4194 22.3657C37.4194 12.1514 29.1391 3.87109 18.9248 3.87109H0.430176V40.8603H37.4194V22.3657Z" fill="url(#paint2_linear_3502_442)"/>
</g>
<g filter="url(#filter0_d_3502_442)">
<path fill-rule="evenodd" clip-rule="evenodd" d="M23.3031 11.0521C21.5898 10.3425 19.7045 10.1568 17.8856 10.5186C16.0668 10.8804 14.396 11.7734 13.0847 13.0847C11.7734 14.396 10.8804 16.0668 10.5186 17.8856C10.1568 19.7045 10.3425 21.5898 11.0521 23.3031C11.7618 25.0165 12.9636 26.4809 14.5056 27.5112C16.0476 28.5415 17.8604 29.0914 19.7149 29.0914C20.0506 29.0914 20.3227 29.3635 20.3227 29.6992C20.3227 30.0349 20.0506 30.307 19.7149 30.307C17.62 30.307 15.5721 29.6858 13.8302 28.5219C12.0884 27.358 10.7308 25.7038 9.92908 23.7683C9.12739 21.8329 8.91763 19.7031 9.32633 17.6485C9.73503 15.5938 10.7438 13.7065 12.2252 12.2252C13.7065 10.7438 15.5938 9.73503 17.6485 9.32633C19.7031 8.91763 21.8329 9.12739 23.7683 9.92908C25.7038 10.7308 27.358 12.0884 28.5219 13.8302C29.6858 15.5721 30.307 17.62 30.307 19.7149C30.307 20.0506 30.0349 20.3227 29.6992 20.3227C29.3635 20.3227 29.0914 20.0506 29.0914 19.7149C29.0914 17.8604 28.5415 16.0476 27.5112 14.5056C26.4809 12.9636 25.0165 11.7618 23.3031 11.0521Z" fill="white"/>
<path fill-rule="evenodd" clip-rule="evenodd" d="M9.69156 16.3868C9.69156 16.0512 9.96368 15.7791 10.2994 15.7791H29.0121C29.3478 15.7791 29.6199 16.0512 29.6199 16.3868C29.6199 16.7225 29.3478 16.9946 29.0121 16.9946H10.2994C9.96368 16.9946 9.69156 16.7225 9.69156 16.3868Z" fill="white"/>
<path fill-rule="evenodd" clip-rule="evenodd" d="M9.69275 23.043C9.69275 22.7073 9.96487 22.4352 10.3005 22.4352H19.7146C20.0503 22.4352 20.3224 22.7073 20.3224 23.043C20.3224 23.3787 20.0503 23.6508 19.7146 23.6508H10.3005C9.96487 23.6508 9.69275 23.3787 9.69275 23.043Z" fill="white"/>
<path fill-rule="evenodd" clip-rule="evenodd" d="M18.2375 9.52013C18.6869 9.26025 19.1969 9.12341 19.716 9.12341C20.2351 9.12341 20.7451 9.26025 21.1944 9.52013C21.6426 9.7793 22.0147 10.1517 22.2735 10.6C23.9099 13.3589 24.7694 16.5092 24.7607 19.7169C24.7598 20.0525 24.4869 20.3239 24.1512 20.323C23.8156 20.3221 23.5442 20.0493 23.5451 19.7136C23.5532 16.724 22.7519 13.788 21.2262 11.217C21.2248 11.2147 21.2234 11.2124 21.2221 11.21C21.0697 10.9453 20.8503 10.7253 20.5859 10.5724C20.3215 10.4195 20.0214 10.339 19.716 10.339C19.4105 10.339 19.1105 10.4195 18.8461 10.5724C18.5816 10.7253 18.3622 10.9453 18.2099 11.21L18.2066 11.2157C16.6875 13.7908 15.8863 16.726 15.8863 19.7158C15.8863 22.7056 16.6875 25.6407 18.2066 28.2159L18.209 28.2201C18.3623 28.4848 18.5824 28.7047 18.8472 28.8578C19.112 29.011 19.4123 29.092 19.7182 29.0928C20.0539 29.0938 20.3253 29.3666 20.3243 29.7023C20.3234 30.038 20.0505 30.3093 19.7149 30.3084C19.1964 30.307 18.6874 30.1697 18.2386 29.9101C17.7906 29.651 17.4182 29.2792 17.1584 28.8316C15.5297 26.0698 14.6707 22.9221 14.6707 19.7158C14.6707 16.5098 15.5296 13.3623 17.158 10.6007C17.4168 10.1521 17.7891 9.77945 18.2375 9.52013Z" fill="white"/>
<path fill-rule="evenodd" clip-rule="evenodd" d="M26.3228 30.7604C28.7736 30.7604 30.7603 28.7737 30.7603 26.323C30.7603 23.8722 28.7736 21.8855 26.3228 21.8855C23.8721 21.8855 21.8853 23.8722 21.8853 26.323C21.8853 28.7737 23.8721 30.7604 26.3228 30.7604ZM24.3847 27.3271C24.6472 27.0646 25.0031 26.9172 25.3743 26.9172H27.4322C27.8034 26.9172 28.1593 27.0646 28.4218 27.3271C28.6842 27.5895 28.8316 27.9455 28.8316 28.3166V28.8311C28.8316 29.0357 28.6658 29.2015 28.4612 29.2015C28.2566 29.2015 28.0908 29.0357 28.0908 28.8311V28.3166C28.0908 28.1419 28.0214 27.9744 27.8979 27.8509C27.7744 27.7274 27.6069 27.6581 27.4322 27.6581H25.3743C25.1996 27.6581 25.0321 27.7274 24.9086 27.8509C24.7851 27.9744 24.7157 28.1419 24.7157 28.3166V28.8311C24.7157 29.0357 24.5499 29.2015 24.3453 29.2015C24.1407 29.2015 23.9749 29.0357 23.9749 28.8311V28.3166C23.9749 27.9455 24.1223 27.5895 24.3847 27.3271ZM25.7446 25.085C25.7446 24.7213 26.0394 24.4265 26.4031 24.4265C26.7668 24.4265 27.0617 24.7213 27.0617 25.085C27.0617 25.4487 26.7668 25.7436 26.4031 25.7436C26.0394 25.7436 25.7446 25.4487 25.7446 25.085ZM26.4031 23.6856C25.6303 23.6856 25.0037 24.3121 25.0037 25.085C25.0037 25.8579 25.6303 26.4844 26.4031 26.4844C27.176 26.4844 27.8025 25.8579 27.8025 25.085C27.8025 24.3121 27.176 23.6856 26.4031 23.6856Z" fill="white"/>
</g>
<defs>
<filter id="filter0_d_3502_442" x="9.1228" y="9.1228" width="22.3392" height="22.4563" filterUnits="userSpaceOnUse" color-interpolation-filters="sRGB">
<feFlood flood-opacity="0" result="BackgroundImageFix"/>
<feColorMatrix in="SourceAlpha" type="matrix" values="0 0 0 0 0 0 0 0 0 0 0 0 0 0 0 0 0 0 127 0" result="hardAlpha"/>
<feOffset dx="0.350877" dy="0.467836"/>
<feGaussianBlur stdDeviation="0.175439"/>
<feComposite in2="hardAlpha" operator="out"/>
<feColorMatrix type="matrix" values="0 0 0 0 0 0 0 0 0 0 0 0 0 0 0 0 0 0 0.05 0"/>
<feBlend mode="normal" in2="BackgroundImageFix" result="effect1_dropShadow_3502_442"/>
<feBlend mode="normal" in="SourceGraphic" in2="effect1_dropShadow_3502_442" result="shape"/>
</filter>
<linearGradient id="paint0_linear_3502_442" x1="-11.5972" y1="-22.0066" x2="28.5782" y2="61.5022" gradientUnits="userSpaceOnUse">
<stop stop-color="#10AADB"/>
<stop offset="1" stop-color="#96BAFF"/>
</linearGradient>
<linearGradient id="paint1_linear_3502_442" x1="-2.80164" y1="-2.27633" x2="37.2385" y2="61.1108" gradientUnits="userSpaceOnUse">
<stop offset="1" stop-color="#FFD55C"/>
</linearGradient>
<linearGradient id="paint2_linear_3502_442" x1="32.2489" y1="9.63823" x2="0.430175" y2="40.8603" gradientUnits="userSpaceOnUse">
<stop stop-color="white" stop-opacity="0.16"/>
<stop offset="0.53125" stop-color="white" stop-opacity="0"/>
</linearGradient>
</defs>
</svg>
