<svg width="458" height="458" viewBox="0 0 458 458" fill="none" xmlns="http://www.w3.org/2000/svg">
  <rect width="458" height="458" rx="110" fill="black"/>
  <rect x="109" y="118.647" width="239" height="239" rx="44.6133" fill="#75DC66"/>
  <path d="M109 163.261C109 138.622 128.974 118.647 153.613 118.647H303.387C328.026 118.647 348 138.622 348 163.261V198.314H109V163.261Z" fill="#5BCC5A"/>
  <rect x="109" y="198.312" width="79.6667" height="79.6667" fill="#75DC66"/>
  <path d="M109 277.978H188.667V357.645H153.613C128.974 357.645 109 337.671 109 313.031V277.978Z" fill="#75DC66"/>
  <rect x="188.667" y="277.978" width="79.6667" height="79.6667" fill="#0DA84C"/>
  <rect x="268.333" y="198.312" width="79.6667" height="79.6667" fill="#0DA84C"/>
  <rect x="188.667" y="198.312" width="79.6667" height="79.6667" fill="#75DC66"/>
  <path d="M268.333 277.978H348V313.031C348 337.671 328.026 357.645 303.387 357.645H268.333V277.978Z" fill="#0DA84C"/>
  <rect x="261.164" y="100.323" width="28.68" height="47.0033" rx="14.34" fill="#0DA84C"/>
  <rect x="167.158" y="100.323" width="28.68" height="47.0033" rx="14.34" fill="#0DA84C"/>
</svg>
