<svg width="800" height="800" viewBox="0 0 800 800" fill="none" xmlns="http://www.w3.org/2000/svg">
  <rect width="800" height="800" rx="160" fill="black"/>
  <g clip-path="url(#clip0_511_16446)">
  <path d="M543.15 573.651L255.05 573.651L255.05 502.701C255.05 423.144 319.543 358.651 399.1 358.651C478.657 358.651 543.15 423.144 543.15 502.701V573.651Z" fill="#5BCC5A"/>
  <path d="M255.05 225.351H543.15V296.3C543.15 375.857 478.656 440.351 399.1 440.351C319.543 440.351 255.05 375.857 255.05 296.301V225.351Z" fill="#75DC66"/>
  <path d="M499.599 399.5C473.646 424.779 438.191 440.351 399.1 440.351C360.008 440.351 324.554 424.779 298.6 399.501C324.554 374.222 360.008 358.651 399.1 358.651C438.192 358.651 473.646 374.222 499.599 399.5Z" fill="#0DA84C"/>
  </g>
  <defs>
  <clipPath id="clip0_511_16446">
  <rect width="348.3" height="348.3" fill="white" transform="translate(225.35 225.35)"/>
  </clipPath>
  </defs>
</svg>
