<svg xmlns="http://www.w3.org/2000/svg" width="40" height="40" fill="none" viewBox="0 0 40 40"><path fill="url(#paint0_linear_3502_428)" d="M0 10.7731C0 4.82328 4.82328 0 10.7731 0H29.2269C35.1767 0 40 4.82328 40 10.7731V29.2269C40 35.1767 35.1767 40 29.2269 40H10.7731C4.82328 40 0 35.1767 0 29.2269V10.7731Z"/><mask id="mask0_3502_428" style="maskType:alpha" width="40" height="40" x="0" y="0" maskUnits="userSpaceOnUse"><rect width="40" height="40" fill="url(#paint1_linear_3502_428)" rx="20"/></mask><g mask="url(#mask0_3502_428)"><path fill="url(#paint2_linear_3502_428)" d="M37.4194 22.3657C37.4194 12.1514 29.1391 3.87109 18.9248 3.87109H0.430172V40.8603H37.4194V22.3657Z"/></g><g filter="url(#filter0_d_3502_428)"><rect width="2.491" height="4.36" x="9.474" y="17.634" fill="#fff"/><rect width="2.491" height="7.474" x="12.962" y="14.52" fill="#fff"/><path fill="#fff" d="M16.4497 10.4092H18.9412V21.9943H16.4497V10.4092Z"/><path fill="#fff" fill-rule="evenodd" d="M23.9156 24.2394C24.4934 23.7672 25.3445 23.8528 25.8167 24.4305L30.2214 29.8198C30.6936 30.3976 30.608 31.2487 30.0303 31.7209C29.4525 32.1931 28.6014 32.1075 28.1292 31.5298L23.7245 26.1405C23.2523 25.5627 23.3379 24.7116 23.9156 24.2394Z" clip-rule="evenodd"/><path fill="#fff" fill-rule="evenodd" d="M26.3213 19.1189C26.3213 15.8239 23.6685 13.1485 20.3821 13.1119V10.4098C25.1608 10.4464 29.0233 14.3316 29.0233 19.1189C29.0233 22.0022 27.6208 24.5582 25.4667 26.1411C24.0237 27.2016 22.24 27.8284 20.3139 27.8284C17.4857 27.8284 14.9722 26.479 13.3834 24.3944C13.1593 24.1004 12.9534 23.7915 12.7674 23.4695H16.171C17.25 24.4975 18.7083 25.1264 20.3139 25.1264C21.6452 25.1264 22.8718 24.6949 23.8667 23.9638C25.3578 22.868 26.3213 21.1061 26.3213 19.1189Z" clip-rule="evenodd"/></g><defs><filter id="filter0_d_3502_428" width="27.053" height="28.617" x="9.474" y="10.409" color-interpolation-filters="sRGB" filterUnits="userSpaceOnUse"><feFlood flood-opacity="0" result="BackgroundImageFix"/><feColorMatrix in="SourceAlpha" result="hardAlpha" type="matrix" values="0 0 0 0 0 0 0 0 0 0 0 0 0 0 0 0 0 0 127 0"/><feOffset dx="3" dy="4"/><feGaussianBlur stdDeviation="1.5"/><feComposite in2="hardAlpha" operator="out"/><feColorMatrix type="matrix" values="0 0 0 0 0 0 0 0 0 0 0 0 0 0 0 0 0 0 0.05 0"/><feBlend in2="BackgroundImageFix" mode="normal" result="effect1_dropShadow_3502_428"/><feBlend in="SourceGraphic" in2="effect1_dropShadow_3502_428" mode="normal" result="shape"/></filter><linearGradient id="paint0_linear_3502_428" x1="-15.876" x2="54.282" y1="-21.829" y2="58.309" gradientUnits="userSpaceOnUse"><stop stop-color="#63D9FE"/><stop offset=".799" stop-color="#8588FF"/></linearGradient><linearGradient id="paint1_linear_3502_428" x1="-2.802" x2="37.239" y1="-2.276" y2="61.111" gradientUnits="userSpaceOnUse"><stop offset="1" stop-color="#FFD55C"/></linearGradient><linearGradient id="paint2_linear_3502_428" x1="32.249" x2=".43" y1="9.638" y2="40.86" gradientUnits="userSpaceOnUse"><stop stop-color="#fff" stop-opacity=".16"/><stop offset=".531" stop-color="#fff" stop-opacity="0"/></linearGradient></defs></svg>