<svg xmlns="http://www.w3.org/2000/svg" width="800" height="800" fill="none" viewBox="0 0 800 800"><rect width="800" height="800" fill="#000" rx="160"/><g clip-path="url(#clip0_511_16446)"><path fill="#5BCC5A" d="M543.15 573.651L255.05 573.651L255.05 502.701C255.05 423.144 319.543 358.651 399.1 358.651C478.657 358.651 543.15 423.144 543.15 502.701V573.651Z"/><path fill="#75DC66" d="M255.05 225.351H543.15V296.3C543.15 375.857 478.656 440.351 399.1 440.351C319.543 440.351 255.05 375.857 255.05 296.301V225.351Z"/><path fill="#0DA84C" d="M499.599 399.5C473.646 424.779 438.191 440.351 399.1 440.351C360.008 440.351 324.554 424.779 298.6 399.501C324.554 374.222 360.008 358.651 399.1 358.651C438.192 358.651 473.646 374.222 499.599 399.5Z"/></g><defs><clipPath id="clip0_511_16446"><rect width="348.3" height="348.3" fill="#fff" transform="translate(225.35 225.35)"/></clipPath></defs></svg>