<svg width="458" height="458" viewBox="0 0 458 458" fill="none" xmlns="http://www.w3.org/2000/svg">
  <rect width="458" height="458" rx="110" fill="black"/>
  <g clip-path="url(#clip0_318_35312)">
  <path d="M178.553 292.916C178.553 312.777 162.128 328.854 142.308 328.854C122.488 328.854 106.421 312.753 106.421 292.891C106.421 281.258 111.934 270.914 120.483 264.341C129.913 259.481 134.456 256.953 142.667 256.953C162.486 256.953 178.553 273.054 178.553 292.916Z" fill="#75DC66"/>
  <path fill-rule="evenodd" clip-rule="evenodd" d="M229.578 116.347C173.272 116.347 127.627 162.088 127.627 218.514C127.627 244.323 137.166 267.879 152.915 285.866L146.785 291.257L135.584 257.316C127.383 260.84 130.207 259.33 120.483 264.341C114.579 250.242 111.315 234.757 111.315 218.514C111.315 153.06 164.263 100 229.578 100C256.192 100 280.774 108.82 300.54 123.698L290.743 136.769C273.705 123.943 252.538 116.347 229.578 116.347Z" fill="#75DC66"/>
  <path d="M351.078 245.471C351.078 307.757 300.692 358.25 238.538 358.25C176.384 358.25 126.357 307.781 126.357 245.495C126.357 183.209 176.384 132.693 238.538 132.693C300.692 132.693 351.078 183.185 351.078 245.471Z" fill="#5BCC5A"/>
  <path d="M128.193 225.098C128.917 236.559 131.525 247.504 135.712 257.628C137.962 257.185 140.287 256.953 142.667 256.953C162.486 256.953 178.553 273.054 178.553 292.916C178.553 306.876 170.616 318.979 159.017 324.938C138.829 304.554 126.357 276.484 126.357 245.495C126.357 238.531 126.987 231.713 128.193 225.098Z" fill="#0DA84C"/>
  </g>
  <defs>
  <clipPath id="clip0_318_35312">
  <rect width="258" height="258" fill="white" transform="translate(100 100)"/>
  </clipPath>
  </defs>
</svg>
