<svg xmlns="http://www.w3.org/2000/svg" width="800" height="800" fill="none" viewBox="0 0 800 800"><rect width="800" height="800" fill="#000" rx="160"/><g clip-path="url(#clip0_511_16431)"><rect width="354.915" height="354.915" x="221.365" y="236.126" fill="#75DC66" rx="66.251"/><path fill="#5BCC5A" d="M221.365 302.377C221.365 265.787 251.027 236.126 287.616 236.126H510.029C546.619 236.126 576.28 265.787 576.28 302.377V354.431H221.365V302.377Z"/><rect width="118.305" height="118.305" x="221.365" y="354.427" fill="#75DC66"/><path fill="#75DC66" d="M221.365 472.731H339.67V591.036H287.616C251.026 591.036 221.365 561.375 221.365 524.786V472.731Z"/><rect width="118.305" height="118.305" x="339.67" y="472.731" fill="#0DA84C"/><rect width="118.305" height="118.305" x="457.975" y="354.427" fill="#0DA84C"/><rect width="118.305" height="118.305" x="339.67" y="354.427" fill="#75DC66"/><path fill="#0DA84C" d="M457.975 472.731H576.28V524.786C576.28 561.375 546.618 591.036 510.029 591.036H457.975V472.731Z"/><rect width="42.59" height="69.8" x="447.329" y="208.914" fill="#0DA84C" rx="21.295"/><rect width="42.59" height="69.8" x="307.73" y="208.914" fill="#0DA84C" rx="21.295"/></g><defs><clipPath id="clip0_511_16431"><rect width="383.13" height="383.13" fill="#fff" transform="translate(208 208.435)"/></clipPath></defs></svg>