<svg xmlns="http://www.w3.org/2000/svg" width="40" height="40" fill="none" viewBox="0 0 40 40"><path fill="url(#paint0_linear_3502_437)" d="M0 10.7731C0 4.82328 4.82328 0 10.7731 0H29.2269C35.1767 0 40 4.82328 40 10.7731V29.2269C40 35.1767 35.1767 40 29.2269 40H10.7731C4.82328 40 0 35.1767 0 29.2269V10.7731Z"/><mask id="mask0_3502_437" style="maskType:alpha" width="40" height="40" x="0" y="0" maskUnits="userSpaceOnUse"><rect width="40" height="40" fill="url(#paint1_linear_3502_437)" rx="10.773"/></mask><g mask="url(#mask0_3502_437)"><path fill="url(#paint2_linear_3502_437)" d="M37.4194 22.3657C37.4194 12.1514 29.1391 3.87109 18.9248 3.87109H0.430172V40.8603H37.4194V22.3657Z"/></g><g filter="url(#filter0_d_3502_437)"><path fill="#fff" fill-rule="evenodd" d="M16.6436 10.3117C13.0174 10.3117 10.0778 13.2513 10.0778 16.8774C10.0778 20.5036 13.0174 23.4432 16.6436 23.4432V24.3982C12.49 24.3982 9.12281 21.031 9.12281 16.8774C9.12281 12.7238 12.49 9.35669 16.6436 9.35669C20.7972 9.35669 24.1643 12.7238 24.1643 16.8774H23.2093C23.2093 13.2513 20.2697 10.3117 16.6436 10.3117Z" clip-rule="evenodd"/><path fill="#fff" fill-rule="evenodd" d="M16.6436 13.4156C14.7316 13.4156 13.1816 14.9655 13.1816 16.8775C13.1816 18.7895 14.7316 20.3395 16.6436 20.3395V21.2945C14.2041 21.2945 12.2266 19.3169 12.2266 16.8775C12.2266 14.4381 14.2041 12.4606 16.6436 12.4606C19.083 12.4606 21.0605 14.4381 21.0605 16.8775H20.1055C20.1055 14.9655 18.5555 13.4156 16.6436 13.4156Z" clip-rule="evenodd"/><path fill="#fff" d="M16.5117 17.366C16.4253 17.1283 16.6557 16.8979 16.8934 16.9844L32.4258 22.6331C32.6881 22.7285 32.6868 23.0999 32.4239 23.1935L25.3256 25.721C25.2405 25.7513 25.1738 25.8185 25.1442 25.9038L22.7182 32.8849C22.6262 33.1497 22.2528 33.1524 22.157 32.889L16.5117 17.366Z"/></g><defs><filter id="filter0_d_3502_437" width="24.245" height="24.599" x="9.123" y="9.357" color-interpolation-filters="sRGB" filterUnits="userSpaceOnUse"><feFlood flood-opacity="0" result="BackgroundImageFix"/><feColorMatrix in="SourceAlpha" result="hardAlpha" type="matrix" values="0 0 0 0 0 0 0 0 0 0 0 0 0 0 0 0 0 0 127 0"/><feOffset dx=".373" dy=".497"/><feGaussianBlur stdDeviation=".187"/><feComposite in2="hardAlpha" operator="out"/><feColorMatrix type="matrix" values="0 0 0 0 0 0 0 0 0 0 0 0 0 0 0 0 0 0 0.05 0"/><feBlend in2="BackgroundImageFix" mode="normal" result="effect1_dropShadow_3502_437"/><feBlend in="SourceGraphic" in2="effect1_dropShadow_3502_437" mode="normal" result="shape"/></filter><linearGradient id="paint0_linear_3502_437" x1="-2.825" x2="44.094" y1="-3.819" y2="45.263" gradientUnits="userSpaceOnUse"><stop stop-color="#799DFA"/><stop offset="1" stop-color="#28CCF0"/></linearGradient><linearGradient id="paint1_linear_3502_437" x1="-2.802" x2="37.239" y1="-2.276" y2="61.111" gradientUnits="userSpaceOnUse"><stop offset="1" stop-color="#FFD55C"/></linearGradient><linearGradient id="paint2_linear_3502_437" x1="32.249" x2=".43" y1="9.638" y2="40.86" gradientUnits="userSpaceOnUse"><stop stop-color="#fff" stop-opacity=".16"/><stop offset=".531" stop-color="#fff" stop-opacity="0"/></linearGradient></defs></svg>