<svg xmlns="http://www.w3.org/2000/svg" width="40" height="40" fill="none" viewBox="0 0 40 40"><path fill="url(#paint0_linear_3502_432)" d="M0 10.7731C0 4.82328 4.82328 0 10.7731 0H29.2269C35.1767 0 40 4.82328 40 10.7731V29.2269C40 35.1767 35.1767 40 29.2269 40H10.7731C4.82328 40 0 35.1767 0 29.2269V10.7731Z"/><mask id="mask0_3502_432" style="maskType:alpha" width="40" height="40" x="0" y="0" maskUnits="userSpaceOnUse"><rect width="40" height="40" fill="url(#paint1_linear_3502_432)"/></mask><g mask="url(#mask0_3502_432)"><path fill="url(#paint2_linear_3502_432)" d="M37.4194 22.3657C37.4194 12.1514 29.1391 3.87109 18.9248 3.87109H0.430145V40.8603H37.4194V22.3657Z"/></g><g filter="url(#filter0_d_3502_432)"><rect width="2.31" height="2.31" x="14.34" y="20.689" fill="#fff" rx=".234"/><rect width="2.31" height="2.31" x="14.34" y="23.692" fill="#fff" rx=".234"/><rect width="2.31" height="2.31" x="17.343" y="17.685" fill="#fff" rx=".234"/><rect width="2.31" height="2.31" x="17.343" y="20.689" fill="#fff" rx=".234"/><rect width="2.31" height="2.31" x="17.343" y="23.692" fill="#fff" rx=".234"/><rect width="2.31" height="2.31" x="20.346" y="17.685" fill="#fff" rx=".234"/><rect width="2.31" height="2.31" x="23.35" y="17.685" fill="#fff" rx=".234"/><rect width="2.31" height="2.31" x="20.346" y="20.689" fill="#fff" rx=".234"/><rect width="2.31" height="2.31" x="20.346" y="23.692" fill="#fff" rx=".234"/><rect width="2.31" height="2.31" x="23.35" y="20.689" fill="#fff" rx=".234"/><rect width="1.733" height="3.234" x="15.148" y="10.292" fill="#fff" rx=".866"/><rect width="1.733" height="3.234" x="23.119" y="10.292" fill="#fff" rx=".866"/><path fill="#fff" fill-rule="evenodd" d="M22.7723 11.6786H17.2276V12.6605C17.2276 13.3303 16.6845 13.8734 16.0147 13.8734C15.3448 13.8734 14.8018 13.3303 14.8018 12.6605V11.6786H13.6842C12.0047 11.6786 10.6432 13.0401 10.6432 14.7195V26.658C10.6432 28.3375 12.0047 29.6989 13.6842 29.6989H26.3158C27.9952 29.6989 29.3567 28.3375 29.3567 26.658V14.7195C29.3567 13.0401 27.9952 11.6786 26.3158 11.6786H25.1981V12.6605C25.1981 13.3303 24.6551 13.8734 23.9852 13.8734C23.3153 13.8734 22.7723 13.3303 22.7723 12.6605V11.6786ZM13.4214 16.2992C13.163 16.2992 12.9535 16.5086 12.9535 16.767V26.9208C12.9535 27.1792 13.163 27.3886 13.4214 27.3886H26.5785C26.8369 27.3886 27.0464 27.1792 27.0464 26.9208V16.767C27.0464 16.5086 26.8369 16.2992 26.5785 16.2992H13.4214Z" clip-rule="evenodd"/></g><defs><filter id="filter0_d_3502_432" width="19.415" height="20.225" x="10.643" y="10.292" color-interpolation-filters="sRGB" filterUnits="userSpaceOnUse"><feFlood flood-opacity="0" result="BackgroundImageFix"/><feColorMatrix in="SourceAlpha" result="hardAlpha" type="matrix" values="0 0 0 0 0 0 0 0 0 0 0 0 0 0 0 0 0 0 127 0"/><feOffset dx=".351" dy=".468"/><feGaussianBlur stdDeviation=".175"/><feComposite in2="hardAlpha" operator="out"/><feColorMatrix type="matrix" values="0 0 0 0 0 0 0 0 0 0 0 0 0 0 0 0 0 0 0.05 0"/><feBlend in2="BackgroundImageFix" mode="normal" result="effect1_dropShadow_3502_432"/><feBlend in="SourceGraphic" in2="effect1_dropShadow_3502_432" mode="normal" result="shape"/></filter><linearGradient id="paint0_linear_3502_432" x1="7.76" x2="43.841" y1="-17.328" y2="69.105" gradientUnits="userSpaceOnUse"><stop offset=".156" stop-color="#FFCDA5"/><stop offset=".795" stop-color="#EE4D5F"/></linearGradient><linearGradient id="paint1_linear_3502_432" x1="-2.802" x2="37.239" y1="-2.276" y2="61.111" gradientUnits="userSpaceOnUse"><stop offset="1" stop-color="#FFD55C"/></linearGradient><linearGradient id="paint2_linear_3502_432" x1="32.249" x2=".43" y1="9.638" y2="40.86" gradientUnits="userSpaceOnUse"><stop stop-color="#fff" stop-opacity=".16"/><stop offset=".531" stop-color="#fff" stop-opacity="0"/></linearGradient></defs></svg>