<svg xmlns="http://www.w3.org/2000/svg" width="800" height="800" fill="none" viewBox="0 0 800 800"><rect width="800" height="800" fill="#000" rx="160"/><g clip-path="url(#clip0_511_16503)"><path fill="#5BCC5A" d="M318.815 526.146V273.97C318.815 251.483 343.761 237.964 362.601 250.241L563.363 381.075C577.079 390.014 577.079 410.102 563.363 419.041L362.601 549.874C343.761 562.152 318.815 548.633 318.815 526.146Z"/><path fill="#75DC66" d="M225.35 480.95V318.033C225.35 295.228 250.926 281.774 269.718 294.694L394.993 380.82C408.089 389.824 408.089 409.16 394.993 418.163L269.718 504.289C250.926 517.209 225.35 503.755 225.35 480.95Z"/><path fill="#0DA84C" d="M318.816 470.533L394.993 418.163C408.089 409.16 408.089 389.824 394.993 380.82L318.816 328.445V470.533Z"/></g><defs><clipPath id="clip0_511_16503"><rect width="348.3" height="348.3" fill="#fff" transform="translate(225.35 225.35)"/></clipPath></defs></svg>