<svg xmlns="http://www.w3.org/2000/svg" width="800" height="800" fill="none" viewBox="0 0 800 800"><rect width="800" height="800" fill="#000" rx="160"/><g clip-path="url(#clip0_511_16533)"><path fill="#5BCC5A" fill-rule="evenodd" d="M501.234 299.037C495.552 293.354 489.224 288.071 482.359 283.326L485.349 241.442C485.824 234.792 481.493 228.749 475.044 227.061L423.564 213.588C417.23 211.931 410.601 214.936 407.674 220.793L388.661 258.83C371.998 260.381 355.657 264.804 340.76 271.807L306.073 248.807C300.583 245.167 293.288 245.899 288.631 250.556L250.551 288.636C245.894 293.293 245.162 300.587 248.802 306.077L271.788 340.749C264.677 355.784 260.346 371.848 258.795 388.665L220.785 407.676C214.93 410.605 211.926 417.233 213.584 423.565L227.057 475.048C228.745 481.497 234.788 485.828 241.438 485.354L283.321 482.364C288.067 489.229 293.35 495.556 299.032 501.239C304.715 506.921 311.042 512.204 317.907 516.95L314.917 558.833C314.443 565.483 318.774 571.527 325.223 573.214L376.703 586.687C383.037 588.345 389.666 585.339 392.593 579.483L411.606 541.446C428.269 539.894 444.61 535.471 459.507 528.468L494.194 551.468C499.684 555.108 506.978 554.377 511.636 549.719L549.715 511.64C554.373 506.982 555.104 499.688 551.465 494.199L528.479 459.527C535.574 444.507 539.921 428.427 541.472 411.61L579.491 392.612C585.349 389.686 588.355 383.056 586.697 376.721L573.225 325.242C571.538 318.793 565.494 314.462 558.844 314.937L516.961 317.927C512.2 311.047 506.917 304.719 501.234 299.037ZM453.886 453.89C424.245 483.531 376.021 483.531 346.381 453.89C316.74 424.25 316.74 376.026 346.381 346.385C376.021 316.744 424.245 316.745 453.886 346.385C483.526 376.026 483.527 424.25 453.886 453.89Z" clip-rule="evenodd"/><path fill="#75DC66" d="M482.351 283.326C489.216 288.071 495.543 293.354 501.226 299.037C506.908 304.719 512.191 311.047 516.952 317.927L558.836 314.937C565.485 314.462 571.529 318.793 573.217 325.242L586.689 376.721C588.347 383.056 585.34 389.686 579.483 392.612L541.463 411.61C539.912 428.427 535.566 444.507 528.47 459.527L551.456 494.199C555.096 499.688 554.364 506.982 549.706 511.64L511.627 549.719C506.969 554.377 499.675 555.108 494.185 551.468L460.309 529.005L417.899 474.03C431.093 470.879 443.602 464.166 453.877 453.89C483.518 424.25 483.518 376.026 453.877 346.385C424.236 316.745 376.013 316.744 346.372 346.385C340.92 351.837 336.471 357.917 333.025 364.395L332.932 364.274L387.521 258.94C387.898 258.902 388.275 258.865 388.652 258.83L407.665 220.793C410.592 214.936 417.221 211.931 423.555 213.588L475.035 227.061C481.484 228.749 485.815 234.792 485.341 241.442L482.351 283.326Z"/><path fill="#0DA84C" d="M417.67 473.98L492.633 570.21C497.748 576.776 507.46 577.377 513.346 571.491L571.465 513.372C577.351 507.486 576.751 497.774 570.184 492.659L473.951 417.693C470.819 430.925 464.092 443.481 453.771 453.802C443.451 464.122 430.899 470.848 417.67 473.98Z"/></g><defs><clipPath id="clip0_511_16533"><rect width="375.3" height="375.3" fill="#fff" transform="translate(211.85 211.85)"/></clipPath></defs></svg>