<svg width="458" height="458" viewBox="0 0 458 458" fill="none" xmlns="http://www.w3.org/2000/svg">
  <rect width="458" height="458" rx="110" fill="black"/>
  <path d="M255.615 298.619C255.615 331.414 229.029 358 196.234 358C163.438 358 136.853 331.414 136.853 298.619C136.853 265.824 163.438 239.238 196.234 239.238C229.029 239.238 255.615 265.824 255.615 298.619Z" fill="#75DC66"/>
  <path d="M102 224.395C102 187.679 131.764 157.914 168.481 157.914H205.271V290.876H168.481C131.764 290.876 102 261.111 102 224.395Z" fill="#5BCC5A"/>
  <path d="M205.27 157.912L338.322 101.052C346.839 97.4128 356.304 103.661 356.304 112.923V335.863C356.304 345.125 346.839 351.373 338.322 347.734L205.27 290.874V157.912Z" fill="#5BCC5A"/>
  <path d="M205.271 239.92L205.27 290.874L168.481 290.876C157.777 290.876 147.663 288.345 138.705 283.85C145.27 258.2 168.538 239.237 196.235 239.237C199.307 239.237 202.325 239.47 205.271 239.92Z" fill="#0DA84C"/>
  <path d="M254.156 311.763L205.27 290.874L205.271 239.92C233.777 244.273 255.615 268.896 255.615 298.619C255.615 303.136 255.111 307.535 254.156 311.763Z" fill="#0DA84C"/>
</svg>
