<svg width="458" height="458" viewBox="0 0 458 458" fill="none" xmlns="http://www.w3.org/2000/svg">
  <rect width="458" height="458" rx="110" fill="black"/>
  <path d="M100.625 167.424C100.625 154.383 111.197 143.811 124.237 143.811H334.388C347.428 143.811 358 154.383 358 167.424V188.675H100.625V167.424Z" fill="#5BCC5A"/>
  <path d="M100.625 192.217H358V322.085C358 335.126 347.428 345.697 334.388 345.697H124.237C111.197 345.697 100.625 335.126 100.625 322.085V192.217Z" fill="#5BCC5A"/>
  <path d="M269.454 124.921C269.454 118.401 274.739 113.115 281.26 113.115H304.872C311.393 113.115 316.678 118.401 316.678 124.921V268.662L293.066 296.111L269.454 268.662V124.921Z" fill="#0DA84C"/>
  <path d="M269.454 124.921C269.454 118.401 274.739 113.115 281.26 113.115H304.872C311.393 113.115 316.678 118.401 316.678 124.921V192.217H269.454V124.921Z" fill="#75DC66"/>
</svg>
