<svg width="458" height="458" viewBox="0 0 458 458" fill="none" xmlns="http://www.w3.org/2000/svg">
  <rect width="458" height="458" rx="110" fill="black"/>
  <g clip-path="url(#clip0_318_35336)">
  <path d="M160.259 130.582C160.259 113.692 173.951 100 190.841 100H309.278C326.168 100 339.86 113.692 339.86 130.582V285.409C339.86 302.299 326.168 315.991 309.278 315.991H190.841C173.951 315.991 160.259 302.299 160.259 285.409V130.582Z" fill="#75DC66"/>
  <path d="M118 172.841C118 155.951 131.692 142.259 148.582 142.259H267.019C283.909 142.259 297.601 155.951 297.601 172.841V327.668C297.601 344.558 283.909 358.25 267.019 358.25H148.582C131.692 358.25 118 344.558 118 327.668V172.841Z" fill="#5BCC5A"/>
  <path d="M297.601 315.991L190.841 315.991C173.951 315.991 160.259 302.299 160.259 285.409V142.259H267.019C283.909 142.259 297.601 155.951 297.601 172.841V315.991Z" fill="#0DA84C"/>
  </g>
  <defs>
  <clipPath id="clip0_318_35336">
  <rect width="258" height="258" fill="white" transform="translate(100 100)"/>
  </clipPath>
  </defs>
</svg>
