<svg xmlns="http://www.w3.org/2000/svg" width="40" height="40" fill="none" viewBox="0 0 40 40"><path fill="url(#paint0_linear_3502_429)" d="M0 10.7733C0 4.82338 4.82338 0 10.7733 0H29.2267C35.1766 0 40 4.82338 40 10.7733V29.2267C40 35.1766 35.1766 40 29.2267 40H10.7733C4.82338 40 0 35.1766 0 29.2267V10.7733Z"/><mask id="mask0_3502_429" style="maskType:alpha" width="40" height="40" x="0" y="0" maskUnits="userSpaceOnUse"><rect width="40" height="40" fill="#E5E5E5" rx="10.773"/></mask><mask id="mask1_3502_429" style="maskType:alpha" width="40" height="40" x="0" y="0" maskUnits="userSpaceOnUse"><rect width="40" height="40" fill="url(#paint1_linear_3502_429)" rx="10.773"/></mask><g mask="url(#mask1_3502_429)"><path fill="url(#paint2_linear_3502_429)" d="M37.4195 22.3656C37.4195 12.1513 29.1391 3.87097 18.9248 3.87097H0.430222V40.8602H37.4195V22.3656Z"/></g><rect width="4.235" height="4.235" x="10.753" y="10.753" fill="#fff" rx="1.059"/><rect width="4.235" height="4.235" x="15.517" y="10.752" fill="#fff" rx="1.059"/><rect width="4.235" height="4.235" x="20.282" y="10.752" fill="#fff" rx="1.059"/><rect width="4.235" height="4.235" x="25.047" y="10.752" fill="#fff" rx="1.059"/><rect width="4.235" height="4.235" x="10.752" y="15.518" fill="#fff" rx="1.059"/><rect width="4.235" height="4.235" x="15.517" y="15.518" fill="#fff" rx="1.059"/><rect width="4.235" height="4.235" x="20.282" y="15.518" fill="#fff" rx="1.059"/><rect width="4.235" height="4.235" x="10.752" y="20.282" fill="#fff" rx="1.059"/><rect width="4.235" height="4.235" x="15.517" y="20.282" fill="#fff" rx="1.059"/><rect width="4.235" height="4.235" x="10.752" y="25.047" fill="#fff" rx="1.059"/><defs><linearGradient id="paint0_linear_3502_429" x1="20" x2="20" y1="0" y2="40" gradientUnits="userSpaceOnUse"><stop stop-color="#4DC8C3"/><stop offset="1" stop-color="#52A9C6"/></linearGradient><linearGradient id="paint1_linear_3502_429" x1="20" x2="20" y1="0" y2="40" gradientUnits="userSpaceOnUse"><stop stop-color="#8886FF"/><stop offset="1" stop-color="#FFD55C"/></linearGradient><linearGradient id="paint2_linear_3502_429" x1="32.249" x2=".43" y1="9.638" y2="40.86" gradientUnits="userSpaceOnUse"><stop stop-color="#fff" stop-opacity=".12"/><stop offset=".345" stop-color="#fff" stop-opacity="0"/></linearGradient></defs></svg>