<svg width="458" height="458" viewBox="0 0 458 458" fill="none" xmlns="http://www.w3.org/2000/svg">
  <rect width="458" height="458" rx="110" fill="black"/>
  <path d="M288.031 263.358C288.031 314.453 246.61 355.874 195.516 355.874C144.421 355.874 103 314.453 103 263.358C103 212.263 144.421 170.843 195.516 170.843C246.61 170.843 288.031 212.263 288.031 263.358Z" fill="#5BCC5A"/>
  <path d="M355.875 195.516C355.875 246.61 314.454 288.031 263.359 288.031C212.265 288.031 170.844 246.61 170.844 195.516C170.844 144.421 212.265 103 263.359 103C314.454 103 355.875 144.421 355.875 195.516Z" fill="#75DC66"/>
  <path d="M173.485 173.486C180.545 171.761 187.924 170.847 195.516 170.847C246.611 170.847 288.032 212.267 288.032 263.362C288.032 270.955 287.117 278.334 285.392 285.396C278.331 287.12 270.953 288.035 263.36 288.035C212.265 288.035 170.845 246.614 170.845 195.519C170.845 187.927 171.759 180.548 173.485 173.486Z" fill="#0DA84C"/>
</svg>
