<svg xmlns="http://www.w3.org/2000/svg" width="800" height="800" fill="none" viewBox="0 0 800 800"><rect width="800" height="800" fill="#000" rx="160"/><path fill="#5BCC5A" fill-rule="evenodd" d="M392.082 547.858C477.007 547.858 545.853 479.012 545.853 394.087C545.853 309.161 477.007 240.315 392.082 240.315C307.156 240.315 238.311 309.161 238.311 394.087C238.311 479.012 307.156 547.858 392.082 547.858ZM392.082 466.873C432.284 466.873 464.873 434.283 464.873 394.082C464.873 353.88 432.284 321.291 392.082 321.291C351.881 321.291 319.291 353.88 319.291 394.082C319.291 434.283 351.881 466.873 392.082 466.873Z" clip-rule="evenodd"/><path fill="#75DC66" d="M393.666 407.196C391.17 400.038 398.045 393.164 405.202 395.659L609.968 467.046C617.859 469.797 618.134 480.855 610.391 483.995L522.595 519.598C520.325 520.518 518.524 522.318 517.604 524.588L482.001 612.384C478.861 620.128 467.803 619.853 465.052 611.962L393.666 407.196Z"/><path fill="#0DA84C" fill-rule="evenodd" d="M538.229 442.02L461.713 415.345C454.667 438.433 436.453 456.649 413.366 463.698L440.043 540.217C486.395 525.014 523.031 488.374 538.229 442.02Z" clip-rule="evenodd"/></svg>