<svg width="800" height="800" viewBox="0 0 800 800" fill="none" xmlns="http://www.w3.org/2000/svg">
  <rect width="800" height="800" rx="160" fill="black"/>
  <g clip-path="url(#clip0_511_16539)">
  <path d="M381.348 480.442C397.288 496.382 397.288 522.227 381.348 538.167C365.408 554.108 339.563 554.108 323.623 538.167L213.42 427.965C197.48 412.024 197.48 386.18 213.42 370.239C229.361 354.299 255.205 354.299 271.145 370.239L381.348 480.442Z" fill="#5BCC5A"/>
  <path d="M381.348 318.503C397.288 302.562 397.288 276.718 381.348 260.778C365.408 244.837 339.563 244.837 323.623 260.778L213.42 370.98C197.48 386.921 197.48 412.765 213.42 428.705C229.361 444.646 255.205 444.646 271.145 428.705L381.348 318.503Z" fill="#5BCC5A"/>
  <path d="M417.492 480.442C401.552 496.382 401.552 522.227 417.492 538.167C433.433 554.108 459.277 554.108 475.218 538.167L585.42 427.965C601.361 412.024 601.361 386.18 585.42 370.239C569.48 354.299 543.635 354.299 527.695 370.239L417.492 480.442Z" fill="#75DC66"/>
  <path d="M417.492 318.503C401.552 302.562 401.552 276.718 417.492 260.778C433.433 244.837 459.277 244.837 475.218 260.778L585.42 370.98C601.361 386.921 601.361 412.765 585.42 428.705C569.48 444.646 543.635 444.646 527.695 428.705L417.492 318.503Z" fill="#0DA84C"/>
  <path d="M498.467 399.479L527.7 370.246C542.062 355.884 564.464 354.462 580.418 365.98L585.425 370.987C593.301 378.863 597.285 389.157 597.379 399.479C597.285 409.802 593.301 420.095 585.425 427.971L580.418 432.978C564.464 444.496 542.062 443.074 527.7 428.712L498.467 399.479Z" fill="#0DA84C"/>
  </g>
  <defs>
  <clipPath id="clip0_511_16539">
  <rect width="394.74" height="394.74" fill="white" transform="translate(202.63 202.629)"/>
  </clipPath>
  </defs>
</svg>
