<svg width="800" height="800" viewBox="0 0 800 800" fill="none" xmlns="http://www.w3.org/2000/svg">
  <rect width="800" height="800" rx="160" fill="black"/>
  <g clip-path="url(#clip0_511_16449)">
  <path d="M272.312 219.488C272.312 209.791 280.172 201.931 289.869 201.931H508.213C517.909 201.931 525.77 209.791 525.77 219.488V474.923C525.77 484.62 517.909 492.481 508.213 492.481H272.312V219.488Z" fill="#5BCC5A"/>
  <path fill-rule="evenodd" clip-rule="evenodd" d="M323.313 492.48C310.51 492.48 300.13 502.859 300.13 515.662C300.13 528.465 310.51 538.844 323.313 538.844H513.407C520.235 538.844 525.77 544.379 525.77 551.208C525.77 558.036 520.235 563.572 513.407 563.572H323.313C296.853 563.572 275.403 542.122 275.403 515.662C275.403 489.202 296.853 467.752 323.313 467.752H453.163V492.48H323.313Z" fill="#5BCC5A"/>
  <path d="M272.312 492.481H288.373L297.039 531.118L334.131 563.573L322.971 563.568C294.989 563.556 272.312 540.868 272.312 512.885V492.481Z" fill="#5BCC5A"/>
  <path d="M337.221 452.988C337.221 450.402 339.317 448.306 341.903 448.306H406.722C409.308 448.306 411.404 450.402 411.404 452.988V596.672L374.313 577.891L337.221 596.672V452.988Z" fill="#75DC66"/>
  <path fill-rule="evenodd" clip-rule="evenodd" d="M411.403 492.479H337.22V450.797C337.22 448.211 339.316 446.115 341.902 446.115H406.721C409.307 446.115 411.403 448.211 411.403 450.797V492.479Z" fill="#0DA84C"/>
  </g>
  <defs>
  <clipPath id="clip0_511_16449">
  <rect width="394.74" height="394.74" fill="white" transform="translate(201.93 201.93)"/>
  </clipPath>
  </defs>
</svg>
