<svg width="342" height="342" viewBox="0 0 342 342" fill="none" xmlns="http://www.w3.org/2000/svg">
<path d="M0 92.11C0 41.239 41.2391 0 92.11 0H249.89C300.761 0 342 41.2391 342 92.11V249.89C342 300.761 300.761 342 249.89 342H92.11C41.239 342 0 300.761 0 249.89V92.11Z" fill="url(#paint0_linear_5273_1434)"/>
<mask id="mask0_5273_1434" style="mask-type:alpha" maskUnits="userSpaceOnUse" x="0" y="0" width="342" height="342">
<rect width="342" height="342" rx="92.11" fill="url(#paint1_linear_5273_1434)"/>
</mask>
<g mask="url(#mask0_5273_1434)">
<path d="M319.936 191.227C319.936 103.894 249.139 33.0977 161.807 33.0977H3.67773V349.356H319.936V191.227Z" fill="url(#paint2_linear_5273_1434)"/>
</g>
<g filter="url(#filter0_d_5273_1434)">
<path d="M226.335 111.566C211.2 89.4852 185.792 75 157 75C110.608 75 73 112.608 73 159C73 165.749 73.796 172.313 75.2993 178.601L118.075 135.825C122.176 131.725 128.824 131.725 132.925 135.825L167.5 170.401L226.335 111.566Z" fill="white"/>
<path d="M236.319 131.28L174.925 192.675C170.824 196.775 164.176 196.775 160.075 192.675L125.5 158.099L83.6436 199.956C98.0131 225.638 125.479 243 157 243C203.392 243 241 205.392 241 159C241 149.287 239.351 139.959 236.319 131.28Z" fill="white"/>
<path fill-rule="evenodd" clip-rule="evenodd" d="M213.547 233.029C222.38 226.347 229.973 218.129 235.938 208.782C236.003 208.838 236.067 208.896 236.129 208.956L267.69 239.716C271.645 243.571 271.726 249.902 267.871 253.857L258.798 263.167C254.943 267.122 248.612 267.204 244.657 263.349L213.547 233.029Z" fill="white"/>
</g>
<defs>
<filter id="filter0_d_5273_1434" x="73" y="75" width="203.711" height="198.188" filterUnits="userSpaceOnUse" color-interpolation-filters="sRGB">
<feFlood flood-opacity="0" result="BackgroundImageFix"/>
<feColorMatrix in="SourceAlpha" type="matrix" values="0 0 0 0 0 0 0 0 0 0 0 0 0 0 0 0 0 0 127 0" result="hardAlpha"/>
<feOffset dx="3" dy="4"/>
<feGaussianBlur stdDeviation="1.5"/>
<feComposite in2="hardAlpha" operator="out"/>
<feColorMatrix type="matrix" values="0 0 0 0 0 0 0 0 0 0 0 0 0 0 0 0 0 0 0.05 0"/>
<feBlend mode="normal" in2="BackgroundImageFix" result="effect1_dropShadow_5273_1434"/>
<feBlend mode="normal" in="SourceGraphic" in2="effect1_dropShadow_5273_1434" result="shape"/>
</filter>
<linearGradient id="paint0_linear_5273_1434" x1="-135.74" y1="-186.642" x2="464.109" y2="498.543" gradientUnits="userSpaceOnUse">
<stop stop-color="#63D9FE"/>
<stop offset="0.798939" stop-color="#8588FF"/>
</linearGradient>
<linearGradient id="paint1_linear_5273_1434" x1="-23.954" y1="-19.4627" x2="318.389" y2="522.498" gradientUnits="userSpaceOnUse">
<stop offset="1" stop-color="#FFD55C"/>
</linearGradient>
<linearGradient id="paint2_linear_5273_1434" x1="275.728" y1="82.4067" x2="3.67773" y2="349.356" gradientUnits="userSpaceOnUse">
<stop stop-color="white" stop-opacity="0.16"/>
<stop offset="0.53125" stop-color="white" stop-opacity="0"/>
</linearGradient>
</defs>
</svg>
