<svg width="458" height="458" viewBox="0 0 458 458" fill="none" xmlns="http://www.w3.org/2000/svg">
  <rect width="458" height="458" rx="110" fill="black"/>
  <g clip-path="url(#clip0_318_35399)">
  <path fill-rule="evenodd" clip-rule="evenodd" d="M226.162 295.741C265.214 295.741 296.872 264.083 296.872 225.032C296.872 185.98 265.214 154.322 226.162 154.322C187.11 154.322 155.452 185.98 155.452 225.032C155.452 264.083 187.11 295.741 226.162 295.741ZM226.162 349.813C295.077 349.813 350.944 293.947 350.944 225.032C350.944 156.117 295.077 100.25 226.162 100.25C157.247 100.25 101.38 156.117 101.38 225.032C101.38 293.947 157.247 349.813 226.162 349.813Z" fill="#5BCC5A"/>
  <path d="M236.514 235.384C249.486 222.412 270.517 222.412 283.489 235.384L348.078 299.974C361.05 312.945 361.05 333.976 348.078 346.948C335.107 359.92 314.076 359.92 301.104 346.948L236.514 282.358C223.543 269.387 223.543 248.356 236.514 235.384Z" fill="#75DC66"/>
  <path d="M246.829 292.673L287.741 333.585C307.317 322.457 323.587 306.187 334.716 286.611L293.804 245.699C286.958 268.131 269.261 285.828 246.829 292.673Z" fill="#0DA84C"/>
  </g>
  <defs>
  <clipPath id="clip0_318_35399">
  <rect width="257.75" height="257.75" fill="white" transform="translate(100.25 100.25)"/>
  </clipPath>
  </defs>
</svg>
