<svg width="800" height="800" viewBox="0 0 800 800" fill="none" xmlns="http://www.w3.org/2000/svg">
  <rect width="800" height="800" rx="160" fill="black"/>
  <g clip-path="url(#clip0_511_16462)">
  <path d="M279.359 383.138C279.359 375.994 283.179 369.396 289.374 365.838L386.083 310.288C392.144 306.807 399.584 306.751 405.697 310.141L508.502 367.156C514.843 370.672 518.777 377.353 518.777 384.604V496.095C518.777 503.346 514.843 510.027 508.502 513.543L405.697 570.558C399.584 573.948 392.144 573.892 386.083 570.411L289.374 514.861C283.179 511.303 279.359 504.705 279.359 497.561V383.138Z" fill="#75DC66"/>
  <path d="M386.089 230.487L189.777 343.247C176.425 350.917 176.425 370.179 189.777 377.848L386.089 490.609C392.15 494.09 399.591 494.146 405.703 490.756L609.027 377.996C622.727 370.398 622.727 350.698 609.027 343.1L405.703 230.34C399.591 226.95 392.15 227.006 386.089 230.487Z" fill="#5BCC5A"/>
  <path d="M285.295 368.18L378.074 314.888C385.971 310.353 395.815 316.07 395.789 325.176L395.089 569.407C395.081 572.129 392.136 573.828 389.775 572.473L289.38 514.86C283.182 511.303 279.359 504.702 279.359 497.556V378.434C279.359 374.2 281.623 370.289 285.295 368.18Z" fill="#0DA84C"/>
  </g>
  <defs>
  <clipPath id="clip0_511_16462">
  <rect width="438.6" height="438.6" fill="white" transform="translate(180.7 180.699)"/>
  </clipPath>
  </defs>
</svg>
