<svg xmlns="http://www.w3.org/2000/svg" width="40" height="40" fill="none" viewBox="0 0 40 40"><path fill="url(#paint0_linear_3502_434)" d="M0 10.7731C0 4.82328 4.82328 0 10.7731 0H29.2269C35.1767 0 40 4.82328 40 10.7731V29.2269C40 35.1767 35.1767 40 29.2269 40H10.7731C4.82328 40 0 35.1767 0 29.2269V10.7731Z"/><mask id="mask0_3502_434" style="maskType:alpha" width="40" height="40" x="0" y="0" maskUnits="userSpaceOnUse"><rect width="40" height="40" fill="url(#paint1_linear_3502_434)" rx="10.773"/></mask><g mask="url(#mask0_3502_434)"><path fill="url(#paint2_linear_3502_434)" d="M37.4194 22.3656C37.4194 12.1513 29.1391 3.87097 18.9248 3.87097H0.430176V40.8602H37.4194V22.3656Z"/></g><g filter="url(#filter0_d_3502_434)"><path fill="#fff" d="M23.7674 19.9308C24.0689 20.1048 24.0689 20.5399 23.7674 20.7139L18.2906 23.876C17.9892 24.05 17.6124 23.8325 17.6124 23.4844L17.6124 17.1603C17.6124 16.8123 17.9892 16.5947 18.2906 16.7687L23.7674 19.9308Z"/><path fill="#fff" d="M28.3346 14.9472C28.3759 15.2133 28.1465 15.4426 27.8805 15.4014L24.7555 14.9164C24.4337 14.8664 24.305 14.4722 24.5352 14.2419L27.1752 11.602C27.4054 11.3717 27.7997 11.5005 27.8496 11.8222L28.3346 14.9472Z"/><path fill="#fff" fill-rule="evenodd" d="M20.273 12.0365C15.8005 12.0365 12.1749 15.6233 12.1749 20.0477C12.1749 24.4721 15.8005 28.0588 20.273 28.0588C23.5019 28.0588 26.2914 26.1894 27.5922 23.4805C27.8291 22.9871 28.4255 22.7772 28.9242 23.0116C29.423 23.2459 29.6352 23.8359 29.3983 24.3293C27.7788 27.7019 24.3025 30.0369 20.273 30.0369C14.6962 30.0369 10.1754 25.5646 10.1754 20.0477C10.1754 14.5308 14.6962 10.0585 20.273 10.0585C23.0982 10.0585 25.6539 11.2076 27.4854 13.0566C27.8719 13.4468 27.8655 14.073 27.4711 14.4553C27.0767 14.8376 26.4438 14.8312 26.0573 14.4411C24.5863 12.9561 22.5391 12.0365 20.273 12.0365Z" clip-rule="evenodd"/></g><defs><filter id="filter0_d_3502_434" width="20.022" height="20.797" x="10.175" y="10.059" color-interpolation-filters="sRGB" filterUnits="userSpaceOnUse"><feFlood flood-opacity="0" result="BackgroundImageFix"/><feColorMatrix in="SourceAlpha" result="hardAlpha" type="matrix" values="0 0 0 0 0 0 0 0 0 0 0 0 0 0 0 0 0 0 127 0"/><feOffset dx=".351" dy=".468"/><feGaussianBlur stdDeviation=".175"/><feComposite in2="hardAlpha" operator="out"/><feColorMatrix type="matrix" values="0 0 0 0 0 0 0 0 0 0 0 0 0 0 0 0 0 0 0.05 0"/><feBlend in2="BackgroundImageFix" mode="normal" result="effect1_dropShadow_3502_434"/><feBlend in="SourceGraphic" in2="effect1_dropShadow_3502_434" mode="normal" result="shape"/></filter><linearGradient id="paint0_linear_3502_434" x1="-2.825" x2="44.094" y1="-3.819" y2="45.263" gradientUnits="userSpaceOnUse"><stop offset=".16" stop-color="#83D6AE"/><stop offset="1" stop-color="#20C7BD"/></linearGradient><linearGradient id="paint1_linear_3502_434" x1="-2.802" x2="37.239" y1="-2.276" y2="61.111" gradientUnits="userSpaceOnUse"><stop offset="1" stop-color="#FFD55C"/></linearGradient><linearGradient id="paint2_linear_3502_434" x1="32.249" x2=".43" y1="9.638" y2="40.86" gradientUnits="userSpaceOnUse"><stop stop-color="#fff" stop-opacity=".16"/><stop offset=".531" stop-color="#fff" stop-opacity="0"/></linearGradient></defs></svg>