<svg xmlns="http://www.w3.org/2000/svg" width="40" height="40" fill="none" viewBox="0 0 40 40"><g clip-path="url(#clip0_3083_415)"><rect width="40" height="40" fill="url(#paint0_linear_3083_415)" rx="10.753"/><mask id="mask0_3083_415" style="maskType:alpha" width="40" height="40" x="0" y="0" maskUnits="userSpaceOnUse"><rect width="40" height="40" fill="#E5E5E5" rx="10.753"/></mask><mask id="mask1_3083_415" style="maskType:alpha" width="40" height="40" x="0" y="0" maskUnits="userSpaceOnUse"><rect width="40" height="40" fill="url(#paint1_linear_3083_415)" rx="10.753"/></mask><g mask="url(#mask1_3083_415)"><path fill="url(#paint2_linear_3083_415)" d="M37.4194 22.3656C37.4194 12.1513 29.1391 3.87097 18.9248 3.87097H0.430145V40.8602H37.4194V22.3656Z"/></g><rect width="13.498" height="3.681" x="15.858" y="18.182" fill="#fff" rx="1.841"/><rect width="10.43" height="3.681" x="15.858" y="24.318" fill="#fff" rx="1.841"/><rect width="9.817" height="3.681" x="15.858" y="12.047" fill="#fff" rx="1.841"/><circle cx="12.484" cy="13.887" r="1.841" fill="#fff"/><circle cx="12.484" cy="20.023" r="1.841" fill="#fff"/><circle cx="12.484" cy="26.159" r="1.841" fill="#fff"/></g><defs><linearGradient id="paint0_linear_3083_415" x1="20" x2="20" y1="0" y2="40" gradientUnits="userSpaceOnUse"><stop stop-color="#FE8072"/><stop offset="1" stop-color="#F97290"/></linearGradient><linearGradient id="paint1_linear_3083_415" x1="20" x2="20" y1="0" y2="40" gradientUnits="userSpaceOnUse"><stop stop-color="#8886FF"/><stop offset="1" stop-color="#FFD55C"/></linearGradient><linearGradient id="paint2_linear_3083_415" x1="32.249" x2=".43" y1="9.638" y2="40.86" gradientUnits="userSpaceOnUse"><stop stop-color="#fff" stop-opacity=".16"/><stop offset=".375" stop-color="#fff" stop-opacity="0"/></linearGradient><clipPath id="clip0_3083_415"><rect width="40" height="40" fill="#fff"/></clipPath></defs></svg>