<svg xmlns="http://www.w3.org/2000/svg" width="40" height="40" fill="none" viewBox="0 0 40 40"><path fill="url(#paint0_linear_3502_433)" d="M0 10.7731C0 4.82328 4.82328 0 10.7731 0H29.2269C35.1767 0 40 4.82328 40 10.7731V29.2269C40 35.1767 35.1767 40 29.2269 40H10.7731C4.82328 40 0 35.1767 0 29.2269V10.7731Z"/><mask id="mask0_3502_433" style="maskType:alpha" width="40" height="40" x="0" y="0" maskUnits="userSpaceOnUse"><rect width="40" height="40" fill="url(#paint1_linear_3502_433)" rx="10.773"/></mask><g mask="url(#mask0_3502_433)"><path fill="url(#paint2_linear_3502_433)" d="M37.4194 22.3657C37.4194 12.1514 29.1391 3.87109 18.9248 3.87109H0.430176V40.8603H37.4194V22.3657Z"/></g><g filter="url(#filter0_d_3502_433)"><rect width="11.239" height="4.521" x="17.416" y="11.345" fill="#fff" rx=".209"/><rect width="11.239" height="11.239" x="11.345" y="17.416" fill="#fff" rx=".209"/><circle cx="13.606" cy="13.606" r="2.261" fill="#fff"/><rect width="11.239" height="4.521" x="24.134" y="28.655" fill="#fff" rx=".209" transform="rotate(-90 24.1335 28.6549)"/></g><defs><filter id="filter0_d_3502_433" width="18.012" height="18.129" x="11.345" y="11.345" color-interpolation-filters="sRGB" filterUnits="userSpaceOnUse"><feFlood flood-opacity="0" result="BackgroundImageFix"/><feColorMatrix in="SourceAlpha" result="hardAlpha" type="matrix" values="0 0 0 0 0 0 0 0 0 0 0 0 0 0 0 0 0 0 127 0"/><feOffset dx=".351" dy=".468"/><feGaussianBlur stdDeviation=".175"/><feComposite in2="hardAlpha" operator="out"/><feColorMatrix type="matrix" values="0 0 0 0 0 0 0 0 0 0 0 0 0 0 0 0 0 0 0.05 0"/><feBlend in2="BackgroundImageFix" mode="normal" result="effect1_dropShadow_3502_433"/><feBlend in="SourceGraphic" in2="effect1_dropShadow_3502_433" mode="normal" result="shape"/></filter><linearGradient id="paint0_linear_3502_433" x1="-2.825" x2="44.094" y1="-3.819" y2="45.263" gradientUnits="userSpaceOnUse"><stop offset=".16" stop-color="#B49AFC"/><stop offset="1" stop-color="#6A67E8"/></linearGradient><linearGradient id="paint1_linear_3502_433" x1="-2.802" x2="37.239" y1="-2.276" y2="61.111" gradientUnits="userSpaceOnUse"><stop offset="1" stop-color="#FFD55C"/></linearGradient><linearGradient id="paint2_linear_3502_433" x1="32.249" x2=".43" y1="9.638" y2="40.86" gradientUnits="userSpaceOnUse"><stop stop-color="#fff" stop-opacity=".16"/><stop offset=".531" stop-color="#fff" stop-opacity="0"/></linearGradient></defs></svg>