<svg xmlns="http://www.w3.org/2000/svg" width="800" height="800" fill="none" viewBox="0 0 800 800"><rect width="800" height="800" fill="#000" rx="160"/><g clip-path="url(#clip0_511_16459)"><path fill="#5BCC5A" d="M226.337 244.652C226.337 234.537 234.537 226.338 244.651 226.338H342.325V555.987C342.325 566.101 334.126 574.3 324.011 574.3H240.256C232.569 574.3 226.337 568.069 226.337 560.382V244.652Z"/><path fill="#5BCC5A" d="M458.312 439.999C458.312 450.114 450.113 458.313 439.999 458.313H360.639C350.524 458.313 342.325 450.114 342.325 439.999L342.325 226.338H458.312V439.999Z"/><path fill="#0DA84C" d="M458.312 342.325H356.243C348.556 342.325 342.325 348.557 342.325 356.244V458.313H439.999C450.113 458.313 458.312 450.114 458.312 439.999V342.325Z"/><path fill="#75DC66" d="M458.312 226.338H555.986C566.101 226.338 574.3 234.537 574.3 244.652V382.005C574.3 392.12 566.101 400.319 555.986 400.319H458.312V226.338Z"/></g><defs><clipPath id="clip0_511_16459"><rect width="348.3" height="348.3" fill="#fff" transform="translate(226 226)"/></clipPath></defs></svg>