<svg xmlns="http://www.w3.org/2000/svg" width="40" height="40" fill="none" viewBox="0 0 40 40"><rect width="40" height="40" fill="url(#paint0_linear_3502_450)" rx="10.773"/><mask id="mask0_3502_450" style="maskType:alpha" width="40" height="40" x="0" y="0" maskUnits="userSpaceOnUse"><rect width="40" height="40" fill="url(#paint1_linear_3502_450)" rx="10.773"/></mask><g mask="url(#mask0_3502_450)"><path fill="url(#paint2_linear_3502_450)" d="M37.4194 22.3657C37.4194 12.1514 29.1391 3.87109 18.9248 3.87109H0.430176V40.8603H37.4194V22.3657Z"/></g><g filter="url(#filter0_d_3502_450)"><path fill="#fff" fill-rule="evenodd" d="M28.5511 18.0353C28.6956 18.6669 28.7719 19.3245 28.7719 20V28.7719H11.3817L18.9474 21.2063L21.4194 23.6783C21.8305 24.0894 22.497 24.0894 22.908 23.6783L28.5511 18.0353ZM27.8734 16.1281C27.7902 16.1713 27.7122 16.2277 27.6425 16.2974L22.1637 21.7762L19.6917 19.3041C19.2806 18.8931 18.6141 18.893 18.203 19.3041L11.2281 26.2791V11.228H20C23.4548 11.228 26.4432 13.2253 27.8734 16.1281Z" clip-rule="evenodd"/></g><defs><filter id="filter0_d_3502_450" width="18.246" height="18.363" x="11.228" y="11.228" color-interpolation-filters="sRGB" filterUnits="userSpaceOnUse"><feFlood flood-opacity="0" result="BackgroundImageFix"/><feColorMatrix in="SourceAlpha" result="hardAlpha" type="matrix" values="0 0 0 0 0 0 0 0 0 0 0 0 0 0 0 0 0 0 127 0"/><feOffset dx=".351" dy=".468"/><feGaussianBlur stdDeviation=".175"/><feComposite in2="hardAlpha" operator="out"/><feColorMatrix type="matrix" values="0 0 0 0 0 0 0 0 0 0 0 0 0 0 0 0 0 0 0.05 0"/><feBlend in2="BackgroundImageFix" mode="normal" result="effect1_dropShadow_3502_450"/><feBlend in="SourceGraphic" in2="effect1_dropShadow_3502_450" mode="normal" result="shape"/></filter><linearGradient id="paint0_linear_3502_450" x1="-27.544" x2="68.947" y1="-30.175" y2="82.398" gradientUnits="userSpaceOnUse"><stop offset=".161" stop-color="#17FFD5"/><stop offset=".568" stop-color="#46B5C5"/></linearGradient><linearGradient id="paint1_linear_3502_450" x1="-2.802" x2="37.239" y1="-2.276" y2="61.111" gradientUnits="userSpaceOnUse"><stop offset="1" stop-color="#FFD55C"/></linearGradient><linearGradient id="paint2_linear_3502_450" x1="32.249" x2=".43" y1="9.638" y2="40.86" gradientUnits="userSpaceOnUse"><stop stop-color="#fff" stop-opacity=".16"/><stop offset=".531" stop-color="#fff" stop-opacity="0"/></linearGradient></defs></svg>