<svg xmlns="http://www.w3.org/2000/svg" width="800" height="800" fill="none" viewBox="0 0 800 800"><rect width="800" height="800" fill="#000" rx="160"/><g clip-path="url(#clip0_511_16530)"><path fill="#5BCC5A" d="M225.351 507.158V291.505C225.351 255.118 265.716 233.243 296.201 253.11L485.039 376.173C501.773 387.078 501.773 411.586 485.039 422.491L296.201 545.554C265.716 565.42 225.351 543.545 225.351 507.158Z"/><path fill="#75DC66" d="M573.651 472.683V325.978C573.651 295.228 539.163 277.086 513.824 294.507L394.486 376.552C378.51 387.535 378.51 411.126 394.486 422.109L513.824 504.154C539.163 521.575 573.651 503.433 573.651 472.683Z"/><path fill="#0DA84C" d="M438.836 346.064L485.04 376.174C501.774 387.08 501.774 411.588 485.04 422.493L438.838 452.602L394.488 422.111C378.511 411.127 378.511 387.537 394.488 376.553L438.836 346.064Z"/></g><defs><clipPath id="clip0_511_16530"><rect width="348.3" height="348.3" fill="#fff" transform="translate(225.35 225.35)"/></clipPath></defs></svg>