<svg xmlns="http://www.w3.org/2000/svg" width="40" height="40" fill="none" viewBox="0 0 40 40"><path fill="url(#paint0_linear_3502_440)" d="M0 10.7731C0 4.82328 4.82328 0 10.7731 0H29.2269C35.1767 0 40 4.82328 40 10.7731V29.2269C40 35.1767 35.1767 40 29.2269 40H10.7731C4.82328 40 0 35.1767 0 29.2269V10.7731Z"/><mask id="mask0_3502_440" style="maskType:alpha" width="40" height="40" x="0" y="0" maskUnits="userSpaceOnUse"><rect width="40" height="40" fill="url(#paint1_linear_3502_440)" rx="10.773"/></mask><g mask="url(#mask0_3502_440)"><path fill="url(#paint2_linear_3502_440)" d="M37.4194 22.3657C37.4194 12.1514 29.1391 3.87109 18.9248 3.87109H0.430176V40.8603H37.4194V22.3657Z"/></g><g filter="url(#filter0_d_3502_440)"><path fill="#fff" d="M19.9415 30.6432L17.7778 28.538H22.1053L19.9415 30.6432Z"/><path fill="#fff" fill-rule="evenodd" d="M19.9415 11.228C24.7538 11.228 28.655 15.1292 28.655 19.9415V28.6549H11.2281V11.228H19.9415ZM16.0234 17.3099C15.765 17.3099 15.5556 17.5194 15.5556 17.7777C15.5556 18.0361 15.765 18.2456 16.0234 18.2456H23.7427C24.0011 18.2456 24.2105 18.0361 24.2105 17.7777C24.2105 17.5194 24.0011 17.3099 23.7427 17.3099H16.0234ZM15.5556 20C15.5556 19.7416 15.765 19.5321 16.0234 19.5321H23.7427C24.0011 19.5321 24.2105 19.7416 24.2105 20C24.2105 20.2583 24.0011 20.4678 23.7427 20.4678H16.0234C15.765 20.4678 15.5556 20.2583 15.5556 20ZM16.0234 21.8713C15.765 21.8713 15.5556 22.0808 15.5556 22.3391C15.5556 22.5975 15.765 22.807 16.0234 22.807H19.7661C20.0245 22.807 20.2339 22.5975 20.2339 22.3391C20.2339 22.0808 20.0245 21.8713 19.7661 21.8713H16.0234Z" clip-rule="evenodd"/></g><defs><filter id="filter0_d_3502_440" width="18.129" height="20.234" x="11.228" y="11.228" color-interpolation-filters="sRGB" filterUnits="userSpaceOnUse"><feFlood flood-opacity="0" result="BackgroundImageFix"/><feColorMatrix in="SourceAlpha" result="hardAlpha" type="matrix" values="0 0 0 0 0 0 0 0 0 0 0 0 0 0 0 0 0 0 127 0"/><feOffset dx=".351" dy=".468"/><feGaussianBlur stdDeviation=".175"/><feComposite in2="hardAlpha" operator="out"/><feColorMatrix type="matrix" values="0 0 0 0 0 0 0 0 0 0 0 0 0 0 0 0 0 0 0.05 0"/><feBlend in2="BackgroundImageFix" mode="normal" result="effect1_dropShadow_3502_440"/><feBlend in="SourceGraphic" in2="effect1_dropShadow_3502_440" mode="normal" result="shape"/></filter><linearGradient id="paint0_linear_3502_440" x1="-15.876" x2="54.282" y1="-21.829" y2="58.309" gradientUnits="userSpaceOnUse"><stop stop-color="#3EA8CA"/><stop offset="1" stop-color="#59B9EF"/></linearGradient><linearGradient id="paint1_linear_3502_440" x1="-2.802" x2="37.239" y1="-2.276" y2="61.111" gradientUnits="userSpaceOnUse"><stop offset="1" stop-color="#FFD55C"/></linearGradient><linearGradient id="paint2_linear_3502_440" x1="32.249" x2=".43" y1="9.638" y2="40.86" gradientUnits="userSpaceOnUse"><stop stop-color="#fff" stop-opacity=".16"/><stop offset=".531" stop-color="#fff" stop-opacity="0"/></linearGradient></defs></svg>