<svg width="800" height="800" viewBox="0 0 800 800" fill="none" xmlns="http://www.w3.org/2000/svg">
  <rect width="800" height="800" rx="160" fill="black"/>
  <path d="M385.904 479.959C372.608 466.663 372.608 445.106 385.904 431.81C399.2 418.514 420.757 418.514 434.053 431.81L543.628 541.385C556.924 554.681 556.924 576.238 543.628 589.534C530.332 602.83 508.775 602.83 495.479 589.534L385.904 479.959Z" fill="#5BCC5A"/>
  <path d="M530.771 400.917C530.771 405.003 527.459 408.315 523.373 408.315L452.202 408.315L452.201 207.691C452.201 203.605 455.514 200.293 459.6 200.293L523.373 200.293C527.459 200.293 530.771 203.605 530.771 207.691L530.771 400.917Z" fill="#75DC66"/>
  <path d="M452.197 408.315L381.026 408.315C376.94 408.315 373.628 405.003 373.628 400.917L373.628 266.806C373.628 262.72 376.94 259.407 381.026 259.407L452.197 259.407V408.315Z" fill="#75DC66"/>
  <path d="M501.589 408.316C501.589 478.984 444.301 536.272 373.633 536.272C302.965 536.272 245.677 478.984 245.677 408.316C245.677 337.648 302.965 280.36 373.633 280.36C444.301 280.36 501.589 337.648 501.589 408.316Z" fill="#5BCC5A"/>
  <path d="M373.631 280.342C373.631 280.342 373.631 280.342 373.631 280.342C403.248 280.342 430.516 290.404 452.2 307.297C482.255 330.71 501.586 367.244 501.588 408.294H381.114C376.981 408.294 373.631 404.943 373.631 400.811L373.631 280.342Z" fill="#0DA84C"/>
</svg>
