<svg xmlns="http://www.w3.org/2000/svg" width="40" height="40" fill="none" viewBox="0 0 40 40"><g clip-path="url(#clip0_3083_412)"><rect width="40" height="40" fill="url(#paint0_linear_3083_412)" rx="10.773"/><mask id="mask0_3083_412" style="maskType:alpha" width="40" height="40" x="0" y="0" maskUnits="userSpaceOnUse"><rect width="40" height="40" fill="url(#paint1_linear_3083_412)" rx="10.773"/></mask><g mask="url(#mask0_3083_412)"><path fill="url(#paint2_linear_3083_412)" d="M37.4195 22.3656C37.4195 12.1513 29.1392 3.87097 18.9249 3.87097H0.430237V40.8602H37.4195V22.3656Z"/><g filter="url(#filter0_d_3083_412)"><path fill="#fff" d="M17.8925 10.7527H22.1075C24.3433 10.7527 26.4876 11.6264 28.0685 13.1818C29.6495 14.7371 30.5376 16.8465 30.5376 19.046C30.5376 21.2456 29.6495 23.355 28.0685 24.9103C26.4876 26.4656 24.3433 27.3394 22.1075 27.3394V30.9677C16.8387 28.8944 9.46237 25.7844 9.46237 19.046C9.46237 17.9569 9.68042 16.8785 10.1041 15.8723C10.5277 14.8661 11.1487 13.9519 11.9315 13.1818C12.7143 12.4116 13.6436 11.8008 14.6664 11.384C15.6892 10.9672 16.7854 10.7527 17.8925 10.7527V10.7527Z"/></g></g></g><defs><filter id="filter0_d_3083_412" width="29.694" height="28.834" x="5.153" y="8.167" color-interpolation-filters="sRGB" filterUnits="userSpaceOnUse"><feFlood flood-opacity="0" result="BackgroundImageFix"/><feColorMatrix in="SourceAlpha" result="hardAlpha" type="matrix" values="0 0 0 0 0 0 0 0 0 0 0 0 0 0 0 0 0 0 127 0"/><feOffset dy="1.724"/><feGaussianBlur stdDeviation="2.155"/><feComposite in2="hardAlpha" operator="out"/><feColorMatrix type="matrix" values="0 0 0 0 0 0 0 0 0 0 0 0 0 0 0 0 0 0 0.1 0"/><feBlend in2="BackgroundImageFix" mode="normal" result="effect1_dropShadow_3083_412"/><feBlend in="SourceGraphic" in2="effect1_dropShadow_3083_412" mode="normal" result="shape"/></filter><linearGradient id="paint0_linear_3083_412" x1="20" x2="20" y1="0" y2="40" gradientUnits="userSpaceOnUse"><stop stop-color="#8886FF"/><stop offset="1" stop-color="#9B72E7"/></linearGradient><linearGradient id="paint1_linear_3083_412" x1="20" x2="20" y1="0" y2="40" gradientUnits="userSpaceOnUse"><stop stop-color="#8886FF"/><stop offset="1" stop-color="#9B72E7"/></linearGradient><linearGradient id="paint2_linear_3083_412" x1="32.249" x2=".43" y1="9.638" y2="40.86" gradientUnits="userSpaceOnUse"><stop stop-color="#fff" stop-opacity=".1"/><stop offset=".964" stop-opacity="0"/></linearGradient><clipPath id="clip0_3083_412"><rect width="40" height="40" fill="#fff"/></clipPath></defs></svg>