<svg xmlns="http://www.w3.org/2000/svg" width="40" height="40" fill="none" viewBox="0 0 40 40"><path fill="url(#paint0_linear_3502_435)" d="M0 10.7731C0 4.82328 4.82328 0 10.7731 0H29.2269C35.1767 0 40 4.82328 40 10.7731V29.2269C40 35.1767 35.1767 40 29.2269 40H10.7731C4.82328 40 0 35.1767 0 29.2269V10.7731Z"/><mask id="mask0_3502_435" style="maskType:alpha" width="40" height="40" x="0" y="0" maskUnits="userSpaceOnUse"><rect width="40" height="40" fill="url(#paint1_linear_3502_435)" rx="10.773"/></mask><g mask="url(#mask0_3502_435)"><path fill="url(#paint2_linear_3502_435)" d="M37.4194 22.3657C37.4194 12.1514 29.1391 3.87109 18.9248 3.87109H0.430176V40.8603H37.4194V22.3657Z"/></g><g filter="url(#filter0_d_3502_435)"><path fill="#fff" fill-rule="evenodd" d="M19.1452 9.70779L17.7336 11.1194L11.1552 17.6978L8.88889 19.9641L11.1552 22.2305L17.7336 28.8089L19.1452 30.2205V25.6878L13.4216 19.9641L19.1452 14.2405V9.70779ZM20.8546 25.6879L26.5784 19.9641L20.8546 14.2403V9.70764L22.2663 11.1194L28.8448 17.6978L31.1111 19.9641L28.8448 22.2305L22.2663 28.8089L20.8546 30.2206V25.6879Z" clip-rule="evenodd"/></g><defs><filter id="filter0_d_3502_435" width="22.924" height="21.332" x="8.889" y="9.708" color-interpolation-filters="sRGB" filterUnits="userSpaceOnUse"><feFlood flood-opacity="0" result="BackgroundImageFix"/><feColorMatrix in="SourceAlpha" result="hardAlpha" type="matrix" values="0 0 0 0 0 0 0 0 0 0 0 0 0 0 0 0 0 0 127 0"/><feOffset dx=".351" dy=".468"/><feGaussianBlur stdDeviation=".175"/><feComposite in2="hardAlpha" operator="out"/><feColorMatrix type="matrix" values="0 0 0 0 0 0 0 0 0 0 0 0 0 0 0 0 0 0 0.05 0"/><feBlend in2="BackgroundImageFix" mode="normal" result="effect1_dropShadow_3502_435"/><feBlend in="SourceGraphic" in2="effect1_dropShadow_3502_435" mode="normal" result="shape"/></filter><linearGradient id="paint0_linear_3502_435" x1="-2.825" x2="44.094" y1="-3.819" y2="45.263" gradientUnits="userSpaceOnUse"><stop offset=".16" stop-color="#79B3F7"/><stop offset="1" stop-color="#4B47FF"/></linearGradient><linearGradient id="paint1_linear_3502_435" x1="-2.802" x2="37.239" y1="-2.276" y2="61.111" gradientUnits="userSpaceOnUse"><stop offset="1" stop-color="#FFD55C"/></linearGradient><linearGradient id="paint2_linear_3502_435" x1="32.249" x2=".43" y1="9.638" y2="40.86" gradientUnits="userSpaceOnUse"><stop stop-color="#fff" stop-opacity=".16"/><stop offset=".531" stop-color="#fff" stop-opacity="0"/></linearGradient></defs></svg>