<svg width="800" height="800" viewBox="0 0 800 800" fill="none" xmlns="http://www.w3.org/2000/svg">
  <rect width="800" height="800" rx="160" fill="black"/>
  <g clip-path="url(#clip0_511_16480)">
  <path fill-rule="evenodd" clip-rule="evenodd" d="M462.769 354.258C447.972 354.258 435.977 366.253 435.977 381.051V416.931C435.977 461.323 399.99 497.31 355.598 497.31H308.789C293.992 497.31 281.996 485.314 281.996 470.517C281.996 455.72 293.992 443.724 308.789 443.724H355.598C370.395 443.724 382.391 431.728 382.391 416.931V381.051C382.391 336.659 418.377 300.672 462.769 300.672H539.741C554.538 300.672 566.534 312.667 566.534 327.465C566.534 342.262 554.538 354.258 539.741 354.258H462.769Z" fill="#75DC66"/>
  <path fill-rule="evenodd" clip-rule="evenodd" d="M271.655 470.516C271.655 455.718 283.651 443.723 298.448 443.723H539.741C554.538 443.723 566.534 455.718 566.534 470.516C566.534 485.313 554.538 497.308 539.741 497.308H298.448C283.651 497.308 271.655 485.313 271.655 470.516Z" fill="#5BCC5A"/>
  <path fill-rule="evenodd" clip-rule="evenodd" d="M431.403 443.725C420.369 474.943 390.596 497.31 355.598 497.31H308.789C293.992 497.31 281.997 485.314 281.997 470.517C281.997 455.769 293.913 443.804 308.643 443.725H431.403Z" fill="#0DA84C"/>
  <circle cx="257.303" cy="470.735" r="55.372" fill="#5BCC5A"/>
  <circle cx="539.961" cy="327.683" r="55.372" fill="#75DC66"/>
  <circle cx="539.96" cy="470.735" r="55.372" fill="#5BCC5A"/>
  </g>
  <defs>
  <clipPath id="clip0_511_16480">
  <rect width="394.74" height="394.74" fill="white" transform="translate(201.93 201.93)"/>
  </clipPath>
  </defs>
</svg>
