<svg width="458" height="458" viewBox="0 0 458 458" fill="none" xmlns="http://www.w3.org/2000/svg">
  <rect width="458" height="458" rx="110" fill="black"/>
  <path d="M356.998 238.847V334.544C356.998 346.946 346.944 357 334.542 357H123.456C111.054 357 101 346.946 101 334.544L101 238.847H356.998Z" fill="#5BCC5A"/>
  <path d="M219.153 101L219.153 219.153L101 219.153L101 123.456C101 111.054 111.054 101 123.456 101L219.153 101Z" fill="#5BCC5A"/>
  <path d="M334.542 101C346.944 101 356.998 111.054 356.998 123.456V334.544C356.998 346.946 346.944 357 334.542 357L238.845 356.998V101L334.542 101Z" fill="#75DC66"/>
  <path d="M238.845 356.998L238.845 238.845L356.998 238.847V334.544C356.998 346.87 347.067 356.876 334.769 356.998L238.845 356.998Z" fill="#0DA84C"/>
</svg>
