<svg xmlns="http://www.w3.org/2000/svg" width="40" height="40" fill="none" viewBox="0 0 40 40"><rect width="40" height="40" fill="url(#paint0_linear_3502_445)" rx="10.773"/><mask id="mask0_3502_445" style="maskType:alpha" width="40" height="40" x="0" y="0" maskUnits="userSpaceOnUse"><rect width="40" height="40" fill="url(#paint1_linear_3502_445)" rx="10.773"/></mask><g mask="url(#mask0_3502_445)"><path fill="url(#paint2_linear_3502_445)" d="M37.4194 22.3657C37.4194 12.1514 29.1391 3.87109 18.9248 3.87109H0.430176V40.8603H37.4194V22.3657Z"/></g><g filter="url(#filter0_d_3502_445)"><path fill="#fff" d="M30.4576 28.1426L27.6617 25.3801C27.38 25.8328 27.0447 26.2572 26.6572 26.6433C26.2665 27.0344 25.8379 27.3732 25.3801 27.6569L28.1922 30.4352C28.8225 31.0587 29.8363 31.0532 30.4631 30.4274C30.4657 30.4248 30.4679 30.4226 30.4702 30.4206C31.0992 29.7913 31.0908 28.7683 30.4576 28.1426Z"/><path stroke="#fff" stroke-width="2.339" d="M27.9532 19.1228C27.9532 23.9933 23.98 27.9532 19.0643 27.9532C14.1487 27.9532 10.1754 23.9933 10.1754 19.1228C10.1754 14.2523 14.1487 10.2924 19.0643 10.2924C23.98 10.2924 27.9532 14.2523 27.9532 19.1228Z"/><path fill="#fff" d="M22.3202 15.6518L21.2851 16.6786L23.2017 19.0643L21.2851 21.453L22.3202 22.4798L25.0292 19.0643L22.3202 15.6518ZM17.0775 16.6757L16.0424 15.6496L13.3333 19.0643L16.0424 22.4769L17.0775 21.4501L15.1608 19.0643L17.0775 16.6757ZM17.7193 22.6901H19.1813L20.6433 15.4386H19.1813L17.7193 22.6901Z"/></g><defs><filter id="filter0_d_3502_445" width="22.633" height="22.596" x="9.006" y="9.123" color-interpolation-filters="sRGB" filterUnits="userSpaceOnUse"><feFlood flood-opacity="0" result="BackgroundImageFix"/><feColorMatrix in="SourceAlpha" result="hardAlpha" type="matrix" values="0 0 0 0 0 0 0 0 0 0 0 0 0 0 0 0 0 0 127 0"/><feOffset dx=".351" dy=".468"/><feGaussianBlur stdDeviation=".175"/><feComposite in2="hardAlpha" operator="out"/><feColorMatrix type="matrix" values="0 0 0 0 0 0 0 0 0 0 0 0 0 0 0 0 0 0 0.05 0"/><feBlend in2="BackgroundImageFix" mode="normal" result="effect1_dropShadow_3502_445"/><feBlend in="SourceGraphic" in2="effect1_dropShadow_3502_445" mode="normal" result="shape"/></filter><linearGradient id="paint0_linear_3502_445" x1="-15.876" x2="54.282" y1="-21.829" y2="58.309" gradientUnits="userSpaceOnUse"><stop stop-color="#FFF27A"/><stop offset=".823" stop-color="#FF9E45"/></linearGradient><linearGradient id="paint1_linear_3502_445" x1="-2.802" x2="37.239" y1="-2.276" y2="61.111" gradientUnits="userSpaceOnUse"><stop offset="1" stop-color="#FFD55C"/></linearGradient><linearGradient id="paint2_linear_3502_445" x1="32.249" x2=".43" y1="9.638" y2="40.86" gradientUnits="userSpaceOnUse"><stop stop-color="#fff" stop-opacity=".16"/><stop offset=".531" stop-color="#fff" stop-opacity="0"/></linearGradient></defs></svg>