<svg width="458" height="458" viewBox="0 0 458 458" fill="none" xmlns="http://www.w3.org/2000/svg">
  <rect width="458" height="458" rx="110" fill="black"/>
  <g clip-path="url(#clip0_318_35368)">
  <path d="M146 111.475C146 105.138 151.138 100 157.475 100H300.184C306.521 100 311.659 105.138 311.659 111.475V278.427C311.659 284.764 306.521 289.902 300.184 289.902H146V111.475Z" fill="#5BCC5A"/>
  <path fill-rule="evenodd" clip-rule="evenodd" d="M179.334 289.901C170.966 289.901 164.182 296.685 164.182 305.053C164.182 313.421 170.966 320.205 179.334 320.205H303.578C308.041 320.205 311.659 323.823 311.659 328.286C311.659 332.749 308.041 336.366 303.578 336.366H179.334C162.04 336.366 148.02 322.347 148.02 305.053C148.02 287.759 162.04 273.739 179.334 273.739H264.203V289.901H179.334Z" fill="#5BCC5A"/>
  <path d="M146 289.901H156.498L162.162 315.154L186.405 336.367L179.111 336.363C160.822 336.355 146 321.526 146 303.237V289.901Z" fill="#5BCC5A"/>
  <path d="M188.425 264.089C188.425 262.399 189.795 261.029 191.485 261.029H233.85C235.54 261.029 236.91 262.399 236.91 264.089V358.001L212.668 345.726L188.425 358.001V264.089Z" fill="#75DC66"/>
  <path fill-rule="evenodd" clip-rule="evenodd" d="M236.91 289.902H188.424V262.659C188.424 260.969 189.794 259.599 191.484 259.599H233.85C235.54 259.599 236.91 260.969 236.91 262.659V289.902Z" fill="#0DA84C"/>
  </g>
  <defs>
  <clipPath id="clip0_318_35368">
  <rect width="258" height="258" fill="white" transform="translate(100 100)"/>
  </clipPath>
  </defs>
</svg>
