<svg width="458" height="458" viewBox="0 0 458 458" fill="none" xmlns="http://www.w3.org/2000/svg">
  <rect width="458" height="458" rx="110" fill="black"/>
  <path d="M335.408 358H122L122 305.445C122 246.514 169.773 198.741 228.704 198.741C287.635 198.741 335.408 246.514 335.408 305.444V358Z" fill="#5BCC5A"/>
  <path d="M122 100H335.407V152.555C335.407 211.486 287.635 259.259 228.704 259.259C169.773 259.259 122 211.486 122 152.556V100Z" fill="#75DC66"/>
  <path d="M303.148 229C283.923 247.725 257.66 259.259 228.704 259.259C199.747 259.259 173.484 247.725 154.259 229C173.484 210.275 199.747 198.741 228.704 198.741C257.661 198.741 283.923 210.275 303.148 229Z" fill="#0DA84C"/>
</svg>
