<svg xmlns="http://www.w3.org/2000/svg" width="800" height="800" fill="none" viewBox="0 0 800 800"><rect width="800" height="800" fill="#000" rx="160"/><g clip-path="url(#clip0_511_16536)"><path fill="#75DC66" d="M435.43 493.486C435.43 537.76 399.54 573.651 355.266 573.651C310.993 573.651 275.102 537.76 275.102 493.486C275.102 449.213 310.993 413.322 355.266 413.322C399.54 413.322 435.43 449.213 435.43 493.486Z"/><path fill="#5BCC5A" d="M228.051 393.284C228.051 343.717 268.233 303.535 317.8 303.535H367.467V483.033H317.8C268.233 483.033 228.051 442.851 228.051 393.284Z"/><path fill="#5BCC5A" d="M367.466 303.532L547.086 226.771C558.584 221.858 571.361 230.293 571.361 242.796V543.766C571.361 556.269 558.584 564.705 547.086 559.791L367.466 483.03V303.532Z"/><path fill="#0DA84C" d="M367.466 414.243L367.466 483.03L317.8 483.033C303.349 483.033 289.695 479.616 277.603 473.549C286.466 438.92 317.878 413.321 355.269 413.321C359.416 413.321 363.489 413.636 367.466 414.243Z"/><path fill="#0DA84C" d="M433.461 511.231L367.466 483.03L367.466 414.243C405.95 420.119 435.43 453.361 435.43 493.486C435.43 499.585 434.751 505.522 433.461 511.231Z"/></g><defs><clipPath id="clip0_511_16536"><rect width="348.3" height="348.3" fill="#fff" transform="translate(225.35 225.35)"/></clipPath></defs></svg>