<svg xmlns="http://www.w3.org/2000/svg" width="800" height="800" fill="none" viewBox="0 0 800 800"><rect width="800" height="800" fill="#000" rx="160"/><path fill="#5BCC5A" d="M490.319 452.567C490.319 530.742 426.945 594.116 348.77 594.116C270.595 594.116 207.221 530.742 207.221 452.567C207.221 374.392 270.595 311.018 348.77 311.018C426.945 311.018 490.319 374.392 490.319 452.567Z"/><path fill="#75DC66" d="M594.12 348.767C594.12 426.943 530.746 490.316 452.571 490.316C374.396 490.316 311.022 426.943 311.022 348.767C311.022 270.592 374.396 207.219 452.571 207.219C530.746 207.219 594.12 270.592 594.12 348.767Z"/><path fill="#0DA84C" d="M315.063 315.063C325.866 312.424 337.155 311.024 348.771 311.024C426.946 311.024 490.32 374.398 490.32 452.573C490.32 464.19 488.92 475.48 486.281 486.284C475.478 488.923 464.189 490.322 452.572 490.322C374.397 490.322 311.024 426.949 311.024 348.774C311.024 337.157 312.423 325.867 315.063 315.063Z"/></svg>