<svg xmlns="http://www.w3.org/2000/svg" width="40" height="40" fill="none" viewBox="0 0 40 40"><path fill="url(#paint0_linear_3502_438)" d="M0 10.7731C0 4.82328 4.82328 0 10.7731 0H29.2269C35.1767 0 40 4.82328 40 10.7731V29.2269C40 35.1767 35.1767 40 29.2269 40H10.7731C4.82328 40 0 35.1767 0 29.2269V10.7731Z"/><mask id="mask0_3502_438" style="maskType:alpha" width="40" height="40" x="0" y="0" maskUnits="userSpaceOnUse"><rect width="40" height="40" fill="url(#paint1_linear_3502_438)" rx="10.773"/></mask><g mask="url(#mask0_3502_438)"><path fill="url(#paint2_linear_3502_438)" d="M37.4194 22.3657C37.4194 12.1514 29.1391 3.87109 18.9248 3.87109H0.430189V40.8603H37.4194V22.3657Z"/></g><g filter="url(#filter0_d_3502_438)"><path fill="#fff" fill-rule="evenodd" d="M20.7018 11.2281C25.5464 11.2281 29.4737 15.1555 29.4737 20.0001V28.772H11.9298V11.2281H20.7018ZM16.9591 15.5555C16.9591 15.1679 16.6449 14.8538 16.2574 14.8538C15.8698 14.8538 15.5556 15.1679 15.5556 15.5555C15.5556 18.3977 17.8596 20.7017 20.7018 20.7017C23.544 20.7017 25.848 18.3977 25.848 15.5555C25.848 15.1679 25.5338 14.8538 25.1462 14.8538C24.7587 14.8538 24.4445 15.1679 24.4445 15.5555C24.4445 17.6225 22.7688 19.2982 20.7018 19.2982C18.6348 19.2982 16.9591 17.6225 16.9591 15.5555Z" clip-rule="evenodd"/></g><defs><filter id="filter0_d_3502_438" width="18.246" height="18.363" x="11.93" y="11.228" color-interpolation-filters="sRGB" filterUnits="userSpaceOnUse"><feFlood flood-opacity="0" result="BackgroundImageFix"/><feColorMatrix in="SourceAlpha" result="hardAlpha" type="matrix" values="0 0 0 0 0 0 0 0 0 0 0 0 0 0 0 0 0 0 127 0"/><feOffset dx=".351" dy=".468"/><feGaussianBlur stdDeviation=".175"/><feComposite in2="hardAlpha" operator="out"/><feColorMatrix type="matrix" values="0 0 0 0 0 0 0 0 0 0 0 0 0 0 0 0 0 0 0.05 0"/><feBlend in2="BackgroundImageFix" mode="normal" result="effect1_dropShadow_3502_438"/><feBlend in="SourceGraphic" in2="effect1_dropShadow_3502_438" mode="normal" result="shape"/></filter><linearGradient id="paint0_linear_3502_438" x1="-8.07" x2="42.515" y1="-31.287" y2="49.474" gradientUnits="userSpaceOnUse"><stop stop-color="#3C5BFF"/><stop offset=".733" stop-color="#55ABE9"/></linearGradient><linearGradient id="paint1_linear_3502_438" x1="-2.802" x2="37.239" y1="-2.276" y2="61.111" gradientUnits="userSpaceOnUse"><stop offset="1" stop-color="#FFD55C"/></linearGradient><linearGradient id="paint2_linear_3502_438" x1="32.249" x2=".43" y1="9.638" y2="40.86" gradientUnits="userSpaceOnUse"><stop stop-color="#fff" stop-opacity=".16"/><stop offset=".531" stop-color="#fff" stop-opacity="0"/></linearGradient></defs></svg>