<svg xmlns="http://www.w3.org/2000/svg" width="800" height="800" fill="none" viewBox="0 0 800 800"><rect width="800" height="800" fill="#000" rx="160"/><g clip-path="url(#clip0_511_16524)"><path fill="#75DC66" d="M537.313 494.247C537.313 538.46 504.71 574.301 464.492 574.301H298.823C258.604 574.301 226.001 538.46 226.001 494.247V438.21C226.001 393.997 258.604 358.156 298.823 358.156H464.492C504.71 358.156 537.313 393.997 537.313 438.21V494.247Z"/><path fill="#75DC66" d="M357.08 298.116L263.322 368.163L357.08 360.158V298.116Z"/><path fill="#5BCC5A" d="M261.448 305.165C261.448 261.444 294.213 226.001 334.63 226.001H501.12C541.537 226.001 574.302 261.444 574.302 305.165V360.58C574.302 404.301 541.537 439.744 501.12 439.744H334.63C294.213 439.744 261.448 404.301 261.448 360.58V305.165Z"/><path fill="#5BCC5A" d="M442.574 499.117L536.796 429.849L442.574 437.765V499.117Z"/><path fill="#0DA84C" d="M536.902 429.652C536.781 429.725 536.661 429.798 536.54 429.87L536.796 429.849L442.574 499.117L442.573 439.744L334.63 439.744C296.908 439.744 265.852 408.871 261.877 369.209C262.439 368.845 263.005 368.489 263.576 368.141L263.322 368.163L357.08 298.116L357.079 358.156L464.492 358.156C502.08 358.156 533.017 389.463 536.902 429.652Z"/></g><defs><clipPath id="clip0_511_16524"><rect width="348.3" height="348.3" fill="#fff" transform="translate(226 226)"/></clipPath></defs></svg>