<svg width="800" height="800" viewBox="0 0 800 800" fill="none" xmlns="http://www.w3.org/2000/svg">
  <rect width="800" height="800" rx="160" fill="black"/>
  <path d="M413.164 215.661L564.556 566.189C570.623 580.235 556.503 594.523 542.386 588.622L381.084 521.2C374.295 518.363 370.102 511.481 370.691 504.147L393.627 218.889C394.479 208.29 408.948 205.9 413.164 215.661Z" fill="#75DC66"/>
  <path d="M386.452 215.661L235.06 566.189C228.993 580.235 243.113 594.523 257.23 588.622L418.532 521.2C425.321 518.363 429.514 511.481 428.925 504.147L405.989 218.889C405.137 208.29 390.668 205.9 386.452 215.661Z" fill="#5BCC5A"/>
  <path d="M399.804 210.3C396.563 211.632 393.969 214.583 393.623 218.89L370.688 504.147C370.098 511.481 374.292 518.363 381.08 521.2L399.804 529.027L418.528 521.2C425.317 518.363 429.511 511.481 428.921 504.147L405.986 218.89C405.64 214.583 403.045 211.632 399.804 210.3Z" fill="#0DA84C"/>
</svg>
