<svg xmlns="http://www.w3.org/2000/svg" width="800" height="800" fill="none" viewBox="0 0 800 800"><rect width="800" height="800" fill="#000" rx="160"/><g clip-path="url(#clip0_511_16527)"><path fill="#5BCC5A" fill-rule="evenodd" d="M395.983 489.913C448.703 489.913 491.441 447.175 491.441 394.455C491.441 341.735 448.703 298.997 395.983 298.997C343.263 298.997 300.525 341.735 300.525 394.455C300.525 447.175 343.263 489.913 395.983 489.913ZM395.983 562.91C489.018 562.91 564.438 487.49 564.438 394.455C564.438 301.42 489.018 226 395.983 226C302.947 226 227.527 301.42 227.527 394.455C227.527 487.49 302.947 562.91 395.983 562.91Z" clip-rule="evenodd"/><path fill="#75DC66" d="M409.958 408.431C427.47 390.919 455.862 390.919 473.373 408.431L560.57 495.627C578.081 513.139 578.081 541.531 560.57 559.042C543.058 576.554 514.666 576.554 497.154 559.042L409.958 471.846C392.446 454.335 392.446 425.942 409.958 408.431Z"/><path fill="#0DA84C" d="M423.883 485.772L479.115 541.003C505.541 525.98 527.507 504.014 542.53 477.588L487.299 422.356C478.058 452.639 454.166 476.531 423.883 485.772Z"/></g><defs><clipPath id="clip0_511_16527"><rect width="347.962" height="347.962" fill="#fff" transform="translate(226 226)"/></clipPath></defs></svg>